<svg viewBox="0 0 12.84 12.84" xmlns="http://www.w3.org/2000/svg"><rect fill="#231f20" height="12.47" rx="1.39" width="12.47" x=".18" y=".18"/><g fill="#fff"><path d="m11.26 0h-9.68a1.58 1.58 0 0 0 -1.58 1.58v9.68a1.58 1.58 0 0 0 1.58 1.58h9.68a1.58 1.58 0 0 0 1.58-1.58v-9.68a1.58 1.58 0 0 0 -1.58-1.58m0 .37a1.21 1.21 0 0 1 1.21 1.21v9.68a1.21 1.21 0 0 1 -1.21 1.21h-9.68a1.21 1.21 0 0 1 -1.21-1.21v-9.68a1.21 1.21 0 0 1 1.21-1.21z"/><path d="m4.76 8.44h-.69v-4h.69zm-2.28-2.33h3.87v.69h-3.87z"/><path d="m8.22 9.37v-5.32l1-.6v5.92zm-1.15.09v-.39l.58-.07.69-.11-.12.46v-.9h1v.85l-.11-.42 1.22.18v.4zm1.33-5.09-1.4-.1v-.27a8.4 8.4 0 0 1 2-.57h.3v.89z"/></g></svg>