<svg xmlns="http://www.w3.org/2000/svg" width="506" height="508" viewBox="0 0 506 508">
    <path fill-rule="evenodd"
        d="M459.8 0c5.1 0 10.3.7 13.9 1.8 3.2 1 8 3.2 10.8 4.9 2.7 1.7 6.9 5.2 9.2 7.7 2.4 2.5 5.6 7.4 7.3 10.8 1.6 3.5 3.4 9.2 4.1 12.8.8 4.7.8 8.4 0 13.5-.6 3.8-2.4 9.8-4.1 13.2-1.6 3.5-5.4 8.8-8.3 11.9q-5.2 5.6-12.2 9c-3.9 1.8-9.9 3.8-13.5 4.4-4.3.6-8.9.6-13.5 0-4.1-.6-9.7-2.3-13.5-4.2-4-1.9-8.7-5.3-12-8.8-3-3-6.7-8.1-8.3-11.3-1.5-3.1-3.2-8.1-3.8-11-.7-3-.9-8.8-.6-13.7.5-7 1.2-9.7 4-15.5 1.9-3.9 5.5-9 7.8-11.5 2.4-2.6 6.6-5.9 9.4-7.5 2.7-1.7 7.2-3.8 10-4.7C449.6.7 454.6.1 459.7 0zM296.5 112c.6.1 7 5.2 14.1 11.4s26.9 23.7 44 38.7c17.1 15.1 31.3 27.9 31.7 28.4.4.6-4.8 5.6-11.5 11.2-6.7 5.5-15 12.2-18.4 14.7-3.5 2.5-10.5 8.8-15.5 13.9-5.1 5.1-13.6 14.5-18.9 20.8s-12.9 15.7-16.8 20.9-8.9 12.9-11 17-5 11.1-6.4 15.5-4.1 15-6.1 23.5c-1.9 8.5-6.7 32.4-10.6 53s-8.9 45.6-11.1 55.5c-2.3 9.9-5.4 22.3-7.1 27.5s-4.6 12.6-6.6 16.5-6.1 9.5-9.2 12.6c-3.6 3.7-8.1 6.8-13 9.2-4.1 2-10.4 4.1-14 4.6-4.5.8-8.2.8-12 .1-3-.6-7.5-2-10-3.1s-7.4-4-11-6.5c-3.6-2.4-10.8-8.1-16.1-12.6-5.3-4.6-20.4-17.7-33.5-29.3-13.1-11.5-30.9-27.2-39.4-34.9s-26.7-24.4-40.4-37.1C34 370.9 19.9 357.1 16.4 353s-7.9-9.7-9.8-12.5c-1.8-2.7-4.1-7-4.9-9.5-.9-2.5-1.6-7.4-1.6-11 0-4 .8-8.8 2-12.5 1.2-3.3 3.5-8.7 5.3-11.9s5.2-8 7.7-10.5 7.7-6.3 11.5-8.3c3.9-2 10.1-4.9 14-6.3 3.8-1.5 14-4.6 22.5-7 8.5-2.3 35.5-10.2 60-17.4 24.5-7.3 52.6-15.9 62.5-19.2 9.9-3.2 20.9-7.6 24.5-9.7 3.7-2.1 10.5-7.7 16-13.2 5.3-5.2 14.5-15.4 20.5-22.5 6.1-7.2 14.7-17.7 19.1-23.5 4.5-5.8 10.6-14.3 13.6-19 3.1-4.7 7.5-12.1 9.8-16.5 2.4-4.4 4.8-8.6 5.3-9.2.5-.7 1.4-1.3 2.1-1.3M247 212c-6.3 6.8-14.8 15.1-18.9 18.3-4.1 3.3-9.1 6.7-11 7.7s-8.9 3.4-15.5 5.5c-6.6 2-17.8 5.5-25 7.8-7.3 2.3-14.1 5.1-15.5 6.4l-2.5 2.2 28.5.1c36.8-10.1 53.1-14.2 60-15.7 10.1-2.1 16.5-2.7 33.5-3.2 19.5-.6 21.2-.8 24-2.8 1.6-1.2 13.7-12.9 26.7-26l23.7-23.8c-40.4-35.7-52.5-46.1-52.9-46.3s-10.4 12.7-22.2 28.5-26.6 34.4-32.9 41.3m97.3-144c5.7 0 9.4.6 13.5 2.2 3.6 1.4 7.5 3.9 10.3 6.8 2.5 2.5 5.7 6.8 7 9.5 2.1 4.2 2.5 6.5 2.5 14.5 0 8.4-.3 10.1-2.8 14.8-1.5 2.8-4.4 6.9-6.5 9-2.1 2-6.1 4.8-8.8 6.1-3.5 1.7-7.1 2.5-12.9 2.9-6.4.3-9.1 0-13.5-1.6-3-1.2-7.8-4.1-10.5-6.5-3.4-3-5.9-6.4-7.9-10.8-2.3-5-2.9-7.9-3-13.4 0-4.1.6-9.1 1.6-12s3.7-7.3 6.5-10.4c3.2-3.6 6.8-6.4 10.8-8.3 5-2.3 7.3-2.8 13.7-2.8m82.8 27.3c5.3.2 9.1 1.1 13 2.8 3 1.4 7.4 4.4 9.7 6.7 2.4 2.3 5.5 6.6 7 9.5 2.5 4.7 2.8 6.2 2.8 15.7s-.3 11-2.8 15.8c-1.5 2.8-4.6 7-7 9.3-2.3 2.2-6.7 5.3-9.7 6.7-4.7 2.3-6.8 2.7-14.5 2.7-7.5 0-9.9-.5-14.5-2.6-3-1.4-7.4-4.4-9.8-6.7-2.3-2.3-5.4-6.6-6.9-9.4-2.1-4.1-2.8-7.2-3.1-13.8-.4-6.4-.1-9.7 1.2-13.5 1-2.7 3.2-7 5-9.5s5.2-5.8 7.6-7.5 6.7-3.8 9.4-4.8c3.7-1.2 7.2-1.7 12.6-1.4"
        style="fill:#000000" />
</svg>