<svg id="svg" xmlns="http://www.w3.org/2000/svg" xmlns:xlink="http://www.w3.org/1999/xlink" width="400" height="400" viewBox="0, 0, 400,400" version="1.1"><g id="svgg"><path id="path0" d="M193.807 3.147 C 190.140 4.063,185.398 7.578,183.754 10.598 C 180.642 16.315,180.590 27.313,183.540 55.686 C 186.379 82.998,187.926 100.028,189.952 126.275 C 192.139 154.618,194.454 188.771,194.981 200.471 C 195.085 202.800,195.442 209.576,195.772 215.529 C 196.582 230.099,197.253 245.078,197.783 260.392 C 198.244 273.727,198.398 274.939,199.608 274.767 C 201.895 274.442,202.602 270.001,202.973 253.647 C 203.137 246.400,203.487 235.953,203.752 230.431 C 204.016 224.910,204.447 215.733,204.709 210.039 C 206.531 170.492,211.028 110.721,216.158 57.882 C 219.138 27.188,219.626 17.154,218.325 13.333 C 217.351 10.473,211.175 5.574,206.402 3.874 C 203.850 2.966,196.282 2.529,193.807 3.147 M159.216 18.409 C 158.871 18.487,156.544 18.978,154.046 19.501 C 140.711 22.294,124.703 29.623,113.367 38.126 C 112.135 39.051,111.044 39.724,110.943 39.623 C 110.842 39.522,110.671 39.672,110.562 39.955 C 110.453 40.239,110.235 40.471,110.077 40.471 C 108.845 40.471,98.995 49.305,90.994 57.585 C 73.525 75.666,53.442 107.430,42.904 133.647 C 32.865 158.622,25.742 180.798,20.735 202.667 C 14.080 231.735,7.371 269.895,6.986 280.863 L 6.813 285.804 8.409 285.804 C 9.556 285.804,10.664 285.504,12.351 284.735 C 13.642 284.146,14.779 283.746,14.878 283.846 C 14.978 283.945,15.059 283.885,15.059 283.712 C 15.059 283.540,15.247 283.399,15.478 283.399 C 19.688 283.399,65.152 251.052,82.818 235.487 C 102.695 217.974,118.662 203.086,124.549 196.577 C 125.843 195.146,128.811 191.872,131.143 189.301 C 139.574 180.011,145.545 172.372,152.465 162.024 C 160.110 150.592,162.628 145.946,172.861 124.392 C 175.319 119.216,177.880 113.884,178.553 112.545 L 179.776 110.110 174.736 80.545 C 171.964 64.284,169.012 47.169,168.175 42.510 C 167.338 37.851,166.485 32.910,166.280 31.529 C 165.690 27.568,164.204 20.663,163.663 19.373 C 163.156 18.165,161.708 17.851,159.216 18.409 M237.284 18.706 C 236.444 19.435,234.554 27.178,233.618 33.725 C 233.544 34.243,232.550 39.820,231.409 46.118 C 229.409 57.158,221.316 106.439,220.977 109.647 C 220.816 111.160,220.954 111.503,224.874 119.373 C 227.109 123.859,230.670 131.129,232.787 135.529 C 251.227 173.856,277.903 203.964,330.376 245.677 C 358.120 267.732,370.718 276.200,388.784 284.938 L 393.098 287.025 393.097 284.924 C 393.090 272.245,387.067 233.957,380.898 207.373 C 373.301 174.641,368.563 159.251,359.793 138.824 C 358.756 136.408,357.397 133.231,356.773 131.765 C 352.081 120.730,338.560 95.657,331.824 85.500 C 321.355 69.713,302.528 49.315,290.699 40.941 C 290.212 40.596,289.627 40.137,289.399 39.922 C 289.172 39.706,288.910 39.529,288.817 39.529 C 288.724 39.529,286.984 38.344,284.951 36.895 C 269.531 25.905,241.369 15.159,237.284 18.706 M179.025 145.536 C 174.682 153.893,170.823 160.269,166.275 166.605 C 164.290 169.369,161.951 172.655,161.076 173.908 C 158.003 178.307,150.523 187.474,143.882 194.980 C 132.625 207.704,107.141 231.747,97.483 238.756 C 96.660 239.354,93.483 241.733,90.424 244.044 C 85.285 247.925,77.338 253.367,69.882 258.109 L 66.824 260.055 66.824 273.678 C 66.824 297.994,68.404 323.261,71.535 349.020 C 72.848 359.815,73.736 363.181,75.240 363.060 C 80.544 362.633,112.019 333.923,125.198 317.490 C 142.885 295.436,155.188 275.440,169.592 245.333 C 189.790 203.119,190.456 198.893,184.458 151.059 C 183.059 139.902,182.920 138.980,182.632 138.981 C 182.522 138.982,180.898 141.932,179.025 145.536 M216.961 141.569 C 216.879 141.957,216.093 148.910,215.213 157.020 C 214.334 165.129,212.938 177.537,212.112 184.593 L 210.609 197.421 215.573 209.953 C 222.508 227.464,227.527 239.219,232.643 249.940 C 233.894 252.560,234.837 254.784,234.740 254.881 C 234.642 254.979,234.735 255.059,234.947 255.059 C 235.158 255.059,235.244 255.200,235.137 255.373 C 235.031 255.545,235.069 255.686,235.223 255.686 C 235.377 255.686,235.503 255.876,235.503 256.108 C 235.503 257.913,248.956 280.736,256.890 292.392 C 269.673 311.171,277.550 321.092,289.922 333.999 C 308.820 353.712,323.804 365.092,326.311 361.634 C 328.418 358.728,331.497 330.005,333.178 297.569 C 334.800 266.294,334.992 261.494,334.630 261.279 C 333.281 260.477,312.868 245.692,309.961 243.412 C 307.976 241.856,305.807 240.227,305.139 239.793 C 302.365 237.989,288.963 226.918,280.941 219.804 C 275.984 215.407,260.485 199.856,256.045 194.824 C 248.229 185.964,239.962 175.829,239.438 174.462 C 239.336 174.199,237.548 171.578,235.464 168.638 C 230.616 161.803,228.814 158.966,223.696 150.118 C 218.471 141.084,217.361 139.674,216.961 141.569 M206.878 233.841 C 206.628 234.481,206.771 248.800,207.697 316.235 C 208.033 340.651,208.309 367.545,208.312 376.000 C 208.315 384.455,208.409 392.766,208.522 394.469 L 208.727 397.566 210.167 397.389 C 221.438 396.004,235.992 386.245,251.029 369.990 C 261.818 358.326,279.899 332.863,277.391 332.863 C 277.251 332.863,275.959 331.557,274.520 329.961 C 273.082 328.365,270.344 325.435,268.437 323.451 C 250.770 305.075,239.589 289.367,219.531 254.745 C 216.682 249.827,212.945 243.404,211.226 240.471 C 209.508 237.537,207.878 234.714,207.605 234.196 C 207.163 233.361,207.081 233.321,206.878 233.841 M190.216 238.203 C 189.332 239.623,186.317 245.020,183.516 250.196 C 176.478 263.206,169.550 274.685,163.153 283.933 C 161.657 286.095,160.352 288.072,160.254 288.325 C 159.608 289.989,147.470 306.033,141.554 313.042 C 136.651 318.850,126.200 330.193,123.064 333.108 C 122.079 334.025,121.707 333.317,128.236 342.961 C 143.877 366.067,156.856 380.217,170.353 388.876 C 187.732 400.028,189.957 399.724,191.376 386.007 C 192.277 377.302,192.999 236.796,192.148 235.944 C 191.927 235.723,191.319 236.434,190.216 238.203 " stroke="none" fill="#000000" fill-rule="evenodd"></path></g></svg>