<svg height="400" viewBox="0 0 400 400" width="400" xmlns="http://www.w3.org/2000/svg"><path d="m193.807 3.147c-3.667.916-8.409 4.431-10.053 7.451-3.112 5.717-3.164 16.715-.214 45.088 2.839 27.312 4.386 44.342 6.412 70.589 2.187 28.343 4.502 62.496 5.029 74.196.104 2.329.461 9.105.791 15.058.81 14.57 1.481 29.549 2.011 44.863.461 13.335.615 14.547 1.825 14.375 2.287-.325 2.994-4.766 3.365-21.12.164-7.247.514-17.694.779-23.216.264-5.521.695-14.698.957-20.392 1.822-39.547 6.319-99.318 11.449-152.157 2.98-30.694 3.468-40.728 2.167-44.549-.974-2.86-7.15-7.759-11.923-9.459-2.552-.908-10.12-1.345-12.595-.727m-34.591 15.262c-.345.078-2.672.569-5.17 1.092-13.335 2.793-29.343 10.122-40.679 18.625-1.232.925-2.323 1.598-2.424 1.497s-.272.049-.381.332c-.109.284-.327.516-.485.516-1.232 0-11.082 8.834-19.083 17.114-17.469 18.081-37.552 49.845-48.09 76.062-10.039 24.975-17.162 47.151-22.169 69.02-6.655 29.068-13.364 67.228-13.749 78.196l-.173 4.941h1.596c1.147 0 2.255-.3 3.942-1.069 1.291-.589 2.428-.989 2.527-.889.1.099.181.039.181-.134 0-.172.188-.313.419-.313 4.21 0 49.674-32.347 67.34-47.912 19.877-17.513 35.844-32.401 41.731-38.91 1.294-1.431 4.262-4.705 6.594-7.276 8.431-9.29 14.402-16.929 21.322-27.277 7.645-11.432 10.163-16.078 20.396-37.632 2.458-5.176 5.019-10.508 5.692-11.847l1.223-2.435-5.04-29.565c-2.772-16.261-5.724-33.376-6.561-38.035s-1.69-9.6-1.895-10.981c-.59-3.961-2.076-10.866-2.617-12.156-.507-1.208-1.955-1.522-4.447-.964m78.068.297c-.84.729-2.73 8.472-3.666 15.019-.074.518-1.068 6.095-2.209 12.393-2 11.04-10.093 60.321-10.432 63.529-.161 1.513-.023 1.856 3.897 9.726 2.235 4.486 5.796 11.756 7.913 16.156 18.44 38.327 45.116 68.435 97.589 110.148 27.744 22.055 40.342 30.523 58.408 39.261l4.314 2.087-.001-2.101c-.007-12.679-6.03-50.967-12.199-77.551-7.597-32.732-12.335-48.122-21.105-68.549-1.037-2.416-2.396-5.593-3.02-7.059-4.692-11.035-18.213-36.108-24.949-46.265-10.469-15.787-29.296-36.185-41.125-44.559-.487-.345-1.072-.804-1.3-1.019-.227-.216-.489-.393-.582-.393s-1.833-1.185-3.866-2.634c-15.42-10.99-43.582-21.736-47.667-18.189m-58.259 126.83c-4.343 8.357-8.202 14.733-12.75 21.069-1.985 2.764-4.324 6.05-5.199 7.303-3.073 4.399-10.553 13.566-17.194 21.072-11.257 12.724-36.741 36.767-46.399 43.776-.823.598-4 2.977-7.059 5.288-5.139 3.881-13.086 9.323-20.542 14.065l-3.058 1.946v13.623c0 24.316 1.58 49.583 4.711 75.342 1.313 10.795 2.201 14.161 3.705 14.04 5.304-.427 36.779-29.137 49.958-45.57 17.687-22.054 29.99-42.05 44.394-72.157 20.198-42.214 20.864-46.44 14.866-94.274-1.399-11.157-1.538-12.079-1.826-12.078-.11.001-1.734 2.951-3.607 6.555m37.936-3.967c-.082.388-.868 7.341-1.748 15.451-.879 8.109-2.275 20.517-3.101 27.573l-1.503 12.828 4.964 12.532c6.935 17.511 11.954 29.266 17.07 39.987 1.251 2.62 2.194 4.844 2.097 4.941-.098.098-.005.178.207.178.211 0 .297.141.19.314-.106.172-.068.313.086.313s.28.19.28.422c0 1.805 13.453 24.628 21.387 36.284 12.783 18.779 20.66 28.7 33.032 41.607 18.898 19.713 33.882 31.093 36.389 27.635 2.107-2.906 5.186-31.629 6.867-64.065 1.622-31.275 1.814-36.075 1.452-36.29-1.349-.802-21.762-15.587-24.669-17.867-1.985-1.556-4.154-3.185-4.822-3.619-2.774-1.804-16.176-12.875-24.198-19.989-4.957-4.397-20.456-19.948-24.896-24.98-7.816-8.86-16.083-18.995-16.607-20.362-.102-.263-1.89-2.884-3.974-5.824-4.848-6.835-6.65-9.672-11.768-18.52-5.225-9.034-6.335-10.444-6.735-8.549m-10.083 92.272c-.25.64-.107 14.959.819 82.394.336 24.416.612 51.31.615 59.765s.097 16.766.21 18.469l.205 3.097 1.44-.177c11.271-1.385 25.825-11.144 40.862-27.399 10.789-11.664 28.87-37.127 26.362-37.127-.14 0-1.432-1.306-2.871-2.902-1.438-1.596-4.176-4.526-6.083-6.51-17.667-18.376-28.848-34.084-48.906-68.706-2.849-4.918-6.586-11.341-8.305-14.274-1.718-2.934-3.348-5.757-3.621-6.275-.442-.835-.524-.875-.727-.355m-16.662 4.362c-.884 1.42-3.899 6.817-6.7 11.993-7.038 13.01-13.966 24.489-20.363 33.737-1.496 2.162-2.801 4.139-2.899 4.392-.646 1.664-12.784 17.708-18.7 24.717-4.903 5.808-15.354 17.151-18.49 20.066-.985.917-1.357.209 5.172 9.853 15.641 23.106 28.62 37.256 42.117 45.915 17.379 11.152 19.604 10.848 21.023-2.869.901-8.705 1.623-149.211.772-150.063-.221-.221-.829.49-1.932 2.259" fill-rule="evenodd"/></svg>