<svg xmlns="http://www.w3.org/2000/svg" width="400" height="400" viewBox="0 0 400 400"><path fill-rule="evenodd" d="M158.8 42.829C88.97 45.425 49.961 55.281 33.847 74.4c-5.209 6.18-6.137 8.002-6.621 13-.999 10.312-1.844 85.724-.986 87.959.177.462 1.289-.474 4.265-3.591C51.113 150.184 88.174 136.114 136 131.717c9.699-.892 45.425-1.024 57-.211 80.671 5.664 137.975 22.667 165.3 49.05l3.3 3.186-.024-4.771c-.013-2.624-.6-22.957-1.305-45.184l-1.282-40.413-2.326-3.497C340.695 65.879 295.745 48.549 237.2 43.819c-17.375-1.404-54.608-1.874-78.4-.99M90.2 149.488c-29.14 7.107-51.967 24.005-61.279 45.363-3.842 8.812 2.517 17.648 20.374 28.31 24.331 14.528 51.703 21.273 106.505 26.247 41.098 3.73 59.544 6.092 78.319 10.025 45.431 9.52 75 27.281 92.455 55.536 1.306 2.114 2.494 3.705 2.64 3.537.544-.627 2.176-102.696 1.668-104.39-3.386-11.302-23.422-25.316-48.482-33.911-26.15-8.969-47.768-12.639-106-17.998-40.693-3.744-53.377-5.615-75.92-11.195-7.013-1.736-8.504-1.957-10.28-1.524m165.4 127.134c-12.381 2.152-63.917 6.516-94.7 8.019-3.135.153-5.7.412-5.7.575 0 .164 12.33 8.279 27.4 18.034s27.4 17.861 27.4 18.014c0 .154-12.33 11.014-27.4 24.135-15.07 13.12-27.4 24.003-27.4 24.184 0 .568 15.883 1.018 34.6.982 66.925-.13 109.228-9.162 127.204-27.157 6.137-6.144 6.615-8.136 3.932-16.408-6.381-19.674-26.183-37.133-56.213-49.561-3.739-1.547-4.52-1.617-9.123-.817"/></svg>