<svg height="400" viewBox="0 0 400 400" width="400" xmlns="http://www.w3.org/2000/svg"><path d="m310.733.194c-26.095 3.103-46.589 15.454-60.443 36.426-12.805 19.384-16.307 45.13-9.114 66.993 1.688 5.128 3.773 2.387-19.727 25.922l-20.402 20.431 8.671 8.733c4.769 4.803 15.102 15.25 22.964 23.216l14.294 14.483 20.035-19.99c11.02-10.995 20.42-20.277 20.89-20.627 1.189-.886 2.197-.807 6.89.539 28.354 8.135 57.212.807 78.497-19.933 17.605-17.154 26.461-43.484 23.019-68.437-.407-2.945-3.523-16.265-3.91-16.715-.064-.073-12.605 12.351-27.87 27.61-24.439 24.43-27.859 27.743-28.639 27.743-.792 0-41.186-39.803-45.371-44.708l-.884-1.036 27.77-27.979c15.274-15.389 27.683-28.067 27.575-28.173-.778-.767-12.983-3.528-18.753-4.242-3.269-.405-12.901-.564-15.492-.256m-253.118 23.838c-.311.18-5.873 5.626-12.361 12.103-12.662 12.638-12.458 12.383-11.459 14.292 1.351 2.578 26.877 39.177 28.067 40.241.778.695 9.194 6.583 18.703 13.084 28.953 19.796 24.608 16.13 52.679 44.457 12.414 12.526 31.451 31.636 42.305 42.465 23.023 22.969 50.329 50.909 50.909 52.088.568 1.158.297 1.569-4.469 6.782l-4.066 4.447 1.401 1.036c.771.57 25.502 25.158 54.958 54.639 61.752 61.805 56.017 56.619 65.525 59.256 5.856 1.624 8.048 1.775 11.503.795 1.458-.413 3.677-.959 4.932-1.213 6.635-1.343 14.159-7.104 18.563-14.214 5.895-9.519 5.282-23.765-1.457-33.834-.832-1.242-110.625-111.431-111.023-111.422-.082.002-2.147 2.325-4.59 5.163s-4.508 5.133-4.589 5.099c-.082-.034-27.329-27.305-60.551-60.604l-60.402-60.542-15.838-23.06c-13.357-19.45-16.069-23.233-17.317-24.161-3.695-2.746-38.535-26.465-39.412-26.832-1.167-.487-1.278-.491-2.011-.065m80.356 189.014c-11.643 11.654-21.741 21.529-22.44 21.946-1.497.891-2.197.839-6.575-.491-10.354-3.145-23.372-4.124-33.752-2.537-7.064 1.079-8.268 1.839-12.679 8.005-1.398 1.955-4.291 5.886-6.429 8.736-5.465 7.285-5.231 6.477-2.952 10.202 2.236 3.653 2.941 5.871 2.725 8.57-.576 7.213-6.152 13.334-13.53 14.854-3.982.82-1.418-4.046-20.58 39.061-8.903 20.029-16.842 37.669-17.641 39.198-.799 1.53-1.453 3.129-1.452 3.553.001 1.049 4.841 20.548 5.542 22.329l.56 1.424 37.879-43.688 37.88-43.687 5.257 5.251c2.891 2.888 5.257 5.344 5.257 5.458 0 .113-16.788 19.606-37.306 43.317-20.518 23.712-37.306 43.222-37.306 43.356 0 .556 13.977 1.866 20.43 1.914l4.589.035 4.293-2.692c50.858-31.885 68.4-42.967 69.118-43.664.826-.802.882-1.015 1.071-4.04.749-11.952 11.834-18.793 21.957-13.551 3.281 1.699 2.363 2.304 13.603-8.962 11.64-11.666 10.476-9.543 10.232-18.677-.172-6.393-.348-7.518-2.825-17.978-.858-3.627-1.413-6.598-1.326-7.106.115-.675 4.244-4.952 18.28-18.933 9.973-9.934 19.843-19.901 21.934-22.151l3.801-4.09-23.073-23.075c-12.691-12.691-23.141-23.075-23.224-23.075-.082 0-9.675 9.535-21.318 21.188m175.181 66.377c27.439 27.479 50.101 50.362 50.36 50.851 2.051 3.87-2.276 8.328-6.172 6.359-.815-.412-3.551-2.907-7.259-6.619-46.079-46.129-92.785-93.157-93.082-93.723-.322-.613 5.165-6.681 6.165-6.818.054-.007 22.549 22.47 49.988 49.95m-62.881-26.795c10.665 10.097 93.808 93.319 94.971 95.061.678 1.016 1.168 2.103 1.168 2.594 0 2.678-3.553 5.504-6.133 4.879-.573-.139-16.276-15.645-51.525-50.881l-50.701-50.682 1.996-2.036c2.22-2.264 4.089-3.747 4.724-3.747.23 0 2.705 2.165 5.5 4.812" fill-rule="evenodd"/></svg>