<svg height="400" viewBox="0 0 400 400" width="400" xmlns="http://www.w3.org/2000/svg">
    <path
        d="m102.644 7.602c-.833 2.412-3.805 19.445-5.024 28.798-1.801 13.808-2.018 18.116-2.01 40l.007 21 1.64 1.161c9.559 6.766 17.371 17.395 19.894 27.065 2.259 8.662 16.815 63.793 24.442 92.574 5.922 22.349 7.262 27.402 15.752 59.4 2.305 8.69 7.005 26.42 10.445 39.4 3.439 12.98 6.631 24.763 7.092 26.185 1.01 3.11.57 8.078-1.076 12.153l-.956 2.368 1.197 3.012c4.553 11.463 12.239 24.037 20.933 34.249l2.016 2.368.508-2.168c2.851-12.149 3.101-26.626.687-39.755-.663-3.604-.823-5.269-.523-5.454.259-.16-1.445-2.491-4.23-5.79-4.132-4.895-4.747-5.82-5.411-8.145-.635-2.219-14.806-58.545-48.3-191.969-5.585-22.249-6.486-26.251-6.045-26.852 5.799-7.904 11.518-17.015 11.518-18.35 0-.901-3.357-12.034-5.744-19.052-7.722-22.7-19.286-46.161-33.616-68.198-1.89-2.907-3.066-4.378-3.196-4m54.564 111.898c-6.521.151-6.484.122-3.927 3.106 12.2 14.238 15.742 30.583 10.488 48.399-.583 1.977-1.151 3.91-1.261 4.295-.186.646.301.7 6.345.702 40.679.014 89.944 7.572 126.12 19.348 7.929 2.581 7.23 3.138 6.898-5.494-.732-19.046-8.538-35.957-24.351-52.759l-2.92-3.103-4.911-1.391c-36.8-10.424-68.539-14.121-112.481-13.103m84.392 74.595c-.916.407-.933.456-.196.59.744.135.649.46-1.289 4.396-6.72 13.649-8.311 28.496-4.522 42.193 2.731 9.873 3.733 13.126 5.014 16.275 6.092 14.974 19.191 29.103 37.793 40.762 4.241 2.658 14.8 8.299 14.8 7.906 0-.139-1.255-2-2.79-4.135-9.791-13.625-14.237-30.998-10.873-42.482 4.353-14.864 10.633-30.391 18.072-44.681l3.165-6.082-6.087-1.993c-14.412-4.718-39.268-10.678-49.555-11.881-1.688-.198-2.214-.406-2.057-.814.248-.647-.111-.66-1.475-.054"
        fill-rule="evenodd" />
</svg>