<svg height="400" viewBox="0 0 400 400" width="400" xmlns="http://www.w3.org/2000/svg"><path d="m98.488 21.457c-2.776 1.401-7.595 7.213-11.788 14.216-11.184 18.682-15.279 37.421-10.45 47.824 5.108 11.005 20.487 26.416 28.375 28.434 8.565 2.19 25.476-9.113 31.537-21.079l1.003-1.982-.118-2.278c-.269-5.193-.519-6.77-1.685-10.632-5.491-18.181-17.187-37.732-30.59-51.133-4.039-4.039-4.484-4.278-6.284-3.37m200.776.038c-.998.667-7.929 7.667-9.844 9.944-6.347 7.544-13.424 18.787-18.297 29.067-6.805 14.359-9.146 24.897-6.748 30.379 5.141 11.75 23.865 23.753 32.434 20.793 9.072-3.134 26.092-21.762 28.55-31.247.691-2.668.973-10.186.496-13.249-2.244-14.422-11.151-33.102-20.226-42.415-3.739-3.838-4.744-4.355-6.365-3.272m-99.801 34.628c-1.778.237-6.298 2.8-10.565 5.992-13.79 10.317-25.91 21.569-35.931 33.359-4.203 4.946-6.279 7.721-7.056 9.435l-.397.876 2.537 4.582c3.069 5.54 6.591 11.985 7.975 14.591 4.551 8.572 5.898 11.172 8.338 16.086 8.86 17.852 12.144 26.755 10.66 28.902l-.388.561h-1.178c-11.975 0-49.644-18.503-73.021-35.87-8.607-6.393-12.69-9.671-18.743-15.044-2.733-2.426-2.968-2.645-7.055-6.556-7.384-7.067-14.203-14.419-19.101-20.595-2.509-3.164-6.334-8.428-9.322-12.832-1.305-1.923-1.699-2.094-2.895-1.257-8.149 5.706-16.039 17.45-19.892 29.608-2.086 6.584-2.506 9.356-2.572 16.997-.107 12.349.146 13.122 10.177 31.038.352.628 1.625 2.926 2.828 5.106 4.318 7.82 6.894 12.446 7.518 13.503.35.592 1.335 2.345 2.189 3.897s1.886 3.426 2.294 4.165c.867 1.575.887 1.551-.885 1.023-17.445-5.193-29.999-12.72-39.201-23.502-1.757-2.059-1.889-2.138-2.046-1.225-2.002 11.692-2.079 28.7-.232 51.383.283 3.469.331 3.588 3.3 8.077 6.424 9.714 15.385 18.962 23.97 24.737 9.877 6.644 19.427 10.193 31.74 11.795 1.175.152 1.942-.433-10.242 7.81-1.145.775-2.971 2.025-4.058 2.779-1.087.753-2.538 1.758-3.225 2.234-11.897 8.237-20.311 15.281-21.565 18.052l-.351.776.391.417c2.263 2.416 15.466 7.932 26.927 11.249 20.963 6.067 39.063 8.192 54.552 6.404 3.197-.369 2.957-.423 2.482.56-1.51 3.126-4.999 8.154-9.667 13.928-.889 1.1-2.317 2.868-3.173 3.929-.857 1.062-1.673 2.148-1.814 2.414l-.257.484.511.444c1.113.968 9.597 4.901 15.949 7.394 8.272 3.246 14.322 5.223 19.487 6.369 2.965.658 2.272-.02 5.639 5.518 13.164 21.653 18.29 29.028 22.514 32.389 1.548 1.233 1.532 1.449.4-5.269-2.364-14.033-2.449-20.088-.399-28.553.253-1.047.461-2.119.461-2.383 0-.724-2.334-6.638-4.021-10.186-.361-.76-1.287-2.742-2.059-4.405-2.411-5.196-4.585-9.607-13.736-27.88-4.885-9.755-9.302-18.621-9.817-19.702l-.935-1.966-1.545-.299c-22.063-4.272-34.838-9.794-39.626-17.129-2.466-3.778-1.568-7.534 2.958-12.365.623-.665 1.343-1.445 1.601-1.733 3.516-3.927 13.453-11.226 15.752-11.571 1.668-.25 4.352 2.325 17.232 16.534 5.14 5.669 8.568 9.226 10.86 11.268l1.041.928.414-.39c.228-.215.934-.995 1.569-1.734 21.421-24.924 46.413-43.254 61.293-44.954 9.466-1.082 25.802 7.517 43.254 22.766 1.738 1.519 3.242 2.895 6.252 5.718 4.362 4.093 9.941 9.977 15.646 16.503.986 1.127 1.84 2.049 1.899 2.049.589 0 8.791-8.461 16.79-17.322 6.678-7.398 10.923-11.296 12.296-11.294 1.879.003 10.542 6.296 15.525 11.278 7.637 7.636 8.246 11.797 2.527 17.275-6.256 5.993-15.713 9.708-35.245 13.847-1.919.406-3.499.752-3.512.767-.014.015-.314.663-.668 1.439-.355.776-2.288 4.675-4.297 8.666-18.889 37.515-20.558 40.94-23.707 48.64-2.129 5.206-2.108 5.098-1.489 7.565 2.187 8.719 2.008 15.887-.778 31.131-.724 3.965-.733 3.909.497 3.07 2.82-1.924 8.282-9.123 14.665-19.328 2.728-4.36 4.958-8.012 7.754-12.697 3.535-5.923 2.912-5.34 6.692-6.258 9.757-2.369 31.274-10.709 34.508-13.375 1.012-.834 1.043-.784-5.617-8.986-3.989-4.913-9.201-12.815-8.75-13.267.047-.046 1.097.047 2.333.207 15.748 2.039 36.788-.611 57.968-7.303 13.324-4.209 24.01-9.043 24.055-10.882.033-1.347-2.732-4.314-7.957-8.539-2.196-1.776-7.592-5.822-10.48-7.858-6.921-4.88-10.678-7.465-15.317-10.539-2.384-1.58-6.322-4.336-6.27-4.389.024-.024 1.339-.228 2.922-.452 21.714-3.081 39.506-15.179 53.933-36.673 2.675-3.985 2.746-4.259 3.423-13.305 1.36-18.152 1.138-35.431-.582-45.321-.263-1.514-.206-1.519-1.59.149-7.462 8.997-16.459 15.303-29.263 20.511-3.786 1.539-11.523 4.092-11.961 3.946-.109-.036 2.248-4.491 3.208-6.066.659-1.08 9.931-17.847 15.544-28.107 5.657-10.34 5.757-10.577 6.433-15.25 2.385-16.486-2.073-32.955-12.694-46.893-3.085-4.048-9.437-10.077-10.617-10.077-.109 0-1.53 1.949-3.282 4.501-2.447 3.565-6.04 8.38-8.734 11.706-5.63 6.951-13.722 15.464-21.44 22.557-2.337 2.148-3.523 3.216-4.694 4.227-17.007 14.696-34.334 26.26-55.559 37.081-9.152 4.665-20.055 9.222-26.813 11.206-4.554 1.336-8.591 1.937-9.554 1.421-1.763-.943-.436-6.204 4.083-16.179 1.976-4.361 10.24-21.131 11.588-23.514.167-.295.714-1.323 1.215-2.284 1.292-2.479 2.798-5.297 3.626-6.785.834-1.501 4.724-8.676 6.373-11.757 2.596-4.849 2.645-4.477-1.267-9.553-1.274-1.654-4.733-5.822-5.174-6.235-.039-.037-.463-.52-.942-1.074-12.908-14.931-36.737-35.098-43.406-36.734-.866-.213-1.135-.23-1.939-.123m-4.031 185.552c-8.584 1.051-20.39 6.934-30.971 15.433-7.849 6.304-17.203 16.101-17.788 18.63-.379 1.642 3.231 9.945 8.825 20.297l1.506 2.787.604-.08c.333-.044 1.633-.318 2.889-.609 13.516-3.127 23.478-4.696 24.341-3.834.326.326-2.517 3.44-4.856 5.319-3.842 3.085-8.045 5.36-14.83 8.027-2.366.93-3.3 1.397-3.42 1.708-.362.944 3.837 11.632 7.123 18.132l1.006 1.99.424-.091c.233-.05 1.694-.559 3.245-1.132 18.791-6.931 35.151-6.799 54.686.443 1.708.633 2.057.723 2.285.585 1.066-.646 8.263-17.856 8.263-19.762 0-.474-.16-.558-3.881-2.021-8.175-3.213-14.636-7.262-17.974-11.262-1.728-2.071-1.725-2.113.145-2.113 3.359 0 9.041.946 19.09 3.178 3.177.705 6.11 1.313 6.516 1.351l.739.067.431-.719c3.564-5.962 9.391-18.286 9.867-20.869.374-2.03-1.441-4.587-7.74-10.903-13.068-13.102-26.432-21.501-38.231-24.027-2.517-.539-9.683-.845-12.294-.525m.201 96.071c-7.364.329-18.79 3.762-21.63 6.498-2.163 2.083-2.831 13.063-1.124 18.478.38 1.205.477 1.263 1.223.729 9.08-6.504 13.453-6.703 17.497-.797 3.578 5.223 3.338 10.818-.66 15.378l-.825.94.652.605c1.004.932 3.67 2.97 4.195 3.207.394.178 1.268.22 5.38.26l4.908.049 1.154-.851c1.398-1.031 3.861-3.095 3.869-3.242.004-.058-.452-.631-1.012-1.272-4.176-4.776-3.808-11.88.868-16.739 2.016-2.095 2.816-2.443 5.593-2.432l2.015.008 1.209.505c1.69.705 3.121 1.506 5.438 3.041 1.098.728 2.176 1.416 2.397 1.53l.4.208.281-.702c1.704-4.261 1.097-16.933-.9-18.773-2.076-1.914-9.259-4.71-14.804-5.763-3.63-.689-11.099-1.089-16.124-.865" fill-rule="evenodd"/></svg>