<svg id="svg" xmlns="http://www.w3.org/2000/svg" xmlns:xlink="http://www.w3.org/1999/xlink" width="400" height="400" viewBox="0, 0, 400,400"><g id="svgg"><path id="path0" d="M98.488 21.457 C 95.712 22.858,90.893 28.670,86.700 35.673 C 75.516 54.355,71.421 73.094,76.250 83.497 C 81.358 94.502,96.737 109.913,104.625 111.931 C 113.190 114.121,130.101 102.818,136.162 90.852 L 137.165 88.870 137.047 86.592 C 136.778 81.399,136.528 79.822,135.362 75.960 C 129.871 57.779,118.175 38.228,104.772 24.827 C 100.733 20.788,100.288 20.549,98.488 21.457 M299.264 21.495 C 298.266 22.162,291.335 29.162,289.420 31.439 C 283.073 38.983,275.996 50.226,271.123 60.506 C 264.318 74.865,261.977 85.403,264.375 90.885 C 269.516 102.635,288.240 114.638,296.809 111.678 C 305.881 108.544,322.901 89.916,325.359 80.431 C 326.050 77.763,326.332 70.245,325.855 67.182 C 323.611 52.760,314.704 34.080,305.629 24.767 C 301.890 20.929,300.885 20.412,299.264 21.495 M199.463 56.123 C 197.685 56.360,193.165 58.923,188.898 62.115 C 175.108 72.432,162.988 83.684,152.967 95.474 C 148.764 100.420,146.688 103.195,145.911 104.909 L 145.514 105.785 148.051 110.367 C 151.120 115.907,154.642 122.352,156.026 124.958 C 160.577 133.530,161.924 136.130,164.364 141.044 C 173.224 158.896,176.508 167.799,175.024 169.946 L 174.636 170.507 173.458 170.507 C 161.483 170.507,123.814 152.004,100.437 134.637 C 91.830 128.244,87.747 124.966,81.694 119.593 C 78.961 117.167,78.726 116.948,74.639 113.037 C 67.255 105.970,60.436 98.618,55.538 92.442 C 53.029 89.278,49.204 84.014,46.216 79.610 C 44.911 77.687,44.517 77.516,43.321 78.353 C 35.172 84.059,27.282 95.803,23.429 107.961 C 21.343 114.545,20.923 117.317,20.857 124.958 C 20.750 137.307,21.003 138.080,31.034 155.996 C 31.386 156.624,32.659 158.922,33.862 161.102 C 38.180 168.922,40.756 173.548,41.380 174.605 C 41.730 175.197,42.715 176.950,43.569 178.502 C 44.423 180.054,45.455 181.928,45.863 182.667 C 46.730 184.242,46.750 184.218,44.978 183.690 C 27.533 178.497,14.979 170.970,5.777 160.188 C 4.020 158.129,3.888 158.050,3.731 158.963 C 1.729 170.655,1.652 187.663,3.499 210.346 C 3.782 213.815,3.830 213.934,6.799 218.423 C 13.223 228.137,22.184 237.385,30.769 243.160 C 40.646 249.804,50.196 253.353,62.509 254.955 C 63.684 255.107,64.451 254.522,52.267 262.765 C 51.122 263.540,49.296 264.790,48.209 265.544 C 47.122 266.297,45.671 267.302,44.984 267.778 C 33.087 276.015,24.673 283.059,23.419 285.830 L 23.068 286.606 23.459 287.023 C 25.722 289.439,38.925 294.955,50.386 298.272 C 71.349 304.339,89.449 306.464,104.938 304.676 C 108.135 304.307,107.895 304.253,107.420 305.236 C 105.910 308.362,102.421 313.390,97.753 319.164 C 96.864 320.264,95.436 322.032,94.580 323.093 C 93.723 324.155,92.907 325.241,92.766 325.507 L 92.509 325.991 93.020 326.435 C 94.133 327.403,102.617 331.336,108.969 333.829 C 117.241 337.075,123.291 339.052,128.456 340.198 C 131.421 340.856,130.728 340.178,134.095 345.716 C 147.259 367.369,152.385 374.744,156.609 378.105 C 158.157 379.338,158.141 379.554,157.009 372.836 C 154.645 358.803,154.560 352.748,156.610 344.283 C 156.863 343.236,157.071 342.164,157.071 341.900 C 157.071 341.176,154.737 335.262,153.050 331.714 C 152.689 330.954,151.763 328.972,150.991 327.309 C 148.580 322.113,146.406 317.702,137.255 299.429 C 132.370 289.674,127.953 280.808,127.438 279.727 L 126.503 277.761 124.958 277.462 C 102.895 273.190,90.120 267.668,85.332 260.333 C 82.866 256.555,83.764 252.799,88.290 247.968 C 88.913 247.303,89.633 246.523,89.891 246.235 C 93.407 242.308,103.344 235.009,105.643 234.664 C 107.311 234.414,109.995 236.989,122.875 251.198 C 128.015 256.867,131.443 260.424,133.735 262.466 L 134.776 263.394 135.190 263.004 C 135.418 262.789,136.124 262.009,136.759 261.270 C 158.180 236.346,183.172 218.016,198.052 216.316 C 207.518 215.234,223.854 223.833,241.306 239.082 C 243.044 240.601,244.548 241.977,247.558 244.800 C 251.920 248.893,257.499 254.777,263.204 261.303 C 264.190 262.430,265.044 263.352,265.103 263.352 C 265.692 263.352,273.894 254.891,281.893 246.030 C 288.571 238.632,292.816 234.734,294.189 234.736 C 296.068 234.739,304.731 241.032,309.714 246.014 C 317.351 253.650,317.960 257.811,312.241 263.289 C 305.985 269.282,296.528 272.997,276.996 277.136 C 275.077 277.542,273.497 277.888,273.484 277.903 C 273.470 277.918,273.170 278.566,272.816 279.342 C 272.461 280.118,270.528 284.017,268.519 288.008 C 249.630 325.523,247.961 328.948,244.812 336.648 C 242.683 341.854,242.704 341.746,243.323 344.213 C 245.510 352.932,245.331 360.100,242.545 375.344 C 241.821 379.309,241.812 379.253,243.042 378.414 C 245.862 376.490,251.324 369.291,257.707 359.086 C 260.435 354.726,262.665 351.074,265.461 346.389 C 268.996 340.466,268.373 341.049,272.153 340.131 C 281.910 337.762,303.427 329.422,306.661 326.756 C 307.673 325.922,307.704 325.972,301.044 317.770 C 297.055 312.857,291.843 304.955,292.294 304.503 C 292.341 304.457,293.391 304.550,294.627 304.710 C 310.375 306.749,331.415 304.099,352.595 297.407 C 365.919 293.198,376.605 288.364,376.650 286.525 C 376.683 285.178,373.918 282.211,368.693 277.986 C 366.497 276.210,361.101 272.164,358.213 270.128 C 351.292 265.248,347.535 262.663,342.896 259.589 C 340.512 258.009,336.574 255.253,336.626 255.200 C 336.650 255.176,337.965 254.972,339.548 254.748 C 361.262 251.667,379.054 239.569,393.481 218.075 C 396.156 214.090,396.227 213.816,396.904 204.770 C 398.264 186.618,398.042 169.339,396.322 159.449 C 396.059 157.935,396.116 157.930,394.732 159.598 C 387.270 168.595,378.273 174.901,365.469 180.109 C 361.683 181.648,353.946 184.201,353.508 184.055 C 353.399 184.019,355.756 179.564,356.716 177.989 C 357.375 176.909,366.647 160.142,372.260 149.882 C 377.917 139.542,378.017 139.305,378.693 134.632 C 381.078 118.146,376.620 101.677,365.999 87.739 C 362.914 83.691,356.562 77.662,355.382 77.662 C 355.273 77.662,353.852 79.611,352.100 82.163 C 349.653 85.728,346.060 90.543,343.366 93.869 C 337.736 100.820,329.644 109.333,321.926 116.426 C 319.589 118.574,318.403 119.642,317.232 120.653 C 300.225 135.349,282.898 146.913,261.673 157.734 C 252.521 162.399,241.618 166.956,234.860 168.940 C 230.306 170.276,226.269 170.877,225.306 170.361 C 223.543 169.418,224.870 164.157,229.389 154.182 C 231.365 149.821,239.629 133.051,240.977 130.668 C 241.144 130.373,241.691 129.345,242.192 128.384 C 243.484 125.905,244.990 123.087,245.818 121.599 C 246.652 120.098,250.542 112.923,252.191 109.842 C 254.787 104.993,254.836 105.365,250.924 100.289 C 249.650 98.635,246.191 94.467,245.750 94.054 C 245.711 94.017,245.287 93.534,244.808 92.980 C 231.900 78.049,208.071 57.882,201.402 56.246 C 200.536 56.033,200.267 56.016,199.463 56.123 M195.432 241.675 C 186.848 242.726,175.042 248.609,164.461 257.108 C 156.612 263.412,147.258 273.209,146.673 275.738 C 146.294 277.380,149.904 285.683,155.498 296.035 L 157.004 298.822 157.608 298.742 C 157.941 298.698,159.241 298.424,160.497 298.133 C 174.013 295.006,183.975 293.437,184.838 294.299 C 185.164 294.625,182.321 297.739,179.982 299.618 C 176.140 302.703,171.937 304.978,165.152 307.645 C 162.786 308.575,161.852 309.042,161.732 309.353 C 161.370 310.297,165.569 320.985,168.855 327.485 L 169.861 329.475 170.285 329.384 C 170.518 329.334,171.979 328.825,173.530 328.252 C 192.321 321.321,208.681 321.453,228.216 328.695 C 229.924 329.328,230.273 329.418,230.501 329.280 C 231.567 328.634,238.764 311.424,238.764 309.518 C 238.764 309.044,238.604 308.960,234.883 307.497 C 226.708 304.284,220.247 300.235,216.909 296.235 C 215.181 294.164,215.184 294.122,217.054 294.122 C 220.413 294.122,226.095 295.068,236.144 297.300 C 239.321 298.005,242.254 298.613,242.660 298.651 L 243.399 298.718 243.830 297.999 C 247.394 292.037,253.221 279.713,253.697 277.130 C 254.071 275.100,252.256 272.543,245.957 266.227 C 232.889 253.125,219.525 244.726,207.726 242.200 C 205.209 241.661,198.043 241.355,195.432 241.675 M195.633 337.746 C 188.269 338.075,176.843 341.508,174.003 344.244 C 171.840 346.327,171.172 357.307,172.879 362.722 C 173.259 363.927,173.356 363.985,174.102 363.451 C 183.182 356.947,187.555 356.748,191.599 362.654 C 195.177 367.877,194.937 373.472,190.939 378.032 L 190.114 378.972 190.766 379.577 C 191.770 380.509,194.436 382.547,194.961 382.784 C 195.355 382.962,196.229 383.004,200.341 383.044 L 205.249 383.093 206.403 382.242 C 207.801 381.211,210.264 379.147,210.272 379.000 C 210.276 378.942,209.820 378.369,209.260 377.728 C 205.084 372.952,205.452 365.848,210.128 360.989 C 212.144 358.894,212.944 358.546,215.721 358.557 L 217.736 358.565 218.945 359.070 C 220.635 359.775,222.066 360.576,224.383 362.111 C 225.481 362.839,226.559 363.527,226.780 363.641 L 227.180 363.849 227.461 363.147 C 229.165 358.886,228.558 346.214,226.561 344.374 C 224.485 342.460,217.302 339.664,211.757 338.611 C 208.127 337.922,200.658 337.522,195.633 337.746 " stroke="none" fill="#000000" fill-rule="evenodd"></path></g></svg>