<svg height="400" viewBox="0 0 400 400" width="400" xmlns="http://www.w3.org/2000/svg" fill="currentColor"><path d="m299.881.954c-.68.415-10.161 10.05-34.911 35.483-12.244 12.581-44.366 45.588-71.382 73.349-43.729 44.933-73.688 75.758-82.861 85.257-3.84 3.976-4.348 4.843-3.068 5.234 1.046.32 38.559.63 83.164.686 8.128.011 17.508.056 20.844.102l6.067.082.38.541.38.542-4.033 8.23c-7.955 16.235-23.991 48.825-46.715 94.938-18.772 38.094-43.424 88.345-44.59 90.891-.363.793-.754 1.961-.754 2.254 0 .766 1.509 1.236 2.266.706.7-.49 8.25-8.508 148.569-157.783 74.404-79.152 76.276-81.156 76.367-81.761.129-.863-.183-1.263-1.164-1.493-1.775-.415-9.197-.961-60.316-4.437-49.518-3.367-57.75-3.969-58.33-4.268-.888-.458-3.038 3.978 36.943-76.228 30.028-60.238 35.152-70.626 35.152-71.264 0-.859-1.252-1.522-2.008-1.061m-215.022 159.729c-.757.836-5.481 16.343-22.915 75.214-4.517 15.253-9.8 33.077-11.74 39.609-5.878 19.788-8.504 28.918-8.504 29.572 0 .546.673.995 1.492.995.757 0 12.887-1.976 26.511-4.319 9.075-1.56 14.829-2.452 15.499-2.401.749.056.948.393 1.501 2.536.576 2.238.062-.155 8.857 41.228 8.219 38.675 8.817 41.429 9.093 41.851.594.905 2.373.306 2.555-.861.351-2.252 7.634-114.813 7.636-118.023.001-1.122-.114-1.484-.543-1.713-.338-.181-5.324.475-16.933 2.229-23.031 3.481-22.318 3.392-22.689 2.826-.502-.767-.237-3.131 7.968-71.113 4.367-36.177 4.471-37.172 3.938-37.521-.549-.359-1.448-.416-1.726-.109m271.484 88.463c-1.589.625-4.559 2.002-18.151 8.415-46.564 21.968-93.222 44.162-95.911 45.623-2.99 1.625-3.242 1.349 11.633 12.745 13.016 9.972 12.942 9.907 12.414 10.928-.285.551-7.357 5.183-72.266 47.324-33.223 21.57-34.062 22.125-34.192 22.612-.36 1.341.277 2.142 1.499 1.886 2.077-.436 155.271-67.034 162.139-70.487 2.636-1.325 3.175-.845-13.521-12.066-14.753-9.916-14.845-9.982-14.845-10.657 0-.642 2.071-2.428 44.602-38.464 19.057-16.148 18.902-16.01 18.782-16.746-.188-1.159-1.006-1.576-2.183-1.113" fill-rule="evenodd"/></svg>