<svg id="svg" xmlns="http://www.w3.org/2000/svg" xmlns:xlink="http://www.w3.org/1999/xlink" width="400" height="400" viewBox="0, 0, 400,400"><g id="svgg"><path id="path0" d="M192.835 19.375 L 186.294 29.375 186.272 108.989 C 186.259 155.212,185.775 188.896,185.117 189.303 C 184.494 189.688,175.000 180.580,164.019 169.064 C 119.817 122.706,95.051 92.450,78.070 64.063 C 69.281 49.369,68.625 50.068,67.805 75.000 C 66.532 113.762,74.188 126.317,139.292 192.228 L 179.209 232.640 157.003 254.872 L 134.797 277.104 136.173 282.215 C 138.923 292.425,134.177 303.759,121.123 318.164 C 112.533 327.643,112.643 327.222,117.528 331.902 L 121.306 335.522 134.091 323.078 C 141.122 316.234,155.734 301.920,166.563 291.270 L 186.250 271.904 186.250 300.252 L 186.250 328.599 181.849 328.987 C 173.808 329.696,176.606 331.864,186.052 332.245 L 195.228 332.614 194.733 356.620 C 194.461 369.823,193.987 381.390,193.681 382.324 C 193.335 383.383,194.773 384.607,197.500 385.575 C 202.895 387.488,212.239 385.344,211.319 382.403 C 211.013 381.425,210.539 369.823,210.267 356.620 L 209.772 332.614 218.948 332.245 C 228.525 331.859,231.557 329.659,223.438 328.987 L 218.750 328.599 218.750 300.253 L 218.750 271.906 237.188 290.019 C 247.328 299.981,261.940 314.295,269.658 321.828 L 283.691 335.524 287.471 331.903 C 292.301 327.275,292.339 327.479,285.212 319.609 C 271.092 304.017,266.049 292.529,268.816 282.255 L 270.203 277.104 247.981 254.856 L 225.759 232.609 264.473 193.492 C 330.384 126.895,336.741 116.869,336.830 79.375 C 336.898 50.775,335.527 48.558,327.007 63.487 C 311.904 89.949,285.890 121.854,240.755 169.273 L 220.625 190.421 219.780 184.898 C 219.315 181.860,218.884 145.625,218.820 104.375 L 218.706 29.375 212.165 19.375 L 205.625 9.375 204.944 167.764 C 204.569 254.879,203.866 326.550,203.381 327.035 C 200.976 329.441,200.675 315.070,200.049 167.757 L 199.375 9.375 192.835 19.375 M86.806 350.044 C 67.641 368.044,66.758 369.396,71.047 374.190 C 75.599 379.278,80.043 380.517,82.147 377.285 C 83.189 375.685,91.429 367.232,100.458 358.502 L 116.875 342.629 111.934 337.564 C 105.665 331.139,108.365 329.798,86.806 350.044 M293.096 337.530 L 288.184 342.560 304.583 358.467 C 313.602 367.217,321.829 375.685,322.864 377.285 C 324.637 380.025,324.956 380.087,328.314 378.350 C 333.998 375.411,340.163 366.250,336.458 366.250 C 335.792 366.250,327.281 358.656,317.546 349.375 C 297.211 329.989,299.416 331.057,293.096 337.530 " stroke="none" fill="#000000" fill-rule="evenodd"></path></g></svg>