<svg height="400" viewBox="0 0 400 400" width="400" xmlns="http://www.w3.org/2000/svg" fill="currentColor"><path d="m192.835 19.375-6.541 10-.022 79.614c-.013 46.223-.497 79.907-1.155 80.314-.623.385-10.117-8.723-21.098-20.239-44.202-46.358-68.968-76.614-85.949-105.001-8.789-14.694-9.445-13.995-10.265 10.937-1.273 38.762 6.383 51.317 71.487 117.228l39.917 40.412-22.206 22.232-22.206 22.232 1.376 5.111c2.75 10.21-1.996 21.544-15.05 35.949-8.59 9.479-8.48 9.058-3.595 13.738l3.778 3.62 12.785-12.444c7.031-6.844 21.643-21.158 32.472-31.808l19.687-19.366v28.348 28.347l-4.401.388c-8.041.709-5.243 2.877 4.203 3.258l9.176.369-.495 24.006c-.272 13.203-.746 24.77-1.052 25.704-.346 1.059 1.092 2.283 3.819 3.251 5.395 1.913 14.739-.231 13.819-3.172-.306-.978-.78-12.58-1.052-25.783l-.495-24.006 9.176-.369c9.577-.386 12.609-2.586 4.49-3.258l-4.688-.388v-28.346-28.347l18.438 18.113c10.14 9.962 24.752 24.276 32.47 31.809l14.033 13.696 3.78-3.621c4.83-4.628 4.868-4.424-2.259-12.294-14.12-15.592-19.163-27.08-16.396-37.354l1.387-5.151-22.222-22.248-22.222-22.247 38.714-39.117c65.911-66.597 72.268-76.623 72.357-114.117.068-28.6-1.303-30.817-9.823-15.888-15.103 26.462-41.117 58.367-86.252 105.786l-20.13 21.148-.845-5.523c-.465-3.038-.896-39.273-.96-80.523l-.114-75-6.541-10-6.54-10-.681 158.389c-.375 87.115-1.078 158.786-1.563 159.271-2.405 2.406-2.706-11.965-3.332-159.278l-.674-158.382zm-106.029 330.669c-19.165 18-20.048 19.352-15.759 24.146 4.552 5.088 8.996 6.327 11.1 3.095 1.042-1.6 9.282-10.053 18.311-18.783l16.417-15.873-4.941-5.065c-6.269-6.425-3.569-7.766-25.128 12.48m206.29-12.514-4.912 5.03 16.399 15.907c9.019 8.75 17.246 17.218 18.281 18.818 1.773 2.74 2.092 2.802 5.45 1.065 5.684-2.939 11.849-12.1 8.144-12.1-.666 0-9.177-7.594-18.912-16.875-20.335-19.386-18.13-18.318-24.45-11.845" fill-rule="evenodd"/></svg>