<svg height="400" viewBox="0 0 400 400" width="400" xmlns="http://www.w3.org/2000/svg">
    <path
        d="m185.67 16.984c-.403.632-4.127 13.923-5.666 20.221-4.201 17.194-4.688 27.164-1.499 30.652.633.692 2.369 1.041 1.971.397-.108-.175-.051-.317.127-.317 1.628 0 3.821-8.18 4.809-17.937.597-5.891.816-33.889.258-33.016m184.083 10.803c-.659.242-4.374 2.777-8.254 5.634s-26.983 19.809-51.34 37.673c-24.357 17.863-44.402 32.584-44.544 32.713-.189.171 24.02 43.958 24.729 44.729.062.067 16.105-11.867 35.649-26.521 40.127-30.085 40.147-30.098 48.554-32.05 2.025-.47 8.509-.642 10.009-.266.691.174.773.112.623-.464-.155-.594-.036-.664 1.13-.664 1.189 0 1.401-.132 2.405-1.508 13.528-18.522 8.437-51.233-9.048-58.142-4.247-1.679-7.437-2.044-9.913-1.134m-245.612 9.766c-.054.953 7.713 19.184 11.167 26.208 5.795 11.787 10.12 17.145 13.541 16.776 4.891-.529.322-11.524-11.129-26.783-4.936-6.576-13.542-16.845-13.579-16.201m105.664 36.853c-4.353 1.556-6.334 7.172-4.05 11.48 3.132 5.909 58.483 105.002 59.208 106.001 1.827 2.514 5.07 3.285 7.583 1.802.976-.576 1.347-.636 2.298-.374.94.26 1.205.221 1.547-.231 2.006-2.644 2.215-7.162.458-9.937-1.159-1.831-57.671-102.307-58.918-104.754-1.757-3.447-5.078-5.076-8.126-3.987m-145.548 13.167c.282.456 7.212 5.301 12.886 9.009 16.483 10.772 27.153 14.527 29.484 10.376 2.866-5.107-16.174-14.349-38.849-18.857-1.397-.278-2.808-.587-3.135-.686-.376-.115-.518-.056-.386.158m96.797 13.628c-.464.294 3.953 81.689 4.451 82.023.17.115 9.252 3.459 20.18 7.432 10.929 3.973 20.978 7.641 22.331 8.152l2.46.93v28.914c0 15.903.096 28.818.214 28.701.117-.118 3.818-13.442 8.223-29.61 4.405-16.167 8.13-29.508 8.278-29.646s4.841-3.629 10.428-7.759 10.195-7.613 10.24-7.74c.078-.219-37.507-68.234-37.959-68.691-.119-.122-8.698 6.141-19.062 13.917-10.365 7.775-18.954 14.017-19.087 13.871-.133-.147-2.271-8.838-4.751-19.314-5.319-22.47-5.06-21.43-5.346-21.424-.124.003-.394.112-.6.244m-30.474 19.305c-.118.308-.062 16.141.124 35.185.187 19.045.31 34.66.273 34.7-.036.041-.391-3.602-.788-8.095s-.82-8.502-.94-8.909c-.202-.684-5.741 3.466-72.661 54.444l-72.443 55.185-.009 48.174c-.005 26.497.034 48.175.086 48.175s43.516-32.341 96.587-71.869 96.544-71.822 96.606-71.764c.063.057.806 8.844 1.652 19.526 1.535 19.381 1.649 20.467 1.974 18.801.636-3.266 9.812-60.453 9.715-60.547-.066-.065-10.265-3.485-22.663-7.6l-22.542-7.483-6.994-39.112c-6.698-37.459-7.325-40.511-7.977-38.811m107.031 138.012c-1.743.797-2.228 3.086-1.116 5.266 2.613 5.121 14.628 10.03 36.173 14.778 6.762 1.491 6.846 1.452 3.205-1.46-14.272-11.418-33.504-20.759-38.262-18.584m-22.532 31.372c-3.592 2.111 1.586 13.275 12.742 27.476 5.827 7.416 12.755 15.497 13.041 15.211.079-.078-.997-2.904-2.389-6.28-10.631-25.779-19.087-38.938-23.394-36.407m-31.475 14.001c-1.784 2.695-2.621 5.742-3.465 12.617-.603 4.904-1 30.456-.551 35.397l.26 2.857 1.494-5.556c7.23-26.885 8.862-40.846 5.281-45.19-1.204-1.461-2.109-1.499-3.019-.125"
        fill-rule="evenodd" />
</svg>