<svg height="400" viewBox="0 0 400 400" width="400" xmlns="http://www.w3.org/2000/svg" fill="currentColor"><path d="m186.047 10.747v10.148l-3.957.37c-83.731 7.843-152.239 75.887-160.769 159.68-.176 1.733-.393 3.59-.482 4.126l-.161.976h-10.039-10.039v13.953 13.953h10.032c9.299 0 10.043.039 10.179.526.08.288.232 1.47.336 2.625 6.789 74.983 61.817 138.901 135.342 157.206 8.112 2.019 24.691 4.685 29.139 4.685.35 0 .419 1.681.419 10.202v10.203h13.953 13.953v-10.149-10.148l3.676-.377c85.838-8.79 154.208-77.605 161.246-162.297l.206-2.476h10.159 10.16v-13.953-13.953h-10.164-10.164l-.205-2.776c-.562-7.629-3.068-21.37-5.549-30.437-19.701-71.971-81.536-124.277-155.539-131.571l-3.826-.377v-10.143-10.143h-13.953-13.953zm0 61.571v23.406h13.953 13.953v-23.445-23.444l1.876.202c71.52 7.727 128.548 64.636 135.116 134.834l.204 2.176h-23.437-23.436v13.953 13.953h23.441 23.441l-.204 2.026c-7.062 70.152-63.711 127.522-132.949 134.641-.991.102-2.307.261-2.926.353l-1.126.168v-23.433-23.432h-13.953-13.953v23.416 23.416l-1.576-.186c-32.508-3.855-59.424-15.406-83.496-35.833-26.128-22.172-44.51-54.532-50.375-88.682-.638-3.714-1.688-11.316-1.688-12.219 0-.129 10.533-.235 23.406-.235h23.406v-13.953-13.953h-23.441-23.441l.204-2.026c6.269-62.423 51.042-114.78 111.794-130.733 7.436-1.953 19.57-4.111 24.381-4.337l.826-.039zm0 103.826v9.903h-9.903-9.902v13.953 13.953h9.902 9.903v9.903 9.902h13.953 13.953v-9.902-9.903h9.903 9.902v-13.953-13.953h-9.902-9.903v-9.903-9.902h-13.953-13.953z" fill-rule="evenodd"/></svg>