<svg height="400" viewBox="0 0 400 400" width="400" xmlns="http://www.w3.org/2000/svg" fill="currentColor">
    <path
        d="m192.667 1.55c-8.61.572-19.54 2.078-26.244 3.615l-2.411.552.456 1.058c.251.582 1.234 2.769 2.185 4.86 5.925 13.027 11.852 29.242 16.198 44.323l2.15 7.459-1.394 2.541c-3.252 5.934-6.563 10.931-10.665 16.1l-2.294 2.892 1.466 2.275c5.348 8.298 10.338 18.583 14.001 28.858l1.158 3.25h-.996c-.796 0-1.71-.655-4.553-3.265-11.748-10.783-26.195-19.944-39.836-25.26l-4.212-1.641-.005-1.559-.004-1.558 5.264-5.275c5.379-5.39 11.736-12.707 11.736-13.508 0-.688-4.968-10.353-7.333-14.267-6.582-10.89-12.858-19.195-21.787-28.833l-2.162-2.334-5.276 2.661c-36.644 18.479-62.994 50.752-72.265 88.51-3.547 14.445-4.509 29.499-2.502 39.15 4.777 22.969 7.988 52.471 7.991 73.399v4.387l-1.349 1.707c-.742.939-3.986 4.433-7.208 7.765-14.948 15.454-15.41 17.08-9.064 31.888 6.521 15.216 14.061 24.565 33.095 41.033 9.385 8.12 11.954 14.68 12.337 31.5.16 7.054.621 11.384 1.666 15.667.269 1.1.715 3.181.993 4.624 1.362 7.09 6.664 13.805 13.557 17.172 6.192 3.024 42.374 11.221 61.14 13.851 16.399 2.298 51.088 3.418 68.333 2.207 13.098-.92 25.86-2.666 41.334-5.655 7.244-1.4 37.377-8.451 39.452-9.232 11.587-4.361 16.245-12.102 16.73-27.8.265-8.556.753-13.226 1.811-17.307.279-1.076.507-3.028.507-4.339 0-7.808 3.313-14.028 10.691-20.068 9.244-7.568 11.471-9.536 15.532-13.721 10.356-10.672 17.193-21.852 21.811-35.669 1.581-4.728 1.563-5.457-.221-9.075-1.895-3.845-7.25-10.582-14.728-18.529-1.617-1.719-3.573-3.927-4.346-4.906l-1.406-1.78.002-6.386c.007-23.487 2.775-47.636 8.163-71.22 10.665-46.682-25.507-103.965-83.665-132.495-26.586-13.042-56.897-19.413-83.833-17.622m-66 164.224c1.008.418 4.308 2.334 7.333 4.258 13.726 8.733 23.674 12.904 38.557 16.166 6.774 1.485 6.446 1.222 4.724 3.801-6.64 9.943-33.144 29.947-44.614 33.673-10.074 3.272-25.291-2.747-38.24-15.126-6.077-5.81-10.452-12.879-7.97-12.879.656 0 .826-.215.995-1.25.969-5.934 13.262-17.217 27.84-25.553 7.002-4.004 8.307-4.359 11.375-3.09m155.333.668c15.58 7.081 32.333 21.884 32.333 28.57 0 .476.227.655.834.655 2.678 0-2.019 7.833-7.709 12.856-13.071 11.538-27.714 17.757-36.791 15.625-8.624-2.025-29.066-16.431-41.991-29.59-5.799-5.905-6.291-6.991-3.426-7.554 15.694-3.085 27.101-7.673 41.083-16.524 9.666-6.119 10.573-6.353 15.667-4.038m-77.5 46.345c7.69 3.602 18.305 21.646 24.303 41.313 3.613 11.844 2.928 14.196-5.302 18.193-7.142 3.468-10.391 3.895-15.674 2.059-8.13-2.826-11.595-3.206-19.604-2.151-19.67 2.592-22.513-8.821-9.057-36.368 8.713-17.836 18.142-26.414 25.334-23.046"
        fill-rule="evenodd" />
</svg>