<svg height="400" viewBox="0 0 400 400" width="400" xmlns="http://www.w3.org/2000/svg"><path d="m82.62 3.009c-6.373.416-11.693.816-11.822.889-1.985 1.12-14.375 34.605-14.375 38.85 0 2.797 7.064 3.584 32.264 3.594l15.639.006 4.243-21.345c2.333-11.739 4.011-21.575 3.729-21.857-.861-.861-17.417-.937-29.678-.137m40.826.266c-.919 2.753-7.584 37.671-7.581 39.712.005 2.964 9.92 3.89 31.707 2.959 19.03-.812 17.31.864 18.107-17.637.348-8.089.89-17.314 1.203-20.5l.57-5.794h-21.793c-16.538 0-21.894.304-22.213 1.26m54.45 3.526c-.89 6.749-2.531 29.048-2.558 34.761l-.023 4.786h24.779 24.779l-.669-9.824c-.368-5.403-1.09-14.584-1.604-20.403-.515-5.819-.936-11.373-.937-12.343 0-1.624-1.7-1.763-21.568-1.763h-21.568zm55.229 7.053c.36 6.511.93 16.216 1.268 21.566l.614 9.727 13.731.736c13.101.703 34.046.132 35.136-.958.435-.435-5.982-35.893-7.447-41.147-.449-1.609-2.386-1.763-22.224-1.763h-21.731zm55.792-11.186c-2.236.637-2.425-1.238 2.267 22.521 2.217 11.225 4.03 20.577 4.03 20.784 0 .627 29.308.418 39.14-.28 11.035-.783 10.675.497 4.773-16.978-5.884-17.424-8.067-22.253-10.852-24.011-2.347-1.481-35.317-3.186-39.358-2.036m-237.02 55.015c-.404 1.174-3.532 13.891-4.957 20.151l-.631 2.771h153.168c132.54 0 153.168-.196 153.168-1.449 0-1.455-2.272-11.896-4.124-18.954l-.992-3.779h-147.599c-117.178 0-147.69.26-148.033 1.26m-7.981 35.768c-2.997 9.565-8.221 53.468-9.764 82.051-2.005 37.169 3.678 113.947 9.663 130.543.348.965 6.794 1.26 27.583 1.26h27.128l-.815-3.779c-7.11-32.925-7.321-147.055-.382-206.045l.681-5.793h-26.771c-24.614 0-26.815.142-27.323 1.763m64.458.504c-6.869 32.442-6.877 179.428-.011 211.083l.492 2.267h27.159 27.16l-.731-3.275c-.957-4.292-.952-201.331.006-207.556l.737-4.786h-27.166-27.165zm64.25 4.534c-1.086 8.834-1.093 195.431-.007 203.022l.828 5.794h26.524 26.525l.803-13.854c1.043-18.011 1.043-169.898 0-187.909l-.803-13.854h-26.517-26.517zm64.918 2.519c.971 12.143.971 184.833 0 196.977l-.744 9.32h27.193c14.956 0 27.193-.184 27.193-.408 0-.225.66-6.232 1.466-13.35 5.602-49.455 5.602-138.646 0-188.101-.806-7.118-1.466-13.126-1.466-13.35 0-.225-12.237-.408-27.193-.408h-27.193zm64.728-6.55c.002 1.524.667 9.572 1.478 17.885 3.241 33.236 4.94 105.378 3.065 130.148-.287 3.784-.994 15.04-1.571 25.015-1.023 17.663-2.505 32.945-3.64 37.532l-.561 2.267h27.23 27.23l1.135-5.29c12.259-57.135 12.026-146.854-.537-207.053l-.683-3.274h-26.575-26.574zm-252.148 223.657c-3.313.346-3.714.669-3.229 2.601.304 1.213 1.59 6.74 2.858 12.281l2.304 10.076 147.677.255 147.676.256 2.751-11.843c1.512-6.513 2.966-12.409 3.23-13.101.453-1.192-292.047-1.699-303.267-.525m8.064 36.197c-2.54.714-2.216 3.353 1.889 15.359 6.785 19.846 9.553 24.88 14.096 25.63 9.704 1.603 38.842.77 38.274-1.094-.295-.97-2.101-10.076-4.013-20.235s-3.778-18.773-4.147-19.143c-.777-.779-43.462-1.257-46.099-.517m57.036 1.54c.347 1.284 2.246 10.482 4.22 20.441 1.973 9.958 3.828 18.346 4.12 18.639.292.294 10.288.673 22.214.842l21.683.308-.568-4.842c-.312-2.663-.856-11.46-1.207-19.549-.843-19.409 2.051-17.477-26.738-17.854l-24.355-.319zm60.093 2.188c0 5.404 1.802 28.995 2.609 34.151l.591 3.779h21.574c11.865 0 21.576-.34 21.58-.756s.678-8.917 1.498-18.892c.82-9.974 1.497-19.156 1.505-20.403l.013-2.267h-24.685-24.685zm62.332-3.677c-2.943.453-2.733-.959-4.514 30.272l-.647 11.335 20.029-.014c11.016-.008 20.936-.26 22.044-.561 1.749-.475 2.553-3.271 6.081-21.145l4.066-20.598-22.202.151c-12.211.083-23.397.335-24.857.56m58.827-.034c-1.506.313-2.273 1.209-2.285 2.668-.01 1.208-1.595 10.131-3.523 19.829s-3.507 17.972-3.509 18.388c-.004.902 35.451.796 39.795-.119 4.157-.875 18.902-37.481 16.193-40.198-.811-.813-43.018-1.327-46.671-.568" fill-rule="evenodd"/></svg>