<svg id="svg" xmlns="http://www.w3.org/2000/svg" xmlns:xlink="http://www.w3.org/1999/xlink" width="400" height="400" viewBox="0, 0, 400,400"><g id="svgg"><path id="path0" d="M150.057 2.382 C 150.114 2.628,157.565 20.181,166.613 41.389 L 183.065 79.948 186.129 80.762 C 197.777 83.856,209.239 83.737,220.139 80.410 L 222.053 79.826 236.337 41.122 C 244.194 19.836,250.627 2.310,250.634 2.177 C 250.640 2.044,227.989 1.935,200.299 1.935 C 157.562 1.935,149.968 2.003,150.057 2.382 M122.581 16.090 C 122.581 16.548,125.902 25.558,128.005 30.806 C 130.793 37.765,132.523 41.695,138.226 54.032 C 151.588 82.934,155.484 95.201,155.484 108.374 C 155.484 123.420,149.749 132.537,125.428 156.156 C 108.417 172.677,95.233 185.980,90.929 190.968 C 67.494 218.125,59.322 242.330,63.049 273.548 C 72.652 353.985,146.450 409.131,225.548 394.978 C 284.331 384.461,330.355 336.388,338.716 276.774 C 343.336 243.828,335.425 218.247,311.926 190.150 C 307.158 184.449,293.361 170.383,281.679 159.314 C 253.637 132.743,250.283 128.501,248.858 117.798 C 246.560 100.537,252.440 78.129,269.359 39.677 C 273.979 29.176,279.677 16.049,279.677 15.906 C 279.677 15.846,275.727 15.835,270.898 15.882 L 262.118 15.968 248.201 53.487 C 231.936 97.338,232.145 96.583,232.152 111.452 C 232.161 131.887,236.346 138.560,267.746 168.211 C 313.438 211.356,324.515 229.858,323.764 261.774 C 321.850 343.179,241.276 400.234,163.254 375.433 C 138.295 367.499,114.484 349.655,99.903 327.959 C 80.116 298.516,73.221 262.069,82.316 235.000 C 88.112 217.750,100.054 202.648,131.613 172.663 C 166.456 139.556,173.613 126.387,170.950 100.276 C 169.606 87.105,168.188 83.289,143.318 25.887 L 138.950 15.806 130.765 15.806 C 126.264 15.806,122.581 15.934,122.581 16.090 M186.613 186.016 C 153.807 187.825,123.183 198.103,116.923 209.405 C 113.164 216.192,119.083 232.269,129.413 243.333 L 132.676 246.827 128.359 244.663 C 118.205 239.575,111.248 234.373,106.874 228.599 C 106.047 227.507,105.321 226.551,105.262 226.475 C 104.524 225.530,98.129 239.528,96.637 245.357 C 94.620 253.239,93.966 265.124,95.113 273.065 C 97.111 286.888,99.745 296.129,104.682 306.637 C 140.923 383.766,248.250 388.973,292.442 315.746 C 309.576 287.353,312.436 255.315,300.022 230.831 C 297.304 225.472,297.217 225.380,296.250 226.874 C 292.294 232.983,282.378 240.582,272.335 245.200 L 269.666 246.427 272.768 242.972 C 281.388 233.369,286.301 222.191,285.740 213.454 C 284.973 201.502,259.093 190.468,222.742 186.595 C 218.079 186.098,192.548 185.689,186.613 186.016 " stroke="none" fill="#000000" fill-rule="evenodd"></path></g></svg>