<svg height="400" viewBox="0 0 400 400" width="400" xmlns="http://www.w3.org/2000/svg"><path d="m150.057 2.382c.057.246 7.508 17.799 16.556 39.007l16.452 38.559 3.064.814c11.648 3.094 23.11 2.975 34.01-.352l1.914-.584 14.284-38.704c7.857-21.286 14.29-38.812 14.297-38.945.006-.133-22.645-.242-50.335-.242-42.737 0-50.331.068-50.242.447m-27.476 13.708c0 .458 3.321 9.468 5.424 14.716 2.788 6.959 4.518 10.889 10.221 23.226 13.362 28.902 17.258 41.169 17.258 54.342 0 15.046-5.735 24.163-30.056 47.782-17.011 16.521-30.195 29.824-34.499 34.812-23.435 27.157-31.607 51.362-27.88 82.58 9.603 80.437 83.401 135.583 162.499 121.43 58.783-10.517 104.807-58.59 113.168-118.204 4.62-32.946-3.291-58.527-26.79-86.624-4.768-5.701-18.565-19.767-30.247-30.836-28.042-26.571-31.396-30.813-32.821-41.516-2.298-17.261 3.582-39.669 20.501-78.121 4.62-10.501 10.318-23.628 10.318-23.771 0-.06-3.95-.071-8.779-.024l-8.78.086-13.917 37.519c-16.265 43.851-16.056 43.096-16.049 57.965.009 20.435 4.194 27.108 35.594 56.759 45.692 43.145 56.769 61.647 56.018 93.563-1.914 81.405-82.488 138.46-160.51 113.659-24.959-7.934-48.77-25.778-63.351-47.474-19.787-29.443-26.682-65.89-17.587-92.959 5.796-17.25 17.738-32.352 49.297-62.337 34.843-33.107 42-46.276 39.337-72.387-1.344-13.171-2.762-16.987-27.632-74.389l-4.368-10.081h-8.185c-4.501 0-8.184.128-8.184.284m64.032 169.926c-32.806 1.809-63.43 12.087-69.69 23.389-3.759 6.787 2.16 22.864 12.49 33.928l3.263 3.494-4.317-2.164c-10.154-5.088-17.111-10.29-21.485-16.064-.827-1.092-1.553-2.048-1.612-2.124-.738-.945-7.133 13.053-8.625 18.882-2.017 7.882-2.671 19.767-1.524 27.708 1.998 13.823 4.632 23.064 9.569 33.572 36.241 77.129 143.568 82.336 187.76 9.109 17.134-28.393 19.994-60.431 7.58-84.915-2.718-5.359-2.805-5.451-3.772-3.957-3.956 6.109-13.872 13.708-23.915 18.326l-2.669 1.227 3.102-3.455c8.62-9.603 13.533-20.781 12.972-29.518-.767-11.952-26.647-22.986-62.998-26.859-4.663-.497-30.194-.906-36.129-.579" fill-rule="evenodd"/></svg>