<svg id="svg" xmlns="http://www.w3.org/2000/svg" xmlns:xlink="http://www.w3.org/1999/xlink" width="400" height="400" viewBox="0, 0, 400,400"><g id="svgg"><path id="path0" d="M199.451 23.616 C 198.925 23.972,198.515 26.425,193.763 57.642 C 170.363 211.349,159.059 309.982,160.686 346.255 C 160.974 352.681,160.927 352.540,163.034 353.264 C 167.271 354.720,168.662 355.773,177.830 364.460 C 185.325 371.561,186.807 372.757,190.382 374.593 C 194.027 376.464,195.270 376.770,199.560 376.854 C 207.996 377.018,211.322 375.286,221.853 365.245 C 230.968 356.555,233.466 354.671,237.774 353.236 C 239.491 352.664,239.501 352.638,239.869 347.867 C 242.363 315.567,229.084 201.099,204.152 39.973 C 201.894 25.378,201.625 23.978,201.017 23.653 C 200.719 23.493,199.669 23.469,199.451 23.616 M5.764 82.916 C 5.248 83.469,5.258 83.654,5.969 87.014 C 8.000 96.603,8.291 106.735,7.259 131.878 C 7.114 135.425,6.918 140.232,6.824 142.560 C 6.260 156.579,6.669 174.101,7.736 181.589 C 10.232 199.101,17.856 209.337,38.442 222.815 C 39.506 223.512,44.367 226.457,49.244 229.360 C 68.664 240.919,68.411 240.765,73.027 243.797 C 99.274 261.038,103.893 275.082,101.643 330.803 C 100.790 351.946,100.792 365.594,101.649 366.903 C 102.667 368.457,109.964 369.150,114.732 368.145 C 118.145 367.426,118.399 367.270,119.435 365.255 C 121.978 360.310,128.626 356.871,143.063 353.032 C 144.290 352.706,144.441 352.633,144.441 352.365 C 144.441 347.622,147.765 309.470,150.956 277.595 C 152.857 258.598,153.086 255.956,152.970 254.350 C 152.477 247.526,149.581 237.178,146.392 230.845 C 143.094 224.296,133.960 215.808,122.069 208.245 C 112.555 202.194,103.261 197.535,82.163 188.243 C 48.538 173.432,44.602 170.811,41.107 160.900 C 40.029 157.843,39.368 155.499,35.814 142.121 C 30.503 122.132,27.702 113.935,22.834 104.134 C 18.731 95.870,14.792 90.177,9.137 84.333 C 7.196 82.328,6.563 82.062,5.764 82.916 M392.920 83.016 C 388.549 86.472,382.089 95.482,377.830 104.064 C 372.663 114.476,370.115 121.954,364.459 143.299 C 358.899 164.284,358.064 166.313,353.336 170.338 C 348.211 174.701,343.117 177.345,320.726 187.261 C 292.236 199.877,284.074 204.119,272.687 212.225 C 257.240 223.220,252.099 230.915,248.514 248.403 C 247.220 254.715,247.177 253.681,249.791 279.073 C 252.078 301.294,253.739 319.820,255.289 340.393 C 255.800 347.182,256.244 352.762,256.275 352.793 C 256.306 352.824,257.242 353.053,258.355 353.303 C 270.507 356.026,278.802 360.498,281.420 365.737 C 282.120 367.137,282.335 367.274,284.936 367.982 L 286.799 368.489 290.830 368.490 C 293.496 368.491,295.090 368.437,295.539 368.331 C 296.915 368.005,298.559 367.325,298.973 366.912 L 299.383 366.502 299.325 351.440 C 299.275 338.604,299.225 335.525,298.983 330.601 C 296.955 289.376,300.189 269.720,310.981 257.672 C 317.493 250.403,324.104 245.536,341.418 235.268 C 359.706 224.421,364.086 221.674,370.306 217.151 C 381.131 209.277,388.122 200.309,390.908 190.721 C 393.961 180.214,394.630 167.262,393.613 138.327 C 393.359 131.071,392.910 119.390,392.815 117.555 C 392.285 107.252,393.091 93.970,394.701 86.463 C 395.277 83.781,395.295 83.160,394.809 82.778 C 394.258 82.344,393.678 82.417,392.920 83.016 " stroke="none" fill="#000000" fill-rule="evenodd"></path></g></svg>