<svg height="400" viewBox="0 0 400 400" width="400" xmlns="http://www.w3.org/2000/svg"><path d="m199.451 23.616c-.526.356-.936 2.809-5.688 34.026-23.4 153.707-34.704 252.34-33.077 288.613.288 6.426.241 6.285 2.348 7.009 4.237 1.456 5.628 2.509 14.796 11.196 7.495 7.101 8.977 8.297 12.552 10.133 3.645 1.871 4.888 2.177 9.178 2.261 8.436.164 11.762-1.568 22.293-11.609 9.115-8.69 11.613-10.574 15.921-12.009 1.717-.572 1.727-.598 2.095-5.369 2.494-32.3-10.785-146.768-35.717-307.894-2.258-14.595-2.527-15.995-3.135-16.32-.298-.16-1.348-.184-1.566-.037m-193.687 59.3c-.516.553-.506.738.205 4.098 2.031 9.589 2.322 19.721 1.29 44.864-.145 3.547-.341 8.354-.435 10.682-.564 14.019-.155 31.541.912 39.029 2.496 17.512 10.12 27.748 30.706 41.226 1.064.697 5.925 3.642 10.802 6.545 19.42 11.559 19.167 11.405 23.783 14.437 26.247 17.241 30.866 31.285 28.616 87.006-.853 21.143-.851 34.791.006 36.1 1.018 1.554 8.315 2.247 13.083 1.242 3.413-.719 3.667-.875 4.703-2.89 2.543-4.945 9.191-8.384 23.628-12.223 1.227-.326 1.378-.399 1.378-.667 0-4.743 3.324-42.895 6.515-74.77 1.901-18.997 2.13-21.639 2.014-23.245-.493-6.824-3.389-17.172-6.578-23.505-3.298-6.549-12.432-15.037-24.323-22.6-9.514-6.051-18.808-10.71-39.906-20.002-33.625-14.811-37.561-17.432-41.056-27.343-1.078-3.057-1.739-5.401-5.293-18.779-5.311-19.989-8.112-28.186-12.98-37.987-4.103-8.264-8.042-13.957-13.697-19.801-1.941-2.005-2.574-2.271-3.373-1.417m387.156.1c-4.371 3.456-10.831 12.466-15.09 21.048-5.167 10.412-7.715 17.89-13.371 39.235-5.56 20.985-6.395 23.014-11.123 27.039-5.125 4.363-10.219 7.007-32.61 16.923-28.49 12.616-36.652 16.858-48.039 24.964-15.447 10.995-20.588 18.69-24.173 36.178-1.294 6.312-1.337 5.278 1.277 30.67 2.287 22.221 3.948 40.747 5.498 61.32.511 6.789.955 12.369.986 12.4s.967.26 2.08.51c12.152 2.723 20.447 7.195 23.065 12.434.7 1.4.915 1.537 3.516 2.245l1.863.507 4.031.001c2.666.001 4.26-.053 4.709-.159 1.376-.326 3.02-1.006 3.434-1.419l.41-.41-.058-15.062c-.05-12.836-.1-15.915-.342-20.839-2.028-41.225 1.206-60.881 11.998-72.929 6.512-7.269 13.123-12.136 30.437-22.404 18.288-10.847 22.668-13.594 28.888-18.117 10.825-7.874 17.816-16.842 20.602-26.43 3.053-10.507 3.722-23.459 2.705-52.394-.254-7.256-.703-18.937-.798-20.772-.53-10.303.276-23.585 1.886-31.092.576-2.682.594-3.303.108-3.685-.551-.434-1.131-.361-1.889.238" fill-rule="evenodd"/></svg>