<svg xmlns="http://www.w3.org/2000/svg" width="400" height="400" viewBox="0 0 400 400">
    <path fill-rule="evenodd"
        d="M168.4 89.221c-49.296 1.765-93.252 14.901-139.232 41.608-14.217 8.258-15.239 9.138-13.806 11.891 2.035 3.91 5.644 4.432 15.668 2.265 8.67-1.874 8.733-1.848 12.793 5.3 35.183 61.959 76.783 108.165 117.267 130.253 38.254 20.871 92.325 17.734 151.31-8.778l7-3.147 4.2.05c5.122.061 11.386 1.601 26.6 6.541 36.552 11.867 40.104 7.404 22.082-27.747-11.863-23.14-45.866-80.006-55.816-93.347-29.948-40.154-73.887-62.778-125.666-64.706-12.07-.45-14.417-.469-22.4-.183m16.18 29.905c-.209.179-2 .646-3.98 1.039-15.697 3.114-31.036 11.723-38.443 21.577-16.043 21.342-2.153 59.171 30.871 84.074 41.141 31.025 93.639 26.648 109.047-9.091 3.429-7.954 5.037-22.857 3.228-29.925l-.461-1.8.783 1c4.97 6.35 26.644 40.866 28.188 44.891.187.487-.176.612-1.891.654-3.987.095-10.004 2.258-22.122 7.954-15.014 7.057-18.221 8.485-23.435 10.436-34.188 12.79-68.482 13.326-93.458 1.462-27.775-13.195-73.756-54.702-105.915-95.612-4.491-5.712-11.94-16.175-11.689-16.418.395-.383 51.014-12.835 55.906-13.753 14.378-2.699 37.089-5.44 54.191-6.541 4.513-.291 19.532-.249 19.18.053m17.22 14.209c25.098 4.66 44.438 19.004 47.82 35.465 3.909 19.029-6.636 33.734-25.695 35.833l-2.525.278 2.732-2.756c16.725-16.868 13.381-40.988-7.008-50.542-27.583-12.926-51.514-6.558-63.564 16.914l-2.241 4.364-.255-1.545c-1.429-8.65 1.611-19.929 7.201-26.72 7.9-9.596 26.576-14.439 43.535-11.291m-6.366 30.525c-12.599 17.039-12.872 30.998-.855 43.699 8.767 9.265 30.604 15.657 44.028 12.886 13.127-2.709 24.426-12.873 30.055-27.033l.958-2.412-.169 6.4c-.576 21.819-13.71 33.667-39.051 35.226-27.111 1.668-55.255-14.307-60.358-34.26-4.513-17.648 4.521-32.23 22.915-36.985 5.441-1.406 5.389-1.458 2.477 2.479m23.994 4.24c8.108 9.586.464 27.609-13.289 31.331l-2.65.718-1.099-1.23c-3.963-4.435-4.211-14.376-.533-21.375 3.91-7.44 14.467-13.114 17.571-9.444" />
</svg>