<svg height="400" viewBox="0 0 400 400" width="400" xmlns="http://www.w3.org/2000/svg"><path d="m205.223 6.097c-7.959 1.647-14.864 7.294-18.232 14.911-1.612 3.645-2.086 4.107-4.678 4.559-1.587.277-6.142 1.119-10.123 1.871l-7.238 1.366-3.428-3.646c-10.405-11.064-20.161-10.492-47.042 2.755-20.875 10.287-25.938 16.342-25.154 30.081l.381 6.697-7.711 6.93c-5.893 5.296-8.072 6.824-9.236 6.481-16.336-4.817-24.07-.649-38.482 20.738-15.304 22.712-17.097 34.274-7.023 45.294l3.012 3.295-2.787 9.767-2.787 9.767-5.011 1.686c-15.615 5.255-20.591 20.098-17.5 52.203 1.391 14.44 9.128 25.183 18.189 25.254 4.246.033 4.662.589 7.818 10.462l3.048 9.532-2.755 3.049c-7.394 8.185-8.532 19.11-3.04 29.193 16.128 29.61 29.789 40.422 45.087 35.684 5.937-1.838 5.008-2.17 13.85 4.943 7.543 6.067 7.743 6.308 7.212 8.683-2.908 13.022 2.698 21.661 19.156 29.521 28.82 13.763 42.486 14.395 52.965 2.449l3.62-4.127 10.147 1.177c5.58.647 10.194 1.275 10.252 1.395.059.12.849 1.809 1.755 3.753 6.715 14.4 20.404 16.598 53.976 8.665 15.833-3.741 23.539-10.648 24.66-22.104l.447-4.571 9.615-4.809 9.614-4.809 3.576 2.268c13.622 8.639 26.817 3.513 49.624-19.277 13.52-13.509 16.591-23.106 10.761-33.621l-2.144-3.867 5.572-8.792 5.573-8.792 5.714-.355c16.121-1.001 23.667-11.677 30.86-43.661 3.789-16.851.211-27.091-11.241-32.169l-2.857-1.267.035-10.329.034-10.33 4.539-2.834c12.641-7.894 13.646-21.036 3.744-48.976-6.421-18.115-11.706-23.089-25.454-23.952l-6.816-.428-5.561-8.107-5.561-8.107 2.082-4.465c5.405-11.595 2.242-20.739-11.332-32.749-23.898-21.145-36.042-24.872-50.024-15.351l-3.267 2.224-6.257-2.626c-3.441-1.444-7.622-3.143-9.291-3.775-2.894-1.097-3.077-1.365-3.986-5.858-2.41-11.906-9.088-17.974-22.313-20.274-12.917-2.246-33.614-3.654-38.587-2.625m16.872 12.203c19.131 1.574 26.362 3.432 29.274 7.52 2.234 3.138 2.03 3.51-1.933 3.536-6.812.044-10.037 8.46-4.899 12.784l2.251 1.894-2.327.964c-1.923.796-4.004.738-11.966-.335-5.301-.715-13.464-1.569-18.141-1.897-6.15-.432-9.087-.979-10.611-1.977l-2.106-1.38 2.777-1.425c6.675-3.425 5.428-13.603-1.668-13.603-3.051 0-3.454-.951-1.271-3.002 3.965-3.725 7.092-4.192 20.62-3.079m-73.764 12.675 2.656 1.26-2.253.948c-6.606 2.777-6.002 14.022.755 14.067 5.928.039 2.513 3.927-7.013 7.984-3.562 1.516-10.683 4.967-15.824 7.667-9.241 4.853-16.764 6.912-13.565 3.712 5.797-5.796-.614-14.463-8.631-11.668-3.057 1.066-3.258.846-2.322-2.544 1.12-4.053 4.553-6.594 18.321-13.558 18.407-9.31 22.439-10.448 27.876-7.868m40.97 12.111c4.556 8.461 9.47 10.442 32.032 12.915 22.949 2.515 27.371 1.855 35.247-5.26 3.743-3.382 2.727-3.455 13.158.946l8.738 3.687.566 5.265c1.129 10.492 3.753 14.436 15.41 23.157 3.785 2.832 9.081 7.076 11.769 9.431 7.731 6.775 10.261 7.725 20.554 7.725h8.679l5.329 7.937c4.829 7.193 5.234 8.086 4.32 9.524-6.6 10.383-6.945 15.594-2.024 30.641 1.9 5.811 4.193 13.094 5.096 16.185 2.767 9.473 6.954 14.404 15.003 17.671l4.06 1.648-.003 10.388-.003 10.387-3.385 1.392c-8.529 3.508-13.014 9.817-16.341 22.989-1.27 5.029-3.35 12.207-4.622 15.953-3.614 10.643-3.01 17.532 2.203 25.109l2.292 3.331-5.512 8.629-5.512 8.629-7.225.032c-9.088.04-13.629 1.964-21.101 8.94-2.845 2.656-8.704 7.857-13.02 11.559-11.024 9.453-13.866 14.416-13.866 24.206 0 5.058.95 4.242-11.88 10.197l-7.106 3.298-2.888-2.327c-7.664-6.174-14.387-7.223-28.138-4.388-4.131.852-10.941 2.059-15.131 2.683-13.207 1.966-19.76 5.585-24.102 13.311-2.136 3.8-1.771 3.725-12.403 2.564-11.056-1.208-10.843-1.129-11.517-4.246-2.095-9.685-6.933-13.993-22.454-19.991-4.819-1.862-11.613-4.642-15.097-6.178-8.154-3.593-16.737-3.671-23.714-.216-3.097 1.534-4.484 1.861-5.528 1.302-1.519-.813-15.09-11.977-15.09-12.413 0-.148.515-1.726 1.143-3.508 2.823-8.001 1.099-16.02-5.204-24.213-1.844-2.397-5.927-8.301-9.073-13.12-7.934-12.153-11.743-15.211-20.422-16.395-6.888-.939-6.296-.276-9.462-10.606l-2.917-9.519 3.881-3.491c2.277-2.046 4.765-5.286 6.016-7.834l2.133-4.345v-20.191c0-23.552-.228-24.452-8.12-32l-4.382-4.19 2.874-9.5 2.874-9.5 4.678-.947c9.652-1.953 14.784-5.991 20.762-16.335 1.788-3.093 5.476-8.863 8.197-12.822 8.034-11.692 9.597-18.154 6.712-27.74l-1.072-3.563 7.533-6.844c4.143-3.765 7.797-6.844 8.119-6.844.323 0 2.441.705 4.707 1.566 8.469 3.219 15.964 2.112 27.531-4.068 3.544-1.893 9.822-4.912 13.949-6.708 11.154-4.853 16.142-9.836 18.82-18.8 1.3-4.352 1.689-4.585 10.354-6.206 11.33-2.119 11.858-2.076 13.575 1.111m124.765 7.672c17.023 11.543 25.744 20.682 25.744 26.981v3.147l-2.567-1.586c-6.952-4.297-14.745 1.243-11.979 8.517 1.6 4.208-3.207 2.337-10.306-4.01-2.884-2.579-8.387-7.065-12.229-9.969-10.546-7.971-13.019-11.362-8.289-11.362 7.566 0 11.244-7.065 6.494-12.475-4.945-5.632 4.513-5.087 13.132.757m-120.693 19.423c-28.481 2.9-56.848 26.804-69.988 58.976-9.066 22.194-10.066 36.043-3.894 53.898 10.085 29.175 10.117 47.793.141 82.85l-3.794 13.333 3.979 3.429c7.825 6.741 28.579 25.875 40.371 37.219 6.599 6.349 12.198 11.543 12.442 11.543 1.816 0-1.922-28.905-6.602-51.048-4.807-22.751-6.654-34.025-7.291-44.505l-.507-8.347-5.047-5.444c-8.258-8.905-11.868-17.061-14.499-32.752-2.036-12.145-2.205-11.532 2.459-8.916 2.2 1.233 12.829 7.112 23.621 13.062 10.792 5.951 19.972 11.475 20.401 12.276s1.613 9.233 2.632 18.738c1.618 15.093 2.073 17.587 3.599 19.693 6.201 8.561 8.65 11.77 8.985 11.77.334 0 2.771-3.192 8.938-11.705 1.468-2.026 1.954-4.718 3.561-19.732 1.143-10.677 2.271-18.003 2.922-18.984.942-1.419 47.063-27.496 47.629-26.93.432.432-2.82 19.126-4.054 23.3-2.034 6.882-6.498 14.523-11.724 20.064l-4.919 5.215-.932 10.523c-1.116 12.594-2.206 19.127-7.114 42.674-4.351 20.873-5.847 30.574-6.579 42.667l-.531 8.762 4.638-4.191c2.55-2.305 11.773-10.928 20.496-19.162s19.509-18.14 23.97-22.012l8.11-7.04-1.854-6.56c-11.987-42.416-12.338-57.288-2.106-89.226 4.291-13.394 5.132-22.357 3.057-32.595-9.965-49.182-50.032-84.967-90.516-80.843m-129.766 19.533c-2.095 5.022-2.145 5.361-1.145 7.775 1.787 4.315 6.535 5.745 11.633 3.505 3.481-1.529 1.298 3.968-5.138 12.938-2.319 3.232-6.136 9.267-8.482 13.41-3.544 6.26-7.159 10.563-8.873 10.563-.195 0-.544-1.422-.778-3.16-.914-6.82-8.41-8.976-12.856-3.697-4.345 5.158-6.219-2.636-2.434-10.121 2.493-4.929 17.371-27.351 19.318-29.112 2.994-2.71 9.678-4.314 8.755-2.101m308.787 32.775c5.651 3.703 15.501 36.742 12.764 42.812-1.964 4.354-3.248 5.266-3.879 2.754-1.718-6.845-12.583-6.78-14.85.089l-.927 2.806-2.053-2.298c-1.394-1.56-2.591-4.439-3.723-8.953-.918-3.659-2.902-10.146-4.409-14.414-2.463-6.976-4.149-15.761-3.025-15.761.238 0 1.556.684 2.928 1.521 6.466 3.942 13.068-.639 11.669-8.098-.582-3.101 1.241-3.252 5.505-.458m-350.004 61.903c.681 4.262 2.729 6.084 6.839 6.084 3.189 0 7.342-2.645 7.342-4.675 0-1.238 1.47-.66 2.308.907 1.047 1.957 1.501 36.029.52 39.006-.851 2.582-1.087 2.588-3.68.104-5.068-4.856-12.044-2.666-13.129 4.12-.57 3.562-.915 3.759-3.257 1.855-6.947-5.649-7.725-41.613-1.044-48.294 2.878-2.878 3.52-2.738 4.101.893m346.865 40.322c4.04 3.178 9.236 1.826 11.724-3.052 1.711-3.353 2.424-3.312 4.263.244 3.204 6.196-5.539 38.534-11.994 44.366-4.306 3.89-5.695 3.63-5.373-1.006.462-6.671-6.729-10.211-11.901-5.859-4.346 3.657-4.314-.149.114-13.975 1.83-5.711 3.911-13.044 4.625-16.294.86-3.915 1.977-6.717 3.312-8.302l2.014-2.394.609 2.35c.335 1.293 1.508 3.058 2.607 3.922m-313.532 51.286c1.017.943 3.617 4.64 5.776 8.216 2.16 3.575 6.332 9.708 9.272 13.627 6.714 8.954 8.034 13.209 3.571 11.512-6.901-2.624-13.178 3.662-9.93 9.943 2.027 3.92.029 4.782-5.384 2.323-4.2-1.908-18.171-20.528-23.206-30.928-2.928-6.048-.834-13.073 2.659-8.922 4.279 5.086 13.329 2.026 13.329-4.505 0-3.476 1.133-3.842 3.913-1.266m270.686 30.251c-.897 6.757 6.089 11.009 11.323 6.892 2.8-2.203 3.601-1.897 3.601 1.375 0 9.27-29.507 34.895-38.184 33.159-2.663-.532-2.66-.504-.292-3.609 4.215-5.527.587-12.442-6.131-11.685-1.866.21-3.393.236-3.393.057 0-1.857 3.74-5.968 10.859-11.935 4.713-3.952 10.284-8.978 12.379-11.171 2.972-3.109 8.283-6.699 10.122-6.841.119-.009-.009 1.682-.284 3.758m-198.472 37.296c4.435 2.056 11.318 4.871 15.297 6.256 7.924 2.759 14.608 7.464 10.671 7.513-7.497.092-10.532 9.7-4.328 13.702 3.311 2.136 2.784 3.099-2.571 4.704-5.301 1.588-38.109-11.443-41.381-16.437-2.115-3.227-2.593-6.929-.793-6.147 7.804 3.393 15.453-4.318 10.621-10.707-3.073-4.062 2.363-3.576 12.484 1.116m119.346 10.303c1.396 1.028 1.403 1.118.117 1.616-6.829 2.647-2.951 13.762 4.591 13.162 3.732-.297 3.734-.293 1.757 2.95-3.541 5.806-35.937 13.761-44.828 11.007-5.598-1.734-8.103-5.403-3.732-5.466 6.799-.099 7.989-11.309 1.476-13.906l-2.651-1.058 2.071-1.629c1.139-.896 3.15-1.79 4.469-1.986 1.32-.197 6.171-.899 10.78-1.56 4.61-.662 10.953-1.844 14.096-2.627 7.117-1.773 9.963-1.894 11.854-.503" fill-rule="evenodd"/></svg>