<svg height="400" viewBox="0 0 400 400" width="400" xmlns="http://www.w3.org/2000/svg"><path d="m32.196 25c-5.434 29.44-6.331 30.15-14.974 11.855l-7.505-15.887 1.255 33.871c1.727 46.591 13.863 76.348 52.128 127.817 18.962 25.505 72.089 82.601 75.522 81.165 4.488-1.877 54.878-59.105 54.777-62.208-.058-1.774-10.955-17.742-24.216-35.484-27.108-36.269-56.549-92.699-64.794-124.194-3.019-11.532-8.269-24.097-11.668-27.921-7.55-8.5-19.908-12.588-17.271-5.714 2.324 6.056-2.612 5.905-7.708-.235-2.421-2.917-9.48-4.839-17.772-4.839h-13.756zm306.725-6.452-4.353 15.323-2.957-13.71c-5.338-24.737-21.629-15.717-30.057 16.641-22.859 87.763-132.44 229.797-257.419 333.653-47.414 39.4-3.159 32.363 87.638-13.937 65.703-33.503 182.688-125.073 166.875-130.62-4.178-1.466-.594-5.77 15.629-18.771 65.332-52.354 105.388-173.202 65.475-197.538-20.229-12.334-35.75-8.928-40.831 8.959m-93.827 277.627c-8.022 6.539-18.792 14.954-23.934 18.699l-9.349 6.81 18.091 11.573c30.665 19.616 43.755 25 65.778 27.057 20.39 1.904 20.949 2.185 14.314 7.189-6.702 5.056-6.082 5.518 21.265 15.859 27.562 10.422 64.109 17.523 57.451 11.162-1.775-1.694-17.016-14.571-33.871-28.614s-43.852-38.247-59.994-53.786c-33.679-32.422-30.712-31.471-49.751-15.949" fill-rule="evenodd"/></svg>