<svg id="svg" xmlns="http://www.w3.org/2000/svg" xmlns:xlink="http://www.w3.org/1999/xlink" width="400" height="400" viewBox="0, 0, 400,400"><g id="svgg"><path id="path0" d="M32.196 25.000 C 26.762 54.440,25.865 55.150,17.222 36.855 L 9.717 20.968 10.972 54.839 C 12.699 101.430,24.835 131.187,63.100 182.656 C 82.062 208.161,135.189 265.257,138.622 263.821 C 143.110 261.944,193.500 204.716,193.399 201.613 C 193.341 199.839,182.444 183.871,169.183 166.129 C 142.075 129.860,112.634 73.430,104.389 41.935 C 101.370 30.403,96.120 17.838,92.721 14.014 C 85.171 5.514,72.813 1.426,75.450 8.300 C 77.774 14.356,72.838 14.205,67.742 8.065 C 65.321 5.148,58.262 3.226,49.970 3.226 L 36.214 3.226 32.196 25.000 M338.921 18.548 L 334.568 33.871 331.611 20.161 C 326.273 -4.576,309.982 4.444,301.554 36.802 C 278.695 124.565,169.114 266.599,44.135 370.455 C -3.279 409.855,40.976 402.818,131.773 356.518 C 197.476 323.015,314.461 231.445,298.648 225.898 C 294.470 224.432,298.054 220.128,314.277 207.127 C 379.609 154.773,419.665 33.925,379.752 9.589 C 359.523 -2.745,344.002 0.661,338.921 18.548 M245.094 296.175 C 237.072 302.714,226.302 311.129,221.160 314.874 L 211.811 321.684 229.902 333.257 C 260.567 352.873,273.657 358.257,295.680 360.314 C 316.070 362.218,316.629 362.499,309.994 367.503 C 303.292 372.559,303.912 373.021,331.259 383.362 C 358.821 393.784,395.368 400.885,388.710 394.524 C 386.935 392.830,371.694 379.953,354.839 365.910 C 337.984 351.867,310.987 327.663,294.845 312.124 C 261.166 279.702,264.133 280.653,245.094 296.175 " stroke="none" fill="#000000" fill-rule="evenodd"></path></g></svg>