<svg xmlns="http://www.w3.org/2000/svg" width="171.88" height="170.6" viewBox="0 0 171.88 170.6"><path d="m3232.9 1948.75-32.83 42.71 18.53 1.99 29.1-15.74-14.8-3.12zm-46.47-2.66-13.25 2.03 3.08 9.66Zm3.69 6.6-24.43 36.49 11.98.37 36.62-29.75Zm-36.16 7.66a78.33 78.33 0 0 0-52 19.89h31.73v6.52h-38.19a78.1 78.1 0 0 0-16 28.23h65.77v6.51h-67.52a78.6 78.6 0 0 0-1.7 10.86h40.27v6.52h-40.52a78.7 78.7 0 0 0 3.39 22.44h89.25v6.51h-86.9a78 78 0 0 0 9.28 16.65h37.08v6.51h-31.76a77.5 77.5 0 0 0 12.15 10.86h42.78v6.52h-32.18a78.04 78.04 0 0 0 100.47-27.15l-18.71-15.53 3.08-11.87-23.75 3.04 1.45-27.65-33.4 19.58 15.96-36.66-24.25-9.92s25.48-29.61 34.05-39.2a78.6 78.6 0 0 0-19.83-2.66m75.32 36.18-18.06 12.81 35.21-9.37Zm-46.94 3.73-11.69 19.76 16.35-9.34Zm48.64 13.43-38.11 13.97-3.55 12.19 37.86.51Zm-11.76 32.03 1.77 14.22 21.86 12.74-1.77-15.02Zm12.19 30.76 6.26 28.19 8.11-15.63Z" data-name="CORE Icon" style="fill-rule:evenodd" transform="translate(-3075.81 -1946.09)"/></svg>