<svg height="400" viewBox="0 0 400 400" width="400" xmlns="http://www.w3.org/2000/svg"><path d="m203.01 1.451c-2.419 2.686-12.117 14.9-47.547 59.885-51.756 65.712-51.669 65.601-51.325 65.923.576.538 28.028 19.361 70.761 48.518 13 8.87 20.983 14.236 21.177 14.236.315 0 17.073-40.546 43.087-104.251 7.445-18.231 9.922-24.394 10.369-25.791l.307-.961-.52-.861c-1.095-1.814-6.875-9.298-24.743-32.036-16.358-20.817-20.263-25.708-20.52-25.708-.057 0-.528.471-1.046 1.046m84.251 65.385c-.883 1.51-3.679 7.084-7.735 15.418-12.588 25.863-45.017 93.178-47.915 99.46-.759 1.646-.795 1.767-.574 1.957 2.138 1.841 94.256 73.44 95.382 74.137.169.104 1.788-1.679 16.028-17.662 27.403-30.755 36.837-41.397 36.824-41.541-.035-.408-91.426-132.21-91.673-132.207-.044 0-.196.197-.337.438m-214.61 76.507c-1.149 1.108-13.065 14.37-32.233 35.874-7.046 7.905-14.347 16.087-16.223 18.183-1.877 2.095-3.412 3.878-3.412 3.961 0 .496 91.609 132.452 91.808 132.242.621-.653 18.342-37.037 43.545-89.406 14.432-29.988 13.13-27.199 12.85-27.514-.994-1.116-20.196-16.197-55.693-43.74-8.313-6.45-19.578-15.196-25.034-19.434-8.785-6.826-13.88-10.733-14.41-11.051-.113-.068-.525.237-1.198.885m127.577 69.381c-1.867 4.366-3.102 7.381-28.923 70.593l-23.532 57.609.299.488c.715 1.17 7.284 9.668 21.292 27.547 20.044 25.583 24.378 31 24.702 30.875.203-.078 99.726-126.422 99.726-126.602 0-.12-3.636-2.816-6.882-5.103-6.743-4.749-72.307-49.598-84.367-57.71l-1.032-.695z" fill-rule="evenodd"/></svg>