<svg id="svg" xmlns="http://www.w3.org/2000/svg" xmlns:xlink="http://www.w3.org/1999/xlink" width="400" height="400" viewBox="0, 0, 400,400"><g id="svgg"><path id="path0" d="M203.010 1.451 C 200.591 4.137,190.893 16.351,155.463 61.336 C 103.707 127.048,103.794 126.937,104.138 127.259 C 104.714 127.797,132.166 146.620,174.899 175.777 C 187.899 184.647,195.882 190.013,196.076 190.013 C 196.391 190.013,213.149 149.467,239.163 85.762 C 246.608 67.531,249.085 61.368,249.532 59.971 L 249.839 59.010 249.319 58.149 C 248.224 56.335,242.444 48.851,224.576 26.113 C 208.218 5.296,204.313 0.405,204.056 0.405 C 203.999 0.405,203.528 0.876,203.010 1.451 M287.261 66.836 C 286.378 68.346,283.582 73.920,279.526 82.254 C 266.938 108.117,234.509 175.432,231.611 181.714 C 230.852 183.360,230.816 183.481,231.037 183.671 C 233.175 185.512,325.293 257.111,326.419 257.808 C 326.588 257.912,328.207 256.129,342.447 240.146 C 369.850 209.391,379.284 198.749,379.271 198.605 C 379.236 198.197,287.845 66.395,287.598 66.398 C 287.554 66.398,287.402 66.595,287.261 66.836 M72.651 143.343 C 71.502 144.451,59.586 157.713,40.418 179.217 C 33.372 187.122,26.071 195.304,24.195 197.400 C 22.318 199.495,20.783 201.278,20.783 201.361 C 20.783 201.857,112.392 333.813,112.591 333.603 C 113.212 332.950,130.933 296.566,156.136 244.197 C 170.568 214.209,169.266 216.998,168.986 216.683 C 167.992 215.567,148.790 200.486,113.293 172.943 C 104.980 166.493,93.715 157.747,88.259 153.509 C 79.474 146.683,74.379 142.776,73.849 142.458 C 73.736 142.390,73.324 142.695,72.651 143.343 M200.228 212.724 C 198.361 217.090,197.126 220.105,171.305 283.317 L 147.773 340.926 148.072 341.414 C 148.787 342.584,155.356 351.082,169.364 368.961 C 189.408 394.544,193.742 399.961,194.066 399.836 C 194.269 399.758,293.792 273.414,293.792 273.234 C 293.792 273.114,290.156 270.418,286.910 268.131 C 280.167 263.382,214.603 218.533,202.543 210.421 L 201.511 209.726 200.228 212.724 " stroke="none" fill="#000000" fill-rule="evenodd"></path></g></svg>