<svg height="1000" viewBox="0 0 1000 1000" width="1000" xmlns="http://www.w3.org/2000/svg" xmlns:xlink="http://www.w3.org/1999/xlink"><clipPath id="a"><path d="m4.28.15h991.15v999.85h-991.15z"/></clipPath><g clip-path="url(#a)"><path d="m261.1 747.2c-.4.7-.6 1.5-.6 2.3s.2 1.6.5 2.3c.4.8.9 1.4 1.6 1.9.6.4 1.4.7 2.2.9q21.3 3.8 42.9 6.5 21.5 2.7 43.1 4.3 21.7 1.6 43.4 2.1 21.7.5 43.4-.2 12.2-1.5 24.4-3.4 12.2-1.8 24.3-4.1 12.1-2.3 24.1-5.1 12-2.7 23.9-5.8 1.3-.4 2.3-1.2 1-.8 1.8-1.8.8-1 1.2-2.2.4-1.3.4-2.5c-.4-13.5-1.7-27-3.8-40.3-2-13.3-4.8-26.6-8.4-39.6s-7.9-25.8-13-38.3c-5-12.5-10.8-24.7-17.3-36.5-43.5-76 0-219.7 100.5-327.8 66.9-70.7 37.8-241.5-16.8-242.1-54.6-.7-25.1 102.1-47.5 151-27.5 59.9-91.4 81.3-134 193.8-24.7 63-33.5 77.1-44.8 87.4-.5.5-1.1.9-1.8 1.1s-1.4.2-2.1 0c-.6-.2-1.3-.5-1.8-1s-.8-1.1-1-1.7c-5.8-20.3-12.6-40.3-20.3-59.9-7.6-19.7-16.3-38.9-25.8-57.7s-19.9-37.2-31.2-55c-11.2-17.8-23.3-35.1-36.2-51.8-61-66.9-128-127.9-167.5-107.1-39.5 20.7-19.4 79.7 28.8 112.5 11.6 7 22.2 15.4 31.6 25 9.5 9.6 17.7 20.4 24.4 32 6.8 11.7 12.1 24.1 15.9 37.1 3.7 13 5.7 26.3 6.1 39.8.3 14.3 1.4 28.6 3.3 42.7 2 14.2 4.8 28.2 8.5 42s8.2 27.4 13.5 40.7c5.3 13.2 11.4 26.2 18.3 38.7.3.5.5 1.2.6 1.8 0 .7-.1 1.3-.5 1.9-.3.6-.7 1.1-1.3 1.4-.5.4-1.2.6-1.8.6-28.8 0-92.5-49.6-106.2-64.6-23.8-25.8-62.6-59.3-87-28.2-40.6 49.9 28.1 130.3 109.8 177.5 67 37.8 113.8 26.8 133.9 70 2.1 4.8 3.7 9.8 4.6 15 1 5.2 1.3 10.4 1 15.7-.3 5.2-1.2 10.4-2.7 15.5-1.5 5-3.6 9.8-6.2 14.4"/><path d="m357.5 384.9q5.3-13.3 11-26.3 5.6-13.1 11.7-26 6.1-12.9 12.6-25.6 6.4-12.7 13.3-25.2.1-.5.2-.9 0-.4 0-.8 0-.4 0-.9-.1-.4-.2-.8c-9.4-85-45.5-105.8-50.2-155s14.4-127.3-33.2-123.3c-37.1 3.4-56.2 59.3-50.5 127q2.6 13.5 6.2 26.8 3.6 13.3 8 26.3 4.5 13 9.9 25.7 5.4 12.7 11.7 25c17.4 44.5 27.4 108.4 41.5 153.3.3.7.8 1.2 1.4 1.6s1.2.6 2 .6c.7 0 1.4-.2 1.9-.6.6-.4 1.1-.9 1.4-1.6"/><path d="m426.9 131.4c11.3 36.8 0 67 13.7 92.8q.3.3.8.5.4.2.9.2.4 0 .9-.2.4-.2.7-.5 7-6.5 13.7-13.2 6.7-6.8 13-13.9 6.4-7.1 12.3-14.5 6-7.3 11.6-15c3.7-9.4 9-100.5-17.8-142.3-15.7-24.1-54.2-7.7-59.2 26.4q-1.6 10.1-1.7 20.4-.2 10.2 1 20.4 1.2 10.2 3.7 20.1 2.5 10 6.4 19.5"/><path d="m162.7 448.8q-2.2-10.4-4-20.8-1.9-10.5-3.4-21-1.6-10.5-2.8-21.1-1.3-10.5-2.2-21.1c0-2-2.7-3.4-4.7-4.4-59.6-33.4-59.3-57.2-92.8-96.1-3.4-4.9-8.4-8.6-14.2-10.4-5.8-1.7-12-1.5-17.6.7s-10.4 6.3-13.4 11.5-4.2 11.3-3.3 17.3c3 53.9 93.1 150.4 155 167.5q.7.1 1.3 0 .7-.2 1.2-.6.5-.5.7-1.1.3-.7.2-1.4"/><path d="m848.1 793.4c-10.4-52.2 13.1-133.9-17.1-163.7q-3.9-3.3-8.3-5.8-4.5-2.5-9.3-4.2-4.8-1.7-9.8-2.6-5-.8-10.1-.8c-45.5-2-149-6.1-274.6-6.1-125.5 0-225.6 4.1-270.5 6.1q-5.1-.1-10.1.7-5 .9-9.7 2.6-4.8 1.7-9.2 4.2-4.3 2.6-8.2 5.9c-30.1 29.8-16.7 102.1-27.1 151.3q-5.3 18.5-11.6 36.7-6.4 18.1-13.9 35.8-7.6 17.8-16.2 35-8.6 17.2-18.2 33.8c-.8 1.3-1.3 2.7-1.5 4.2-.3 1.5-.2 3 .1 4.5s.9 2.9 1.7 4.1c.8 1.3 1.8 2.4 3 3.3 24.8 18.1 114.2 61.6 401.8 61.6 275.3 0 350.9-33.5 371.4-50.2q1.6-1.4 2.8-3.3 1.1-1.9 1.5-4 .5-2.2.2-4.3-.2-2.2-1.2-4.2-8.8-16.7-16.7-33.9-7.9-17.2-14.8-34.8-6.9-17.6-12.7-35.6-5.9-18-10.7-36.3"/><path d="m924.4 260.7c-29.4 8.3-46.2 37.5-55.2 100.4-1.5 7.7-4 15.1-7.6 22-3.6 7-8.2 13.3-13.6 19-5.4 5.6-11.6 10.4-18.4 14.2-6.8 3.9-14.1 6.7-21.7 8.4-.6.3-1.3.4-2 .4-.6-.1-1.3-.3-1.8-.6-.6-.4-1.1-.9-1.4-1.5s-.5-1.3-.5-1.9c0-46.6 2.4-110.9 48.6-159.1 33.5-35.2 86.7-122.2 22.4-141.3-33.5-9.7-137.6 126.9-165.1 219.7-36.5 122.2-194.2 144.9-200.9 189.5-5.7 35.8 22.5 71.3 33.5 109.8q12.9 1.7 25.9 2.7 13.1 1.1 26.1 1.4 13 .3 26.1 0 13-.4 26-1.4c0-4.7 3.1-9.1 4.7-13.4 14.1 7 35.5 33.5 59-4 33.4-51.3 79-72.7 154.3-104.2 75.4-31.4 100.5-136.6 103.8-177.8 3.4-41.2 4-96.1-43.5-82.3"/><path d="m521.6 471.6c-.7.4-1.4.5-2.2.5-.7 0-1.5-.3-2.1-.7-.7-.4-1.2-.9-1.5-1.6-.4-.7-.6-1.4-.5-2.2.7-12.5 2.5-24.8 5.4-37 2.9-12.1 7-24 12-35.4 5.1-11.4 11.1-22.3 18.1-32.6 7-10.4 15-20 23.7-28.9 67-49.9 94.1-84.8 108.5-129q4-15.1 7.6-30.3 3.5-15.2 6.5-30.6 3.1-15.3 5.7-30.7 2.6-15.4 4.7-30.9c1.8-4.3 4.6-8.1 8.1-11.2s7.6-5.3 12.1-6.6 9.2-1.6 13.8-.8c4.6.7 9 2.5 12.8 5.2 29.5 19.1 22.5 88.4 22.5 88.4q-11.3 12.4-21.4 25.7-10.2 13.3-19.1 27.5-9 14.1-16.7 29-7.7 14.8-14.2 30.3-3.8 15.2-9.1 29.9-5.4 14.8-12.1 28.9-6.7 14.2-14.7 27.6-8 13.5-17.3 26.1c-22.4 33.5-89.7 70.3-129.9 89.4"/><path d="m747 620.3c4.3-6.3 9.1-12.2 14.5-17.6 5.3-5.4 11.2-10.3 17.4-14.6 6.3-4.4 12.9-8.1 19.9-11.3 6.9-3.1 14.1-5.6 21.5-7.4q15-3.3 29.6-7.8 14.6-4.5 28.8-10.2 14.3-5.7 28-12.5 13.7-6.8 26.8-14.7c54.6-40.9 62.6 0 61.9 15.7-2 61-86 113.2-156.3 114.5q-8.6-.2-17.1.4-8.6.5-17 2-8.4 1.4-16.7 3.7-8.2 2.2-16.2 5.3z"/></g></svg>