<svg height="400" viewBox="0 0 400 400" width="400" xmlns="http://www.w3.org/2000/svg">
    <path
        d="m170.808 1.717c-.111.111-.202.98-.202 1.93 0 11.548-6.291 22.014-24.403 40.596-18.808 19.297-23.015 26.426-24.85 42.107-1.152 9.853-.457 17.962 3.17 36.983 5.374 28.184 1.678 38.928-23.916 69.514-17.775 21.241-23.291 28.653-29.143 39.16-16.817 30.189-20.474 66.232-9.624 94.859 15.352 40.504 53.056 64.048 112.099 69.997 7.578.763 38.615.951 44.973.271 61.464-6.566 110.23-42.134 124.113-90.522l1.217-4.243v-22.373-22.372l-1.065-3.736c-3.868-13.566-11.318-27.772-20.844-39.745-5.627-7.073-11.17-12.105-23.515-21.345-23.319-17.455-33.055-31.354-43.824-62.571-1.26-3.651-1.52-4.166-2.103-4.166-.538 0-.938-.551-2.093-2.876-1.859-3.746-4.298-6.945-7.986-10.478-4.821-4.616-7.542-6.578-24.989-18.01-19.682-12.898-28.895-23.474-31.362-36.006-.76-3.859-.629-11.871.333-20.5 1.848-16.567.524-23.761-5.51-29.939-3.137-3.212-9.703-7.308-10.476-6.535m82.469 257.683c9.351.827 16.515 3.446 22.902 8.371 6.475 4.992 11.379 12.936 11.386 18.441.004 3.312-.205 3.474-1.54 1.189-4.239-7.255-13.727-14.674-18.765-14.674-2.108 0-2.598.733-.724 1.085.777.145 1.618.739 2.984 2.106 23.973 23.972 1.224 61.21-35.443 58.019-10.421-.907-16.762-4.341-22.648-12.265-21.785-29.324 2.686-65.739 41.848-62.272m-110.614 5.465c29.332 3.188 46.796 27.142 37.508 51.448-.891 2.33-1.279 2.767-.747.839.466-1.686.264-1.59-1.489.709-6.766 8.872-15.672 13.272-28.026 13.846-36.48 1.696-56.598-35.003-31.709-57.845 3.471-3.186 1.204-4.203-2.632-1.18-.812.64-2.159 1.551-2.992 2.025-5.495 3.126-10.047 7.42-13 12.263-1.037 1.7-.77.627.573-2.31 6.391-13.969 23.372-21.875 42.514-19.795"
        fill-rule="evenodd" />
</svg>