<svg height="400.502513" viewBox="0 0 400 400.50251256" width="400" xmlns="http://www.w3.org/2000/svg"><path d="m107.939.907c-.086.223-1.385 2.399-2.888 4.837-32.282 52.373-43.826 121.295-27.61 164.854 6.675 17.927 18.725 38.804 36.986 64.075 34.324 47.503 50.988 95.095 52.9 151.084.219 6.417.282 7.057.765 7.838 1.331 2.155 5.016 4.296 7.848 4.56l1.643.154.146-.725c3.4-16.966 5.135-54.574 3.579-77.609-2.868-42.456-8.2-55.848-34.815-87.437-15.514-18.414-18.99-22.747-29.005-36.155-17.488-23.413-23.879-34.185-28.559-48.142-6.436-19.193-6.31-40.591.385-65.273 1.585-5.845 5.192-16.942 5.542-17.053.829-.263.904.332.385 3.079-7.624 40.389 3.487 81.112 30.706 112.539 2.566 2.962 5.688 6.06 16.423 16.293 14.05 13.394 27.49 27.932 40.336 43.631 4.392 5.368 4.669 5.654 5.485 5.654 2.292 0 1.864-1.634-3.455-13.191-6.272-13.627-12.018-23.758-28.79-50.754-16.328-26.282-19.794-32.201-24.798-42.337-17.113-34.665-25.452-88.471-20.871-134.673.304-3.067.39-4.931.24-5.214-.317-.597-2.352-.624-2.578-.035m76.148 4.788c-.462.463-.025 1.6 1.418 3.691 9.357 13.554 15.849 29.677 18.478 45.89 4.139 25.533 3.785 39.383-1.719 67.21-8.421 42.573-9.324 59.752-4.376 83.167 1.144 5.412 4.474 16.709 4.926 16.709.116 0 .685-1.046 1.265-2.324 4.891-10.787 11.346-20.871 19.879-31.058 7.961-9.503 10.129-12.144 12.199-14.859 2.467-3.238 4.701-6.525 6.263-9.215l1.047-1.803v-11.54c0-64.993-14.628-111.648-42.501-135.553-6.056-5.193-15.952-11.241-16.879-10.315m115.008 50.725c-.089.353-.088 1.196.002 1.874.25 1.882.177 15.752-.103 19.721-1.686 23.881-8.108 45.649-19.793 67.086-2.911 5.34-10.146 15.674-29.55 42.211-25.509 34.885-33.4 48.71-44.172 77.386-11.474 30.544-14.901 64.786-9.652 96.434.757 4.566 1.271 5.278 2.854 3.958.563-.47.565-.5.565-8.015 0-26.131 6.311-52.982 18.11-77.05 15.76-32.149 29.569-52.306 51.639-75.377 25.766-26.933 37.286-57.024 37.286-97.389v-4.746h.599c.651 0 1.728 3.715 2.915 10.05 9.205 49.147-11.21 99.116-64.93 158.919-6.557 7.3-7.454 8.347-9.466 11.059-18.847 25.399-21.138 65.82-6.234 109.951 1.172 3.469 2.389 6.706 2.712 7.214 1.191 1.872 12.161.546 17.385-2.101 1.487-.754 1.47-.455.254-4.36-9.299-29.879-8.095-63.349 3.344-92.946 3.768-9.75 8.179-16.381 25.433-38.239 20.634-26.139 30.055-41.009 37.089-58.542 13.946-34.759 13.297-81.091-1.686-120.478-4.515-11.869-12.259-27.261-13.716-27.261-.567 0-.759.139-.885.641m39.928 119.366c-.086.225.088 2.627.387 5.339s.682 6.231.852 7.82c.504 4.723.412 23.394-.137 27.764-2.846 22.657-9.344 37.443-21.356 48.592-1.548 1.437-4.793 4.45-7.211 6.696-28.033 26.038-40.137 44.649-47.101 72.423-1.745 6.959-2.493 30.829-1.346 42.981.449 4.76.231 4.457 3.39 4.694 9.113.683 18.903-.751 26.812-3.927 3.243-1.303 2.904-.694 3.582-6.435 4.241-35.912 11.89-53.439 35.426-81.175 7.549-8.896 9.35-11.244 12.819-16.713 19.718-31.084 20.019-66.075.857-99.549-4.729-8.26-6.323-10.206-6.974-8.51m-297.147 34.432c-.652.652-.079 1.515 2.142 3.224 3.309 2.547 11.945 11.226 15.077 15.153 13.729 17.213 20.754 34.55 23.435 57.837 6.7 58.182 32.847 95.384 69.146 98.384l2.053.17.208-1.224c.472-2.771.206-19.28-.384-23.837-.82-6.339-1.735-11.486-2.1-11.81-.177-.158-1.414-1.212-2.748-2.343-15.507-13.141-27.509-32.89-32.629-53.691-7.626-30.974-25.729-55.912-52.194-71.896-7.461-4.507-21.23-10.743-22.006-9.967" fill-rule="evenodd"/></svg>