<svg id="svg" xmlns="http://www.w3.org/2000/svg" xmlns:xlink="http://www.w3.org/1999/xlink" width="400" height="400" viewBox="0, 0, 400,400"><g id="svgg"><path id="path0" d="M228.529 0.601 C 227.433 1.696,227.857 18.487,229.009 19.640 C 230.757 21.388,233.183 20.887,234.781 18.448 C 237.816 13.815,231.978 -2.849,228.529 0.601 M253.792 12.597 C 248.134 17.768,245.994 21.761,247.748 23.875 C 250.318 26.970,254.984 23.624,259.792 15.236 C 264.551 6.936,261.469 5.580,253.792 12.597 M226.126 31.234 C 218.209 34.641,217.603 36.960,221.894 47.442 L 224.869 54.709 227.242 52.805 C 230.629 50.088,231.532 46.927,231.532 37.779 C 231.532 28.965,231.497 28.922,226.126 31.234 M235.982 32.486 C 234.322 34.147,233.985 48.415,235.563 50.244 C 236.097 50.863,240.517 39.653,241.048 36.334 C 241.830 31.441,239.101 29.368,235.982 32.486 M257.207 33.981 C 251.081 35.474,250.472 42.342,256.467 42.342 C 259.579 42.342,267.811 39.343,270.081 37.382 L 272.523 35.273 269.986 34.303 C 267.445 33.331,260.585 33.158,257.207 33.981 M209.551 39.547 C 204.185 44.995,204.435 46.396,212.135 54.027 C 218.302 60.140,219.202 60.258,221.300 55.237 C 222.423 52.549,222.424 51.812,221.312 49.716 C 220.605 48.386,218.627 44.583,216.914 41.264 L 213.801 35.232 209.551 39.547 M199.322 47.072 C 192.691 55.382,194.421 60.304,205.595 64.919 C 218.170 70.112,219.596 62.364,207.748 53.223 C 205.011 51.111,202.526 48.610,202.226 47.665 C 201.595 45.676,200.598 45.472,199.322 47.072 M244.690 53.048 C 242.280 55.711,243.289 57.124,249.935 60.396 C 261.664 66.170,266.139 64.072,257.334 56.928 C 250.528 51.406,247.122 50.361,244.690 53.048 M189.736 61.785 C 188.918 63.916,189.103 73.244,189.990 74.644 C 190.787 75.901,210.320 77.887,211.955 76.877 C 212.397 76.604,212.496 75.309,212.174 74.001 C 211.031 69.348,209.173 67.691,202.945 65.767 C 199.605 64.735,195.526 63.097,193.880 62.126 C 190.281 60.002,190.416 60.013,189.736 61.785 M189.640 80.500 C 185.889 83.356,189.790 85.145,199.608 85.071 C 208.962 85.001,211.417 84.004,208.766 81.353 C 206.596 79.183,192.212 78.542,189.640 80.500 M179.272 93.617 C 165.996 95.474,164.545 97.026,164.106 109.845 L 163.775 119.526 173.554 117.914 C 190.546 115.111,224.042 115.967,235.483 119.495 C 237.090 119.991,237.159 119.513,236.764 110.685 C 236.198 98.016,235.831 97.482,225.676 94.548 C 221.401 93.313,186.457 92.612,179.272 93.617 M179.215 124.738 C 83.952 140.377,30.751 236.629,71.140 320.270 C 105.060 390.513,192.231 420.086,263.730 385.608 C 334.924 351.278,363.134 268.293,327.249 198.758 C 300.516 146.957,237.081 115.238,179.215 124.738 M164.556 194.136 C 170.186 195.808,177.758 201.514,190.540 213.718 L 200.449 223.179 211.516 212.544 C 223.257 201.263,231.357 195.229,236.779 193.723 C 262.126 186.682,293.243 211.738,293.243 239.189 C 293.243 255.911,292.466 256.951,242.559 307.056 C 205.617 344.145,201.854 347.365,197.818 345.347 C 193.976 343.426,120.400 269.472,114.611 261.712 C 101.267 243.824,103.307 227.335,121.074 209.482 C 136.666 193.815,148.917 189.492,164.556 194.136 " stroke="none" fill="#000000" fill-rule="evenodd"></path></g></svg>