<svg height="400" viewBox="0 0 400 400" width="400" xmlns="http://www.w3.org/2000/svg"><path d="m228.529.601c-1.096 1.095-.672 17.886.48 19.039 1.748 1.748 4.174 1.247 5.772-1.192 3.035-4.633-2.803-21.297-6.252-17.847m25.263 11.996c-5.658 5.171-7.798 9.164-6.044 11.278 2.57 3.095 7.236-.251 12.044-8.639 4.759-8.3 1.677-9.656-6-2.639m-27.666 18.637c-7.917 3.407-8.523 5.726-4.232 16.208l2.975 7.267 2.373-1.904c3.387-2.717 4.29-5.878 4.29-15.026 0-8.814-.035-8.857-5.406-6.545m9.856 1.252c-1.66 1.661-1.997 15.929-.419 17.758.534.619 4.954-10.591 5.485-13.91.782-4.893-1.947-6.966-5.066-3.848m21.225 1.495c-6.126 1.493-6.735 8.361-.74 8.361 3.112 0 11.344-2.999 13.614-4.96l2.442-2.109-2.537-.97c-2.541-.972-9.401-1.145-12.779-.322m-47.656 5.566c-5.366 5.448-5.116 6.849 2.584 14.48 6.167 6.113 7.067 6.231 9.165 1.21 1.123-2.688 1.124-3.425.012-5.521-.707-1.33-2.685-5.133-4.398-8.452l-3.113-6.032zm-10.229 7.525c-6.631 8.31-4.901 13.232 6.273 17.847 12.575 5.193 14.001-2.555 2.153-11.696-2.737-2.112-5.222-4.613-5.522-5.558-.631-1.989-1.628-2.193-2.904-.593m45.368 5.976c-2.41 2.663-1.401 4.076 5.245 7.348 11.729 5.774 16.204 3.676 7.399-3.468-6.806-5.522-10.212-6.567-12.644-3.88m-54.954 8.737c-.818 2.131-.633 11.459.254 12.859.797 1.257 20.33 3.243 21.965 2.233.442-.273.541-1.568.219-2.876-1.143-4.653-3.001-6.31-9.229-8.234-3.34-1.032-7.419-2.67-9.065-3.641-3.599-2.124-3.464-2.113-4.144-.341m-.096 18.715c-3.751 2.856.15 4.645 9.968 4.571 9.354-.07 11.809-1.067 9.158-3.718-2.17-2.17-16.554-2.811-19.126-.853m-10.368 13.117c-13.276 1.857-14.727 3.409-15.166 16.228l-.331 9.681 9.779-1.612c16.992-2.803 50.488-1.947 61.929 1.581 1.607.496 1.676.018 1.281-8.81-.566-12.669-.933-13.203-11.088-16.137-4.275-1.235-39.219-1.936-46.404-.931m-.057 31.121c-95.263 15.639-148.464 111.891-108.075 195.532 33.92 70.243 121.091 99.816 192.59 65.338 71.194-34.33 99.404-117.315 63.519-186.85-26.733-51.801-90.168-83.52-148.034-74.02m-14.659 69.398c5.63 1.672 13.202 7.378 25.984 19.582l9.909 9.461 11.067-10.635c11.741-11.281 19.841-17.315 25.263-18.821 25.347-7.041 56.464 18.015 56.464 45.466 0 16.722-.777 17.762-50.684 67.867-36.942 37.089-40.705 40.309-44.741 38.291-3.842-1.921-77.418-75.875-83.207-83.635-13.344-17.888-11.304-34.377 6.463-52.23 15.592-15.667 27.843-19.99 43.482-15.346" fill-rule="evenodd"/></svg>