<svg id="svg" xmlns="http://www.w3.org/2000/svg" xmlns:xlink="http://www.w3.org/1999/xlink" width="400" height="400" viewBox="0, 0, 400,400"><g id="svgg"><path id="path0" d="M196.178 106.302 C 196.120 106.351,193.313 106.525,189.939 106.689 C 186.564 106.853,182.810 107.081,181.595 107.195 C 180.380 107.309,177.768 107.529,175.790 107.684 C 173.812 107.838,172.041 108.059,171.855 108.174 C 171.668 108.289,169.974 108.519,168.089 108.685 C 166.205 108.851,164.294 109.100,163.843 109.238 C 162.431 109.670,160.821 109.956,158.305 110.220 C 156.967 110.361,155.622 110.684,155.315 110.939 C 155.008 111.194,154.651 111.297,154.522 111.168 C 154.267 110.913,149.734 111.816,144.931 113.079 C 143.256 113.520,141.710 113.842,141.495 113.795 C 141.280 113.748,140.773 113.842,140.368 114.004 C 139.963 114.166,137.865 114.763,135.706 115.330 C 132.269 116.233,129.074 117.226,126.626 118.152 C 125.865 118.440,125.110 118.665,124.049 118.921 C 123.466 119.062,118.375 120.920,116.810 121.563 C 116.405 121.730,115.783 121.926,115.427 121.999 C 115.072 122.072,113.804 122.590,112.611 123.152 C 111.417 123.713,110.196 124.172,109.897 124.172 C 109.598 124.172,108.768 124.496,108.051 124.893 C 106.829 125.569,103.119 127.215,102.577 127.321 C 102.442 127.348,101.448 127.772,100.368 128.265 C 96.044 130.236,93.980 131.306,93.824 131.656 C 93.734 131.859,93.425 132.025,93.138 132.025 C 92.421 132.025,86.174 135.126,85.971 135.583 C 85.881 135.785,85.505 135.951,85.134 135.951 C 84.764 135.951,83.402 136.572,82.107 137.330 C 80.813 138.089,79.423 138.864,79.018 139.052 C 78.613 139.239,77.399 139.945,76.319 140.620 C 75.239 141.294,73.472 142.319,72.393 142.896 C 71.313 143.474,68.969 144.908,67.184 146.084 C 65.399 147.259,63.789 148.221,63.606 148.221 C 63.294 148.221,60.414 150.125,59.877 150.686 C 59.214 151.380,56.932 152.613,56.925 152.281 C 56.921 152.073,56.755 152.134,56.557 152.419 C 56.359 152.703,55.313 153.467,54.233 154.118 C 53.153 154.768,52.002 155.530,51.673 155.810 C 50.321 156.964,49.724 157.387,47.853 158.517 C 46.773 159.169,45.727 159.935,45.529 160.219 C 45.305 160.541,45.163 160.551,45.153 160.245 C 45.144 159.924,45.014 159.926,44.778 160.252 C 44.579 160.526,43.092 161.630,41.472 162.706 C 39.853 163.782,38.417 164.773,38.282 164.908 C 37.902 165.288,33.366 168.344,33.182 168.344 C 33.092 168.344,32.190 167.685,31.178 166.881 C 29.478 165.530,21.495 160.932,20.368 160.654 C 20.098 160.587,18.944 160.277,17.803 159.964 C 14.379 159.026,13.477 160.786,15.837 163.804 C 16.101 164.141,16.124 164.421,15.888 164.425 C 15.653 164.429,15.681 164.594,15.951 164.793 C 16.221 164.991,16.984 165.926,17.647 166.871 C 19.127 168.981,19.572 169.537,21.004 171.067 C 21.624 171.728,22.008 172.270,21.859 172.270 C 21.709 172.270,22.251 172.965,23.063 173.815 C 25.043 175.887,25.291 175.422,18.680 182.036 C 13.761 186.957,10.798 190.765,10.798 192.165 C 10.798 192.631,16.260 192.048,17.914 191.405 C 18.724 191.090,19.718 190.745,20.123 190.637 C 21.967 190.144,27.264 188.250,27.485 188.004 C 27.620 187.853,28.061 187.654,28.466 187.561 C 29.784 187.258,31.155 186.939,31.656 186.819 C 31.926 186.754,32.628 186.437,33.216 186.113 C 34.535 185.387,35.082 185.816,43.579 194.233 C 46.917 197.540,49.865 200.245,50.129 200.245 C 50.394 200.245,50.483 200.450,50.329 200.701 C 50.174 200.951,50.437 201.282,50.913 201.435 C 51.389 201.588,54.142 203.979,57.030 206.746 C 59.918 209.514,62.900 212.260,63.656 212.847 C 64.412 213.434,65.788 214.593,66.714 215.423 C 67.640 216.253,68.592 216.933,68.829 216.933 C 69.066 216.933,69.150 217.111,69.015 217.329 C 68.881 217.547,69.348 218.154,70.053 218.679 C 70.759 219.203,72.126 220.344,73.091 221.215 C 75.787 223.646,76.127 223.936,79.018 226.275 C 80.503 227.477,82.313 229.013,83.040 229.690 C 83.767 230.367,85.152 231.472,86.119 232.147 C 87.085 232.822,88.434 233.871,89.117 234.479 C 89.799 235.086,90.580 235.583,90.852 235.583 C 91.124 235.583,91.226 235.778,91.078 236.017 C 90.931 236.255,91.467 236.723,92.270 237.055 C 93.073 237.388,93.619 237.839,93.484 238.058 C 93.348 238.278,93.658 238.590,94.171 238.753 C 94.685 238.916,95.661 239.540,96.340 240.138 C 97.018 240.737,98.145 241.669,98.843 242.209 C 99.542 242.748,100.660 243.670,101.329 244.256 C 101.998 244.843,102.994 245.465,103.542 245.639 C 104.091 245.813,104.540 246.140,104.540 246.365 C 104.540 246.590,105.258 247.233,106.135 247.793 C 109.325 249.831,111.656 251.463,112.313 252.121 C 112.683 252.490,113.846 253.232,114.898 253.768 C 115.949 254.305,116.810 254.910,116.810 255.112 C 116.810 255.315,117.804 256.024,119.018 256.687 C 120.233 257.351,121.227 258.023,121.227 258.182 C 121.227 258.340,122.166 258.989,123.313 259.624 C 124.460 260.259,126.038 261.306,126.818 261.950 C 127.599 262.595,129.286 263.653,130.568 264.302 C 131.849 264.952,133.251 265.836,133.682 266.267 C 134.656 267.242,150.611 276.340,151.754 276.574 C 152.213 276.667,153.870 277.397,155.435 278.195 C 159.035 280.030,164.228 282.332,168.344 283.918 C 169.558 284.386,171.104 285.056,171.779 285.407 C 172.454 285.758,173.117 286.042,173.252 286.038 C 173.852 286.021,177.988 287.180,178.666 287.556 C 179.080 287.786,180.074 288.116,180.875 288.289 C 181.676 288.463,182.828 288.712,183.436 288.843 C 184.043 288.973,185.037 289.203,185.644 289.354 C 186.252 289.505,187.080 289.709,187.485 289.807 C 187.890 289.906,188.221 290.020,188.221 290.061 C 188.221 290.225,191.590 290.949,194.080 291.320 C 195.165 291.482,196.176 291.691,196.326 291.784 C 196.477 291.877,198.240 292.095,200.245 292.270 C 202.251 292.444,204.100 292.717,204.356 292.874 C 204.611 293.032,206.496 293.218,208.545 293.287 C 210.594 293.357,212.380 293.453,212.515 293.502 C 213.332 293.800,233.374 293.322,233.374 293.006 C 233.374 292.934,235.050 292.744,239.479 292.315 C 241.217 292.146,243.426 291.806,244.387 291.559 C 256.193 288.526,260.408 287.370,260.613 287.108 C 260.748 286.936,262.074 286.405,263.558 285.928 C 265.043 285.451,267.424 284.530,268.849 283.880 C 270.274 283.231,271.654 282.699,271.916 282.699 C 272.178 282.699,272.393 282.442,272.393 282.127 C 272.393 281.812,272.524 281.686,272.685 281.847 C 272.846 282.007,273.736 281.713,274.663 281.192 C 275.590 280.671,276.673 280.245,277.070 280.245 C 277.467 280.245,277.791 280.058,277.791 279.829 C 277.791 279.600,278.620 279.061,279.632 278.632 C 282.846 277.268,291.459 272.138,292.140 271.182 C 292.338 270.903,292.504 270.849,292.508 271.062 C 292.516 271.463,293.256 270.939,295.232 269.132 C 295.864 268.553,296.506 268.203,296.657 268.355 C 296.809 268.506,296.933 268.387,296.933 268.090 C 296.933 267.794,297.350 267.418,297.859 267.257 C 298.369 267.095,299.339 266.450,300.014 265.824 C 300.690 265.198,302.095 264.163,303.136 263.524 C 305.290 262.204,305.823 261.801,307.508 260.223 C 308.170 259.603,308.715 259.272,308.719 259.487 C 308.723 259.702,308.889 259.643,309.087 259.357 C 309.286 259.070,310.883 257.979,312.638 256.933 C 314.393 255.886,315.939 254.884,316.074 254.707 C 316.343 254.353,316.985 254.008,323.228 250.868 C 325.566 249.692,327.729 248.682,328.034 248.622 C 328.339 248.562,329.472 248.269,330.552 247.970 C 334.158 246.970,339.825 246.244,345.276 246.083 C 348.245 245.995,350.785 245.890,350.920 245.848 C 351.055 245.807,351.387 245.820,351.656 245.876 C 351.926 245.933,354.245 246.073,356.810 246.188 C 361.269 246.388,365.399 246.726,365.399 246.891 C 365.399 246.934,365.951 247.027,366.626 247.098 C 370.197 247.474,374.349 247.979,375.215 248.142 C 375.755 248.244,376.748 248.441,377.423 248.581 C 378.098 248.721,379.949 248.957,381.536 249.107 C 383.123 249.256,385.375 249.557,386.540 249.774 C 389.000 250.234,389.502 249.683,388.457 247.668 C 388.089 246.960,387.891 246.380,388.016 246.380 C 388.238 246.380,386.781 243.925,386.269 243.436 C 386.128 243.301,385.357 241.920,384.557 240.368 C 383.757 238.816,382.929 237.546,382.717 237.546 C 382.505 237.546,382.331 237.346,382.331 237.101 C 382.331 236.559,377.386 229.102,376.692 228.596 C 376.419 228.398,376.396 228.233,376.640 228.228 C 376.883 228.224,376.607 227.808,376.026 227.304 C 375.445 226.800,374.969 226.193,374.969 225.955 C 374.968 225.716,374.421 224.859,373.751 224.049 C 372.051 221.991,371.876 221.758,370.950 220.314 C 370.499 219.610,369.838 218.725,369.482 218.348 C 369.126 217.971,367.952 216.338,366.874 214.721 C 365.795 213.103,364.691 211.530,364.420 211.226 C 364.148 210.921,363.595 210.178,363.190 209.574 C 362.785 208.970,362.016 207.894,361.480 207.182 C 360.326 205.651,360.456 205.825,357.220 201.472 C 355.814 199.583,354.230 197.650,353.699 197.178 C 353.168 196.706,352.888 196.319,353.076 196.319 C 353.265 196.319,352.912 195.797,352.292 195.160 C 351.673 194.522,350.834 193.508,350.429 192.907 C 349.706 191.833,348.907 190.909,344.041 185.521 C 342.700 184.037,340.923 182.049,340.093 181.104 C 336.259 176.743,331.701 171.891,328.193 168.436 C 321.749 162.091,314.256 154.900,313.009 153.865 C 310.285 151.604,306.490 148.399,305.454 147.485 C 304.842 146.945,303.773 146.061,303.079 145.521 C 302.384 144.982,301.457 144.214,301.017 143.817 C 300.578 143.419,298.872 142.043,297.226 140.758 C 295.580 139.474,293.902 138.108,293.497 137.722 C 293.092 137.337,292.153 136.745,291.411 136.408 C 290.669 136.070,290.061 135.612,290.061 135.391 C 290.061 135.170,289.233 134.565,288.221 134.046 C 287.209 133.527,285.828 132.617,285.153 132.024 C 284.479 131.431,282.902 130.424,281.649 129.787 C 280.397 129.149,279.016 128.271,278.581 127.836 C 277.636 126.891,268.598 121.718,267.891 121.718 C 267.620 121.718,265.983 120.926,264.252 119.958 C 262.521 118.990,261.104 118.329,261.104 118.490 C 261.104 118.650,259.890 118.096,258.405 117.258 C 256.920 116.420,255.706 115.871,255.706 116.038 C 255.706 116.205,255.209 116.032,254.601 115.653 C 253.594 115.024,250.978 114.209,250.677 114.430 C 250.608 114.480,250.000 114.219,249.325 113.849 C 248.650 113.479,247.877 113.120,247.607 113.053 C 247.337 112.985,245.515 112.499,243.558 111.974 C 241.601 111.448,240.000 111.134,240.000 111.275 C 240.000 111.416,239.724 111.309,239.387 111.037 C 239.049 110.765,238.110 110.403,237.301 110.232 C 236.491 110.062,235.331 109.815,234.724 109.685 C 234.117 109.555,233.233 109.366,232.761 109.266 C 231.690 109.038,227.289 108.328,226.135 108.196 C 225.663 108.142,225.221 108.049,225.153 107.988 C 225.086 107.928,224.479 107.818,223.804 107.744 C 223.129 107.670,221.693 107.482,220.613 107.327 C 215.664 106.616,196.741 105.822,196.178 106.302 M170.307 136.469 C 170.307 136.664,169.483 136.978,168.475 137.167 C 167.468 137.356,166.198 137.759,165.653 138.063 C 165.108 138.367,164.552 138.627,164.417 138.640 C 163.747 138.708,158.248 141.092,158.027 141.411 C 157.886 141.614,157.224 142.025,156.554 142.326 C 154.632 143.190,152.415 144.416,152.147 144.764 C 152.012 144.939,151.044 145.604,149.996 146.241 C 148.948 146.879,147.402 148.039,146.560 148.819 C 143.315 151.829,141.558 153.606,140.613 154.835 C 140.074 155.537,139.280 156.490,138.849 156.952 C 137.854 158.018,133.459 165.863,133.240 166.962 C 133.149 167.417,132.831 168.245,132.532 168.803 C 132.234 169.360,132.135 169.816,132.313 169.816 C 132.490 169.816,132.380 170.124,132.067 170.500 C 131.755 170.877,131.542 171.374,131.593 171.605 C 131.645 171.836,131.446 172.577,131.151 173.252 C 130.765 174.135,130.606 174.238,130.583 173.620 C 130.566 173.147,130.360 172.761,130.125 172.761 C 129.890 172.761,129.420 171.767,129.080 170.552 C 128.740 169.337,128.306 168.344,128.116 168.344 C 127.926 168.344,127.751 168.067,127.726 167.730 C 127.701 167.393,127.564 166.564,127.421 165.890 C 127.278 165.215,127.055 164.053,126.925 163.309 C 126.294 159.687,124.552 158.335,124.880 161.722 C 124.972 162.669,124.875 163.550,124.664 163.680 C 124.305 163.902,124.339 165.569,124.875 174.008 C 125.114 177.769,126.427 184.200,127.274 185.767 C 127.818 186.771,128.115 187.746,128.209 188.834 C 128.238 189.172,128.410 189.448,128.592 189.448 C 128.774 189.448,129.214 190.331,129.571 191.411 C 129.927 192.491,130.404 193.374,130.631 193.374 C 130.857 193.374,131.043 193.690,131.043 194.075 C 131.043 194.461,131.322 195.068,131.662 195.425 C 132.003 195.782,132.554 196.689,132.887 197.442 C 133.220 198.194,133.714 199.078,133.984 199.405 C 134.254 199.732,135.498 201.393,136.748 203.096 C 139.188 206.418,145.534 212.998,149.383 216.196 C 150.683 217.276,152.303 218.649,152.983 219.248 C 153.663 219.847,154.640 220.470,155.154 220.633 C 155.668 220.796,155.977 221.109,155.842 221.328 C 155.706 221.547,156.207 221.980,156.955 222.290 C 157.702 222.599,158.969 223.419,159.771 224.112 C 160.572 224.804,162.110 225.816,163.190 226.360 C 164.270 226.905,165.595 227.752,166.135 228.244 C 167.332 229.335,176.567 234.601,177.282 234.601 C 177.564 234.601,178.981 235.280,180.431 236.110 C 181.881 236.939,183.067 237.470,183.067 237.288 C 183.067 237.107,183.792 237.386,184.677 237.908 C 185.562 238.430,186.943 239.039,187.745 239.260 C 188.546 239.482,189.423 239.724,189.693 239.800 C 189.963 239.875,191.730 240.405,193.620 240.978 C 195.509 241.551,197.552 242.117,198.160 242.237 C 202.178 243.027,203.436 243.313,203.436 243.436 C 203.436 244.426,223.426 245.041,230.675 244.273 C 235.976 243.712,242.767 242.013,246.871 240.221 C 247.006 240.162,247.647 239.943,248.296 239.734 C 250.805 238.928,259.482 233.962,260.238 232.900 C 260.436 232.621,260.602 232.567,260.606 232.780 C 260.615 233.251,261.420 232.602,264.534 229.615 C 265.845 228.357,267.046 227.455,267.201 227.610 C 267.357 227.766,267.485 227.645,267.485 227.340 C 267.485 227.036,267.881 226.392,268.366 225.909 C 271.907 222.381,277.438 213.429,278.764 209.080 C 279.135 207.865,279.558 206.650,279.705 206.380 C 279.852 206.110,280.021 205.669,280.080 205.399 C 280.140 205.129,280.329 204.356,280.502 203.681 C 280.674 203.006,280.834 202.149,280.857 201.776 C 280.910 200.931,282.209 202.577,282.209 203.488 C 282.209 203.819,282.390 204.164,282.612 204.254 C 283.037 204.426,285.416 211.633,285.947 214.356 C 286.212 215.718,287.534 216.673,287.645 215.583 C 287.666 215.380,287.793 214.773,287.927 214.233 C 289.186 209.182,286.826 191.007,284.709 189.448 C 284.526 189.313,284.074 188.264,283.705 187.117 C 283.335 185.969,282.848 185.031,282.621 185.031 C 282.394 185.031,282.209 184.715,282.209 184.330 C 282.209 183.944,281.822 183.242,281.350 182.770 C 280.877 182.297,280.516 181.784,280.547 181.630 C 280.667 181.031,279.571 179.141,279.103 179.141 C 278.832 179.141,278.738 179.013,278.895 178.856 C 279.558 178.193,281.462 179.701,288.395 186.380 C 290.427 188.337,292.332 189.939,292.629 189.939 C 292.926 189.939,293.041 190.067,292.883 190.225 C 292.726 190.382,293.407 191.337,294.397 192.346 C 295.387 193.355,297.080 195.218,298.160 196.486 C 299.239 197.755,301.337 200.082,302.822 201.658 C 304.307 203.234,306.003 205.162,306.592 205.943 C 307.180 206.723,308.449 208.245,309.411 209.325 C 310.373 210.405,311.382 211.555,311.653 211.881 C 312.236 212.580,312.311 213.550,311.769 213.374 C 311.248 213.205,307.140 215.057,306.345 215.820 C 305.989 216.162,305.381 216.442,304.996 216.442 C 304.610 216.442,304.294 216.663,304.294 216.933 C 304.294 217.202,304.117 217.368,303.900 217.301 C 303.526 217.184,299.908 218.860,299.387 219.391 C 299.252 219.528,297.706 220.507,295.951 221.566 C 294.196 222.625,292.650 223.617,292.515 223.771 C 292.059 224.289,287.581 227.239,287.251 227.239 C 286.924 227.239,283.164 229.692,282.699 230.209 C 282.564 230.359,281.571 231.013,280.491 231.664 C 279.411 232.314,278.236 233.131,277.879 233.479 C 277.522 233.826,276.949 234.110,276.604 234.110 C 276.260 234.110,275.448 234.548,274.799 235.083 C 274.150 235.618,273.388 236.247,273.105 236.482 C 271.951 237.440,258.780 244.908,258.246 244.908 C 257.928 244.908,257.669 245.125,257.669 245.389 C 257.669 245.654,257.061 246.020,256.319 246.201 C 255.577 246.383,254.859 246.663,254.724 246.824 C 254.502 247.089,250.897 248.928,250.307 249.077 C 250.172 249.111,249.191 249.519,248.127 249.983 C 247.063 250.447,245.682 250.954,245.059 251.110 C 244.436 251.267,243.926 251.592,243.926 251.832 C 243.926 252.073,243.632 252.270,243.272 252.270 C 242.912 252.270,240.538 252.947,237.996 253.775 C 235.454 254.603,232.988 255.376,232.515 255.493 C 232.043 255.610,231.160 255.829,230.552 255.980 C 229.945 256.130,229.117 256.334,228.712 256.433 C 228.307 256.531,227.975 256.647,227.975 256.689 C 227.975 256.732,227.423 256.825,226.748 256.895 C 224.677 257.112,221.143 257.738,220.801 257.950 C 220.486 258.144,216.067 258.635,212.465 258.876 C 211.493 258.941,210.499 259.106,210.256 259.243 C 209.657 259.582,192.752 259.362,189.693 258.975 C 188.344 258.805,185.945 258.550,184.363 258.408 C 182.782 258.267,181.342 258.061,181.163 257.950 C 180.984 257.840,179.849 257.598,178.640 257.412 C 176.147 257.029,174.969 256.797,174.969 256.687 C 174.969 256.605,174.145 256.392,172.270 255.992 C 167.934 255.065,166.051 254.528,165.446 254.046 C 165.067 253.744,164.625 253.546,164.464 253.606 C 164.303 253.665,163.399 253.506,162.454 253.252 C 161.509 252.997,160.515 252.767,160.245 252.739 C 159.975 252.712,158.982 252.211,158.037 251.627 C 157.092 251.044,156.254 250.641,156.175 250.733 C 155.932 251.014,151.102 249.069,147.572 247.268 C 146.540 246.741,145.276 246.229,144.762 246.130 C 144.248 246.031,142.485 245.164,140.844 244.202 C 139.204 243.241,137.612 242.454,137.307 242.454 C 136.568 242.454,120.046 233.109,119.838 232.573 C 119.749 232.344,117.816 231.142,115.543 229.903 C 113.271 228.664,111.411 227.499,111.411 227.313 C 111.411 227.127,110.086 226.247,108.466 225.356 C 106.847 224.466,105.521 223.572,105.521 223.371 C 105.521 223.169,104.748 222.635,103.804 222.185 C 102.859 221.734,102.086 221.192,102.086 220.979 C 102.086 220.767,101.092 220.050,99.877 219.387 C 98.663 218.723,97.669 218.013,97.669 217.810 C 97.669 217.606,96.620 216.897,95.337 216.234 C 94.055 215.571,92.166 214.242,91.138 213.281 C 90.111 212.320,89.117 211.533,88.930 211.533 C 88.742 211.533,87.926 210.960,87.117 210.260 C 86.307 209.560,85.025 208.665,84.268 208.271 C 83.512 207.877,82.489 207.180,81.995 206.722 C 81.502 206.264,80.522 205.448,79.818 204.908 C 79.114 204.368,78.004 203.485,77.353 202.945 C 76.702 202.405,75.597 201.521,74.899 200.982 C 74.201 200.442,73.104 199.558,72.461 199.018 C 71.819 198.479,70.698 197.609,69.971 197.086 C 69.244 196.563,68.251 195.790,67.764 195.368 C 67.278 194.946,66.158 194.049,65.276 193.374 C 62.738 191.432,59.106 188.357,55.810 185.359 C 54.673 184.325,52.693 182.679,51.411 181.700 C 48.849 179.745,48.586 179.178,50.061 178.793 C 50.601 178.651,51.043 178.341,51.043 178.102 C 51.043 177.864,51.209 177.704,51.411 177.748 C 51.613 177.792,52.387 177.576,53.130 177.269 C 56.485 175.882,63.621 172.632,65.821 171.489 C 66.525 171.123,67.243 170.965,67.416 171.138 C 67.589 171.311,67.730 171.194,67.730 170.879 C 67.730 170.564,68.040 170.307,68.420 170.307 C 68.799 170.307,69.959 169.879,70.997 169.357 C 75.698 166.990,78.168 165.890,78.778 165.890 C 79.142 165.890,79.786 165.543,80.210 165.118 C 80.635 164.694,80.982 164.461,80.982 164.600 C 80.982 164.884,83.959 163.646,89.080 161.235 C 90.969 160.345,93.344 159.327,94.356 158.974 C 95.368 158.620,96.196 158.191,96.196 158.020 C 96.196 157.849,96.528 157.673,96.933 157.628 C 97.337 157.583,98.000 157.509,98.405 157.464 C 98.810 157.419,99.141 157.234,99.141 157.052 C 99.141 156.870,100.080 156.426,101.227 156.064 C 102.374 155.702,103.534 155.244,103.804 155.045 C 104.074 154.847,105.730 154.195,107.485 153.596 C 109.239 152.998,110.896 152.350,111.166 152.156 C 111.436 151.963,113.313 151.280,115.337 150.639 C 117.362 149.997,119.129 149.323,119.264 149.139 C 119.399 148.956,120.724 148.466,122.209 148.049 C 129.325 146.055,133.787 144.665,134.233 144.303 C 134.503 144.085,136.491 143.460,138.650 142.914 C 140.810 142.369,144.862 141.336,147.654 140.620 C 150.447 139.903,152.856 139.441,153.008 139.593 C 153.160 139.745,153.542 139.654,153.858 139.392 C 154.174 139.130,155.851 138.692,157.584 138.418 C 162.335 137.667,168.457 136.491,168.657 136.292 C 168.982 135.967,170.307 136.109,170.307 136.469 M203.987 146.444 C 205.370 146.537,206.695 146.729,206.932 146.869 C 207.168 147.009,208.466 147.259,209.816 147.423 C 211.166 147.588,212.822 147.848,213.497 148.001 C 214.172 148.154,215.387 148.397,216.196 148.541 C 217.006 148.686,217.922 149.012,218.231 149.266 C 218.540 149.520,218.981 149.673,219.212 149.606 C 219.443 149.539,220.129 149.760,220.736 150.097 C 221.344 150.434,221.840 150.578,221.840 150.418 C 221.840 150.258,222.890 150.678,224.172 151.350 C 225.454 152.023,227.171 152.815,227.988 153.110 C 228.805 153.406,230.241 154.303,231.178 155.105 C 232.116 155.906,233.075 156.563,233.309 156.563 C 235.296 156.569,242.184 166.142,244.023 171.454 C 244.994 174.261,245.622 182.114,244.970 183.308 C 244.824 183.575,244.645 184.514,244.573 185.395 C 244.501 186.275,244.105 187.647,243.693 188.443 C 243.282 189.239,242.945 190.245,242.945 190.679 C 242.945 191.114,242.740 191.342,242.489 191.187 C 242.239 191.033,241.879 191.393,241.690 191.989 C 241.140 193.722,234.692 199.682,231.902 201.035 C 231.092 201.428,229.767 202.177,228.957 202.699 C 227.259 203.795,224.374 205.153,223.744 205.153 C 223.507 205.153,223.313 205.411,223.313 205.726 C 223.313 206.041,223.165 206.151,222.984 205.970 C 222.803 205.789,222.121 205.990,221.469 206.418 C 219.487 207.716,219.692 206.945,222.770 201.523 C 224.396 198.661,225.620 196.319,225.491 196.319 C 225.362 196.319,225.735 195.380,226.320 194.233 C 226.906 193.086,227.380 192.037,227.374 191.902 C 227.369 191.767,227.449 191.435,227.553 191.164 C 228.848 187.791,229.311 178.276,228.246 176.944 C 228.024 176.668,227.690 175.724,227.502 174.847 C 227.315 173.969,226.958 173.252,226.709 173.252 C 226.461 173.252,226.305 173.086,226.362 172.883 C 226.550 172.219,225.157 170.090,223.509 168.523 C 222.619 167.677,221.997 166.878,222.127 166.748 C 222.257 166.619,221.693 166.235,220.875 165.896 C 220.056 165.557,219.387 165.107,219.387 164.895 C 219.387 164.072,213.679 161.295,211.288 160.955 C 211.018 160.916,210.356 160.638,209.816 160.337 C 209.276 160.036,208.724 159.766,208.589 159.738 C 208.454 159.710,207.421 159.421,206.292 159.097 C 205.164 158.773,203.287 158.383,202.121 158.229 C 200.954 158.076,199.227 157.793,198.282 157.601 C 196.290 157.197,184.014 157.289,181.840 157.725 C 181.031 157.888,179.650 158.230,178.773 158.485 C 177.896 158.741,177.178 158.866,177.178 158.764 C 177.178 158.661,176.406 158.900,175.462 159.294 C 174.519 159.689,173.691 159.985,173.622 159.954 C 173.222 159.769,169.316 161.090,169.067 161.494 C 168.902 161.761,168.561 161.852,168.310 161.697 C 168.058 161.542,167.853 161.633,167.853 161.901 C 167.853 162.169,167.366 162.542,166.771 162.731 C 166.177 162.920,165.431 163.321,165.114 163.623 C 164.797 163.925,164.032 164.503,163.415 164.908 C 161.797 165.969,158.968 168.808,157.283 171.060 C 156.483 172.131,155.543 173.307,155.195 173.674 C 154.348 174.568,152.047 179.141,152.444 179.141 C 152.617 179.141,152.512 179.437,152.212 179.800 C 151.117 181.119,149.090 188.465,149.030 191.331 C 149.008 192.378,148.952 192.404,148.384 191.627 C 148.042 191.159,147.878 190.587,148.020 190.357 C 148.162 190.127,148.076 189.939,147.829 189.939 C 147.581 189.939,146.866 188.029,146.238 185.695 C 143.570 175.765,145.676 167.133,152.393 160.472 C 154.612 158.271,155.204 157.774,156.810 156.766 C 157.620 156.257,158.574 155.562,158.931 155.221 C 159.287 154.880,159.895 154.601,160.280 154.601 C 160.666 154.601,160.982 154.367,160.982 154.081 C 160.982 153.796,161.184 153.687,161.430 153.839 C 161.677 153.992,161.953 153.950,162.044 153.745 C 162.468 152.789,167.103 150.914,173.988 148.913 C 177.838 147.794,178.033 147.751,180.556 147.463 C 181.739 147.327,182.925 147.082,183.190 146.918 C 183.455 146.754,186.352 146.514,189.628 146.384 C 192.903 146.255,195.657 146.081,195.747 145.998 C 195.837 145.915,197.163 145.943,198.692 146.060 C 200.221 146.177,202.604 146.350,203.987 146.444 M190.731 171.656 C 190.700 172.129,189.824 174.027,188.784 175.875 C 187.744 177.723,186.849 179.490,186.794 179.802 C 186.740 180.113,186.355 181.031,185.940 181.840 C 185.525 182.650,184.690 184.969,184.085 186.994 C 183.479 189.018,182.818 191.117,182.615 191.656 C 181.571 194.433,183.089 203.637,184.907 205.557 C 185.245 205.913,185.521 206.366,185.521 206.562 C 185.521 206.885,188.598 210.114,190.429 211.713 C 192.554 213.569,200.684 217.358,204.417 218.232 C 206.445 218.707,206.871 218.823,206.871 218.896 C 206.871 218.991,207.933 219.254,209.816 219.625 C 210.626 219.785,211.730 220.051,212.270 220.217 C 213.833 220.697,226.262 220.758,226.553 220.287 C 226.698 220.053,227.010 219.981,227.246 220.127 C 227.482 220.273,229.264 220.061,231.206 219.657 C 233.147 219.252,234.911 219.029,235.125 219.162 C 235.340 219.294,235.635 219.208,235.782 218.971 C 235.928 218.734,237.048 218.260,238.270 217.918 C 239.491 217.576,240.491 217.091,240.491 216.840 C 240.491 216.589,240.685 216.504,240.923 216.651 C 241.161 216.798,242.100 216.425,243.009 215.821 C 243.919 215.218,245.264 214.414,245.999 214.034 C 246.735 213.655,248.115 212.632,249.067 211.760 C 250.019 210.888,250.798 210.275,250.798 210.398 C 250.798 210.592,251.653 209.698,254.875 206.135 C 256.193 204.677,260.518 196.527,260.865 194.847 C 261.060 193.902,261.353 192.908,261.516 192.638 C 261.678 192.368,261.857 191.706,261.912 191.166 C 261.967 190.626,262.156 189.521,262.330 188.712 C 262.505 187.902,262.679 186.853,262.717 186.380 C 262.886 184.259,265.698 191.155,265.968 194.356 C 266.645 202.369,265.824 207.397,263.084 212.025 C 261.418 214.836,255.261 221.113,253.674 221.617 C 253.172 221.776,252.761 222.113,252.761 222.364 C 252.761 222.616,252.445 222.822,252.060 222.822 C 251.674 222.822,251.019 223.161,250.605 223.576 C 250.190 223.990,249.677 224.337,249.465 224.347 C 249.253 224.357,248.362 224.680,247.485 225.066 C 246.607 225.451,245.172 226.078,244.294 226.457 C 234.264 230.799,216.181 232.502,202.105 230.431 C 199.374 230.029,198.037 229.787,198.037 229.693 C 198.037 229.652,197.595 229.517,197.055 229.392 C 196.515 229.268,195.853 229.101,195.583 229.022 C 192.421 228.089,190.666 227.657,190.628 227.801 C 190.602 227.897,190.238 227.691,189.819 227.343 C 189.400 226.996,188.621 226.627,188.089 226.525 C 183.553 225.651,174.033 218.189,170.846 213.009 C 166.819 206.465,165.324 194.663,167.910 189.833 C 168.167 189.351,168.251 188.957,168.095 188.957 C 167.721 188.957,170.265 184.531,171.254 183.459 C 171.678 183.000,172.271 182.337,172.572 181.987 C 172.873 181.636,173.621 181.018,174.233 180.613 C 174.845 180.209,175.703 179.533,176.139 179.112 C 176.576 178.692,178.147 177.595,179.632 176.674 C 181.117 175.754,182.494 174.773,182.692 174.495 C 182.890 174.216,183.056 174.154,183.060 174.357 C 183.064 174.560,183.892 174.284,184.901 173.743 C 185.909 173.203,187.013 172.761,187.355 172.761 C 187.696 172.761,187.975 172.583,187.975 172.365 C 187.975 172.147,188.583 171.729,189.325 171.435 C 190.067 171.142,190.700 170.878,190.731 170.850 C 190.761 170.821,190.761 171.184,190.731 171.656 M214.862 176.367 C 216.835 180.211,217.712 186.945,216.349 187.788 C 216.121 187.928,216.068 188.259,216.231 188.522 C 216.393 188.785,216.305 189.266,216.035 189.592 C 215.765 189.918,215.548 190.359,215.553 190.573 C 215.583 191.865,211.969 199.287,211.462 198.974 C 211.271 198.856,210.972 199.204,210.800 199.747 C 210.627 200.291,210.314 200.736,210.103 200.736 C 209.893 200.736,209.211 201.178,208.589 201.718 C 207.966 202.258,207.160 202.699,206.796 202.699 C 206.432 202.699,206.135 202.957,206.135 203.272 C 206.135 203.587,205.990 203.699,205.812 203.522 C 205.634 203.344,205.192 203.446,204.828 203.747 C 203.837 204.569,199.922 204.326,198.250 203.338 C 195.786 201.883,194.650 195.993,195.808 190.675 C 196.568 187.184,196.724 186.629,197.211 185.700 C 197.475 185.197,198.077 183.849,198.549 182.705 C 199.822 179.621,204.570 174.878,206.803 174.459 C 207.791 174.274,208.702 173.957,208.827 173.755 C 209.579 172.537,213.843 174.382,214.862 176.367 " stroke="none" fill="#000000" fill-rule="evenodd"></path></g></svg>