<svg height="400" viewBox="0 0 400 400" width="400" xmlns="http://www.w3.org/2000/svg"><path d="m196.178 106.302c-.058.049-2.865.223-6.239.387-3.375.164-7.129.392-8.344.506s-3.827.334-5.805.489c-1.978.154-3.749.375-3.935.49-.187.115-1.881.345-3.766.511-1.884.166-3.795.415-4.246.553-1.412.432-3.022.718-5.538.982-1.338.141-2.683.464-2.99.719s-.664.358-.793.229c-.255-.255-4.788.648-9.591 1.911-1.675.441-3.221.763-3.436.716s-.722.047-1.127.209-2.503.759-4.662 1.326c-3.437.903-6.632 1.896-9.08 2.822-.761.288-1.516.513-2.577.769-.583.141-5.674 1.999-7.239 2.642-.405.167-1.027.363-1.383.436-.355.073-1.623.591-2.816 1.153-1.194.561-2.415 1.02-2.714 1.02s-1.129.324-1.846.721c-1.222.676-4.932 2.322-5.474 2.428-.135.027-1.129.451-2.209.944-4.324 1.971-6.388 3.041-6.544 3.391-.09.203-.399.369-.686.369-.717 0-6.964 3.101-7.167 3.558-.09.202-.466.368-.837.368-.37 0-1.732.621-3.027 1.379-1.294.759-2.684 1.534-3.089 1.722-.405.187-1.619.893-2.699 1.568-1.08.674-2.847 1.699-3.926 2.276-1.08.578-3.424 2.012-5.209 3.188-1.785 1.175-3.395 2.137-3.578 2.137-.312 0-3.192 1.904-3.729 2.465-.663.694-2.945 1.927-2.952 1.595-.004-.208-.17-.147-.368.138-.198.284-1.244 1.048-2.324 1.699-1.08.65-2.231 1.412-2.56 1.692-1.352 1.154-1.949 1.577-3.82 2.707-1.08.652-2.126 1.418-2.324 1.702-.224.322-.366.332-.376.026-.009-.321-.139-.319-.375.007-.199.274-1.686 1.378-3.306 2.454-1.619 1.076-3.055 2.067-3.19 2.202-.38.38-4.916 3.436-5.1 3.436-.09 0-.992-.659-2.004-1.463-1.7-1.351-9.683-5.949-10.81-6.227-.27-.067-1.424-.377-2.565-.69-3.424-.938-4.326.822-1.966 3.84.264.337.287.617.051.621-.235.004-.207.169.063.368.27.198 1.033 1.133 1.696 2.078 1.48 2.11 1.925 2.666 3.357 4.196.62.661 1.004 1.203.855 1.203-.15 0 .392.695 1.204 1.545 1.98 2.072 2.228 1.607-4.383 8.221-4.919 4.921-7.882 8.729-7.882 10.129 0 .466 5.462-.117 7.116-.76.81-.315 1.804-.66 2.209-.768 1.844-.493 7.141-2.387 7.362-2.633.135-.151.576-.35.981-.443 1.318-.303 2.689-.622 3.19-.742.27-.065.972-.382 1.56-.706 1.319-.726 1.866-.297 10.363 8.12 3.338 3.307 6.286 6.012 6.55 6.012.265 0 .354.205.2.456-.155.25.108.581.584.734s3.229 2.544 6.117 5.311c2.888 2.768 5.87 5.514 6.626 6.101s2.132 1.746 3.058 2.576 1.878 1.51 2.115 1.51.321.178.186.396c-.134.218.333.825 1.038 1.35.706.524 2.073 1.665 3.038 2.536 2.696 2.431 3.036 2.721 5.927 5.06 1.485 1.202 3.295 2.738 4.022 3.415s2.112 1.782 3.079 2.457c.966.675 2.315 1.724 2.998 2.332.682.607 1.463 1.104 1.735 1.104s.374.195.226.434c-.147.238.389.706 1.192 1.038.803.333 1.349.784 1.214 1.003-.136.22.174.532.687.695.514.163 1.49.787 2.169 1.385.678.599 1.805 1.531 2.503 2.071.699.539 1.817 1.461 2.486 2.047.669.587 1.665 1.209 2.213 1.383.549.174.998.501.998.726s.718.868 1.595 1.428c3.19 2.038 5.521 3.67 6.178 4.328.37.369 1.533 1.111 2.585 1.647 1.051.537 1.912 1.142 1.912 1.344 0 .203.994.912 2.208 1.575 1.215.664 2.209 1.336 2.209 1.495 0 .158.939.807 2.086 1.442s2.725 1.682 3.505 2.326c.781.645 2.468 1.703 3.75 2.352 1.281.65 2.683 1.534 3.114 1.965.974.975 16.929 10.073 18.072 10.307.459.093 2.116.823 3.681 1.621 3.6 1.835 8.793 4.137 12.909 5.723 1.214.468 2.76 1.138 3.435 1.489s1.338.635 1.473.631c.6-.017 4.736 1.142 5.414 1.518.414.23 1.408.56 2.209.733.801.174 1.953.423 2.561.554.607.13 1.601.36 2.208.511.608.151 1.436.355 1.841.453.405.099.736.213.736.254 0 .164 3.369.888 5.859 1.259 1.085.162 2.096.371 2.246.464.151.093 1.914.311 3.919.486 2.006.174 3.855.447 4.111.604.255.158 2.14.344 4.189.413 2.049.07 3.835.166 3.97.215.817.298 20.859-.18 20.859-.496 0-.072 1.676-.262 6.105-.691 1.738-.169 3.947-.509 4.908-.756 11.806-3.033 16.021-4.189 16.226-4.451.135-.172 1.461-.703 2.945-1.18 1.485-.477 3.866-1.398 5.291-2.048 1.425-.649 2.805-1.181 3.067-1.181s.477-.257.477-.572.131-.441.292-.28c.161.16 1.051-.134 1.978-.655s2.01-.947 2.407-.947.721-.187.721-.416.829-.768 1.841-1.197c3.214-1.364 11.827-6.494 12.508-7.45.198-.279.364-.333.368-.12.008.401.748-.123 2.724-1.93.632-.579 1.274-.929 1.425-.777.152.151.276.032.276-.265 0-.296.417-.672.926-.833.51-.162 1.48-.807 2.155-1.433.676-.626 2.081-1.661 3.122-2.3 2.154-1.32 2.687-1.723 4.372-3.301.662-.62 1.207-.951 1.211-.736s.17.156.368-.13c.199-.287 1.796-1.378 3.551-2.424 1.755-1.047 3.301-2.049 3.436-2.226.269-.354.911-.699 7.154-3.839 2.338-1.176 4.501-2.186 4.806-2.246s1.438-.353 2.518-.652c3.606-1 9.273-1.726 14.724-1.887 2.969-.088 5.509-.193 5.644-.235.135-.041.467-.028.736.028.27.057 2.589.197 5.154.312 4.459.2 8.589.538 8.589.703 0 .043.552.136 1.227.207 3.571.376 7.723.881 8.589 1.044.54.102 1.533.299 2.208.439s2.526.376 4.113.526c1.587.149 3.839.45 5.004.667 2.46.46 2.962-.091 1.917-2.106-.368-.708-.566-1.288-.441-1.288.222 0-1.235-2.455-1.747-2.944-.141-.135-.912-1.516-1.712-3.068s-1.628-2.822-1.84-2.822-.386-.2-.386-.445c0-.542-4.945-7.999-5.639-8.505-.273-.198-.296-.363-.052-.368.243-.004-.033-.42-.614-.924s-1.057-1.111-1.057-1.349c-.001-.239-.548-1.096-1.218-1.906-1.7-2.058-1.875-2.291-2.801-3.735-.451-.704-1.112-1.589-1.468-1.966s-1.53-2.01-2.608-3.627c-1.079-1.618-2.183-3.191-2.454-3.495-.272-.305-.825-1.048-1.23-1.652s-1.174-1.68-1.71-2.392c-1.154-1.531-1.024-1.357-4.26-5.71-1.406-1.889-2.99-3.822-3.521-4.294s-.811-.859-.623-.859c.189 0-.164-.522-.784-1.159-.619-.638-1.458-1.652-1.863-2.253-.723-1.074-1.522-1.998-6.388-7.386-1.341-1.484-3.118-3.472-3.948-4.417-3.834-4.361-8.392-9.213-11.9-12.668-6.444-6.345-13.937-13.536-15.184-14.571-2.724-2.261-6.519-5.466-7.555-6.38-.612-.54-1.681-1.424-2.375-1.964-.695-.539-1.622-1.307-2.062-1.704-.439-.398-2.145-1.774-3.791-3.059-1.646-1.284-3.324-2.65-3.729-3.036-.405-.385-1.344-.977-2.086-1.314-.742-.338-1.35-.796-1.35-1.017s-.828-.826-1.84-1.345-2.393-1.429-3.068-2.022c-.674-.593-2.251-1.6-3.504-2.237-1.252-.638-2.633-1.516-3.068-1.951-.945-.945-9.983-6.118-10.69-6.118-.271 0-1.908-.792-3.639-1.76s-3.148-1.629-3.148-1.468c0 .16-1.214-.394-2.699-1.232s-2.699-1.387-2.699-1.22-.497-.006-1.105-.385c-1.007-.629-3.623-1.444-3.924-1.223-.069.05-.677-.211-1.352-.581s-1.448-.729-1.718-.796c-.27-.068-2.092-.554-4.049-1.079-1.957-.526-3.558-.84-3.558-.699s-.276.034-.613-.238c-.338-.272-1.277-.634-2.086-.805-.81-.17-1.97-.417-2.577-.547s-1.491-.319-1.963-.419c-1.071-.228-5.472-.938-6.626-1.07-.472-.054-.914-.147-.982-.208-.067-.06-.674-.17-1.349-.244s-2.111-.262-3.191-.417c-4.949-.711-23.872-1.505-24.435-1.025m-25.871 30.167c0 .195-.824.509-1.832.698-1.007.189-2.277.592-2.822.896s-1.101.564-1.236.577c-.67.068-6.169 2.452-6.39 2.771-.141.203-.803.614-1.473.915-1.922.864-4.139 2.09-4.407 2.438-.135.175-1.103.84-2.151 1.477-1.048.638-2.594 1.798-3.436 2.578-3.245 3.01-5.002 4.787-5.947 6.016-.539.702-1.333 1.655-1.764 2.117-.995 1.066-5.39 8.911-5.609 10.01-.091.455-.409 1.283-.708 1.841-.298.557-.397 1.013-.219 1.013.177 0 .067.308-.246.684-.312.377-.525.874-.474 1.105.052.231-.147.972-.442 1.647-.386.883-.545.986-.568.368-.017-.473-.223-.859-.458-.859s-.705-.994-1.045-2.209-.774-2.208-.964-2.208-.365-.277-.39-.614-.162-1.166-.305-1.84c-.143-.675-.366-1.837-.496-2.581-.631-3.622-2.373-4.974-2.045-1.587.092.947-.005 1.828-.216 1.958-.359.222-.325 1.889.211 10.328.239 3.761 1.552 10.192 2.399 11.759.544 1.004.841 1.979.935 3.067.029.338.201.614.383.614s.622.883.979 1.963c.356 1.08.833 1.963 1.06 1.963.226 0 .412.316.412.701 0 .386.279.993.619 1.35.341.357.892 1.264 1.225 2.017.333.752.827 1.636 1.097 1.963s1.514 1.988 2.764 3.691c2.44 3.322 8.786 9.902 12.635 13.1 1.3 1.08 2.92 2.453 3.6 3.052s1.657 1.222 2.171 1.385.823.476.688.695c-.136.219.365.652 1.113.962.747.309 2.014 1.129 2.816 1.822.801.692 2.339 1.704 3.419 2.248 1.08.545 2.405 1.392 2.945 1.884 1.197 1.091 10.432 6.357 11.147 6.357.282 0 1.699.679 3.149 1.509 1.45.829 2.636 1.36 2.636 1.178 0-.181.725.098 1.61.62s2.266 1.131 3.068 1.352c.801.222 1.678.464 1.948.54.27.075 2.037.605 3.927 1.178 1.889.573 3.932 1.139 4.54 1.259 4.018.79 5.276 1.076 5.276 1.199 0 .99 19.99 1.605 27.239.837 5.301-.561 12.092-2.26 16.196-4.052.135-.059.776-.278 1.425-.487 2.509-.806 11.186-5.772 11.942-6.834.198-.279.364-.333.368-.12.009.471.814-.178 3.928-3.165 1.311-1.258 2.512-2.16 2.667-2.005.156.156.284.035.284-.27 0-.304.396-.948.881-1.431 3.541-3.528 9.072-12.48 10.398-16.829.371-1.215.794-2.43.941-2.7s.316-.711.375-.981c.06-.27.249-1.043.422-1.718.172-.675.332-1.532.355-1.905.053-.845 1.352.801 1.352 1.712 0 .331.181.676.403.766.425.172 2.804 7.379 3.335 10.102.265 1.362 1.587 2.317 1.698 1.227.021-.203.148-.81.282-1.35 1.259-5.051-1.101-23.226-3.218-24.785-.183-.135-.635-1.184-1.004-2.331-.37-1.148-.857-2.086-1.084-2.086s-.412-.316-.412-.701c0-.386-.387-1.088-.859-1.56-.473-.473-.834-.986-.803-1.14.12-.599-.976-2.489-1.444-2.489-.271 0-.365-.128-.208-.285.663-.663 2.567.845 9.5 7.524 2.032 1.957 3.937 3.559 4.234 3.559s.412.128.254.286c-.157.157.524 1.112 1.514 2.121s2.683 2.872 3.763 4.14c1.079 1.269 3.177 3.596 4.662 5.172s3.181 3.504 3.77 4.285c.588.78 1.857 2.302 2.819 3.382s1.971 2.23 2.242 2.556c.583.699.658 1.669.116 1.493-.521-.169-4.629 1.683-5.424 2.446-.356.342-.964.622-1.349.622-.386 0-.702.221-.702.491 0 .269-.177.435-.394.368-.374-.117-3.992 1.559-4.513 2.09-.135.137-1.681 1.116-3.436 2.175s-3.301 2.051-3.436 2.205c-.456.518-4.934 3.468-5.264 3.468-.327 0-4.087 2.453-4.552 2.97-.135.15-1.128.804-2.208 1.455-1.08.65-2.255 1.467-2.612 1.815-.357.347-.93.631-1.275.631-.344 0-1.156.438-1.805.973s-1.411 1.164-1.694 1.399c-1.154.958-14.325 8.426-14.859 8.426-.318 0-.577.217-.577.481 0 .265-.608.631-1.35.812-.742.182-1.46.462-1.595.623-.222.265-3.827 2.104-4.417 2.253-.135.034-1.116.442-2.18.906s-2.445.971-3.068 1.127c-.623.157-1.133.482-1.133.722 0 .241-.294.438-.654.438s-2.734.677-5.276 1.505-5.008 1.601-5.481 1.718c-.472.117-1.355.336-1.963.487-.607.15-1.435.354-1.84.453-.405.098-.737.214-.737.256 0 .043-.552.136-1.227.206-2.071.217-5.605.843-5.947 1.055-.315.194-4.734.685-8.336.926-.972.065-1.966.23-2.209.367-.599.339-17.504.119-20.563-.268-1.349-.17-3.748-.425-5.33-.567-1.581-.141-3.021-.347-3.2-.458-.179-.11-1.314-.352-2.523-.538-2.493-.383-3.671-.615-3.671-.725 0-.082-.824-.295-2.699-.695-4.336-.927-6.219-1.464-6.824-1.946-.379-.302-.821-.5-.982-.44-.161.059-1.065-.1-2.01-.354-.945-.255-1.939-.485-2.209-.513-.27-.027-1.263-.528-2.208-1.112-.945-.583-1.783-.986-1.862-.894-.243.281-5.073-1.664-8.603-3.465-1.032-.527-2.296-1.039-2.81-1.138s-2.277-.966-3.918-1.928c-1.64-.961-3.232-1.748-3.537-1.748-.739 0-17.261-9.345-17.469-9.881-.089-.229-2.022-1.431-4.295-2.67-2.272-1.239-4.132-2.404-4.132-2.59s-1.325-1.066-2.945-1.957c-1.619-.89-2.945-1.784-2.945-1.985 0-.202-.773-.736-1.717-1.186-.945-.451-1.718-.993-1.718-1.206 0-.212-.994-.929-2.209-1.592-1.214-.664-2.208-1.374-2.208-1.577 0-.204-1.049-.913-2.332-1.576-1.282-.663-3.171-1.992-4.199-2.953-1.027-.961-2.021-1.748-2.208-1.748-.188 0-1.004-.573-1.813-1.273-.81-.7-2.092-1.595-2.849-1.989-.756-.394-1.779-1.091-2.273-1.549-.493-.458-1.473-1.274-2.177-1.814s-1.814-1.423-2.465-1.963-1.756-1.424-2.454-1.963c-.698-.54-1.795-1.424-2.438-1.964-.642-.539-1.763-1.409-2.49-1.932s-1.72-1.296-2.207-1.718c-.486-.422-1.606-1.319-2.488-1.994-2.538-1.942-6.17-5.017-9.466-8.015-1.137-1.034-3.117-2.68-4.399-3.659-2.562-1.955-2.825-2.522-1.35-2.907.54-.142.982-.452.982-.691 0-.238.166-.398.368-.354s.976-.172 1.719-.479c3.355-1.387 10.491-4.637 12.691-5.78.704-.366 1.422-.524 1.595-.351s.314.056.314-.259.31-.572.69-.572c.379 0 1.539-.428 2.577-.95 4.701-2.367 7.171-3.467 7.781-3.467.364 0 1.008-.347 1.432-.772.425-.424.772-.657.772-.518 0 .284 2.977-.954 8.098-3.365 1.889-.89 4.264-1.908 5.276-2.261 1.012-.354 1.84-.783 1.84-.954s.332-.347.737-.392c.404-.045 1.067-.119 1.472-.164s.736-.23.736-.412.939-.626 2.086-.988 2.307-.82 2.577-1.019c.27-.198 1.926-.85 3.681-1.449 1.754-.598 3.411-1.246 3.681-1.44.27-.193 2.147-.876 4.171-1.517 2.025-.642 3.792-1.316 3.927-1.5.135-.183 1.46-.673 2.945-1.09 7.116-1.994 11.578-3.384 12.024-3.746.27-.218 2.258-.843 4.417-1.389 2.16-.545 6.212-1.578 9.004-2.294 2.793-.717 5.202-1.179 5.354-1.027s.534.061.85-.201 1.993-.7 3.726-.974c4.751-.751 10.873-1.927 11.073-2.126.325-.325 1.65-.183 1.65.177m33.68 9.975c1.383.093 2.708.285 2.945.425.236.14 1.534.39 2.884.554 1.35.165 3.006.425 3.681.578s1.89.396 2.699.54c.81.145 1.726.471 2.035.725s.75.407.981.34.917.154 1.524.491c.608.337 1.104.481 1.104.321s1.05.26 2.332.932c1.282.673 2.999 1.465 3.816 1.76.817.296 2.253 1.193 3.19 1.995.938.801 1.897 1.458 2.131 1.458 1.987.006 8.875 9.579 10.714 14.891.971 2.807 1.599 10.66.947 11.854-.146.267-.325 1.206-.397 2.087-.072.88-.468 2.252-.88 3.048-.411.796-.748 1.802-.748 2.236 0 .435-.205.663-.456.508-.25-.154-.61.206-.799.802-.55 1.733-6.998 7.693-9.788 9.046-.81.393-2.135 1.142-2.945 1.664-1.698 1.096-4.583 2.454-5.213 2.454-.237 0-.431.258-.431.573s-.148.425-.329.244-.863.02-1.515.448c-1.982 1.298-1.777.527 1.301-4.895 1.626-2.862 2.85-5.204 2.721-5.204s.244-.939.829-2.086c.586-1.147 1.06-2.196 1.054-2.331-.005-.135.075-.467.179-.738 1.295-3.373 1.758-12.888.693-14.22-.222-.276-.556-1.22-.744-2.097-.187-.878-.544-1.595-.793-1.595-.248 0-.404-.166-.347-.369.188-.664-1.205-2.793-2.853-4.36-.89-.846-1.512-1.645-1.382-1.775.13-.129-.434-.513-1.252-.852-.819-.339-1.488-.789-1.488-1.001 0-.823-5.708-3.6-8.099-3.94-.27-.039-.932-.317-1.472-.618s-1.092-.571-1.227-.599-1.168-.317-2.297-.641c-1.128-.324-3.005-.714-4.171-.868-1.167-.153-2.894-.436-3.839-.628-1.992-.404-14.268-.312-16.442.124-.809.163-2.19.505-3.067.76-.877.256-1.595.381-1.595.279 0-.103-.772.136-1.716.53-.943.395-1.771.691-1.84.66-.4-.185-4.306 1.136-4.555 1.54-.165.267-.506.358-.757.203-.252-.155-.457-.064-.457.204s-.487.641-1.082.83c-.594.189-1.34.59-1.657.892s-1.082.88-1.699 1.285c-1.618 1.061-4.447 3.9-6.132 6.152-.8 1.071-1.74 2.247-2.088 2.614-.847.894-3.148 5.467-2.751 5.467.173 0 .068.296-.232.659-1.095 1.319-3.122 8.665-3.182 11.531-.022 1.047-.078 1.073-.646.296-.342-.468-.506-1.04-.364-1.27s.056-.418-.191-.418c-.248 0-.963-1.91-1.591-4.244-2.668-9.93-.562-18.562 6.155-25.223 2.219-2.201 2.811-2.698 4.417-3.706.81-.509 1.764-1.204 2.121-1.545.356-.341.964-.62 1.349-.62.386 0 .702-.234.702-.52 0-.285.202-.394.448-.242.247.153.523.111.614-.094.424-.956 5.059-2.831 11.944-4.832 3.85-1.119 4.045-1.162 6.568-1.45 1.183-.136 2.369-.381 2.634-.545s3.162-.404 6.438-.534c3.275-.129 6.029-.303 6.119-.386s1.416-.055 2.945.062 3.912.29 5.295.384m-13.256 25.212c-.031.473-.907 2.371-1.947 4.219s-1.935 3.615-1.99 3.927c-.054.311-.439 1.229-.854 2.038-.415.81-1.25 3.129-1.855 5.154-.606 2.024-1.267 4.123-1.47 4.662-1.044 2.777.474 11.981 2.292 13.901.338.356.614.809.614 1.005 0 .323 3.077 3.552 4.908 5.151 2.125 1.856 10.255 5.645 13.988 6.519 2.028.475 2.454.591 2.454.664 0 .095 1.062.358 2.945.729.81.16 1.914.426 2.454.592 1.563.48 13.992.541 14.283.07.145-.234.457-.306.693-.16s2.018-.066 3.96-.47c1.941-.405 3.705-.628 3.919-.495.215.132.51.046.657-.191.146-.237 1.266-.711 2.488-1.053 1.221-.342 2.221-.827 2.221-1.078s.194-.336.432-.189 1.177-.226 2.086-.83c.91-.603 2.255-1.407 2.99-1.787.736-.379 2.116-1.402 3.068-2.274s1.731-1.485 1.731-1.362c0 .194.855-.7 4.077-4.263 1.318-1.458 5.643-9.608 5.99-11.288.195-.945.488-1.939.651-2.209.162-.27.341-.932.396-1.472s.244-1.645.418-2.454c.175-.81.349-1.859.387-2.332.169-2.121 2.981 4.775 3.251 7.976.677 8.013-.144 13.041-2.884 17.669-1.666 2.811-7.823 9.088-9.41 9.592-.502.159-.913.496-.913.747 0 .252-.316.458-.701.458-.386 0-1.041.339-1.455.754-.415.414-.928.761-1.14.771s-1.103.333-1.98.719c-.878.385-2.313 1.012-3.191 1.391-10.03 4.342-28.113 6.045-42.189 3.974-2.731-.402-4.068-.644-4.068-.738 0-.041-.442-.176-.982-.301-.54-.124-1.202-.291-1.472-.37-3.162-.933-4.917-1.365-4.955-1.221-.026.096-.39-.11-.809-.458-.419-.347-1.198-.716-1.73-.818-4.536-.874-14.056-8.336-17.243-13.516-4.027-6.544-5.522-18.346-2.936-23.176.257-.482.341-.876.185-.876-.374 0 2.17-4.426 3.159-5.498.424-.459 1.017-1.122 1.318-1.472.301-.351 1.049-.969 1.661-1.374.612-.404 1.47-1.08 1.906-1.501.437-.42 2.008-1.517 3.493-2.438 1.485-.92 2.862-1.901 3.06-2.179.198-.279.364-.341.368-.138s.832-.073 1.841-.614c1.008-.54 2.112-.982 2.454-.982.341 0 .62-.178.62-.396s.608-.636 1.35-.93c.742-.293 1.375-.557 1.406-.585.03-.029.03.334 0 .806m24.131 4.711c1.973 3.844 2.85 10.578 1.487 11.421-.228.14-.281.471-.118.734.162.263.074.744-.196 1.07s-.487.767-.482.981c.03 1.292-3.584 8.714-4.091 8.401-.191-.118-.49.23-.662.773-.173.544-.486.989-.697.989-.21 0-.892.442-1.514.982-.623.54-1.429.981-1.793.981s-.661.258-.661.573-.145.427-.323.25c-.178-.178-.62-.076-.984.225-.991.822-4.906.579-6.578-.409-2.464-1.455-3.6-7.345-2.442-12.663.76-3.491.916-4.046 1.403-4.975.264-.503.866-1.851 1.338-2.995 1.273-3.084 6.021-7.827 8.254-8.246.988-.185 1.899-.502 2.024-.704.752-1.218 5.016.627 6.035 2.612" fill-rule="evenodd"/></svg>