<svg xmlns="http://www.w3.org/2000/svg" width="1786.667" height="1749.333" viewBox="0 0 1340 1312"><path d="M649 4.6c-38.2 9.6-49.4 12.8-83 24-15.7 5.2-29.1 9.9-29.9 10.3-1.8 1.2-8 32.8-12.6 64.2-1.9 13.6-3.5 25.1-3.5 25.7 0 .5 12 5.8 26.8 11.7 36.8 14.8 81 33.9 110.2 47.7 4.7 2.3 9.2 4 10 4 .8-.1 15-6.2 31.5-13.8 33.3-15.1 63.3-27.9 95-40.4 11.6-4.6 21.1-8.4 21.3-8.5.5-.4-8.1-58-11.1-73.9l-3.2-16.9-22-7.4C746.4 20.5 728 15 696.2 7.1c-15.5-3.9-28.6-7.1-29-7-.4 0-8.6 2.1-18.2 4.5M404.8 41c-11.6 1.5-73.6 34.3-105.6 55.8-28.2 19-26.6 17.5-37 33.9-8.2 12.8-29.2 53.1-29.2 55.9 0 .5 6.9 3.2 15.3 5.9 8.3 2.7 24 8.2 34.7 12.3 10.7 4 22.7 8.5 26.6 9.9l7.1 2.6 32.9-20c37.4-22.7 51.8-31 89.9-51.8 14.9-8.1 27.2-14.9 27.4-15 .1-.2 2.5-13.4 5.1-29.2 2.6-15.9 6.2-35.3 7.9-43.2 1.8-7.9 2.9-14.6 2.6-14.9-2.4-2.4-62.8-4.1-77.7-2.2M884.5 40.4c-.5.3-7.6 1-15.6 1.6-8.1.7-15.1 1.5-15.7 1.9s.1 5.8 2 14.6c3.1 15.3 7.6 40.9 10.4 60.3 1 6.8 2.3 12.9 2.8 13.6.6.8 13.7 8.2 29.1 16.6 37.8 20.6 47.4 26.1 87.3 50.1l34.3 20.6 21.7-8.4c11.9-4.6 31.2-11.6 42.7-15.5 11.6-3.9 21.1-7.1 21.1-7.2.3-.2-8.7-20.1-13.4-29.6-7.2-14.6-25.9-45.2-29.1-47.7-20.2-15.6-82.1-51.4-113-65.4l-11.3-5.2-26.2-.3c-14.3-.2-26.5-.2-27.1 0M482.5 178.1c-4.9 2.8-13.3 7.3-18.5 10.2-5.2 2.8-11.7 6.3-14.3 7.9-2.6 1.5-5 2.8-5.2 2.8-.9 0-37.4 21.2-69.1 40.2l-35.1 21-.6 4.7c-.3 2.5-2.2 17.2-4.2 32.6-4.1 32.4-6.6 54.5-9.5 84-1.1 11.5-2.5 25.3-3 30.5-.6 5.2-.7 9.6-.3 9.8.4.1 33.8 19.1 74.2 42.2l73.5 42 15.5-9.2c52-30.5 92.7-53.9 131.7-75.8l22.1-12.5.6-40.4c.4-22.2.7-60.7.7-85.5v-45.1l-19.2-8.9C572.9 206 496.2 172.9 492.9 173c-.8.1-5.4 2.3-10.4 5.1M842 175.1c-31.8 12.7-84.4 35.6-126 54.7l-19.5 9v171.4l14.5 8.2c8 4.5 20.4 11.5 27.5 15.6 20.9 11.8 69 39.6 99.4 57.4 15.5 9.1 28.4 16.6 28.6 16.6.4 0 147.5-83.9 148.3-84.6 1-.8-7.6-85.5-12.4-123.3-1.9-15.2-3.8-29.9-4.1-32.8l-.6-5.2-24.7-15c-13.6-8.2-31.8-19.2-40.6-24.4-16.9-9.9-83.9-47.3-86.4-48.1-.8-.3-2.6 0-4 .5M197.4 235.2c-3.2 2.9-13.8 12.2-23.4 20.7-9.6 8.4-29.5 27.5-44.2 42.4-20.7 21-26.8 27.8-27.6 30.6-.5 2-3.5 12.4-6.6 23.1-3.2 10.7-7.7 27.4-10.1 37-4.8 19.3-14.5 65.9-14.4 69.3 0 3.2 22 21.9 61.1 52 4.8 3.7 9 6.7 9.3 6.7s10.5-7.8 22.8-17.3c32.3-25.2 49-37.6 94.3-70l12.1-8.6.6-7.3c2.2-27.1 8.2-80 13.3-116.8 1.9-14 3.8-27.6 4.1-30.1l.5-4.6-27.8-11.1c-22.9-9-56-21.2-57.6-21.2-.2 0-3.1 2.4-6.4 5.2M1119 239.1c-15.7 5.7-52.8 20.3-64.7 25.5l-5.5 2.5.6 3.7c1.1 7 6.5 47.6 8.5 64.2 1.8 14.5 3.4 30.3 8.2 79.7 1.1 11.5 1.3 12.4 3.8 13.9 11.7 7.6 75 54 101.7 74.7 4.5 3.4 11.8 9 16.2 12.4 4.5 3.5 8.4 6.3 8.7 6.3 2.1 0 69.9-54.6 72-58 .7-1.1-10.5-56.4-15-74.5-1.9-7.7-6.5-24.7-10.2-37.7l-6.6-23.6-28.6-28.4c-15.7-15.6-30.8-30.4-33.6-32.8-7.4-6.6-35.8-31.3-37.5-32.6-1.2-.9-5.1.1-18 4.7M654.5 467.6c-8.2 4.7-17 9.7-19.5 11.1s-16.9 9.6-32 18.3c-27.1 15.5-33.3 19.1-80.2 46.4L499 557.2v197.3l40.3 23.5c22.1 12.9 55.1 31.9 73.2 42.3 18.2 10.3 38.5 22 45.3 25.8l12.2 7.1 23.3-13.3c45.3-25.9 102.7-59.1 137.2-79.6l10-5.9.3-98.5.2-98.4-11.2-6.6c-62.4-36.4-82.7-48.2-117.3-67.9-22-12.6-40.7-23.1-41.5-23.4s-8.2 3.3-16.5 8M277.5 482.6c-37.9 26.5-66.8 47.8-102.6 75.5l-9.7 7.4-.8 24.5c-1.1 29.3-1 117.6.1 138l.7 14.5 8.2 6.1c4.4 3.4 19.4 14.7 33.3 25.2 20.5 15.5 83.5 61 88 63.6 1 .5 12.5-5.9 54.3-30.2 2.5-1.5 24.7-14.4 49.3-28.7l44.8-26.1.2-98.5.2-98.5L429 547c-8-4.6-41-23.8-73.4-42.7S296.4 470 296.1 470s-8.7 5.7-18.6 12.6M986.5 507.1c-31.4 18.3-64.4 37.5-73.4 42.8l-16.4 9.6-.1 98.3-.1 98.4 9 5.3c9.9 5.7 85 49.2 117.2 67.8 11.2 6.4 20.9 11.7 21.5 11.7 2.3 0 74.1-51.9 107.8-77.9 5.2-4.1 12.5-9.6 16.1-12.4l6.7-5 .7-22.6c1-29.6 1-93.7.1-127.4l-.8-26.7-6.2-4.7c-30.8-23.5-62.2-46.8-82.6-61.3-13.5-9.5-28.2-20-32.7-23.2-4.4-3.2-8.5-5.8-9-5.8s-26.5 14.9-57.8 33.1M39.3 519.7C28 535.5 19.5 549.4 10.2 567l-7 13.5-1.6 18.3c-2 23.1-2.1 90.8-.2 112.2l1.3 14.5 6.8 13c3.8 7.2 8.9 16.4 11.3 20.5 3.9 6.7 20.2 30.7 25.1 36.9l1.9 2.5 8.9-8c12-11 24.8-21.7 44.2-37.3l16.4-13.1-.4-27.8c-.5-37.3-.2-109.8.6-130.3l.6-16.7-20.8-17c-11.4-9.4-27-22.5-34.5-29.1-7.6-6.7-13.9-12.1-14.1-12.1-.1 0-4.4 5.7-9.4 12.7M1281.9 522.3c-11.7 10.5-28.3 24.4-47.2 39.6l-12.8 10.3.7 5.6c.9 7.7 1 132.9 0 152.7l-.7 16 8.3 6.5c16.4 12.8 35.5 28.6 47.9 39.7 7 6.2 12.9 11.3 13.2 11.3 1 0 19.1-25.9 25.1-35.7 3-5.1 8.9-15.6 13-23.3l7.5-14 1.5-17c1.9-20.7 2.2-93.6.5-113.5l-1.1-13-8.1-15.5c-9.6-18.6-15.5-28.2-27.7-45.5-5.1-7.2-9.4-13.1-9.5-13.3-.1-.1-4.9 3.9-10.6 9.1M139 791.9c-1.9 1.5-11.4 8.9-21 16.3-21.4 16.6-47 38.5-47 40.1 0 1.7 7.3 38.5 11 55.9 2.7 12.1 14.1 55.3 19.5 73.8 1.6 5.2 3.1 7 30.8 34.5 16.1 16 31.2 30.9 33.7 33.1 7.3 6.5 35.4 30.8 37.1 32.1 1.6 1.3 2 1.2 35.4-10.7 4.6-1.6 35.2-13.9 47.4-19.1l5.3-2.3-.5-5.5c-.3-3.1-2.2-17.3-4.2-31.6C281.8 974 273 895.4 273 887.2c0-1.4-7.4-7.2-24.2-19.3-28.4-20.2-64.4-47.1-88.2-65.7-9.2-7.3-17.1-13.2-17.5-13.2-.3.1-2.2 1.3-4.1 2.9M1196.5 794.9c-1.9 3.2-62.3 49-102.9 78.1-12.5 9-23.2 17.3-23.6 18.5-.4 1.1-2.2 16.8-4 35-3.6 38.1-5.4 52.9-11.1 93.3-2.3 16.1-4 29.4-3.8 29.6 1.4 1.1 54.5 21.5 68.5 26.2l17.1 5.9 11.9-10.5c33-29 42.6-38.1 73.6-69.6l14.8-14.9 7.5-26.5c10.2-35.6 13.7-50.3 22-91.5l3.5-17-2.9-2.5c-13.8-11.9-34.3-28.7-47.6-39.1-21.7-16.9-21.7-17-23-15M444 820.7c-15.7 9-48.3 27.7-72.5 41.5s-44.6 25.6-45.3 26.2c-1.2 1.1-.2 15.3 3.8 54.6 3.2 30.6 10.6 92.5 12.5 104.6.5 2.8 3.2 4.6 34.8 23.6 58.7 35.3 116.7 67.3 120.1 66.2 10.1-3.2 78.2-32.7 120.6-52.2l25.5-11.8.3-85.6.2-85.6-3.7-2.2c-2.1-1.2-19.3-11-38.3-21.8-19-10.7-49.1-28.1-67-38.5-55.3-32.3-61.2-35.7-61.8-35.6-.4 0-13.5 7.5-29.2 16.6M840.5 822.7c-38.6 22.8-76.6 44.8-111.2 64.3l-29.2 16.5-.3 74.2c-.1 40.9-.3 79.3-.3 85.5v11.2l16 7.4c30.2 14 71 31.9 101.7 44.6l30.6 12.7 17.9-9.7c25.6-13.9 42.6-23.4 60.3-33.7 21.4-12.4 71.2-42.7 72.9-44.2 2.5-2.4 11.8-79 17.1-141 .5-6.6 1.3-13.8 1.6-16.1l.6-4.1-14.9-8.5c-98.7-56.6-132.6-75.8-133.6-75.7-.7 0-13.8 7.5-29.2 16.6M310 1096.6c-15.4 6.3-42.2 16.1-58.2 21.4-8.7 2.9-15.8 5.6-15.8 6.1s3.2 7.9 7.2 16.5c7.7 16.8 16.7 33.2 27.1 49.2 5.9 9.1 7.3 10.5 16 16.6 22.4 15.6 64.7 40.1 94.6 54.8 21.5 10.6 22 10.7 51.6 10.8 18.8 0 53.2-2.5 54.9-4.1.5-.4-.7-8.8-2.7-19.1-2-10.1-5.5-29.6-7.7-43.3-2.3-13.8-4.7-25.5-5.3-26.1-.7-.7-9.3-5.6-19.2-10.9-42.7-23.2-56.3-31-98.2-56.1-17.7-10.7-33-19.4-34-19.3s-5.6 1.6-10.3 3.5M993.5 1112.5c-31.1 19.1-64.1 38.2-99.5 57.5-11.3 6.2-20.6 11.3-20.7 11.4-.1 0-2 11.4-4.3 25.1-3.5 21.7-10 55.6-11.6 60.7-.4 1.3.5 1.7 4.3 2.2 17.3 2.1 35 2.8 54.5 2.3l21.8-.7 12.2-5.5c34.8-15.9 77.7-40.7 108-62.3 10.4-7.5 10.8-7.9 18.6-20.2 10.9-17.2 16.9-28.1 24.3-44.3 5-11.1 6-14 4.9-14.7-.8-.5-5.9-2.3-11.4-4-12.3-3.9-29.7-10.1-51.6-18.5-9.1-3.5-17.2-6.6-18-6.8-.8-.3-14.8 7.6-31.5 17.8M656.9 1126.6c-35.8 16.4-68.9 30.8-98.9 42.9-17.3 7.1-31.7 13-31.9 13.1-.3.3.5 7 4.5 34.9 3.6 25.9 8.9 54.4 10.2 55.6 1 .9 40.8 14.2 59.7 19.9 8.8 2.6 28.7 8 44.2 11.9l28.1 7.1 21.4-5.4c40.6-10.3 43.6-11.2 81.4-23.7l30.1-10 1.1-5.2c4.5-20.2 13.9-82.5 12.9-85-.3-.8-3.4-2.4-6.9-3.7-17.8-6.6-81.3-33.6-120.8-51.5-5.8-2.6-12.4-5.6-14.6-6.5l-4.2-1.8z"/></svg>