<svg id="svg" xmlns="http://www.w3.org/2000/svg" xmlns:xlink="http://www.w3.org/1999/xlink" width="400" height="400" viewBox="0, 0, 400,400"><g id="svgg"><path id="path0" d="M199.393 0.224 C 197.237 1.360,194.310 3.303,192.915 4.523 C 189.692 7.342,185.073 12.016,182.039 15.530 C 180.419 17.406,176.934 21.679,170.832 29.269 C 165.998 35.282,165.919 35.378,163.009 38.786 C 161.003 41.134,159.659 42.510,159.370 42.510 C 159.282 42.510,158.656 42.214,157.979 41.853 C 157.302 41.491,155.958 40.785,154.993 40.283 C 154.028 39.781,152.115 38.780,150.742 38.058 C 149.369 37.337,147.414 36.313,146.398 35.783 C 144.154 34.612,136.321 30.696,134.548 29.858 C 133.023 29.138,131.206 28.291,130.364 27.907 C 130.030 27.754,129.367 27.451,128.889 27.233 C 118.302 22.395,110.254 19.848,103.171 19.096 L 102.361 19.010 101.213 20.200 C 96.651 24.927,92.924 29.557,88.574 35.905 C 84.088 42.450,79.722 49.815,75.579 57.827 C 73.574 61.704,74.010 61.465,71.307 60.175 C 70.202 59.647,68.934 59.046,68.489 58.840 C 68.043 58.633,66.373 57.844,64.777 57.086 C 44.344 47.384,33.465 43.690,26.398 44.052 C 23.444 44.204,23.048 44.535,21.956 47.773 C 18.593 57.743,17.784 75.420,19.981 90.901 L 20.384 93.745 19.654 95.287 C 18.362 98.018,17.728 99.760,17.080 102.362 C 12.878 119.247,14.503 160.968,21.266 209.829 L 21.608 212.303 21.034 213.068 C 20.144 214.255,15.466 219.554,10.459 225.047 C 7.266 228.550,4.628 231.521,4.536 231.719 C 4.331 232.158,5.954 235.288,11.740 245.614 C 12.759 247.433,14.915 251.289,16.531 254.184 C 25.526 270.297,26.931 272.671,28.249 273.989 C 28.766 274.506,32.012 276.977,33.468 277.961 C 38.097 281.091,46.105 285.859,52.969 289.571 C 53.934 290.093,55.482 290.931,56.410 291.433 C 57.338 291.934,58.401 292.510,58.772 292.713 C 68.027 297.758,105.058 316.248,108.974 317.779 C 111.637 318.821,114.269 318.411,115.987 316.687 C 118.197 314.468,118.490 312.726,117.523 307.557 C 116.992 304.715,115.802 297.851,115.461 295.660 C 114.434 289.060,114.769 282.072,116.417 275.714 C 116.953 273.645,118.558 269.766,122.644 260.661 C 123.310 259.177,124.979 255.442,126.354 252.362 C 127.729 249.281,130.170 243.816,131.779 240.216 C 137.622 227.143,138.383 225.252,138.609 223.238 C 139.348 216.662,136.069 209.626,131.400 207.772 C 129.857 207.159,119.658 205.011,110.193 203.306 C 105.413 202.445,100.455 201.523,94.939 200.469 C 93.232 200.143,90.864 199.694,89.676 199.471 C 86.818 198.936,79.585 197.552,76.762 197.001 C 74.851 196.628,74.494 196.520,74.410 196.290 C 74.083 195.391,74.275 167.212,74.629 164.194 C 74.977 161.228,78.087 157.711,81.488 156.437 C 84.213 155.416,85.313 155.618,107.422 161.196 C 139.366 169.256,162.719 175.123,165.655 175.826 C 170.920 177.087,173.903 180.651,174.494 186.386 C 174.754 188.900,174.994 187.503,168.483 221.390 C 167.842 224.730,167.113 228.526,166.863 229.825 C 166.614 231.123,166.228 233.128,166.006 234.278 C 165.783 235.428,165.263 238.131,164.850 240.283 C 164.437 242.436,163.553 247.025,162.886 250.482 C 161.550 257.404,161.543 257.481,161.807 261.559 C 162.244 268.296,165.696 273.726,170.939 275.923 L 172.394 276.532 186.163 276.643 C 201.993 276.770,226.494 276.617,227.704 276.383 C 234.584 275.057,239.367 266.051,238.194 256.631 C 237.942 254.604,236.725 247.888,235.428 241.363 C 234.760 238.003,233.579 231.921,232.872 228.205 C 232.610 226.832,231.760 222.399,230.982 218.354 C 226.003 192.477,225.507 189.745,225.507 188.188 C 225.505 184.033,226.637 181.067,229.222 178.459 C 231.075 176.589,230.265 176.849,248.246 172.353 C 256.856 170.200,267.149 167.619,271.120 166.618 C 305.627 157.912,311.779 156.413,314.640 156.014 C 318.557 155.466,323.095 158.355,325.122 162.688 C 325.722 163.970,325.742 164.477,325.853 181.458 L 325.951 196.587 324.480 196.867 C 322.240 197.294,319.098 197.882,313.090 198.999 C 310.084 199.558,306.198 200.283,304.453 200.610 C 302.709 200.937,299.825 201.477,298.043 201.811 C 270.693 206.933,269.001 207.298,267.245 208.461 C 263.586 210.884,261.671 215.194,261.453 221.502 L 261.363 224.101 262.139 226.052 C 262.566 227.125,263.207 228.671,263.563 229.487 C 266.098 235.292,268.337 240.367,269.159 242.173 C 269.328 242.544,270.076 244.214,270.821 245.884 C 271.566 247.554,272.460 249.528,272.807 250.270 C 274.338 253.546,279.311 264.760,280.945 268.623 C 283.900 275.607,284.842 279.383,285.176 285.585 C 285.448 290.643,285.242 292.618,283.339 303.238 C 281.669 312.556,281.648 312.885,282.591 314.688 C 284.438 318.217,287.664 319.209,291.681 317.485 C 295.885 315.680,320.327 303.634,330.027 298.587 C 330.843 298.162,332.240 297.433,333.131 296.967 C 334.022 296.501,335.601 295.679,336.640 295.141 C 343.263 291.711,354.386 285.615,357.692 283.603 C 369.570 276.376,371.474 274.894,374.037 270.879 C 375.952 267.879,381.533 257.983,389.504 243.455 C 395.832 231.921,395.842 231.901,395.511 231.555 C 395.255 231.286,391.895 227.558,390.505 225.999 C 389.833 225.245,389.247 224.599,389.203 224.561 C 389.158 224.524,387.914 223.158,386.437 221.525 C 384.961 219.892,383.086 217.827,382.272 216.937 C 381.457 216.046,380.487 214.983,380.115 214.575 C 379.743 214.167,379.205 213.585,378.919 213.283 L 378.399 212.734 378.817 209.572 C 380.085 199.966,381.246 190.466,382.179 182.051 C 384.632 159.946,385.827 134.726,385.091 120.580 C 384.406 107.420,383.306 101.308,380.608 95.661 L 379.728 93.820 380.078 91.006 C 381.137 82.513,381.496 75.686,381.245 68.836 C 380.809 56.950,378.471 45.450,376.277 44.398 C 375.769 44.154,371.480 44.060,369.433 44.247 C 364.616 44.689,355.522 47.831,344.197 52.968 C 343.009 53.507,341.127 54.358,340.013 54.860 C 338.900 55.362,337.055 56.220,335.913 56.766 C 334.771 57.313,333.814 57.760,333.786 57.760 C 333.758 57.760,332.172 58.513,330.262 59.432 C 325.873 61.546,326.320 61.438,325.858 60.493 C 325.350 59.453,321.837 52.824,321.119 51.552 C 319.169 48.095,318.613 47.127,317.704 45.614 C 312.599 37.115,308.505 31.253,303.518 25.304 C 301.942 23.423,301.688 23.145,299.597 21.011 L 297.638 19.012 296.829 19.098 C 289.899 19.830,279.674 23.137,269.703 27.870 C 268.812 28.293,267.567 28.882,266.937 29.179 C 263.358 30.861,249.503 37.885,247.035 39.268 C 245.601 40.072,240.764 42.510,240.604 42.510 C 240.277 42.510,238.428 40.493,235.410 36.842 C 233.542 34.583,232.137 32.853,225.985 25.236 C 224.996 24.011,223.417 22.068,222.475 20.918 C 221.533 19.767,220.570 18.586,220.334 18.293 C 214.818 11.430,207.068 3.946,202.901 1.458 C 200.654 0.116,200.021 -0.107,199.393 0.224 M170.580 316.607 C 164.957 316.665,161.010 316.761,160.268 316.859 C 153.167 317.792,144.789 321.487,138.529 326.445 C 136.556 328.007,134.939 329.367,127.632 335.610 L 120.108 342.038 120.108 363.846 L 120.108 385.654 122.031 386.406 C 125.869 387.908,135.050 390.633,143.522 392.785 C 179.033 401.806,213.791 402.351,249.460 394.447 C 260.048 392.100,273.403 388.324,278.677 386.185 L 279.825 385.720 279.854 363.812 L 279.883 341.903 277.834 340.148 C 259.989 324.869,258.711 323.892,252.850 321.048 C 248.010 318.699,244.560 317.583,240.148 316.936 C 237.351 316.526,196.886 316.335,170.580 316.607 " stroke="none" fill="#000000" fill-rule="evenodd"></path></g></svg>