<svg height="400" viewBox="0 0 400 400" width="400" xmlns="http://www.w3.org/2000/svg" fill="currentColor"><path d="m199.393.224c-2.156 1.136-5.083 3.079-6.478 4.299-3.223 2.819-7.842 7.493-10.876 11.007-1.62 1.876-5.105 6.149-11.207 13.739-4.834 6.013-4.913 6.109-7.823 9.517-2.006 2.348-3.35 3.724-3.639 3.724-.088 0-.714-.296-1.391-.657-.677-.362-2.021-1.068-2.986-1.57s-2.878-1.503-4.251-2.225c-1.373-.721-3.328-1.745-4.344-2.275-2.244-1.171-10.077-5.087-11.85-5.925-1.525-.72-3.342-1.567-4.184-1.951-.334-.153-.997-.456-1.475-.674-10.587-4.838-18.635-7.385-25.718-8.137l-.81-.086-1.148 1.19c-4.562 4.727-8.289 9.357-12.639 15.705-4.486 6.545-8.852 13.91-12.995 21.922-2.005 3.877-1.569 3.638-4.272 2.348-1.105-.528-2.373-1.129-2.818-1.335-.446-.207-2.116-.996-3.712-1.754-20.433-9.702-31.312-13.396-38.379-13.034-2.954.152-3.35.483-4.442 3.721-3.363 9.97-4.172 27.647-1.975 43.128l.403 2.844-.73 1.542c-1.292 2.731-1.926 4.473-2.574 7.075-4.202 16.885-2.577 58.606 4.186 107.467l.342 2.474-.574.765c-.89 1.187-5.568 6.486-10.575 11.979-3.193 3.503-5.831 6.474-5.923 6.672-.205.439 1.418 3.569 7.204 13.895 1.019 1.819 3.175 5.675 4.791 8.57 8.995 16.113 10.4 18.487 11.718 19.805.517.517 3.763 2.988 5.219 3.972 4.629 3.13 12.637 7.898 19.501 11.61.965.522 2.513 1.36 3.441 1.862.928.501 1.991 1.077 2.362 1.28 9.255 5.045 46.286 23.535 50.202 25.066 2.663 1.042 5.295.632 7.013-1.092 2.21-2.219 2.503-3.961 1.536-9.13-.531-2.842-1.721-9.706-2.062-11.897-1.027-6.6-.692-13.588.956-19.946.536-2.069 2.141-5.948 6.227-15.053.666-1.484 2.335-5.219 3.71-8.299 1.375-3.081 3.816-8.546 5.425-12.146 5.843-13.073 6.604-14.964 6.83-16.978.739-6.576-2.54-13.612-7.209-15.466-1.543-.613-11.742-2.761-21.207-4.466-4.78-.861-9.738-1.783-15.254-2.837-1.707-.326-4.075-.775-5.263-.998-2.858-.535-10.091-1.919-12.914-2.47-1.911-.373-2.268-.481-2.352-.711-.327-.899-.135-29.078.219-32.096.348-2.966 3.458-6.483 6.859-7.757 2.725-1.021 3.825-.819 25.934 4.759 31.944 8.06 55.297 13.927 58.233 14.63 5.265 1.261 8.248 4.825 8.839 10.56.26 2.514.5 1.117-6.011 35.004-.641 3.34-1.37 7.136-1.62 8.435-.249 1.298-.635 3.303-.857 4.453-.223 1.15-.743 3.853-1.156 6.005-.413 2.153-1.297 6.742-1.964 10.199-1.336 6.922-1.343 6.999-1.079 11.077.437 6.737 3.889 12.167 9.132 14.364l1.455.609 13.769.111c15.83.127 40.331-.026 41.541-.26 6.88-1.326 11.663-10.332 10.49-19.752-.252-2.027-1.469-8.743-2.766-15.268-.668-3.36-1.849-9.442-2.556-13.158-.262-1.373-1.112-5.806-1.89-9.851-4.979-25.877-5.475-28.609-5.475-30.166-.002-4.155 1.13-7.121 3.715-9.729 1.853-1.87 1.043-1.61 19.024-6.106 8.61-2.153 18.903-4.734 22.874-5.735 34.507-8.706 40.659-10.205 43.52-10.604 3.917-.548 8.455 2.341 10.482 6.674.6 1.282.62 1.789.731 18.77l.098 15.129-1.471.28c-2.24.427-5.382 1.015-11.39 2.132-3.006.559-6.892 1.284-8.637 1.611-1.744.327-4.628.867-6.41 1.201-27.35 5.122-29.042 5.487-30.798 6.65-3.659 2.423-5.574 6.733-5.792 13.041l-.09 2.599.776 1.951c.427 1.073 1.068 2.619 1.424 3.435 2.535 5.805 4.774 10.88 5.596 12.686.169.371.917 2.041 1.662 3.711s1.639 3.644 1.986 4.386c1.531 3.276 6.504 14.49 8.138 18.353 2.955 6.984 3.897 10.76 4.231 16.962.272 5.058.066 7.033-1.837 17.653-1.67 9.318-1.691 9.647-.748 11.45 1.847 3.529 5.073 4.521 9.09 2.797 4.204-1.805 28.646-13.851 38.346-18.898.816-.425 2.213-1.154 3.104-1.62s2.47-1.288 3.509-1.826c6.623-3.43 17.746-9.526 21.052-11.538 11.878-7.227 13.782-8.709 16.345-12.724 1.915-3 7.496-12.896 15.467-27.424 6.328-11.534 6.338-11.554 6.007-11.9-.256-.269-3.616-3.997-5.006-5.556-.672-.754-1.258-1.4-1.302-1.438-.045-.037-1.289-1.403-2.766-3.036-1.476-1.633-3.351-3.698-4.165-4.588-.815-.891-1.785-1.954-2.157-2.362s-.91-.99-1.196-1.292l-.52-.549.418-3.162c1.268-9.606 2.429-19.106 3.362-27.521 2.453-22.105 3.648-47.325 2.912-61.471-.685-13.16-1.785-19.272-4.483-24.919l-.88-1.841.35-2.814c1.059-8.493 1.418-15.32 1.167-22.17-.436-11.886-2.774-23.386-4.968-24.438-.508-.244-4.797-.338-6.844-.151-4.817.442-13.911 3.584-25.236 8.721-1.188.539-3.07 1.39-4.184 1.892-1.113.502-2.958 1.36-4.1 1.906-1.142.547-2.099.994-2.127.994s-1.614.753-3.524 1.672c-4.389 2.114-3.942 2.006-4.404 1.061-.508-1.04-4.021-7.669-4.739-8.941-1.95-3.457-2.506-4.425-3.415-5.938-5.105-8.499-9.199-14.361-14.186-20.31-1.576-1.881-1.83-2.159-3.921-4.293l-1.959-1.999-.809.086c-6.93.732-17.155 4.039-27.126 8.772-.891.423-2.136 1.012-2.766 1.309-3.579 1.682-17.434 8.706-19.902 10.089-1.434.804-6.271 3.242-6.431 3.242-.327 0-2.176-2.017-5.194-5.668-1.868-2.259-3.273-3.989-9.425-11.606-.989-1.225-2.568-3.168-3.51-4.318-.942-1.151-1.905-2.332-2.141-2.625-5.516-6.863-13.266-14.347-17.433-16.835-2.247-1.342-2.88-1.565-3.508-1.234m-28.813 316.383c-5.623.058-9.57.154-10.312.252-7.101.933-15.479 4.628-21.739 9.586-1.973 1.562-3.59 2.922-10.897 9.165l-7.524 6.428v21.808 21.808l1.923.752c3.838 1.502 13.019 4.227 21.491 6.379 35.511 9.021 70.269 9.566 105.938 1.662 10.588-2.347 23.943-6.123 29.217-8.262l1.148-.465.029-21.908.029-21.909-2.049-1.755c-17.845-15.279-19.123-16.256-24.984-19.1-4.84-2.349-8.29-3.465-12.702-4.112-2.797-.41-43.262-.601-69.568-.329" fill-rule="evenodd"/></svg>