<svg height="400" viewBox="0 0 400 400" width="400" xmlns="http://www.w3.org/2000/svg"><path d="m258.7.7c-1.8 1.1-3 4.1-3.5 8.5-.2 2-.2 2.1-1.3 2.6-12.3 5.8-29.1 19.5-42.2 34.4l-1.9 2.2-2.3-.5c-3.3-.6-6.8-.3-8.6.7q-1.4.8-1.5.4c-.1-.2-.4.1-.6.7-1.2 2.2-.5 6.1 1.8 9.8l1.1 1.8-3.9 5.8c-7.8 11.6-21.9 36.9-21.9 39.3 0 .2-.6.3-1.4.3-2 0-7.9.9-9.9 1.4-4.8 1.4-4.3 5.7 1.2 11.2l2.6 2.6-.6 1.5c-.4.8-2.8 6.1-5.4 11.9-3.9 8.9-8.1 18.7-12.9 30.1l-.9 2.2-3.3.2c-6 .5-7.8 1.2-8.4 3.4-.9 3.1.1 5.7 3.5 9.3l2.1 2.2-4.1 10.5c-2.3 5.8-6.5 17-9.4 24.9-3 7.9-5.5 14.7-5.7 15.2-.3.7-.5.9-1.5.9-9.7 0-12 4.5-5.8 11.3l2 2.2-2.5 7c-4.2 11.4-11.2 29.9-13.7 36.1l-2.3 5.8-2.8.2c-8.3.7-10.2 5.5-4.5 11.8l1.5 1.6-2.5 5.2c-9.5 20.2-14.2 26.3-34.3 44.4-8.9 8-12.3 11.7-14.1 15.2-4.7 9.4 12.1 25 27 25 6.5 0 7.3-.5 11.4-7.9 5.3-9.5 9.5-18.3 13.6-28.9 4-10.1 8.7-16.5 21.4-29.5l5.6-5.7 2.9 1.2c5.6 2.3 10.3 2.5 12 .7.5-.6.5-.7-.6-1.5l-1.1-.8.5-1.2c.6-1.4.4-3.7-.7-6.9l-.8-2.4 1.3-1.2c4.6-4.2 14.1-12.3 25.8-22l13.5-11.3 2.3.8c3.6 1.3 7 1.4 9.2.3 1.1-.5 2-.7 2.4-.6 2 .6 2-5-.2-9.7l-.7-1.7 6.2-5.1c8.5-7.2 14-12 25.4-21.9l9.8-8.6 2.6 1c3.6 1.3 8.5 1.4 10 .3l1-.7v1c0 .9.1 1 .5.4 1.2-1.5.7-5.1-1.3-9.9l-1.2-2.6 1.4-1.3c9.3-8.6 21.8-20.5 28.3-26.8l8-7.9 2.2.9c11.7 5 16.4.6 11.5-10.7l-1.3-2.9 5-5.3c11.3-11.9 23.1-26.2 28.6-34.6l.9-1.4 1.7.3c11.5 1.6 15.3-3.9 8.5-12.5-1.5-2-1.8-.9 2.4-9.1 7.5-14.9 11.6-27.7 13.5-42.5.2-1.4.3-1.5 2.5-2.7 6-3.4 9.3-9.3 6.6-11.9-1.2-1.1-4.5-2.6-6.9-3.1l-2-.4-.2-1.9c-1.6-14.8-4-18.5-11.7-17.9-18.4 1.4-31-9.2-31.4-26.4-.1-4.2-.4-5.1-2.2-6.4-3.1-2.4-20.3-.6-32 3.2l-2.5.8-1.9-1.8c-3.3-3.1-6.7-4.1-8.9-2.6z" fill-rule="evenodd"/></svg>