<svg height="400" viewBox="0 0 400 400" width="400" xmlns="http://www.w3.org/2000/svg"><path d="m257.973 5.235c-1.73 1.108-2.926 4.072-3.365 8.338-.202 1.966-.248 2.053-1.332 2.563-11.97 5.632-28.419 19.039-41.208 33.585l-1.919 2.183-2.228-.437c-3.158-.619-6.592-.362-8.361.627-.904.505-1.416.647-1.495.414-.066-.195-.35.089-.631.631-1.125 2.168-.42 5.98 1.774 9.592l1.103 1.816-3.808 5.65c-7.634 11.327-21.426 36.042-21.426 38.396 0 .182-.585.333-1.308.336-2.006.009-7.805.839-9.688 1.387-4.709 1.368-4.293 5.536 1.087 10.89l2.603 2.59-.622 1.41c-.342.775-2.691 6.048-5.22 11.717-3.86 8.655-7.987 18.261-12.623 29.385l-.898 2.154-3.204.226c-5.86.414-7.68 1.129-8.268 3.248-.862 3.104.087 5.634 3.409 9.091l2.1 2.185-4.019 10.317c-2.211 5.674-6.367 16.617-9.236 24.317s-5.365 14.381-5.548 14.846c-.277.706-.518.847-1.449.851-9.511.034-11.77 4.48-5.641 11.102l1.937 2.092-2.501 6.862c-4.085 11.212-10.884 29.223-13.333 35.324l-2.286 5.692-2.754.216c-8.118.635-9.906 5.355-4.342 11.46l1.427 1.566-2.391 5.072c-9.318 19.764-13.954 25.765-33.54 43.419-8.706 7.848-12.024 11.441-13.804 14.947-4.656 9.175 11.816 24.397 26.399 24.397 6.338 0 7.103-.53 11.143-7.723 5.204-9.267 9.258-17.853 13.326-28.222 3.879-9.889 8.425-16.177 20.863-28.857l5.465-5.571 2.847 1.145c5.516 2.221 10.081 2.47 11.735.642.504-.557.48-.619-.546-1.402l-1.073-.818.472-1.13c.596-1.428.371-3.602-.707-6.803l-.787-2.338 1.334-1.193c4.502-4.03 13.789-11.948 25.231-21.509l13.128-10.971 2.257.784c3.562 1.237 6.862 1.346 9.009.295 1.064-.52 1.938-.759 2.327-.635 2.002.635 1.928-4.855-.128-9.503l-.71-1.606 6.003-5.061c8.331-7.025 13.765-11.704 24.864-21.407l9.571-8.367 2.583.948c3.485 1.281 8.258 1.423 9.787.293l.95-.701.009 1.009c.009.93.044.964.44.442 1.177-1.554.715-5.065-1.279-9.707l-1.113-2.591 1.366-1.26c9.087-8.385 21.334-19.991 27.654-26.205l7.846-7.716 2.154.914c11.466 4.864 16.012.605 11.179-10.474l-1.238-2.836 4.879-5.164c11.036-11.681 22.574-25.661 27.954-33.871l.867-1.324 1.718.247c11.21 1.608 14.925-3.839 8.318-12.198-1.52-1.922-1.789-.874 2.293-8.934 7.338-14.491 11.332-27.018 13.247-41.547.177-1.348.244-1.421 2.397-2.615 5.917-3.284 9.135-9.066 6.463-11.612-1.181-1.126-4.35-2.559-6.681-3.022l-1.963-.391-.206-1.871c-1.592-14.5-3.947-18.101-11.463-17.53-17.945 1.363-30.295-9.006-30.735-25.807-.107-4.09-.401-4.947-2.158-6.288-3.014-2.301-19.832-.594-31.262 3.174l-2.391.788-1.906-1.764c-3.258-3.017-6.541-3.993-8.724-2.594" fill-rule="evenodd"/></svg>