<svg height="400" viewBox="0 0 400 400" width="400" xmlns="http://www.w3.org/2000/svg"><path d="m13.638 26.878c-10.938.094-10.503.054-11.533 1.048-1.564 1.51-1.769 3.099-.682 5.279 1.679 3.365 91.023 158.283 92.179 159.834 1.086 1.456 4.283 1.821 5.657.645 1.293-1.106.18.777 28.214-47.765 58.012-100.453 65.473-113.524 65.473-114.699 0-1.725-1.05-3.554-2.351-4.097-.725-.302-146.729-.504-176.957-.245m195.357.277c-1.678 1.051-2.233 1.989-2.318 3.916l-.057 1.31 5.679 9.843c76.334 132.277 86.348 149.513 87.78 151.081 1.403 1.537 4.014 1.563 5.463.054.988-1.029 90.575-155.803 92.594-159.97 1.277-2.636.662-4.91-1.697-6.263l-.671-.385-93.054-.001-93.054-.002zm-10.675 43.465c-1.479.842-.392-.946-18.206 29.951-22.087 38.309-43.19 75.167-44.274 77.326-.807 1.608-.708 2.507.387 3.548.719.682-1.745.655 63.628.71l61.931.053.66-.644c1.166-1.139 1.308-1.827.658-3.197-2.389-5.037-60.242-105.414-61.739-107.119-.871-.992-1.998-1.225-3.045-.628m-92.442 134.899c-1.584.899-2.431 2.204-2.524 3.893-.086 1.571-2.08-2.049 19.494 35.398 50.38 87.45 72.62 125.689 73.913 127.089 1.217 1.318 3.96 1.309 5.366-.017 1.526-1.437 90.66-155.903 93.002-161.167.77-1.732-.168-4.132-1.989-5.09-.804-.422-5.105-.443-95.29-.446l-91.367-.003z" fill-rule="evenodd"/></svg>