<svg height="400" viewBox="0 0 400 400" width="400" xmlns="http://www.w3.org/2000/svg"><path d="m165.517 3.16c-2.221.081-5.724.291-7.783.466-9.496.808-21.503 1.054-35.752.733-7.753-.175-9.774-.169-9.897.026-.084.135-.883 1.886-1.774 3.891-6.752 15.186-14.393 27.391-21.838 34.885-16.691 16.798-33.193 6.921-49.068-29.368-2.218-5.071-2.909-6.502-3.14-6.502-.713 0-6.114 13.073-8.06 19.507-24.305 80.389 46.201 158.632 153.667 170.531 6.482.718 19.979 1.674 20.221 1.432.038-.038-1.903-1.712-4.312-3.72-49.308-41.091-66.684-72.269-54.579-97.932l.989-2.096 4.604-3.052c6.614-4.385 27.922-18.921 32.934-22.467 1.384-.98 2.476-1.876 2.427-1.992-5.893-13.843-.613-30.392 11.536-36.159 8.58-4.073 24.489-6.303 35.398-4.961 2.835.348 2.831.424.101-1.947-17.684-15.354-38.981-22.253-65.674-21.275m119.705 8.647c-17.117 17.437-29.703 30.225-55.616 56.508-14.766 14.978-26.847 27.28-26.847 27.339 0 .437 12.62 19.208 12.92 19.217.116.003 3.522-3.371 7.57-7.498l7.359-7.504 34.341 34.341 34.34 34.34-3.585 3.66c-18.49 18.872-23.98 24.523-23.98 24.681 0 .101 1.891 2.948 4.201 6.326 2.311 3.378 5.21 7.628 6.443 9.443s2.294 3.301 2.357 3.301c.22 0 107.862-109.044 110.035-111.468l.968-1.079-7.962-7.963c-4.379-4.38-8.05-7.958-8.159-7.951s-.543.428-.964.936-3.271 3.717-6.332 7.131c-3.062 3.413-5.952 6.663-6.421 7.222l-.854 1.016-26.902-26.767c-44.228-44.005-44.255-44.031-43.799-44.351.731-.513 15.222-13.451 15.222-13.591 0-.21-15.771-15.446-16.031-15.485-.124-.019-3.861 3.669-8.304 8.196m27.568 73.414 34.437 34.581-1.84 1.943c-4.573 4.828-29.244 29.973-29.364 29.929-.075-.026-15.6-15.566-34.501-34.531l-34.365-34.483 15.565-16.01c8.561-8.805 15.58-16.01 15.598-16.01s15.529 15.562 34.47 34.581m-130.49 1.419c-.409.16-21.347 14.38-21.955 14.911-.314.273-.542.675-.542.952 0 .551-.097.432 6.216 7.645 5.97 6.82 8.424 9.773 11.217 13.497 3.383 4.511 33.632 48.82 88.38 129.458 10.006 14.739 25.391 37.395 34.188 50.345 8.797 12.951 26.526 39.109 39.398 58.128 26.086 38.545 23.8 35.271 24.622 35.271.643 0 8.184-9.215 10.005-12.226 2.596-4.294 3.475-9.762 2.106-13.105-.575-1.404-4.737-7.535-58.988-86.885-53.066-77.618-69.637-101.93-89.986-132.02-3.957-5.852-9.486-13.921-12.286-17.931-17.592-25.191-22.649-32.877-29.104-44.237-1.078-1.896-2.019-3.504-2.091-3.574-.214-.206-.899-.339-1.18-.229m-100.058 131.045c-14.839 15.037-36.327 36.827-47.752 48.423-11.426 11.596-22.892 23.222-25.481 25.836l-4.708 4.751 8.092 8.253c4.451 4.54 8.205 8.272 8.343 8.295.137.023.833-.731 1.547-1.675s3.104-3.888 5.312-6.543c2.208-2.656 4.94-5.981 6.072-7.39 1.132-1.408 2.124-2.561 2.205-2.561.126 0 14.937 14.635 61.747 61.013l9.475 9.388-1.672 1.548c-1.424 1.32-8.254 7.717-13.156 12.323-.786.738-1.429 1.405-1.429 1.481 0 .136 15.347 15.668 15.595 15.783.117.055 47.543-47.964 110.11-111.487 14.678-14.901 28.175-28.602 29.995-30.447l3.308-3.353-6.548-9.601c-3.602-5.28-6.604-9.601-6.673-9.602-.068-.001-3.122 3.08-6.787 6.846s-8.015 8.228-9.668 9.915l-3.005 3.069-1.833-1.851c-1.008-1.019-10.848-10.804-21.865-21.746l-20.032-19.894-3.712-.577c-20.567-3.196-40.056-8.729-57.888-16.435-1.403-.606-2.565-1.102-2.582-1.102-.018 0-12.172 12.303-27.01 27.34m83.298 16.244c18.958 18.877 34.444 34.385 34.415 34.462-.03.077-6.482 6.898-14.339 15.159s-14.613 15.386-15.012 15.834l-.727.813-34.581-34.569-34.582-34.569 4.477-4.643c2.462-2.553 8.374-8.721 13.138-13.707 10.506-10.994 12.544-13.103 12.656-13.103.048 0 15.598 15.445 34.555 34.323m-13.04 82.327.356.493-9.384 9.895c-16.579 17.483-20.612 21.696-20.738 21.664-.068-.018-15.654-15.519-34.637-34.448l-34.513-34.415 7.543-7.962c4.149-4.379 10.955-11.571 15.125-15.982l7.582-8.021 34.155 34.142c18.785 18.778 34.315 34.363 34.511 34.634" fill-rule="evenodd"/></svg>