<svg id="svg" version="1.1" xmlns="http://www.w3.org/2000/svg" xmlns:xlink="http://www.w3.org/1999/xlink" width="400" height="400" viewBox="0, 0, 400,400"><g id="svgg"><path id="path0" d="M222.778 2.468 C 217.247 9.036,206.912 22.090,206.765 22.695 C 206.209 24.984,202.087 47.198,202.090 47.893 C 202.096 49.111,206.100 65.534,206.486 65.920 C 207.132 66.566,212.322 63.203,221.982 55.879 C 225.060 53.545,225.030 53.599,226.365 47.988 C 229.703 33.952,229.780 29.366,226.983 11.028 C 225.137 -1.076,225.367 -0.607,222.778 2.468 M95.844 39.889 C 94.335 44.431,94.165 49.215,95.068 61.699 C 95.383 66.043,95.871 73.756,96.153 78.838 L 96.666 88.077 101.839 99.255 L 107.012 110.432 110.266 113.562 C 120.067 122.988,124.675 127.255,124.902 127.115 C 125.224 126.916,126.245 123.565,128.328 115.871 L 129.977 109.779 128.158 102.803 C 122.327 80.451,117.166 69.050,103.208 47.690 C 97.046 38.261,96.557 37.743,95.844 39.889 M216.729 74.968 C 209.829 77.285,208.118 78.658,205.665 83.844 C 201.629 92.378,200.977 95.456,200.539 108.048 L 200.208 117.586 204.398 129.508 C 206.703 136.066,209.758 144.885,211.187 149.106 C 214.553 159.046,214.359 159.056,215.634 148.882 C 218.321 127.448,220.677 103.969,221.766 87.779 C 222.097 82.861,222.506 77.796,222.674 76.523 C 223.140 73.007,222.818 72.923,216.729 74.968 M339.046 78.166 C 324.654 88.836,320.717 92.345,317.890 97.019 C 312.769 105.487,307.969 122.309,309.279 127.198 C 309.549 128.208,310.100 128.052,314.257 125.787 C 324.774 120.055,325.646 119.313,330.896 111.624 C 336.560 103.330,336.962 102.579,337.826 98.659 C 339.880 89.349,341.946 76.593,341.397 76.611 C 341.252 76.616,340.194 77.316,339.046 78.166 M224.870 106.438 C 224.747 106.636,224.536 109.359,224.400 112.490 C 224.027 121.064,223.055 131.960,220.262 158.867 C 217.714 183.407,216.990 191.054,216.990 193.414 L 216.990 195.706 221.684 195.331 C 228.799 194.764,236.658 193.700,237.480 193.192 C 237.895 192.935,239.789 183.593,240.216 179.698 C 240.779 174.561,239.929 170.797,236.520 163.334 C 230.763 150.730,229.067 141.805,230.287 130.533 C 231.204 122.058,231.112 120.950,228.964 114.539 C 226.497 107.180,225.559 105.323,224.870 106.438 M103.726 128.152 C 103.726 128.834,113.379 150.962,116.475 157.377 C 120.504 165.725,132.042 182.170,138.986 189.462 C 143.732 194.446,156.859 205.983,157.291 205.550 C 158.481 204.360,153.469 190.297,145.440 172.301 C 142.776 166.329,139.040 157.761,137.139 153.261 L 133.681 145.080 126.379 140.762 C 107.330 129.497,103.726 127.491,103.726 128.152 M301.582 132.723 C 300.485 134.070,297.907 137.374,295.854 140.066 C 290.421 147.187,287.344 150.800,284.749 153.104 C 280.304 157.051,278.964 158.767,274.707 165.961 C 265.424 181.649,260.404 194.007,253.065 219.243 C 250.070 229.543,250.218 228.912,250.794 228.912 C 251.634 228.912,262.492 220.430,265.989 217.043 C 271.654 211.555,283.149 192.718,287.346 182.047 C 290.461 174.126,293.175 169.728,299.742 161.958 L 303.359 157.679 304.019 154.175 C 306.246 142.354,306.276 140.868,304.450 132.414 C 303.878 129.764,304.005 129.750,301.582 132.723 M203.904 151.064 C 203.597 151.637,200.329 163.782,195.509 182.265 C 191.827 196.383,192.792 194.676,184.413 201.896 L 178.300 207.162 174.769 204.973 C 170.116 202.089,164.053 198.510,163.821 198.510 C 163.105 198.510,168.496 230.033,169.464 231.511 C 171.811 235.093,191.290 255.402,191.974 254.979 C 193.492 254.041,200.843 220.461,207.914 182.161 C 210.577 167.734,210.546 169.836,208.220 161.612 C 205.396 151.620,204.620 149.725,203.904 151.064 M131.446 201.593 C 131.446 213.154,130.496 233.408,128.602 262.283 C 128.199 268.423,127.869 273.607,127.869 273.802 C 127.869 274.572,153.737 291.515,154.481 291.232 C 155.443 290.866,159.135 288.683,169.151 282.557 L 177.794 277.269 188.815 275.709 C 200.007 274.123,200.596 274.020,200.596 273.643 C 200.596 273.021,189.590 260.519,186.887 258.071 C 185.604 256.908,183.786 255.720,181.512 254.558 C 177.443 252.478,177.265 252.305,176.307 249.486 C 175.129 246.024,174.266 244.863,168.988 239.640 C 162.867 233.583,162.264 232.681,155.900 220.055 L 151.061 210.453 142.016 202.228 C 137.041 197.704,132.627 193.733,132.208 193.403 L 131.446 192.803 131.446 201.593 M387.481 203.853 C 373.218 209.447,369.651 210.968,369.314 211.597 C 368.968 212.245,368.224 216.355,367.827 219.821 C 367.321 224.235,366.023 240.042,366.156 240.175 C 366.224 240.242,368.065 239.030,370.248 237.481 C 374.982 234.122,384.208 227.988,390.062 224.307 L 394.283 221.653 396.606 213.137 C 398.851 204.903,399.791 199.323,398.912 199.437 C 398.773 199.455,393.629 201.442,387.481 203.853 M218.792 200.482 C 215.603 200.720,212.956 200.953,212.909 201.000 C 212.863 201.047,212.149 204.965,211.323 209.708 C 209.614 219.521,208.168 225.542,203.685 241.518 L 200.524 252.782 201.744 257.762 C 204.278 268.110,205.583 269.876,209.428 268.166 C 211.233 267.363,211.952 267.227,215.499 267.017 C 223.528 266.542,225.399 265.897,228.284 262.608 C 231.400 259.057,243.148 244.106,245.576 240.601 L 246.254 239.623 244.570 236.839 C 243.644 235.308,242.700 233.438,242.473 232.683 C 241.821 230.519,240.731 213.493,240.847 207.303 C 240.878 205.663,240.888 204.176,240.869 203.997 C 240.821 203.541,238.436 202.291,235.458 201.160 C 232.341 199.976,227.940 199.797,218.792 200.482 M277.496 218.673 C 271.746 222.034,260.206 230.249,260.214 230.977 C 260.225 232.065,267.257 244.120,270.045 247.831 C 272.114 250.585,275.009 253.633,280.411 258.743 L 284.667 262.770 280.395 271.251 C 273.861 284.219,273.709 283.363,282.288 281.911 L 286.037 281.276 287.696 282.502 C 290.160 284.322,293.038 286.140,293.455 286.140 C 294.168 286.140,326.975 237.980,326.975 236.933 C 326.975 236.534,326.060 236.387,319.759 235.774 C 302.630 234.106,303.623 234.457,296.131 227.429 C 291.689 223.263,288.426 220.799,284.509 218.654 C 280.814 216.631,280.989 216.631,277.496 218.673 M356.816 225.328 C 347.105 228.577,338.658 234.207,332.609 241.462 C 324.298 251.430,309.985 270.594,309.985 271.755 C 309.985 272.288,307.862 272.945,329.478 265.723 L 348.214 259.463 351.108 256.036 C 361.348 243.907,361.085 244.350,363.043 235.917 C 364.563 229.372,364.552 226.580,363.002 224.609 C 362.209 223.601,361.850 223.643,356.816 225.328 M254.054 241.938 C 252.766 243.380,249.566 247.040,246.944 250.071 C 235.173 263.675,231.749 266.323,222.299 269.131 C 215.208 271.238,207.303 275.009,207.303 276.285 C 207.303 276.532,208.814 277.480,210.879 278.529 C 215.075 280.660,217.135 281.970,223.476 286.542 C 231.396 292.252,231.420 292.260,243.673 293.445 C 255.599 294.598,255.817 294.558,260.813 290.299 C 267.519 284.584,270.504 281.169,275.085 273.975 L 278.152 269.160 274.898 264.759 C 273.109 262.338,271.130 259.620,270.503 258.718 C 269.875 257.817,268.416 256.274,267.260 255.291 C 261.349 250.259,261.180 250.030,258.718 243.734 C 256.727 238.643,256.928 238.720,254.054 241.938 M1.972 258.789 C 2.117 259.042,4.855 262.047,8.058 265.466 C 15.535 273.451,17.088 275.240,23.362 283.082 C 33.515 295.775,32.080 294.862,43.368 295.816 C 44.516 295.913,54.344 296.794,65.208 297.773 C 87.526 299.784,85.544 299.636,85.544 299.287 C 85.544 298.991,78.652 292.499,60.859 276.037 L 48.842 264.918 32.394 262.726 C 16.979 260.672,4.818 258.952,2.652 258.518 C 1.858 258.360,1.750 258.403,1.972 258.789 M73.635 272.116 C 74.961 274.007,77.229 276.082,80.173 278.098 C 82.671 279.808,83.663 281.019,84.823 283.774 C 86.250 287.161,88.811 290.930,94.338 297.776 L 98.963 303.505 98.804 306.223 C 98.524 310.992,98.063 323.159,98.063 325.793 L 98.063 328.337 103.055 331.067 C 125.021 343.081,143.387 351.954,144.705 351.190 C 146.118 350.371,164.102 327.699,165.683 324.744 C 166.249 323.686,166.319 323.076,166.319 319.188 L 166.319 314.821 162.964 311.991 C 157.126 307.065,156.500 306.236,154.692 301.043 L 153.602 297.914 147.815 294.982 C 123.684 282.761,114.868 278.028,109.538 274.434 L 105.961 272.023 94.039 271.363 C 87.481 271.001,79.915 270.605,77.225 270.483 L 72.335 270.262 73.635 272.116 M181.810 281.798 C 178.992 282.785,178.024 283.348,176.207 285.060 C 174.846 286.342,164.241 298.902,163.526 300.079 C 163.098 300.784,167.920 309.260,173.569 317.735 C 177.643 323.847,187.511 337.775,187.661 337.625 C 188.716 336.570,189.651 310.560,188.853 304.471 C 187.927 297.406,187.998 296.868,191.215 286.513 C 191.839 284.505,192.282 282.794,192.200 282.711 C 190.835 281.347,184.652 280.804,181.810 281.798 M272.578 293.985 C 263.177 299.698,262.078 300.451,262.659 300.776 C 262.902 300.912,268.788 302.712,275.738 304.776 C 296.955 311.077,302.170 312.914,305.419 315.230 C 308.219 317.226,308.181 317.269,310.001 309.985 C 312.113 301.527,311.600 299.615,305.871 294.592 C 301.316 290.599,301.823 290.791,295.253 290.566 C 290.353 290.398,285.920 290.088,281.222 289.584 C 280.119 289.466,279.472 289.795,272.578 293.985 M200.596 291.729 C 200.186 291.999,197.991 293.556,195.718 295.189 L 191.585 298.158 191.775 304.146 C 191.880 307.439,192.098 314.359,192.259 319.523 C 192.915 340.556,194.338 347.767,202.965 373.770 C 205.926 382.693,213.599 399.702,214.663 399.702 C 215.099 399.702,214.841 395.574,213.867 386.988 C 213.455 383.356,211.774 367.663,210.132 352.114 C 205.330 306.652,203.819 295.164,202.245 292.120 C 201.707 291.079,201.616 291.057,200.596 291.729 M211.028 293.325 C 211.028 295.020,217.954 302.709,224.739 308.547 C 234.180 316.670,235.426 317.087,290.156 330.419 C 302.663 333.466,301.248 333.454,308.539 330.565 C 313.782 328.486,315.112 327.775,314.880 327.170 C 314.579 326.386,308.780 323.771,276.304 309.770 C 249.188 298.080,251.147 298.677,230.551 295.832 C 216.451 293.885,212.567 293.297,211.750 292.987 C 211.132 292.751,211.028 292.800,211.028 293.325 M209.920 309.121 C 210.204 315.562,213.002 338.514,214.603 347.549 C 215.788 354.232,216.417 359.149,217.416 369.547 C 217.973 375.339,218.500 380.150,218.589 380.238 C 218.677 380.326,222.205 380.607,226.430 380.861 L 234.111 381.325 239.740 385.778 C 248.285 392.539,250.586 394.104,251.372 393.690 C 252.235 393.235,257.139 389.426,261.722 385.651 C 281.171 369.630,280.033 370.399,284.778 370.077 C 286.406 369.966,288.740 369.727,289.965 369.545 L 292.192 369.214 292.004 363.668 C 291.842 358.876,290.464 341.007,290.242 340.829 C 290.199 340.794,287.280 338.687,283.756 336.147 L 277.347 331.529 272.578 331.015 C 265.592 330.262,260.200 329.291,253.640 327.607 C 249.934 326.655,246.040 325.884,242.933 325.486 C 231.362 324.003,228.044 322.229,220.198 313.329 C 215.746 308.280,212.895 305.905,210.609 305.342 L 209.743 305.128 209.920 309.121 M169.847 326.900 C 168.927 327.897,164.288 333.719,154.888 345.673 L 147.801 354.685 150.943 358.861 C 154.377 363.425,155.287 364.967,155.297 366.233 C 155.307 367.509,156.391 372.133,156.921 373.157 C 157.699 374.662,168.536 379.366,184.710 385.220 C 191.604 387.715,190.715 387.775,195.231 384.507 C 196.133 383.854,197.432 383.102,198.118 382.834 C 199.753 382.197,199.831 381.877,198.936 379.499 C 198.521 378.398,197.505 374.747,196.678 371.386 C 193.163 357.104,190.577 350.729,186.577 346.492 C 184.233 344.010,181.640 340.535,177.083 333.775 C 171.889 326.070,171.209 325.424,169.847 326.900 " stroke="none" fill="#000000" fill-rule="evenodd"></path></g></svg>