<svg height="400" viewBox="0 0 400 400" width="400" xmlns="http://www.w3.org/2000/svg"><path d="m222.778 2.468c-5.531 6.568-15.866 19.622-16.013 20.227-.556 2.289-4.678 24.503-4.675 25.198.006 1.218 4.01 17.641 4.396 18.027.646.646 5.836-2.717 15.496-10.041 3.078-2.334 3.048-2.28 4.383-7.891 3.338-14.036 3.415-18.622.618-36.96-1.846-12.104-1.616-11.635-4.205-8.56m-126.934 37.421c-1.509 4.542-1.679 9.326-.776 21.81.315 4.344.803 12.057 1.085 17.139l.513 9.239 5.173 11.178 5.173 11.177 3.254 3.13c9.801 9.426 14.409 13.693 14.636 13.553.322-.199 1.343-3.55 3.426-11.244l1.649-6.092-1.819-6.976c-5.831-22.352-10.992-33.753-24.95-55.113-6.162-9.429-6.651-9.947-7.364-7.801m120.885 35.079c-6.9 2.317-8.611 3.69-11.064 8.876-4.036 8.534-4.688 11.612-5.126 24.204l-.331 9.538 4.19 11.922c2.305 6.558 5.36 15.377 6.789 19.598 3.366 9.94 3.172 9.95 4.447-.224 2.687-21.434 5.043-44.913 6.132-61.103.331-4.918.74-9.983.908-11.256.466-3.516.144-3.6-5.945-1.555m122.317 3.198c-14.392 10.67-18.329 14.179-21.156 18.853-5.121 8.468-9.921 25.29-8.611 30.179.27 1.01.821.854 4.978-1.411 10.517-5.732 11.389-6.474 16.639-14.163 5.664-8.294 6.066-9.045 6.93-12.965 2.054-9.31 4.12-22.066 3.571-22.048-.145.005-1.203.705-2.351 1.555m-114.176 28.272c-.123.198-.334 2.921-.47 6.052-.373 8.574-1.345 19.47-4.138 46.377-2.548 24.54-3.272 32.187-3.272 34.547v2.292l4.694-.375c7.115-.567 14.974-1.631 15.796-2.139.415-.257 2.309-9.599 2.736-13.494.563-5.137-.287-8.901-3.696-16.364-5.757-12.604-7.453-21.529-6.233-32.801.917-8.475.825-9.583-1.323-15.994-2.467-7.359-3.405-9.216-4.094-8.101m-121.144 21.714c0 .682 9.653 22.81 12.749 29.225 4.029 8.348 15.567 24.793 22.511 32.085 4.746 4.984 17.873 16.521 18.305 16.088 1.19-1.19-3.822-15.253-11.851-33.249-2.664-5.972-6.4-14.54-8.301-19.04l-3.458-8.181-7.302-4.318c-19.049-11.265-22.653-13.271-22.653-12.61m197.856 4.571c-1.097 1.347-3.675 4.651-5.728 7.343-5.433 7.121-8.51 10.734-11.105 13.038-4.445 3.947-5.785 5.663-10.042 12.857-9.283 15.688-14.303 28.046-21.642 53.282-2.995 10.3-2.847 9.669-2.271 9.669.84 0 11.698-8.482 15.195-11.869 5.665-5.488 17.16-24.325 21.357-34.996 3.115-7.921 5.829-12.319 12.396-20.089l3.617-4.279.66-3.504c2.227-11.821 2.257-13.307.431-21.761-.572-2.65-.445-2.664-2.868.309m-97.678 18.341c-.307.573-3.575 12.718-8.395 31.201-3.682 14.118-2.717 12.411-11.096 19.631l-6.113 5.266-3.531-2.189c-4.653-2.884-10.716-6.463-10.948-6.463-.716 0 4.675 31.523 5.643 33.001 2.347 3.582 21.826 23.891 22.51 23.468 1.518-.938 8.869-34.518 15.94-72.818 2.663-14.427 2.632-12.325.306-20.549-2.824-9.992-3.6-11.887-4.316-10.548m-72.458 50.529c0 11.561-.95 31.815-2.844 60.69-.403 6.14-.733 11.324-.733 11.519 0 .77 25.868 17.713 26.612 17.43.962-.366 4.654-2.549 14.67-8.675l8.643-5.288 11.021-1.56c11.192-1.586 11.781-1.689 11.781-2.066 0-.622-11.006-13.124-13.709-15.572-1.283-1.163-3.101-2.351-5.375-3.513-4.069-2.08-4.247-2.253-5.205-5.072-1.178-3.462-2.041-4.623-7.319-9.846-6.121-6.057-6.724-6.959-13.088-19.585l-4.839-9.602-9.045-8.225c-4.975-4.524-9.389-8.495-9.808-8.825l-.762-.6zm256.035 2.26c-14.263 5.594-17.83 7.115-18.167 7.744-.346.648-1.09 4.758-1.487 8.224-.506 4.414-1.804 20.221-1.671 20.354.068.067 1.909-1.145 4.092-2.694 4.734-3.359 13.96-9.493 19.814-13.174l4.221-2.654 2.323-8.516c2.245-8.234 3.185-13.814 2.306-13.7-.139.018-5.283 2.005-11.431 4.416m-168.689-3.371c-3.189.238-5.836.471-5.883.518-.046.047-.76 3.965-1.586 8.708-1.709 9.813-3.155 15.834-7.638 31.81l-3.161 11.264 1.22 4.98c2.534 10.348 3.839 12.114 7.684 10.404 1.805-.803 2.524-.939 6.071-1.149 8.029-.475 9.9-1.12 12.785-4.409 3.116-3.551 14.864-18.502 17.292-22.007l.678-.978-1.684-2.784c-.926-1.531-1.87-3.401-2.097-4.156-.652-2.164-1.742-19.19-1.626-25.38.031-1.64.041-3.127.022-3.306-.048-.456-2.433-1.706-5.411-2.837-3.117-1.184-7.518-1.363-16.666-.678m58.704 18.191c-5.75 3.361-17.29 11.576-17.282 12.304.011 1.088 7.043 13.143 9.831 16.854 2.069 2.754 4.964 5.802 10.366 10.912l4.256 4.027-4.272 8.481c-6.534 12.968-6.686 12.112 1.893 10.66l3.749-.635 1.659 1.226c2.464 1.82 5.342 3.638 5.759 3.638.713 0 33.52-48.16 33.52-49.207 0-.399-.915-.546-7.216-1.159-17.129-1.668-16.136-1.317-23.628-8.345-4.442-4.166-7.705-6.63-11.622-8.775-3.695-2.023-3.52-2.023-7.013.019m79.32 6.655c-9.711 3.249-18.158 8.879-24.207 16.134-8.311 9.968-22.624 29.132-22.624 30.293 0 .533-2.123 1.19 19.493-6.032l18.736-6.26 2.894-3.427c10.24-12.129 9.977-11.686 11.935-20.119 1.52-6.545 1.509-9.337-.041-11.308-.793-1.008-1.152-.966-6.186.719m-102.762 16.61c-1.288 1.442-4.488 5.102-7.11 8.133-11.771 13.604-15.195 16.252-24.645 19.06-7.091 2.107-14.996 5.878-14.996 7.154 0 .247 1.511 1.195 3.576 2.244 4.196 2.131 6.256 3.441 12.597 8.013 7.92 5.71 7.944 5.718 20.197 6.903 11.926 1.153 12.144 1.113 17.14-3.146 6.706-5.715 9.691-9.13 14.272-16.324l3.067-4.815-3.254-4.401c-1.789-2.421-3.768-5.139-4.395-6.041-.628-.901-2.087-2.444-3.243-3.427-5.911-5.032-6.08-5.261-8.542-11.557-1.991-5.091-1.79-5.014-4.664-1.796m-252.082 16.851c.145.253 2.883 3.258 6.086 6.677 7.477 7.985 9.03 9.774 15.304 17.616 10.153 12.693 8.718 11.78 20.006 12.734 1.148.097 10.976.978 21.84 1.957 22.318 2.011 20.336 1.863 20.336 1.514 0-.296-6.892-6.788-24.685-23.25l-12.017-11.119-16.448-2.192c-15.415-2.054-27.576-3.774-29.742-4.208-.794-.158-.902-.115-.68.271m71.663 13.327c1.326 1.891 3.594 3.966 6.538 5.982 2.498 1.71 3.49 2.921 4.65 5.676 1.427 3.387 3.988 7.156 9.515 14.002l4.625 5.729-.159 2.718c-.28 4.769-.741 16.936-.741 19.57v2.544l4.992 2.73c21.966 12.014 40.332 20.887 41.65 20.123 1.413-.819 19.397-23.491 20.978-26.446.566-1.058.636-1.668.636-5.556v-4.367l-3.355-2.83c-5.838-4.926-6.464-5.755-8.272-10.948l-1.09-3.129-5.787-2.932c-24.131-12.221-32.947-16.954-38.277-20.548l-3.577-2.411-11.922-.66c-6.558-.362-14.124-.758-16.814-.88l-4.89-.221zm108.175 9.682c-2.818.987-3.786 1.55-5.603 3.262-1.361 1.282-11.966 13.842-12.681 15.019-.428.705 4.394 9.181 10.043 17.656 4.074 6.112 13.942 20.04 14.092 19.89 1.055-1.055 1.99-27.065 1.192-33.154-.926-7.065-.855-7.603 2.362-17.958.624-2.008 1.067-3.719.985-3.802-1.365-1.364-7.548-1.907-10.39-.913m90.768 12.187c-9.401 5.713-10.5 6.466-9.919 6.791.243.136 6.129 1.936 13.079 4 21.217 6.301 26.432 8.138 29.681 10.454 2.8 1.996 2.762 2.039 4.582-5.245 2.112-8.458 1.599-10.37-4.13-15.393-4.555-3.993-4.048-3.801-10.618-4.026-4.9-.168-9.333-.478-14.031-.982-1.103-.118-1.75.211-8.644 4.401m-71.982-2.256c-.41.27-2.605 1.827-4.878 3.46l-4.133 2.969.19 5.988c.105 3.293.323 10.213.484 15.377.656 21.033 2.079 28.244 10.706 54.247 2.961 8.923 10.634 25.932 11.698 25.932.436 0 .178-4.128-.796-12.714-.412-3.632-2.093-19.325-3.735-34.874-4.802-45.462-6.313-56.95-7.887-59.994-.538-1.041-.629-1.063-1.649-.391m10.432 1.596c0 1.695 6.926 9.384 13.711 15.222 9.441 8.123 10.687 8.54 65.417 21.872 12.507 3.047 11.092 3.035 18.383.146 5.243-2.079 6.573-2.79 6.341-3.395-.301-.784-6.1-3.399-38.576-17.4-27.116-11.69-25.157-11.093-45.753-13.938-14.1-1.947-17.984-2.535-18.801-2.845-.618-.236-.722-.187-.722.338m-1.108 15.796c.284 6.441 3.082 29.393 4.683 38.428 1.185 6.683 1.814 11.6 2.813 21.998.557 5.792 1.084 10.603 1.173 10.691.088.088 3.616.369 7.841.623l7.681.464 5.629 4.453c8.545 6.761 10.846 8.326 11.632 7.912.863-.455 5.767-4.264 10.35-8.039 19.449-16.021 18.311-15.252 23.056-15.574 1.628-.111 3.962-.35 5.187-.532l2.227-.331-.188-5.546c-.162-4.792-1.54-22.661-1.762-22.839-.043-.035-2.962-2.142-6.486-4.682l-6.409-4.618-4.769-.514c-6.986-.753-12.378-1.724-18.938-3.408-3.706-.952-7.6-1.723-10.707-2.121-11.571-1.483-14.889-3.257-22.735-12.157-4.452-5.049-7.303-7.424-9.589-7.987l-.866-.214zm-40.073 17.779c-.92.997-5.559 6.819-14.959 18.773l-7.087 9.012 3.142 4.176c3.434 4.564 4.344 6.106 4.354 7.372.01 1.276 1.094 5.9 1.624 6.924.778 1.505 11.615 6.209 27.789 12.063 6.894 2.495 6.005 2.555 10.521-.713.902-.653 2.201-1.405 2.887-1.673 1.635-.637 1.713-.957.818-3.335-.415-1.101-1.431-4.752-2.258-8.113-3.515-14.282-6.101-20.657-10.101-24.894-2.344-2.482-4.937-5.957-9.494-12.717-5.194-7.705-5.874-8.351-7.236-6.875" fill-rule="evenodd"/></svg>