<svg height="1000" viewBox="0 0 1000 1000" width="1000" xmlns="http://www.w3.org/2000/svg" xmlns:xlink="http://www.w3.org/1999/xlink"><clipPath id="a"><path d="m0 56h1000v887.92h-1000z"/></clipPath><g clip-path="url(#a)"><path d="m951.5 507.9-3.6 119.9 20.9 23.9-24.8 157.1-144.5 27.2-48.8 42-72.2-12.9-57.3 15.6-87.8 63.2-138.7-55.1 12.3-118.1 98.8 18 84.6-1.5 23.6 56 122.9-31.7 144.1-124.4 39.3-196.3c3.8-18.8 5.3-38.1 4.6-57.3-.8-19.2-3.8-38.3-8.9-56.8-5.2-18.6-12.6-36.4-21.9-53.2-9.4-16.8-20.7-32.5-33.7-46.6l-36.3-39.3-125.3-18.3s-91.7-63.5-104.9-72.2l-104.8-28.2-235.3 78.2-38.9-5.9-104 218.1 13.5 107-77.4 131.8-47-135.1 83-153.4 38.7-171.7 31.7-8.4 24-95.6 113.9 36.2 71.9-4.2 105.5-59.9 128.8 25.8 14.7 15.6 83-30 127.4 56 2.7 66.6 88.4 96.1 86.3 46.5-5.4 104.9-42.2 65.3zm-865.8 5.4-45.8 14.1 10.7 42.8zm196.6-370.4-84.8-26.9-5.4 16.2 30 29.9zm511.2-.6-74.3 33.6 22.2 14.1 33.6 4.8zm-215.5 722.8-8.7-46.5-52.1 1.5 12.5 83.3zm356.6-175.3-65.6 60 50.4 15.5z" fill-rule="evenodd"/><path d="m313.2 857.9c-27.6 9.9-46.5-16.2-70.5-22.8-11-2.7-21.8-6.4-32.1-11.2-10.4-4.7-20.3-10.4-29.5-17-9.3-6.6-18-14-25.9-22.2s-15-17.1-21.2-26.6c-14.1-8.7-20.1 0-20.1 0q.8-5.8 1.1-11.7.3-6 0-11.9-.2-5.9-.9-11.8-.8-5.8-2-11.6c-5.4-10.5-19.2 0-19.2 0q1.3-5.3 3.4-10.4 2.1-5 5-9.6 2.9-4.6 6.5-8.7 3.7-4.1 7.9-7.6c9.3-6.3 10.2-59.9 12.9-72.5q2.8-8.3 6.8-16.1 4-7.8 9-14.9 5-7.2 11-13.7 5.9-6.4 12.7-11.9c2.1 41.3-5.1 125.2 43.5 159.4 33.2 23.7 47.9 1.8 89.9 37.1 41.9 35.4 38.9 104.6 11.4 114.2m526.2-343.7c-1.5 13.5 0 32.1 0 39.6-5.7 163.3-62.1 167.2-89.9 171.1-21 2.7-48.6 0-40.5-18.9q5.5-17.6 9.6-35.6 4-18 6.6-36.3 2.6-18.2 3.7-36.6 1.2-18.4.8-36.9c0-59.9-13.8-129.7-22.8-124s0 93.8-3.3 128.2c-5.7 91.7-16.5 122.9-37.7 143.6-7.1 5.8-15.1 10.5-23.7 13.8-8.5 3.3-17.6 5.3-26.8 5.7s-18.3-.6-27.2-3.1c-8.8-2.5-17.2-6.4-24.8-11.6-15-9.9 0-82.7 1.5-144.2 3.9-104.5-12.3-172.6-20.7-171.1s0 100.1-6.9 202.6c-5.1 86.3 2.4 116.3-73.4 121.7s-83.6-44.7-89.9-130.7c-13.8-164.8 17.4-205.3 8.1-212.2-14.7-10.7-30 43.2-36.3 95.9q-1.1 23.8-1.1 47.5.1 23.7 1.2 47.5 1.2 23.7 3.5 47.3 2.3 23.6 5.7 47.1c2.3 15.7 7.2 36-62 32.1-92.6-5.1-106.7-24-100.7-206.5 1.5-14.4-8.1-29.9-21-18-1.7-3.3-3-6.9-3.8-10.6-.8-3.8-1-7.6-.8-11.4.3-3.7 1.1-7.5 2.3-11.1 1.3-3.5 3.1-6.9 5.3-10 21.9-30 30-59.9 2.1-62.6 6.3-27.9 32.1-26.7 39.6-41.1 9.9-19.2 8.1-31.8 32-53.3 24-21.6 60-21.3 66.3-44.1 5.9 4.4 12.3 8.1 19.1 10.9 6.7 2.9 13.8 5 21.1 6.3 7.2 1.3 14.6 1.7 22 1.3 7.3-.4 14.6-1.7 21.7-3.8q14.3-8.4 29.2-15.6 14.9-7.2 30.4-13.2 15.5-6 31.4-10.7 15.9-4.7 32.1-8.2c1.8 5.1 4.3 9.9 7.4 14.2 3.1 4.4 6.7 8.4 10.8 11.8s8.7 6.2 13.6 8.4c4.8 2.2 10 3.8 15.3 4.6q4.7.3 9.4.2 4.8-.1 9.5-.6 4.7-.5 9.3-1.4 4.7-.8 9.2-2.1c2.2 4.6 5 8.8 8.4 12.6 3.3 3.8 7.3 7.1 11.6 9.7 4.3 2.7 9 4.7 13.9 6s9.9 1.8 15 1.7c45.8 4.2 61.4 38.9 75.8 46.7q7.1 2.7 14.6 4.4 7.4 1.7 15 2.4 7.6.8 15.2.6 7.6-.2 15.1-1.4c4-.1 7.9.1 11.8.8 3.9.6 7.7 1.7 11.4 3.1 3.7 1.5 7.2 3.3 10.5 5.4 3.3 2.2 6.4 4.7 9.2 7.5-6.6 1.8-27.3 7.2-27.9 17.7 4.5 9.9 36.6 14.7 49.5 56.9 0 0-13.5-9-19.8 16.5q-.2 1.2-.3 2.3-.1 1.2-.1 2.3 0 1.2.1 2.4.1 1.1.3 2.3.2 1.1.5 2.2.2 1.1.4 2.3.1 1.1.3 2.2.2 1.1.3 2.3c5.1 21.3 23.1 43.7 24.3 57.2q-3.2 1.2-6.2 2.8-2.9 1.7-5.5 3.8-2.6 2.2-4.8 4.7-2.2 2.6-3.9 5.5"/></g></svg>