<svg height="400" viewBox="0 0 400 400" width="400" xmlns="http://www.w3.org/2000/svg">
    <path
        d="m129.591 2.701c-4.044 1.491-6.036 2.986-11.524 8.651-55.513 57.302-95.485 129.09-114.402 205.464l-2.065 8.335v6.948 6.947l2.822 5.837c32.961 68.168 94.993 123.996 167.738 150.96 12.424 4.605 15.733 3.349 24.062-9.138 20.538-30.793 31.687-66.652 30.837-99.185-1.054-40.324-7.511-63.711-30.658-111.04-15.644-31.988-19.939-42.923-23.126-58.88-5.377-26.927-.12-61.561 13.917-91.68 2.652-5.691 2.93-7.347 1.652-9.84-1.295-2.526-1.348-2.544-24.579-8.422l-21.385-5.411-6.08.019c-4.155.013-6.438.151-7.209.435m152.969 7.099c-4.782.233-14.736 1.128-22.88 2.058-4.576.523-9.04 1.022-9.92 1.11s-4.336.449-7.68.803c-3.344.353-10 .915-14.792 1.248-15.655 1.09-16.574 2.217-18.948 23.252-1.262 11.19-1.603 22.478-.975 32.289.169 2.64.455 7.824.636 11.52 1.025 20.981 4.391 32.932 16.211 57.559 11.086 23.098 14.241 30.197 17.839 40.145 5.554 15.355 9.625 31.34 12.174 47.795.454 2.936.965 6.032 1.135 6.88.169.848.402 5.789.516 10.981 1.122 50.895-14.68 101.598-44.703 143.429-3.538 4.929-3.966 5.858-3.496 7.593 1.073 3.969 3.435 4.352 10.787 1.747 77.661-27.512 139.678-80.54 178.456-152.592l2.593-4.817-.073-5.76c-1.029-81.238-30.876-153.178-87.274-210.352-13.954-14.147-16.677-15.516-29.606-14.888m-54.88 42.835c4.575.599 13.392 2.699 19.597 4.669 63.037 20.016 102.083 80.779 92.519 143.976-1.821 12.032.56 25.93 5.941 34.673l.759 1.234-.743 2.766c-2.352 8.758-8.125 17.2-15.673 22.92l-2.24 1.698-1.224 3.954c-10.031 32.402-33.166 60.375-64.422 77.891-4.224 2.367-5.115 2.622-6.634 1.901-2.5-1.186-2.703-4.135-.576-8.367 20.874-41.525 26.714-91.122 16.339-138.762l-.961-4.413 1.709-2.307c11.427-15.429 13.15-34.209 4.733-51.588-6.751-13.939-20.249-22.234-36.19-22.239l-4.026-.001-1.33-4.24c-1.141-3.638-2.732-9.811-3.413-13.239-.252-1.271-.23-1.279 4.86-1.742 22.533-2.053 41.533 9.381 52.412 31.541 15.015 30.583 18.925 62.491 11.661 95.163-4.089 18.397 1.838 28.01 15.312 24.834 5.101-1.203 6.201-2.755 2.388-3.369-4.796-.773-7.727-2.308-9.318-4.883l-.645-1.044 1.237-4.791c10.334-40.013 7.513-83.364-7.932-121.91-3.143-7.843-3.627-8.746-6.687-12.48-15.882-19.376-40.959-31.2-66.172-31.2-4.807 0-4.331 1.159-4.332-10.558 0-9.602.094-10.667.928-10.439.288.079 1.243.237 2.123.352m-71.399 4.245c-.29 2.348-.961 5.186-2.669 11.28-.863 3.08-1.647 5.968-1.741 6.417-.134.638-.577.98-2.021 1.562-16.64 6.701-31.626 22.466-37.5 39.451l-.965 2.789 2.037 4.485c12.291 27.073 34.284 50.322 61.168 64.662l2.589 1.381 3.383 6.587c17.14 33.369 26.339 69.37 27.315 106.906.46 17.668-4.01 37.517-12.363 54.901-3.519 7.324-8.151 9.949-15.26 8.648-35.728-6.537-57.942-23.281-77.81-58.648-1.6-2.848-6.312-11.776-10.471-19.84-9.96-19.31-9.378-18.31-11.508-19.777-6.565-4.521-13.495-14.053-16.201-22.279l-1.011-3.076 1.477-3.324c4.549-10.239 6.115-21.772 4.255-31.339-11.593-59.646 22.843-123.401 80.775-149.549 2.2-.993 4.432-2.011 4.96-2.261 1.61-.763 1.768-.659 1.561 1.024m-57.025 95.043c-3.667 14.75-5.314 37.244-3.635 49.677 1.294 9.586 9.306 17.078 30.459 28.484 20.649 11.135 26.518 16.927 32.097 31.676 6.278 16.598 4.345 26.115-5.657 27.857-6.631 1.154-10.182-1.182-13.154-8.657-2.842-7.147-4.03-8.277-7.609-7.236-5.991 1.741-7.327 10.689-2.692 18.03 7.117 11.27 21.552 15.251 29.551 8.149 20.618-18.307 21.666-50.188 2.322-70.623-14.563-15.384-41.474-52.011-56.781-77.28-1.546-2.552-2.979-4.825-3.186-5.051-.293-.32-.672.78-1.715 4.974"
        fill-rule="evenodd" />
</svg>