<svg xmlns="http://www.w3.org/2000/svg" width="400" height="400" viewBox="0 0 400 400"><path fill-rule="evenodd" d="M253.522 18.241c-.76.657-1.296 2.007-2.536 6.389-.864 3.055-2.096 6.639-2.737 7.963s-1.512 3.293-1.934 4.376-1.391 2.9-2.153 4.038a170 170 0 0 0-2.556 3.957c-3.297 5.31-10.589 11.824-17.902 15.991a734 734 0 0 0-5.175 2.987c-1.522.888-3.47 1.883-4.328 2.211-2.506.957-2.519 2.648-.03 3.743 2.745 1.208 8.594 4.276 9.533 5 .509.393 1.926 1.351 3.148 2.129s3.052 2.182 4.066 3.121c1.014.938 1.953 1.706 2.087 1.706.361 0 7.425 7.863 7.649 8.515.106.307.844 1.348 1.639 2.313 1.525 1.849 5.114 8.42 5.114 9.36 0 .304.146.553.324.553.584 0 3.101 7.361 3.949 11.548.859 4.24 1.154 4.733 2.835 4.742 1.279.007 1.267.033 1.934-4.091.534-3.305 1.478-6.751 2.074-7.57.148-.203.483-1.037.743-1.852.871-2.723 3.946-8.93 5.869-11.847 1.046-1.587 1.902-3.015 1.902-3.175s1.042-1.461 2.315-2.892c1.273-1.432 2.704-3.113 3.179-3.737.476-.623 1.642-1.662 2.593-2.308.95-.646 1.847-1.37 1.993-1.609.23-.374 2.949-2.205 7.698-5.182 2.761-1.731 3.96-2.33 5.926-2.958 4.992-1.596 5.614-3.131 1.944-4.798-1.171-.532-2.395-1.112-2.719-1.289-.324-.178-2.373-1.287-4.553-2.465-2.181-1.178-4.582-2.668-5.337-3.312s-1.939-1.462-2.632-1.819c-5.837-3.005-14.117-15.844-17.684-27.423-.503-1.63-1.015-3.213-1.138-3.519a7 7 0 0 1-.262-.741c-.021-.102-.144-.352-.274-.555-.129-.204-.528-1.847-.886-3.652-.873-4.401-1.853-5.426-3.678-3.848m-96.259 32.61c-.488.489-1.054 1.692-1.271 2.707-.216 1.005-.651 2.324-.968 2.931s-.576 1.325-.577 1.595c-.004.901-3.329 9.011-4.102 10.008-.42.54-1.711 2.434-2.869 4.208-2.523 3.864-8.161 9.207-11.644 11.034-1.272.667-2.649 1.515-3.059 1.884-.409.369-2.349 1.431-4.309 2.36-4.101 1.942-4.626 2.4-4.032 3.509.225.421.62.765.878.765.681 0 6.211 2.745 7.179 3.564.452.382 1.859 1.278 3.126 1.991 6.153 3.463 14.239 13.489 17.473 21.667.967 2.445 1.896 4.7 2.065 5.012s.421 1.146.558 1.852c.935 4.8.936 4.803 2.272 4.803 1.112 0 1.265-.127 1.454-1.204 2.449-13.986 11.507-27.743 21.634-32.858.894-.452 1.964-1.136 2.377-1.521s1.515-.98 2.448-1.322c4.254-1.561 4.162-1.497 4.036-2.797-.127-1.298.014-1.198-4.747-3.371-12.128-5.536-19.856-15.398-23.562-30.07-1.799-7.125-2.656-8.45-4.36-6.747m34.374 66.89c-2.75.991-3.424 1.529-6.859 5.477-1.711 1.966-5.321 6.005-8.022 8.975s-5.733 6.316-6.738 7.437c-1.006 1.12-4.129 4.569-6.942 7.663a2775 2775 0 0 0-10.669 11.828c-5.801 6.475-6.322 7.051-13.21 14.583-2.328 2.546-5.49 6.077-7.026 7.847-1.536 1.769-4.778 5.394-7.204 8.056a2832 2832 0 0 0-9.333 10.301 3289 3289 0 0 1-7.111 7.87 3678 3678 0 0 0-14.056 15.555 1359 1359 0 0 1-5.675 6.297c-15.386 16.971-15.834 17.59-17.333 23.949-3.587 15.213-4.5 30.182-2.595 42.532 1.159 7.518 3.346 16.978 4.067 17.593.119.102.963 1.675 1.875 3.497s2.008 3.738 2.435 4.259 1.299 1.697 1.937 2.614c.637.917 2.328 2.898 3.758 4.402l2.599 2.736 6.889 1.384c8.085 1.624 8.032 1.593 6.301 3.738-.722.896-2.049 2.712-2.949 4.036s-2.15 2.991-2.779 3.704-1.144 1.404-1.144 1.536c-.001.132-.878 1.382-1.951 2.778-5.74 7.474-6.663 9.597-4.581 10.546.845.385 11.55-2.309 12.086-3.042.102-.139 3.852-1.305 8.334-2.591s8.231-2.453 8.333-2.592c.305-.416 9.155-2.931 10.315-2.931.97 0 1.223.292 2.641 3.055.863 1.681 1.809 3.328 2.102 3.66s.831 1.165 1.196 1.852c2.745 5.164 3.885 7.199 4.121 7.359.15.102.919 1.412 1.709 2.911 2.196 4.173 3.721 5.377 5.775 4.562.35-.139 2.221-2.502 4.156-5.252a831 831 0 0 1 5.134-7.221c.888-1.223 2.14-3.065 2.782-4.096.641-1.03 1.544-2.221 2.006-2.646l.841-.773 7.778 2.242c4.277 1.234 7.861 2.349 7.963 2.479.101.13 3.851 1.289 8.333 2.576 4.481 1.286 8.231 2.449 8.333 2.584.102.134 3.636 1.219 7.853 2.409 4.217 1.191 8.081 2.379 8.586 2.641.506.263 3.056 1.071 5.666 1.798 2.611.726 5.985 1.741 7.497 2.257 4.75 1.617 5.33 1.344 10.644-5.025.782-.937 3.421-4.006 5.865-6.822s4.935-5.716 5.534-6.445 1.849-2.186 2.778-3.236c.928-1.05 2.938-3.346 4.466-5.103s3.861-4.436 5.185-5.953 3.491-4.021 4.815-5.563a814 814 0 0 1 4.445-5.129c1.12-1.28 3.314-3.814 4.876-5.631l6.976-8.12c2.276-2.648 4.593-5.315 5.15-5.926s1.894-2.194 2.97-3.518 2.239-2.658 2.585-2.963c.345-.306 1.597-1.764 2.781-3.241s2.297-2.685 2.472-2.685.56-.459.854-1.019 1.461-1.983 2.592-3.162 2.186-2.374 2.344-2.655c.159-.282 1.244-1.567 2.411-2.856 1.168-1.29 4.117-4.679 6.555-7.53s5.399-6.241 6.581-7.531c1.182-1.289 2.298-2.623 2.481-2.963s1.265-1.64 2.407-2.889a249 249 0 0 0 4.668-5.319c2.493-2.93 3.626-4.237 8.541-9.847 5.485-6.263 5.8-7.004 4.818-11.336-1.952-8.609-2.085-28.931-.229-35.113.715-2.379.081-6.669-.985-6.669-.165 0-.718-.387-1.229-.861-2.993-2.775-10.979-1.353-13.84 2.465-2.878 3.839-3.567 15.191-1.897 31.227.773 7.418.719 7.76-1.622 10.265-.979 1.047-1.929 2.175-2.112 2.507-.184.331-2.5 3.153-5.148 6.271a1300 1300 0 0 0-6.372 7.545c-2.676 3.227-5.408 6.441-7.348 8.645-1.027 1.166-2.295 2.704-2.819 3.417a32 32 0 0 1-2.022 2.441c-.588.63-1.726 1.963-2.528 2.963-.803 1-2.136 2.587-2.963 3.526-3.54 4.019-5.265 6.038-6.134 7.181-.509.669-3.009 3.666-5.555 6.66-2.546 2.993-5.259 6.219-6.028 7.169-1.527 1.885-4.806 5.771-8.129 9.633-5.373 6.245-6.446 7.508-9.29 10.942-9.196 11.099-13.305 15.96-16.461 19.472-1.273 1.417-2.315 2.708-2.317 2.869-.001.161-.832 1.194-1.848 2.296-1.015 1.101-2.409 2.726-3.097 3.609-3.394 4.357-4.51 5.253-5.706 4.582-.353-.198-4.616-1.373-9.473-2.61-4.856-1.238-9.106-2.403-9.444-2.59s-4.698-1.416-9.689-2.732c-11.939-3.146-23.49-6.252-23.629-6.353-.149-.11 1.244-2.581 2.559-4.539.589-.876 1.07-1.751 1.07-1.945 0-.193.138-.351.306-.351s1.324-1.709 2.569-3.797 2.59-4.145 2.988-4.572c.399-.426 1.018-1.342 1.377-2.035.654-1.265 3.142-5.177 3.512-5.522 1.445-1.349 3.259-5.926 2.349-5.926-.695 0-16.563-3.771-17.097-4.063-.348-.19-5.217-1.379-10.818-2.642-5.602-1.262-10.269-2.402-10.371-2.532-.102-.131-3.602-1.008-7.778-1.951l-7.592-1.713-1.045.987c-.574.543-1.394 1.571-1.823 2.284-.428.713-1.531 2.193-2.451 3.289s-2.099 2.616-2.621 3.377a45 45 0 0 1-2.15 2.822c-.661.791-2.328 2.95-3.704 4.798-5.463 7.335-5.941 7.807-6.965 6.876-.194-.176-3.936-1.204-8.315-2.283-4.38-1.08-8.027-2.127-8.104-2.326-.078-.199-.703-.983-1.389-1.743S90 311.471 90 311.342s-.432-1.109-.959-2.177c-2.445-4.951-3.114-7.927-4.058-18.054-.845-9.057-.501-17.004 1.115-25.76.807-4.373 1.704-4.877 5.569-3.129.407.184 5.49 1.358 11.296 2.61s10.722 2.406 10.926 2.567.87.392 1.481.513c6.024 1.192 20.452 4.444 20.741 4.675.204.163 1.37.495 2.593.739 6.077 1.213 18.977 4.135 19.629 4.447.408.195 5.408 1.359 11.111 2.586 5.704 1.228 10.704 2.395 11.112 2.593.407.199 5.49 1.385 11.296 2.635 5.805 1.251 10.722 2.403 10.926 2.56.203.157.953.398 1.666.534.713.137 3.746.852 6.74 1.589 6.445 1.587 7.528 1.471 9.609-1.031.684-.823 2.202-2.544 3.374-3.825 1.171-1.281 2.129-2.468 2.129-2.639s.959-1.364 2.13-2.653c5.811-6.393 6.67-7.376 6.802-7.781.078-.241 1.089-1.491 2.245-2.778 2.358-2.625 12.087-14.056 22.276-26.173a491 491 0 0 1 4.325-5.065 682 682 0 0 0 4.445-5.183 243 243 0 0 1 4.161-4.781c.964-1.067 2.214-2.542 2.778-3.278.901-1.178 5.879-7.052 12.411-14.646a305 305 0 0 0 4.728-5.686c1.429-1.766 2.723-3.266 2.874-3.333s.848-.872 1.548-1.788a72 72 0 0 1 2.96-3.553 349 349 0 0 0 4.465-5.151 814 814 0 0 1 4.445-5.18c.917-1.054 2.635-3.07 3.819-4.479a413 413 0 0 1 3.889-4.559c.955-1.098 1.99-2.378 2.301-2.845.31-.466 1.441-1.818 2.512-3.003 5.474-6.058 6.738-7.524 6.738-7.817 0-.176.882-1.224 1.959-2.329 8.356-8.572 7.303-15.543-2.619-17.351-2.387-.434-4.673-.94-5.081-1.123-.407-.183-6.475-1.36-13.483-2.615s-13.009-2.425-13.333-2.599c-.325-.174-6.325-1.341-13.334-2.593s-13.008-2.419-13.333-2.593-6.424-1.354-13.554-2.622c-7.129-1.268-13.046-2.408-13.148-2.533s-6.102-1.289-13.333-2.586c-7.232-1.297-13.232-2.466-13.333-2.597s-4.769-1.041-10.371-2.023-10.343-1.933-10.537-2.114c-.482-.45-.842-.405-3.011.376m-92.166 13.211c-.32.32-.582.904-.582 1.297s-.14.714-.311.714-.531.958-.8 2.13c-.699 3.044-2.924 8.572-4.064 10.092-.534.713-1.409 2.053-1.943 2.978-1.241 2.15-6.168 6.863-8.808 8.425-1.12.664-2.787 1.668-3.704 2.232-.916.564-2.5 1.381-3.518 1.815-3.314 1.411-2.915 2.173 2.556 4.884 2.221 1.101 4.308 2.268 4.637 2.593s1.717 1.478 3.083 2.561c1.423 1.128 3.433 3.264 4.706 5a462 462 0 0 0 2.944 3.981c1.307 1.723 3.835 7.879 4.324 10.531.897 4.862 2.941 5.47 3.742 1.111.78-4.247 4.732-12.736 7.275-15.627.861-.979 2.01-2.382 2.554-3.117s1.873-1.901 2.954-2.589c1.081-.689 2.215-1.531 2.521-1.872.65-.725 5.124-3.007 7.13-3.638 2.727-.857 2.034-2.134-2.217-4.084-1.983-.909-3.859-1.906-4.169-2.215-.311-.309-1.453-1.13-2.538-1.824-4.223-2.702-8.631-9.018-10.624-15.219-.36-1.12-.77-2.12-.913-2.222-.142-.102-.703-1.927-1.247-4.056-1.127-4.415-1.704-5.164-2.988-3.881"/></svg>