<svg xmlns="http://www.w3.org/2000/svg" width="1000" height="1000" viewBox="0 0 1000 1000" fill="currentColor">
    <path fill-rule="evenodd"
        d="M662.5 12.8c1 5.1 2.2 9.8 2.5 10.4.4.5.7 1.2.8 1.5l.2.6q0 .2.1.5t.2.5q.1.3.2.5c.4.9 1.8 5.4 3.3 10 10 32.7 33.4 69 49.9 77.5 2 1 5.3 3.3 7.5 5.1 2.1 1.8 8.9 6 15 9.4 6.2 3.3 12 6.4 12.9 6.9s4.4 2.2 7.7 3.7c10.4 4.7 8.6 9-5.5 13.5-5.5 1.8-8.9 3.5-16.7 8.4-13.5 8.4-21.1 13.6-21.8 14.6-.4.7-2.9 2.8-5.6 4.6s-6 4.7-7.4 6.5c-1.3 1.8-5.3 6.5-8.9 10.6-3.6 4-6.6 7.7-6.6 8.1 0 .5-2.4 4.5-5.4 9-5.4 8.3-14.1 25.8-16.5 33.5-.8 2.3-1.7 4.6-2.1 5.2-1.7 2.3-4.4 12.1-5.9 21.4-1.9 11.7-1.9 11.6-5.5 11.6-4.7-.1-5.5-1.4-8-13.4-2.4-11.9-9.5-32.7-11.1-32.7-.5 0-1-.7-1-1.5 0-2.7-10.1-21.3-14.4-26.5-2.2-2.7-4.3-5.6-4.6-6.5-.7-1.9-20.6-24.1-21.6-24.1-.4 0-3.1-2.1-5.9-4.8-2.9-2.6-8.1-6.6-11.5-8.8-3.5-2.2-7.5-4.9-8.9-6-2.7-2.1-19.2-10.7-27-14.2-7-3.1-7-7.8.1-10.5 2.4-1 7.9-3.8 12.2-6.3q1.9-1 3.7-2.1t3.6-2.1q1.9-1.1 3.7-2.1 1.8-1.1 3.7-2.1c20.6-11.8 41.2-30.2 50.6-45.2q.8-1.4 1.7-2.8l1.8-2.8 1.8-2.8q1-1.4 1.9-2.8c2.1-3.2 4.9-8.3 6.1-11.4s3.6-8.6 5.4-12.4c1.8-3.7 5.3-13.8 7.8-22.5 3.5-12.4 5-16.2 7.1-18 5.2-4.5 8-1.6 10.4 10.8M392.4 113.2c10.5 41.4 32.3 69.3 66.6 85 13.5 6.1 13.1 5.8 13.4 9.5.4 3.7.6 3.5-11.4 7.9-2.6 1-5.7 2.6-6.9 3.7s-4.2 3-6.7 4.3c-28.6 14.5-54.2 53.4-61.1 92.9-.6 3-1 3.4-4.2 3.4-3.7 0-3.7 0-6.4-13.6-.4-2-1.1-4.3-1.6-5.2-.4-.9-3.1-7.3-5.8-14.2-9.1-23.1-32-51.4-49.4-61.2-3.5-2-7.5-4.6-8.8-5.6-2.7-2.4-18.4-10.1-20.3-10.1-.7 0-1.8-1-2.5-2.2-1.6-3.1-.2-4.4 11.4-9.9 5.6-2.6 11.1-5.6 12.2-6.7 1.2-1 5.1-3.4 8.7-5.3 9.8-5.1 25.7-20.2 32.9-31.2 3.2-5 6.9-10.3 8.1-11.9 2.1-2.8 11.5-25.7 11.6-28.2 0-.8.7-2.8 1.6-4.5.9-1.8 2.1-5.5 2.7-8.3.6-2.9 2.2-6.3 3.6-7.7 4.8-4.8 7.2-1 12.3 19.1m93.4 168.9c.5.5 13.9 3.2 29.7 6 15.9 2.7 29.1 5.3 29.3 5.7.3.3 17.3 3.6 37.7 7.3 20.5 3.7 37.4 7 37.7 7.3.3.4 17 3.6 37.2 7.2 20.1 3.6 37.3 6.9 38.3 7.4.9.5 17.8 3.8 37.6 7.3 19.8 3.6 36.8 6.9 37.7 7.3.9.5 17.9 3.8 37.7 7.4 19.8 3.5 36.9 6.9 38.1 7.4 1.1.5 7.6 1.9 14.3 3.1 28.1 5.2 31.1 24.9 7.4 49.1-3 3.1-5.5 6.1-5.5 6.6 0 .8-3.6 4.9-19 22.1-3.1 3.3-6.2 7.1-7.1 8.4-.9 1.4-3.8 5-6.5 8.1l-2.8 3.2q-1.4 1.6-2.7 3.2l-2.8 3.2q-1.4 1.6-2.7 3.3c-3.4 3.9-8.2 9.6-10.8 12.6q-1.6 1.8-3.2 3.7-1.5 1.8-3.1 3.6-1.6 1.9-3.1 3.7-1.6 1.8-3.2 3.7-1.5 1.8-3.1 3.6t-3.1 3.7l-3.2 3.6-3.2 3.6q-1.1 1.2-2.1 2.5-1.1 1.2-2.2 2.5-1 1.2-2 2.5t-2.1 2.6c-1.9 2.5-3.9 4.8-4.3 5-.5.2-4.1 4.4-8.1 9.4q-1.7 2.1-3.4 4.1-1.6 2-3.3 4t-3.3 4l-3.4 4c-18.5 21.5-32.5 38.1-35.1 41.4-1.6 2.1-5.1 6.2-7.8 9.2l-3 3.4-3 3.4q-1.4 1.6-2.9 3.3-1.4 1.7-2.9 3.5-1.6 1.8-3.1 3.6-1.6 1.9-3.2 3.7-1.5 1.8-3.1 3.7l-3.2 3.6-3 3.6q-1.6 1.7-3.1 3.5l-3 3.6q-1.6 1.8-3.1 3.6c-28.8 34.3-56.3 66.6-62.9 74-3.3 3.6-6.1 7.1-6.4 7.8-.3 1.2-2.8 3.9-19.2 22-3.3 3.7-6 7-6 7.5s-2.7 3.8-6 7.5c-3.3 3.6-7.6 8.5-9.6 10.8-5.8 7-8.9 7.4-27.1 2.9-8.5-2.1-17-4.1-19.1-4.5-2-.4-4.1-1.1-4.7-1.5-.5-.5-14.4-3.7-30.8-7.2-16.5-3.6-30.8-6.9-32-7.5-1.1-.5-15.2-3.8-31.4-7.3-16.1-3.5-30.2-6.8-31.4-7.3-1.8-.9-38.3-9.2-55.4-12.6-3.5-.7-6.8-1.6-7.4-2.1-.8-.6-41.5-9.8-58.6-13.2-1.7-.3-3.6-1-4.2-1.4-.5-.5-14.4-3.8-30.8-7.3s-30.8-6.8-32-7.4c-10.9-4.9-13.4-3.5-15.7 8.9-4.6 24.7-5.5 47.2-3.1 72.8 2.6 28.6 4.5 37 11.4 51 1.5 3 2.7 5.8 2.7 6.1 0 .4 1.6 2.5 3.6 4.6 1.9 2.2 3.7 4.4 3.9 4.9.2.6 10.5 3.6 22.9 6.6 12.4 3.1 22.9 6 23.5 6.5 2.9 2.6 4.2 1.3 19.7-19.5 3.9-5.2 8.6-11.3 10.4-13.5l1.6-2 1.6-2 1.4-2q.8-1 1.5-2c1.5-2.2 4.8-6.5 7.4-9.6 2.6-3 5.7-7.2 6.9-9.2 1.3-2.1 3.6-5 5.2-6.5l2.9-2.8 21.5 4.9c11.8 2.6 21.7 5.1 22 5.5.3.3 13.5 3.6 29.3 7.1 15.8 3.6 29.6 6.9 30.6 7.5 1.5.8 46.3 11.5 48.3 11.5 2.5 0-2.6 12.9-6.7 16.7-1 1-8 12-9.9 15.6-1 2-2.8 4.6-3.9 5.8s-4.9 7-8.4 12.9-6.8 10.7-7.3 10.7-.8.5-.8 1c0 .6-1.4 3-3.1 5.5-3.7 5.5-7.6 12.5-7.2 12.8s33 9.1 66.8 18c14.1 3.7 26.4 7.2 27.3 7.7 1 .5 13 3.8 26.7 7.3 13.8 3.5 25.8 6.8 26.8 7.4 3.4 1.9 6.5-.6 16.1-12.9 2-2.5 5.9-7.1 8.8-10.2 2.9-3.2 5.2-6.1 5.2-6.5 0-.5 3-4.1 6.6-8.1 8.9-10 20.5-23.7 46.5-55.1 8-9.7 11-13.2 26.2-30.9 9.4-10.9 18.7-21.9 23-27.2 2.2-2.7 9.8-11.8 17-20.3 7.2-8.4 14.3-16.9 15.7-18.8 2.5-3.2 7.4-8.9 17.4-20.3 2.3-2.6 6.1-7.1 8.3-9.9 2.3-2.9 5.5-6.6 7.2-8.4q.7-.8 1.5-1.7.7-.8 1.4-1.7t1.4-1.7l1.4-1.8c1.5-2 5.1-6.4 8-9.7 5.4-6.2 13.2-15.3 20.7-24.4q2.3-2.7 4.5-5.3 2.3-2.7 4.5-5.4 2.3-2.6 4.5-5.3 2.3-2.7 4.5-5.3c7.5-8.8 14.1-16.8 14.6-17.7.5-1 3.2-4.2 5.9-7.1 6.7-7.1 6.8-8.1 4.6-29-4.7-45.4-2.7-77.4 5.4-88.3 8.1-10.8 30.6-14.8 39.1-6.9 1.4 1.3 3 2.4 3.5 2.4 3 0 4.8 12.1 2.8 18.8-5.3 17.5-4.9 74.9.6 99.3 2.8 12.2 1.9 14.3-13.6 32-13.9 15.8-17.1 19.5-24.1 27.8q-1.7 1.9-3.3 3.8t-3.3 3.8q-1.6 1.9-3.3 3.7-1.7 1.9-3.3 3.7c-3.3 3.6-6.3 7.3-6.8 8.2-.6 1-3.7 4.7-7.1 8.4-3.3 3.6-11.7 13.2-18.6 21.3-6.8 8-15.2 17.6-18.5 21.2-3.3 3.7-6.3 7.3-6.8 8.1-.4.8-3.4 4.2-6.6 7.5-3.2 3.4-6.5 7.4-7.3 9-.9 1.5-2 2.8-2.4 2.8-.5 0-3.7 3.4-7 7.6-3.4 4.2-6.9 8.3-7.9 9.2-1 .8-4.3 4.6-7.3 8.4-3 3.7-6.8 8.2-8.4 9.9s-8.1 9.3-14.5 16.7l-19.8 23c-4.4 5.1-10.6 12.3-13.7 15.9l-3.2 3.6q-1.6 1.8-3.1 3.6-1.6 1.8-3.2 3.7-1.5 1.8-3.1 3.6c-3.7 4.4-9.9 11.4-13.6 15.7s-10.3 11.9-14.7 16.8c-4.3 5-10 11.5-12.6 14.5-2.6 2.9-6.1 7-7.8 9.1s-8.8 10.3-15.7 18.2c-6.9 8-14.3 16.6-16.5 19.3-15.1 18-16.7 18.8-30.1 14.2-4.3-1.5-13.8-4.3-21.2-6.4-7.4-2-14.6-4.3-16-5.1-1.4-.7-12.4-4.1-24.3-7.4-11.9-3.4-21.9-6.5-22.2-6.8-.3-.4-10.9-3.7-23.5-7.3-12.7-3.7-23.3-6.9-23.6-7.3s-10.4-3.5-22.5-7l-21.9-6.4-2.4 2.2c-1.3 1.2-3.9 4.6-5.7 7.5s-5.3 8.1-7.9 11.6q-1.8 2.5-3.6 5.1-1.8 2.5-3.6 5.1-1.9 2.5-3.7 5.1-1.8 2.5-3.6 5.1c-5.4 7.8-10.7 14.4-11.7 14.8-5.8 2.3-10.1-1.1-16.3-12.9-2.3-4.2-4.4-7.9-4.9-8.2-.6-.4-3.8-6.2-11.6-20.8-1-1.9-2.6-4.3-3.4-5.2-.8-1-3.5-5.6-5.9-10.4-4-7.8-4.7-8.6-7.5-8.6-3.3 0-28.3 7.1-29.1 8.3-.3.4-10.9 3.7-23.6 7.3-12.6 3.6-23.2 6.9-23.5 7.3-1.5 2.1-31.8 9.7-34.2 8.6-5.9-2.7-3.3-8.7 13-29.8 3-3.9 5.5-7.5 5.5-7.8 0-.4 1.4-2.3 3.2-4.4 1.8-2 5.3-6.7 7.9-10.4 2.5-3.8 6.2-8.9 8.3-11.4 4.9-6.1 5-6-17.8-10.6l-19.5-3.9-7.3-7.7c-4.1-4.3-8.8-9.9-10.6-12.5-1.9-2.6-4.3-5.9-5.5-7.4-1.2-1.4-4.3-6.9-6.9-12-2.6-5.2-5-9.6-5.3-9.9-2-1.7-8.2-28.5-11.5-49.7-5.4-34.9-2.8-77.2 7.3-120.2 4.3-18 5.5-19.7 49-67.7l4-4.4q2-2.2 4.1-4.5l4-4.4q2-2.2 4-4.5 4.9-5.5 9.9-11 4.9-5.5 9.9-11t9.9-11q5-5.4 10-10.9l5-5.6q2.5-2.8 5-5.5 2.5-2.8 5.1-5.6l5-5.6q3.3-3.6 6.6-7.3 3.2-3.6 6.5-7.2 3.3-3.7 6.6-7.3t6.6-7.3c6.9-7.5 16.1-17.7 20.4-22.7s13.3-15 19.9-22.2c19.4-21.3 20.9-22.9 37.3-41.2q3.7-4.2 7.5-8.4t7.5-8.4q3.8-4.1 7.6-8.3t7.5-8.3c8-8.8 16.8-18.5 19.7-21.7 2.8-3.2 11.4-12.6 19-21s17.8-19.8 22.7-25.4c9.7-11.1 11.6-12.7 19.3-15.5 6.2-2.2 7.2-2.3 8.6-1m-260.6 49.3c1.6 6.1 3.2 11.2 3.6 11.5s1.5 3.1 2.5 6.3c5.7 17.5 18.1 35.4 30.1 43 3 2 6.3 4.3 7.1 5.1.9.9 6.2 3.7 11.8 6.3 12 5.5 14 9.1 6.3 11.5-5.7 1.8-18.3 8.3-20.2 10.3-.8 1-4 3.4-7.1 5.3-3 2-6.8 5.3-8.3 7.3-1.6 2.1-4.8 6.1-7.3 8.8-7.1 8.2-18.3 32.2-20.5 44.2-2.3 12.3-8 10.6-10.6-3.1-1.4-7.5-8.5-24.9-12.2-29.8q-1.1-1.4-2.1-2.8t-2.1-2.8q-1-1.4-2.1-2.8l-2-2.8c-3.6-5-9.3-11-13.3-14.2-3.9-3-7.8-6.3-8.7-7.2-1-.9-6.9-4.2-13.1-7.3-15.5-7.7-16.6-9.9-7.3-13.8 2.9-1.3 7.4-3.6 10-5.2s7.3-4.4 10.4-6.3c7.5-4.4 21.4-17.7 24.9-23.8 1.5-2.6 4-6.4 5.5-8.4 3.3-4.3 9.5-19.9 11.5-28.5.8-3.3 1.8-6 2.3-6s.9-.9.9-2.1c0-1.1.7-2.7 1.6-3.6 3.6-3.6 5.3-1.5 8.4 10.9" />
</svg>