<svg height="400" viewBox="0 0 400 400" width="400" xmlns="http://www.w3.org/2000/svg"><path d="m177.664 7.248c-7.345 9.098-7.62 8.107 4.407 15.895 22.856 14.799 47.626 38.654 58.899 56.723.845 1.353 2.235 3.568 3.089 4.921.855 1.354-4.682-3.434-12.304-10.639-26.68-25.223-48.846-40.366-65.511-44.757-5.8-1.528-3.713-3.719-51.129 53.658l-23.891 28.911 31.267 32.387c17.198 17.813 36.245 37.323 42.328 43.356l11.061 10.97 9.823-6.849c50.085-34.921 80.211-50.397 98.167-50.431 3.27-.006 3.324-.061 2.814-2.914-8.997-50.325-48.388-107.144-92.495-133.418-10.581-6.304-9.56-6.439-16.525 2.187m-98.063 113.391c-9.097 5.769-17.076 18.141-20.541 31.853-3.117 12.332-5.038 9.974 28.188 34.589 11.289 8.363 45.064 41.686 123.75 122.091 88.934 90.878 88.883 90.828 92.85 90.828 13.935 0 36.176-36.179 39.47-64.206.998-8.491-3.41-9.621-29.224-7.489-22.041 1.82-15.39 7.072-102.38-80.848-40.895-41.332-86.44-87.351-101.211-102.266l-26.857-27.117z" fill-rule="evenodd"/></svg>