<svg id="svg" xmlns="http://www.w3.org/2000/svg" xmlns:xlink="http://www.w3.org/1999/xlink" width="400" height="400" viewBox="0, 0, 400,400"><g id="svgg"><path id="path0" d="M177.664 7.248 C 170.319 16.346,170.044 15.355,182.071 23.143 C 204.927 37.942,229.697 61.797,240.970 79.866 C 241.815 81.219,243.205 83.434,244.059 84.787 C 244.914 86.141,239.377 81.353,231.755 74.148 C 205.075 48.925,182.909 33.782,166.244 29.391 C 160.444 27.863,162.531 25.672,115.115 83.049 L 91.224 111.960 122.491 144.347 C 139.689 162.160,158.736 181.670,164.819 187.703 L 175.880 198.673 185.703 191.824 C 235.788 156.903,265.914 141.427,283.870 141.393 C 287.140 141.387,287.194 141.332,286.684 138.479 C 277.687 88.154,238.296 31.335,194.189 5.061 C 183.608 -1.243,184.629 -1.378,177.664 7.248 M79.601 120.639 C 70.504 126.408,62.525 138.780,59.060 152.492 C 55.943 164.824,54.022 162.466,87.248 187.081 C 98.537 195.444,132.312 228.767,210.998 309.172 C 299.932 400.050,299.881 400.000,303.848 400.000 C 317.783 400.000,340.024 363.821,343.318 335.794 C 344.316 327.303,339.908 326.173,314.094 328.305 C 292.053 330.125,298.704 335.377,211.714 247.457 C 170.819 206.125,125.274 160.106,110.503 145.191 L 83.646 118.074 79.601 120.639 " stroke="none" fill="#000000" fill-rule="evenodd"></path></g></svg>