<svg height="400" viewBox="0 0 400 400" width="400" xmlns="http://www.w3.org/2000/svg"><path d="m213.981 4.605c-4.739 1.143-9.187 5.082-10.172 9.007-.381 1.519-1.234 1.995-4.854 2.707-2.416.475-6.037 1.324-8.047 1.886-3.379.945-3.76.906-5.047-.516-6.913-7.639-21.978-2.567-21.978 7.399 0 .795-1.73 2.189-4.466 3.598-2.456 1.265-5.816 3.138-7.466 4.162-2.806 1.74-3.203 1.792-6.093.796-8.376-2.886-15.936 3.049-15.199 11.932.254 3.066.04 4.409-.816 5.116-.638.527-3.625 3.755-6.638 7.172-5.287 5.996-5.602 6.216-9.008 6.291-8.912.194-14.47 8.857-10.821 16.864 1.486 3.261-6.829 15.292-10.568 15.292-8.881 0-14.574 8.912-10.581 16.566l1.552 2.974-4.802 9.931c-4.615 9.544-4.909 9.95-7.545 10.406-7.101 1.229-10.796 11.144-6.433 17.26l1.698 2.38-2.24 7.329c-1.232 4.031-2.621 8.814-3.087 10.629-.541 2.108-1.285 3.301-2.057 3.301-7.21 0-10.807 11.666-5.448 17.668l2.603 2.915-1.18 8.617c-1.131 8.262-1.268 8.65-3.341 9.432-6.192 2.337-7.298 11.802-1.975 16.902 4.443 4.258 5.945 14.73 2.442 17.025-7.098 4.651-5.299 16.135 3.121 19.925 2.877 1.295 3.238 1.819 4.87 7.079l1.763 5.68-1.57 3.077c-4.331 8.494 1.294 17.845 10.478 17.42 3.305-.153 4.426.193 7.256 2.244 1.841 1.333 4.892 3.172 6.78 4.086 1.929.934 3.432 2.204 3.432 2.9 0 13.455 22.786 15.977 26.929 2.98.598-1.875 1.542-2.522 5.734-3.934 2.76-.93 6.938-2.569 9.284-3.642 4.201-1.922 4.302-1.93 6.596-.536 8.987 5.462 20.342-1.553 19.667-12.15-.311-4.885-.232-5.155 2.219-7.53l2.542-2.464-1.669-2.779c-.918-1.528-1.8-2.941-1.959-3.139-.16-.198-1.509.971-2.999 2.597-1.947 2.126-3.084 2.802-4.041 2.406-10.828-4.477-21.242 2.21-20.214 12.981.294 3.09.228 3.187-3.224 4.693-6.097 2.66-11.681 4.423-11.681 3.688 0-1.409-5.083-6.455-7.536-7.48-5.358-2.238-12.973-.36-16.448 4.057-2.657 3.377-12.214-2.101-10.208-5.851 3.272-6.113-1.262-13.883-9.25-15.855-3.492-.862-3.574-.955-5.172-5.91l-1.624-5.034 1.713-1.347c5.976-4.701 4.089-15.829-3.212-18.942-3.921-1.671-5.044-12.532-1.465-14.162 6.313-2.877 6.569-16.431.348-18.406-1.774-.563-1.772-.526-.647-8.99.947-7.127 1.72-9.25 3.372-9.25 6.634 0 9.372-12.584 3.923-18.033l-1.937-1.936 2.268-8.074c3.362-11.966 3.419-12.076 6.566-12.666 7.366-1.382 10.873-11.873 5.78-17.294l-1.66-1.768 4.49-9.248 4.49-9.249 3.685-.354c8.554-.822 13.073-8.592 9.696-16.674l-1.178-2.819 4.079-6.476 4.079-6.477h3.803c8.893 0 13.485-7.812 10.272-17.475-.403-1.212.781-2.959 5.37-7.929l5.887-6.376 4.821.412c8.28.707 14.508-5.012 13.402-12.307-.48-3.17.925-4.468 9.182-8.479l3.388-1.646 1.689 1.688c6.8 6.8 21.028 2.033 21.041-7.049.003-1.927.373-2.155 5.246-3.231 10.854-2.397 9.945-2.429 11.701.408 4.083 6.594 9.385 6.726 9.461.237.033-2.813 3.744-9.623 7.338-13.465 3.313-3.543 3.448-3.851 2.176-4.982-1.169-1.039-6.823-3.048-7.958-2.829-.214.042-1.437.329-2.718.638m21.983 4.203c-19.568 5.515-22.364 33.722-4.178 42.147 4.669 2.164 4.771 2.11 5.433-2.88l.53-3.999 1.758 1.651c2.41 2.264 2.837 2.078 1.992-.868-3.24-11.298 4.454-26.743 15.111-30.334 1.386-.467-.795-2.6-4.483-4.385-4.248-2.057-11.478-2.653-16.163-1.332m25.395 8.964c-15.615 4.117-21.464 23.362-10.613 34.92 4.781 5.092-.705 7.815-6.487 3.22-3.67-2.916-3.421-3.255-5.135 6.992-3.249 19.422-14.399 25.588-27.853 15.405-4.928-3.729-4.769-3.91-6.547 7.428l-1.383 8.821 3.954 12.059c7.86 23.967 7.944 30.407.485 36.957-6.348 5.573-12.772 3.208-30.304-11.157-11.271-9.233-12.039-9.726-12.039-7.718 0 6.969-6.594 7.926-17.357 2.519-4.238-2.129-4.288-1.492-.505 6.468 3.566 7.505 3.586 9.144.121 9.986-1.605.389-1.546.592 1.469 5.066 6.481 9.617 6.924 13.026 2.291 17.658-1.708 1.709-3.106 3.196-3.106 3.306 0 .109 4.631 3.988 10.291 8.619 25.597 20.946 29.32 25.137 29.32 33.006 0 8.461-5.803 9.702-22.748 4.863-6.228-1.778-7.166-1.862-10.702-.956-3.596.922-4.34.841-10.262-1.114-7.92-2.614-7.55-2.653-7.55.78 0 3.509 2.219 8.249 5.842 12.482 3.41 3.984 5.987 9.526 4.988 10.729-.513.618 1.378 1.505 6.455 3.026 14.124 4.232 25.433 11.659 25.433 16.702 0 4.706-2.921 5.004-16.521 1.686-5.01-1.222-9.11-1.95-9.11-1.617 0 .332 1.624 3.342 3.609 6.688s8.124 14.122 13.642 23.948c5.519 9.825 11.06 18.929 12.314 20.231s2.28 2.841 2.28 3.421c0 4.503-22.801 41.617-45.83 74.6-5.045 7.226-5.301 8.096-3.146 10.68 4.719 5.657 16.439-1.163 25.632-14.916 49.326-73.793 81.233-160.75 94.357-257.153 1.027-7.546 5.744-21.651 5.834-17.446 1.043 48.82-16.283 133.939-38.87 190.959-2.091 5.28-3.802 9.859-3.802 10.175s2.883-.264 6.408-1.29c3.524-1.025 10.951-2.562 16.504-3.416 15.115-2.323 14.191-1.819 10.557-5.761-6.218-6.746-5.872-11.313 1.094-14.41 5.023-2.233 33.374-4.822 38.864-3.549 2.189.508 2.433.343 3.383-2.286 2.078-5.746 10.492-12.847 20.59-17.378 6.793-3.048 6.896-3.705.665-4.263-8.079-.725-9.154-1.22-9.019-4.155l.114-2.484-10.211.038c-18.18.068-30.4-5.173-26.977-11.57 2.683-5.013 30.107-15.637 52.256-20.243 16.025-3.333 15.386-2.843 10.727-8.226-5.996-6.929-4.996-10.088 7.122-22.489 7.735-7.915 8.965-9.731 6.615-9.761-3.08-.039-3-1.36.452-7.458 5.027-8.878 8.491-15.93 8.045-16.377-.214-.213-3.994 1.009-8.401 2.718-12.013 4.656-15.39 4.774-15.39.537 0-2.423-1.817-1.728-7.757 2.97-17.471 13.815-38.049 22.302-42.729 17.622-4.517-4.517 1.902-13.898 27.522-40.224l10.823-11.121-1.308-2.214c-1.868-3.163-1.68-4.271 1.798-10.61 2.173-3.958 3.107-6.601 3.107-8.786 0-1.719.874-5.447 1.942-8.285 2.877-7.643 2.47-7.869-4.66-2.59-4.793 3.548-6.458 4.055-8.902 2.71-1.761-.969-2.151-.846-4.989 1.584-13.771 11.787-31.546 7.282-31.546-7.995 0-4.27 3.061-20.19 5.234-27.217 1.575-5.095 1.274-5.368-3.605-3.269-3.212 1.382-4.178 1.521-5.124.736-1.738-1.443-1.485-1.808 2.335-3.379 22.505-9.256 9.596-45.65-13.986-39.432m-49.238 27.195c-4.779 4.778-5.715 12.81-2.131 18.28 1.063 1.623 1.073 1.971.078 2.796-1.712 1.421-1.386 2.606 1.253 4.557 2.324 1.719 2.432 1.728 3.963.342 1.232-1.114 2.549-1.368 6.057-1.166 10.452.602 19.649-10.745 11.166-13.777-4.653-1.663-9.31-5.375-12.434-9.912-3.411-4.951-4.034-5.039-7.952-1.12m-24.137 43.253c-9.252 4.013-11.613 16.038-4.579 23.331l2.338 2.425-2.124 6.813-2.124 6.812 2.651 2.198c3.543 2.938 3.181 3.295 6-5.916l2.497-8.155h2.746c3.251 0 7.598-2.048 7.116-3.353-4.859-13.151-5.97-17.527-5.327-20.969.369-1.975.485-3.776.258-4.003-.836-.836-6.837-.317-9.452.817m-26.682 104.38c-3.26 3.874-4.755 12.361-2.564 14.552.79.791 15.264 4.836 19.142 5.351 8.46 1.122 2.273-9.02-12.567-20.602l-2.066-1.612z" fill-rule="evenodd"/></svg>