<svg height="1000" viewBox="0 0 1000 1000" width="1000" xmlns="http://www.w3.org/2000/svg"><path d="m492.5 507.2 3.2 5.6-1.2-4.8z"/><path d="m502.7 512.8 3.2-5.6-2 .8z"/><path d="m807.8 504.5-104.4 172.1-102.5 44.8-48.4 227.5-29.4 51.1h-46.4l-29.4-51.1-48.4-227.5-102.8-44.8-104.1-172.1 307.8-504.5zm-423.5 35.4 115.4-194.2 116 194.2 47.3-8.2-163.3-269.8-162.9 268.7zm-96.8-17.9 212.2-357.2 212.1 357.2 47.3-9-259.4-429.3-259.2 428.2zm212.2 137.4 66.2-109.9-66.2-110-66.2 110z" fill-rule="evenodd"/></svg>