<svg id="svg" xmlns="http://www.w3.org/2000/svg" xmlns:xlink="http://www.w3.org/1999/xlink" width="400" height="400" viewBox="0, 0, 400,400"><g id="svgg"><path id="path0" d="M214.624 3.517 C 212.731 3.837,209.247 4.305,206.882 4.557 C 204.516 4.809,202.000 5.231,201.290 5.494 C 200.581 5.757,199.032 6.142,197.849 6.351 C 163.507 12.410,128.057 42.844,116.955 75.801 C 112.618 88.674,110.642 110.282,112.951 119.570 C 113.128 120.280,113.607 122.409,114.017 124.301 C 114.916 128.459,114.873 128.294,115.463 129.892 C 115.725 130.602,116.619 133.118,117.451 135.484 C 127.476 164.018,154.380 187.827,186.888 196.934 C 195.523 199.353,196.915 198.410,190.091 194.764 C 143.788 170.024,130.288 110.250,161.532 68.313 C 197.575 19.937,272.308 11.796,316.664 51.414 L 321.221 55.484 316.672 48.875 C 295.781 18.524,248.964 -2.285,214.624 3.517 M129.032 22.368 C 127.376 22.745,122.934 23.519,119.161 24.088 C 87.884 28.808,59.209 50.434,40.464 83.441 C 38.448 86.989,36.709 90.280,36.599 90.753 C 35.716 94.535,34.961 96.344,34.265 96.344 C 33.815 96.344,33.643 96.662,33.884 97.051 C 34.124 97.440,33.783 98.795,33.125 100.062 C 32.468 101.329,32.148 102.366,32.414 102.366 C 32.681 102.366,32.417 102.946,31.828 103.656 C 31.239 104.366,30.971 104.946,31.232 104.946 C 31.494 104.946,31.327 106.204,30.861 107.742 C 18.036 150.056,34.849 202.612,68.138 224.266 C 70.168 225.587,71.957 226.957,72.115 227.312 C 72.272 227.667,72.898 227.957,73.504 227.957 C 74.111 227.957,75.627 228.759,76.873 229.740 C 78.120 230.720,79.140 231.241,79.140 230.897 C 79.140 230.553,79.914 230.972,80.860 231.828 C 81.806 232.684,82.581 233.121,82.581 232.799 C 82.581 232.477,83.839 232.897,85.376 233.732 C 86.914 234.566,88.559 235.289,89.032 235.338 C 90.461 235.485,94.998 236.765,95.878 237.269 C 96.331 237.529,97.502 237.827,98.480 237.931 C 99.459 238.036,102.546 238.544,105.342 239.061 C 133.655 244.295,168.975 231.880,191.803 208.670 C 198.001 202.369,197.497 201.533,190.180 205.977 C 172.638 216.634,142.181 221.589,125.591 216.486 C 122.989 215.686,120.280 214.858,119.570 214.647 C 115.540 213.446,110.391 211.345,109.337 210.470 C 108.669 209.916,107.966 209.597,107.775 209.762 C 107.080 210.362,96.136 203.424,90.683 198.926 C 60.966 174.413,49.694 120.679,66.884 85.472 C 67.314 84.591,68.312 82.582,69.102 81.006 C 69.891 79.430,70.538 77.591,70.538 76.920 C 70.538 76.248,70.830 75.699,71.188 75.699 C 71.545 75.699,72.728 73.759,73.816 71.388 C 82.118 53.290,107.862 31.359,128.869 24.488 C 131.315 23.688,133.103 22.690,132.844 22.269 C 132.584 21.849,132.298 21.545,132.207 21.594 C 132.117 21.643,130.688 21.991,129.032 22.368 M264.516 63.683 C 229.691 71.002,204.120 95.398,194.668 130.323 C 191.160 143.284,191.144 168.865,194.635 182.663 C 198.654 198.549,199.255 198.267,199.851 180.215 C 202.675 94.647,308.404 67.956,365.591 138.375 C 384.482 161.636,394.969 203.381,387.113 224.043 C 385.113 229.303,388.020 224.840,390.546 218.772 C 404.731 184.698,398.486 139.920,375.406 110.213 C 373.083 107.223,370.796 104.201,370.323 103.496 C 369.849 102.791,366.447 99.264,362.761 95.656 C 335.525 68.997,297.743 56.701,264.516 63.683 M278.280 155.809 C 252.671 157.150,230.157 167.558,210.865 186.975 C 202.045 195.852,202.140 197.281,211.183 191.766 C 230.907 179.737,256.392 175.196,276.129 180.193 C 277.312 180.493,279.057 180.847,280.008 180.981 C 280.959 181.114,282.701 181.739,283.879 182.370 C 285.057 183.001,286.022 183.415,286.022 183.292 C 286.022 183.023,289.508 184.435,295.801 187.253 C 316.654 196.593,334.011 218.969,341.336 245.958 C 344.238 256.649,344.678 283.770,342.105 293.333 C 341.277 296.409,340.446 299.505,340.258 300.215 C 340.070 300.925,339.842 301.699,339.752 301.935 C 339.661 302.172,339.533 302.753,339.467 303.226 C 339.401 303.699,338.903 304.860,338.360 305.806 C 337.818 306.753,337.336 307.817,337.289 308.172 C 337.242 308.527,337.176 308.914,337.140 309.032 C 337.105 309.151,336.928 310.025,336.747 310.975 C 333.141 329.906,304.111 360.908,280.964 370.546 L 273.978 373.455 279.570 372.961 C 302.758 370.912,330.283 355.664,346.971 335.624 C 354.121 327.037,365.414 309.093,366.007 305.376 C 366.044 305.140,367.098 302.237,368.347 298.925 C 387.573 247.966,368.207 187.737,325.704 166.301 C 323.276 165.077,321.006 163.642,320.658 163.113 C 320.311 162.584,320.020 162.450,320.013 162.816 C 320.006 163.181,319.032 162.846,317.849 162.071 C 316.667 161.296,315.699 160.897,315.699 161.184 C 315.699 161.472,314.247 161.167,312.473 160.507 C 304.853 157.674,305.580 157.876,299.785 156.987 C 297.892 156.697,294.602 156.191,292.473 155.864 C 290.344 155.537,283.957 155.512,278.280 155.809 M11.730 176.129 C 1.749 195.524,-0.640 223.239,5.557 247.742 C 8.680 260.087,12.271 268.154,22.406 285.591 C 23.093 286.774,24.140 288.051,24.731 288.430 C 25.323 288.808,25.806 289.448,25.806 289.852 C 25.806 294.144,49.414 314.977,63.226 322.874 C 103.242 345.755,158.470 339.879,183.216 310.108 C 184.396 308.688,186.429 306.433,187.734 305.095 C 189.040 303.758,190.108 302.379,190.108 302.032 C 190.108 301.684,190.785 300.633,191.613 299.696 C 208.637 280.424,214.112 234.910,202.857 206.209 C 201.394 202.477,200.926 204.154,201.164 212.287 C 201.889 237.143,192.110 261.661,175.165 277.467 C 167.551 284.569,163.583 287.832,162.969 287.496 C 162.721 287.361,161.856 287.915,161.045 288.727 C 156.468 293.309,137.863 299.720,125.541 300.960 C 91.147 304.422,57.808 289.408,34.409 259.919 C 33.226 258.428,31.544 256.337,30.672 255.271 C 16.109 237.483,6.082 193.113,12.787 176.129 C 13.301 174.828,13.547 173.763,13.334 173.763 C 13.121 173.763,12.400 174.828,11.730 176.129 M204.731 200.689 C 204.731 200.937,207.731 202.871,211.398 204.987 C 232.459 217.139,251.827 240.602,253.962 256.549 C 254.133 257.820,254.545 259.132,254.878 259.466 C 255.211 259.799,255.484 261.143,255.484 262.453 C 255.484 263.763,255.887 265.894,256.380 267.190 C 259.023 274.143,256.778 297.681,252.338 309.567 C 242.491 335.924,212.401 363.746,188.496 368.596 C 187.726 368.752,186.009 369.300,184.680 369.814 C 182.395 370.698,179.888 371.188,172.903 372.118 C 171.247 372.338,167.718 372.903,165.060 373.373 C 140.559 377.707,106.176 367.559,86.677 350.239 C 82.850 346.840,82.417 346.625,83.805 348.817 C 99.844 374.140,129.282 391.640,162.581 395.648 C 172.515 396.844,189.596 396.762,192.688 395.503 C 193.398 395.214,196.060 394.733,198.604 394.434 C 255.327 387.767,302.172 324.102,287.708 273.333 C 287.068 271.086,286.764 269.247,287.033 269.247 C 287.302 269.247,287.151 268.763,286.697 268.172 C 286.243 267.581,284.958 264.581,283.842 261.505 C 276.254 240.597,256.014 219.760,232.935 209.098 C 223.260 204.628,204.731 199.104,204.731 200.689 " stroke="none" fill="#000000" fill-rule="evenodd"></path></g></svg>