<svg height="400" viewBox="0 0 400 400" width="400" xmlns="http://www.w3.org/2000/svg"><path d="m214.624 3.517c-1.893.32-5.377.788-7.742 1.04-2.366.252-4.882.674-5.592.937-.709.263-2.258.648-3.441.857-34.342 6.059-69.792 36.493-80.894 69.45-4.337 12.873-6.313 34.481-4.004 43.769.177.71.656 2.839 1.066 4.731.899 4.158.856 3.993 1.446 5.591.262.71 1.156 3.226 1.988 5.592 10.025 28.534 36.929 52.343 69.437 61.45 8.635 2.419 10.027 1.476 3.203-2.17-46.303-24.74-59.803-84.514-28.559-126.451 36.043-48.376 110.776-56.517 155.132-16.899l4.557 4.07-4.549-6.609c-20.891-30.351-67.708-51.16-102.048-45.358m-85.592 18.851c-1.656.377-6.098 1.151-9.871 1.72-31.277 4.72-59.952 26.346-78.697 59.353-2.016 3.548-3.755 6.839-3.865 7.312-.883 3.782-1.638 5.591-2.334 5.591-.45 0-.622.318-.381.707.24.389-.101 1.744-.759 3.011-.657 1.267-.977 2.304-.711 2.304.267 0 .003.58-.586 1.29s-.857 1.29-.596 1.29c.262 0 .095 1.258-.371 2.796-12.825 42.314 3.988 94.87 37.277 116.524 2.03 1.321 3.819 2.691 3.977 3.046.157.355.783.645 1.389.645.607 0 2.123.802 3.369 1.783 1.247.98 2.267 1.501 2.267 1.157s.774.075 1.72.931 1.721 1.293 1.721.971 1.258.098 2.795.933c1.538.834 3.183 1.557 3.656 1.606 1.429.147 5.966 1.427 6.846 1.931.453.26 1.624.558 2.602.662.979.105 4.066.613 6.862 1.13 28.313 5.234 63.633-7.181 86.461-30.391 6.198-6.301 5.694-7.137-1.623-2.693-17.542 10.657-47.999 15.612-64.589 10.509-2.602-.8-5.311-1.628-6.021-1.839-4.03-1.201-9.179-3.302-10.233-4.177-.668-.554-1.371-.873-1.562-.708-.695.6-11.639-6.338-17.092-10.836-29.717-24.513-40.989-78.247-23.799-113.454.43-.881 1.428-2.89 2.218-4.466.789-1.576 1.436-3.415 1.436-4.086 0-.672.292-1.221.65-1.221.357 0 1.54-1.94 2.628-4.311 8.302-18.098 34.046-40.029 55.053-46.9 2.446-.8 4.234-1.798 3.975-2.219-.26-.42-.546-.724-.637-.675-.09.049-1.519.397-3.175.774m135.484 41.315c-34.825 7.319-60.396 31.715-69.848 66.64-3.508 12.961-3.524 38.542-.033 52.34 4.019 15.886 4.62 15.604 5.216-2.448 2.824-85.568 108.553-112.259 165.74-41.84 18.891 23.261 29.378 65.006 21.522 85.668-2 5.26.907.797 3.433-5.271 14.185-34.074 7.94-78.852-15.14-108.559-2.323-2.99-4.61-6.012-5.083-6.717-.474-.705-3.876-4.232-7.562-7.84-27.236-26.659-65.018-38.955-98.245-31.973m13.764 92.126c-25.609 1.341-48.123 11.749-67.415 31.166-8.82 8.877-8.725 10.306.318 4.791 19.724-12.029 45.209-16.57 64.946-11.573 1.183.3 2.928.654 3.879.788.951.133 2.693.758 3.871 1.389s2.143 1.045 2.143.922c0-.269 3.486 1.143 9.779 3.961 20.853 9.34 38.21 31.716 45.535 58.705 2.902 10.691 3.342 37.812.769 47.375-.828 3.076-1.659 6.172-1.847 6.882s-.416 1.484-.506 1.72c-.091.237-.219.818-.285 1.291s-.564 1.634-1.107 2.58c-.542.947-1.024 2.011-1.071 2.366s-.113.742-.149.86c-.035.119-.212.993-.393 1.943-3.606 18.931-32.636 49.933-55.783 59.571l-6.986 2.909 5.592-.494c23.188-2.049 50.713-17.297 67.401-37.337 7.15-8.587 18.443-26.531 19.036-30.248.037-.236 1.091-3.139 2.34-6.451 19.226-50.959-.14-111.188-42.643-132.624-2.428-1.224-4.698-2.659-5.046-3.188-.347-.529-.638-.663-.645-.297-.007.365-.981.03-2.164-.745-1.182-.775-2.15-1.174-2.15-.887 0 .288-1.452-.017-3.226-.677-7.62-2.833-6.893-2.631-12.688-3.52-1.893-.29-5.183-.796-7.312-1.123s-8.516-.352-14.193-.055m-266.55 20.32c-9.981 19.395-12.37 47.11-6.173 71.613 3.123 12.345 6.714 20.412 16.849 37.849.687 1.183 1.734 2.46 2.325 2.839.592.378 1.075 1.018 1.075 1.422 0 4.292 23.608 25.125 37.42 33.022 40.016 22.881 95.244 17.005 119.99-12.766 1.18-1.42 3.213-3.675 4.518-5.013 1.306-1.337 2.374-2.716 2.374-3.063 0-.348.677-1.399 1.505-2.336 17.024-19.272 22.499-64.786 11.244-93.487-1.463-3.732-1.931-2.055-1.693 6.078.725 24.856-9.054 49.374-25.999 65.18-7.614 7.102-11.582 10.365-12.196 10.029-.248-.135-1.113.419-1.924 1.231-4.577 4.582-23.182 10.993-35.504 12.233-34.394 3.462-67.733-11.552-91.132-41.041-1.183-1.491-2.865-3.582-3.737-4.648-14.563-17.788-24.59-62.158-17.885-79.142.514-1.301.76-2.366.547-2.366s-.934 1.065-1.604 2.366m193.001 24.56c0 .248 3 2.182 6.667 4.298 21.061 12.152 40.429 35.615 42.564 51.562.171 1.271.583 2.583.916 2.917.333.333.606 1.677.606 2.987s.403 3.441.896 4.737c2.643 6.953.398 30.491-4.042 42.377-9.847 26.357-39.937 54.179-63.842 59.029-.77.156-2.487.704-3.816 1.218-2.285.884-4.792 1.374-11.777 2.304-1.656.22-5.185.785-7.843 1.255-24.501 4.334-58.884-5.814-78.383-23.134-3.827-3.399-4.26-3.614-2.872-1.422 16.039 25.323 45.477 42.823 78.776 46.831 9.934 1.196 27.015 1.114 30.107-.145.71-.289 3.372-.77 5.916-1.069 56.723-6.667 103.568-70.332 89.104-121.101-.64-2.247-.944-4.086-.675-4.086s.118-.484-.336-1.075-1.739-3.591-2.855-6.667c-7.588-20.908-27.828-41.745-50.907-52.407-9.675-4.47-28.204-9.994-28.204-8.409" fill-rule="evenodd"/></svg>