<svg clip-rule="evenodd" fill-rule="evenodd" height="1920" image-rendering="optimizeQuality"
    shape-rendering="geometricPrecision" text-rendering="geometricPrecision" width="1920"
    xmlns="http://www.w3.org/2000/svg">
    <path
        d="m955.5 156.5c3.757-.429 7.257.237 10.5 2 54.06 197.064 102.22 395.564 144.5 595.5-.33.5-.67 1-1 1.5-100-49.333-200-49.333-300 0 10.123-55.106 21.623-110.106 34.5-165 33.517-144.734 69.85-288.734 109-432 .995-.566 1.828-1.233 2.5-2z"
        opacity=".991" />
    <path
        d="m-.5 677.5c11.1075 49.546 31.9408 94.546 62.5 135 58.83 74.027 132.33 128.527 220.5 163.5 70.755 19.355 141.422 39.02 212 59 51.305 14.82 100.972 33.82 149 57 19.676 10.16 38.342 21.83 56 35 17.511 17.17 32.344 36.33 44.5 57.5 19.317 34.97 35.65 71.3 49 109 28.164 82.83 50.83 167.16 68 253 14.819 71.58 26.819 143.58 36 216-29.337-94.66-70.004-183.99-122-268-13.072-19.64-27.239-38.47-42.5-56.5-15.719 9.03-32.052 17.36-49 25-117.157 44.79-225.157 28.79-324-48-59.798-50.38-100.965-113.21-123.5-188.5-5.29-18.83-9.79-37.83-13.5-57-88.563-55.1-148.0633-132.77-178.5-233-22.7628-77.306-37.5961-155.973-44.5-236 0-7.667 0-15.333 0-23zm406 546c74.736 32.7 149.736 64.87 225 96.5-3.652 23.94-15.319 43.27-35 58-22.874 15.2-47.874 20.2-75 15-48.882-12.88-83.716-42.38-104.5-88.5-11.278-26-14.778-53-10.5-81z"
        opacity=".992" />
    <path
        d="m1919.5 677.5v23c-6.9 80.027-21.74 158.694-44.5 236-30.44 100.23-89.94 177.9-178.5 233-15.26 92.36-56.59 170.53-124 234.5-88.62 77.15-189.95 100.82-304 71-11.23-3.41-22.23-7.41-33-12-16.95-7.64-33.28-15.97-49-25-31.85 38.84-59.35 80.67-82.5 125.5-33 64-60.33 130.34-82 199 16.79-133.64 43.46-265.31 80-395 13.23-45.7 29.23-90.36 48-134 13.71-31.1 30.71-60.1 51-87 9.95-12.29 21.45-22.79 34.5-31.5 38.54-23.6 79.21-42.94 122-58 22.14-7.93 44.47-15.27 67-22 70.58-19.98 141.24-39.645 212-59 88.17-34.973 161.67-89.473 220.5-163.5 30.56-40.454 51.39-85.454 62.5-135zm-409 546h3c6.01 56.46-12.32 103.3-55 140.5-23.22 19.52-50.06 29.69-80.5 30.5-41.06-1.08-69.73-20.41-86-58-2.18-5.2-3.52-10.53-4-16 14.09-6.63 28.26-13.13 42.5-19.5 60.96-23.81 120.96-49.65 180-77.5z"
        opacity=".992" />
    <path
        d="m951.5 759.5c79.11.303 148.11 26.47 207 78.5 32.91 30.059 59.91 64.559 81 103.5-32.17 61.34-78.17 109.5-138 144.5-94.67 50-189.333 50-284 0-59.832-35-105.832-83.16-138-144.5 35.526-65.693 86.193-116.193 152-151.5 38.053-18.346 78.053-28.513 120-30.5zm-6 60c60.18-2.842 102.35 23.158 126.5 78 16.7 50.507 6.87 95.007-29.5 133.5-40.82 35.36-86.158 42.36-136 21-49.018-27.77-71.185-69.938-66.5-126.5 8.461-50.778 36.961-84.611 85.5-101.5 6.759-1.715 13.425-3.215 20-4.5z"
        opacity=".988" />
</svg>