<svg height="400" viewBox="0 0 400 400" width="400" xmlns="http://www.w3.org/2000/svg"><path d="m256.547 3.559c-5.472 1.952-10.147 10.848-10.147 19.309 0 2.798-2.926 9.483-5.708 13.04-.821 1.049-1.492 2.957-1.492 4.24 0 1.282-.516 3.329-1.146 4.548-.631 1.219-2.013 5.295-3.073 9.056-1.359 4.828-3.118 8.622-5.977 12.897-2.485 3.715-4.386 7.619-4.918 10.099-.477 2.224-1.931 5.935-3.23 8.247-1.3 2.313-3.249 7.265-4.331 11.005-2.752 9.514-4.564 13.756-5.691 13.324-.525-.202-3.392-.628-6.37-.947l-5.415-.58.429-3.298c.235-1.815.864-6.425 1.396-10.246.764-5.483.758-8.485-.03-14.251-.886-6.477-.854-7.465.279-8.717.702-.776 1.277-1.672 1.277-1.99 0-.319.9-1.904 2-3.523 6.742-9.922-3.129-22.254-15.882-19.843-10.693 2.021-17.022 16.009-11.505 25.425 2.388 4.075 2.901 13.539 1.672 30.855l-.515 7.254-4.963 1.247c-2.73.686-5.534 1.466-6.232 1.733-1.575.605-5.605-6.039-7.46-12.3-.694-2.341-2.71-6.769-4.48-9.839s-3.926-8.355-4.79-11.743c-.864-3.389-2.983-9.181-4.708-12.872-2.515-5.38-3.137-7.628-3.137-11.342 0-4.823-3.029-12.025-7.552-17.955-1.315-1.725-1.69-2.869-1.194-3.652 4.471-7.065-2.541-17.902-11.599-17.927-14.457-.039-19.782 16.196-8.802 26.839 1.511 1.464 2.747 3.281 2.747 4.039 0 .757.76 3.116 1.69 5.243 2.781 6.363 6.979 19.247 7.582 23.27 1.047 6.978 11.82 31.163 18.815 42.24 3.811 6.034 3.822 5.789-.401 8.893l-3.451 2.537-3.182-2.137c-8.73-5.865-30.653-29.42-30.653-32.936 0-12.96-17.308-15.657-23.106-3.601-4.353 9.053-.831 21.2 6.148 21.2.763 0 5.16 3.805 9.772 8.456s10.726 10.292 13.586 12.536 7.055 5.862 9.321 8.039l4.121 3.959-2.258 4.776c-1.243 2.626-2.451 4.968-2.685 5.202-.455.455-6.839-3.05-10.003-5.493-1.048-.808-3.388-1.859-5.2-2.336-4.317-1.134-11.196-4.456-15.696-7.579-1.98-1.373-10.33-5.527-18.555-9.229-12.748-5.738-15.024-7.026-15.42-8.731-2.945-12.679-25.165-13.013-28.335-.427-2.31 9.174 2.777 18.027 10.359 18.027 5.018 0 34.415 13.103 41.717 18.594 8.799 6.618 15.619 10.836 18.473 11.424 1.409.291 3.821 1.328 5.361 2.305s4.87 2.606 7.4 3.62c5.005 2.005 5.299 2.395 3.2 4.239-2.903 2.55-31.589 3.47-38.904 1.247-2.588-.786-5.738-1.429-7-1.429-1.263 0-2.948-.652-3.745-1.449-4.84-4.84-10.753-5.591-16.681-2.117-4.177 2.448-4.143 2.027-.559 7.07 8.033 11.303 13.412 17.245 15.205 16.795.968-.243 4.398.008 7.622.557 3.224.548 13.781 1.21 23.46 1.471l17.598.473.945 2.889c2.728 8.341.683 11.372-8.876 13.155-3.555.663-14.865 5.69-14.865 6.607 0 .728 16.289 11.67 19.434 13.054 2.01.884 2.882.668 8.724-2.161 4.772-2.311 6.586-2.865 6.851-2.09.198.579 1.199 2.019 2.223 3.2l1.864 2.146-2.895 2.984-2.894 2.984 5.241 2.376c30.603 13.876 73.588 17.222 103.311 8.042l5.391-1.666-3.025-5.559-3.025-5.56 1.523-2.6c.838-1.431 2.372-4.083 3.409-5.894 7.398-12.922 6.491-43.882-1.696-57.846-10.906-18.603-35.861-27.277-54.436-18.921-5.777 2.599-16.398 11.354-16.407 13.525-.004.954-.899 3.535-1.988 5.735-5.464 11.037 1.133 32.038 12.23 38.936 6.674 4.149 21.518 5.659 29.283 2.979 8.853-3.054 9.347-3.321 10.576-5.697 1.697-3.281 2.433-15.815 1.116-18.994-2.868-6.923-12.71-12.891-17.955-10.887-7.989 3.051-9.217 10.181-2.055 11.939 5.879 1.443 9.39 6.605 6.2 9.115-1.267.997-11.94 4.209-13.987 4.209-7.104 0-13.826-10.99-11.465-18.743.412-1.351 1.129-3.929 1.594-5.728 2.387-9.238 8.045-12.329 22.57-12.329 11.669 0 23.543 6.634 25.058 14 .271 1.32 1.052 3.477 1.735 4.792 1.886 3.636 2.678 10.123 1.871 15.346-.395 2.564-1.097 7.138-1.559 10.165-1.086 7.117-2.599 10.185-7.063 14.324-2 1.855-4.564 4.322-5.696 5.483-2.679 2.747-8.093 5.434-12.749 6.327-2.04.391-5.689 1.116-8.109 1.61-7.226 1.478-26.011-5.145-32.588-11.489-1.864-1.798-4.258-3.649-5.319-4.113-2.876-1.259-9.066-8.983-9.637-12.025-.274-1.462-1.156-3.504-1.959-4.539-4.249-5.471-4.726-14.637-1.826-35.081 4.383-30.895 51.483-51.741 82.302-36.427 13.961 6.937 29.163 24.783 31.465 36.939 2.743 14.479 1.352 30.532-3.66 42.247-4.904 11.463-5.706 20.469-2.128 23.897l2.249 2.155 3.224-2.76 3.225-2.76 7.054 3.955c8.636 4.841 7.386 4.876 18.14-.517 17.299-8.676 17.625-9.202 7.651-12.324-7.132-2.233-21.398-8.049-21.38-8.716.008-.269.87-2.829 1.916-5.689l1.903-5.2 4.284.114c17.16.459 25.613 2.007 34.83 6.381l5.912 2.805 3.771-3.191c22.505-19.048 21.845-23.327-3.829-24.831-7.7-.451-15.98-1.193-18.4-1.65-2.42-.456-8.604-.743-13.742-.637-11.104.228-10.03 1.031-10.376-7.754l-.282-7.164 5.2-1.909c2.86-1.051 7-2.188 9.2-2.528 3.487-.538 17.766-6.25 20-8.001.44-.344 2.091-.859 3.67-1.142 1.578-.284 7.033-2.311 12.123-4.505 5.09-2.193 10.212-3.988 11.383-3.988s2.736-.322 3.477-.715c.847-.449 3.455-.26 7.03.512 15.547 3.352 27.813-9.203 20.003-20.473-5.627-8.119-16.765-8.261-33.944-.432-3.329 1.517-8.288 3.075-11.021 3.462s-6.654 1.449-8.714 2.36c-2.059.911-8.087 2.955-13.394 4.542-5.308 1.587-14.688 5.014-20.846 7.615-6.157 2.601-11.291 4.729-11.409 4.729-.117 0-1.676-2.665-3.463-5.921l-3.25-5.921 7.234-7.079c3.979-3.894 8.732-9.059 10.562-11.479 7.87-10.408 14.838-17.371 17.878-17.864 5.615-.912 11.441-12.076 10.418-19.966-1.767-13.63-22.425-9.517-27.276 5.43-.285.88-3.761 4.12-7.724 7.2-3.962 3.08-9.434 8.12-12.159 11.2-2.724 3.08-6.864 7.628-9.199 10.107l-4.245 4.507-5.23-3.507c-2.876-1.929-5.541-3.507-5.922-3.507-.38 0-.015-1.53.812-3.4s1.681-5.315 1.898-7.654c.218-2.34 1.031-5.22 1.808-6.4.777-1.181 1.472-3.406 1.545-4.946.184-3.924 3.869-11.602 7.603-15.845 1.734-1.969 3.152-4.411 3.152-5.425 0-1.015.9-3.538 2-5.607s2-4.384 2-5.145c0-.762.887-3.322 1.971-5.689 1.083-2.367 2.51-6.87 3.17-10.007 1.555-7.393 3.425-11.25 5.737-11.83 3.389-.851 9.362-9.712 9.757-14.475 1.023-12.33-8.698-20.08-20.088-16.018m-234.863 178.241c-18.462 93.505 47.494 190.044 142.491 208.56 121.855 23.751 231.208-77.81 215.354-200.008-1.869-14.409-1.545-14.215-7.722-4.612-80.2 124.695-263.521 124.94-343.336.46-6.468-10.088-5.755-9.626-6.787-4.4" fill-rule="evenodd"/></svg>