<svg height="1000" viewBox="0 0 1000 1000" width="1000" xmlns="http://www.w3.org/2000/svg" xmlns:xlink="http://www.w3.org/1999/xlink"><clipPath id="a"><path d="m164.02 1.43h670.29v998.57h-670.29z"/></clipPath><g clip-path="url(#a)"><path d="m828.3 1.4-133.2 102.7q-1.9 1.3-3.4 3-1.5 1.6-2.7 3.6-1.3 1.9-2.1 4-.8 2-1.3 4.3c-3.6 12.2-5.4 24.8-5.5 37.6-.1 12.7 1.5 25.4 4.9 37.7s8.4 24 15 34.9 14.6 20.9 23.9 29.6q3.6 3.1 7.6 5.6 4 2.6 8.2 4.6 4.3 2.1 8.8 3.5 4.5 1.5 9.2 2.3c2.7.4 5.5.3 8.2-.4 2.7-.6 5.3-1.7 7.6-3.3 2.2-1.6 4.2-3.6 5.8-5.9 1.5-2.3 2.6-4.8 3.3-7.6l51.7-251.6c.6-.8.8-1.8.7-2.8s-.7-1.8-1.4-2.4c-.8-.6-1.8-.9-2.8-.8-1 .2-1.8.7-2.5 1.4z"/><path d="m645 154.4-25.4 20.9c-6.1 14-10.2 28.7-12.2 43.8s-2 30.4.2 45.5c2.2 15 6.4 29.7 12.6 43.6 6.2 14 14.2 27 23.9 38.7 51 66.9 91.8 46 91.8 46l11.5-44.6c3.4 6.5 6.2 13.4 8.3 20.5 2 7.1 3.4 14.3 3.9 21.7.6 7.4.4 14.8-.6 22.1-.9 7.3-2.6 14.5-5 21.5-20.3 51.2-69.5 49.2-124.4 3.4-54.9-45.7-116.7-181.6-48.1-259.6 3.6-4.9 7.8-9.3 12.7-12.9s10.2-6.5 16-8.5c5.7-1.9 11.7-3 17.7-3.2 6.1-.2 12.1.6 18 2.3"/><path d="m489.2 284-32.6 27.1c-6.8 24.1-10.3 48.9-10.6 73.9-.2 24.9 2.8 49.8 9 74s15.5 47.5 27.7 69.2c12.3 21.8 27.3 41.9 44.8 59.7 96.9 104.1 144.4 51.2 144.4 51.2l13.4-52.6c3.9 8.9 7 18.2 9.3 27.7 2.2 9.5 3.6 19.2 4.1 28.9.5 9.8.2 19.6-1.1 29.3-1.2 9.6-3.3 19.2-6.3 28.5-23.7 57.2-97.2 62.9-171.5 16.3-74.4-46.6-208.5-221.6-123.6-388.9 3.8-8.8 9.1-16.7 15.7-23.6s14.3-12.5 22.9-16.6 17.8-6.7 27.3-7.5c9.5-.9 19 0 28.2 2.5"/><path d="m299.6 440.1-54.9 45.2c-3.4 30.9-3.1 62.2.9 93.1 3.9 30.9 11.5 61.2 22.6 90.4 11.1 29.1 25.5 56.8 43.1 82.5 17.6 25.8 38.1 49.3 61.2 70.3 155.8 140.7 240.2 50.6 240.2 50.6l13.7-52.9c4.6 9.7 8 19.9 10.1 30.5 2 10.5 2.8 21.2 2.2 32-.6 10.7-2.5 21.3-5.8 31.5-3.2 10.3-7.7 20.1-13.3 29.2-32.9 62.4-109 73.2-214.2 35.8-168.7-60.1-319.4-351.2-196.5-504.8 4.7-7.3 10.5-13.8 17.2-19.3 6.7-5.4 14.3-9.7 22.5-12.7 8.1-3 16.7-4.7 25.4-4.9 8.6-.3 17.3.9 25.6 3.5z"/></g></svg>