<svg id="svg" xmlns="http://www.w3.org/2000/svg" xmlns:xlink="http://www.w3.org/1999/xlink" width="400" height="400" viewBox="0, 0, 400,400"><g id="svgg"><path id="path0" d="M185.153 31.527 C 184.968 31.555,184.122 31.674,183.272 31.792 C 179.815 32.273,175.227 33.427,170.082 35.107 L 167.036 36.102 164.371 35.584 C 152.608 33.299,142.481 33.801,131.407 37.218 C 127.539 38.412,125.399 38.954,121.330 39.771 C 103.394 43.372,92.623 48.998,86.098 58.176 C 84.223 60.813,84.167 60.867,82.749 61.457 C 59.660 71.051,41.934 88.383,36.763 106.423 C 35.909 109.401,34.800 115.823,34.800 117.789 C 34.800 118.052,34.246 118.703,32.430 120.571 C 19.698 133.673,14.949 145.599,17.307 158.549 L 17.417 159.154 16.334 160.338 C 8.216 169.215,4.321 178.713,4.975 188.036 C 5.360 193.531,6.771 196.738,10.830 201.344 L 11.896 202.553 11.737 203.561 C 11.190 207.023,11.237 214.385,11.825 217.269 C 14.553 230.657,25.111 239.589,40.645 241.651 C 43.160 241.985,43.118 241.859,41.250 243.432 C 31.139 251.944,29.152 261.757,35.126 273.678 C 42.791 288.974,65.088 305.585,89.889 314.476 C 101.914 318.786,112.550 320.694,124.723 320.723 L 125.630 320.726 125.629 325.529 C 125.625 341.484,122.783 356.310,117.369 368.626 C 115.476 372.931,115.474 372.959,117.051 372.045 C 121.127 369.681,131.406 361.864,136.110 357.550 C 150.620 344.245,157.443 334.825,163.416 319.855 C 167.055 310.731,168.456 303.870,168.339 295.734 L 168.290 292.308 169.835 292.067 C 183.182 289.991,190.805 283.240,193.883 270.768 C 194.161 269.645,194.381 269.002,194.475 269.039 C 194.558 269.071,195.287 269.562,196.096 270.129 C 207.676 278.244,221.659 279.902,232.969 274.499 L 234.368 273.831 235.406 274.430 C 241.438 277.909,252.484 278.963,262.218 276.988 C 272.894 274.822,280.783 269.839,284.942 262.636 C 289.319 255.056,291.079 249.366,291.082 242.795 C 291.083 237.757,290.773 236.410,288.105 229.861 C 287.830 229.186,287.887 229.160,289.179 229.375 C 293.793 230.142,298.868 229.496,304.617 227.409 L 306.638 226.675 308.878 227.669 C 316.330 230.972,322.585 232.752,330.736 233.885 C 332.950 234.193,342.861 234.240,345.180 233.953 C 358.679 232.282,370.577 225.686,378.916 215.250 C 384.349 208.450,386.899 202.490,387.968 194.088 C 388.387 190.802,388.399 190.757,389.458 188.660 C 391.218 185.173,392.352 181.095,392.768 176.755 C 393.629 167.757,392.622 157.508,389.988 148.472 C 385.334 132.499,378.348 122.335,368.196 116.768 C 366.228 115.689,366.476 115.987,365.734 113.806 C 362.368 103.907,342.290 87.791,326.570 82.369 C 323.502 81.310,318.838 80.349,316.771 80.349 C 316.659 80.349,316.044 79.554,315.402 78.578 C 308.686 68.377,298.768 60.626,288.707 57.719 C 285.947 56.922,280.716 56.030,278.797 56.030 C 278.207 56.030,278.133 55.980,276.648 54.608 C 271.263 49.633,267.558 47.053,261.270 43.902 C 248.423 37.466,231.322 34.424,216.594 35.956 C 212.846 36.345,213.014 36.365,210.077 35.184 C 204.935 33.115,200.527 31.962,196.305 31.581 C 194.894 31.454,185.942 31.411,185.153 31.527 " stroke="none" fill="#000000" fill-rule="evenodd"></path></g></svg>