<svg height="400" viewBox="0 0 400 400" width="400" xmlns="http://www.w3.org/2000/svg"><path d="m185.153 31.527c-.185.028-1.031.147-1.881.265-3.457.481-8.045 1.635-13.19 3.315l-3.046.995-2.665-.518c-11.763-2.285-21.89-1.783-32.964 1.634-3.868 1.194-6.008 1.736-10.077 2.553-17.936 3.601-28.707 9.227-35.232 18.405-1.875 2.637-1.931 2.691-3.349 3.281-23.089 9.594-40.815 26.926-45.986 44.966-.854 2.978-1.963 9.4-1.963 11.366 0 .263-.554.914-2.37 2.782-12.732 13.102-17.481 25.028-15.123 37.978l.11.605-1.083 1.184c-8.118 8.877-12.013 18.375-11.359 27.698.385 5.495 1.796 8.702 5.855 13.308l1.066 1.209-.159 1.008c-.547 3.462-.5 10.824.088 13.708 2.728 13.388 13.286 22.32 28.82 24.382 2.515.334 2.473.208.605 1.781-10.111 8.512-12.098 18.325-6.124 30.246 7.665 15.296 29.962 31.907 54.763 40.798 12.025 4.31 22.661 6.218 34.834 6.247l.907.003-.001 4.803c-.004 15.955-2.846 30.781-8.26 43.097-1.893 4.305-1.895 4.333-.318 3.419 4.076-2.364 14.355-10.181 19.059-14.495 14.51-13.305 21.333-22.725 27.306-37.695 3.639-9.124 5.04-15.985 4.923-24.121l-.049-3.426 1.545-.241c13.347-2.076 20.97-8.827 24.048-21.299.278-1.123.498-1.766.592-1.729.083.032.812.523 1.621 1.09 11.58 8.115 25.563 9.773 36.873 4.37l1.399-.668 1.038.599c6.032 3.479 17.078 4.533 26.812 2.558 10.676-2.166 18.565-7.149 22.724-14.352 4.377-7.58 6.137-13.27 6.14-19.841.001-5.038-.309-6.385-2.977-12.934-.275-.675-.218-.701 1.074-.486 4.614.767 9.689.121 15.438-1.966l2.021-.734 2.24.994c7.452 3.303 13.707 5.083 21.858 6.216 2.214.308 12.125.355 14.444.068 13.499-1.671 25.397-8.267 33.736-18.703 5.433-6.8 7.983-12.76 9.052-21.162.419-3.286.431-3.331 1.49-5.428 1.76-3.487 2.894-7.565 3.31-11.905.861-8.998-.146-19.247-2.78-28.283-4.654-15.973-11.64-26.137-21.792-31.704-1.968-1.079-1.72-.781-2.462-2.962-3.366-9.899-23.444-26.015-39.164-31.437-3.068-1.059-7.732-2.02-9.799-2.02-.112 0-.727-.795-1.369-1.771-6.716-10.201-16.634-17.952-26.695-20.859-2.76-.797-7.991-1.689-9.91-1.689-.59 0-.664-.05-2.149-1.422-5.385-4.975-9.09-7.555-15.378-10.706-12.847-6.436-29.948-9.478-44.676-7.946-3.748.389-3.58.409-6.517-.772-5.142-2.069-9.55-3.222-13.772-3.603-1.411-.127-10.363-.17-11.152-.054" fill-rule="evenodd"/></svg>