<svg height="400" viewBox="0 0 400 400" width="400" xmlns="http://www.w3.org/2000/svg"><path d="m180.463.742c-1.154.628-5.433 5.956-8.206 10.219-2.835 4.359-4.299 7.981-5.43 13.436-.861 4.148-1.477 5.768-2.105 5.527-.479-.184-4.666-3.025-7.365-4.998-4.316-3.156-6.141-4.28-7.168-4.415-6.312-.829-10.312 19.543-6.018 30.65.519 1.343 1.481 3.997 2.137 5.896 2.175 6.3 4.676 10.589 9.983 17.117 9.566 11.767 15.897 20.888 16.199 23.336.098.791.515 6.236.927 12.1.412 5.863.805 11.268.874 12.012l.125 1.351-1.579-1.694c-.869-.932-6.131-7.351-11.694-14.265-5.563-6.913-10.939-13.516-11.947-14.672-2.269-2.603-7.601-9.682-9.759-12.956-1.763-2.675-6.777-7.723-12.867-12.958-6.498-5.584-10.656-7.912-17.561-9.83-6.959-1.934-9.797-3.06-13.727-5.445-6.499-3.945-11.187-4.997-22.309-5.007-10.164-.008-18.424 1.364-20.231 3.36-1.885 2.083 7.331 10.83 16.027 15.211 2.567 1.293 4.958 3.178 10.66 8.403 5.515 5.052 7.566 6.689 11.112 8.871 2.359 1.451 9.623 4.991 12.981 6.325 10.729 4.261 44.025 21.441 55.609 28.691 13.554 8.484 15.046 10.53 15.939 21.85.501 6.358.444 7.488-.37 7.291-4.134-1.002-6.828-.811-6.837.484-.024 3.558-2.569.969-5.691-5.791-7.264-15.728-22.15-34.594-27.886-35.343-2.262-.295-4.783 3.799-6.336 10.286-.471 1.972-1.5 6.299-2.285 9.615l-1.428 6.03-1.833.37c-22.188 4.478-30.835 8.129-43.725 18.466-7.173 5.752-13.667 13.152-13.454 15.332.264 2.701 12.015 3.075 24.114.767 2.478-.472 7.674-1.279 11.546-1.791 11.714-1.552 16.492-2.872 24.924-6.89 2.734-1.304 5.254-2.452 5.599-2.554.547-.16 1.197.687 5.105 6.65 8.452 12.899 9.746 14.522 19.212 24.107 8.979 9.092 12.198 12.745 14.048 15.942 1.263 2.182.985 2.306-2.847 1.274-9.16-2.465-24.684-.1-33.595 5.118-10.494 6.144-20.406 28.566-13.687 30.959 1.666.593 5.19-.49 11.155-3.428 5.929-2.921 7.592-3.637 10.642-4.583 3.07-.952 7.543-2.799 12.718-5.251 5.691-2.697 6.73-2.926 7.841-1.728 1.068 1.153.954 1.292-2.198 2.685-4.84 2.138-6.469 3.801-6.847 6.989-.87 7.349 6.376 10.847 14.693 7.092 1.302-.588 2.441-.996 2.531-.906.553.553 2.208 10.154 2.264 13.129.047 2.549-.269 2.958-3.131 4.051-4.951 1.892-7.027 5.495-5.484 9.518.332.864-.639 1.442-3.36 2-8.001 1.639-10.399 6.483-6.066 12.256l.956 1.273-2.124 2.091c-6.244 6.145-5.258 11.361 2.472 13.083 2.382.531 3.753 1.02 3.753 1.339 0 .473-1.174 1.234-2.73 1.769-5.729 1.971-8.023 4.677-7.708 9.088.308 4.295 2.322 5.519 9.087 5.519 5.164 0 5.014-.052 5.749 1.99 1.316 3.66 5.927 5.578 10.472 4.354.988-.266 2.367-.647 3.064-.846s1.339-.289 1.428-.2c.23.229.68 9.216 1.058 21.129.578 18.189 2.28 57.785 2.493 57.997.145.145 4.836-.714 6.119-1.121 1.297-.41 1.249.606 1.446-30.45.167-26.234.348-31.882 1.049-32.727.293-.352.236-.648-.288-1.495-1.214-1.965-2.603-12.312-3.307-24.637-.793-13.877-.944-14.922-2.234-15.51-1.079-.492-1.743-2.4-1.908-5.486-.181-3.363-.069-3.474 3.52-3.489 11.681-.047 15.564-5.783 9.027-13.331-2.164-2.498-2.147-2.372-.369-2.828 4.323-1.108 8.65-5.371 8.581-8.455-.03-1.323-1.731-5.621-2.601-6.572-2.938-3.21-10.367-2.669-16.268 1.183-1.251.817-2.41 1.485-2.574 1.485-.191 0-.284-2.186-.256-6.019l.044-6.02-1.214-1.121c-1.241-1.146-1.686-2.149-1.509-3.401.1-.706.102-.706 5.655-.858 8.152-.223 9.793-1.236 9.731-6.004-.084-6.44-4.709-9.988-14.31-10.977-2.248-.231-2.628-.64-2.628-2.821 0-2.204.618-3.964 1.975-5.619 1.179-1.439 1.133-1.905-.191-1.905-1.344 0-1.143-.327 2.426-3.95l3.309-3.358.765 1.027c.42.564 1.658 2.513 2.751 4.329 8.156 13.566 17.457 23.962 30.407 33.989 3.242 2.511 14.235 9.705 14.828 9.705.063 0 1.228.617 2.591 1.371 9.96 5.509 23.113 9.991 26.845 9.147 2.139-.484 2.435-1.065 2.414-4.746-.049-8.489-4.564-20.032-12.302-31.448-1.344-1.982-3.486-5.139-4.76-7.017-1.275-1.878-2.258-3.475-2.184-3.548.381-.381 11.478 3.105 20.822 6.542 13.492 4.962 34.526 9.7 42.289 9.526 6.395-.144 6.373-.328-.904-7.605-7.594-7.594-12.293-10.672-25.603-16.774-2.685-1.231-6.131-3.017-7.658-3.969-9.771-6.093-9.733-6.08-23.646-7.911-14.527-1.912-25.523-3.023-30.01-3.033-6.452-.015-10.501-1.599-6.852-2.68 4.62-1.368 16.142-13.495 16.142-16.99 0-1.333-5.463-2.27-13.514-2.32-11.053-.067-15.117 1.112-23.603 6.85-5.142 3.476-7.924 4.414-9.442 3.184-1.931-1.563 5.787-11.702 20.729-27.227 3.179-3.304 6.857-7.358 8.172-9.01 1.316-1.651 3.123-3.913 4.016-5.025 1.787-2.225 3.999-4.001 5.366-4.308 1.086-.245 1.892.615 5.791 6.18 3.079 4.395 5.073 6.793 9.234 11.111 1.671 1.735 3.965 4.505 5.098 6.157 7.234 10.551 16.215 19.09 27.673 26.312 6.294 3.967 12.685 6.041 14.002 4.543 3.154-3.588 3.153-9.747-.004-23.687-3.054-13.481-4.979-18.778-7.572-20.832-1.224-.969-4.229-4.695-5.433-6.736-1.139-1.93.528-1.737 11.736 1.358 7.714 2.131 14.771 3.724 18.471 4.171 4.825.583 9.993 2.362 16.817 5.789 11.185 5.617 17.913 7.685 25.379 7.801 3.702.058 3.712.036 1.809-3.859-9.868-20.204-29.467-36.418-44.067-36.457-5.84-.015-2.551-1.184 16.785-5.968 24.642-6.096 27.981-7.764 21.916-10.945-18.69-9.803-35.244-11.767-65.065-7.717-10.374 1.409-19.888 4.069-31.666 8.853-3.046 1.238-5.594 2.195-5.662 2.128-.067-.068.505-1.946 1.272-4.174 2.663-7.732 3.327-14.525 2.007-20.538-1.099-5.004-1.769-5.687-4.681-4.77-4.075 1.285-2.849.123 3.294-3.122 7.189-3.797 14.57-9.106 21.338-15.349 5.011-4.621 7.401-6.691 11.663-10.097 8.661-6.92 13.588-14.502 18.098-27.846 1.98-5.856 1.816-6.522-1.849-7.514-6.16-1.666-12.659-.849-23.627 2.973-23.124 8.057-29.083 12.777-42.886 33.971-3.335 5.12-6.39 9.715-6.789 10.21-3.683 4.568-4.646 6.209-8.196 13.964-1.474 3.221-3.762 8.095-5.084 10.831-2.775 5.746-5.212 10.832-7.302 15.241-3.44 7.254-5.66 10.264-7.571 10.264-.604 0-1.098-.055-1.098-.122 0-.605 2.824-9.424 6.289-19.636 6.155-18.146 6.809-20.751 7.682-30.615 1.903-21.492-.79-35.053-9.618-48.425-4.919-7.452-8.404-10.267-10.977-8.868m15.333 107.982c0 1.021-2.695 4.489-3.489 4.489-.814 0 .072-1.756 1.782-3.528 1.236-1.282 1.707-1.547 1.707-.961m-14.374 9.044c-.919 3.32-1.496 4.786-1.517 3.854-.039-1.755 1.521-6.662 1.974-6.209.084.084-.121 1.144-.457 2.355m9.269.138c0 1.27-5.79 13.926-6.371 13.926-.939 0 1.153-7.143 3.277-11.184 1.33-2.532 3.094-4.095 3.094-2.742m-7.197 25.172c-.49 3.474-1.493 8.781-1.806 9.559-.468 1.163-.348-3.996.156-6.733 1.176-6.38 2.463-8.584 1.65-2.826m-13.128 11.01c2.915 2.402 3.643 6.83 2.329 14.147-.814 4.531-1.224 10.018-1.224 16.393 0 2.894-.071 5.19-.159 5.103-.087-.088-.425-2.171-.751-4.63-1.866-14.083-4.508-30.825-5.296-33.557-.199-.689 3.29 1.051 5.101 2.544m9.071 20.086-.441 1.652.154-2.102c.263-3.596.562-4.899.654-2.853.04.908-.125 2.395-.367 3.303m1.758 13.629c1.062 2.239.47 5.5-1.932 10.644-1.428 3.057-1.929 3.039-1.638-.058.407-4.34 2.278-12.109 2.834-11.766.137.085.468.616.736 1.18m-5.909 101.332c.09.67.068 1.599-.049 2.063l-.213.844-.575-.709c-.655-.807-.787-3.013-.215-3.585.508-.508.86-.043 1.052 1.387" fill-rule="evenodd"/></svg>