<svg height="400" viewBox="0 0 400 400" width="400" xmlns="http://www.w3.org/2000/svg"><path d="m193.954 5.306c-32.143 2.255-58.835 10.056-85.187 24.897-10.746 6.052-27.748 18.088-32.113 22.733l-.403.428.605-.232c.549-.212 2.37-1.041 7.726-3.517 18.398-8.507 38.667-13.597 59.053-14.829 3.458-.209 17.139-.209 19.953 0 7.513.558 13.259 1.247 19.251 2.31 64.399 11.425 116.281 60.094 131.975 123.804 5.339 21.675 6.18 45.036 2.418 67.182-12.409 73.059-71.222 128.748-145.014 137.312-8.953 1.039-25.673 1.168-34.563.267-20.469-2.074-37.546-6.937-57.306-16.32-1.441-.684-2.979-1.386-3.417-1.56l-.798-.317.395.417c1.502 1.585 8.789 7.411 13.741 10.985 25.453 18.372 54.133 30.076 85.343 34.828 7.752 1.181 4.56 1.066 29.552 1.066h22.245l4.233-.671c34.671-5.498 62.836-17.027 89.083-36.465 45.79-33.913 74.018-84.916 78.76-142.307.297-3.594.248-25.825-.066-29.828-2.025-25.84-8.608-49.587-20.133-72.624-31.548-63.064-95.931-104.894-165.448-107.493-6.464-.241-16.888-.276-19.885-.066m-84.053 73.502c-55.127 5.237-100.156 47.612-108.944 102.522-.864 5.397-1.009 8.831-.916 21.599.089 12.065.144 12.75 1.651 20.632 12.095 63.248 71.452 106.192 135.493 98.027 56.328-7.181 100.218-52.354 105.865-108.958 5.72-57.343-28.987-110.438-83.964-128.446-8.259-2.706-20.155-5.044-27.679-5.441-3.771-.199-19.215-.152-21.506.065" fill-rule="evenodd"/></svg>