<svg id="svg" xmlns="http://www.w3.org/2000/svg" xmlns:xlink="http://www.w3.org/1999/xlink" width="400" height="400" viewBox="0, 0, 400,400"><g id="svgg"><path id="path0" d="M193.954 5.306 C 161.811 7.561,135.119 15.362,108.767 30.203 C 98.021 36.255,81.019 48.291,76.654 52.936 L 76.251 53.364 76.856 53.132 C 77.405 52.920,79.226 52.091,84.582 49.615 C 102.980 41.108,123.249 36.018,143.635 34.786 C 147.093 34.577,160.774 34.577,163.588 34.786 C 171.101 35.344,176.847 36.033,182.839 37.096 C 247.238 48.521,299.120 97.190,314.814 160.900 C 320.153 182.575,320.994 205.936,317.232 228.082 C 304.823 301.141,246.010 356.830,172.218 365.394 C 163.265 366.433,146.545 366.562,137.655 365.661 C 117.186 363.587,100.109 358.724,80.349 349.341 C 78.908 348.657,77.370 347.955,76.932 347.781 L 76.134 347.464 76.529 347.881 C 78.031 349.466,85.318 355.292,90.270 358.866 C 115.723 377.238,144.403 388.942,175.613 393.694 C 183.365 394.875,180.173 394.760,205.165 394.760 L 227.410 394.760 231.643 394.089 C 266.314 388.591,294.479 377.062,320.726 357.624 C 366.516 323.711,394.744 272.708,399.486 215.317 C 399.783 211.723,399.734 189.492,399.420 185.489 C 397.395 159.649,390.812 135.902,379.287 112.865 C 347.739 49.801,283.356 7.971,213.839 5.372 C 207.375 5.131,196.951 5.096,193.954 5.306 M109.901 78.808 C 54.774 84.045,9.745 126.420,0.957 181.330 C 0.093 186.727,-0.052 190.161,0.041 202.929 C 0.130 214.994,0.185 215.679,1.692 223.561 C 13.787 286.809,73.144 329.753,137.185 321.588 C 193.513 314.407,237.403 269.234,243.050 212.630 C 248.770 155.287,214.063 102.192,159.086 84.184 C 150.827 81.478,138.931 79.140,131.407 78.743 C 127.636 78.544,112.192 78.591,109.901 78.808 " stroke="none" fill="#000000" fill-rule="evenodd"></path></g></svg>