<svg height="1000" viewBox="0 0 1000 1000" width="1000" xmlns="http://www.w3.org/2000/svg" xmlns:xlink="http://www.w3.org/1999/xlink"><clipPath id="a"><path d="m.42 30.37h999.58v939.15h-999.58z"/></clipPath><g clip-path="url(#a)"><path d="m340.5 380.7c-77.3 87.6-164.9 142.5-217.5 142.5q-4.7.2-9.4-.4-4.7-.7-9.2-2.2-4.5-1.6-8.7-3.9-4.1-2.4-7.7-5.5l-71.8-70.1q-3.4-3.3-6.2-7.2-2.8-3.9-4.8-8.3-2-4.3-3.2-8.9-1.2-4.7-1.6-9.4c-5.2-53.5 38.6-146 116.8-233.6 73.9-83.5 157.6-139.8 213.1-143.3q5.4-.7 10.9-.2 5.4.5 10.6 2 5.3 1.5 10.1 4.1 4.8 2.6 9 6l69.8 69.8c42.6 38-2.4 155.6-100.2 268.6zm27.5-318.8c-1.5-4.4-6.5-13.4-11.4-13.4 2 7.3 3.2 14.7 3.8 22.2.5 7.6.3 15.1-.6 22.6-1 7.5-2.6 14.9-4.9 22.1-2.4 7.1-5.4 14.1-9.1 20.7q-20.1 11.6-39.1 25-19 13.4-36.7 28.4-17.7 15-34.1 31.5-16.3 16.6-31.1 34.5-15.5 16.8-29.5 34.8-14 18.1-26.6 37.2-12.5 19.1-23.5 39.1-10.9 20.1-20.3 40.9c-6.5 3.4-13.3 6.3-20.3 8.5-7.1 2.3-14.2 3.9-21.5 5-7.3 1-14.7 1.4-22.1 1.2-7.3-.2-14.7-1-21.9-2.4.3 4.4 1.5 11.7 15.5 16.1 65.7 20.4 174.6-73.6 221.3-129.9 60.1-71.3 137.8-171.7 112.1-244.1z" fill-rule="evenodd"/><path d="m278.6 648.7c-7.4 0-14.8-1.1-22-3.1s-14-5.1-20.4-9c-6.3-3.9-12.1-8.7-17.1-14.2s-9.2-11.7-12.6-18.4l-37.6-75.6c-2.3-4.6-4-9.5-5.3-14.5s-2.1-10.1-2.5-15.2c-.3-5.1-.1-10.3.5-15.4.7-5.1 1.9-10.1 3.5-15 1.5-5.1 3.5-10.1 6-14.8s5.5-9.1 8.9-13.2 7.2-7.9 11.4-11.2c4.1-3.4 8.6-6.3 13.4-8.7 4.7-2.3 9.7-4.2 14.8-5.5 5.1-1.4 10.3-2.2 15.6-2.5 5.3-.4 10.6-.2 15.8.5 5.2.8 10.4 2 15.4 3.7 5 1.6 9.8 3.7 14.4 6.3 4.5 2.6 8.8 5.7 12.8 9.1 3.9 3.5 7.5 7.3 10.7 11.5s5.9 8.7 8.2 13.4l38.2 75.9c6.3 12.3 9.3 26 8.8 39.7-.6 13.8-4.7 27.2-12 39-7.2 11.7-17.4 21.4-29.4 28-12.1 6.7-25.7 10.2-39.5 10.1m-37.6-192.7q-2.1 0-4.2.2-2.1.2-4.1.7-2 .5-4 1.2-1.9.7-3.8 1.7-3.3 1.5-6.2 3.7-2.9 2.2-5.3 4.9-2.4 2.7-4.2 5.8-1.8 3.2-3 6.6-1.2 3.6-1.7 7.3-.5 3.7-.2 7.5.2 3.8 1.3 7.4 1 3.6 2.7 7l37.3 74.1c2.2 4.4 5.2 8.2 8.9 11.4 3.6 3.1 7.8 5.5 12.4 7.1 4.6 1.5 9.4 2.2 14.2 1.9 4.8-.4 9.5-1.6 13.9-3.7q3.2-1.6 6.1-3.9 2.8-2.2 5.2-4.9 2.4-2.8 4.2-5.9 1.7-3.2 2.9-6.6 1.2-3.6 1.8-7.3.5-3.7.3-7.5-.3-3.8-1.2-7.4-1-3.6-2.7-7l-37.6-74.8q-1.6-3.2-3.8-6.1-2.1-2.9-4.8-5.3-2.7-2.4-5.9-4.3-3.1-1.8-6.6-2.9-1.4-.5-2.9-.8-1.5-.3-3-.5-1.5-.3-3-.4-1.5-.1-3-.1z" fill-rule="evenodd"/><path d="m557.1 719.3-31.2-65.1c-3-6.3-6.7-12.2-11.1-17.7-4.3-5.6-9.2-10.6-14.6-15-5.4-4.5-11.3-8.3-17.5-11.5s-12.8-5.7-19.6-7.4c-76.2-18.1-110.6 70-87.5 112.4q4.3 8.4 7.5 17.3 3.3 8.9 5.3 18.1 2.1 9.2 3 18.7.8 9.4.5 18.8c0 1.2.2 2.4.6 3.6.4 1.1 1 2.1 1.8 3s1.8 1.6 2.9 2.2c1.1.5 2.3.8 3.5.9 3.2.4 6.6.1 9.8-.7s6.2-2.2 8.9-4.1c2.6-2 4.9-4.4 6.7-7.2 1.8-2.7 3.1-5.8 3.8-9q.1-10.5-.9-20.8-.9-10.4-2.9-20.6-2-10.3-5-20.2-3-10-7-19.6c-1.7-4.4-2.7-9-2.8-13.7s.6-9.4 2.1-13.9c1.5-4.4 3.8-8.6 6.8-12.3 2.9-3.6 6.5-6.7 10.5-9.1 4.4-2.2 9.1-3.5 13.9-3.8s9.7.3 14.3 1.8c4.5 1.6 8.8 4 12.4 7.2s6.6 7.1 8.8 11.4l37.3 75.6q1.8 3.4 2.8 7 1 3.6 1.2 7.4.2 3.8-.3 7.5-.6 3.8-1.9 7.3-.9 2.9-2.3 5.5-1.4 2.7-3.2 5.1-1.7 2.5-3.9 4.6-2.2 2.1-4.6 3.8c-.4 3.6-.1 7.3.9 10.9 1 3.5 2.7 6.9 4.9 9.8s5 5.4 8.1 7.3c3.2 1.9 6.7 3.2 10.3 3.8q1.2.1 2.3-.1 1.1-.1 2.2-.5 1.1-.4 2.1-1 1-.6 1.9-1.3 4-3.5 7.5-7.5 3.5-4 6.5-8.5 3-4.4 5.3-9.2 2.3-4.8 4-9.9c1.8-4.9 3-10.1 3.7-15.3s.9-10.5.5-15.7c-.3-5.3-1.2-10.5-2.6-15.6-1.4-5-3.3-10-5.7-14.7z"/><path d="m449.7 696q-1.4 0-2.9-.2-1.4-.2-2.8-.5-1.4-.4-2.8-1-1.3-.5-2.6-1.2l-169.9-99.6c-4.7-3.4-8.2-8.3-9.5-13.9-1.3-5.7-.3-11.6 2.8-16.6 3.1-4.9 8-8.4 13.7-9.7 5.6-1.3 11.6-.2 16.5 2.8l170.1 99c4.2 2.4 7.4 6.2 9.3 10.6 1.8 4.5 2.1 9.5.9 14.1-1.3 4.7-4.1 8.8-7.9 11.7-3.9 3-8.6 4.5-13.4 4.5"/><path d="m622.2 668.2c-5.8-4.6-11.1-10-15.4-16.1-4.4-6-8-12.7-10.5-19.7-2.6-7-4.2-14.4-4.7-21.8-.6-7.5-.1-15 1.4-22.3l17.6-82.7c1-5.1 2.6-10.2 4.6-15 2.1-4.9 4.6-9.5 7.6-13.9 3-4.3 6.4-8.4 10.2-12 3.7-3.7 7.9-7 12.3-9.9 4.4-2.8 9.1-5.3 14-7.2 4.9-2 9.9-3.5 15.1-4.4 5.2-1 10.4-1.5 15.7-1.4 5.2 0 10.5.6 15.6 1.7 10.4 2.1 20.1 6.3 28.8 12.3s16.2 13.6 22 22.4c5.7 8.8 9.7 18.7 11.7 29.1 1.9 10.3 1.9 21-.3 31.3l-17.2 82.6c-2.2 10.4-6.4 20.2-12.4 28.9-6 8.8-13.6 16.2-22.5 22-8.8 5.8-18.7 9.7-29.1 11.7-10.4 1.9-21.1 1.8-31.5-.4q-4.5-.9-8.8-2.4-4.4-1.4-8.5-3.3-4.2-1.9-8.1-4.3-3.9-2.4-7.6-5.2zm89.7-175.1q-1.7-1.3-3.4-2.4-1.8-1.1-3.7-2-1.8-.9-3.8-1.5-2-.7-4-1.1-3.6-.8-7.2-.8-3.6 0-7.2.7-3.6.6-6.9 2-3.4 1.4-6.5 3.3-3 2-5.6 4.5-2.5 2.6-4.6 5.5-2.1 3-3.5 6.3-1.5 3.3-2.3 6.8l-17.2 82.9q-.8 3.5-.9 7.1 0 3.6.7 7.2.6 3.5 2 6.8 1.4 3.4 3.4 6.3 1.9 3.1 4.4 5.7 2.5 2.7 5.5 4.7 3 2.1 6.3 3.5 3.3 1.5 6.9 2.2 3.7.9 7.5 1 3.9.1 7.6-.6 3.8-.7 7.3-2.1 3.6-1.4 6.8-3.6 3-1.9 5.6-4.4 2.5-2.5 4.6-5.5 2-3 3.4-6.3 1.4-3.3 2.1-6.8l17.6-82.9q.7-3.5.7-7.1 0-3.6-.6-7.2-.7-3.5-2.1-6.8-1.3-3.4-3.3-6.4-.8-1.2-1.8-2.5-.9-1.2-1.9-2.3-1.1-1.1-2.2-2.2-1.1-1-2.3-2z" fill-rule="evenodd"/><path d="m702.5 735.7c-10.5-.3-21.1 1.4-30.9 5.2-9.9 3.7-19 9.4-26.6 16.6-7.7 7.3-13.9 15.9-18.3 25.6-4.3 9.6-6.7 20-7.1 30.5l-2.9 84.4c-.6 7.3-.1 14.7 1.6 21.8 1.7 7.2 4.4 14 8.2 20.3s8.5 12 14 16.8c5.5 4.9 11.8 8.8 18.5 11.7q2.7.7 5.5.8 2.7.2 5.5-.2 2.7-.4 5.3-1.2 2.6-.9 5-2.3 2.9-2.1 5.2-4.7 2.3-2.7 3.9-5.8 1.6-3.1 2.5-6.5.9-3.4 1-6.9.1-.3.2-.5 0-.3 0-.5 0-.3 0-.6-.1-.2-.2-.5-3.1-.9-6-2.3-2.9-1.3-5.5-3.1-2.7-1.8-5.1-4-2.4-2.1-4.4-4.6-2.5-2.6-4.4-5.7-2-3-3.2-6.4-1.3-3.4-1.9-7-.6-3.5-.5-7.1l2.7-84.4c.2-4.7 1.2-9.3 3.1-13.6s4.7-8.2 8-11.5c3.4-3.3 7.3-5.9 11.7-7.7 4.3-1.8 9-2.8 13.7-2.8q2.1 0 4.1.4 2.1.3 4.1.8 2.1.6 4 1.4 2 .8 3.8 1.8c3.4 1.3 6.5 3.1 9.2 5.5s5 5.2 6.8 8.3c1.8 3.2 3 6.6 3.6 10.2.6 3.5.6 7.1 0 10.7q-1.4 11.1-1.3 22.3.1 11.2 1.6 22.2 1.6 11.1 4.5 21.9 2.9 10.8 7.1 21.2.3 1 .8 2 .5 1 1.1 1.9.6.9 1.4 1.7.8.8 1.7 1.4 2 1.2 4.1 2.1 2.2.9 4.5 1.4 2.2.5 4.6.6 2.3 0 4.6-.3 1.6-.2 3.1-.5 1.6-.3 3.1-.7 1.6-.3 3.1-.8 1.5-.4 3-.9 1.7-.6 3.2-1.7 1.4-1.2 2.4-2.7 1-1.6 1.3-3.4.4-1.8.1-3.6-3.3-10.2-5.7-20.6-2.3-10.4-3.6-21-1.4-10.5-1.7-21.2-.3-10.7.5-21.3c.5-10.6-1.1-21.2-4.8-31.2-3.6-9.9-9.3-19-16.5-26.8s-15.9-14-25.6-18.3-20.2-6.7-30.8-6.9"/><path d="m689.1 818.6q-1-1.1-1.8-2.3-.8-1.2-1.5-2.5-.7-1.3-1.2-2.6-.4-1.4-.8-2.8l-37.6-194.2c-1-5.6.2-11.4 3.4-16.2 3.2-4.7 8.2-8 13.8-9.1 5.6-1 11.5.2 16.2 3.4 4.8 3.2 8 8.2 9.1 13.8l38.1 193.2c.8 4.7.1 9.5-2 13.7-2.2 4.3-5.6 7.7-9.9 9.8-4.2 2.1-9 2.8-13.7 1.9-4.6-.9-8.9-3.2-12.1-6.7"/><path d="m1 407.8v-.3z"/><path d="m946.9 524.9c-25.7 51.1-150.7 39.1-284.4-27.4-105.9-54-181-123.2-195-175.2q-1.7-4.4-2.6-9-.8-4.6-.8-9.2 0-4.7.8-9.3.9-4.6 2.6-9l49.6-85.5q2.4-4.2 5.6-7.9 3.1-3.7 6.8-6.8 3.8-3.1 8-5.4 4.2-2.3 8.8-3.9c50.5-19.8 150.7 0 255.2 51.1 100.1 49.9 176 116.5 193.8 169.1q2.2 5 3.3 10.3 1 5.4 1 10.8 0 5.5-1 10.8-1.1 5.4-3.3 10.4-.2.6-.5 1.1-.3.6-.6 1.1-.2.6-.6 1.1-.3.5-.6 1.1l-47 81.1m32.1-82.9c4.1-2.6 9.9-9.9 9.9-14.6-6.5 3.8-13.4 7-20.5 9.5-7.2 2.4-14.6 4.2-22.1 5.3-7.4 1-15 1.3-22.6.9-7.5-.4-15-1.6-22.3-3.4q-16.5-16.4-34.4-31.2-17.8-14.8-36.9-28-19.1-13.3-39.3-24.8-20.2-11.4-41.3-21.1-20.2-10.5-41.3-19.3-21.1-8.9-42.8-16-21.7-7.1-43.9-12.4-22.2-5.4-44.8-9c-4.9-5.4-9.4-11.3-13.4-17.5-4-6.1-7.4-12.7-10.3-19.4-2.9-6.8-5.3-13.8-7-21-1.8-7.1-2.9-14.4-3.4-21.7-4.1 1.4-11.4 4.3-11.4 19.2-2.6 68.6 116.2 150.7 183 179.8 85.6 39.5 201.7 88.5 264.8 44.7z" fill-rule="evenodd"/></g></svg>