<svg height="400" viewBox="0 0 400 400" width="400" xmlns="http://www.w3.org/2000/svg"><path d="m192.578 2.975c-19.566.695-37.147 6.146-50.135 15.546-.297.215-1.142.816-1.879 1.336-2.781 1.965-10.453 9.326-12.85 12.329-7.432 9.314-11.215 16.802-16.667 32.996-1.982 5.888-2.853 8.333-3.981 11.171-2.009 5.056-1.806 9.731.899 20.762 1.951 7.954 2.327 10.092 1.948 11.085-.295.771-1.947 2.45-4.043 4.108-9.953 7.873-9.849 7.689-6.996 12.423.862 1.432 2.064 3.243 7.139 10.762 7.529 11.155 7.82 11.982 7.1 20.242-1.181 13.544-.948 21.682.75 26.255.364.981.48.917 3.414-1.879 3.48-3.315 7.607-6.921 14.302-12.495 12.965-10.794 13.495-11.266 13.495-12.013 0-.368-.238-.822-1.27-2.415-2.436-3.76-2.924-5.243-2.713-8.238.282-4.005 4.336-13.559 8.264-19.476 1.739-2.618 2.692-3.147 5.638-3.126 6.919.048 24.221 5.174 28.495 8.441 3.57 2.73-2.971 11.215-18.034 23.395-.717.579-4.521 3.754-5.4 4.507-.408.349-1.896 1.601-3.306 2.783-1.411 1.181-3.324 2.783-4.251 3.56-27.509 23.046-46.039 40.27-48.632 45.204-.957 1.822-.8 2.612 1.577 7.913 1.558 3.476.983 2.228 6.804 14.777.224.483.907 1.94 1.518 3.239s1.583 3.394 2.161 4.656 1.7 3.691 2.495 5.398c1.721 3.7 6.912 15.062 8.601 18.826.149.334.561 1.245.914 2.025 6.93 15.303 12.124 27.966 14.917 36.369 2.234 6.721 2.667 9.781 2.015 14.238-.974 6.652-5.497 24.155-9.053 35.034l-.225.689 1.813 2.415c7.688 10.241 13.711 16.862 16.512 18.152 1.716.791 3.938-.794 4.314-3.077.309-1.881-1.206-6.829-5.094-16.641-4.556-11.497-4.604-11.822-2.327-15.939 1.651-2.987 4.718-7.704 8.733-13.43 2.616-3.732 2.737-3.97 2.625-5.158-.163-1.73-2.562-16.717-3.47-21.681-.535-2.924-1.217-4.471-4.047-9.177-3.028-5.036-3.978-7.226-8.568-19.77-3.015-8.238-4.801-13.134-7.163-19.636-1.375-3.785-2.746-7.55-3.046-8.367-.3-.816-.897-2.456-1.326-3.644-.43-1.187-1.278-3.525-1.885-5.195s-1.275-3.523-1.485-4.116c-.209-.594-1.511-4.208-2.893-8.03-2.803-7.749-2.729-7.395-1.696-8.172 1.778-1.339 21.829-14.833 22.96-15.452.178-.098.453.173 1.417 1.393 2.749 3.48 6.808 7.683 9.024 9.342 3.733 2.798 3.628 2.638 3.689 5.581.097 4.688-.666 7.972-5.129 22.085-2.861 9.049-2.943 9.432-2.398 11.199.491 1.59 2.772 6.86 6.573 15.185.593 1.298 1.215 2.665 1.382 3.036s.901 1.959 1.631 3.528c1.72 3.701 1.817 3.911 4.199 9.158 7.951 17.513 10.434 23.242 12.522 28.897 1.633 4.424 1.729 3.49-1.624 15.839-6.632 24.428-9.674 36.706-10.278 41.484-.416 3.301.645 5.045 7.853 12.902 4.896 5.338 4.724 5.037 6.423 11.263 2.821 10.334 5.096 13.164 8.015 9.97 3.807-4.165 2.268-13.887-3.777-23.864-4.787-7.901-4.859-8.067-4.962-11.413-.098-3.193.277-4.631 3.415-13.081.84-2.264 2.055-5.543 2.7-7.288 5.785-15.653 7.568-22.765 7.308-29.158-.193-4.726-2.364-10.854-12.884-36.361-8.309-20.149-8.539-20.851-8.127-24.899.67-6.578 5.157-29.014 6.746-33.733 1.77-5.253 8.918-16.102 11.251-17.077 1.251-.523 2.87.522 5.451 3.518l.574.666.37-.472c2.23-2.846 4.614-4.279 5.96-3.583 1.846.955 8.446 10.801 10.316 15.391 1.724 4.232 5.386 21.687 7.247 34.548.637 4.399.529 4.748-7.498 24.291-.64 1.559-1.549 3.776-2.019 4.926-.47 1.151-1.353 3.306-1.963 4.791-4.805 11.695-7.763 19.721-8.88 24.089-.738 2.888-.464 9.381.596 14.139 1.029 4.618 3.844 13.061 8.155 24.457 5.53 14.622 5.562 15.632.743 23.55-5.728 9.411-7.232 13.558-7.242 19.966-.005 3.462.475 5.212 1.802 6.575 2.991 3.071 5.485.039 8.069-9.807 1.731-6.595 1.338-5.942 7.767-12.911 4.587-4.973 6.077-7.068 6.385-8.981.514-3.19-1.718-12.845-10.038-43.425-2.035-7.48-2.927-11.171-2.935-12.146-.021-2.43 2.524-8.484 15.89-37.787.644-1.41 1.354-2.959 1.579-3.441.225-.483.608-1.333.85-1.889.242-.557.636-1.438.877-1.957 4.21-9.107 7.784-17.215 8.355-18.953.488-1.487.313-2.484-1.339-7.633-5.436-16.935-6.199-20.073-6.204-25.521-.002-2.867.107-3.083 2.361-4.681 2.824-2.003 5.853-4.926 9.244-8.922 2.262-2.666 2.368-2.752 2.983-2.434.869.449 20.229 13.399 22.226 14.867 1.248.918 1.234.859.634 2.574-.713 2.035-2.788 7.816-4.322 12.039-2.139 5.89-5.361 14.765-6.344 17.476-.619 1.707-1.528 4.197-2.019 5.533-.492 1.336-1.494 4.069-2.225 6.073-2.345 6.421-6.128 16.668-7.024 19.028-.31.817-.704 1.91-.875 2.43-1.501 4.565-3.249 8.214-6.3 13.157-1.788 2.897-2.378 4.161-2.942 6.303-.567 2.154-4.049 22.973-4.049 24.208 0 .478.314.967 3.241 5.059 3.882 5.428 7.68 11.413 9.037 14.24 1.304 2.718 1.085 3.819-2.626 13.213-6.574 16.642-6.902 18.619-3.453 20.806 2.411 1.529 7.794-3.592 18.193-17.309l2.311-3.048-.517-1.742c-.285-.959-.946-3.146-1.471-4.86-5.18-16.946-7.942-29.746-7.451-34.532.549-5.357 4.826-17.29 12.6-35.158 1.943-4.464 6.685-15.046 8.256-18.421.276-.594 1.097-2.385 1.824-3.981s1.607-3.509 1.956-4.251.939-2.018 1.312-2.834c.373-.817.945-2.053 1.27-2.748.326-.695.593-1.281.593-1.301 0-.021.394-.869.877-1.884.482-1.015.877-1.865.877-1.887 0-.023.327-.732.726-1.576.399-.845 1.242-2.659 1.872-4.032 1.696-3.696 1.776-3.87 2.43-5.263 5.597-11.931 7.29-15.875 7.299-17.006.025-2.835-10.915-13.877-31.014-31.307-1.327-1.151-2.938-2.547-3.579-3.104-9.54-8.275-17.13-14.634-24.225-20.297-4.972-3.968-7.659-6.16-11.066-9.031-7.632-6.428-11.427-11.874-11.397-16.354l.004-.674.972-.608c6.844-4.274 24.354-8.926 30.599-8.129 1.966.251 4.066 3.085 7.28 9.823 3.638 7.629 4.458 10.14 4.458 13.661v2.504l-.681 1.275c-.375.701-1.18 2.06-1.788 3.019-1.825 2.873-1.774 2.77-1.528 3.146.374.571 5.914 5.389 10.557 9.183 4.156 3.395 10.954 9.231 13.75 11.804.446.41 1.296 1.176 1.89 1.703s1.535 1.366 2.092 1.865c2.521 2.258 2.683 2.307 3.097.929 1.654-5.509 1.877-12.761.738-24.062-1.038-10.296-1.599-8.839 10.357-26.923 5.145-7.783 5.241-7.959 5.241-9.631 0-1.575-1.297-2.942-6.68-7.039-7.121-5.42-6.879-4.106-3.437-18.683 1.494-6.329 1.496-6.339 1.57-11.408l.065-4.386-.895-2.227c-1.245-3.1-2.26-5.935-5.874-16.397-8.761-25.367-22.382-40.761-44.533-50.329-13.509-5.835-29.503-8.13-51.282-7.357m8.918 148.318c4.624 1.503 10.275 8.338 13.546 16.386 2.143 5.272 2.13 7.812-.049 10.013-3.243 3.275-8.546 4.524-17.392 4.095-6.681-.323-11.154-2.457-12.947-6.176l-.47-.975.153-1.149c1.182-8.878 10.619-22.007 16.147-22.463.08-.006.536.115 1.012.269" fill-rule="evenodd"/></svg>