<svg id="svg" xmlns="http://www.w3.org/2000/svg" xmlns:xlink="http://www.w3.org/1999/xlink" width="400" height="400" viewBox="0, 0, 400,400"><g id="svgg"><path id="path0" d="M192.578 2.975 C 173.012 3.670,155.431 9.121,142.443 18.521 C 142.146 18.736,141.301 19.337,140.564 19.857 C 137.783 21.822,130.111 29.183,127.714 32.186 C 120.282 41.500,116.499 48.988,111.047 65.182 C 109.065 71.070,108.194 73.515,107.066 76.353 C 105.057 81.409,105.260 86.084,107.965 97.115 C 109.916 105.069,110.292 107.207,109.913 108.200 C 109.618 108.971,107.966 110.650,105.870 112.308 C 95.917 120.181,96.021 119.997,98.874 124.731 C 99.736 126.163,100.938 127.974,106.013 135.493 C 113.542 146.648,113.833 147.475,113.113 155.735 C 111.932 169.279,112.165 177.417,113.863 181.990 C 114.227 182.971,114.343 182.907,117.277 180.111 C 120.757 176.796,124.884 173.190,131.579 167.616 C 144.544 156.822,145.074 156.350,145.074 155.603 C 145.074 155.235,144.836 154.781,143.804 153.188 C 141.368 149.428,140.880 147.945,141.091 144.950 C 141.373 140.945,145.427 131.391,149.355 125.474 C 151.094 122.856,152.047 122.327,154.993 122.348 C 161.912 122.396,179.214 127.522,183.488 130.789 C 187.058 133.519,180.517 142.004,165.454 154.184 C 164.737 154.763,160.933 157.938,160.054 158.691 C 159.646 159.040,158.158 160.292,156.748 161.474 C 155.337 162.655,153.424 164.257,152.497 165.034 C 124.988 188.080,106.458 205.304,103.865 210.238 C 102.908 212.060,103.065 212.850,105.442 218.151 C 107.000 221.627,106.425 220.379,112.246 232.928 C 112.470 233.411,113.153 234.868,113.764 236.167 C 114.375 237.466,115.347 239.561,115.925 240.823 C 116.503 242.085,117.625 244.514,118.420 246.221 C 120.141 249.921,125.332 261.283,127.021 265.047 C 127.170 265.381,127.582 266.292,127.935 267.072 C 134.865 282.375,140.059 295.038,142.852 303.441 C 145.086 310.162,145.519 313.222,144.867 317.679 C 143.893 324.331,139.370 341.834,135.814 352.713 L 135.589 353.402 137.402 355.817 C 145.090 366.058,151.113 372.679,153.914 373.969 C 155.630 374.760,157.852 373.175,158.228 370.892 C 158.537 369.011,157.022 364.063,153.134 354.251 C 148.578 342.754,148.530 342.429,150.807 338.312 C 152.458 335.325,155.525 330.608,159.540 324.882 C 162.156 321.150,162.277 320.912,162.165 319.724 C 162.002 317.994,159.603 303.007,158.695 298.043 C 158.160 295.119,157.478 293.572,154.648 288.866 C 151.620 283.830,150.670 281.640,146.080 269.096 C 143.065 260.858,141.279 255.962,138.917 249.460 C 137.542 245.675,136.171 241.910,135.871 241.093 C 135.571 240.277,134.974 238.637,134.545 237.449 C 134.115 236.262,133.267 233.924,132.660 232.254 C 132.053 230.584,131.385 228.731,131.175 228.138 C 130.966 227.544,129.664 223.930,128.282 220.108 C 125.479 212.359,125.553 212.713,126.586 211.936 C 128.364 210.597,148.415 197.103,149.546 196.484 C 149.724 196.386,149.999 196.657,150.963 197.877 C 153.712 201.357,157.771 205.560,159.987 207.219 C 163.720 210.017,163.615 209.857,163.676 212.800 C 163.773 217.488,163.010 220.772,158.547 234.885 C 155.686 243.934,155.604 244.317,156.149 246.084 C 156.640 247.674,158.921 252.944,162.722 261.269 C 163.315 262.567,163.937 263.934,164.104 264.305 C 164.271 264.676,165.005 266.264,165.735 267.833 C 167.455 271.534,167.552 271.744,169.934 276.991 C 177.885 294.504,180.368 300.233,182.456 305.888 C 184.089 310.312,184.185 309.378,180.832 321.727 C 174.200 346.155,171.158 358.433,170.554 363.211 C 170.138 366.512,171.199 368.256,178.407 376.113 C 183.303 381.451,183.131 381.150,184.830 387.376 C 187.651 397.710,189.926 400.540,192.845 397.346 C 196.652 393.181,195.113 383.459,189.068 373.482 C 184.281 365.581,184.209 365.415,184.106 362.069 C 184.008 358.876,184.383 357.438,187.521 348.988 C 188.361 346.724,189.576 343.445,190.221 341.700 C 196.006 326.047,197.789 318.935,197.529 312.542 C 197.336 307.816,195.165 301.688,184.645 276.181 C 176.336 256.032,176.106 255.330,176.518 251.282 C 177.188 244.704,181.675 222.268,183.264 217.549 C 185.034 212.296,192.182 201.447,194.515 200.472 C 195.766 199.949,197.385 200.994,199.966 203.990 L 200.540 204.656 200.910 204.184 C 203.140 201.338,205.524 199.905,206.870 200.601 C 208.716 201.556,215.316 211.402,217.186 215.992 C 218.910 220.224,222.572 237.679,224.433 250.540 C 225.070 254.939,224.962 255.288,216.935 274.831 C 216.295 276.390,215.386 278.607,214.916 279.757 C 214.446 280.908,213.563 283.063,212.953 284.548 C 208.148 296.243,205.190 304.269,204.073 308.637 C 203.335 311.525,203.609 318.018,204.669 322.776 C 205.698 327.394,208.513 335.837,212.824 347.233 C 218.354 361.855,218.386 362.865,213.567 370.783 C 207.839 380.194,206.335 384.341,206.325 390.749 C 206.320 394.211,206.800 395.961,208.127 397.324 C 211.118 400.395,213.612 397.363,216.196 387.517 C 217.927 380.922,217.534 381.575,223.963 374.606 C 228.550 369.633,230.040 367.538,230.348 365.625 C 230.862 362.435,228.630 352.780,220.310 322.200 C 218.275 314.720,217.383 311.029,217.375 310.054 C 217.354 307.624,219.899 301.570,233.265 272.267 C 233.909 270.857,234.619 269.308,234.844 268.826 C 235.069 268.343,235.452 267.493,235.694 266.937 C 235.936 266.380,236.330 265.499,236.571 264.980 C 240.781 255.873,244.355 247.765,244.926 246.027 C 245.414 244.540,245.239 243.543,243.587 238.394 C 238.151 221.459,237.388 218.321,237.383 212.873 C 237.381 210.006,237.490 209.790,239.744 208.192 C 242.568 206.189,245.597 203.266,248.988 199.270 C 251.250 196.604,251.356 196.518,251.971 196.836 C 252.840 197.285,272.200 210.235,274.197 211.703 C 275.445 212.621,275.431 212.562,274.831 214.277 C 274.118 216.312,272.043 222.093,270.509 226.316 C 268.370 232.206,265.148 241.081,264.165 243.792 C 263.546 245.499,262.637 247.989,262.146 249.325 C 261.654 250.661,260.652 253.394,259.921 255.398 C 257.576 261.819,253.793 272.066,252.897 274.426 C 252.587 275.243,252.193 276.336,252.022 276.856 C 250.521 281.421,248.773 285.070,245.722 290.013 C 243.934 292.910,243.344 294.174,242.780 296.316 C 242.213 298.470,238.731 319.289,238.731 320.524 C 238.731 321.002,239.045 321.491,241.972 325.583 C 245.854 331.011,249.652 336.996,251.009 339.823 C 252.313 342.541,252.094 343.642,248.383 353.036 C 241.809 369.678,241.481 371.655,244.930 373.842 C 247.341 375.371,252.724 370.250,263.123 356.533 L 265.434 353.485 264.917 351.743 C 264.632 350.784,263.971 348.597,263.446 346.883 C 258.266 329.937,255.504 317.137,255.995 312.351 C 256.544 306.994,260.821 295.061,268.595 277.193 C 270.538 272.729,275.280 262.147,276.851 258.772 C 277.127 258.178,277.948 256.387,278.675 254.791 C 279.402 253.195,280.282 251.282,280.631 250.540 C 280.980 249.798,281.570 248.522,281.943 247.706 C 282.316 246.889,282.888 245.653,283.213 244.958 C 283.539 244.263,283.806 243.677,283.806 243.657 C 283.806 243.636,284.200 242.788,284.683 241.773 C 285.165 240.758,285.560 239.908,285.560 239.886 C 285.560 239.863,285.887 239.154,286.286 238.310 C 286.685 237.465,287.528 235.651,288.158 234.278 C 289.854 230.582,289.934 230.408,290.588 229.015 C 296.185 217.084,297.878 213.140,297.887 212.009 C 297.912 209.174,286.972 198.132,266.873 180.702 C 265.546 179.551,263.935 178.155,263.294 177.598 C 253.754 169.323,246.164 162.964,239.069 157.301 C 234.097 153.333,231.410 151.141,228.003 148.270 C 220.371 141.842,216.576 136.396,216.606 131.916 L 216.610 131.242 217.582 130.634 C 224.426 126.360,241.936 121.708,248.181 122.505 C 250.147 122.756,252.247 125.590,255.461 132.328 C 259.099 139.957,259.919 142.468,259.919 145.989 L 259.919 148.493 259.238 149.768 C 258.863 150.469,258.058 151.828,257.450 152.787 C 255.625 155.660,255.676 155.557,255.922 155.933 C 256.296 156.504,261.836 161.322,266.479 165.116 C 270.635 168.511,277.433 174.347,280.229 176.920 C 280.675 177.330,281.525 178.096,282.119 178.623 C 282.713 179.150,283.654 179.989,284.211 180.488 C 286.732 182.746,286.894 182.795,287.308 181.417 C 288.962 175.908,289.185 168.656,288.046 157.355 C 287.008 147.059,286.447 148.516,298.403 130.432 C 303.548 122.649,303.644 122.473,303.644 120.801 C 303.644 119.226,302.347 117.859,296.964 113.762 C 289.843 108.342,290.085 109.656,293.527 95.079 C 295.021 88.750,295.023 88.740,295.097 83.671 L 295.162 79.285 294.267 77.058 C 293.022 73.958,292.007 71.123,288.393 60.661 C 279.632 35.294,266.011 19.900,243.860 10.332 C 230.351 4.497,214.357 2.202,192.578 2.975 M201.496 151.293 C 206.120 152.796,211.771 159.631,215.042 167.679 C 217.185 172.951,217.172 175.491,214.993 177.692 C 211.750 180.967,206.447 182.216,197.601 181.787 C 190.920 181.464,186.447 179.330,184.654 175.611 L 184.184 174.636 184.337 173.487 C 185.519 164.609,194.956 151.480,200.484 151.024 C 200.564 151.018,201.020 151.139,201.496 151.293 " stroke="none" fill="#000000" fill-rule="evenodd"></path></g></svg>