<svg height="1000" viewBox="0 0 1000 1000" width="1000" xmlns="http://www.w3.org/2000/svg" xmlns:xlink="http://www.w3.org/1999/xlink"><clipPath id="a"><path d="m144 .14h711.9v998.61h-711.9z"/></clipPath><g clip-path="url(#a)"><path d="m851.7.5c.7-.4 1.5-.6 2.3-.4.8.1 1.5.6 1.9 1.3.5.6.7 1.5.5 2.3s-.6 1.5-1.1 2.3c-25.8 42-51.1 98.7-51.1 120.1.5 9.7 14.4 21.7 42.2-2.2.6-.4 1.2-.7 1.8-.8.7 0 1.3 0 1.9.3s1.1.7 1.5 1.2.6 1.1.7 1.8c3.3 57.8-167.4 275.9-155.2 305.9 6.7 16.4 24.8 10.6 49.5-13.1.5-.4 1.1-.6 1.7-.7s1.2.1 1.8.4c.5.3 1 .7 1.2 1.3.3.6.4 1.2.3 1.8-25.6 107.6-122.9 206.3-126.8 241.1-2.2 22.2 18.1 29.5 48.7 2.2.4-.7 1-1.2 1.8-1.5.8-.2 1.6-.2 2.3.2.8.3 1.3 1 1.6 1.7.2.8.2 1.7.9 3-10 80.3-98.4 146.2-90.3 178.8 4.1 14.7 30-2.8 47-13.1.5-.3 1.1-.4 1.7-.4.5.1 1.1.3 1.6.6.4.4.8.9 1 1.4.2.6.2 1.2.1 1.7-19.7 69.6-184.1 242.2-389.3 119.3-172.1-102.9-99.6-353.1-33.1-419.9.4-.6.9-1.1 1.6-1.4.7-.2 1.5-.1 2.2.2.6.3 1.1.9 1.3 1.6.3.7.2 1.5-.1 2.1-5.3 26.4-6.1 45.6 9.2 42.9 25.6-5.9 39.8-104.1 91.8-144.9.5-.4 1-.6 1.6-.6s1.2.2 1.7.5c.5.4.9.8 1.2 1.4.2.5.3 1.1.2 1.7-9.2 41.2 23.9 68.7 38.9 33.7 37.8-88.2 76.2-146.9 104-164.4.5-.3 1.1-.4 1.7-.3.6 0 1.1.2 1.6.6.5.3.8.8 1 1.3.3.6.3 1.2.2 1.8-7.3 32.8-17.3 57.5 3.6 55.6 44.2-4.5 164.1-268.4 219.7-296.2q.4.1.9.4.4.2.7.6.3.4.4.9.2.4.2.9c-9.2 31.1-13.6 52.8 0 55.6 32.8 8.1 90.9-97 149.1-131m-373.2 604.9c-8.3-3.9-16.8-7.2-25.5-9.8s-17.6-4.6-26.6-5.9c-9.1-1.3-18.2-1.9-27.3-1.8-9.1 0-18.2.8-27.1 2.2-32.6 2.5-98.8 45.6-136 101.2-15 22.5-7.8 48.9-17.3 96.5-10.8 56.5 50.6 102.6 81.5 113.5q10 2.9 20.1 5.5 10.1 2.6 20.3 4.7 10.2 2.1 20.5 3.8 10.2 1.7 20.6 2.9c11 3 22.4 4.2 33.8 3.5 11.3-.6 22.5-3.1 33.1-7.2 10.6-4.2 20.5-10.1 29.3-17.4 8.7-7.3 16.2-15.9 22.3-25.6 34.4-45.3 67-98.7 41.7-160.7-11.4-27.3-24.2-85.1-63.4-105.4z" fill-rule="evenodd"/></g></svg>