<svg id="svg" xmlns="http://www.w3.org/2000/svg" xmlns:xlink="http://www.w3.org/1999/xlink" width="400" height="400" viewBox="0, 0, 400,400"><g id="svgg"><path id="path0" d="M199.496 0.430 C 199.062 0.952,172.065 178.252,172.065 180.576 L 172.065 181.200 173.583 181.288 C 175.545 181.401,184.202 181.401,186.923 181.288 L 189.029 181.201 189.250 180.243 C 189.743 178.102,190.221 175.128,194.862 145.277 C 199.094 118.060,199.611 115.115,200.152 115.115 C 200.712 115.115,200.693 115.014,202.842 128.880 C 209.493 171.789,210.094 175.604,211.021 180.790 L 211.097 181.216 212.870 181.306 C 217.031 181.517,227.940 181.333,228.149 181.047 C 228.629 180.390,228.989 182.978,223.076 144.534 C 203.710 18.621,200.942 0.888,200.594 0.540 C 200.358 0.304,199.658 0.234,199.496 0.430 M272.476 26.959 C 272.128 27.241,272.063 27.500,271.464 31.039 C 270.009 39.639,244.872 204.032,244.587 206.813 L 244.502 207.649 245.834 207.738 C 249.122 207.955,261.484 207.841,261.705 207.591 C 262.052 207.199,262.209 206.245,266.533 178.340 C 272.620 139.060,272.180 141.699,272.648 141.702 C 273.440 141.708,273.148 140.110,277.520 168.354 C 281.653 195.048,283.529 207.051,283.611 207.311 C 283.780 207.845,288.727 207.989,296.784 207.694 C 301.083 207.537,300.945 207.567,300.945 206.792 C 300.945 205.766,274.380 31.464,273.749 28.352 C 273.470 26.977,273.037 26.504,272.476 26.959 M126.658 27.294 C 126.508 27.968,110.697 131.171,105.326 166.532 C 99.801 202.908,99.161 207.304,99.363 207.505 C 99.751 207.893,116.403 207.977,116.515 207.591 C 116.786 206.661,117.914 199.644,121.315 177.733 C 127.251 139.488,127.250 139.491,128.048 142.982 C 128.624 145.505,129.999 154.020,133.332 175.709 C 135.134 187.434,137.451 202.129,138.024 205.466 L 138.394 207.625 140.351 207.733 C 142.567 207.855,154.651 207.758,155.248 207.613 L 155.638 207.519 155.559 206.425 C 155.343 203.441,129.087 31.201,128.339 27.864 C 128.165 27.085,128.058 26.995,127.297 26.993 C 126.814 26.991,126.715 27.037,126.658 27.294 M195.682 187.928 C 194.039 188.385,192.304 189.898,191.429 191.636 L 190.958 192.571 190.958 296.285 L 190.958 400.000 200.067 400.000 L 209.177 400.000 209.177 296.207 L 209.177 192.415 208.675 191.460 C 207.736 189.672,206.305 188.421,204.743 188.023 C 203.565 187.722,196.679 187.650,195.682 187.928 M123.378 214.439 C 121.749 214.685,119.972 216.055,118.985 217.827 L 118.489 218.717 118.489 305.445 L 118.489 392.173 127.530 392.173 L 136.572 392.173 136.572 305.597 L 136.572 219.022 136.084 218.052 C 135.409 216.712,134.265 215.552,132.968 214.893 L 131.942 214.372 128.016 214.352 C 125.856 214.341,123.769 214.380,123.378 214.439 M268.665 214.451 C 267.026 214.691,265.296 216.035,264.194 217.922 L 263.698 218.773 263.698 305.318 L 263.698 391.864 264.744 391.950 C 265.319 391.997,269.392 392.077,273.795 392.126 L 281.800 392.217 281.757 305.319 L 281.714 218.421 281.423 217.881 C 281.005 217.106,278.966 215.167,278.222 214.838 C 277.108 214.345,271.056 214.100,268.665 214.451 " stroke="none" fill="#000000" fill-rule="evenodd"></path></g></svg>