<svg height="400" viewBox="0 0 400 400" width="400" xmlns="http://www.w3.org/2000/svg"><path d="m199.496.43c-.434.522-27.431 177.822-27.431 180.146v.624l1.518.088c1.962.113 10.619.113 13.34 0l2.106-.087.221-.958c.493-2.141.971-5.115 5.612-34.966 4.232-27.217 4.749-30.162 5.29-30.162.56 0 .541-.101 2.69 13.765 6.651 42.909 7.252 46.724 8.179 51.91l.076.426 1.773.09c4.161.211 15.07.027 15.279-.259.48-.657.84 1.931-5.073-36.513-19.366-125.913-22.134-143.646-22.482-143.994-.236-.236-.936-.306-1.098-.11m72.98 26.529c-.348.282-.413.541-1.012 4.08-1.455 8.6-26.592 172.993-26.877 175.774l-.085.836 1.332.089c3.288.217 15.65.103 15.871-.147.347-.392.504-1.346 4.828-29.251 6.087-39.28 5.647-36.641 6.115-36.638.792.006.5-1.592 4.872 26.652 4.133 26.694 6.009 38.697 6.091 38.957.169.534 5.116.678 13.173.383 4.299-.157 4.161-.127 4.161-.902 0-1.026-26.565-175.328-27.196-178.44-.279-1.375-.712-1.848-1.273-1.393m-145.818.335c-.15.674-15.961 103.877-21.332 139.238-5.525 36.376-6.165 40.772-5.963 40.973.388.388 17.04.472 17.152.086.271-.93 1.399-7.947 4.8-29.858 5.936-38.245 5.935-38.242 6.733-34.751.576 2.523 1.951 11.038 5.284 32.727 1.802 11.725 4.119 26.42 4.692 29.757l.37 2.159 1.957.108c2.216.122 14.3.025 14.897-.12l.39-.094-.079-1.094c-.216-2.984-26.472-175.224-27.22-178.561-.174-.779-.281-.869-1.042-.871-.483-.002-.582.044-.639.301m69.024 160.634c-1.643.457-3.378 1.97-4.253 3.708l-.471.935v103.714 103.715h9.109 9.11v-103.793-103.792l-.502-.955c-.939-1.788-2.37-3.039-3.932-3.437-1.178-.301-8.064-.373-9.061-.095m-72.304 26.511c-1.629.246-3.406 1.616-4.393 3.388l-.496.89v86.728 86.728h9.041 9.042v-86.576-86.575l-.488-.97c-.675-1.34-1.819-2.5-3.116-3.159l-1.026-.521-3.926-.02c-2.16-.011-4.247.028-4.638.087m145.287.012c-1.639.24-3.369 1.584-4.471 3.471l-.496.851v86.545 86.546l1.046.086c.575.047 4.648.127 9.051.176l8.005.091-.043-86.898-.043-86.898-.291-.54c-.418-.775-2.457-2.714-3.201-3.043-1.114-.493-7.166-.738-9.557-.387" fill-rule="evenodd"/></svg>