<svg height="400" viewBox="0 0 400 400" width="400" xmlns="http://www.w3.org/2000/svg">
    <path
        d="m154.605 1.984c-1.387 1.092-3.682 4.57-5.1 7.729-4.015 8.95-8.255 10.038-15.778 4.048-7.943-6.324-11.958-4.871-31.892 11.543-15.493 12.757-16.023 13.632-13.134 21.694 1.951 5.442 1.787 5.58-6.421 5.39-12.039-.279-13.694 1.681-18.889 22.383-6.15 24.502-5.273 30.881 4.543 33.037 5.312 1.167 4.772 8.298-.9 11.878-6.636 4.189-7.412 6.714-5.408 17.594 1.365 7.405.656 7.698 11.855-4.898 13.102-14.737 13.81-15.737 12.662-17.882-.781-1.459-.319-2.359 2.731-5.318 4.172-4.05 6.456-10.264 10.621-28.907 1.352-6.055 2.757-12.247 3.121-13.761.605-2.514 1.078-2.804 5.464-3.343 7.863-.966 35.951-23.005 37.185-29.177l.526-2.629 8.149 3.513c18.006 7.763 30.132 11.256 37.445 10.787l6.667-.428.63 3.758c.652 3.894 3.291 9.97 6.786 15.625 2.002 3.238 2.082 3.27 8.368 3.27 3.491 0 6.347-.164 6.347-.365s-1.027-2.162-2.282-4.358c-2.86-5.003-2.867-4.913.483-6.301 4.007-1.66 6.168-7.595 3.864-10.611-.379-.495.137.062 1.146 1.238 1.01 1.175 4.171 5.936 7.025 10.579 2.855 4.643 6.163 9.172 7.353 10.065 2.017 1.514 11.769 3.379 11.769 2.25 0-2.764-12.603-25.595-18.447-33.418-4.519-6.049-7.657-6.874-15.4-4.051-9.021 3.29-12.024 1.202-12.024-8.36 0-9.518-3.132-11.755-28.489-20.346-13.996-4.741-16.97-5.063-20.576-2.228m27.295 21.105-2.298 3.471 1.763 3.563 1.763 3.563-7.39-2.655c-4.064-1.46-7.901-2.832-8.527-3.049-.756-.262-.371-1.16 1.147-2.679 2.623-2.623 2.977-6.474.872-9.479-1.349-1.926-1.046-1.887 6.777.889l8.19 2.905zm-58.836 9.447c1.521 1.279 3.403 2.326 4.183 2.326 2.017 0 .273 1.942-6.264 6.972-5.876 4.521-6.679 4.828-5.856 2.237.769-2.424-.891-5.277-4.266-7.329l-2.783-1.693 5.824-4.611c5.606-4.439 5.833-4.529 6.11-2.42.158 1.205 1.531 3.238 3.052 4.518m101.33 32.511c-1.878 2.075-1.431 2.414 4.276 3.241 4.831.7 5.517-.156 2.523-3.15-2.307-2.307-4.764-2.34-6.799-.091m-142.493 11.1c.922 0 2.894-.63 4.383-1.4 3.06-1.582 3.252-1.15 1.843 4.152-.469 1.766-1.313 4.98-1.874 7.141l-1.019 3.931-2.621-1.866c-3.516-2.504-4.923-2.36-8.613.88l-3.129 2.747 2.243-8.022c1.233-4.412 2.417-8.564 2.631-9.226.308-.955.81-.908 2.434.23 1.125.788 2.8 1.433 3.722 1.433m112.693.066c-52.111 5.89-97.905 34.448-132.321 82.519-12.002 16.765-33.143 59.695-30.632 62.205.243.243 2.884-1.066 5.869-2.908 2.985-1.843 5.621-3.35 5.858-3.35.529 0-.628 6.353-2.457 13.496-4.684 18.294-8.308 43.385-6.266 43.385.535 0 3.486-2.744 6.558-6.096l5.586-6.096v11.417c0 30.376 2.575 43.168 6.777 33.666 1.232-2.787 3.037-6.375 4.01-7.975l1.769-2.909 8.325 11.244c14.371 19.409 28.98 33.699 33.111 32.388.875-.278 3.21-3.291 5.187-6.696 6.513-11.217 17.549-19.61 30.721-23.365 5.447-1.553 5.506-2.821.514-11.043-28.914-47.626-28.009-98.814 2.551-144.26 24.137-35.894 56.329-54.72 111.613-65.273l13.295-2.538-7.79-2.469c-15.632-4.955-44.101-7.397-62.278-5.342m38.554 21.489c-6.745 1.72-12.476 3.339-12.735 3.598-.674.673 1.463 32.399 2.47 36.689.989 4.208 4.302 7.831 8.413 9.2 4.397 1.464 5.529 3.972 2.649 5.869-9.034 5.95-9.365 9.884-2.113 25.066 12.164 25.464 16.788 30.127 26.294 26.513 3.598-1.368 4.992.962 3.032 5.071-3.722 7.805-2.848 9.665 10.629 22.633 18.423 17.727 23.084 20.041 30.841 15.312 5.325-3.247 6.929-2.279 7.469 4.509.557 7.011 2.698 9.209 16.046 16.475 27.244 14.83 30.709 14.652 39.05-2 4.813-9.61 4.795-12.618-.106-17.143-4.312-3.98-25.465-15.559-33.434-18.301l-5.444-1.873-4.564 2.259c-5.25 2.598-6.191 2.389-5.471-1.212.821-4.102-1.565-7.418-13.17-18.302-16.301-15.291-18.903-17.124-24.188-17.045-3.915.059-4.3-.11-3.531-1.545 3.349-6.259-14.682-43.881-22.17-46.258-1.683-.534-1.577-.844 1.433-4.175l3.25-3.598-.008-10.318c-.009-12.683-1.521-30.51-2.788-32.877-1.4-2.617-7.48-2.213-21.854 1.453m12.998 22.113.506 8.347-2.613-2.613c-2.934-2.933-5.087-3.264-7.995-1.227-2.499 1.75-2.667 1.424-3.473-6.748-.65-6.594-.624-6.717 1.212-5.734 2.729 1.46 8.007 1.229 9.369-.411 1.854-2.234 2.452-.558 2.994 8.386m11.193 53.579 3.235 6.423h-2.935c-3.62 0-7.163 3.115-7.226 6.352-.034 1.809-.884.749-3.624-4.518-4.379-8.418-4.367-8.257-.601-8.257 3.069 0 5.278-1.663 6.396-4.816.88-2.481 1.29-2.065 4.755 4.816m-131.15 26.77c-2.05 9.015-3.074 23.721-1.648 23.66.379-.016 1.49-.635 2.469-1.376 4.07-3.079 8.227-1.483 9.145 3.51 1.402 7.618 3.633 8.751 21.184 10.762 22.413 2.567 26.548 2.439 31.591-.977 4.91-3.327 5.938-3.129 6.306 1.214.616 7.261 29.985 32.768 37.73 32.768 3.021 0 3.268 2.457.628 6.266-1.321 1.906-2.401 4.602-2.401 5.991 0 3.23 7.506 25.601 11.524 34.346 2.082 4.532 2.718 6.795 1.968 7.002-.609.169-2.747.665-4.752 1.103-4.566.998-5.471 2.539-14.282 24.344-6.493 16.07-6.642 16.331-9.017 15.757-1.327-.321-9.948-3.143-19.157-6.27l-16.743-5.685-4.854 2.196-4.854 2.196-8.814-5.134c-10.92-6.36-14.366-7.106-17.649-3.823-4.839 4.84-2.114 8.734 11.859 16.949l9.174 5.394.075 5.419c.132 9.475 3.66 11.948 28.538 20.007 18.357 5.947 20.676 5.559 25.006-4.179 1.199-2.699 2.968-6.642 3.93-8.763 2.226-4.911 4.002-5.421 11.049-3.174 15.71 5.01 17.327 4 24.82-15.504 9.833-25.592 10.017-27.045 4.256-33.606-4.023-4.582-3.713-5.133 5.302-9.443 11.237-5.371 11.834-8.281 5.275-25.701-9.666-25.676-11.583-28.441-19.713-28.441-6.381 0-8.811-4.652-5.184-9.924 7.201-10.468 5.49-13.582-17.848-32.484-13.212-10.701-16.134-11.476-22.977-6.093-6.352 4.997-13.784 2.625-14.692-4.688-1.171-9.437-12.688-13.255-42.383-14.049l-7.207-.193-3.544 3.985c-4.128 4.641-4.259 4.63-8.314-.702-3.689-4.849-5.146-5.517-5.796-2.66m39.178 12.31c3.406.343 6.193.726 6.193.851s-.617 1.409-1.371 2.855c-1.782 3.417-1.73 4.796.304 8.132l1.678 2.752-9.546-1.301c-9.002-1.227-9.512-1.411-8.936-3.211 1.509-4.716 1.503-7.055-.024-9.386l-1.59-2.426 3.549.556c1.953.305 6.337.836 9.743 1.178m129.292 7.592 5.21 4.976-2.916 1.959c-2.277 1.529-3.017 2.782-3.375 5.72l-.459 3.761-6.422-5.851-6.422-5.852 2.608-2.095c2.75-2.211 3.318-4.75 2.097-9.381l-.726-2.753 2.598 2.27c1.429 1.248 4.942 4.509 7.807 7.246m-65.635 17.988 8.873 7.32-2.888.59c-3.538.724-5.616 2.371-6.939 5.498l-1.006 2.379-8.467-7.129-8.467-7.13 3.421-1.672c2.422-1.183 3.679-2.546 4.303-4.665 1.095-3.721.545-3.957 11.17 4.809m124.914 17.897c2.229 2.11 2.136 4.042-.385 8.04-1.849 2.932-5.042 2.621-12.888-1.256-6.261-3.094-8.33-4.937-5.542-4.937 2.302 0 4.573-5.313 3.538-8.28l-.939-2.696 7.056 3.569c3.881 1.963 8.003 4.465 9.16 5.56m-91.553 42.37c0 .419-1.204.762-2.677.762-3.964 0-5.491.836-7.057 3.866-1.71 3.306-1.514 3.487-4.33-3.998l-2.294-6.095 3.47.465c3.125.42 3.728.141 6.08-2.806l2.611-3.272 2.099 5.158c1.154 2.837 2.098 5.501 2.098 5.92m-132.328 18.664c-25.768 9.465-27.254 46.32-2.314 57.402 9.794 4.353 29.68 1.831 30.784-3.903.372-1.931-12.804-8.747-19.238-9.953-14.796-2.773-18.146-21.084-5.02-27.438 8.058-3.901 15.642-.677 20.883 8.878 1.85 3.372 7.069 7.413 11.589 8.973 4.517 1.558 5.231.339 4.551-7.768-1.657-19.77-22.564-33.049-41.235-26.191m116.611 31.154c1.521.334 3.616.152 4.654-.404 2.27-1.215 2.274-1.183.417 3.3-.81 1.954-2.071 4.997-2.803 6.763l-1.331 3.211-1.725-2.285c-1.429-1.892-2.507-2.287-6.265-2.294l-4.539-.008 1.831-4.587c1.007-2.523 2.247-5.75 2.756-7.171l.926-2.583 1.657 2.725c1.006 1.654 2.744 2.964 4.422 3.333m-49.42 22.2c3.784 1.351 7.029 2.568 7.21 2.703.181.136-.541 1.47-1.606 2.964-2.269 3.187-2.47 6.307-.58 9.006 1.23 1.756.451 1.618-8.486-1.505-5.413-1.892-10.425-3.621-11.138-3.844-.832-.26-.091-1.117 2.064-2.389 2.987-1.762 3.361-2.395 3.361-5.683 0-4.44.182-4.464 9.175-1.252"
        fill-rule="evenodd" />
</svg>