<svg height="400" viewBox="0 0 400 400" width="400" xmlns="http://www.w3.org/2000/svg">
    <path
        d="m21.932 5.042c-.418.939-.786 1.883-.817 2.097-.032.215-.229 1.09-.439 1.946-.783 3.2-.981 4.483-1.329 8.607-.894 10.596-.079 23.7 2.08 33.462.82 3.705 1.422 6.244 1.764 7.436 1.355 4.717 2.75 9.134 3.605 11.41.534 1.422 1.363 3.544 1.653 4.231.119.282.47 1.147.781 1.923.858 2.14 4.919 10 5.167 10 .12 0 .218.125.218.277 0 .414 3.777 6.216 4.917 7.553.236.277 1.152 1.412 2.034 2.523 1.872 2.355 7.014 7.584 13.178 13.398 9.955 9.392 12.185 11.553 14.871 14.412 3.514 3.74 5.224 5.738 6.177 7.221.408.635.801 1.212.875 1.283.176.17 1.926 3.1 2.143 3.589.094.212.468.904.83 1.539 1.655 2.898 4.741 9.353 6.251 13.077.933 2.3.964 2.375 1.638 3.91.356.811.593 1.474.527 1.474s.07.369.303.819c.232.45.515 1.113.629 1.474.113.361.497 1.438.854 2.394.716 1.917.665 2.42-.265 2.654-.754.189-1.2-.181-2.983-2.469-.715-.917-1.428-1.782-1.585-1.923-.158-.141-.971-1.122-1.808-2.18-3.563-4.501-13.546-13.962-16.919-16.032-.423-.26-1-.665-1.282-.901s-.917-.647-1.41-.914c-.494-.267-.955-.549-1.026-.626-.752-.825-7.564-4.1-10.128-4.869-6.942-2.084-9.667-2.67-10.041-2.158-.579.792-.414 1.069 1.631 2.736 3.198 2.608 10.687 10.131 12.701 12.759 2.176 2.838 4.299 5.865 4.299 6.129 0 .101.14.325.312.496.461.462 1.812 2.898 3.295 5.945.721 1.48 1.531 3.135 1.801 3.678.269.542.489 1.101.489 1.243s.165.621.368 1.065c1.679 3.693 4.101 14.033 4.662 19.911.061.635.273 2.192.472 3.462.199 1.269.552 3.576.785 5.128.232 1.551.586 3.752.786 4.89.199 1.138.402 2.407.451 2.82.094.801.744 4.638 1.321 7.803.193 1.057.528 2.961.745 4.23.217 1.27.619 3.577.893 5.129.274 1.551.693 3.974.931 5.384s.589 3.372.78 4.359.41 2.235.488 2.772c.077.538.304 1.692.503 2.565.2.872.555 2.567.789 3.766.235 1.198.601 2.858.814 3.689.212.83.429 1.842.48 2.248.051.407.264 1.343.473 2.08.209.738.551 2.034.761 2.88.662 2.665 1.25 4.832 1.634 6.026.204.634.41 1.341.456 1.57.122.604 1.616 5.435 2.329 7.532 1.207 3.551 1.404 4.111 1.623 4.616.122.282.423 1.089.669 1.795.245.705.641 1.743.879 2.307s.637 1.545.886 2.18c.869 2.209 1.781 4.255 3.429 7.692 2.009 4.189 5.284 9.836 7.362 12.695 1.716 2.36 5.243 6.837 6.16 7.818.593.635 1.939 2.099 2.991 3.255 2.356 2.589 8.635 8.441 10.482 9.769.503.362 1.276 1.185 1.717 1.83 1.413 2.064 4.621 6.543 4.975 6.945.188.214.977 1.287 1.752 2.384.776 1.098 1.987 2.793 2.693 3.766.705.973 1.913 2.669 2.685 3.769s1.469 2.058 1.548 2.128c.134.119 8.625 11.907 9.484 13.167.212.31 1.654 2.328 3.206 4.484 1.551 2.156 3.171 4.424 3.6 5.039.43.615 1.033 1.447 1.341 1.849 1.226 1.599 4.502 6.172 5.245 7.32.433.67.886 1.218 1.006 1.218s.218.122.218.272c0 .149.405.813.9 1.474.496.662 1.073 1.433 1.284 1.716.657.879 3.014 4.162 4.354 6.065 1.26 1.788 3.288 4.596 4.229 5.858.993 1.33 2.349 3.253 3.254 4.615 1.42 2.136 4.354 4.936 5.979 5.704 3.412 1.613 3.249 1.577 7.051 1.568 1.975-.004 5.263-.199 7.308-.432 4.71-.538 10.698-1.166 12.692-1.331.846-.07 3.154-.294 5.128-.498 1.975-.204 5.436-.554 7.693-.778 2.256-.224 5.718-.575 7.692-.78s4.282-.43 5.128-.501c.846-.07 3.096-.297 5-.504s5.308-.559 7.564-.782c2.257-.222 5.718-.574 7.693-.781 1.974-.207 4.339-.431 5.256-.498.917-.066 3.224-.292 5.128-.501s5.308-.563 7.564-.786c2.257-.224 5.718-.578 7.693-.787 1.974-.21 3.936-.391 4.359-.404.423-.012 2.106-.182 3.739-.379 1.634-.196 3.711-.413 4.616-.482.904-.068 3.26-.293 5.234-.5 1.975-.206 5.494-.555 7.821-.775 7.438-.703 12.89-1.424 13.83-1.828 4.863-2.093 6.587-4.002 9.581-10.612.352-.775.997-2.197 1.435-3.159.437-.961.795-1.785.795-1.83 0-.044.562-1.277 1.248-2.738.687-1.462 1.501-3.234 1.809-3.939.69-1.578.815-1.859 1.83-4.103.446-.987 1.097-2.429 1.446-3.205s.791-1.756.983-2.18c.192-.423.644-1.432 1.004-2.243 1.209-2.723 1.979-4.412 2.858-6.266.48-1.014.873-1.913.873-1.997 0-.085.577-1.368 1.282-2.852s1.282-2.747 1.282-2.807.577-1.335 1.282-2.834 1.282-2.769 1.282-2.824c0-.085.714-1.697 1.917-4.33.602-1.317 1.832-4.034 2.554-5.641.38-.847.849-1.885 1.043-2.308s.581-1.289.862-1.923c.28-.635 1.037-2.286 1.682-3.669.645-1.384 1.173-2.565 1.173-2.625s.577-1.335 1.282-2.834 1.282-2.767 1.282-2.818c0-.052.41-.991.912-2.087.501-1.096 1.014-2.224 1.14-2.506s.594-1.32 1.04-2.307c.447-.987 1.098-2.43 1.447-3.205.348-.776.791-1.757.983-2.18s.629-1.404.973-2.179c.343-.776.915-2.045 1.272-2.821.356-.776.902-1.987 1.213-2.692s1.23-2.725 2.041-4.487c.811-1.763 1.728-3.782 2.036-4.488.692-1.58.818-1.863 1.83-4.102.447-.987 1.098-2.43 1.446-3.205.349-.776.792-1.757.984-2.18.88-1.942 1.75-3.889 2.22-4.972 2.349-5.41 1.626-10.723-2.158-15.858-.744-1.01-1.985-2.736-2.757-3.836s-1.468-2.058-1.548-2.129c-.08-.07-1.929-2.647-4.109-5.727-2.181-3.08-4.311-6.047-4.734-6.594-.796-1.029-1.38-1.835-4.637-6.397-2.598-3.639-3.758-5.251-4.981-6.923-.567-.775-1.345-1.871-1.728-2.436-.843-1.239-2.999-4.206-3.454-4.752-.181-.216-.764-1.056-1.298-1.866-.533-.811-1.148-1.672-1.367-1.915-.39-.431-3.161-4.292-5.287-7.364-.909-1.314-2.461-3.409-3.245-4.379-.123-.152-.525-.729-.895-1.282s-1.298-1.871-2.064-2.929c-.765-1.057-1.826-2.557-2.358-3.333s-1.377-1.944-1.878-2.596c-1.034-1.347-.836-1.072-4.603-6.378-1.552-2.186-3-4.206-3.219-4.488-.493-.637-2.682-3.648-4.328-5.955-2.564-3.591-4.503-6.297-7.881-10.998-1.914-2.663-3.923-5.476-4.464-6.252-.541-.775-1.052-1.468-1.136-1.538-.084-.071-.472-.599-.861-1.173-.39-.575-1.031-1.383-1.426-1.795-.395-.413-1.514-1.731-2.487-2.93-2.074-2.554-5.145-6.199-6.185-7.34-11.416-12.529-21.155-21.564-32.269-29.935-1.834-1.381-3.564-2.7-3.846-2.931s-1.032-.774-1.667-1.207-1.789-1.238-2.564-1.79c-.776-.552-1.987-1.382-2.693-1.846-.705-.463-1.455-.96-1.666-1.104-.481-.329-5.601-3.608-6.288-4.028-5.12-3.13-10.289-5.891-10.547-5.634-.144.144.445 1.052 3.501 5.395.635.902 1.894 2.721 2.799 4.043.904 1.322 1.844 2.691 2.089 3.044 1.282 1.85 4.642 7.127 6.01 9.442 3.54 5.989 4.066 7.088 3.708 7.756-.425.794-1.159.588-3.498-.98-1.209-.811-3.194-2.136-4.41-2.944-1.215-.809-2.383-1.589-2.595-1.733-.211-.144-1.654-1.09-3.205-2.101s-3.667-2.394-4.701-3.075c-1.034-.68-1.933-1.237-1.998-1.237s-.257-.119-.427-.266c-.171-.146-1.005-.694-1.856-1.217-.85-.524-1.773-1.093-2.051-1.264s-1.402-.864-2.498-1.539c-1.096-.674-2.194-1.342-2.441-1.483-.464-.265-2.615-1.551-3.515-2.102-.282-.173-.686-.398-.898-.501-.211-.102-.961-.526-1.666-.942-1.271-.748-1.93-1.112-5.898-3.253-3.309-1.787-6.399-3.269-9.872-4.735-.916-.387-1.897-.803-2.179-.925-.746-.321-2.7-1.004-3.59-1.256-.423-.119-1.577-.527-2.564-.905-.987-.379-2.026-.744-2.308-.813-.282-.068-.743-.227-1.025-.352-.621-.278-14.595-4.899-22.052-7.294-2.961-.951-5.788-1.871-6.282-2.046-1.968-.696-3.48-1.202-3.846-1.286-.211-.049-.904-.272-1.538-.495-.635-.224-7.039-2.36-14.231-4.748-7.192-2.389-13.481-4.482-13.974-4.653-1.768-.611-3.735-1.311-4.68-1.666-.529-.199-1.394-.521-1.923-.717s-1.423-.546-1.987-.779-1.11-.425-1.213-.426c-.159-.001-1.561-.577-3.659-1.504-.644-.284-5.635-2.297-6.667-2.689-2.241-.851-11.677-5.544-12.804-6.368-.15-.11-.849-.561-1.555-1.003-2.23-1.396-5.892-3.87-6.025-4.069-.071-.105-.821-.727-1.667-1.382-3.246-2.513-9.419-9.142-10.644-11.43-1.63-3.046-.499 7.048 1.423 12.698 1.396 4.106 5.71 13.271 8.111 17.233 1.004 1.658.039 2.211-2.351 1.347-.494-.178-1.532-.549-2.308-.823-.776-.275-1.641-.598-1.923-.719s-1.263-.523-2.18-.893c-2.916-1.177-5.479-2.411-8.077-3.887-.564-.32-1.264-.689-1.555-.819-.446-.199-1.732-.971-3.445-2.069-1.564-1.003-4.949-3.341-5.665-3.913-.48-.384-1.243-.969-1.694-1.301-4.264-3.131-12.477-11.584-16.621-17.105-1.217-1.622-2.348-3.124-2.514-3.338-.165-.214-.647-.907-1.07-1.539-.423-.631-.861-1.264-.973-1.405-.353-.442-2.018-3.042-2.463-3.846-.235-.423-.761-1.288-1.171-1.923-1.029-1.596-3.9-6.649-5.136-9.038-1.248-2.412-1.344-2.424-2.299-.279m268.759 156.566c1.098 1.631 4.705 6.669 5.275 7.37.174.213 1.051 1.425 1.949 2.692s1.846 2.593 2.107 2.945c.261.353.898 1.276 1.416 2.052.518.775 1.07 1.525 1.226 1.666.157.141.631.776 1.054 1.411.423.634.885 1.286 1.026 1.449.297.343 2.288 3.118 4.478 6.243.839 1.199 1.873 2.641 2.297 3.205 1.133 1.508 3.917 5.379 6.733 9.359.847 1.199 1.62 2.237 1.717 2.308.097.07.566.744 1.043 1.498.476.753.994 1.503 1.149 1.666.155.164 1.6 2.143 3.211 4.4 1.611 2.256 3.023 4.141 3.137 4.188.115.047.209.249.209.449 0 .199.086.365.192.368.106.002.539.577.962 1.277s.841 1.274.929 1.277.781.883 1.539 1.956 1.782 2.506 2.275 3.184c.494.679 1.648 2.29 2.564 3.581 2.704 3.807 4.296 6.001 4.66 6.421.187.216.777 1.056 1.31 1.866.533.811 1.148 1.672 1.368 1.915.348.385 2.453 3.307 5.029 6.979.445.635.902 1.193 1.016 1.24s.207.196.207.331.119.385.264.556c.293.344 2.533 3.417 4.024 5.521.533.752 1.332 1.862 1.776 2.468 1.391 1.899 1.425 2.026.883 3.291-.742 1.73-1.796 4.056-2.281 5.035-.239.482-.445.944-.458 1.025-.012.082-.285.726-.606 1.431-.69 1.517-1.959 4.301-2.454 5.384-.193.423-.646 1.433-1.006 2.244s-.932 2.08-1.272 2.82c-.339.741-.872 1.924-1.185 2.629-.624 1.411-2.788 6.191-3.714 8.205-.325.705-.842 1.859-1.15 2.564s-.838 1.888-1.178 2.628c-.339.741-.916 2.01-1.28 2.821-.365.811-.821 1.82-1.013 2.243-.191.423-.643 1.433-1.003 2.244-.743 1.674-1.473 3.281-2.806 6.177-.509 1.105-.925 2.054-.925 2.109s-.68 1.573-1.51 3.375c-.83 1.801-1.764 3.852-2.075 4.557s-.857 1.916-1.213 2.692-.929 2.045-1.272 2.821c-.343.775-.781 1.756-.973 2.179-.666 1.468-1.679 3.726-2.33 5.192-.36.811-.872 1.936-1.138 2.5s-.709 1.545-.986 2.18c-.276.634-1.033 2.284-1.682 3.666s-1.18 2.557-1.18 2.611c0 .139-1.94 4.397-4.032 8.851-1.105 2.352-1.464 3.142-2.244 4.932-.201.461-.824 1.818-1.385 3.017-.562 1.199-1.475 3.218-2.029 4.487-1.745 3.992-1.452 3.645-3.224 3.82-.865.085-2.439.218-3.497.295-1.057.077-3.125.308-4.596.513-1.47.204-3.237.372-3.926.372-.69 0-2.429.166-3.866.368-2.541.358-8.729 1.016-12.355 1.312-.987.081-2.545.25-3.462.375-.916.125-2.532.293-3.589.374-1.058.08-3.481.313-5.385.517-4.941.528-11.111 1.135-13.205 1.298-.987.077-2.505.25-3.372.385-.868.134-2.479.298-3.581.363-1.103.066-3.566.292-5.475.503-1.908.212-5.374.565-7.7.785-2.327.221-5.789.578-7.693.794-1.904.215-4.048.428-4.764.472-.717.045-2.967.264-5 .489-2.034.224-5.601.587-7.928.808-2.327.22-5.731.57-7.564.777s-4.533.451-5.998.542l-2.664.165-.769-.868c-.423-.478-1.156-1.446-1.63-2.151-.473-.705-1.49-2.148-2.26-3.205-.77-1.058-1.722-2.385-2.115-2.949-.394-.564-.778-1.084-.854-1.154-.076-.071-1.574-2.147-3.33-4.615-1.755-2.468-3.54-4.959-3.966-5.535-.425-.576-1.119-1.532-1.542-2.124s-1.347-1.869-2.052-2.838-1.908-2.667-2.673-3.774c-.765-1.106-1.515-2.127-1.666-2.269-.152-.142-1.078-1.468-2.058-2.949-.98-1.48-1.903-2.806-2.051-2.947s-.615-.776-1.038-1.411c-.423-.634-.842-1.211-.932-1.282-.09-.07-.61-.783-1.155-1.584-1.3-1.911-5.285-7.482-5.469-7.646-.079-.071-.877-1.167-1.773-2.436-.896-1.27-1.842-2.596-2.101-2.949-.26-.353-1.002-1.391-1.65-2.308-.647-.916-1.637-2.301-2.199-3.077-.562-.775-1.493-2.087-2.068-2.914-.576-.827-1.216-1.693-1.423-1.923-.367-.408-3.122-4.248-5.267-7.342-.587-.846-1.162-1.654-1.279-1.795-.372-.451-2.847-3.877-4.172-5.777-.705-1.011-1.455-2.03-1.667-2.264-.211-.233-.778-1.04-1.259-1.792-.482-.752-1.005-1.501-1.163-1.665-.284-.294-3.404-4.62-5.958-8.262l-1.33-1.895.988-2.25c.544-1.237 1.286-2.854 1.65-3.594.364-.739.662-1.394.662-1.455s.389-.956.865-1.989c.817-1.775 1.129-2.466 2.646-5.852.347-.775 1.026-2.247 1.509-3.27s.878-1.924.878-2.003.417-1.03.927-2.114c.51-1.085 1.079-2.318 1.266-2.741 1.13-2.565 1.472-3.32 2.531-5.592.645-1.384 1.173-2.558 1.173-2.61s.389-.939.865-1.972c.475-1.032 1.123-2.454 1.439-3.159.316-.706.84-1.859 1.163-2.564.323-.706.84-1.859 1.148-2.565.308-.705.838-1.887 1.178-2.628.339-.74.916-2.009 1.28-2.82.365-.811.821-1.821 1.013-2.244.191-.423.643-1.433 1.003-2.243 1.38-3.11 2.005-4.486 2.854-6.283.482-1.023.877-1.908.877-1.968 0-.059.577-1.337 1.283-2.839.705-1.503 1.282-2.773 1.282-2.823 0-.085.62-1.465 2.362-5.254.422-.917.997-2.186 1.278-2.821.281-.634.669-1.5.861-1.923s.711-1.577 1.155-2.564c.443-.987 1.052-2.314 1.352-2.949.301-.634.549-1.22.551-1.302.003-.081.199-.543.437-1.025.239-.483.659-1.397.936-2.032.276-.634 1.033-2.284 1.682-3.666s1.18-2.563 1.18-2.624c0-.062.577-1.338 1.282-2.837.706-1.499 1.283-2.77 1.283-2.824 0-.086.343-.863 1.913-4.331 1.907-4.209 1.228-3.793 6.903-4.23 1.709-.132 3.972-.358 5.03-.503 1.057-.145 2.788-.319 3.846-.388s3.423-.297 5.256-.507c1.834-.209 5.237-.562 7.564-.783 2.327-.222 5.877-.584 7.888-.806 2.012-.221 4.262-.431 5-.466.739-.034 2.959-.249 4.933-.477s5.493-.595 7.82-.816 5.847-.569 7.821-.772c1.974-.204 4.282-.428 5.128-.499s3.096-.3 5-.509 5.365-.56 7.692-.78c2.327-.221 5.789-.57 7.693-.776 1.904-.205 4.269-.433 5.256-.504.987-.072 2.66-.243 3.718-.38s2.673-.307 3.59-.377c1.999-.152 8.273-.809 12.179-1.274 1.552-.185 3.744-.35 4.872-.367l2.051-.031zm-27.999 13.413c-1.551.189-4.724.525-7.051.748-2.327.222-5.846.58-7.82.794-1.975.215-4.177.427-4.893.471-.717.044-2.967.264-5 .488-2.034.224-5.601.591-7.928.816-2.327.224-5.755.582-7.618.795-1.863.214-3.767.388-4.231.389s-2.113.164-3.664.363-3.628.417-4.615.485-3.41.295-5.385.506c-1.974.21-5.436.564-7.692.788-2.257.223-5.66.572-7.564.775-1.904.204-4.385.442-5.513.529-2.961.23-3.427.671-5.4 5.109-.188.423-.637 1.433-.997 2.244-.36.81-.949 2.137-1.309 2.948s-.872 1.936-1.138 2.5-.709 1.545-.986 2.18c-.276.634-1.033 2.284-1.682 3.666s-1.18 2.557-1.18 2.61c0 .088-.369.92-2.104 4.749-.287.635-.861 1.904-1.274 2.821-.414.917-.909 2.013-1.101 2.436s-.634 1.404-.983 2.179c-.9 2-2.189 4.844-2.674 5.898-.227.493-.559 1.243-.738 1.666s-.724 1.635-1.211 2.693c-.487 1.057-1.12 2.442-1.407 3.077-.515 1.14-3.45 7.664-4.788 10.641-.38.846-1.084 2.379-1.565 3.407-.48 1.028-.873 1.924-.873 1.992 0 .069-.338.843-.75 1.721-.703 1.5-1.107 2.39-2.73 6.021-.362.811-.883 1.952-1.158 2.535-3.124 6.652-3.389 7.946-1.927 9.408 1.126 1.126 1.653 1.206 5.244.792 3.864-.446 10.509-1.121 12.475-1.267 2.997-.223 6.538-.717 6.538-.913 0-.109-.148-.351-.33-.537-.181-.186-.716-.916-1.188-1.621s-1.078-1.57-1.347-1.923c-.268-.353-.93-1.252-1.47-1.999l-.981-1.358.636-1.975c.349-1.087.779-2.38.955-2.873.559-1.567 1.203-3.453 1.271-3.718.44-1.716.446-1.722 1.238-1.564.422.085 2.801.156 5.287.158l4.519.005.897 1.306c.494.718 1.301 1.899 1.795 2.623.494.725 1.301 1.854 1.795 2.51 1.176 1.563 1.836 2.471 2.308 3.175.929 1.389 2.721 3.922 3.441 4.864.431.564.811 1.07.844 1.125.058.097 4.65-.357 11.484-1.136 1.833-.209 3.797-.379 4.365-.377 1.13.004 1.113.024 2.507-3.074.855-1.901 2.125-4.668 3.002-6.538.397-.846 1.03-2.231 1.408-3.077s.907-1.975 1.177-2.508c.628-1.243.416-2.106-.799-3.261-.074-.071-.767-1.031-1.539-2.134-2.403-3.434-3.781-5.382-4.746-6.712-.511-.706-1.019-1.436-1.129-1.624-.211-.361-.94-.316-10.015.623-2.045.212-4.295.424-5 .471-.706.048-2.324.17-3.596.273l-2.314.185-1.565-1.887c-1.508-1.818-2.447-2.865-4.382-4.882-.927-.967-.933-1.073-.128-2.301.246-.375.906-1.471 1.468-2.436.563-.966 1.14-1.947 1.282-2.18.143-.233.595-1.01 1.003-1.726.409-.715.928-1.353 1.154-1.416.527-.147 5.136-.613 8.039-.813 2.667-.183 2.622-.011.707-2.697-.845-1.185-1.97-2.775-2.5-3.532-2.298-3.287-3.394-4.806-3.768-5.225-.22-.247-.4-.566-.4-.709 0-.33 2.723-8.477 3.138-9.388l.311-.682 3.211.164c1.766.09 4.134.165 5.263.166 1.884.001 2.082.051 2.436.615.211.337 1.019 1.503 1.794 2.591 2.027 2.842 2.78 3.911 4.291 6.099.738 1.068 1.454 2.011 1.592 2.096.216.134 1.155-1.649 2.83-5.375 1.943-4.322 1.828-4.19 3.775-4.333.395-.029 1.583-.255 2.641-.503 6.309-1.478 5.617-1.481 6.407.028.606 1.158 2.844 5.142 3.348 5.962 1.138 1.848 1.125 1.98-.523 5.512-.263.565-.767 1.666-1.12 2.448-.656 1.453-1.337 2.931-4.754 10.312l-1.04 2.247 1.341 1.941c.737 1.068 1.657 2.414 2.043 2.993.387.578.795 1.117.909 1.197.113.079.547.692.964 1.362s.845 1.218.95 1.218c.106 0 .193.124.193.275s.144.426.32.611c.176.184.813 1.021 1.415 1.86l1.093 1.524 2.624-.331c1.444-.183 4.24-.454 6.214-.604 6.587-.501 8.315-.806 8.725-1.54.435-.78 2.429-5.111 2.429-5.277 0-.065.362-.895.803-1.843.442-.949.954-2.072 1.138-2.495.185-.423.737-1.635 1.228-2.692 1.171-2.524 1.277-2.946.912-3.645-.318-.61-2.264-3.37-2.86-4.057-.188-.217-.609-.826-.935-1.353s-.732-1.1-.902-1.273c-.17-.172-.822-1.054-1.449-1.959-2.595-3.747-2.974-4.288-3.554-5.069l-.607-.817.526-1.363c.289-.749.708-1.939.931-2.644.74-2.341 1.935-5.842 2.006-5.877.039-.019 2.414.008 5.278.06l5.208.095.763 1.066c.419.587.903 1.242 1.074 1.456.172.214.658.907 1.081 1.539.423.631.971 1.372 1.218 1.645.247.274.449.591.449.705 0 .42.434.193.705-.368.315-.652 1.37-3 3.253-7.244.188-.423.759-1.656 1.269-2.741.509-1.084.927-2.026.927-2.094s.505-1.2 1.123-2.516c2.479-5.281 2.515-5.422 1.741-6.864-.958-1.788-1.973-1.996-6.839-1.405m27.057 10.656c-1.048.408-3.339 3.808-3.339 4.955 0 .055-.389.945-.864 1.977-.475 1.033-1.153 2.513-1.506 3.288-.353.776-.879 1.93-1.168 2.565-.804 1.766-1.847 4.079-2.543 5.641-.346.775-.807 1.789-1.025 2.252-.571 1.213-.459 1.234 3.977.746 2.215-.244 4.261-.441 4.547-.439.327.003 1.111.697 2.105 1.864.871 1.022 2.233 2.551 3.025 3.397 2.272 2.426 2.321 2.528 1.693 3.521-.291.461-.825 1.357-1.187 1.992-.361.635-.882 1.5-1.157 1.923-.274.423-.839 1.411-1.254 2.195s-.908 1.544-1.096 1.689c-.319.246-6.614 1.023-10.085 1.245-3.286.21-9.359 1.017-9.359 1.243 0 .132-.462 1.215-1.026 2.407-.564 1.193-1.025 2.215-1.025 2.271s-.36.882-.8 1.834c-1.876 4.062-3.174 6.965-3.544 7.923-.344.89.621 2.559 3.912 6.76.167.214.624.88 1.016 1.481.392.6.877 1.291 1.077 1.535.484.587 1.964 2.682 3.077 4.353 1.029 1.545.734 1.49 5.233.978 1.778-.203 4.724-.498 6.545-.656 4.955-.43 4.675-.316 5.583-2.281.7-1.516 1.919-4.164 2.905-6.31.194-.423.663-1.462 1.041-2.308s1.14-2.519 1.693-3.718c1.454-3.152 1.685-3.674 1.82-4.103.109-.348 4.315-1.501 4.874-1.335.111.033 1.135-.179 2.276-.47 3.305-.844 3.629-.717 4.937 1.934.407.825 1.846 3.429 2.86 5.174.879 1.511 1.106.744-2.553 8.613-1.343 2.888-1.601 2.723 3.318 2.114 1.692-.21 4.015-.431 5.162-.492 1.148-.061 2.703-.187 3.455-.28l1.369-.169 1.41 1.496c3.948 4.189 5.62 6.376 5.303 6.94-.166.298-.764 1.328-1.328 2.29-.565.962-1.114 1.923-1.221 2.134-.108.212-.689 1.192-1.292 2.18l-1.096 1.795-2.811.306c-1.546.168-4.773.499-7.17.735-2.398.235-4.396.461-4.441.502-.045.04.444.806 1.086 1.701.643.895 1.603 2.235 2.133 2.977.531.742 1.339 1.838 1.796 2.436.965 1.261 1.012 1.719.35 3.424-.268.688-.981 2.781-1.586 4.649l-1.098 3.398h-5.283-5.283l-.417-.705c-.23-.388-.976-1.474-1.658-2.412-.682-.939-1.99-2.772-2.907-4.075-.917-1.302-2.013-2.853-2.436-3.446s-1.283-1.817-1.91-2.72c-1.266-1.82-1.295-1.86-2.122-2.862l-.583-.706-3.077.376c-1.692.207-3.942.429-5 .493-1.058.065-3.15.261-4.648.437l-2.726.32-1.095 2.329c-.602 1.282-1.3 2.791-1.551 3.355-.25.564-.851 1.891-1.334 2.949s-1.189 2.615-1.57 3.462c-.381.846-.935 2.012-1.231 2.592l-.539 1.053.812 1.126c.446.619 1.267 1.761 1.825 2.536.557.776 1.481 2.045 2.053 2.821.571.775 1.354 1.872 1.739 2.438 4.014 5.888 3.601 5.562 6.65 5.256 8.588-.86 10.437-1.032 12.512-1.163 1.27-.08 2.491-.2 2.715-.266.265-.078.881.44 1.769 1.487.749.884 1.546 1.781 1.772 1.993s1.192 1.266 2.146 2.342l1.735 1.955-1.04 1.761c-.572.968-1.18 1.989-1.35 2.267-.171.279-.686 1.118-1.144 1.864-.458.747-.833 1.445-.833 1.552 0 1.227-4.452 2.683-6.526 2.134-.528-.14-2.705.29-2.705.534 0 .143.433.825.961 1.516.529.692 1.514 2.035 2.188 2.986 1.906 2.685 3.752 5.247 4.356 6.042.798 1.052 2.115 2.921 3.163 4.49 1.614 2.416 2.755 3.376 4.011 3.375 2.157-.002 2.539-.454 4.987-5.897.349-.775.792-1.756.984-2.179.191-.423.643-1.433 1.003-2.244s.949-2.137 1.309-2.948.872-1.936 1.138-2.5.709-1.545.986-2.18c.276-.634 1.033-2.284 1.682-3.666.65-1.382 1.181-2.557 1.181-2.611 0-.087.368-.919 2.103-4.748.287-.635.861-1.904 1.274-2.821.414-.917.909-2.013 1.101-2.436s.634-1.404.983-2.179c.349-.776 1.001-2.218 1.448-3.205.946-2.088 1.351-2.992 1.895-4.231.217-.494.793-1.763 1.28-2.821.487-1.057 1.12-2.442 1.407-3.077.515-1.141 3.45-7.664 4.788-10.641.38-.846 1.084-2.379 1.565-3.407.48-1.028.873-1.924.873-1.993 0-.068.338-.842.75-1.72.412-.879 1.047-2.261 1.41-3.072.364-.811.958-2.138 1.322-2.949.363-.811.958-2.109 1.321-2.884 1.287-2.746 1.401-3.136 1.235-4.239-.088-.589-.363-1.29-.611-1.557-.414-.446-1.12-1.428-3.645-5.07-.501-.723-1.336-1.891-1.856-2.596-.521-.705-1.116-1.513-1.324-1.795-1.525-2.069-3.284-4.506-4.371-6.056-1.306-1.863-3.361-4.711-4.234-5.867-.266-.352-1.755-2.429-3.308-4.615s-3.242-4.552-3.753-5.257-1.555-2.147-2.319-3.205c-.765-1.057-1.573-2.175-1.796-2.483-2.952-4.079-4.404-6.108-5.286-7.389-.583-.846-1.129-1.596-1.214-1.666-.085-.071-.786-1.028-1.558-2.128-2.363-3.368-4.036-5.671-4.46-6.141-.223-.247-.405-.507-.405-.577 0-.145-1.746-2.613-2.265-3.202-.366-.415-3.167-4.34-5.721-8.018-1.523-2.193-2.775-3.505-3.38-3.543-.165-.011-.532-.058-.814-.106-.282-.047-.798.025-1.148.161m-40.775 60.492c-.634.112-1.846.212-2.692.223-.846.01-3.269.236-5.385.5-2.115.265-4.365.492-5 .505-.634.013-2.836.22-4.893.46l-3.74.437-.592 1.302c-.928 2.042-2.728 5.97-4.182 9.122-.825 1.789-1.257 2.73-2.939 6.41-.355.776-.918 1.98-1.252 2.676-.761 1.587-.414 2.64 1.653 5.015.185.212.901 1.194 1.59 2.181.69.987 1.666 2.372 2.169 3.077s1.461 2.057 2.128 3.003c5.019 7.125 5.22 7.382 5.778 7.383.309.001 1.716-.114 3.127-.255 1.41-.141 4.352-.435 6.538-.653 2.186-.219 4.724-.446 5.641-.506 5.228-.34 7.949-.825 7.949-1.416 0-.228.672-1.77 2.177-4.992 1.235-2.645 3.189-6.899 4.24-9.231.254-.564.991-2.163 1.638-3.554 1.4-3.013 1.378-2.743.342-4.137-.458-.617-1.465-2.024-2.237-3.126s-1.464-2.061-1.539-2.131c-.074-.071-.481-.646-.904-1.277-.423-.632-.908-1.325-1.078-1.539-.324-.408-1.876-2.589-4.049-5.69-3.03-4.322-2.758-4.093-4.488-3.787m-44.487 34.746c-5.345.643-10.259 1.14-11.282 1.142-1.777.002-2.042.18-2.79 1.871-.385.872-.916 2.046-1.181 2.61-.265.565-.903 1.949-1.419 3.077-.516 1.129-1.259 2.744-1.651 3.59-1.829 3.949-2.08 4.502-2.299 5.08-.237.622-2.24 1.321-4.634 1.616-.494.06-1.475.273-2.18.471-2.801.788-3.977.661-4.605-.5-1.684-3.108-2.544-4.646-2.74-4.899-1.41-1.818-1.652-3.18-.862-4.845 2.03-4.275 2.438-5.188 2.438-5.454 0-.355-2.037-.256-7.179.35-1.763.208-3.667.387-4.231.398-.564.01-2.699.236-4.744.502-2.045.265-4.164.483-4.709.484-2.713.005-3.798 3.037-2.02 5.643 1.403 2.056 3.471 4.936 3.866 5.383.302.341 2.592 3.53 4.973 6.925.445.635.902 1.192 1.016 1.239s.208.196.208.332c0 .135.118.385.263.555.288.339 2.23 2.999 4.191 5.742 2.61 3.651 4.568 6.403 5.346 7.517.444.634.881 1.211.971 1.282.09.07.675.863 1.299 1.761.624.899 1.684 2.399 2.356 3.334.671.935 1.53 2.161 1.908 2.725s.819 1.141.981 1.282c.161.141.6.718.976 1.282.375.564 1.309 1.891 2.074 2.949.766 1.058 1.828 2.558 2.362 3.333.895 1.302 2.264 3.177 2.994 4.103.316.4 5.63 7.848 6.404 8.974.744 1.084 2.254 3.171 2.782 3.846.276.353 1.363 1.85 2.415 3.328 2.605 3.657 2.553 3.635 7.578 3.109 1.606-.168 4.593-.472 6.638-.676s5.506-.559 7.692-.789c2.186-.229 4.552-.453 5.257-.497s2.839-.257 4.743-.473 5.366-.575 7.693-.797 5.876-.585 7.887-.806c2.012-.222 4.262-.431 5-.466.739-.035 2.959-.25 4.933-.478s5.494-.595 7.821-.816 5.846-.576 7.82-.79c1.975-.213 4.34-.439 5.257-.502.916-.063 2.988-.288 4.604-.5s3.495-.385 4.175-.385c3.253 0 5.224-2.631 3.764-5.023-.514-.843-2.702-3.909-3.55-4.977-.507-.638-.712-.923-2.955-4.103-.646-.916-1.721-2.43-2.389-3.364-.667-.934-1.612-2.261-2.1-2.949s-1.142-1.528-1.455-1.868l-.568-.617-1.144 2.412c-.629 1.327-1.394 2.989-1.7 3.694-.888 2.047-1.111 2.435-1.405 2.454-.811.051-1.992.253-3.483.595-6.889 1.581-6.367 1.652-7.856-1.062-.677-1.234-1.407-2.557-1.623-2.941-.216-.383-.782-1.428-1.258-2.321l-.866-1.624.654-1.397c.714-1.525 1.818-3.919 3.184-6.909.484-1.058 1.093-2.385 1.354-2.949s.837-1.833 1.281-2.82.914-1.996 1.045-2.24c.421-.785.268-1.203-1.178-3.22-.78-1.087-1.896-2.669-2.481-3.515s-1.135-1.596-1.223-1.666c-.088-.071-1.12-1.486-2.295-3.146-2.587-3.657-2.043-3.34-5.207-3.032-2.87.279-10.908 1.004-13.462 1.214l-1.599.132-1.158 2.428c-.637 1.336-1.158 2.474-1.158 2.529 0 .056-.461 1.088-1.025 2.295s-1.488 3.183-2.052 4.39c-1.24 2.654-1.105 3.315 1.233 6.008.185.213.877 1.162 1.539 2.11 2.911 4.169 5.654 8.059 6.789 9.626.774 1.068 1.167 1.843 1.064 2.096-.09.22-.679 1.959-1.309 3.862-.63 1.904-1.327 3.955-1.549 4.557l-.404 1.095-5.276-.069-5.275-.07-1.352-1.923c-2.616-3.72-3.286-4.687-3.921-5.665-.744-1.145-.957-1.217-1.258-.425-.121.318-.569 1.327-.995 2.244-2.123 4.567-2.855 6.164-3.527 7.692-.976 2.22-1.376 2.822-1.878 2.818-.23-.002-1.284.177-2.342.398-6.493 1.355-7.436 1.504-7.436 1.173 0-.137-.144-.403-.321-.59-.176-.187-.776-1.205-1.332-2.262-.557-1.057-1.547-2.847-2.199-3.979l-1.187-2.059.838-1.788c1.032-2.202 2.114-4.557 3.178-6.916.445-.987 1.031-2.231 1.301-2.764.975-1.923 1.065-1.891-3.732-1.327-1.83.216-3.973.439-4.764.496l-1.438.105-1.646-1.97c-1.575-1.883-2.873-3.347-4.403-4.965-.886-.938-.899-.824.32-2.846.564-.935 1.026-1.813 1.026-1.95s.088-.287.195-.334.862-1.211 1.678-2.586l1.484-2.5 1.462.004c.805.002 3.021-.166 4.925-.373 1.903-.207 5.423-.568 7.82-.802 5.861-.573 5.816-.567 6.041-.802.109-.113.963-1.879 1.897-3.924.935-2.045 1.861-4.064 2.058-4.487 2.911-6.253 2.879-5.833.645-8.368-.211-.241-.904-1.199-1.538-2.13-.635-.931-2.077-2.989-3.206-4.574-1.128-1.584-2.339-3.312-2.692-3.839-.734-1.097-.625-1.085-5-.559"
        fill-rule="evenodd" />
</svg>