<svg id="svg" xmlns="http://www.w3.org/2000/svg" xmlns:xlink="http://www.w3.org/1999/xlink" width="400" height="400" viewBox="0, 0, 400,400"><g id="svgg"><path id="path0" d="M51.738 0.735 C 43.533 4.303,22.294 37.314,13.528 60.121 C -20.011 147.386,11.954 248.643,81.343 274.941 C 90.381 278.366,95.811 279.097,112.243 279.102 C 125.375 279.106,125.043 279.581,122.043 265.075 C 115.727 234.531,105.772 216.658,67.430 167.015 C 57.333 153.942,56.509 152.539,60.488 155.200 C 69.899 161.492,97.803 187.420,108.222 199.552 C 128.514 223.182,140.229 246.030,145.795 272.836 C 153.199 308.495,139.666 340.084,108.148 360.711 C 104.489 363.105,101.127 365.022,91.430 370.242 C 80.752 375.990,78.844 378.004,78.567 383.819 C 77.966 396.433,86.545 400.484,100.776 394.308 C 125.324 383.654,140.352 371.576,157.094 349.046 L 162.239 342.121 168.358 342.098 C 198.756 341.980,204.695 341.342,221.940 336.346 C 226.989 334.883,228.645 334.525,230.448 334.504 L 232.687 334.478 237.463 337.181 C 259.987 349.932,283.914 348.852,303.414 334.205 C 312.565 327.331,317.618 319.710,324.310 302.687 C 333.244 279.959,336.332 274.377,344.463 266.259 C 355.060 255.677,367.464 249.672,386.664 245.829 C 399.567 243.246,401.313 242.156,399.235 237.985 C 395.775 231.042,377.508 218.652,361.493 212.386 C 334.876 201.971,299.497 201.266,272.239 210.607 C 240.393 221.520,211.435 249.806,207.343 273.997 C 205.971 282.110,206.083 288.754,207.613 290.075 C 212.625 294.400,252.232 278.141,288.502 256.869 C 304.118 247.711,304.733 247.963,295.042 259.554 C 267.936 291.972,219.036 316.608,181.940 316.534 C 173.259 316.517,172.038 316.297,172.161 314.770 C 173.796 294.420,173.350 281.877,170.364 264.197 L 169.687 260.184 174.022 256.242 C 190.965 240.839,200.223 225.718,202.901 209.077 C 203.670 204.293,203.665 187.598,202.893 182.687 C 199.193 159.165,183.089 134.331,161.343 118.612 C 152.739 112.392,149.293 110.200,127.164 96.867 C 102.312 81.894,95.522 76.866,87.045 67.164 C 73.042 51.138,64.073 33.123,58.514 9.858 C 56.595 1.826,54.796 -0.596,51.738 0.735 " stroke="none" fill="#000000" fill-rule="evenodd"></path></g></svg>