<svg height="400" viewBox="0 0 400 400" width="400" xmlns="http://www.w3.org/2000/svg"><path d="m210.352 13.97-9.031 14.07-3.86.862c-22.021 4.918-46.518 21.311-74.885 50.11l-6.669 6.771-3.142-.458c-1.728-.251-7.812-1.185-13.52-2.075l-10.377-1.618-.099 1.165c-.054.641.311 6.09.812 12.109l.911 10.943-1.567 1.471c-5.47 5.137-19.108 10.589-35.812 14.316-2.472.551-2.342.703 2.264 2.645 25.234 10.636 45.333 5.888 77.461-18.299 4.258-3.207 7.939-5.951 8.178-6.099.24-.148 5.925 2.011 12.634 4.797 6.71 2.787 13.642 5.663 15.407 6.393l3.207 1.326.102-2.143c.056-1.179-.219-9.189-.61-17.801l-.711-15.658.944-1.237c6.975-9.144 34.137-16.155 49.52-12.781 21.367 4.687 28.426 19.921 21.895 47.251-2.161 9.042-2.35 13.954-.74 19.233 4.872 15.97 26.58 16.072 34.247.16 12.704-26.367 11.936-53.514-2.119-74.895-8.927-13.579-21.957-24.022-33.371-26.746l-3.359-.801-8.748-12.81c-4.811-7.045-9.014-13.139-9.339-13.54-.559-.691-1.079.031-9.623 13.339m-6.609 102.297c-13.452 15.642-24.498 39.623-24.498 53.19v2.189l-3.868-1.822c-13.64-6.425-32.84-8.522-52.169-5.698-6.746.986-6.567.859-5.461 3.871 7.503 20.44 22.605 41.686 34.306 48.262l1.436.807-3.065 2.076c-12.926 8.754-25.137 25.64-32.076 44.357-1.703 4.596-1.742 4.297.614 4.768 19.632 3.922 46.109 1.598 59.477-5.222.842-.429 1.598-.781 1.679-.781s.261 1.612.4 3.583c1.08 15.372 8.964 33.179 21.763 49.153 3.795 4.736 3.355 4.759 7.351-.377 13.27-17.056 21.565-35.372 22.703-50.132.126-1.64.302-2.982.39-2.982s.869.414 1.736.919c7.916 4.612 22.595 7.746 36.327 7.757 7.141.005 23.026-1.61 23.84-2.424.619-.618-7.147-17.635-10.937-23.963-6.774-11.312-15.789-21.557-23.44-26.637l-2.105-1.397 2.72-1.778c10.539-6.894 20.068-18.53 27.782-33.93 1.781-3.555 6.069-13.899 6.069-14.639 0-.403-6.317-1.456-12.075-2.013-18.718-1.81-36.734.461-48.594 6.127l-2.661 1.271-.244-3.042c-1.37-17.096-10.356-36.689-24.049-52.436l-1.276-1.468zm159.473 17.981c-21.592 16.221-27.553 36.19-22.658 75.908 1.247 10.119 1.284 10.747.664 11.182-.361.253-5.503 4.173-11.426 8.712-5.924 4.538-11.655 8.923-12.735 9.744-2.498 1.897-5.366.032 20.769 13.509 8.732 4.503 8.976 4.66 9.516 6.131 5.116 13.927-4.817 42.735-18.541 53.776-13.579 10.923-28.669 8.107-46.34-8.647-5.646-5.353-8.238-7.305-12.088-9.102-18.773-8.766-33.661 11.031-21.639 28.772 11.139 16.438 27.156 28.225 44.243 32.559 21.526 5.461 47.858-.196 60.717-13.043l2.943-2.94 15.379-1.159c8.458-.638 15.667-1.159 16.019-1.159 1.314 0 .083-2.653-11.516-24.816l-2.619-5.004.768-2.355c7.327-22.454 4.953-55.793-6.846-96.164l-1.279-4.376 1.915-2.411c1.053-1.326 4.93-6.145 8.613-10.709 7.581-9.391 7.085-8.549 5.472-9.283-4.171-1.898-20.168-9.58-20.526-9.857-.428-.331-1.033-3.248-1.443-6.96-.529-4.78 1.553-16.274 5.488-30.301 1.571-5.597 1.756-5.467-2.85-2.007m-152.624 65.221c13.079 3.837 17.259 19.904 7.676 29.5-10.242 10.254-27.75 4.466-29.979-9.912-1.928-12.437 10.243-23.126 22.303-19.588m-121.347 2.441c-27.959 3.814-48.164 17.473-59.135 39.977-7.01 14.379-9.314 31.107-5.754 41.769l.906 2.713-7.025 14.572c-3.982 8.262-6.879 14.706-6.688 14.881.186.17 7.667.616 16.625.993l16.287.684 1.826 2.11c14.704 16.99 44.168 31.341 85.534 41.663 2.87.716 5.289 1.372 5.375 1.459.173.173 5.777 14.421 8.128 20.665.821 2.179 1.64 4.201 1.821 4.492.366.588-.333 1.025 12.783-7.986l7.663-5.266 2.603.837c5.852 1.882 12.114 6.544 22.632 16.849 8.963 8.782 8.65 8.595 8.239 4.942-1.695-15.039-7.064-26.646-16.905-36.544-9.718-9.774-16.917-13.977-42.273-24.68-2.802-1.182-5.163-2.217-5.248-2.298-.084-.082-1.123-7.544-2.309-16.582s-2.249-16.525-2.361-16.638c-.112-.112-6.884 4.072-15.049 9.298l-14.845 9.503-1.781-.209c-9.372-1.096-25.477-15.641-32.593-29.438-10.071-19.525-5.411-34.97 13.424-44.494 3.769-1.906 5.779-2.629 17.011-6.119 17.378-5.398 23.455-19.796 13.184-31.235-4.888-5.444-11.856-7.312-22.075-5.918" fill-rule="evenodd"/></svg>