<svg height="400" viewBox="0 0 400 400" width="400" xmlns="http://www.w3.org/2000/svg"><path d="m51.738.735c-8.205 3.568-29.444 36.579-38.21 59.386-33.539 87.265-1.574 188.522 67.815 214.82 9.038 3.425 14.468 4.156 30.9 4.161 13.132.004 12.8.479 9.8-14.027-6.316-30.544-16.271-48.417-54.613-98.06-10.097-13.073-10.921-14.476-6.942-11.815 9.411 6.292 37.315 32.22 47.734 44.352 20.292 23.63 32.007 46.478 37.573 73.284 7.404 35.659-6.129 67.248-37.647 87.875-3.659 2.394-7.021 4.311-16.718 9.531-10.678 5.748-12.586 7.762-12.863 13.577-.601 12.614 7.978 16.665 22.209 10.489 24.548-10.654 39.576-22.732 56.318-45.262l5.145-6.925 6.119-.023c30.398-.118 36.337-.756 53.582-5.752 5.049-1.463 6.705-1.821 8.508-1.842l2.239-.026 4.776 2.703c22.524 12.751 46.451 11.671 65.951-2.976 9.151-6.874 14.204-14.495 20.896-31.518 8.934-22.728 12.022-28.31 20.153-36.428 10.597-10.582 23.001-16.587 42.201-20.43 12.903-2.583 14.649-3.673 12.571-7.844-3.46-6.943-21.727-19.333-37.742-25.599-26.617-10.415-61.996-11.12-89.254-1.779-31.846 10.913-60.804 39.199-64.896 63.39-1.372 8.113-1.26 14.757.27 16.078 5.012 4.325 44.619-11.934 80.889-33.206 15.616-9.158 16.231-8.906 6.54 2.685-27.106 32.418-76.006 57.054-113.102 56.98-8.681-.017-9.902-.237-9.779-1.764 1.635-20.35 1.189-32.893-1.797-50.573l-.677-4.013 4.335-3.942c16.943-15.403 26.201-30.524 28.879-47.165.769-4.784.764-21.479-.008-26.39-3.7-23.522-19.804-48.356-41.55-64.075-8.604-6.22-12.05-8.412-34.179-21.745-24.852-14.973-31.642-20.001-40.119-29.703-14.003-16.026-22.972-34.041-28.531-57.306-1.919-8.032-3.718-10.454-6.776-9.123" fill-rule="evenodd"/></svg>