<svg height="400" viewBox="0 0 400 400" width="400" xmlns="http://www.w3.org/2000/svg"><path d="m116.2 4.75c-36.353 29.131-42.742 106.517-11.559 139.998 8.691 9.333 18.7 15.342 35.449 21.284 10.681 3.789 10.475 3.626 6.258 4.97-17.27 5.504-34.225 3.893-48.365-4.597-18.362-11.024-28.289-23.249-32.973-40.605-1.231-4.56-1.553-7.133-2.83-22.587-1.359-16.442-.968-16.074-6.98-6.565-12.39 19.597-14.95 35.541-8.972 55.867 8.802 29.928 31.661 47.833 75.146 58.86 6.167 1.564 6.957 1.966 5.191 2.641-18.63 7.121-40.262 2.486-66.07-14.155-6.078-3.92-7.522-4.69-8.6-4.586l-1.295.125-.116 3.058c-.245 6.459 2.027 13.566 7.655 23.942 4.516 8.325 16.904 18.354 28.66 23.2 8.853 3.65 27.966 6.941 40.201 6.923 8.19-.012 6.761.329 22.4-5.343 17.939-6.506 24.654-7.311 32.276-3.872l2.275 1.026.616-.939c13.167-20.096 13.644-49.39 1.105-67.918-2.101-3.105-14.964-24.718-14.806-24.877.087-.086 6.002 2.73 13.146 6.258 7.143 3.529 13.869 6.767 14.946 7.196 30.585 12.189 71.762 51.052 89.37 84.346 11.077 20.944 16.129 44.627 14.491 67.933-.268 3.813-.403 7.016-.301 7.119.699.699 13.166-4.261 15.324-6.097 8.267-7.031 21.749-24.873 26.744-35.39l1.413-2.975-.948-3.395c-.521-1.867-2.027-6.365-3.347-9.995-3.907-10.741-4.299-12.778-4.279-22.2l.017-8 1.53-4.6c2.594-7.795 7.566-18.691 11.44-25.068 3.244-5.34 4.954-15.788 6.031-36.844.561-10.981.195-69.31-.464-73.812-1.722-11.77-3.779-17.64-8.335-23.784-9.174-12.373-26.297-29.243-31.044-30.585-.44-.125-3.77-1.154-7.4-2.287-18.071-5.642-28.688-7.384-30.27-4.969-1.829 2.791 5.627 18.129 16.697 34.349 9.994 14.643 15.695 30.721 13.36 37.676-4.174 12.436-9.903 18.04-34.996 34.23l-9.009 5.813-6.791-1.09-6.791-1.09-5-5.123c-2.75-2.817-9.86-9.306-15.8-14.42-14.453-12.444-20.284-18.569-26.312-27.642-12.387-18.644-20.611-46.709-24.484-83.554-1.031-9.813-.834-9.436-3.971-7.598-14.998 8.789-27.713 54.438-22.414 80.474 2.618 12.867 9.017 27.383 18.098 41.06 2.922 4.4 2.888 4.869-.317 4.452-17.411-2.266-36.353-17.195-45.794-36.094-10.471-20.959-12.779-57.303-5.604-88.242 1.02-4.396.11-4.876-3.602-1.902m77 168.77c0 .176.167.491.371.7.607.622 3.939 7.523 5.024 10.406 10.276 27.299 2.939 56.155-21.659 85.19-16.18 19.099-21.776 33.441-21.844 55.984-.063 20.68 6.897 38.344 20.898 53.04 20.374 21.385 58.949 24.335 83.987 6.422 21.55-15.417 32.759-39.731 33.498-72.662.943-42.013-21.299-82.575-64.025-116.756-12.366-9.894-36.25-24.602-36.25-22.324m14.422 86.08c5.193 24.497-7.553 56.327-24.024 59.993-14.872 3.311-10.468-22.661 6.885-40.602 7.121-7.361 11.381-14.192 13.715-21.991.593-1.98 1.175-3.87 1.295-4.2.273-.754 1.061 1.764 2.129 6.8" fill-rule="evenodd"/></svg>