<svg xmlns="http://www.w3.org/2000/svg" width="400" height="400" viewBox="0 0 400 400"><path fill-rule="evenodd" d="M173.126 15.154c-10.711 1.243-19.568 2.355-19.683 2.47-.224.223-15.843 71.899-15.843 72.701 0 .864.737.588 41.612-15.544 22.323-8.81 40.858-16.042 41.188-16.072s21.271 8.183 46.536 18.25 45.988 18.243 46.051 18.172c.171-.196-1.351-32.428-1.54-32.618-.334-.333-24.055-9.216-24.274-9.089-.124.073-1.008 1.943-1.964 4.156s-1.78 3.978-1.829 3.922c-.05-.056-.324-6.627-.61-14.602-.349-9.778-.658-14.5-.949-14.5-.237 0-8.511-.723-18.387-1.606s-17.999-1.558-18.052-1.5c-.052.058-.867 2.849-1.81 6.201s-1.807 6.003-1.92 5.891c-.21-.21-1.591-18.24-1.63-21.286L240 18.4h-13.737c-7.556 0-15.9.116-18.542.258l-4.805.259-2.346 7.733c-1.291 4.253-2.458 7.602-2.593 7.441-.136-.16-.823-4.611-1.526-9.891-1.63-12.23-1.431-11.41-2.759-11.353-.6.026-9.855 1.064-20.566 2.307m22.303 73.872c-12.964 5.38-23.65 9.862-23.747 9.959s2.459 27.95 5.68 61.896 5.852 61.854 5.847 62.019c-.014.475 74.897-12.481 75.441-13.048.21-.218 14.997-109.538 14.838-109.697-.261-.261-53.891-20.962-54.233-20.934-.14.012-10.862 4.424-23.826 9.805m-56.32 22.914c-11.595 4.309-14.643 5.586-14.463 6.06.125.33 2.717 26.311 5.759 57.735s5.591 57.194 5.665 57.268c.501.501 28.73-6.404 28.73-7.027 0-.968-10.786-118.919-10.904-119.236-.053-.143-6.707 2.197-14.787 5.2m152.337-2.84c-.652 3.296-13.094 97.385-12.904 97.576.24.24 27.537-5.83 28.277-6.288.371-.229 11.959-78.272 11.975-80.645.003-.472-.219-.95-.494-1.062-4.329-1.772-26.463-10.681-26.536-10.681-.055 0-.198.495-.318 1.1M90.233 130.411c-1.257 3.523-17.835 52.58-17.92 53.026-.122.651 43.405 41.201 43.601 40.618.117-.347-9.791-86.808-10.113-88.255-.147-.658-1.476-1.185-7.49-2.972-4.021-1.194-7.436-2.359-7.589-2.589-.177-.264-.356-.201-.489.172m151.785 100.802c-30.46 5.463-55.512 9.852-55.671 9.754-.354-.218-27.947 113.939-27.947 115.619 0 .23 13.641 7.237 30.313 15.571l30.313 15.152 54.135-25.955c29.774-14.275 54.222-26.177 54.328-26.448.137-.353-27.1-106.716-28.938-113.006-.259-.886 7.008-2.083-56.533 9.313m-90.583 17.412c-7.02.959-12.891 1.886-13.047 2.06-.155.173-5.095 18.033-10.976 39.689s-10.772 39.579-10.869 39.83c-.157.409 25.212 12.996 26.193 12.996.208 0 .478-.405.602-.9.123-.495 5.097-21.87 11.052-47.5 5.956-25.63 10.926-46.915 11.046-47.3.275-.883 1.302-.965-14.001 1.125"/></svg>