<svg id="svg" xmlns="http://www.w3.org/2000/svg" xmlns:xlink="http://www.w3.org/1999/xlink" width="400" height="400" viewBox="0, 0, 400,400"><g id="svgg"><path id="path0" d="M337.449 96.556 C 334.238 97.072,328.235 98.701,309.514 104.137 C 298.025 107.473,291.998 109.324,291.377 109.708 C 291.232 109.798,291.636 111.427,293.378 117.764 C 295.146 124.195,301.872 148.018,301.956 148.144 C 301.995 148.202,308.169 146.476,320.223 143.034 C 345.285 135.879,343.792 136.228,344.848 137.284 C 345.721 138.157,346.534 140.837,355.315 171.795 C 359.347 186.009,358.938 184.329,358.521 184.990 C 357.652 186.367,358.155 186.194,338.440 191.908 C 323.038 196.372,316.989 198.170,316.552 198.413 L 316.245 198.583 318.899 208.232 C 324.355 228.073,326.840 236.695,327.177 236.955 C 327.553 237.245,369.428 225.077,372.862 223.679 C 386.494 218.130,396.059 205.727,398.749 190.109 C 399.103 188.055,399.094 180.017,398.735 178.070 C 397.743 172.680,386.664 133.675,383.403 124.089 C 381.711 119.116,379.072 114.774,375.053 110.349 C 367.900 102.475,357.978 97.412,347.908 96.498 C 345.734 96.301,338.800 96.339,337.449 96.556 M273.752 114.464 C 273.232 114.613,241.471 123.653,203.171 134.551 C 53.969 177.007,12.475 188.881,8.637 190.219 C 4.175 191.774,0.738 196.155,0.267 200.888 C 0.013 203.443,0.202 204.968,1.295 209.177 C 2.703 214.594,19.867 275.805,20.010 275.920 C 20.293 276.144,54.806 293.607,65.231 298.800 C 76.880 304.603,78.565 305.333,78.430 304.521 C 78.322 303.869,77.097 299.638,68.692 270.872 C 67.492 266.765,66.537 263.378,66.570 263.344 C 66.673 263.242,76.479 268.067,98.178 278.899 C 122.363 290.971,125.279 292.393,125.183 292.067 C 125.145 291.940,124.986 291.319,124.829 290.688 C 124.671 290.057,123.276 285.017,121.727 279.487 C 120.179 273.957,117.685 265.030,116.186 259.649 C 114.687 254.268,113.429 249.752,113.391 249.614 C 113.276 249.200,113.282 249.203,129.555 257.555 C 169.916 278.271,171.461 279.056,171.607 278.911 C 171.705 278.812,170.393 273.971,165.159 255.128 C 163.077 247.632,160.999 240.033,160.542 238.242 L 159.711 234.986 160.186 235.155 C 161.129 235.490,169.820 240.073,189.541 250.636 C 208.020 260.533,218.100 265.863,218.192 265.787 C 218.279 265.714,217.691 263.506,214.566 252.189 C 208.336 229.628,206.565 223.080,206.665 222.980 C 206.771 222.874,219.901 229.573,248.650 244.400 C 258.105 249.276,264.349 252.374,264.437 252.232 C 264.564 252.027,263.383 247.529,258.762 230.605 C 254.250 214.082,253.249 210.269,253.385 210.133 C 253.489 210.028,264.202 215.424,284.211 225.659 C 300.503 233.993,310.904 239.208,311.014 239.098 C 311.253 238.860,279.601 127.641,276.383 117.409 C 275.256 113.826,275.401 113.988,273.752 114.464 " stroke="none" fill="#000000" fill-rule="evenodd"></path></g></svg>