<svg height="400" viewBox="0 0 400 400" width="400" xmlns="http://www.w3.org/2000/svg"><path d="m337.449 96.556c-3.211.516-9.214 2.145-27.935 7.581-11.489 3.336-17.516 5.187-18.137 5.571-.145.09.259 1.719 2.001 8.056 1.768 6.431 8.494 30.254 8.578 30.38.039.058 6.213-1.668 18.267-5.11 25.062-7.155 23.569-6.806 24.625-5.75.873.873 1.686 3.553 10.467 34.511 4.032 14.214 3.623 12.534 3.206 13.195-.869 1.377-.366 1.204-20.081 6.918-15.402 4.464-21.451 6.262-21.888 6.505l-.307.17 2.654 9.649c5.456 19.841 7.941 28.463 8.278 28.723.376.29 42.251-11.878 45.685-13.276 13.632-5.549 23.197-17.952 25.887-33.57.354-2.054.345-10.092-.014-12.039-.992-5.39-12.071-44.395-15.332-53.981-1.692-4.973-4.331-9.315-8.35-13.74-7.153-7.874-17.075-12.937-27.145-13.851-2.174-.197-9.108-.159-10.459.058m-63.697 17.908c-.52.149-32.281 9.189-70.581 20.087-149.202 42.456-190.696 54.33-194.534 55.668-4.462 1.555-7.899 5.936-8.37 10.669-.254 2.555-.065 4.08 1.028 8.289 1.408 5.417 18.572 66.628 18.715 66.743.283.224 34.796 17.687 45.221 22.88 11.649 5.803 13.334 6.533 13.199 5.721-.108-.652-1.333-4.883-9.738-33.649-1.2-4.107-2.155-7.494-2.122-7.528.103-.102 9.909 4.723 31.608 15.555 24.185 12.072 27.101 13.494 27.005 13.168-.038-.127-.197-.748-.354-1.379-.158-.631-1.553-5.671-3.102-11.201-1.548-5.53-4.042-14.457-5.541-19.838s-2.757-9.897-2.795-10.035c-.115-.414-.109-.411 16.164 7.941 40.361 20.716 41.906 21.501 42.052 21.356.098-.099-1.214-4.94-6.448-23.783-2.082-7.496-4.16-15.095-4.617-16.886l-.831-3.256.475.169c.943.335 9.634 4.918 29.355 15.481 18.479 9.897 28.559 15.227 28.651 15.151.087-.073-.501-2.281-3.626-13.598-6.23-22.561-8.001-29.109-7.901-29.209.106-.106 13.236 6.593 41.985 21.42 9.455 4.876 15.699 7.974 15.787 7.832.127-.205-1.054-4.703-5.675-21.627-4.512-16.523-5.513-20.336-5.377-20.472.104-.105 10.817 5.291 30.826 15.526 16.292 8.334 26.693 13.549 26.803 13.439.239-.238-31.413-111.457-34.631-121.689-1.127-3.583-.982-3.421-2.631-2.945" fill-rule="evenodd"/></svg>