<svg id="svg" xmlns="http://www.w3.org/2000/svg" xmlns:xlink="http://www.w3.org/1999/xlink" width="400" height="400" viewBox="0, 0, 400,400"><g id="svgg"><path id="path0" d="M181.930 0.769 C 181.653 0.881,181.037 1.617,180.151 2.896 C 176.354 8.373,58.850 192.125,50.234 206.058 C 48.640 208.637,48.622 209.116,49.998 212.335 C 51.219 215.192,62.528 239.620,69.149 253.704 C 71.748 259.232,71.710 259.109,71.381 260.940 C 71.040 262.833,70.200 265.285,64.103 282.186 C 60.694 291.633,59.357 295.434,59.419 295.497 C 59.443 295.520,60.461 294.958,61.681 294.247 C 65.203 292.194,66.900 291.385,70.523 290.031 C 71.641 289.613,72.685 289.180,72.841 289.069 C 73.219 288.800,72.408 290.834,105.581 207.018 C 134.276 134.514,135.479 131.490,135.488 131.834 C 135.498 132.238,133.815 137.500,129.419 150.810 C 117.304 187.484,114.132 197.301,114.394 197.301 C 114.637 197.301,116.701 195.575,142.735 173.588 C 160.136 158.893,164.379 155.248,164.494 154.894 C 165.022 153.277,170.213 113.797,180.904 30.094 C 184.381 2.869,184.449 2.229,183.929 1.567 C 183.484 1.002,182.413 0.574,181.930 0.769 M303.786 44.684 C 301.858 45.859,273.354 69.712,206.815 125.831 C 154.464 169.984,119.879 199.216,117.084 201.675 C 115.196 203.336,115.184 204.123,116.860 216.697 C 117.154 218.907,118.216 226.849,119.219 234.345 C 122.741 260.676,122.558 258.469,121.391 260.428 C 119.650 263.351,98.314 291.452,96.853 292.746 C 96.332 293.208,95.747 293.227,93.455 292.855 C 83.925 291.308,74.249 292.872,66.221 297.256 C 42.025 310.469,37.220 342.868,56.524 362.643 C 59.441 365.631,59.549 365.664,59.204 363.458 C 57.946 355.422,58.241 348.370,60.122 341.505 L 60.594 339.784 60.594 335.648 C 60.594 329.529,60.755 328.309,61.999 324.983 C 63.046 322.185,65.840 317.274,66.385 317.274 C 66.507 317.274,68.490 318.111,71.138 319.280 C 73.207 320.193,72.982 320.250,75.641 318.136 C 78.250 316.062,80.001 314.937,84.043 312.736 C 87.179 311.029,87.178 311.029,87.721 309.761 C 87.969 309.180,88.230 308.629,88.300 308.536 C 88.500 308.271,89.716 308.334,91.834 308.720 L 93.771 309.073 96.110 308.718 C 104.835 307.392,110.461 307.748,118.448 310.129 C 120.214 310.655,121.926 311.097,122.250 311.110 L 122.841 311.134 125.629 307.490 C 127.162 305.486,131.568 299.717,135.421 294.669 C 148.464 277.581,147.216 278.850,151.957 277.859 C 153.107 277.618,154.056 277.416,154.066 277.408 C 154.208 277.304,155.493 265.747,156.880 252.095 C 157.546 245.539,157.540 245.614,157.376 245.614 C 157.181 245.614,151.534 253.376,137.494 272.942 C 114.516 304.965,115.527 303.573,115.206 303.613 C 115.021 303.635,114.587 303.396,114.035 302.967 C 112.188 301.531,108.533 298.807,107.726 298.263 C 107.262 297.951,106.883 297.637,106.883 297.565 C 106.883 297.128,219.370 157.522,221.161 155.735 C 221.753 155.146,215.261 164.301,194.939 192.713 C 170.788 226.477,172.419 224.157,172.849 224.157 C 173.669 224.157,238.803 191.659,240.232 190.538 C 240.763 190.120,248.076 174.262,281.112 101.889 C 301.424 57.391,305.752 47.798,306.098 46.503 C 306.478 45.083,305.016 43.934,303.786 44.684 M383.603 125.288 C 380.640 126.526,367.763 132.871,306.883 163.089 C 207.081 212.624,165.694 233.410,164.392 234.649 C 163.482 235.516,163.512 235.277,159.852 270.445 C 158.559 282.863,158.018 287.156,157.462 289.406 L 157.162 290.621 156.010 291.774 C 155.377 292.408,152.217 295.085,148.988 297.722 C 140.970 304.271,129.722 313.431,126.844 315.755 L 124.470 317.672 122.796 316.915 C 106.039 309.340,87.854 312.399,75.367 324.893 C 53.084 347.192,62.781 385.071,93.038 393.919 C 97.512 395.227,102.431 395.672,108.232 395.292 C 124.446 394.230,138.875 382.694,144.063 366.646 C 145.501 362.197,145.652 360.843,145.581 353.036 L 145.526 347.031 145.115 345.344 C 144.581 343.156,144.495 342.498,144.706 342.237 C 145.131 341.710,161.568 328.196,169.703 321.684 C 176.460 316.275,177.048 315.858,178.227 315.637 C 179.478 315.403,181.053 315.541,209.042 318.346 C 228.539 320.300,231.898 320.599,232.824 320.459 C 234.167 320.256,233.936 320.523,247.013 304.049 C 297.608 240.311,385.240 129.264,386.194 127.680 C 386.826 126.629,386.797 126.168,386.050 125.421 C 385.323 124.694,385.058 124.679,383.603 125.288 M110.095 209.548 C 109.824 210.346,108.744 213.519,107.694 216.599 C 105.457 223.166,89.965 269.953,86.715 279.960 C 84.305 287.381,84.347 287.177,85.215 287.180 C 85.677 287.182,90.798 287.577,92.221 287.720 C 95.562 288.057,95.134 288.606,98.666 279.452 C 100.630 274.361,101.450 272.391,101.873 271.751 C 102.462 270.857,104.721 269.516,108.839 267.618 L 111.134 266.561 113.724 263.071 C 116.957 258.718,117.274 258.199,117.274 257.268 C 117.274 255.356,110.877 208.097,110.619 208.097 C 110.601 208.097,110.365 208.750,110.095 209.548 M277.922 213.380 C 276.793 214.654,143.773 329.093,140.747 331.394 C 139.777 332.132,139.988 332.253,138.169 329.912 C 137.411 328.936,136.020 327.219,135.077 326.096 L 133.363 324.055 134.664 322.984 C 136.347 321.598,138.693 319.798,207.287 267.259 C 273.172 216.795,278.015 213.092,278.125 213.091 C 278.155 213.091,278.064 213.221,277.922 213.380 M51.957 301.038 C 40.855 302.915,29.753 310.611,23.693 320.631 C 20.742 325.509,19.025 330.515,18.061 337.045 C 17.823 338.652,17.828 345.399,18.067 346.896 C 21.051 365.561,33.278 378.801,50.954 382.508 C 55.000 383.357,66.693 383.284,67.572 382.406 C 67.681 382.296,62.723 374.153,62.234 373.638 C 61.963 373.353,61.020 372.600,60.138 371.965 C 59.257 371.330,57.489 369.979,56.210 368.962 C 54.930 367.946,53.769 367.068,53.629 367.011 C 53.488 366.954,52.706 366.678,51.889 366.399 C 39.667 362.211,32.637 351.554,33.861 339.069 C 34.277 334.821,35.737 331.103,38.708 326.721 C 40.343 324.311,40.673 323.639,41.363 321.323 C 43.490 314.189,46.075 309.415,51.193 303.171 C 52.523 301.549,52.887 300.917,52.463 300.963 C 52.370 300.973,52.142 301.007,51.957 301.038 M107.786 328.889 C 111.136 329.169,111.178 329.202,111.374 331.723 C 112.131 341.430,106.735 351.665,98.687 355.786 L 98.251 356.010 98.391 355.640 C 100.914 349.005,101.153 339.230,99.012 330.269 C 98.771 329.261,98.798 329.227,100.014 328.961 C 101.088 328.726,105.362 328.687,107.786 328.889 M84.717 340.644 C 84.918 345.937,83.354 351.653,80.506 356.027 C 79.281 357.909,79.166 357.849,79.102 355.291 C 78.959 349.511,80.122 345.203,83.149 340.305 C 84.498 338.120,84.622 338.147,84.717 340.644 M127.915 343.860 C 130.480 349.802,130.763 356.828,128.672 362.618 C 125.283 372.002,116.170 379.045,106.748 379.562 C 104.866 379.665,100.270 379.427,99.042 379.162 C 96.555 378.626,90.280 375.783,90.054 375.089 C 90.023 374.997,90.706 374.832,91.893 374.645 C 108.579 372.013,121.790 360.141,126.119 343.889 C 126.311 343.168,126.533 342.371,126.612 342.118 L 126.755 341.659 127.000 341.983 C 127.135 342.162,127.547 343.006,127.915 343.860 " stroke="none" fill="#000000" fill-rule="evenodd"></path></g></svg>