<svg height="400" viewBox="0 0 400 400" width="400" xmlns="http://www.w3.org/2000/svg"><path d="m181.93.769c-.277.112-.893.848-1.779 2.127-3.797 5.477-121.301 189.229-129.917 203.162-1.594 2.579-1.612 3.058-.236 6.277 1.221 2.857 12.53 27.285 19.151 41.369 2.599 5.528 2.561 5.405 2.232 7.236-.341 1.893-1.181 4.345-7.278 21.246-3.409 9.447-4.746 13.248-4.684 13.311.024.023 1.042-.539 2.262-1.25 3.522-2.053 5.219-2.862 8.842-4.216 1.118-.418 2.162-.851 2.318-.962.378-.269-.433 1.765 32.74-82.051 28.695-72.504 29.898-75.528 29.907-75.184.01.404-1.673 5.666-6.069 18.976-12.115 36.674-15.287 46.491-15.025 46.491.243 0 2.307-1.726 28.341-23.713 17.401-14.695 21.644-18.34 21.759-18.694.528-1.617 5.719-41.097 16.41-124.8 3.477-27.225 3.545-27.865 3.025-28.527-.445-.565-1.516-.993-1.999-.798m121.856 43.915c-1.928 1.175-30.432 25.028-96.971 81.147-52.351 44.153-86.936 73.385-89.731 75.844-1.888 1.661-1.9 2.448-.224 15.022.294 2.21 1.356 10.152 2.359 17.648 3.522 26.331 3.339 24.124 2.172 26.083-1.741 2.923-23.077 31.024-24.538 32.318-.521.462-1.106.481-3.398.109-9.53-1.547-19.206.017-27.234 4.401-24.196 13.213-29.001 45.612-9.697 65.387 2.917 2.988 3.025 3.021 2.68.815-1.258-8.036-.963-15.088.918-21.953l.472-1.721v-4.136c0-6.119.161-7.339 1.405-10.665 1.047-2.798 3.841-7.709 4.386-7.709.122 0 2.105.837 4.753 2.006 2.069.913 1.844.97 4.503-1.144 2.609-2.074 4.36-3.199 8.402-5.4 3.136-1.707 3.135-1.707 3.678-2.975.248-.581.509-1.132.579-1.225.2-.265 1.416-.202 3.534.184l1.937.353 2.339-.355c8.725-1.326 14.351-.97 22.338 1.411 1.766.526 3.478.968 3.802.981l.591.024 2.788-3.644c1.533-2.004 5.939-7.773 9.792-12.821 13.043-17.088 11.795-15.819 16.536-16.81 1.15-.241 2.099-.443 2.109-.451.142-.104 1.427-11.661 2.814-25.313.666-6.556.66-6.481.496-6.481-.195 0-5.842 7.762-19.882 27.328-22.978 32.023-21.967 30.631-22.288 30.671-.185.022-.619-.217-1.171-.646-1.847-1.436-5.502-4.16-6.309-4.704-.464-.312-.843-.626-.843-.698 0-.437 112.487-140.043 114.278-141.83.592-.589-5.9 8.566-26.222 36.978-24.151 33.764-22.52 31.444-22.09 31.444.82 0 65.954-32.498 67.383-33.619.531-.418 7.844-16.276 40.88-88.649 20.312-44.498 24.64-54.091 24.986-55.386.38-1.42-1.082-2.569-2.312-1.819m79.817 80.604c-2.963 1.238-15.84 7.583-76.72 37.801-99.802 49.535-141.189 70.321-142.491 71.56-.91.867-.88.628-4.54 35.796-1.293 12.418-1.834 16.711-2.39 18.961l-.3 1.215-1.152 1.153c-.633.634-3.793 3.311-7.022 5.948-8.018 6.549-19.266 15.709-22.144 18.033l-2.374 1.917-1.674-.757c-16.757-7.575-34.942-4.516-47.429 7.978-22.283 22.299-12.586 60.178 17.671 69.026 4.474 1.308 9.393 1.753 15.194 1.373 16.214-1.062 30.643-12.598 35.831-28.646 1.438-4.449 1.589-5.803 1.518-13.61l-.055-6.005-.411-1.687c-.534-2.188-.62-2.846-.409-3.107.425-.527 16.862-14.041 24.997-20.553 6.757-5.409 7.345-5.826 8.524-6.047 1.251-.234 2.826-.096 30.815 2.709 19.497 1.954 22.856 2.253 23.782 2.113 1.343-.203 1.112.064 14.189-16.41 50.595-63.738 138.227-174.785 139.181-176.369.632-1.051.603-1.512-.144-2.259-.727-.727-.992-.742-2.447-.133m-273.508 84.26c-.271.798-1.351 3.971-2.401 7.051-2.237 6.567-17.729 53.354-20.979 63.361-2.41 7.421-2.368 7.217-1.5 7.22.462.002 5.583.397 7.006.54 3.341.337 2.913.886 6.445-8.268 1.964-5.091 2.784-7.061 3.207-7.701.589-.894 2.848-2.235 6.966-4.133l2.295-1.057 2.59-3.49c3.233-4.353 3.55-4.872 3.55-5.803 0-1.912-6.397-49.171-6.655-49.171-.018 0-.254.653-.524 1.451m167.827 3.832c-1.129 1.274-134.149 115.713-137.175 118.014-.97.738-.759.859-2.578-1.482-.758-.976-2.149-2.693-3.092-3.816l-1.714-2.041 1.301-1.071c1.683-1.386 4.029-3.186 72.623-55.725 65.885-50.464 70.728-54.167 70.838-54.168.03 0-.061.13-.203.289m-225.965 87.658c-11.102 1.877-22.204 9.573-28.264 19.593-2.951 4.878-4.668 9.884-5.632 16.414-.238 1.607-.233 8.354.006 9.851 2.984 18.665 15.211 31.905 32.887 35.612 4.046.849 15.739.776 16.618-.102.109-.11-4.849-8.253-5.338-8.768-.271-.285-1.214-1.038-2.096-1.673-.881-.635-2.649-1.986-3.928-3.003-1.28-1.016-2.441-1.894-2.581-1.951-.141-.057-.923-.333-1.74-.612-12.222-4.188-19.252-14.845-18.028-27.33.416-4.248 1.876-7.966 4.847-12.348 1.635-2.41 1.965-3.082 2.655-5.398 2.127-7.134 4.712-11.908 9.83-18.152 1.33-1.622 1.694-2.254 1.27-2.208-.093.01-.321.044-.506.075m55.829 27.851c3.35.28 3.392.313 3.588 2.834.757 9.707-4.639 19.942-12.687 24.063l-.436.224.14-.37c2.523-6.635 2.762-16.41.621-25.371-.241-1.008-.214-1.042 1.002-1.308 1.074-.235 5.348-.274 7.772-.072m-23.069 11.755c.201 5.293-1.363 11.009-4.211 15.383-1.225 1.882-1.34 1.822-1.404-.736-.143-5.78 1.02-10.088 4.047-14.986 1.349-2.185 1.473-2.158 1.568.339m43.198 3.216c2.565 5.942 2.848 12.968.757 18.758-3.389 9.384-12.502 16.427-21.924 16.944-1.882.103-6.478-.135-7.706-.4-2.487-.536-8.762-3.379-8.988-4.073-.031-.092.652-.257 1.839-.444 16.686-2.632 29.897-14.504 34.226-30.756.192-.721.414-1.518.493-1.771l.143-.459.245.324c.135.179.547 1.023.915 1.877" fill-rule="evenodd"/></svg>