<svg height="1000" viewBox="0 0 1000 1000" width="1000" xmlns="http://www.w3.org/2000/svg" xmlns:xlink="http://www.w3.org/1999/xlink"><clipPath id="a"><path d="m111 0h778.86v1000h-778.86z"/></clipPath><g clip-path="url(#a)" fill-rule="evenodd"><path d="m687.6 340.4-136.4 223.2q-.7.7-1.6 1.1-.9.4-1.9.4-1 0-1.9-.4-1-.4-1.7-1.1l-133.1-88.5-8.6-112.2-36.9-64.7 5.9-189.8 118.1-108.4 169.5 71.2zm-24.8-7.1-29.5-191.6-106.6 108.9 8.8 155.3-108.6-76.2 12.4 40.2 85.3 82.6q3.3 2.8 6.1 6.1 2.8 3.4 4.9 7.2 2.1 3.8 3.5 7.9 1.4 4.1 2 8.4l7.1 41z"/><path d="m889.9 494.5-35.8 118.1-131.6-32.1-141.2 38.3c-4.1.9-6.8-3.5-4.1-6.2l220-222.6zm-66.8-7.4-35.7-44.2-139.4 127.5 125.5-31q4.9-1.2 9.5-3.3 4.5-2.2 8.5-5.2 4.1-3 7.4-6.7 3.4-3.8 5.9-8.1z"/><path d="m810.7 713-127.8 197.8-201.4 88.6-41.3-11.2-44.9-147.6 92.1-182.2c.4-.6 1-1.1 1.6-1.5.7-.3 1.4-.5 2.1-.5.8 0 1.5.2 2.1.5.7.4 1.2.9 1.6 1.5l65 35.1 99.5-33.9zm-54.4 28.6-113.9-16.8-77.7 46.9q-5.5 3.3-10.4 7.6-4.9 4.2-9 9.2-4.1 5.1-7.2 10.7-3.2 5.7-5.3 11.8l-47.5 137.6c-3.8 6.8 4.1 14.2 11.8 11.2l162.1-71.7z"/><path d="m425.1 641.3-53.1 113.9-68.8-29.5-62.6 14.8-129.6-167.4 126.4-277.9 92.7 95.7v72.6l64.3 72.4v50.2zm-219-190.5q-1.9 4-3.2 8.2-1.4 4.1-2.2 8.4-.8 4.3-1.1 8.7-.3 4.3 0 8.7l5.9 85.6 40.7-44v95.7l52.9 66.7 36.6-36.3 47.2-4.4-33.1-49.9 16.9-37.2-72.1-80.9-6.5-66.8-41.3-44.8z"/></g></svg>