<svg xmlns="http://www.w3.org/2000/svg" width="682.667" height="682.667" viewBox="0 0 512 512"><path d="M234.5 33.2c-25 31.5-50.1 75-64.3 110.9-6.4 16.4-14.1 39.7-16.2 49.1-.7 3.2-1.6 5.8-1.8 5.8-.3 0-8.3-7.6-17.6-16.8-18.8-18.5-27.9-26.4-49.6-43L70.5 128l-1.3 2.5c-3 5.8-15.7 41.2-19.7 55-4.8 16.8-8.8 36.1-10.4 50.7-2.4 21.5-1 52.2 3.5 75.9C45.5 327.9 53.8 359 55 359c.4 0 1.2-3.3 1.9-7.3 6.9-40.1 23.7-106.7 27.9-110.9 2.4-2.4 60.5 46.7 71.2 60.1 1.7 2.3 3.5 4.1 3.9 4.1.5 0 1.8-3.9 3.1-8.8 9.5-36.2 28.2-77.2 51.7-113.2 8.4-12.8 27-38 28.1-38 1.3 0 23.3 30.3 32.2 44.4 18.3 28.7 31.7 56.9 42.1 88.6 3.3 10.2 6.2 18.6 6.3 18.7.2.2 3.4-3.6 7.1-8.4 9.4-12.1 45.2-47.5 61-60.4 13.8-11.2 35.6-27.9 36.6-27.9 1.5 0 12.7 32.4 17.4 50.5 7.7 29.3 11.4 55.5 12.2 86.5l.6 21.5 2.9-10c10.2-36.2 14.3-66 14.2-106 0-36.8-2.8-60.3-11.4-95.2-6-24.2-19-62.3-21.3-62.3-1.3 0-16.1 11.1-31.6 23.8-28 23-53.3 48.1-73.5 73-4.5 5.5-7.8 8.8-8 8-.3-.7-3.2-9.4-6.5-19.3-7.1-21.6-14-38.2-23.7-57.1-13.7-26.6-32.5-55.9-50.5-78.7l-7.8-9.8z"/><path d="M234.4 201.2c-14.8 22.3-22.6 37.7-30.3 60.1-8.4 24.5-12.1 47-12.1 73.7 0 49 13.5 91.6 42.7 135.2l8.6 12.8 3.9-5.3c11.3-15 25.2-39.1 32.2-55.8 28.8-68.9 23.9-139.8-14.1-202.4-5.8-9.5-21-30.5-22.2-30.5-.3 0-4.3 5.5-8.7 12.2m14.2 26.8c6.9 10.7 16.9 32 21.3 45.6 15.4 46.8 12.4 96-8.7 143.2-4.8 10.8-15.6 30.7-17.2 31.7-1 .6-4.6-5.5-11.5-19.4-31.7-63.8-29.6-135.2 5.9-198.8 2.8-5.1 5.2-9.3 5.4-9.3.1 0 2.3 3.2 4.8 7M405.2 255.9c-43.9 32.3-71.9 73.7-81.9 121-2.4 11.2-2.7 14.8-2.7 32.6 0 26.7 3.2 43.8 12.5 67.2 1.7 4.3 3.5 8.8 4 10.1.9 2.2 1.1 2.1 9.6-4.3 30.2-22.8 52.5-48.7 67.1-78 23.3-46.7 25-95.8 5-146.5-1.6-4.1-3.3-7.8-3.6-8.2-.4-.4-4.9 2.3-10 6.1m3.7 31c4.8 17.7 6.5 42.9 4 60.7-3.5 25.4-13.2 49-29.9 72.7-6.3 8.9-33.5 37.7-35.6 37.7-1.4 0-4.9-12-7-24-2.1-11.7-2.3-34.2-.5-46.5 5.3-35.4 22.7-67.5 52.5-96.3 7-6.7 13-12.2 13.5-12.2.4 0 1.8 3.6 3 7.9M92.7 289.3c-15.3 40.2-15.5 77.8-.6 115.3 11 27.5 32.8 55.4 58.7 74.8l10.2 7.7 1.1-2.8c9-23.1 12.9-40.9 13.6-61.3 1.6-47.6-17-89.2-55.4-124.2-6.3-5.7-19.3-16-22.9-18.1-.7-.4-2.4 2.7-4.7 8.6m23.9 32c16.9 17.7 27.9 35.2 34.4 54.6 5.3 15.8 6.3 22.2 6.4 40.6.1 14.3-.3 18.6-2.3 27.5-1.2 5.8-2.5 10.9-2.8 11.4-.8 1.2-15.4-13.5-22.7-22.9-15.3-19.5-25.1-41.5-28.6-64-1.6-9.9-1.3-31.5.4-41.5 2-10.7 3.5-16 4.5-16 .5 0 5.3 4.6 10.7 10.3"/></svg>