<svg xmlns="http://www.w3.org/2000/svg" width="1000" height="1000" viewBox="0 0 1000 1000"><path d="M452.4 17.9c-54 68-108.2 161.9-138.9 239.4-13.8 35.4-30.4 85.8-34.9 106-1.5 7-3.5 12.6-3.9 12.6-.7 0-17.9-16.4-38-36.3-40.6-39.9-60.2-57-107.1-92.8l-31.3-24.2-2.8 5.4C89 240.5 61.6 316.9 53 346.7c-10.4 36.3-19 78-22.5 109.5-5.2 46.4-2.1 112.7 7.6 163.8 6.2 34.2 24.1 101.3 26.7 101.3.9 0 2.6-7.1 4.1-15.8 14.9-86.5 51.2-230.3 60.3-239.4 5.2-5.2 130.6 100.8 153.7 129.8 3.7 4.9 7.5 8.8 8.4 8.8 1.1 0 3.9-8.4 6.7-19 20.5-78.1 60.9-166.7 111.6-244.4 18.2-27.6 58.3-82 60.7-82 2.8 0 50.3 65.4 69.5 95.8 39.5 62 68.4 122.9 90.9 191.3 7.1 22 13.4 40.2 13.6 40.4.4.4 7.3-7.8 15.3-18.1 20.3-26.2 97.6-102.6 131.7-130.4 29.8-24.2 76.9-60.3 79-60.3 3.3 0 27.5 70 37.6 109.1 16.6 63.2 24.6 119.8 26.3 186.7l1.3 46.4 6.3-21.6c22-78.1 30.9-142.5 30.6-228.8 0-79.5-6-130.2-24.6-205.5-12.9-52.3-41-134.5-45.9-134.5-2.9 0-34.8 23.9-68.3 51.3-60.4 49.7-115 103.9-158.6 157.6-9.8 11.9-16.9 19-17.3 17.3-.7-1.5-6.9-20.3-14.1-41.7-15.3-46.6-30.2-82.4-51.1-123.2-29.6-57.5-70.2-120.7-109-169.9L466.6 0z"/><path d="M452.2 380.6c-32 48.2-48.8 81.4-65.5 129.8-18.1 52.9-26.1 101.4-26.1 159.1 0 105.8 29.2 197.7 92.2 291.9l18.6 27.6 8.4-11.4c24.4-32.4 54.4-84.5 69.5-120.5 62.2-148.8 51.6-301.8-30.4-437-12.6-20.5-45.4-65.8-48-65.8-.6 0-9.3 11.9-18.7 26.3m30.6 57.9c14.9 23.1 36.5 69.1 46 98.4C562 638 555.6 744.2 510 846.1c-10.4 23.3-33.7 66.3-37.1 68.4-2.2 1.3-10-11.9-24.9-41.9-68.4-137.7-63.9-291.9 12.8-429.2 6-11 11.2-20 11.6-20 .3 0 5 6.9 10.4 15.1m338.1 60.2c-94.8 69.7-155.2 159.1-176.8 261.2-5.2 24.2-5.9 32-5.9 70.4 0 57.7 7 94.6 27 145.1 3.7 9.3 7.6 19 8.7 21.8 1.9 4.8 2.3 4.5 20.7-9.3 65.2-49.2 113.3-105.1 144.9-168.4 50.3-100.8 53.9-206.8 10.8-316.3-3.5-8.8-7.2-16.8-7.8-17.7-.9-.8-10.6 5-21.6 13.2m8 66.9c10.3 38.2 14 92.7 8.6 131.1C830 751.5 809 802.5 773 853.6c-13.6 19.3-72.4 81.4-76.9 81.4-3 0-10.6-25.9-15.1-51.8-4.5-25.2-5-73.8-1.1-100.4 11.5-76.4 49-145.7 113.4-207.9 15.1-14.4 28-26.3 29.1-26.3.9 0 3.9 7.8 6.5 17m-682.7 5.2c-33 86.8-33.4 168-1.3 248.9 23.8 59.4 70.8 119.6 126.8 161.5l22 16.7 2.4-6.1c19.4-49.9 27.8-88.3 29.3-132.3 3.5-102.8-36.7-192.6-119.6-268.2-13.6-12.3-41.6-34.5-49.4-39-1.5-.9-5.2 5.8-10.2 18.5m51.6 69.1c36.5 38.2 60.3 76 74.3 117.9 11.4 34.1 13.6 47.9 13.8 87.6.2 30.9-.6 40.2-5 59.4-2.5 12.5-5.3 23.5-6 24.6-1.7 2.6-33.2-29.1-49-49.4-33-42.1-54.2-89.6-61.7-138.2-3.5-21.4-2.9-68 .8-89.6 4.3-23.1 7.6-34.5 9.7-34.5 1.1 0 11.5 9.9 23.1 22.2"/></svg>