<svg height="1500" viewBox="0 0 1500 1500" width="1500" xmlns="http://www.w3.org/2000/svg" xmlns:xlink="http://www.w3.org/1999/xlink"><clipPath id="a"><path d="m0 0h1500v1500h-1500z"/></clipPath><g clip-path="url(#a)"><path d="m786.8 286.5c-14.4-240.2-22.2-286.5-36.6-286.5-14.3 0-22.6 46.3-36.1 286.5-2.7 51.4-15.2 257.8-15.7 462.8s12 412.8 14.3 462.8c13 242.5 22.7 286.5 37.5 286.5s24.6-44 37.1-286.5c0-50 14.8-255.9 14.3-462.8s-14.8-411.4-14.8-462.8z"/><path d="m286.5 714.1c-240.2 13.5-286.5 21.3-286.5 36.1s46.3 22.2 286.5 35.7c51.8 2.7 257.8 15.7 462.8 15.7s413.3-12 462.8-14.3c242.5-12.5 286.5-22.7 286.5-37.1 0-14.3-44-24.5-286.5-37.5-50-2.3-255.9-14.3-462.8-14.3s-413.3 13-462.8 15.7z"/><path d="m397.1 1052.5c-162 180.9-185.1 217.5-177.3 228.1 7.9 10.7 46.3-15.2 227.7-177.2 38.9-34.7 193.5-171.3 339.3-317.1s283.7-300.3 317.5-337.8c162.4-180.5 185.1-218.5 176.3-228.7-8.8-10.1-48.6 13.5-231.4 176.4-37 33.3-191.6 170.3-337.4 316.5-145.8 146.3-282.8 301.3-317 339.8"/><path d="m447.5 396.6c-180.9-162-216.1-187.4-227.7-176.8-11.5 10.7 14.8 46.3 176.8 227.7 34.7 38.5 171.3 193 317.1 338.8s300.3 284.2 337.8 317.5c180.5 162.9 218.5 185.2 231.4 176.4 13-8.8-13.8-46.3-176.3-228.7-33.8-37.5-170.8-191.6-317-337.4-146.3-145.8-303.6-282.8-342.1-317.5z"/><path d="m572 1351.9c13 13 116.2-72.2 178.2-129.6 55.6 52.3 162.5 145.3 178.2 129.6 23.2-23.6-158.7-208.7-178.2-227.2-12.5 11.5-199.9 205.4-178.2 227.2z"/><path d="m928.4 148.1c-13.4-13-116.6 72.2-178.2 129.6-56-52.3-162.4-145.3-178.2-129.6-23.6 23.6 158.3 208.7 178.2 227.2 12.1-11.5 199.5-205.4 178.2-227.2z"/><path d="m1049.7 1301.5c18.5 0 31.4-133.3 34.2-217.6 76.4-2.3 217.6-12 217.6-34.2 0-33.3-259.7-35.7-286.5-34.7 0 16.6 4.1 286.5 34.7 286.5z"/><path d="m450.8 198.5c-19 0-31.5 133.3-34.3 218-76.3 0-217.5 12.1-217.5 34.3 0 33.3 259.7 35.6 286.5 34.7 0-16.7-4.2-286.5-34.3-286.5"/><path d="m1351.9 928.4c13.4-13.4-72.2-116.6-129.6-178.2 52.3-56 145.3-162.4 129.6-178.2-23.1-23.6-208.7 158.3-227.2 178.2 12 12.1 205.4 199.5 227.2 178.2z"/><path d="m148.1 571.6c-13 13.4 72.2 116.6 129.6 178.2-52.3 56-145.3 162.9-129.6 178.6 23.6 23.2 208.7-158.7 227.2-178.6-11.5-12.1-205.4-199.5-227.2-178.2z"/><path d="m1301.5 450.3c0-18.5-133.3-31.4-217.1-34.2-2.8-76.4-12.5-217.6-34.7-217.6-32.9 0-35.7 259.7-34.7 286.5 17.1 0 286.5-4.1 286.5-34.7z"/><path d="m198.5 1049.7c0 18.5 133.3 31.4 217.6 34.2 0 76.4 12 217.6 34.2 217.6 33.3 0 35.7-259.7 34.7-286.5-16.6 0-286.5 4.1-286.5 34.7z"/></g></svg>