<svg height="400" viewBox="0 0 400 400" width="400" xmlns="http://www.w3.org/2000/svg"><path d="m230.769 4.476c-53.038 2.102-94.482 14.679-123.212 37.39-6.125 4.841-8.707 7.852-8.846 10.317-.093 1.655-.423-.393 11.488 71.301 15.66 94.254 23.486 141.656 23.402 141.741-.023.023-1.879-.413-4.124-.968-23.97-5.93-51.165-1.506-75.918 12.35-24.933 13.957-42.964 36.545-46.561 58.33-.755 4.573-.686 13.631.132 17.35 4.383 19.924 19.427 33.21 42.887 37.875 9.063 1.803 22.396 1.92 32.344.286 41.104-6.754 76.694-35.628 84.629-68.659.991-4.124 1.197-6.19 1.309-13.148l.083-5.083-1.501-8.268c-3.381-18.625-18.025-100.853-23.004-129.177l-5.339-30.362.766-.729c5.396-5.136 18.986-12.704 31.147-17.346 20.418-7.793 43.13-12.396 72.653-14.726 23.647-1.865 50.247-1.755 67.909.281 12.657 1.46 27.541 4.547 30.284 6.282.372.235 1.307 7.213 8.408 62.768 8.915 69.75 11.2 87.977 11.07 88.316-.097.252.028.27-3.201-.483-16.066-3.749-32.668-3.093-50.153 1.981-49.379 14.329-82.183 58.111-69.684 93.004 8.549 23.863 37.749 36.618 72.192 31.533 43.485-6.421 82.112-39.361 86.685-73.924.839-6.338.733-8.682-1.097-24.263-3.027-25.78-30.792-250.218-31.314-253.126-.431-2.404-3.34-5.028-9.96-8.987-19.559-11.694-47.636-18.849-83.91-21.382-6.541-.457-32.237-.765-39.564-.474" fill-rule="evenodd"/></svg>