<svg id="svg" xmlns="http://www.w3.org/2000/svg" xmlns:xlink="http://www.w3.org/1999/xlink" width="400" height="400" viewBox="0, 0, 400,400"><g id="svgg"><path id="path0" d="M230.769 4.476 C 177.731 6.578,136.287 19.155,107.557 41.866 C 101.432 46.707,98.850 49.718,98.711 52.183 C 98.618 53.838,98.288 51.790,110.199 123.484 C 125.859 217.738,133.685 265.140,133.601 265.225 C 133.578 265.248,131.722 264.812,129.477 264.257 C 105.507 258.327,78.312 262.751,53.559 276.607 C 28.626 290.564,10.595 313.152,6.998 334.937 C 6.243 339.510,6.312 348.568,7.130 352.287 C 11.513 372.211,26.557 385.497,50.017 390.162 C 59.080 391.965,72.413 392.082,82.361 390.448 C 123.465 383.694,159.055 354.820,166.990 321.789 C 167.981 317.665,168.187 315.599,168.299 308.641 L 168.382 303.558 166.881 295.290 C 163.500 276.665,148.856 194.437,143.877 166.113 L 138.538 135.751 139.304 135.022 C 144.700 129.886,158.290 122.318,170.451 117.676 C 190.869 109.883,213.581 105.280,243.104 102.950 C 266.751 101.085,293.351 101.195,311.013 103.231 C 323.670 104.691,338.554 107.778,341.297 109.513 C 341.669 109.748,342.604 116.726,349.705 172.281 C 358.620 242.031,360.905 260.258,360.775 260.597 C 360.678 260.849,360.803 260.867,357.574 260.114 C 341.508 256.365,324.906 257.021,307.421 262.095 C 258.042 276.424,225.238 320.206,237.737 355.099 C 246.286 378.962,275.486 391.717,309.929 386.632 C 353.414 380.211,392.041 347.271,396.614 312.708 C 397.453 306.370,397.347 304.026,395.517 288.445 C 392.490 262.665,364.725 38.227,364.203 35.319 C 363.772 32.915,360.863 30.291,354.243 26.332 C 334.684 14.638,306.607 7.483,270.333 4.950 C 263.792 4.493,238.096 4.185,230.769 4.476 " stroke="none" fill="#000000" fill-rule="evenodd"></path></g></svg>