<svg id="svg" xmlns="http://www.w3.org/2000/svg" xmlns:xlink="http://www.w3.org/1999/xlink" width="400" height="400" viewBox="0, 0, 400,400"><g id="svgg"><path id="path0" d="M252.646 1.767 C 252.646 1.960,252.891 3.416,253.190 5.003 C 261.523 49.158,252.547 95.972,228.713 132.659 C 228.255 133.364,227.481 134.559,226.992 135.315 C 224.580 139.048,218.010 147.759,217.607 147.759 C 217.556 147.759,217.252 147.046,216.931 146.175 C 211.244 130.743,207.203 122.078,200.504 110.954 C 190.519 94.372,179.939 81.383,164.004 66.143 C 146.920 49.804,121.520 33.176,98.770 23.437 C 96.007 22.254,96.074 22.406,99.292 24.623 C 101.249 25.971,101.794 26.366,105.292 28.973 C 109.841 32.364,114.494 36.161,117.290 38.764 C 125.416 46.326,130.835 52.052,136.427 58.982 C 154.292 81.121,166.845 107.431,172.768 135.152 C 173.711 139.565,175.453 150.578,175.241 150.790 C 175.198 150.833,173.077 149.980,170.527 148.895 C 163.741 146.007,159.970 144.529,153.960 142.401 C 137.846 136.694,117.593 132.525,99.427 131.177 C 93.867 130.765,70.579 130.903,65.790 131.378 C 43.027 133.632,24.756 138.084,4.673 146.271 C -0.106 148.219,-0.279 148.395,3.259 147.705 C 25.156 143.434,46.659 143.226,68.352 147.075 C 90.367 150.982,112.137 159.347,131.089 171.181 C 135.786 174.114,141.587 178.240,145.982 181.775 C 147.738 183.188,147.739 183.113,145.953 183.700 C 142.550 184.819,132.463 188.810,128.952 190.426 C 105.397 201.271,86.595 214.983,65.992 236.339 C 63.888 238.521,59.505 243.483,57.306 246.175 C 43.449 263.133,33.882 278.383,24.576 298.349 C 21.442 305.071,21.400 305.539,24.314 301.247 C 39.752 278.510,61.475 259.076,86.485 245.626 C 95.052 241.019,104.271 236.964,112.976 233.975 C 113.903 233.657,114.934 233.299,115.268 233.179 C 118.037 232.186,124.407 230.360,129.154 229.199 C 135.881 227.553,146.167 225.645,149.714 225.385 C 150.480 225.329,150.449 225.459,148.774 229.390 C 138.212 254.174,133.120 274.325,130.837 300.371 C 130.264 306.915,130.223 325.900,130.769 332.120 C 132.928 356.714,137.204 374.793,145.922 396.187 C 147.141 399.177,147.754 400.268,147.554 399.090 C 147.520 398.886,147.249 397.354,146.952 395.686 C 144.294 380.728,143.461 368.745,144.118 354.904 C 145.645 322.735,155.726 292.025,173.548 265.251 C 177.122 259.883,182.369 253.075,182.675 253.410 C 182.800 253.546,183.274 254.766,184.687 258.585 C 195.390 287.514,211.568 311.524,236.063 334.831 C 252.869 350.821,276.543 366.528,298.888 376.512 C 304.906 379.201,304.924 379.169,299.494 375.388 C 262.425 349.574,236.275 309.362,227.083 264.038 C 226.253 259.945,225.008 251.994,225.008 250.786 C 225.008 250.152,225.077 250.171,229.141 251.912 C 253.942 262.542,277.419 268.353,301.921 269.928 C 306.452 270.219,329.140 270.172,332.255 269.865 C 354.964 267.627,369.869 264.373,388.473 257.595 C 394.262 255.486,401.229 252.425,399.023 252.960 C 393.252 254.359,380.253 256.119,372.413 256.563 C 368.531 256.783,353.382 256.654,350.320 256.375 C 334.116 254.897,323.337 252.820,309.398 248.489 C 300.137 245.612,288.581 240.755,280.148 236.195 C 273.844 232.786,268.359 229.513,264.385 226.787 C 258.815 222.966,252.516 218.207,252.739 217.987 C 252.799 217.928,253.879 217.516,255.140 217.072 C 274.212 210.357,292.509 200.517,307.514 188.906 C 318.072 180.736,326.202 173.328,335.068 163.802 C 351.828 145.794,367.037 122.568,377.046 99.697 C 378.462 96.461,378.359 96.260,376.608 98.837 C 372.567 104.782,368.646 109.918,364.219 115.066 C 362.465 117.106,362.302 117.288,359.860 119.928 C 358.965 120.897,357.999 121.952,357.714 122.273 C 356.825 123.273,350.297 129.504,348.032 131.515 C 339.627 138.974,330.156 145.898,320.930 151.328 C 319.818 151.983,318.483 152.772,317.964 153.083 C 317.127 153.584,315.606 154.414,312.032 156.321 C 293.866 166.011,272.021 172.981,252.019 175.468 C 249.385 175.795,249.508 175.997,250.706 173.306 C 260.841 150.540,266.621 128.845,268.951 104.820 C 269.676 97.347,269.671 97.463,269.733 86.485 C 269.810 72.758,269.672 69.430,268.684 61.088 C 267.110 47.802,264.767 36.167,261.322 24.537 C 258.605 15.365,252.649 -0.267,252.646 1.767 M194.473 134.416 C 197.320 137.499,199.840 140.760,202.410 144.689 C 210.237 156.655,213.594 168.231,213.376 182.509 C 213.319 186.218,213.339 187.375,213.459 187.304 C 213.546 187.253,213.920 186.959,214.291 186.650 C 215.434 185.697,217.010 184.545,219.818 182.609 C 225.459 178.721,227.985 176.611,230.700 173.519 C 235.722 167.799,239.180 160.869,241.032 152.814 C 241.254 151.850,241.531 150.667,241.647 150.185 L 241.860 149.309 241.793 151.264 C 241.413 162.339,237.401 175.665,231.430 185.693 C 228.655 190.353,226.767 192.692,221.099 198.492 C 220.098 199.516,219.279 200.426,219.279 200.513 C 219.279 201.482,231.811 202.705,238.271 202.367 C 248.424 201.836,259.144 198.621,267.004 193.750 C 268.341 192.921,268.380 192.949,267.313 193.971 C 258.223 202.680,244.841 210.019,233.578 212.472 C 228.502 213.578,225.030 213.877,218.301 213.788 C 215.613 213.753,213.414 213.761,213.414 213.805 C 213.414 213.850,213.873 214.463,214.433 215.167 C 214.994 215.871,216.306 217.715,217.348 219.263 C 218.391 220.811,219.731 222.752,220.326 223.575 C 227.047 232.871,236.195 238.781,247.995 241.448 C 249.329 241.750,250.785 242.085,251.230 242.193 L 252.039 242.388 250.691 242.318 C 236.626 241.589,222.872 237.248,212.403 230.231 C 208.970 227.931,207.445 226.662,203.090 222.483 C 199.914 219.436,200.054 219.500,199.714 220.918 C 198.467 226.131,198.006 233.524,198.448 241.254 C 198.904 249.231,202.259 259.683,206.737 267.071 C 207.163 267.776,207.540 268.397,207.573 268.453 C 207.782 268.805,207.325 268.358,206.054 266.970 C 192.493 252.158,185.729 234.467,186.850 216.743 C 186.943 215.274,186.986 214.040,186.947 214.000 C 186.908 213.961,185.582 214.835,184.001 215.943 C 182.419 217.050,180.246 218.554,179.171 219.285 C 167.678 227.092,161.960 235.804,158.746 250.402 C 157.951 254.013,158.296 248.174,159.226 242.265 C 161.693 226.607,167.796 214.108,178.065 203.686 C 179.793 201.932,181.159 200.469,181.099 200.434 C 180.925 200.334,179.102 199.962,177.283 199.656 C 161.880 197.064,147.133 199.416,134.816 206.431 C 133.964 206.916,133.023 207.450,132.727 207.618 L 132.187 207.922 132.727 207.395 C 138.742 201.513,147.414 195.695,154.904 192.518 C 165.201 188.150,173.815 186.646,184.799 187.299 C 186.891 187.423,186.885 187.428,186.005 186.230 C 184.779 184.562,183.349 182.534,182.073 180.654 C 178.711 175.700,177.382 174.019,175.041 171.753 C 168.121 165.054,160.792 161.358,149.916 159.078 L 148.096 158.697 149.242 158.760 C 169.944 159.908,186.808 167.249,198.894 180.374 C 199.538 181.073,200.097 181.613,200.137 181.572 C 200.464 181.246,201.448 175.864,201.698 173.037 C 201.903 170.719,201.906 161.058,201.703 158.676 C 201.092 151.528,197.981 141.821,194.136 135.067 C 193.446 133.854,192.853 132.801,192.818 132.727 C 192.751 132.581,193.208 133.048,194.473 134.416 " stroke="none" fill="#000000" fill-rule="evenodd"></path></g></svg>