<svg height="400" viewBox="0 0 400 400" width="400" xmlns="http://www.w3.org/2000/svg"><path d="m252.646 1.767c0 .193.245 1.649.544 3.236 8.333 44.155-.643 90.969-24.477 127.656-.458.705-1.232 1.9-1.721 2.656-2.412 3.733-8.982 12.444-9.385 12.444-.051 0-.355-.713-.676-1.584-5.687-15.432-9.728-24.097-16.427-35.221-9.985-16.582-20.565-29.571-36.5-44.811-17.084-16.339-42.484-32.967-65.234-42.706-2.763-1.183-2.696-1.031.522 1.186 1.957 1.348 2.502 1.743 6 4.35 4.549 3.391 9.202 7.188 11.998 9.791 8.126 7.562 13.545 13.288 19.137 20.218 17.865 22.139 30.418 48.449 36.341 76.17.943 4.413 2.685 15.426 2.473 15.638-.043.043-2.164-.81-4.714-1.895-6.786-2.888-10.557-4.366-16.567-6.494-16.114-5.707-36.367-9.876-54.533-11.224-5.56-.412-28.848-.274-33.637.201-22.763 2.254-41.034 6.706-61.117 14.893-4.779 1.948-4.952 2.124-1.414 1.434 21.897-4.271 43.4-4.479 65.093-.63 22.015 3.907 43.785 12.272 62.737 24.106 4.697 2.933 10.498 7.059 14.893 10.594 1.756 1.413 1.757 1.338-.029 1.925-3.403 1.119-13.49 5.11-17.001 6.726-23.555 10.845-42.357 24.557-62.96 45.913-2.104 2.182-6.487 7.144-8.686 9.836-13.857 16.958-23.424 32.208-32.73 52.174-3.134 6.722-3.176 7.19-.262 2.898 15.438-22.737 37.161-42.171 62.171-55.621 8.567-4.607 17.786-8.662 26.491-11.651.927-.318 1.958-.676 2.292-.796 2.769-.993 9.139-2.819 13.886-3.98 6.727-1.646 17.013-3.554 20.56-3.814.766-.056.735.074-.94 4.005-10.562 24.784-15.654 44.935-17.937 70.981-.573 6.544-.614 25.529-.068 31.749 2.159 24.594 6.435 42.673 15.153 64.067 1.219 2.99 1.832 4.081 1.632 2.903-.034-.204-.305-1.736-.602-3.404-2.658-14.958-3.491-26.941-2.834-40.782 1.527-32.169 11.608-62.879 29.43-89.653 3.574-5.368 8.821-12.176 9.127-11.841.125.136.599 1.356 2.012 5.175 10.703 28.929 26.881 52.939 51.376 76.246 16.806 15.99 40.48 31.697 62.825 41.681 6.018 2.689 6.036 2.657.606-1.124-37.069-25.814-63.219-66.026-72.411-111.35-.83-4.093-2.075-12.044-2.075-13.252 0-.634.069-.615 4.133 1.126 24.801 10.63 48.278 16.441 72.78 18.016 4.531.291 27.219.244 30.334-.063 22.709-2.238 37.614-5.492 56.218-12.27 5.789-2.109 12.756-5.17 10.55-4.635-5.771 1.399-18.77 3.159-26.61 3.603-3.882.22-19.031.091-22.093-.188-16.204-1.478-26.983-3.555-40.922-7.886-9.261-2.877-20.817-7.734-29.25-12.294-6.304-3.409-11.789-6.682-15.763-9.408-5.57-3.821-11.869-8.58-11.646-8.8.06-.059 1.14-.471 2.401-.915 19.072-6.715 37.369-16.555 52.374-28.166 10.558-8.17 18.688-15.578 27.554-25.104 16.76-18.008 31.969-41.234 41.978-64.105 1.416-3.236 1.313-3.437-.438-.86-4.041 5.945-7.962 11.081-12.389 16.229-1.754 2.04-1.917 2.222-4.359 4.862-.895.969-1.861 2.024-2.146 2.345-.889 1-7.417 7.231-9.682 9.242-8.405 7.459-17.876 14.383-27.102 19.813-1.112.655-2.447 1.444-2.966 1.755-.837.501-2.358 1.331-5.932 3.238-18.166 9.69-40.011 16.66-60.013 19.147-2.634.327-2.511.529-1.313-2.162 10.135-22.766 15.915-44.461 18.245-68.486.725-7.473.72-7.357.782-18.335.077-13.727-.061-17.055-1.049-25.397-1.574-13.286-3.917-24.921-7.362-36.551-2.717-9.172-8.673-24.804-8.676-22.77m-58.173 132.649c2.847 3.083 5.367 6.344 7.937 10.273 7.827 11.966 11.184 23.542 10.966 37.82-.057 3.709-.037 4.866.083 4.795.087-.051.461-.345.832-.654 1.143-.953 2.719-2.105 5.527-4.041 5.641-3.888 8.167-5.998 10.882-9.09 5.022-5.72 8.48-12.65 10.332-20.705.222-.964.499-2.147.615-2.629l.213-.876-.067 1.955c-.38 11.075-4.392 24.401-10.363 34.429-2.775 4.66-4.663 6.999-10.331 12.799-1.001 1.024-1.82 1.934-1.82 2.021 0 .969 12.532 2.192 18.992 1.854 10.153-.531 20.873-3.746 28.733-8.617 1.337-.829 1.376-.801.309.221-9.09 8.709-22.472 16.048-33.735 18.501-5.076 1.106-8.548 1.405-15.277 1.316-2.688-.035-4.887-.027-4.887.017 0 .045.459.658 1.019 1.362.561.704 1.873 2.548 2.915 4.096 1.043 1.548 2.383 3.489 2.978 4.312 6.721 9.296 15.869 15.206 27.669 17.873 1.334.302 2.79.637 3.235.745l.809.195-1.348-.07c-14.065-.729-27.819-5.07-38.288-12.087-3.433-2.3-4.958-3.569-9.313-7.748-3.176-3.047-3.036-2.983-3.376-1.565-1.247 5.213-1.708 12.606-1.266 20.336.456 7.977 3.811 18.429 8.289 25.817.426.705.803 1.326.836 1.382.209.352-.248-.095-1.519-1.483-13.561-14.812-20.325-32.503-19.204-50.227.093-1.469.136-2.703.097-2.743-.039-.039-1.365.835-2.946 1.943-1.582 1.107-3.755 2.611-4.83 3.342-11.493 7.807-17.211 16.519-20.425 31.117-.795 3.611-.45-2.228.48-8.137 2.467-15.658 8.57-28.157 18.839-38.579 1.728-1.754 3.094-3.217 3.034-3.252-.174-.1-1.997-.472-3.816-.778-15.403-2.592-30.15-.24-42.467 6.775-.852.485-1.793 1.019-2.089 1.187l-.54.304.54-.527c6.015-5.882 14.687-11.7 22.177-14.877 10.297-4.368 18.911-5.872 29.895-5.219 2.092.124 2.086.129 1.206-1.069-1.226-1.668-2.656-3.696-3.932-5.576-3.362-4.954-4.691-6.635-7.032-8.901-6.92-6.699-14.249-10.395-25.125-12.675l-1.82-.381 1.146.063c20.702 1.148 37.566 8.489 49.652 21.614.644.699 1.203 1.239 1.243 1.198.327-.326 1.311-5.708 1.561-8.535.205-2.318.208-11.979.005-14.361-.611-7.148-3.722-16.855-7.567-23.609-.69-1.213-1.283-2.266-1.318-2.34-.067-.146.39.321 1.655 1.689" fill-rule="evenodd"/></svg>