<svg height="400" viewBox="0 0 400 400" width="400" xmlns="http://www.w3.org/2000/svg"><path d="m377.647 42.708c-17.922 4.687-41.645 16.451-48.96 24.277-2.316 2.478-1.856 2.503 7.151.388 3.857-.905 7.183-1.476 7.39-1.269.496.496-13.256 16.557-24.184 28.244-9.989 10.684-10.036 11.129-.806 7.642 21.582-8.153 34.94-18.13 51.59-38.531 8.666-10.618 13.865-15.508 21.151-19.896l4.615-2.779-5.444.039c-3.071.022-8.522.843-12.503 1.885m-67.029 19.692c-31.534 26.384-65.371 39.75-116.977 46.208-25.275 3.162-40.569 6.388-57.366 12.097-3.775 1.283-6.863 2.21-6.863 2.061 0-.547 10.049-6.584 19.608-11.78 5.392-2.931 10.686-6.032 11.764-6.892l1.961-1.563-6.667.531c-28.654 2.283-69.546 19.794-87.104 37.302-5.373 5.357-12.503 15.575-12.503 17.917 0 1.197-.527 1.303 6.867-1.395 75.123-27.416 151.551 51.272 111.034 114.317-5.088 7.917-5.082 7.586-.163 9.22 13.988 4.646 33.889-5.266 37.155-18.506.464-1.88.947-2.061 7.821-2.929 15.028-1.898 29.21-8.1 44.116-19.291 8.578-6.441 12.271-9.843 42.668-39.305 13.56-13.143 18.43-17.342 24.105-20.784 3.912-2.373 7.128-4.579 7.147-4.902.183-3.171-29.446 2.502-44.037 8.43-2.655 1.079-4.947 1.962-5.094 1.962-.146 0 .645-1.444 1.759-3.209s6.814-11.735 12.667-22.157c17.507-31.173 18.863-32.667 41.186-45.376 2.167-1.233-.764-1.78-9.051-1.687-16.079.181-36.394 5.587-65.631 17.464l-4.314 1.753 11.973-11.514c21.633-20.802 36.23-40.976 40.958-56.608 2.729-9.024 2.248-9.117-7.019-1.364m-72.579 6.559c-20.559 5.292-39.651 14.935-48.866 24.678-4.411 4.664-5.282 7.066-2.31 6.374.97-.226 6.706-1.304 12.745-2.396 25.638-4.633 32.307-7.741 45.616-21.26l9.538-9.688-4.048.035c-2.226.02-7.93 1.035-12.675 2.257m-164.287 93.019c-33.636 6.383-57.355 28.294-65.14 60.174-3.058 12.524-3.077 14.711-.127 14.711 12.84 0 27.566 11.822 27.586 22.148.021 10.491-10.384 22.516-19.53 22.57-4.487.026-4.538.515-1.305 12.675 5.526 20.787 19.298 60.203 21.147 60.526.376.066 3.362-4.56 6.636-10.28s6.208-10.308 6.519-10.196 5.003 6.116 10.427 13.341c10.512 14.004 11.107 14.54 11.754 10.588.547-3.336 2.791-23.678 2.791-25.295 0-.725 4.988 3.309 11.835 9.57 15.402 14.085 13.974 14.606 14.227-5.191l.212-16.516 15.53 9.494c8.541 5.222 15.683 9.34 15.872 9.151.188-.188-1.089-4.906-2.838-10.483-7.389-23.566-9.331-37.954-7.388-54.72 1.839-15.865 1.992-16.058 9.805-12.395l2.745 1.287-.243 17.255c-.134 9.49.074 17.713.461 18.273 2.503 3.615 30.698-31.201 35.028-43.254 17.874-49.752-38.267-104.389-96.004-93.433m26.469 57.279c18.563 7.754 13.538 45.723-6.951 52.529-13.758 4.57-30.939-3.858-34.451-16.899-4.547-16.887 25.131-42.427 41.402-35.63m196.25 27.399c-15.905 3.016-23.21 5.984-42.176 17.134-7.647 4.495-19.337 11.102-25.979 14.681-14.457 7.79-14.306 8.216 2.664 7.511 22.31-.926 35.568-5.502 60.169-20.767 16.119-10.002 23.467-13.331 32.373-14.667 4.407-.661 4.453-1.371.203-3.131-4.496-1.863-19.27-2.276-27.254-.761m-239.608 42.853c3.019 3.503 8.075 9.413 11.234 13.135l5.745 6.768-3.784.555c-9.592 1.407-28.155 2.838-28.775 2.218-1.314-1.314 3.665-21.954 6.677-27.675 1.34-2.546 3.389-1.396 8.903 4.999" fill-rule="evenodd"/></svg>