<svg height="400" viewBox="0 0 400 400" width="400" xmlns="http://www.w3.org/2000/svg"><path d="m270.769 84.373c-136.658 9.368-268.829 130.434-187.073 171.355 17.342 8.681 30.962 10.522 65.552 8.86 26.336-1.266 26.76-1.199 16.275 2.558-47.815 17.134-104.757 12.705-129.346-10.061-16.842-15.593-19.523-33.322-9.462-62.58 2.334-6.789 2.26-7.542-.434-4.395-27.695 32.353-20.972 73.124 15.038 91.202 48.252 24.224 147.802 10.251 219.34-30.788 11.17-6.408 11.074-6.26 6.242-9.585-6.717-4.621-8.293-9.711-4.673-15.095 3.058-4.548 5.612-4.996 21.055-3.693 15.928 1.344 15.975 1.336 20.45-3.247l3.504-3.588 1.439-14.461c1.587-15.95 2.405-18.178 7.444-20.284 3.866-1.615 7.075-.847 10.68 2.557 1.564 1.477 3 2.515 3.191 2.306 7.272-7.952 10.956-30.648 6.748-41.56-10.04-26.03-41.285-34.826-106.849-30.079-8.766.634-7.377-.398 6.878-5.114 38.923-12.877 89.116-11.153 114.567 3.935 24.374 14.449 31.033 36.357 20.5 67.445-3.454 10.194-3.021 10.703 2.644 3.103 21.093-28.296 19.841-60.614-3.001-77.453-20.945-15.441-61.472-24.028-100.709-21.338m-187.291 12.422c-7.368 14.897-5.556 14.268-20.105 6.98-6.811-3.413-12.384-6.008-12.384-5.767 0 .24 2.939 4.963 6.53 10.495 3.592 5.531 6.943 10.829 7.448 11.773.825 1.54-.247 2.467-10.486 9.071-12.965 8.363-13.301 8.799-6.349 8.244 2.78-.221 9.05-.609 13.932-.861l8.878-.458.573 9.364c.315 5.149.573 11.477.573 14.061 0 5.993.799 5.919 3.847-.356 1.35-2.781 4.221-8.316 6.379-12.301l3.925-7.246 4.324 2.191c5.359 2.715 5.573 2.713 9.276-.111 3.728-2.844 3.729-2.809-.192-8.714-1.766-2.659-3.051-4.97-2.857-5.136.194-.165 5.397-3.562 11.562-7.548 6.164-3.986 11.208-7.456 11.208-7.71 0-.255-6.267-.179-13.928.168l-13.929.631-.577-8.126c-.317-4.47-.583-10.341-.59-13.047-.023-8.436-1.012-7.819-7.058 4.403m177.325 48.557c31.927 8.873 29.207 41.794-5.418 65.583l-4.396 3.02 4.456-4.779c15.27-16.38 19.597-27.845 14.069-37.279-4.389-7.489-8.729-7.592-9.594-.227-4.87 41.447-98.26 78.26-134.726 53.106-19.468-13.43-10.796-38.16 21.611-61.629.721-.522-1.181 1.82-4.227 5.205-16.163 17.961-19.582 29.786-11.244 38.884 4.131 4.508 7.11 3.711 7.987-2.138 5.478-36.526 77.527-71.96 121.482-59.746m58.339 44.582c.012.701-.863 11.068-1.944 23.038l-1.965 21.763-2.672-.42c-5.329-.838-38.04-3.244-40.231-2.959-1.876.244.715 2.377 15.678 12.909 9.859 6.938 17.926 13.018 17.926 13.51s-5.371 8.61-11.936 18.039c-6.565 9.43-12.145 17.687-12.399 18.35-.52 1.356.718.84 24.275-10.115 8.429-3.919 15.675-7.126 16.102-7.126.696 0 6.94 12.545 16.586 33.326 1.887 4.065 3.58 7.23 3.762 7.033s1.223-10.447 2.315-22.777c1.091-12.329 2.027-22.467 2.079-22.528.052-.06 10.183.77 22.513 1.846 12.329 1.077 22.582 1.819 22.784 1.649.466-.391 2.357 1.01-18.169-13.453-9.791-6.898-17.785-12.994-17.764-13.545s5.548-8.914 12.283-18.584c6.734-9.67 11.908-17.698 11.497-17.84-.594-.204-33.044 14.376-38.868 17.464-1.193.632-2.955-2.487-10.853-19.215-9.288-19.672-11.042-22.919-10.999-20.365" fill-rule="evenodd"/></svg>