<svg id="svg" xmlns="http://www.w3.org/2000/svg" xmlns:xlink="http://www.w3.org/1999/xlink" width="400" height="400" viewBox="0, 0, 400,400"><g id="svgg"><path id="path0" d="M191.498 0.133 C 180.547 0.473,166.686 2.366,154.373 5.206 C 121.838 12.709,89.403 29.769,65.587 51.904 C 45.705 70.383,31.822 88.730,20.320 111.723 C 9.568 133.218,2.042 159.965,0.607 181.781 C 0.323 186.099,0.320 214.602,0.603 218.961 C 1.417 231.481,4.882 248.381,9.541 262.551 C 34.062 337.126,98.975 390.146,177.156 399.456 C 184.343 400.312,217.851 400.166,224.696 399.249 C 273.814 392.668,316.301 370.367,349.003 334.001 C 374.567 305.574,391.224 271.064,397.495 233.536 C 400.636 214.738,400.908 189.958,398.180 171.120 C 390.021 114.787,357.109 63.609,308.907 32.301 C 273.762 9.473,234.779 -1.207,191.498 0.133 M213.563 21.384 C 299.231 28.008,368.596 94.876,378.199 180.094 C 384.667 237.494,364.035 292.436,320.857 332.788 C 294.679 357.254,258.357 373.992,221.727 378.470 C 211.098 379.769,194.788 380.064,184.548 379.142 C 97.845 371.332,29.514 303.369,21.260 216.734 C 20.718 211.041,20.497 194.420,20.892 189.001 C 22.229 170.674,25.699 154.338,31.685 138.192 C 55.392 74.248,113.719 28.858,181.242 21.808 C 189.417 20.954,205.310 20.746,213.563 21.384 M190.621 40.016 C 155.068 42.554,124.855 54.453,97.773 76.579 C 92.551 80.846,82.147 91.066,77.779 96.221 C 55.776 122.186,42.632 153.939,39.933 187.652 C 39.540 192.563,39.643 210.447,40.091 215.047 C 41.759 232.172,45.948 248.507,52.670 264.103 C 54.686 268.778,57.569 274.602,59.953 278.812 C 63.588 285.233,68.383 292.608,71.798 297.031 C 74.445 300.460,75.398 301.651,77.197 303.779 C 103.999 335.473,141.485 355.437,182.591 359.909 C 194.278 361.180,208.410 361.077,219.906 359.637 C 222.494 359.313,229.757 358.144,231.646 357.747 C 251.640 353.550,270.311 346.054,285.560 336.102 C 285.820 335.932,286.761 335.322,287.652 334.747 C 330.124 307.299,357.829 259.155,360.202 208.678 C 362.736 154.737,339.487 104.938,296.466 72.157 C 279.403 59.155,258.305 49.148,237.652 44.260 C 228.479 42.089,220.902 40.946,210.309 40.135 C 206.521 39.844,194.072 39.769,190.621 40.016 M211.066 61.139 C 220.221 61.667,233.244 64.312,243.590 67.745 C 287.368 82.270,321.344 117.643,334.198 162.078 C 340.420 183.587,341.159 208.633,336.217 230.567 C 329.434 260.677,313.495 286.809,289.339 307.421 C 281.047 314.496,267.712 322.961,258.300 327.123 C 250.505 330.570,247.207 331.807,239.744 334.079 C 236.654 335.019,229.736 336.844,229.276 336.840 C 229.170 336.840,230.267 336.291,231.714 335.621 C 258.316 323.307,277.921 305.277,292.609 279.618 C 301.294 264.447,307.476 243.763,308.522 226.383 C 310.367 195.720,303.347 168.632,287.243 144.265 C 279.233 132.146,267.898 120.102,256.680 111.792 C 253.867 109.709,253.194 109.235,250.503 107.444 C 219.951 87.115,183.211 80.792,146.397 89.527 C 122.555 95.184,99.102 109.364,81.095 129.008 C 77.835 132.565,77.874 132.551,79.727 129.487 C 82.655 124.646,85.651 120.172,88.446 116.464 C 100.457 100.535,115.390 87.673,133.711 77.477 C 149.194 68.860,168.635 63.007,187.937 61.151 C 189.651 60.986,208.248 60.976,211.066 61.139 M180.315 106.748 C 192.779 107.057,199.244 108.057,210.459 111.411 C 229.682 117.158,248.930 129.905,261.802 145.412 C 274.232 160.386,281.724 175.819,285.833 194.913 C 286.240 196.806,286.139 196.777,284.956 194.666 C 279.965 185.756,276.930 181.281,272.281 175.978 C 256.065 157.482,234.883 146.104,211.471 143.314 C 206.416 142.712,193.182 142.678,188.693 143.257 C 133.974 150.307,96.692 200.264,105.808 254.318 C 110.747 283.607,128.289 307.677,155.770 322.875 C 157.088 323.604,158.150 324.215,158.131 324.232 C 157.986 324.368,151.884 322.915,148.381 321.910 C 116.418 312.744,90.284 289.741,77.261 259.312 C 64.651 229.847,65.679 195.719,80.032 167.341 C 86.397 154.756,95.641 142.765,105.735 133.998 C 106.626 133.224,107.432 132.518,107.527 132.428 C 109.380 130.679,116.137 125.766,120.264 123.167 C 133.504 114.829,150.390 108.869,165.250 107.291 C 166.066 107.204,167.767 107.023,169.028 106.888 C 171.810 106.592,173.293 106.574,180.315 106.748 M209.447 164.158 C 225.361 166.259,240.717 173.663,251.475 184.422 C 256.222 189.170,258.109 191.321,260.630 194.861 C 273.441 212.850,277.645 235.312,272.193 256.653 C 264.804 285.579,240.543 307.520,210.907 312.079 C 208.389 312.466,208.390 312.431,210.919 310.680 C 215.041 307.828,217.531 305.789,220.482 302.849 C 244.183 279.243,244.127 241.212,220.358 217.710 C 199.167 196.756,166.394 194.507,142.297 212.352 C 136.253 216.828,130.845 222.835,126.596 229.791 C 126.132 230.552,125.725 231.174,125.692 231.174 C 125.542 231.174,126.256 226.575,126.937 223.144 C 133.258 191.328,160.923 166.665,193.522 163.785 C 196.096 163.557,206.795 163.808,209.447 164.158 M182.303 221.594 C 194.761 222.352,207.278 231.068,213.213 243.117 C 221.801 260.552,216.506 281.036,200.472 292.404 C 189.977 299.845,176.093 301.472,164.035 296.673 C 141.514 287.710,132.357 261.111,144.684 240.464 C 150.726 230.343,161.757 222.995,173.077 221.550 C 173.957 221.437,180.220 221.468,182.303 221.594 " stroke="none" fill="#000000" fill-rule="evenodd"></path></g></svg>