<svg height="400" viewBox="0 0 400 400" width="400" xmlns="http://www.w3.org/2000/svg"><path d="m191.498.133c-10.951.34-24.812 2.233-37.125 5.073-32.535 7.503-64.97 24.563-88.786 46.698-19.882 18.479-33.765 36.826-45.267 59.819-10.752 21.495-18.278 48.242-19.713 70.058-.284 4.318-.287 32.821-.004 37.18.814 12.52 4.279 29.42 8.938 43.59 24.521 74.575 89.434 127.595 167.615 136.905 7.187.856 40.695.71 47.54-.207 49.118-6.581 91.605-28.882 124.307-65.248 25.564-28.427 42.221-62.937 48.492-100.465 3.141-18.798 3.413-43.578.685-62.416-8.159-56.333-41.071-107.511-89.273-138.819-35.145-22.828-74.128-33.508-117.409-32.168m22.065 21.251c85.668 6.624 155.033 73.492 164.636 158.71 6.468 57.4-14.164 112.342-57.342 152.694-26.178 24.466-62.5 41.204-99.13 45.682-10.629 1.299-26.939 1.594-37.179.672-86.703-7.81-155.034-75.773-163.288-162.408-.542-5.693-.763-22.314-.368-27.733 1.337-18.327 4.807-34.663 10.793-50.809 23.707-63.944 82.034-109.334 149.557-116.384 8.175-.854 24.068-1.062 32.321-.424m-22.942 18.632c-35.553 2.538-65.766 14.437-92.848 36.563-5.222 4.267-15.626 14.487-19.994 19.642-22.003 25.965-35.147 57.718-37.846 91.431-.393 4.911-.29 22.795.158 27.395 1.668 17.125 5.857 33.46 12.579 49.056 2.016 4.675 4.899 10.499 7.283 14.709 3.635 6.421 8.43 13.796 11.845 18.219 2.647 3.429 3.6 4.62 5.399 6.748 26.802 31.694 64.288 51.658 105.394 56.13 11.687 1.271 25.819 1.168 37.315-.272 2.588-.324 9.851-1.493 11.74-1.89 19.994-4.197 38.665-11.693 53.914-21.645.26-.17 1.201-.78 2.092-1.355 42.472-27.448 70.177-75.592 72.55-126.069 2.534-53.941-20.715-103.74-63.736-136.521-17.063-13.002-38.161-23.009-58.814-27.897-9.173-2.171-16.75-3.314-27.343-4.125-3.788-.291-16.237-.366-19.688-.119m20.445 21.123c9.155.528 22.178 3.173 32.524 6.606 43.778 14.525 77.754 49.898 90.608 94.333 6.222 21.509 6.961 46.555 2.019 68.489-6.783 30.11-22.722 56.242-46.878 76.854-8.292 7.075-21.627 15.54-31.039 19.702-7.795 3.447-11.093 4.684-18.556 6.956-3.09.94-10.008 2.765-10.468 2.761-.106 0 .991-.549 2.438-1.219 26.602-12.314 46.207-30.344 60.895-56.003 8.685-15.171 14.867-35.855 15.913-53.235 1.845-30.663-5.175-57.751-21.279-82.118-8.01-12.119-19.345-24.163-30.563-32.473-2.813-2.083-3.486-2.557-6.177-4.348-30.552-20.329-67.292-26.652-104.106-17.917-23.842 5.657-47.295 19.837-65.302 39.481-3.26 3.557-3.221 3.543-1.368.479 2.928-4.841 5.924-9.315 8.719-13.023 12.011-15.929 26.944-28.791 45.265-38.987 15.483-8.617 34.924-14.47 54.226-16.326 1.714-.165 20.311-.175 23.129-.012m-30.751 45.609c12.464.309 18.929 1.309 30.144 4.663 19.223 5.747 38.471 18.494 51.343 34.001 12.43 14.974 19.922 30.407 24.031 49.501.407 1.893.306 1.864-.877-.247-4.991-8.91-8.026-13.385-12.675-18.688-16.216-18.496-37.398-29.874-60.81-32.664-5.055-.602-18.289-.636-22.778-.057-54.719 7.05-92.001 57.007-82.885 111.061 4.939 29.289 22.481 53.359 49.962 68.557 1.318.729 2.38 1.34 2.361 1.357-.145.136-6.247-1.317-9.75-2.322-31.963-9.166-58.097-32.169-71.12-62.598-12.61-29.465-11.582-63.593 2.771-91.971 6.365-12.585 15.609-24.576 25.703-33.343.891-.774 1.697-1.48 1.792-1.57 1.853-1.749 8.61-6.662 12.737-9.261 13.24-8.338 30.126-14.298 44.986-15.876.816-.087 2.517-.268 3.778-.403 2.782-.296 4.265-.314 11.287-.14m29.132 57.41c15.914 2.101 31.27 9.505 42.028 20.264 4.747 4.748 6.634 6.899 9.155 10.439 12.811 17.989 17.015 40.451 11.563 61.792-7.389 28.926-31.65 50.867-61.286 55.426-2.518.387-2.517.352.012-1.399 4.122-2.852 6.612-4.891 9.563-7.831 23.701-23.606 23.645-61.637-.124-85.139-21.191-20.954-53.964-23.203-78.061-5.358-6.044 4.476-11.452 10.483-15.701 17.439-.464.761-.871 1.383-.904 1.383-.15 0 .564-4.599 1.245-8.03 6.321-31.816 33.986-56.479 66.585-59.359 2.574-.228 13.273.023 15.925.373m-27.144 57.436c12.458.758 24.975 9.474 30.91 21.523 8.588 17.435 3.293 37.919-12.741 49.287-10.495 7.441-24.379 9.068-36.437 4.269-22.521-8.963-31.678-35.562-19.351-56.209 6.042-10.121 17.073-17.469 28.393-18.914.88-.113 7.143-.082 9.226.044" fill-rule="evenodd"/></svg>