<svg id="svg" xmlns="http://www.w3.org/2000/svg" xmlns:xlink="http://www.w3.org/1999/xlink" width="400" height="400" viewBox="0, 0, 400,400"><g id="svgg"><path id="path0" d="M199.760 1.311 C 199.068 2.861,183.562 40.861,171.657 70.182 C 169.586 75.282,167.848 79.440,167.794 79.423 C 167.596 79.361,160.502 73.877,140.438 58.275 C 109.389 34.131,102.330 28.712,100.920 27.939 L 100.330 27.615 100.407 28.681 C 100.475 29.632,105.310 64.924,109.682 96.391 C 111.336 108.294,111.770 111.681,111.658 111.793 C 111.494 111.957,107.851 111.466,66.509 105.709 C 25.279 99.967,27.116 100.211,27.116 100.483 C 27.116 100.673,30.297 104.817,40.805 118.314 C 74.799 161.981,79.298 167.859,78.912 168.102 C 78.399 168.425,72.158 171.001,54.637 178.121 C 13.681 194.766,0.413 200.202,0.409 200.337 C 0.403 200.577,2.573 201.472,39.528 216.482 C 69.083 228.485,75.627 231.154,78.054 232.192 L 79.414 232.774 77.118 235.746 C 75.855 237.381,64.510 251.972,51.908 268.170 C 30.195 296.079,27.926 299.013,27.331 299.953 L 27.083 300.344 28.145 300.267 C 28.730 300.225,42.836 298.306,59.494 296.003 C 102.276 290.087,111.720 288.799,111.775 288.871 C 111.788 288.889,111.689 289.693,111.553 290.658 C 111.198 293.187,103.156 351.538,101.646 362.544 C 100.392 371.678,100.234 373.153,100.509 373.153 C 100.933 373.153,110.530 365.760,151.636 333.764 C 159.983 327.266,167.014 321.808,167.259 321.635 C 167.795 321.256,167.873 321.324,168.403 322.631 C 168.584 323.076,172.164 331.848,176.358 342.125 C 198.668 396.779,198.205 395.649,199.428 398.346 L 200.117 399.863 200.510 399.156 C 201.529 397.324,206.704 384.778,224.757 340.371 C 229.806 327.953,232.442 321.569,232.576 321.434 C 232.715 321.295,232.018 320.761,256.931 340.104 C 293.267 368.317,296.775 371.018,299.137 372.604 L 300.197 373.316 300.116 372.796 C 300.071 372.510,299.849 370.820,299.622 369.039 C 299.395 367.258,297.030 349.956,294.365 330.590 C 288.120 285.197,288.587 288.971,289.217 288.971 C 290.012 288.971,305.275 291.046,339.831 295.851 C 370.367 300.098,372.088 300.329,372.766 300.277 L 373.302 300.236 371.674 298.037 C 370.779 296.828,359.739 282.592,347.142 266.401 C 334.545 250.211,323.579 236.084,322.773 235.008 C 321.967 233.933,321.250 232.977,321.178 232.885 C 321.016 232.676,319.553 233.294,336.661 226.350 C 389.849 204.763,400.149 200.491,399.645 200.226 C 398.465 199.608,378.998 191.618,345.025 177.808 C 324.699 169.545,321.842 168.364,321.442 168.053 C 321.227 167.887,325.701 161.957,337.341 146.975 C 339.644 144.011,347.472 133.936,354.737 124.587 C 366.904 108.927,373.423 100.458,373.423 100.312 C 373.423 100.279,373.226 100.282,372.985 100.316 C 372.744 100.351,371.211 100.557,369.578 100.774 C 367.946 100.991,357.261 102.473,345.835 104.068 C 298.471 110.681,288.926 111.973,288.749 111.796 C 288.616 111.663,289.915 102.069,296.469 54.772 C 298.899 37.231,300.204 27.508,300.135 27.445 C 299.933 27.261,289.259 35.471,253.806 63.082 C 237.625 75.683,232.940 79.300,232.656 79.408 C 232.536 79.454,232.344 79.154,232.070 78.491 C 231.845 77.948,227.097 66.243,221.517 52.479 C 201.740 3.695,200.496 0.660,200.249 0.578 C 200.172 0.552,199.952 0.882,199.760 1.311 M205.868 101.720 C 209.339 101.857,210.473 101.966,214.435 102.542 C 271.831 110.881,310.122 167.437,296.306 223.468 C 280.103 289.185,205.038 319.934,147.912 284.256 C 116.173 264.433,98.148 227.968,101.796 190.961 C 106.541 142.834,144.857 105.447,193.255 101.721 C 196.501 101.472,199.597 101.471,205.868 101.720 M194.132 138.353 C 158.541 142.393,133.627 174.052,138.560 208.971 C 142.382 236.031,163.169 257.285,190.349 261.925 C 194.248 262.591,206.323 262.550,210.375 261.857 C 230.114 258.483,247.221 245.732,256.076 227.793 C 263.212 213.338,264.372 195.835,259.209 180.541 C 251.964 159.082,233.665 143.219,211.467 139.156 C 206.350 138.219,198.512 137.856,194.132 138.353 " stroke="none" fill="#000000" fill-rule="evenodd"></path></g></svg>