<svg height="400" viewBox="0 0 400 400" width="400" xmlns="http://www.w3.org/2000/svg"><path d="m199.76 1.311c-.692 1.55-16.198 39.55-28.103 68.871-2.071 5.1-3.809 9.258-3.863 9.241-.198-.062-7.292-5.546-27.356-21.148-31.049-24.144-38.108-29.563-39.518-30.336l-.59-.324.077 1.066c.068.951 4.903 36.243 9.275 67.71 1.654 11.903 2.088 15.29 1.976 15.402-.164.164-3.807-.327-45.149-6.084-41.23-5.742-39.393-5.498-39.393-5.226 0 .19 3.181 4.334 13.689 17.831 33.994 43.667 38.493 49.545 38.107 49.788-.513.323-6.754 2.899-24.275 10.019-40.956 16.645-54.224 22.081-54.228 22.216-.006.24 2.164 1.135 39.119 16.145 29.555 12.003 36.099 14.672 38.526 15.71l1.36.582-2.296 2.972c-1.263 1.635-12.608 16.226-25.21 32.424-21.713 27.909-23.982 30.843-24.577 31.783l-.248.391 1.062-.077c.585-.042 14.691-1.961 31.349-4.264 42.782-5.916 52.226-7.204 52.281-7.132.013.018-.086.822-.222 1.787-.355 2.529-8.397 60.88-9.907 71.886-1.254 9.134-1.412 10.609-1.137 10.609.424 0 10.021-7.393 51.127-39.389 8.347-6.498 15.378-11.956 15.623-12.129.536-.379.614-.311 1.144.996.181.445 3.761 9.217 7.955 19.494 22.31 54.654 21.847 53.524 23.07 56.221l.689 1.517.393-.707c1.019-1.832 6.194-14.378 24.247-58.785 5.049-12.418 7.685-18.802 7.819-18.937.139-.139-.558-.673 24.355 18.67 36.336 28.213 39.844 30.914 42.206 32.5l1.06.712-.081-.52c-.045-.286-.267-1.976-.494-3.757s-2.592-19.083-5.257-38.449c-6.245-45.393-5.778-41.619-5.148-41.619.795 0 16.058 2.075 50.614 6.88 30.536 4.247 32.257 4.478 32.935 4.426l.536-.041-1.628-2.199c-.895-1.209-11.935-15.445-24.532-31.636-12.597-16.19-23.563-30.317-24.369-31.393-.806-1.075-1.523-2.031-1.595-2.123-.162-.209-1.625.409 15.483-6.535 53.188-21.587 63.488-25.859 62.984-26.124-1.18-.618-20.647-8.608-54.62-22.418-20.326-8.263-23.183-9.444-23.583-9.755-.215-.166 4.259-6.096 15.899-21.078 2.303-2.964 10.131-13.039 17.396-22.388 12.167-15.66 18.686-24.129 18.686-24.275 0-.033-.197-.03-.438.004-.241.035-1.774.241-3.407.458-1.632.217-12.317 1.699-23.743 3.294-47.364 6.613-56.909 7.905-57.086 7.728-.133-.133 1.166-9.727 7.72-57.024 2.43-17.541 3.735-27.264 3.666-27.327-.202-.184-10.876 8.026-46.329 35.637-16.181 12.601-20.866 16.218-21.15 16.326-.12.046-.312-.254-.586-.917-.225-.543-4.973-12.248-10.553-26.012-19.777-48.784-21.021-51.819-21.268-51.901-.077-.026-.297.304-.489.733m6.108 100.409c3.471.137 4.605.246 8.567.822 57.396 8.339 95.687 64.895 81.871 120.926-16.203 65.717-91.268 96.466-148.394 60.788-31.739-19.823-49.764-56.288-46.116-93.295 4.745-48.127 43.061-85.514 91.459-89.24 3.246-.249 6.342-.25 12.613-.001m-11.736 36.633c-35.591 4.04-60.505 35.699-55.572 70.618 3.822 27.06 24.609 48.314 51.789 52.954 3.899.666 15.974.625 20.026-.068 19.739-3.374 36.846-16.125 45.701-34.064 7.136-14.455 8.296-31.958 3.133-47.252-7.245-21.459-25.544-37.322-47.742-41.385-5.117-.937-12.955-1.3-17.335-.803" fill-rule="evenodd"/></svg>