<svg enable-background="new 0 0 600 600" viewBox="0 0 600 600" xmlns="http://www.w3.org/2000/svg" xmlns:xlink="http://www.w3.org/1999/xlink"><clipPath id="a"><path d="m0 0h600v600h-600z"/></clipPath><g clip-path="url(#a)"><path d="m394.5 359.4 13.9-14.7-28-10.7s-17.1 19.4-29.3 26.7l-23.2-14.1 39 76.6 18-41.7 51.9 168.5-57.7-90.3-25.5 44.5-21.4-94.4-18 43.3v-82c-10.1 1.4-18.9 2.5-28.8-1.3l-3.4-24.7-18.6 56.6 17.3-.3-52.1 87.4 20.3-73.2h-17.9l35-59.5s-7.3-3.2-9.6-6l7.8-29.6-63.4 67.6 10.6-31.2-64.1 47.1 7.1-39.2-95.2 23.8 137.9-80.2-12.5 35 57.4-21.9c-.2-.7-7.6-20.1-5.6-30.9l22.9-8.4-54.9-12.1 1.2 16.2-99-45.5 82.6 16.2-.7-16 57.8 23.9s3.4-9.2 8.5-13.9l31.1 5.9-77.3-65.3 41.1 11.5-61-68.5 50.9 5.5-42.7-90.1 108.5 129.1-41.5-4.5 25.1 57.5c8.2-3 12.3-5.1 21.1-4.6l10.8 25.6 1.9-26.3 4.3 3.7 11-65.4 12.9 11.1 32-70.7-16.7 104.8-15.4-13.1-14.5 38.5c2.6.9 14.9 6.3 21.4 13.4l-6.1 27.7 58.3-61.4-11 31.6 61.9-49.1-7.8 41.4 87.6-24-126.1 77.4 9.8-33.7-48.4 17.5c.1.3 6.3 16.1 5.4 26.3l-23.1 12.4 20.1.5s-5 5.1-5 5.1l66.3 11.4-10.5 11.3 74.1 32.7z" fill="#231f20"/></g></svg>