<svg xmlns="http://www.w3.org/2000/svg" width="1000" height="1000" viewBox="0 0 1000 1000">
    <path
        d="m689 618.8 27.8-29.4-56-21.4s-34.2 38.8-58.6 53.4l-46.4-28.2 78 153.2 36-83.4 103.8 337-115.4-180.6-51 89-42.8-188.8-35.9 86.6v-164c-20.2 2.8-37.8 5-57.6-2.6l-6.8-49.4-37.2 113.2 34.6-.6-104.2 174.8 40.6-146.4h-35.8l70-119s-14.6-6.4-19.2-12l15.6-59.2-126.8 135.2 21.2-62.4L194.7 708l14.2-78.4-190.4 47.6 275.8-160.4-25 70L384.1 543c-.4-1.4-15.2-40.2-11.2-61.8l45.8-16.8-109.8-24.2 2.4 32.4-198-91L278.5 414l-1.4-32 115.6 47.8s6.8-18.4 17-27.8l62.2 11.8-154.6-130.6 82.2 23-122-137 101.8 11L293.9 0l217 258.2-83-9 50.2 115c16.4-6 24.6-10.2 42.2-9.2l21.5 51.2 3.8-52.6 8.6 7.4 22-130.8 25.8 22.2L666 111l-33.4 209.6-30.8-26.2-29 77c5.2 1.8 29.8 12.6 42.8 26.8l-12.2 55.4L720 330.8 698 394l123.8-98.2-15.6 82.8 175.2-48-252.2 154.8 19.6-67.4-96.8 35c.2.6 12.6 32.2 10.8 52.6l-46.2 24.8 40.2 1-10 10.2 132.6 22.8-21 22.6 148.2 65.4z"
        style="fill:#000000" />
</svg>