<svg height="400" viewBox="0 0 400 400" width="400" xmlns="http://www.w3.org/2000/svg"><path d="m200.465 39.509c-10.073 13.71-19.927 38.865-19.927 50.869 0 .395 1.815.719 4.033.719 7.89 0 28.032 4.754 26.427 6.238-.127.118-4.518.834-9.756 1.591-29.215 4.221-57.679 14.14-83.923 29.244-11.791 6.786-33.934 1.676-47.612-10.987-6.05-5.602-5.939-5.605-5.937.208.004 8.565 5.881 26.458 12.476 37.986 3.171 5.542 3.455 4.654-4.566 14.246-8.446 10.101-13.761 17.571-20.791 29.219-7.651 12.679-15.596 16.011-38.26 16.046-6.946.01-12.629.311-12.629.669 0 4.98 14.255 18.109 26.873 24.75l5.839 3.073.077 13.921c.118 21.508 5.172 36.174 16.665 48.356 6.453 6.842 6.79 6.791 4.125-.615-5.116-14.218-6.232-33.412-2.629-45.208 1.784-5.839 2.505-5.983 3.213-.642 3.729 28.109 25.155 61.063 46.867 72.08 10.887 5.526 18.612 17.111 18.629 27.94.005 3.302.254 6.004.553 6.004 2.124.005 11.95-12.74 15.828-20.528 4.886-9.811 5.591-10.356 14.685-11.34 23.889-2.586 52.644-11.02 77.423-22.708 10.93-5.156 10.112-5.421 18.229 5.886 11.019 15.35 23.722 27.804 22.964 22.515-.124-.862-.808-5.107-1.52-9.434-4.068-24.717-.895-39.59 10.186-47.736 9.588-7.049 21.317-16.658 29.017-23.773 7.747-7.158 9.291-7.774 16.241-6.482 6.647 1.236 12.25 4.126 18.726 9.657 6.338 5.415 6.668 5.487 6.647 1.46-.047-8.828-3.069-22.4-7.141-32.066-3.481-8.263-3.759-6.614 2.923-17.356 15.423-24.795 22.454-45.443 22.454-65.944 0-12.271 9.765-19.886 28.172-21.969 2.725-.308 4.954-.902 4.954-1.32 0-2.814-25.659-11.449-34.022-11.449-5.676 0-7.883-1.309-11.08-6.572-7.608-12.524-23.129-23.328-42.62-29.668l-6.977-2.269-2.252-5.604c-3.137-7.808-8.379-15.539-14.168-20.899-6.08-5.629-6.034-5.632-6.209.401-.19 6.568-2.136 12.981-5.439 17.923-3.237 4.843-2.787 4.722-24.231 6.495-9.566.791-20.118 2.244-26.915 3.707-6.149 1.323-11.428 2.154-11.73 1.847-2.251-2.282-6.605-22.654-7.778-36.393-.746-8.741-1.129-8.872-6.114-2.088m92.085 60.272c29.094 5.073 49.178 23.342 54.516 49.591.914 4.494 1.552 8.451 1.418 8.792-.134.342-3.412-3.218-7.283-7.91-8.236-9.98-8.726-10.182-9.51-3.907-1.241 9.93-8.558 28.429-14.107 35.669-.1.13-4.369-1.479-9.488-3.576-10.759-4.406-18.695-6.577-27.076-7.407-10.151-1.004-10.477-.447-3.792 6.476 7.982 8.268 15.94 24.218 15.94 31.951 0 5.389-29.471 29.121-53.831 43.347-11.403 6.66-29.694 15.516-32.047 15.516-7.134 0-22.186-17.368-26.051-30.059-2.063-6.778-2.986-6.725-5.399.31-2.769 8.071-3.57 14.759-3.577 29.848l-.006 13.763-2.692.474c-38.489 6.786-52.979 7.073-70.239 1.39-6.096-2.007-16.697-7.426-17.103-8.743-.484-1.569 10.08-14.641 17.924-22.179 4.194-4.03 7.383-7.571 7.087-7.867-1.64-1.64-21.698-.451-29.668 1.757-4.482 1.242-8.536 2.258-9.01 2.258-1.385 0 .068-12.674 2.36-20.584 7.474-25.793 33.274-56.514 68.532-81.605 4.795-3.411 5.809-3.847 6.42-2.757 4.992 8.921 18.084 22.588 25.443 26.561 5.224 2.82 5.161 2.856 4.138-2.361-3.368-17.175-1.305-39.471 4.121-44.528 7.295-6.798 48.987-20.899 71.362-24.135 10.9-1.576 32.812-1.621 41.618-.085" fill-rule="evenodd"/></svg>