<svg height="400" viewBox="0 0 400 400" width="400" xmlns="http://www.w3.org/2000/svg"><path d="m226.291 1.14c-3.5.733-4.156 1.637-9.653 13.3-2.019 4.285-5.687 12.102-6.079 12.955-.187.409-.611 1.32-.943 2.025-.331.705-.817 1.768-1.079 2.361-.262.594-.772 1.709-1.133 2.478-.361.77-.656 1.415-.656 1.436 0 .02-.517 1.111-1.147 2.425-.631 1.314-1.148 2.408-1.148 2.431 0 .024-.444.975-.988 2.114-.543 1.14-1.439 3.034-1.99 4.21-.552 1.176-1.094 2.186-1.205 2.245-.202.106-1.067.172-8.974.682-6.249.402-9.8.787-14.98 1.624-4.225.682-5.914.929-6.379.933-.424.003-.583-.187-4.038-4.822-20.383-27.341-26.088-34.912-26.692-35.418-1.453-1.219-4.86-1.815-7.43-1.299-1.045.21-6.22 2.857-18.956 9.694-1.967 1.056-4.214 2.256-4.994 2.667-.779.411-2.328 1.246-3.441 1.857-1.113.61-2.51 1.369-3.104 1.686-.594.318-1.717.925-2.497 1.349-.779.425-1.842 1.001-2.361 1.281-2.077 1.116-2.77 1.494-4.456 2.427-.967.535-2.242 1.234-2.834 1.552-.593.319-2.322 1.279-3.844 2.133-1.521.854-2.918 1.632-3.104 1.729-4.263 2.216-6.296 6.13-5.183 9.977.914 3.158 5.07 14.918 9.798 27.727.37 1.002 1.088 2.975 1.596 4.386.508 1.41 1.264 3.505 1.681 4.656 1.563 4.316 2.783 7.806 3.03 8.67l.255.892-.3.407c-.277.375-1.199 1.415-3.252 3.668-5.076 5.57-8.895 10.318-13.021 16.187-2.225 3.165-2.597 3.644-2.831 3.644-.114 0-8.679-1.216-19.033-2.701-10.354-1.486-19.525-2.794-20.378-2.906-.854-.113-2.463-.325-3.576-.472-8.243-1.09-8.923-.99-11.606 1.693-1.939 1.938-2.335 2.972-6.745 17.611-.347 1.151-.775 2.548-.951 3.104-.425 1.343-4.212 13.955-5.573 18.556-.592 2.004-1.991 6.68-3.108 10.392l-2.03 6.747.068 2.294c.169 5.698.555 6.104 10.107 10.619.89.421 2.378 1.128 3.306 1.571 2.179 1.041 9.313 4.415 10.189 4.82.371.171 4.106 1.918 8.299 3.881 4.194 1.963 8.02 3.753 8.502 3.978.483.224 1.789.843 2.902 1.374s2.672 1.275 3.464 1.652l1.44.686.08.757c.044.416.171 2.457.282 4.536.496 9.26.957 13.702 2.163 20.806.254 1.498.498 3.137.543 3.644l.08.921-1.057.799c-3.243 2.451-18.917 14.211-22.313 16.739-17.029 12.681-16.848 12.534-17.692 14.302-.785 1.645-.915 5.115-.26 6.959.467 1.313 3.504 7.139 9.179 17.611.684 1.262 1.49 2.75 1.79 3.306.301.557.744 1.377.984 1.822 6.768 12.532 13.635 24.981 14.878 26.972 1.841 2.948 4.219 4.405 7.194 4.405 1.955 0 3.618-.552 24.076-7.989 1.633-.593 3.121-1.127 3.307-1.185.185-.059 4.952-1.791 10.593-3.85 5.641-2.058 10.325-3.75 10.409-3.76.163-.019.423.21 3.424 3.017 5.849 5.472 10.618 9.302 18.746 15.055 1.993 1.411 2.032-.56-.319 15.986-5.654 39.794-5.355 36.31-3.343 39.024 1.979 2.67 2.227 2.772 18.992 7.867 3.34 1.015 6.528 1.989 7.085 2.163 2.67.838 21.725 6.531 25.371 7.579 8.371 2.408 10.1 2.492 13.428.65 1.723-.954 2.32-1.957 6.378-10.725.67-1.447 1.475-3.178 1.789-3.846s.798-1.7 1.077-2.294c.278-.594.748-1.596 1.045-2.227.296-.631 1.875-4.001 3.509-7.49 1.633-3.488 3.227-6.889 3.542-7.557.551-1.166.981-2.087 1.86-3.981.224-.483 1.117-2.396 1.983-4.251.867-1.856 1.699-3.658 1.849-4.005.379-.881-.286-.783 8.074-1.187 5.88-.283 13.549-1.118 18.219-1.982 2.969-.55 4.369-.698 4.751-.502.22.113 2.495 3.032 5.744 7.372 24.995 33.392 24.362 32.571 25.605 33.249 1.361.743 2.141.889 4.699.878l2.271-.01 2.115-1.102c3.021-1.574 9.557-5.031 11.967-6.331.52-.28 1.856-.992 2.969-1.583 2.018-1.071 4.38-2.334 11.674-6.245 2.115-1.134 4.696-2.514 5.735-3.067 1.039-.552 1.95-1.05 2.024-1.105.075-.055.925-.513 1.89-1.016.965-.504 2.058-1.081 2.429-1.282s1.95-1.053 3.509-1.893c10.213-5.506 11.736-7.864 9.497-14.71-1.359-4.159-6.639-18.816-15.448-42.888-.636-1.738-.794-1.425 2.449-4.885.452-.483 1.151-1.241 1.554-1.685s1.046-1.143 1.429-1.552c3.1-3.318 7.47-8.921 12.132-15.553.996-1.418 1.266-1.718 1.545-1.72.375-.001 2.821.292 4.993.6 2.202.311 13.39 1.926 16.397 2.367 7.56 1.106 24.022 3.394 26.253 3.648 2.95.336 4.291-.003 6.238-1.576 2.403-1.942 2.863-3.153 9.076-23.868.245-.817.941-3.124 1.547-5.128s2.226-7.379 3.601-11.944c1.374-4.564 3.047-10.121 3.718-12.348l1.22-4.048-.095-2.352c-.106-2.607-.225-3.091-1.161-4.714-1.118-1.939-1.437-2.115-17.874-9.869-3.61-1.703-5.912-2.784-6.815-3.2-.557-.257-2.287-1.068-3.846-1.803s-6.417-3.003-10.796-5.041l-7.962-3.705-.091-2.607c-.301-8.629-1.079-16.893-2.158-22.917-.153-.854-.388-2.281-.522-3.172l-.243-1.619.292-.32c.725-.794 7.779-6.132 28.565-21.618 1.967-1.466 5.337-3.978 7.49-5.583l3.914-2.917.776-1.632c.876-1.842.892-1.971.644-5.176-.122-1.58-.143-1.654-.837-3.037-1.049-2.09-3.254-6.284-5.711-10.864-.757-1.41-1.73-3.232-2.162-4.049-.432-.816-1.709-3.185-2.837-5.263-1.129-2.078-2.903-5.357-3.943-7.287-3.381-6.274-3.68-6.823-6.344-11.674-6.428-11.7-7.581-13.15-10.948-13.767-2.714-.497-2.753-.484-32.674 10.464-3.377 1.236-6.322 2.31-6.545 2.387-.222.077-2.135.764-4.251 1.527-5.714 2.061-6.535 2.305-6.913 2.056-.169-.11-1.372-1.196-2.674-2.412-6.013-5.619-13.698-11.825-19.039-15.376-.919-.612-1.717-1.153-1.775-1.203-.057-.05.324-3.063.846-6.695 1.739-12.086 4.849-33.95 5.345-37.574.339-2.48.495-4.138.508-5.409l.018-1.833-.513-1.001c-1.781-3.476-2.748-3.973-14.939-7.68-2.709-.823-5.806-1.765-6.883-2.093-7.197-2.191-10.54-3.2-15.182-4.585-2.895-.863-6.144-1.837-7.22-2.163-4.582-1.39-10.589-3.095-13.09-3.715-2.039-.506-4.385-.643-5.828-.341m-15.157 73.276c22.664 1.704 48.032 11.467 65.587 25.243 16.242 12.747 27.964 26.973 36.753 44.606 21.977 44.086 16.183 96.927-14.845 135.388-3.053 3.785-4.197 5.029-9.276 10.091-7.151 7.125-14.004 12.665-21.067 17.03-3.204 1.98-3.982 2.44-6.356 3.756-63.201 35.038-142.327 10.792-174.419-53.445-1.209-2.421-1.766-3.599-3.093-6.545-6.744-14.968-11.187-36.734-10.537-51.62.038-.853.103-2.584.145-3.846 1.462-43.451 26.803-84.247 65.512-105.467 15.279-8.376 30.221-12.996 48.856-15.106 1.299-.147 2.574-.295 2.834-.327 1.235-.155 17.202.039 19.906.242m-16.767 19.248c-63.129 3.886-109.149 60.653-99.552 122.8 6.059 39.237 33.534 72.157 70.792 84.822 11.896 4.043 21.552 5.623 34.528 5.65 54.246.113 99.442-39.826 106.198-93.846.665-5.317.758-19.249.161-24.117-3.411-27.812-15.347-50.627-36.319-69.422-15.342-13.751-36.112-22.763-58.569-25.412-3.38-.399-13.81-.686-17.239-.475m12.043 35.625c33.066 2.419 60.925 29.396 64.777 62.724 5.999 51.896-44.239 92.564-93.657 75.818-11.263-3.817-19.224-8.858-28.266-17.899-18.193-18.193-24.935-46.343-16.993-70.953 9.073-28.109 32.974-47.112 62.736-49.881 1.076-.1 9.314.038 11.403.191" fill-rule="evenodd"/></svg>