<svg id="svg" xmlns="http://www.w3.org/2000/svg" xmlns:xlink="http://www.w3.org/1999/xlink" width="400" height="400" viewBox="0, 0, 400,400"><g id="svgg"><path id="path0" d="M226.291 1.140 C 222.791 1.873,222.135 2.777,216.638 14.440 C 214.619 18.725,210.951 26.542,210.559 27.395 C 210.372 27.804,209.948 28.715,209.616 29.420 C 209.285 30.125,208.799 31.188,208.537 31.781 C 208.275 32.375,207.765 33.490,207.404 34.259 C 207.043 35.029,206.748 35.674,206.748 35.695 C 206.748 35.715,206.231 36.806,205.601 38.120 C 204.970 39.434,204.453 40.528,204.453 40.551 C 204.453 40.575,204.009 41.526,203.465 42.665 C 202.922 43.805,202.026 45.699,201.475 46.875 C 200.923 48.051,200.381 49.061,200.270 49.120 C 200.068 49.226,199.203 49.292,191.296 49.802 C 185.047 50.204,181.496 50.589,176.316 51.426 C 172.091 52.108,170.402 52.355,169.937 52.359 C 169.513 52.362,169.354 52.172,165.899 47.537 C 145.516 20.196,139.811 12.625,139.207 12.119 C 137.754 10.900,134.347 10.304,131.777 10.820 C 130.732 11.030,125.557 13.677,112.821 20.514 C 110.854 21.570,108.607 22.770,107.827 23.181 C 107.048 23.592,105.499 24.427,104.386 25.038 C 103.273 25.648,101.876 26.407,101.282 26.724 C 100.688 27.042,99.565 27.649,98.785 28.073 C 98.006 28.498,96.943 29.074,96.424 29.354 C 94.347 30.470,93.654 30.848,91.968 31.781 C 91.001 32.316,89.726 33.015,89.134 33.333 C 88.541 33.652,86.812 34.612,85.290 35.466 C 83.769 36.320,82.372 37.098,82.186 37.195 C 77.923 39.411,75.890 43.325,77.003 47.172 C 77.917 50.330,82.073 62.090,86.801 74.899 C 87.171 75.901,87.889 77.874,88.397 79.285 C 88.905 80.695,89.661 82.790,90.078 83.941 C 91.641 88.257,92.861 91.747,93.108 92.611 L 93.363 93.503 93.063 93.910 C 92.786 94.285,91.864 95.325,89.811 97.578 C 84.735 103.148,80.916 107.896,76.790 113.765 C 74.565 116.930,74.193 117.409,73.959 117.409 C 73.845 117.409,65.280 116.193,54.926 114.708 C 44.572 113.222,35.401 111.914,34.548 111.802 C 33.694 111.689,32.085 111.477,30.972 111.330 C 22.729 110.240,22.049 110.340,19.366 113.023 C 17.427 114.961,17.031 115.995,12.621 130.634 C 12.274 131.785,11.846 133.182,11.670 133.738 C 11.245 135.081,7.458 147.693,6.097 152.294 C 5.505 154.298,4.106 158.974,2.989 162.686 L 0.959 169.433 1.027 171.727 C 1.196 177.425,1.582 177.831,11.134 182.346 C 12.024 182.767,13.512 183.474,14.440 183.917 C 16.619 184.958,23.753 188.332,24.629 188.737 C 25.000 188.908,28.735 190.655,32.928 192.618 C 37.122 194.581,40.948 196.371,41.430 196.596 C 41.913 196.820,43.219 197.439,44.332 197.970 C 45.445 198.501,47.004 199.245,47.796 199.622 L 49.236 200.308 49.316 201.065 C 49.360 201.481,49.487 203.522,49.598 205.601 C 50.094 214.861,50.555 219.303,51.761 226.407 C 52.015 227.905,52.259 229.544,52.304 230.051 L 52.384 230.972 51.327 231.771 C 48.084 234.222,32.410 245.982,29.014 248.510 C 11.985 261.191,12.166 261.044,11.322 262.812 C 10.537 264.457,10.407 267.927,11.062 269.771 C 11.529 271.084,14.566 276.910,20.241 287.382 C 20.925 288.644,21.731 290.132,22.031 290.688 C 22.332 291.245,22.775 292.065,23.015 292.510 C 29.783 305.042,36.650 317.491,37.893 319.482 C 39.734 322.430,42.112 323.887,45.087 323.887 C 47.042 323.887,48.705 323.335,69.163 315.898 C 70.796 315.305,72.284 314.771,72.470 314.713 C 72.655 314.654,77.422 312.922,83.063 310.863 C 88.704 308.805,93.388 307.113,93.472 307.103 C 93.635 307.084,93.895 307.313,96.896 310.120 C 102.745 315.592,107.514 319.422,115.642 325.175 C 117.635 326.586,117.674 324.615,115.323 341.161 C 109.669 380.955,109.968 377.471,111.980 380.185 C 113.959 382.855,114.207 382.957,130.972 388.052 C 134.312 389.067,137.500 390.041,138.057 390.215 C 140.727 391.053,159.782 396.746,163.428 397.794 C 171.799 400.202,173.528 400.286,176.856 398.444 C 178.579 397.490,179.176 396.487,183.234 387.719 C 183.904 386.272,184.709 384.541,185.023 383.873 C 185.337 383.205,185.821 382.173,186.100 381.579 C 186.378 380.985,186.848 379.983,187.145 379.352 C 187.441 378.721,189.020 375.351,190.654 371.862 C 192.287 368.374,193.881 364.973,194.196 364.305 C 194.747 363.139,195.177 362.218,196.056 360.324 C 196.280 359.841,197.173 357.928,198.039 356.073 C 198.906 354.217,199.738 352.415,199.888 352.068 C 200.267 351.187,199.602 351.285,207.962 350.881 C 213.842 350.598,221.511 349.763,226.181 348.899 C 229.150 348.349,230.550 348.201,230.932 348.397 C 231.152 348.510,233.427 351.429,236.676 355.769 C 261.671 389.161,261.038 388.340,262.281 389.018 C 263.642 389.761,264.422 389.907,266.980 389.896 L 269.251 389.886 271.366 388.784 C 274.387 387.210,280.923 383.753,283.333 382.453 C 283.853 382.173,285.189 381.461,286.302 380.870 C 288.320 379.799,290.682 378.536,297.976 374.625 C 300.091 373.491,302.672 372.111,303.711 371.558 C 304.750 371.006,305.661 370.508,305.735 370.453 C 305.810 370.398,306.660 369.940,307.625 369.437 C 308.590 368.933,309.683 368.356,310.054 368.155 C 310.425 367.954,312.004 367.102,313.563 366.262 C 323.776 360.756,325.299 358.398,323.060 351.552 C 321.701 347.393,316.421 332.736,307.612 308.664 C 306.976 306.926,306.818 307.239,310.061 303.779 C 310.513 303.296,311.212 302.538,311.615 302.094 C 312.018 301.650,312.661 300.951,313.044 300.542 C 316.144 297.224,320.514 291.621,325.176 284.989 C 326.172 283.571,326.442 283.271,326.721 283.269 C 327.096 283.268,329.542 283.561,331.714 283.869 C 333.916 284.180,345.104 285.795,348.111 286.236 C 355.671 287.342,372.133 289.630,374.364 289.884 C 377.314 290.220,378.655 289.881,380.602 288.308 C 383.005 286.366,383.465 285.155,389.678 264.440 C 389.923 263.623,390.619 261.316,391.225 259.312 C 391.831 257.308,393.451 251.933,394.826 247.368 C 396.200 242.804,397.873 237.247,398.544 235.020 L 399.764 230.972 399.669 228.620 C 399.563 226.013,399.444 225.529,398.508 223.906 C 397.390 221.967,397.071 221.791,380.634 214.037 C 377.024 212.334,374.722 211.253,373.819 210.837 C 373.262 210.580,371.532 209.769,369.973 209.034 C 368.414 208.299,363.556 206.031,359.177 203.993 L 351.215 200.288 351.124 197.681 C 350.823 189.052,350.045 180.788,348.966 174.764 C 348.813 173.910,348.578 172.483,348.444 171.592 L 348.201 169.973 348.493 169.653 C 349.218 168.859,356.272 163.521,377.058 148.035 C 379.025 146.569,382.395 144.057,384.548 142.452 L 388.462 139.535 389.238 137.903 C 390.114 136.061,390.130 135.932,389.882 132.727 C 389.760 131.147,389.739 131.073,389.045 129.690 C 387.996 127.600,385.791 123.406,383.334 118.826 C 382.577 117.416,381.604 115.594,381.172 114.777 C 380.740 113.961,379.463 111.592,378.335 109.514 C 377.206 107.436,375.432 104.157,374.392 102.227 C 371.011 95.953,370.712 95.404,368.048 90.553 C 361.620 78.853,360.467 77.403,357.100 76.786 C 354.386 76.289,354.347 76.302,324.426 87.250 C 321.049 88.486,318.104 89.560,317.881 89.637 C 317.659 89.714,315.746 90.401,313.630 91.164 C 307.916 93.225,307.095 93.469,306.717 93.220 C 306.548 93.110,305.345 92.024,304.043 90.808 C 298.030 85.189,290.345 78.983,285.004 75.432 C 284.085 74.820,283.287 74.279,283.229 74.229 C 283.172 74.179,283.553 71.166,284.075 67.534 C 285.814 55.448,288.924 33.584,289.420 29.960 C 289.759 27.480,289.915 25.822,289.928 24.551 L 289.946 22.718 289.433 21.717 C 287.652 18.241,286.685 17.744,274.494 14.037 C 271.785 13.214,268.688 12.272,267.611 11.944 C 260.414 9.753,257.071 8.744,252.429 7.359 C 249.534 6.496,246.285 5.522,245.209 5.196 C 240.627 3.806,234.620 2.101,232.119 1.481 C 230.080 0.975,227.734 0.838,226.291 1.140 M211.134 74.416 C 233.798 76.120,259.166 85.883,276.721 99.659 C 292.963 112.406,304.685 126.632,313.474 144.265 C 335.451 188.351,329.657 241.192,298.629 279.653 C 295.576 283.438,294.432 284.682,289.353 289.744 C 282.202 296.869,275.349 302.409,268.286 306.774 C 265.082 308.754,264.304 309.214,261.930 310.530 C 198.729 345.568,119.603 321.322,87.511 257.085 C 86.302 254.664,85.745 253.486,84.418 250.540 C 77.674 235.572,73.231 213.806,73.881 198.920 C 73.919 198.067,73.984 196.336,74.026 195.074 C 75.488 151.623,100.829 110.827,139.538 89.607 C 154.817 81.231,169.759 76.611,188.394 74.501 C 189.693 74.354,190.968 74.206,191.228 74.174 C 192.463 74.019,208.430 74.213,211.134 74.416 M194.367 93.664 C 131.238 97.550,85.218 154.317,94.815 216.464 C 100.874 255.701,128.349 288.621,165.607 301.286 C 177.503 305.329,187.159 306.909,200.135 306.936 C 254.381 307.049,299.577 267.110,306.333 213.090 C 306.998 207.773,307.091 193.841,306.494 188.973 C 303.083 161.161,291.147 138.346,270.175 119.551 C 254.833 105.800,234.063 96.788,211.606 94.139 C 208.226 93.740,197.796 93.453,194.367 93.664 M206.410 129.289 C 239.476 131.708,267.335 158.685,271.187 192.013 C 277.186 243.909,226.948 284.577,177.530 267.831 C 166.267 264.014,158.306 258.973,149.264 249.932 C 131.071 231.739,124.329 203.589,132.271 178.979 C 141.344 150.870,165.245 131.867,195.007 129.098 C 196.083 128.998,204.321 129.136,206.410 129.289 " stroke="none" fill="#000000" fill-rule="evenodd"></path></g></svg>