<svg height="1500" viewBox="0 0 1500 1500" width="1500" xmlns="http://www.w3.org/2000/svg" xmlns:xlink="http://www.w3.org/1999/xlink"><clipPath id="a"><path d="m0 29h1499.83v1442.19h-1499.83z"/></clipPath><g clip-path="url(#a)"><path d="m1259.4 207.1c172.4 155.4 334.4 459.1 176.2 861.1-166.3 421.9-627.3 421.9-824.8 390.2-137-21.7-370.8-144-370.8-144l22.2-72.3-223-173.9 83.1-118.5-122.3-249.9 167.7-151.2-29.8-201.7 255.6-91.2 47.2-168.6 353.4 40.2 26.4-98.3 402.5 218.2s9-19.3 22.2-51.9l14.2 12.3m33 413.3 83.7-157.3c-25-27.5-51.7-53.5-79.9-77.7s-57.9-46.6-88.9-67.2c-31-20.5-63.2-39.1-96.5-55.6s-67.6-31-102.7-43.3l-4.8 27c6.6.9 12.6 3.9 17.3 8.5 4.6 4.7 7.7 10.7 8.6 17.2.9 6.6-.4 13.2-3.6 19-3.2 5.7-8.2 10.3-14.2 12.9l-19.4 8-13.2 72.8c3-.2 6.1.1 9.1.8 2.9.7 5.8 1.9 8.4 3.5s4.9 3.6 6.9 5.9 3.7 4.9 4.9 7.7c1.5 3.7 2.2 7.6 2.2 11.5s-.8 7.8-2.2 11.4c-1.5 3.6-3.7 7-6.5 9.8-2.7 2.8-6 5-9.6 6.5l-25 11.8-13.7 79.9c2.9-.1 5.8.3 8.7 1.1 2.8.8 5.5 2 7.9 3.6 2.5 1.6 4.7 3.6 6.6 5.8s3.5 4.7 4.6 7.4c1.6 3.7 2.4 7.6 2.5 11.6 0 4-.8 7.9-2.3 11.6-1.4 3.7-3.6 7-6.4 9.9-2.8 2.8-6.2 5.1-9.8 6.6l-23.2 9.9-5.2 28.4c-8.7-5.6-17.9-10.5-27.4-14.8-9.4-4.2-19.2-7.8-29.2-10.7-9.9-2.9-20.1-5-30.4-6.5-10.3-1.4-20.7-2.1-31.1-2q-8.8-.2-17.7.3-8.8.5-17.6 1.6-8.8 1.2-17.4 3.1-8.7 1.9-17.2 4.4l13.3-76.5q-2.5-1.1-4.7-2.7-2.2-1.5-4.1-3.5-1.9-1.9-3.4-4.2-1.4-2.2-2.5-4.7c-1.5-3.7-2.2-7.6-2.2-11.5s.7-7.8 2.2-11.4c1.5-3.7 3.7-7 6.4-9.8 2.8-2.8 6.1-5 9.7-6.5l8.5-3.8 13.7-79.4q-3.4-.9-6.4-2.5-3.1-1.7-5.8-3.9-2.6-2.3-4.7-5.1-2-2.8-3.4-6c-1.5-3.6-2.3-7.5-2.3-11.4s.8-7.8 2.3-11.4c1.5-3.7 3.6-7 6.4-9.8 2.7-2.8 6-5 9.6-6.6l15.1-6.6 23.2-134.1c-52.6 2.9-104.7 12.1-155.1 27.4s-98.8 36.6-144.1 63.5-87.2 59.1-124.8 96c-37.7 36.9-70.7 78.2-98.5 122.9q-8.1 13.6-15.2 27.7-7.1 14.2-13 28.8-6 14.7-10.7 29.7-4.8 15.1-8.3 30.5l399.6 55.8c-8.3 9.8-15.8 20.3-22.3 31.4s-12 22.7-16.5 34.8c-4.4 12-7.8 24.5-10.1 37.1-2.3 12.7-3.5 25.5-3.5 38.4q0 14.2 1.8 28.3 1.8 14.2 5.4 27.9 3.7 13.8 9.1 26.9 5.4 13.2 12.5 25.5l-405.3-47.2s-7.6 340.6 371.3 493.2c-1-3.5-1.4-7.1-1.1-10.7s1.2-7.1 2.8-10.3c1.5-3.3 3.7-6.2 6.3-8.7 2.6-2.4 5.7-4.4 9-5.8l13.7-5.6 14.6-86q-2.8-1.1-5.5-2.8-2.6-1.6-4.8-3.7-2.3-2.2-4.1-4.7-1.8-2.5-3-5.3c-1.5-3.7-2.3-7.6-2.3-11.5s.8-7.8 2.3-11.4c1.5-3.7 3.7-7 6.4-9.8 2.8-2.8 6-5 9.6-6.5l12.3-5.2 13.2-77.5c-6.5-.9-12.5-3.9-17.2-8.6-4.7-4.6-7.7-10.7-8.6-17.2s.4-13.2 3.6-18.9c3.2-5.8 8.2-10.3 14.2-12.9l18.9-8.1 9-51.5c9.6 7.6 19.8 14.4 30.5 20.3 10.8 5.8 22 10.8 33.5 14.8 11.6 4 23.5 7.1 35.5 9.1 12.1 2 24.3 3.1 36.5 3.1q6.3-.1 12.5-.5 6.3-.4 12.5-1.1 6.2-.7 12.4-1.7 6.1-1.1 12.2-2.4l-11.8 69c2.7.2 5.4.8 7.9 1.7s4.9 2.2 7.1 3.8c2.2 1.5 4.2 3.4 5.9 5.5s3.1 4.4 4.2 6.9c1.5 3.7 2.3 7.6 2.4 11.6 0 4-.8 7.9-2.2 11.6-1.5 3.7-3.7 7-6.5 9.9-2.8 2.8-6.1 5.1-9.8 6.6l-20.3 8.5-14.2 81.7c2.6.3 5.1.9 7.5 1.8s4.7 2.1 6.8 3.7c2 1.5 3.9 3.3 5.5 5.3 1.6 2.1 2.9 4.3 3.8 6.7 1.6 3.7 2.4 7.6 2.4 11.6.1 3.9-.7 7.9-2.2 11.6s-3.7 7-6.5 9.9c-2.7 2.8-6.1 5-9.7 6.6l-18.5 8-15.5 90.2q31.1-2 61.9-6.3 30.9-4.2 61.4-10.8 30.4-6.5 60.3-15.2 30-8.7 59.2-19.6l50-141.7 207.4-104.4-43.4-104-280.6-38.7c9.6-10.1 18.3-21.2 25.8-32.9 7.6-11.8 14-24.3 19.1-37.3 5.2-13 9.1-26.5 11.7-40.2s3.9-27.7 3.8-41.7q-.1-12.2-1.6-24.4-1.4-12.1-4.1-24-2.8-11.9-6.8-23.5-4-11.5-9.2-22.6l354.3 47.3z" fill-rule="evenodd"/></g></svg>