<svg height="600" viewBox="0 0 600 600" width="600" xmlns="http://www.w3.org/2000/svg">
    <g fill="currentColor">
        <path
            d="m594.7 45.1q-.2 8.5-.7 17.3v.1c-2.2 39.1-8.2 81.9-17.9 120.4-4.4 17.6-9.7 34.4-15.7 49.5-3.4-9.1-8.7-25.3-11.3-32.1 0 0 0 0 0-.1-.1-.5-.4-.9-.5-1.2-.1.7-.1 1.3-.2 2-.3 1.4-.4 2.9-.7 4.3-.3 1.6-.6 3.1-1 4.8-.1.9-.4 1.7-.6 2.4-.7 3.3-1.7 6.6-2.6 10.2-13.8 48.4-50.7 121.2-68.1 141.7-.1-.9-.3-2.1-.5-3.2-.1-.7-.2-1.4-.3-2.3q0-.2 0-.3c-1.3-8.2-3.4-19.5-6.4-26.4-.2-.6-.5-1.2-.8-1.7-.1-.4-.4-.6-.5-1-5.4 38.2-24.4 60.3-30.2 66.3-11.6 10.9-23.7 21.4-36.4 31.4q10.6 21.6 21.2 43.2c-21.4 8.4-40.9 19.9-57.7 33.8l-43.3-95.8-6-13.4c3.7-8.2 7.2-15.7 10-21.9 19.3-12 37.9-26.1 55.9-41.5 46.9-40.7 88.7-91.5 122.4-141.5 53.7-79.8 87-157.8 88.3-190.1v.1c1.7 8.4 2.8 17.8 3.2 27.3 0 .8.2 1.6.2 2.5 0 1.7.1 3.3.1 5 .2 3.5.2 6.9.1 10.2z" />
        <path
            d="m347.6 532.3c-12.1 15.6-24.3 31.3-36.6 46.9-3.7 4.8-7.4 9.5-11 14.2-1.7 2.3-3.5 4.4-5.2 6.6-1.4-7.1-3.5-14-5.9-20.9-7.2-20.1-18.4-38.6-33-54.9-20.2-23-47-41.4-77.7-53.6 0 0 0-.1.1-.2q10.6-21.4 21.2-43.2c-12.7-10-24.8-20.5-36.3-31.4-5.9-6-24.9-28-30.3-66.3-4.6 8.2-7.2 26.4-8.5 34.9-20.6-24.1-68.5-121.9-73.1-165.3-2.4 5.9-8.2 23.7-11.7 33.5-21.3-53.2-32.7-126.5-34.3-187.5-.3-15 .7-31.2 3.4-44.9v-.1c2.6 60.4 116.2 279.7 266.6 373.1 6.1 13.4 15 33.1 24.6 54.2 15.9 35.1 33.7 74.2 44 96.9 1.4 3 2.6 5.7 3.7 8z" />
    </g>
</svg>