<svg height="328" preserveAspectRatio="xMidYMid meet" viewBox="0 0 328 328" width="328"
    xmlns="http://www.w3.org/2000/svg">
    <g transform="matrix(.1 0 0 -.1 0 328)">
        <path
            d="m321 3264c-79-21-145-60-202-121-202-213-133-559 138-685 129-61 292-48 412 33 174 116 240 346 153 532-90 194-300 295-501 241zm264-118c76-35 154-122 170-188 10-40-8-34-32 10-45 79-132 135-230 149-49 7-60 17-43 38 18 22 78 18 135-9z" />
        <path
            d="m1092 2921c-29-43-63-104-77-136-31-69-65-190-65-229v-30l-30 29-31 30-27-35c-33-45-87-98-132-132l-34-27 22-24c12-13 22-26 22-29s-22-8-48-11c-100-12-250-76-360-154-87-62-72-71 69-40 63 14 143 28 179 32s74 8 85 11c17 4 16 2-5-13-122-88-197-163-162-163 4 0 53 15 108 34 104 35 333 91 341 82 3-2 7-23 10-45 7-50 22-64 82-71 45-5 46-6 57-50 12-50 37-70 92-70 29 0 32-3 32-28 0-35 23-57 69-67 27-6 205-174 933-884 495-482 910-881 922-888 78-45 168 45 123 123-7 12-406 427-888 922-709 727-878 906-884 933-10 46-32 69-67 69-25 0-28 3-28 33 0 54-20 79-70 91-44 11-45 12-50 57-7 60-21 75-71 82-22 3-43 8-46 11-9 9 46 241 83 346 18 55 34 102 34 105 0 29-69-40-137-138-24-33-43-54-43-46 1 37 32 231 50 306 24 100 23 93 7 93-7 0-36-36-65-79z" />
    </g>
</svg>