<svg xmlns="http://www.w3.org/2000/svg" width="746.667" height="746.667" viewBox="0 0 197.556 197.556">
    <path
        d="M98.778 194.733c-25.63 0-49.727-9.98-67.851-28.104S2.822 124.409 2.822 98.778c0-25.63 9.981-49.727 28.105-67.851s42.22-28.105 67.85-28.105c25.631 0 49.728 9.981 67.852 28.105 18.123 18.124 28.104 42.22 28.104 67.85 0 25.631-9.98 49.728-28.104 67.852-18.124 18.123-42.22 28.104-67.851 28.104"
        style="fill:#7da82a;fill-opacity:1;fill-rule:nonzero;stroke:none;stroke-width:.352778" />
    <path
        d="M0 0c-37.793 0-74.463-7.405-108.994-22.011-33.344-14.102-63.286-34.29-88.996-59.999s-45.896-55.652-60-88.997C-272.595-205.536-280-242.207-280-280s7.405-74.464 22.01-108.993c14.104-33.345 34.291-63.287 60-88.997 25.71-25.709 55.652-45.896 88.996-59.999C-74.463-552.595-37.793-560 0-560s74.464 7.405 108.993 22.011c33.345 14.103 63.287 34.29 88.997 59.999 25.709 25.71 45.897 55.652 59.999 88.997C272.595-354.464 280-317.793 280-280s-7.405 74.464-22.011 108.993c-14.102 33.345-34.29 63.287-59.999 88.997-25.71 25.709-55.652 45.897-88.997 59.999C74.464-7.405 37.793 0 0 0m0-16c145.803 0 264-118.196 264-264 0-145.803-118.197-264-264-264s-264 118.197-264 264C-264-134.196-145.803-16 0-16"
        style="fill:currentColor;fill-opacity:1;fill-rule:nonzero;stroke:none"
        transform="matrix(.35278 0 0 -.35278 98.778 0)" />
    <path
        d="M0 0c-.423-4-4.892-6.179-8.264-3.987-24.283 15.779-85.571 80.677-11.571 162.809 73.487 81.563 169.567 37.861 265.702 95.873 2.907 1.755 6.665.165 7.401-3.15 13.134-59.172 20.961-187.976-39.103-247.223-73.5-72.5-133.5-40.5-166-29-1.5-18 4.501-41.921 9.501-58.421s-27.001-21.079-31.001-18.079-18.611 83.753 18.5 133c47.5 63.032 163 118 166.5 162.5-22.5-20-51.809-46.518-129-89.5C14.221 66.711 2.036 19.224 0 0"
        style="fill:#fff;fill-opacity:1;fill-rule:nonzero;stroke:none"
        transform="matrix(.35278 0 0 -.35278 60.624 132.24)" />
</svg>