<svg viewBox="0 0 44.21 22.48" xmlns="http://www.w3.org/2000/svg"><path d="m40.9 3.28a11.17 11.17 0 0 0 -7.9-3.28h-21.66a11.63 11.63 0 0 0 -4.65 1 11.31 11.31 0 0 0 -3.69 2.57 11.26 11.26 0 0 0 8.25 18.91h21.63a11.2 11.2 0 0 0 4.42-.9 11.59 11.59 0 0 0 3.62-2.45 11.2 11.2 0 0 0 0-15.83" fill="#fff"/><path d="m24.91 21.8h8a10.56 10.56 0 0 0 .09-21.12h-7.16a.8.8 0 0 0 -.78.62l-3.66 16.1a3.6 3.6 0 0 0 3.51 4.4" fill="#eeac1f"/><path d="m41.13 11.06-3.73-1.87 1.31-4a.23.23 0 0 0 -.15-.3.19.19 0 0 0 -.15 0l-4 1.31-1.83-3.68a.24.24 0 0 0 -.32-.11.2.2 0 0 0 -.11.11l-1.87 3.72-4-1.31a.24.24 0 0 0 -.3.15.19.19 0 0 0 0 .15l1.31 4-3.72 1.87a.24.24 0 0 0 -.11.32.2.2 0 0 0 .11.11l3.72 1.87-1.31 4a.24.24 0 0 0 .15.3.19.19 0 0 0 .15 0l4-1.31 1.87 3.61a.23.23 0 0 0 .32.1.22.22 0 0 0 .11-.1l1.87-3.73 4 1.31h.07a.22.22 0 0 0 .24-.23.19.19 0 0 0 0-.08l-1.31-4 3.73-1.87a.24.24 0 0 0 .1-.32.27.27 0 0 0 -.1-.11m-3.6-4.95-.76 2.88-1-.51.4-.94-.93.4-.52-1zm-4.11 2.6-.54-1.33 1.22-.29.63 1.08zm-2.21 0-1.26-.56.59-1.06 1.21.31zm-1.55 1.56-1.33.53-.31-1.21 1.07-.64zm0 2.2-.57 1.31-1.07-.63.31-1.21zm1.55 1.55.54 1.33-1.21.31-.59-1.07zm2.21 0 1.31.57-.63 1.07-1.22-.31zm1.53-1.55 1.33-.53.31 1.21-1.07.63zm0-2.2.57-1.32 1.07.64-.31 1.21zm-2.63-6.18 1.46 2.48-1.09.36-.37-.94-.37.91-1.1-.36zm-5.17 2.11 2.8.72-.52 1-.93-.4.4.93-1 .52zm-2.14 5.17 2.48-1.47.36 1.09-.94.38.94.37-.36 1.09zm2.14 5.16.72-2.79 1 .52-.4.93.93-.4.52 1zm5.17 2.14-1.47-2.48 1.1-.36.38.94.37-.94 1.09.36zm5.16-2.14-2.79-.71.52-1 .93.4-.4-.93 1-.52zm-.34-3.7-.36-1.09.94-.37-.94-.38.36-1.09 2.48 1.47z" fill="#fff"/><path d="m19.19.68h-7.85a10.56 10.56 0 0 0 -.1 21.12h7a.79.79 0 0 0 .78-.62l3.68-16.1a3.6 3.6 0 0 0 -3.51-4.4" fill="#e15426"/><path d="m15.08 8.44a6 6 0 0 1 -1.88-5.74 4.69 4.69 0 0 0 -3.34 3.58c-1.14 4.08 1.69 5.4 0 6.82-1.9 1.61-3.54-1-3.28-3.3-1.2.94-1.93 4.79-.38 7.12a6 6 0 0 0 4.38 2.86 1.52 1.52 0 0 1 -.42-1.8c.3-.86 1.29-1.24 2.22-2a3.92 3.92 0 0 0 1.54-2 4 4 0 0 1 .62 3.64 3.52 3.52 0 0 1 -1.37 2 6.11 6.11 0 0 0 4.83-5.8c0-3-1.51-4.27-2.88-5.38" fill="#fff"/></svg>