<svg viewBox="0 0 44.21 22.48" xmlns="http://www.w3.org/2000/svg"><path d="m40.9 3.28a11.17 11.17 0 0 0 -7.9-3.28h-21.66a11.63 11.63 0 0 0 -4.65 1 11.31 11.31 0 0 0 -3.69 2.57 11.26 11.26 0 0 0 8.25 18.91h21.63a11.2 11.2 0 0 0 4.42-.9 11.59 11.59 0 0 0 3.62-2.45 11.2 11.2 0 0 0 0-15.83" fill="#fff"/><path d="m24.91 21.8h8a10.56 10.56 0 0 0 .09-21.12h-7.16a.8.8 0 0 0 -.78.62l-3.66 16.1a3.6 3.6 0 0 0 3.51 4.4" fill="#eeac1f"/><path d="m41.13 11.06-3.73-1.87 1.31-4a.23.23 0 0 0 -.15-.3.19.19 0 0 0 -.15 0l-4 1.31-1.83-3.68a.24.24 0 0 0 -.32-.11.2.2 0 0 0 -.11.11l-1.87 3.72-4-1.31a.24.24 0 0 0 -.3.15.19.19 0 0 0 0 .15l1.31 4-3.72 1.87a.24.24 0 0 0 -.11.32.2.2 0 0 0 .11.11l3.72 1.87-1.31 4a.24.24 0 0 0 .15.3.19.19 0 0 0 .15 0l4-1.31 1.87 3.61a.23.23 0 0 0 .32.1.22.22 0 0 0 .11-.1l1.87-3.73 4 1.31h.07a.22.22 0 0 0 .24-.23.19.19 0 0 0 0-.08l-1.31-4 3.73-1.87a.24.24 0 0 0 .1-.32.27.27 0 0 0 -.1-.11m-3.6-4.95-.76 2.88-1-.51.4-.94-.93.4-.52-1zm-4.11 2.6-.54-1.33 1.22-.29.63 1.08zm-2.21 0-1.26-.56.59-1.06 1.21.31zm-1.55 1.56-1.33.53-.31-1.21 1.07-.64zm0 2.2-.57 1.31-1.07-.63.31-1.21zm1.55 1.55.54 1.33-1.21.31-.59-1.07zm2.21 0 1.31.57-.63 1.07-1.22-.31zm1.53-1.55 1.33-.53.31 1.21-1.07.63zm0-2.2.57-1.32 1.07.64-.31 1.21zm-2.63-6.18 1.46 2.48-1.09.36-.37-.94-.37.91-1.1-.36zm-5.17 2.11 2.8.72-.52 1-.93-.4.4.93-1 .52zm-2.14 5.17 2.48-1.47.36 1.09-.94.38.94.37-.36 1.09zm2.14 5.16.72-2.79 1 .52-.4.93.93-.4.52 1zm5.17 2.14-1.47-2.48 1.1-.36.38.94.37-.94 1.09.36zm5.16-2.14-2.79-.71.52-1 .93.4-.4-.93 1-.52zm-.34-3.7-.36-1.09.94-.37-.94-.38.36-1.09 2.48 1.47z" fill="#fff"/><path d="m19.19.68h-7.85a10.56 10.56 0 0 0 -.1 21.12h7a.79.79 0 0 0 .78-.62l3.68-16.1a3.6 3.6 0 0 0 -3.51-4.4" fill="#1ac2ec"/><path d="m19.09 13.06-1.52 1.12-1.18-.74 2-1.39a.29.29 0 0 0 .07-.39.28.28 0 0 0 -.39-.07l-2.18 1.53-1.89-1.12v-1.58l1.82-1.12 2.18 1.53a.28.28 0 0 0 .16.05.27.27 0 0 0 .23-.12.29.29 0 0 0 -.07-.39l-1.93-1.37 1.23-.74 1.47 1.15a.34.34 0 0 0 .17.05.28.28 0 0 0 .19-.35.24.24 0 0 0 -.06-.11l-1.3-1 1.17-.71a.28.28 0 0 0 .14-.37.26.26 0 0 0 -.4-.18.09.09 0 0 0 -.06 0l-1.2.66-.14-1.62a.29.29 0 0 0 -.31-.25.28.28 0 0 0 -.25.31l.21 1.88-1.25.68-.22-2.4a.29.29 0 0 0 -.28-.28.28.28 0 0 0 -.28.28l.24 2.65-1.89 1-1.37-.65v-2.2l2.42-1.13a.28.28 0 0 0 .18-.35.28.28 0 0 0 -.35-.18.15.15 0 0 0 -.07 0l-2.19 1v-1.44l1.65-.7a.28.28 0 0 0 .16-.41.29.29 0 0 0 -.37-.15l-1.51.67v-1.37a.29.29 0 0 0 -.28-.28.26.26 0 0 0 -.28.26v1.39l-1.56-.67a.29.29 0 0 0 -.38.14.29.29 0 0 0 .17.42l1.73.76v1.39l-2.19-1a.27.27 0 0 0 -.33.12.27.27 0 0 0 .14.37l2.29 1.11v2.25l-1.43.75-1.88-1 .27-2.75a.29.29 0 0 0 -.28-.28.28.28 0 0 0 -.28.28l-.21 2.4-1.25-.66.2-1.88a.27.27 0 0 0 -.23-.31.27.27 0 0 0 -.34.23l-.16 1.67-1.25-.71a.28.28 0 0 0 -.37.15.27.27 0 0 0 .09.33l1.18.78-1.34 1a.28.28 0 0 0 -.06.4.27.27 0 0 0 .22.11.34.34 0 0 0 .17-.05l1.52-1.16 1.23.7-2 1.38a.28.28 0 0 0 -.07.39.26.26 0 0 0 .23.12.33.33 0 0 0 .16 0l2.18-1.62 1.83 1.11v1.62l-1.84 1.08-2.17-1.53a.28.28 0 1 0 -.32.46l2 1.38-1.23.75-1.52-1.08a.28.28 0 0 0 -.39.06.28.28 0 0 0 .06.39l1.33 1-1.17.71a.28.28 0 0 0 -.1.39.27.27 0 0 0 .24.14h.14l1.21-.66.2 1.65a.27.27 0 0 0 .27.25.29.29 0 0 0 .24-.31l-.2-1.88 1.25-.69.21 2.41a.27.27 0 0 0 .28.25h-.05a.28.28 0 0 0 .26-.3l-.23-2.66 1.87-1 1.38.79.08 2.06-2.36 1.13a.27.27 0 0 0 -.14.37.29.29 0 0 0 .26.16h.11l2.19-1v1.42l-1.73.76a.29.29 0 0 0 -.14.37.26.26 0 0 0 .26.17h.09l1.52-.67v1.37a.27.27 0 0 0 .26.28.29.29 0 0 0 .28-.28v-1.37l1.51.67h.12a.27.27 0 0 0 .25-.17.28.28 0 0 0 -.14-.37l-1.7-.76v-1.43l2.19 1a.24.24 0 0 0 .12 0 .28.28 0 0 0 .25-.16.28.28 0 0 0 -.12-.36l-2.27-1.12v-2.14l1.37-.79 1.89 1-.24 2.65a.28.28 0 0 0 .26.3.27.27 0 0 0 .28-.25l.27-2.44 1.26.69-.26 1.9a.28.28 0 0 0 .24.31.29.29 0 0 0 .28-.25l.21-1.65 1.2.66h.14a.27.27 0 0 0 .24-.14.3.3 0 0 0 -.1-.39l-1.21-.71 1.33-1a.28.28 0 0 0 .07-.38.28.28 0 0 0 -.4-.04m-7.25 0-1.51-.88v-1.78l1.51-.87 1.51.87v1.74z" fill="#fff"/></svg>