<svg xmlns="http://www.w3.org/2000/svg" width="577" height="194" viewBox="0 0 577 194">
    <path
        d="M86.5.7C84.8.9 80.1 1.8 76 2.6c-4.1.9-10.8 2.9-14.8 4.5-3.9 1.6-10.4 4.8-14.3 7.2-3.8 2.3-10.5 7.1-14.7 10.7s-10 9.7-12.9 13.5c-2.9 3.9-7 10.6-9.1 15-2.2 4.4-4.9 11.2-6 15C3 72.3 1.6 78.9.9 83 .2 87.3 0 95.6.3 102.5c.4 8.9 1.2 14.3 3.1 20.8 1.4 4.8 4.2 12 6.2 15.9 2 4 5 9.3 6.7 11.8s5.1 6.9 7.6 9.9c2.5 2.9 7.7 7.9 11.6 11s9.9 7.3 13.5 9.3c3.6 2.1 10.1 5 14.5 6.7 4.4 1.6 12.5 3.6 18 4.5 9.1 1.5 28.3 1.7 211.5 1.4l201.5-.3c14.7-4.1 22.4-6.9 26.5-8.8 4.1-2 10.4-5.6 14-8.1s9.6-7.6 13.3-11.3c3.8-3.8 9.3-10.4 12.2-14.8 3-4.4 6.8-11.4 8.5-15.5 1.8-4.1 4.2-10.9 5.3-15 1.6-5.9 2-10.7 2.1-22.5 0-12.4-.4-16.5-2.2-24-1.3-5-4-12.6-6.1-17-2-4.4-5.5-10.7-7.7-14-2.1-3.3-7-9.3-10.9-13.5-3.8-4.1-7.3-7.4-7.7-7.3-.5.2-.8-.1-.8-.7s-.5-1-1-1-3.1-1.5-5.7-3.4c-2.7-1.9-8.6-5.3-13.3-7.5s-12.1-5-16.5-6.3l-8-2.3C181.1.3 88.1.5 86.5.7"
        style="fill:currentColor" />
    <path
        d="M87 7.1c-3.6.6-10.5 2.4-15.5 4-5 1.7-11.9 4.6-15.5 6.6s-9 5.5-12 7.8c-3 2.4-8 6.9-11.1 10.1-3 3.3-6.9 7.9-8.6 10.4s-4.9 8.3-7.2 13c-2.2 4.7-5 12.1-6.1 16.5s-2.3 12-2.6 17c-.4 5.3-.1 12.3.6 17 .6 4.4 2.5 12 4.1 17 1.7 4.9 4.6 11.9 6.6 15.5s5.5 9 7.9 12c2.3 3 6.6 7.8 9.6 10.6 2.9 2.9 8 7 11.3 9.2s9.4 5.6 13.5 7.6c4.1 1.9 10.2 4.2 13.5 5.1 3.3.8 9.2 1.9 13 2.5 3.8.5 22 1 40.3 1 33 0 33.2 0 35.7-2.2 2.2-2.1 4.2-9.7 18.7-72.8 12.2-53.4 16.2-72.2 16.2-77.5.1-6-.4-8.1-3.1-13.8-2.2-4.4-4.8-7.9-7.5-10.1-2.4-1.9-6.1-4.3-8.3-5.3-3.6-1.6-7.7-1.8-45.5-2-22.8 0-44.4.3-48 .8"
        style="fill:#e15425" />
    <path
        d="M412 8.8c-1.8 1.5-4.5 11.9-18.6 73.7-14.5 63.5-16.4 72.7-15.9 78 .3 3.3 1.6 8.2 2.9 11 1.4 2.8 4.7 7.1 7.8 9.8 2.9 2.6 7.3 5.5 9.8 6.3 3.8 1.2 11.8 1.4 50 1.1 43.9-.3 45.8-.4 53-2.6 4.1-1.2 10.6-3.7 14.5-5.5s9.3-4.7 12-6.6c2.8-1.8 7.4-5.4 10.4-7.9s8.1-8 11.4-12.1 7.9-11.6 10.3-16.5 5.1-11.7 5.9-15 2-10.3 2.7-15.5c.8-7.1.8-11.8 0-18.5-.6-5-2.1-12.2-3.3-16-1.1-3.8-3.8-10.6-6-15-2.1-4.4-6.9-11.8-10.6-16.5-3.7-4.6-9.5-10.6-12.8-13.3s-8.5-6.3-11.5-8.1-8.9-4.6-13-6.3-11.3-3.9-16-4.7C488.2 7.3 479.3 7 450.4 7c-32.9 0-36.4.2-38.4 1.7z"
        style="fill:#89a43d" />
    <path
        d="M219.5 8.2c-2.4 2.1-3.8 7.6-18.7 72.3-12.2 53.6-16 71.8-16.1 77.5-.2 6.6.2 8.4 3.1 14.3 1.9 4.1 4.7 7.9 7 9.7 2 1.7 5.7 4 8.2 5.3l4.5 2.2c136.7.5 146.9.3 149.5-1 1.6-.8 3.2-2.3 3.5-3.2.2-1 7.7-33.5 16.5-72.3 14.5-63.3 16.1-71.2 15.7-77.5-.2-4.5-1.2-8.5-2.5-11.3-1.2-2.3-3.9-6-5.9-8.3-2.1-2.2-6.3-5.3-9.3-6.7l-5.5-2.7L222.2 6z"
        style="fill:#1fc2ea" />
    <path
        d="M287.5 21.7c-.5.3-.8 3.5-.7 7l.2 6.3c-11.3-4.8-14.6-5.7-15.6-5.2-.8.4-1.4 1.4-1.2 2.2s1.9 2.3 3.8 3.2c1.9 1 5.6 2.7 8.3 3.8l4.7 2c0 11.8-.1 12-2.3 11.1-1.2-.5-5.7-2.5-10-4.5-4.8-2.3-8.3-3.3-9.3-2.8-.8.4-1.4 1.4-1.2 2.2s5.1 4 11.1 7l10.8 5.5-.6 18.9L274 85c-14.5-7.6-16.5-9.1-16.3-10.6.1-1 .5-7 1-13.3l.8-11.3c-4.9.7-5 1.1-6.2 11.7-.6 6.1-1.2 11.1-1.2 11.3-.1.1-2.4-1-5.1-2.5l-5.1-2.8c.6-18.4.5-19-1.4-19-1.8 0-2.1 1-3 8.1l-1 8c-8.9-5.1-12.2-6.4-13-6.1s-1.5 1.2-1.5 2 1.8 2.7 3.9 4.3c2.1 1.5 4.7 3.2 5.6 3.7 1.6.9 1 1.6-4.3 5.5-3.4 2.5-6.2 5.3-6.2 6.3 0 .9.6 2 1.2 2.3.7.4 4.6-1.7 8.5-4.5L238 73l10.8 5.5c-14.8 10.1-18.3 13.2-18.3 14.2s.7 1.9 1.5 2.1c.8.1 6-2.8 11.5-6.6l10-6.9 16.6 10.2-.1 13c-12 7.4-15.8 9.5-16.3 9.5-.4 0-5-2.9-10.2-6.5s-10.2-6.5-11-6.5-1.7.5-2 1c-.3.6-.3 1.6 0 2.3.3.6 4.4 3.9 9.1 7.2 6.7 4.7 8.3 6.2 7.2 7.1-.7.6-2.9 2.1-4.8 3.2l-3.5 2.2c-11.2-7.8-15.2-9.8-16-9.5s-1.5 1.3-1.5 2.3c0 .9 2.5 3.5 5.6 5.7s5.8 4.3 6 4.8c.2.4-2.1 2-5.1 3.7-3.8 2.1-5.5 3.6-5.5 5 0 1.1.6 2.2 1.2 2.4.7.2 3.9-1 7-2.5l5.8-2.9c.7 3.5 1.1 7.1 1.4 10.3.6 5.2.8 5.7 2.8 5.4 1.3-.1 2.3-.8 2.2-1.7-.1-.8-.4-5-.8-9.2l-.6-7.8 10.5-6c1.3 14.3 1.8 19.5 2.1 20.8.3 1.5 1.1 2.2 2.6 2.2h2.3l-1.7-25.5 15.7-8.8 12.3 6.8c.8 13.2.9 17.3.6 17.8-.2.4-5.4 3.1-11.5 6-7.6 3.6-10.9 5.7-10.7 6.7.2.8 1.1 1.6 2.1 1.8.9.1 5.8-1.6 10.7-3.8s9.2-4 9.5-4 .4 2.7.2 6.1l-.2 6.1c-12.8 5.7-16.6 7.7-16.6 8.3s.6 1.6 1.3 2.3c1 1 2.6.6 8-1.8 3.8-1.6 7-3 7.3-3s.6 3 .8 6.8c.2 6.1.4 6.7 2.4 7 2.2.2 2.3-.1 2.3-6.8 0-3.8.1-7 .3-7 .1 0 3.2 1.3 7 3 4.1 1.8 7.3 2.7 8.3 2.3.8-.5 1.4-1.6 1.2-2.6-.2-1.3-3.1-3.1-8.6-5.5l-8.3-3.7c.1-8.9.3-11.5.6-11.5s4.4 1.8 9.3 4c4.8 2.2 9.7 4 10.9 4 1.6 0 2.3-.6 2.3-2 0-1.5-2.4-3.2-10.5-7.2l-10.6-5.3.6-18.9L305 112c10.5 5.3 14.2 7.4 15.1 8.2 1.5 1.2 1.6 2.5.5 13-.8 9.1-.8 12 .1 13 1 1.1 1.5 1 2.8-.2 1-1 1.7-4.5 2.1-11 .4-5.2.8-9.8 1-10.2.2-.5 2.6.3 5.4 1.7l5 2.5c-1 13.6-1 18.1-.6 18.8.4.8 1.2.9 2.6.2 1.3-.6 2-2 2-3.8 0-1.5.3-4.8.7-7.3l.8-4.7c7.7 4.5 10.8 5.6 11.7 5.3 1-.3 1.8-1.4 1.8-2.5 0-1.4-1.8-3.1-5.4-5.3l-5.4-3.2c10.6-7.9 12.6-10 12.3-11-.3-.8-.5-1.7-.5-2s-.7-.5-1.5-.5-1.5.3-1.5.8c0 .4-2.9 2.8-6.5 5.5L341 124c-7.2-4.3-9.4-5.8-9.4-6.2-.1-.4 3.7-3.3 8.4-6.6 4.7-3.2 8.6-6.6 8.8-7.5.1-.9-.5-1.9-1.3-2.2s-5.7 2.3-10.8 5.8c-5 3.5-9.6 6.6-10.2 6.9s-4.6-1.5-9-4.1l-8-4.8-.6-13.8c11.7-7.4 15.4-9.5 15.8-9.5.5 0 5.1 2.9 10.3 6.5s10.3 6.5 11.2 6.5c1.1 0 1.8-.8 1.8-2 0-1.4-2.8-4-8.5-8.3-4.6-3.4-8.3-6.4-8.1-6.7s2.4-1.7 5-3.2L341 72c9.7 7.7 13.3 9.9 14.2 10 1 0 1.8-.8 1.8-1.7.1-1-2.4-3.8-5.5-6.3s-5.6-4.6-5.5-4.8c0-.1 2.5-1.7 5.5-3.4 3.4-2 5.5-4 5.5-5s-.4-2-1-2.3-3.5.9-6.5 2.5-5.8 3-6.3 3c-.4 0-1.1-3.2-1.5-7.2s-1.2-7.8-1.7-8.3-1.6-.7-2.5-.2c-1.2.6-1.4 2-.9 8.5.4 4.2.7 8.4.8 9.2s-2.3 2.7-5.2 4.2L327 73c-.7-3.5-1.2-8.3-1.5-13s-.9-9.1-1.3-9.8c-.4-.8-1.4-1-2.6-.5-1.7.7-1.8 1.6-1.1 10.3.4 5.2.8 10.8.9 12.4.1 2.7-.6 3.3-7.9 7.2l-8 4.2L293 78V59c18.6-8.9 23-11.6 23-12.5 0-.8-.6-1.7-1.3-2-.6-.3-3.2.3-5.7 1.4-2.5 1-7.1 3.1-10.3 4.5L293 53V40.5c13.7-6 16-7.5 16-8.8 0-.9-.4-1.9-1-2.2s-4.1.9-8 2.5c-3.9 1.7-7.2 3-7.5 3s-.5-3.1-.5-7c0-6.1-.2-7-1.8-7-1 0-2.2.3-2.7.7M114 24.6c-1.9.8-5.5 3.2-7.9 5.2-2.5 2-6.2 6.4-8.3 9.7-2.2 3.3-5 9.4-6.2 13.5-1.3 4.1-2.7 10.4-3.1 14-.4 3.8-.2 9.2.5 13 .6 3.6 2.3 10.1 3.7 14.5s2.6 9.4 2.7 11.2-.8 4.4-2 6c-1.1 1.5-3.8 3.8-6 5-2.3 1.3-5.6 2.3-7.9 2.3-3.5 0-4.6-.7-8.7-5-3.7-3.9-5.3-6.5-6.8-11.7-1.1-3.8-2-9-2.1-11.8v-5c-3.5 3.9-5.5 7.7-6.8 11-1.2 3.3-2.7 8.3-3.2 11-.5 2.8-.9 8.6-.9 13s.7 10.7 1.5 14c.9 3.3 2.8 8.5 4.3 11.5 1.5 3.1 5.7 8.5 9.7 12.5 4.4 4.4 9.2 8.1 13 9.9 3.3 1.6 8.3 3.5 11 4.2 2.8.8 5.3 1.4 5.8 1.4.4 0-.3-1.7-1.5-3.7-1.3-2.3-2.1-5.3-2-7.5.1-2.1 1-5.2 2-6.9.9-1.7 6.2-6.4 11.7-10.4s11.2-8.6 12.7-10.2c1.4-1.5 3.7-5 5.1-7.8l2.4-5c4.1 8.5 5.7 13.5 6.3 16.5.7 3.9.7 7.3-.1 11.5-.6 3.3-2 7.8-3.1 10s-3.7 5.7-5.7 7.9l-3.6 3.9c5.4-1.1 9.4-2.6 12.3-4.1s7.1-4.2 9.5-6.1c2.3-1.9 5.9-5.5 8-8s5.2-7.5 6.9-11.1 3.7-9.9 4.4-14c.9-5.4 1-9.8.3-15.7-.5-4.6-1.7-10.2-2.6-12.5-.9-2.4-3.1-6.5-4.8-9.3-1.7-2.7-7.5-9-12.9-14-5.3-5-11.4-11.5-13.4-14.5s-4.7-8.6-6.1-12.5c-2-5.6-2.4-9-2.5-17.3 0-6.4-.4-10.2-1.1-10.2-.5.1-2.6.8-4.5 1.6m406 19.9c-3.6 1.9-9.9 4.3-14 5.4s-14.9 3.2-24 4.6-19 3.2-22 4.1-8.2 3-11.5 4.6c-3.4 1.8-9.1 6.1-13.3 10.2-5.2 5.1-8.3 9.2-11 14.5-3.4 6.8-3.7 8.1-3.7 16 0 6.8.5 9.6 2.3 13.4 1.2 2.6 4.6 7.2 7.5 10.3 3.4 3.6 5.9 5.4 7.1 5.2 1.4-.2 2.3-1.8 3.3-5.8.8-3 2.6-7.5 4-10 1.5-2.5 5.4-7.2 8.8-10.5 4-4 11-8.9 20.5-14.5 8-4.7 18.8-11.7 24-15.7 5.2-3.9 11-8.3 12.8-9.7 2.4-1.9 3.2-2.2 3.2-1.1 0 .8-1.7 3.6-3.8 6.3-2.1 2.6-8.9 8.7-15.2 13.7-6.2 5-14.7 11.7-18.9 15s-10.4 8.8-13.8 12.3c-4 3.9-7.4 8.5-9.3 12.5-1.6 3.4-3.7 9.1-4.6 12.7-1.2 4.8-1.5 9.1-1.1 16.5.2 5.5.7 10.8 1.1 11.8.3.9 1.4 1.7 2.4 1.7.9 0 3.2-.4 5-1 2-.6 3.4-1.8 3.8-3.2.3-1.3-.1-5.6-1-9.5-.9-4-1.6-8.6-1.6-10.3s.2-3 .5-3 4 1.2 8.3 2.6c5.3 1.8 9.9 2.6 14.7 2.6 3.9 0 9-.5 11.5-1.2 2.5-.6 7-2.6 10-4.3 3-1.8 7.7-5.3 10.5-7.8 2.7-2.5 6.4-6.8 8.2-9.5s4.3-7.8 5.7-11.4c1.3-3.6 3.1-10.3 4-15 1.1-5.4 1.7-13.9 1.7-23 0-8-.5-17.6-1.1-21.5-.5-3.8-1.2-8-1.5-9.2-.3-1.3-1.1-2.3-1.7-2.2-.7 0-4.2 1.6-7.8 3.4"
        style="fill:#fff" />
    <path d="m282.3 86.8-6.3 3.7v15l13.5 7.9 13-7.2.5-15.2c-10.5-6.2-13.7-7.9-14-7.9-.3.1-3.3 1.7-6.7 3.7"
        style="fill:#1fc2ea" />
</svg>