<svg viewBox="0 0 44.21 22.48" xmlns="http://www.w3.org/2000/svg"><path d="m40.9 3.28a11.17 11.17 0 0 0 -7.9-3.28h-21.66a11.63 11.63 0 0 0 -4.65 1 11.31 11.31 0 0 0 -3.69 2.57 11.26 11.26 0 0 0 8.25 18.91h21.63a11.2 11.2 0 0 0 4.42-.9 11.59 11.59 0 0 0 3.62-2.45 11.2 11.2 0 0 0 0-15.83" fill="#fff"/><path d="m24.91 21.8h8a10.56 10.56 0 0 0 .09-21.12h-7.16a.8.8 0 0 0 -.78.62l-3.66 16.1a3.6 3.6 0 0 0 3.51 4.4" fill="#1f2c35"/><path d="m34.2 5a6.29 6.29 0 0 0 -1.83.27 6.07 6.07 0 0 0 -1.84-.27 6.31 6.31 0 0 0 0 12.62 6.4 6.4 0 0 0 1.84-.27 6.31 6.31 0 1 0 1.83-12.35m-1.83 11.81a5.54 5.54 0 0 1 -.8.21 6 6 0 0 1 -1 .09 5.83 5.83 0 0 1 0-11.66 6 6 0 0 1 1 .09 5.73 5.73 0 0 1 1.5.49 5.83 5.83 0 0 1 -.7 10.78m1.83.3a6 6 0 0 1 -1-.09c.24-.12.47-.24.7-.38l.21-.14a5.3 5.3 0 0 0 5.28-5.22 5.3 5.3 0 0 0 -5.28-5.23l-.21-.14a6.7 6.7 0 0 0 -.7-.37 6 6 0 0 1 1-.1 5.84 5.84 0 0 1 0 11.67" fill="#fff"/><path d="m19.19.68h-7.85a10.56 10.56 0 0 0 -.1 21.12h7a.79.79 0 0 0 .78-.62l3.68-16.1a3.6 3.6 0 0 0 -3.51-4.4" fill="#e15426"/><path d="m15.08 8.44a6 6 0 0 1 -1.88-5.74 4.69 4.69 0 0 0 -3.34 3.58c-1.14 4.08 1.69 5.4 0 6.82-1.9 1.61-3.54-1-3.28-3.3-1.2.94-1.93 4.79-.38 7.12a6 6 0 0 0 4.38 2.86 1.52 1.52 0 0 1 -.42-1.8c.3-.86 1.29-1.24 2.22-2a3.92 3.92 0 0 0 1.54-2 4 4 0 0 1 .62 3.64 3.52 3.52 0 0 1 -1.37 2 6.11 6.11 0 0 0 4.83-5.8c0-3-1.51-4.27-2.88-5.38" fill="#fff"/></svg>