<svg xmlns="http://www.w3.org/2000/svg" width="2222.667" height="2222.667" viewBox="0 0 1667 1667"><path d="M535.2 161.5c-44.3 15.1-181 109-363.2 249.4-26.6 20.5-31.5 24.6-31.2 26.6.5 4.5 12.2 38.5 19.2 56.1 39.7 98.7 111.7 195.5 194.3 260.8l9.7 7.7v643.7l4.8 4c11.6 9.7 41.2 26.3 64.2 36 75.8 31.9 177.1 51.9 299.5 59.2 69.4 4.1 154.2 3.5 224-1.6 128.2-9.2 234.1-33.9 305.4-71 12.9-6.7 29.5-17.2 36.9-23.2l4.2-3.4V761.5l9.3-7.1c13.6-10.5 33.3-28 49.7-44.4 68.4-68.2 121.4-150.6 152.3-236.7 8-22.3 12.1-35.7 11.4-37.5-.9-2.5-107.6-83.7-165.7-126.3-83.1-60.8-148-105-187.9-127.9-41.9-24.1-54.9-27.1-74.6-17-9 4.6-13.2 7.7-35.5 26.3-29.9 24.9-46.6 36.6-67.9 47.5-45.8 23.4-95.4 33.9-160.6 33.9-66.3.1-114.3-10.2-161.7-34.5-22-11.3-35.8-20.9-66-46-21.1-17.6-28.5-23.1-35.8-26.8-12.9-6.5-22.9-7.5-34.8-3.5M768 504.2c6.4 3.3 9.7 8 12 17.3 2.8 11.7 4 27.8 4 56.5 0 70.3-9.9 128.6-28 165.5-9.8 19.9-17.9 28.9-35 39-31.2 18.3-89.8 33.5-159 41.2-22.2 2.4-69.7 2.5-79.3 0-10.5-2.6-16.3-5.5-20.6-10.2-9-9.7-7.8-22 3-30.5 10.2-8 44.5-23.5 104.9-47.3 16.2-6.4 44.1-17.4 62-24.4l32.4-12.8 7.3-19c45.3-117.8 63.8-159.8 75.1-170.8 4-3.9 9.7-6.6 14.2-6.7 1.4 0 4.6 1 7 2.2m153.6 1.3c10.2 6 22.2 30.3 52.9 107.5 9.5 23.9 20.8 52.9 25.1 64.3 7.6 20.1 8 20.9 11.4 22.4 1.9.8 27.4 10.9 56.5 22.3 97 38.1 129.5 52.4 140.4 61.7 9.3 7.9 10.6 19.4 3.3 29.1-3.9 5.1-14.9 9.9-26.7 11.7-11.8 1.7-39.1 2-58.6.5-75.8-5.9-149.5-24.9-181.9-47-24.5-16.7-40.4-52.6-49.5-111.8-3.8-24.9-5.6-46.5-6.2-77.2-.8-39.5 1.6-66 6.7-76 5.3-10.3 16.4-13.5 26.6-7.5m-73 345.9c10.2 4.7 17.3 17.1 28.4 49.1 14.4 41.4 24.5 61.7 35.4 71.3 8.2 7.2 33.2 20.4 78.7 41.5 39 18.2 44.8 21.7 49 29.9 3.8 7.5 1.2 18.2-5.7 23.4-6.3 4.9-14.3 6.6-32.6 7.2-43.1 1.2-102-9.1-130.3-22.9-14.7-7.2-19.9-12.3-30.4-29.7l-4.9-8.2-6.3 10.3c-8.6 14-15.9 21.1-27.9 27-26.9 13.1-72.3 22.2-117.5 23.4-22.7.6-32.6-.3-40.4-3.8-13-5.7-17.6-18.5-10.6-29.1 4.1-6.1 14.1-11.8 51.9-29.5 51.6-24.1 69.8-34.3 78.1-43.5 9.6-10.7 17.8-27.9 31-65.3 12.8-36.1 18.2-45.7 28.6-50.9 7.2-3.6 18-3.7 25.5-.2m-2.5 264.6c1.9.5 5.5 2.7 7.9 4.7 8.3 7.1 12.4 15.4 25 51.3 12.3 34.8 21.3 53.1 31 63 8.5 8.6 31.5 21.2 77.9 42.7 33.1 15.3 42 20.1 47.8 25.9 5.6 5.6 7 9.3 6 16.5-1.2 9.4-9.7 16-23.5 18.5-19.7 3.5-63.8.3-99.4-7.2-22.1-4.6-36.2-9.1-48.8-15.4-13.4-6.7-18.5-11.8-28.9-29l-4.8-7.9-7.7 11.9c-4.2 6.5-9.4 13.4-11.5 15.3-4.9 4.4-13.6 9.5-23.1 13.4-40.6 16.8-127.2 26.2-150 16.2-11.6-5.1-16.7-16.3-12.1-26.4 3.7-8.1 10-12.1 48.5-30.1 53-24.7 73.8-36 81.8-44.4 10.5-11.1 18.9-28.5 32.3-66.5 12.4-35.5 18.6-46.3 28.9-51.1 5.6-2.6 16-3.2 22.7-1.4"/></svg>