<svg xmlns="http://www.w3.org/2000/svg" width="2222.667" height="2222.667" viewBox="0 0 1667 1667"><path d="M420.9 160.1c-35.4 2.4-79.6 10.3-121.6 21.8-19.7 5.4-40.4 11.9-41.6 13-3 2.9-11 28.8-14.1 46.1-6.6 36.2-7.4 95.1-2 147 11 106 43.3 235 94.4 377 5.1 14 9.9 27.6 10.8 30.1 1.5 4.6 1.4 5.1-4.6 34.5-23.7 114.7-48.8 264.1-62.6 372.4-12 93.7-15.5 160.8-9.5 183.2 2.4 9 27.3 25.8 62.4 42 59.8 27.6 166.4 62.3 233 75.8 20.5 4.1 31.7 5.5 32.6 3.8 3.2-5.7 17.8-27.7 23.9-36 8.3-11.4 22.8-26.7 27.6-29.1 8.2-4.2 147.1-6.9 190.9-3.7 17.2 1.2 38.4 3.9 40.6 5.1 2.1 1.1 7.3 19.8 9.6 34.2 1.6 10 1.9 10.8 4.3 11.5 5.2 1.4 68 .6 87-1.2 63.8-5.9 114.6-16.4 172.3-35.6 98-32.8 184.3-83.9 261.6-155.1l13.4-12.3-.7-12c-4-71-23.3-127.4-54.9-160.3-6.1-6.3-8.6-8.3-10.6-8.3-1.4 0-22.8 4.3-47.5 9.4l-44.8 9.3-11.7-4.7c-56-22.8-146.9-39.6-229.2-42.6-9.6-.3-18.3-.8-19.4-.9-1.1-.2-12.9-.4-26.2-.4l-24.2-.1-6.9-11.8c-3.8-6.4-19.3-30.2-34.4-52.7-43.6-65.3-68-103.7-85.2-134.2l-5.8-10.3-100.1-.2-100.2-.3-5.7-2.7c-7.9-3.7-14.2-9.8-18.1-17.7-2.9-6-3.2-7.4-3.2-16.1s.3-10 3.2-15.5c3.6-7.1 11.4-14.7 18-17.8l4.8-2.2 85.8-.3 85.7-.2v-5.3c0-2.8.9-13.8 2-24.2 1.1-10.5 2-19.6 2-20.2 0-1-20.7-1.3-95.2-1.5l-95.3-.3-5.7-2.7c-7.6-3.5-15.1-10.7-18.5-17.7-2.5-5-2.8-6.7-2.8-15.6s.3-10.6 2.8-15.7c3.6-7.4 10.2-13.9 17.5-17.5l5.7-2.8 101-.5 101-.5 3.1-20.5c1.8-11.3 3.5-22.6 3.8-25.2l.7-4.8-112.3-.2-112.3-.3-6.3-2.9c-19-8.8-26.9-31.3-17.5-49.9 3.3-6.6 9.7-12.8 16.9-16.3l5.9-2.9 118.5-.3 118.6-.2 3.7-24.3c2-13.3 3.7-24.8 3.7-25.4 0-1-26-1.3-121.7-1.5l-121.8-.3-6.3-2.9c-19-8.8-26.9-31.3-17.5-49.9 3.3-6.6 9.7-12.8 16.9-16.3l5.9-2.9 128.3-.3c70.5-.1 128.2-.4 128.2-.7 0-.2 2-13.8 4.5-30.2 15.5-101.4 22.3-155.4 20.8-163.6-.3-1.4-1.2-2.9-2.2-3.4-.9-.4-28.6-1-61.6-1.4-44.3-.5-63.7-1.1-74-2.2-37.1-4.2-61-9.3-88-18.6-7.7-2.7-22.5-7.9-33-11.5-69.8-24.2-130.6-33-196.6-28.5"/></svg>