<svg xmlns="http://www.w3.org/2000/svg" width="2222.667" height="2222.667" viewBox="0 0 1667 1667" fill="currentColor"><path d="M823.6 164.2c-17 17.2-40.7 67.4-52.2 110.9-1.5 5.7-2.8 10.5-2.8 10.6-.1 0-6.4 1.3-14.1 2.7-85.3 15.7-166.8 53.5-215.1 99.8-91.2 87.6-122.6 160-135.3 312.8-6.6 78.9-8.1 137.6-8.8 344.5l-.5 169 17.4 28c53.3 85.6 102.7 158.7 150.2 222 21.8 29.1 32.8 42.8 33.6 41.8 2.3-2.5 21.5-71.3 30.3-108.3 19.3-81.5 31.4-158.2 36.9-234.5 1.7-23.9 1.7-99 0-119.5-2.5-30-5.1-48.4-7-49.8-6.7-5.2-26.7-12.5-52.2-19.2-31.5-8.3-46.9-14.8-55.1-23.2-2.6-2.5-6.7-8.6-9.2-13.5-4.9-9.6-12-29-10.9-29.7 4.8-3 47.7-18.5 69.7-25.2 58.8-18 113-27.4 167.8-29.1l20.7-.6v191.7c0 186.8 0 191.8 1.9 195.4 7.4 14.3 23 22.2 44.1 22.2 16.8 0 27.1-3.5 36.9-12.6 3.1-2.8 6.6-7.2 7.9-9.7l2.2-4.4V853.7l21 .7c52 1.6 100.1 9.6 155.5 25.6 33.8 9.8 81.5 27.2 81.5 29.7 0 2.1-7.5 18.9-12.1 27-2.4 4.2-7.1 10.5-10.4 13.9-9.9 10.1-20.2 14.4-67.5 28.4-15.7 4.6-32.5 11.4-37.3 15.1-2 1.6-2.9 6.8-5.1 28.4-3.8 36.9-4.8 91.1-2.6 131.1 5.8 102.7 27 218.1 60.7 331.2 3.7 12.2 7 22.1 7.4 22 2.1-.8 41.2-52.3 65.1-85.9 40.5-56.7 85.8-125.5 127.8-193.9l8.3-13.5-.6-157.5c-.8-208.4-2.5-274.2-8.7-351-11.2-136.8-37.4-209.5-101.4-281.5-20.7-23.3-40.8-42.4-59.2-56.3-50.5-38.1-125.3-68.4-198-80.2l-7.1-1.1-1.2-5.2c-.8-2.9-3.5-11.8-6.1-19.8-12.8-39.1-34.2-80.2-50.1-96.2-7.4-7.4-9.3-7.5-16.3-.5"/></svg>