<svg height="400" viewBox="0 0 400 400" width="400" xmlns="http://www.w3.org/2000/svg" fill="currentColor">
    <path
        d="m238.316 40.1c-2.915.485-6.043 2.598-13.361 9.026-8.038 7.059-27.33 25.52-26.981 25.817.059.05 1.51.611 3.226 1.247 11.355 4.209 21.19 9.124 24.031 12.009 6.718 6.821 21.554 30.729 29.174 47.014 8.65 18.486 12.712 32.17 13.497 45.471.378 6.395-2.192 10.292-10.314 15.645-12.163 8.016-39.229 16.642-49.276 15.704-6.277-.586-18.711-10.906-28.011-23.248-6.959-9.237-16.414-25.47-16.414-28.182 0-3.045 3.393-6.146 9.624-8.795 2.708-1.151 2.556-1.203 3.912 1.346 11.08 20.839 25.7 37.561 34.741 39.736 5.131 1.235 25.196-4.835 32.869-9.943 3.946-2.627 4.894-4.188 4.643-7.647-1.294-17.832-12.015-41.756-28.969-64.641-1.591-2.149-1.679-2.225-2.184-1.895-4.027 2.628-19.749 11.482-25.482 14.35-5.299 2.651-6.083 2.888-7.432 2.248-2.452-1.164-5.468-6.013-6.314-10.152l-.411-2.007.879-.753c.952-.815 9.023-5.884 20.529-12.892 3.989-2.429 7.254-4.471 7.256-4.537.013-.313-23.799-9.347-28.784-10.921l-5.639-1.779-4.173 2.792c-18.101 12.106-29.479 23.653-32.658 33.141-2.817 8.408-3.222 23.653-.957 36.045.997 5.459-2.062 33.179-4.108 37.224-3.017 5.963-37.373 29.536-80.719 55.384-2.508 1.496-4.607 2.758-4.665 2.806-.397.33 4.798 12.969 8.219 19.996 4.945 10.155 16.835 29.574 17.948 29.313.184-.043 11.779-4.016 25.768-8.829 25.475-8.765 26.53-9.084 27.082-8.202.461.737-.036 1.422-16.023 22.089l-15.816 20.445 3.819 3.694c9.871 9.551 18.896 17.136 28.821 24.221 4.935 3.522 10.833 7.33 11.39 7.352.426.017 2.808-2.143 25.514-23.131 24.197-22.367 41.942-38.987 47.62-44.602 4.755-4.702 6.202-5.151 24.902-7.721 14.151-1.946 19.18-2.888 22.859-4.284 3.659-1.388 13.103-7.637 41.752-27.628 21.572-15.053 27.333-18.923 31.857-21.401 5.588-3.061 10.328-9.284 17.692-23.227 1.29-2.441 2.671-4.914 3.07-5.496 2.848-4.153 2.242-10.64-1.317-14.104-1.205-1.174-4.59-3.325-9.395-5.972l-3.419-1.883 1.542-3.489c5.052-11.436 6.878-17.396 6.168-20.136-1.833-7.076-8.954-19.876-12.285-22.082-1.8-1.192-6.298-2.615-9.618-3.042-.825-.106-1.26-.275-1.26-.49 0-.18.324-2.46.72-5.068 2.669-17.592 2.9-22.653 1.156-25.265-2.861-4.285-18.991-18.092-23.557-20.165-2.429-1.103-8.678-.161-16.701 2.518-1.381.461-2.524.816-2.541.789-.016-.027-.161-1.831-.32-4.009-1.198-16.343-3.856-28.365-6.824-30.862-5.429-4.568-28.511-10.246-36.352-8.942"
        fill-rule="evenodd" />
</svg>