<svg height="400" viewBox="0 0 400 400" width="400" xmlns="http://www.w3.org/2000/svg"><path d="m266.89 5.47c-8.877 3.267-19.648 11.825-44.382 35.259-21.502 20.373-24.119 22.271-30.701 22.271-14.998 0-37.375-8.462-63.996-24.201-24.868-14.703-36.959-14.329-45.677 1.411-11.544 20.842-3.992 55.423 18.606 85.197 3.718 4.899 7.424 9.807 8.235 10.906 1.436 1.945 1.343 1.981-3.5 1.36-10.743-1.379-53.012-1.924-61.975-.801-27.572 3.458-29.244 8.273-13.759 39.628 8.271 16.747 11.622 26.59 10.982 32.263l-.484 4.293 5.631-3.157c5.846-3.279 14.926-9.407 28.63-19.324 13.519-9.783 22.561-13.251 30.987-11.883l3.696.599-.65 4.605c-2.142 15.182-5.073 22.12-16.307 38.604-32.032 47.003-34.042 112.109-4.397 142.407 23.748 24.269 82.085 36.572 128.171 27.031 22.471-4.653 34.098-4.536 59.5.595 46.297 9.352 69.31 2.633 88.746-25.911 31.872-46.807 16.066-143.775-33.817-207.472-5.213-6.656-5.417-5.955 6.618-22.837 17.991-25.238 23.251-36.72 23.316-50.894.095-20.675-6.899-24.7-49.363-28.409-18.103-1.581-17.059-1.161-15.529-6.255 8.508-28.316-7.175-53.164-28.581-45.285m-109.338 142.748c25.791 2.607 49.007 2.878 78.448.916 51.131-3.408 65.092-.823 67.594 12.514 1.14 6.081-.011 6.833-10.703 6.992-9.792.147-16.849 1.302-53.391 8.736-31.338 6.376-36.698 7.014-52.965 6.305-13.066-.57-51.305-4.888-54.648-6.171-2.113-.811.746-31.51 2.934-31.51.431 0 10.66.998 22.731 2.218" fill-rule="evenodd"/></svg>