<svg id="svg" version="1.1" xmlns="http://www.w3.org/2000/svg" xmlns:xlink="http://www.w3.org/1999/xlink" width="400" height="400" viewBox="0, 0, 400,400"><g id="svgg"><path id="path0" d="M258.725 40.098 C 250.790 41.420,239.549 49.637,220.207 68.253 C 199.741 87.950,198.668 88.736,192.591 88.470 C 179.022 87.876,162.848 81.963,144.091 70.740 C 121.493 57.218,114.079 56.197,106.639 65.581 C 91.928 84.138,99.924 117.398,126.397 147.761 C 127.121 148.592,127.660 149.324,127.595 149.390 C 127.530 149.455,124.682 149.292,121.267 149.028 C 78.420 145.717,55.812 148.126,53.396 156.262 C 52.177 160.367,53.748 165.275,60.676 179.004 C 69.271 196.037,71.425 202.810,70.084 208.587 L 69.873 209.496 72.360 208.167 C 78.543 204.865,84.291 201.060,93.325 194.287 C 107.062 183.989,111.999 181.624,119.707 181.652 C 121.667 181.659,125.597 182.146,125.866 182.415 C 126.025 182.574,124.781 191.146,124.167 194.121 C 122.465 202.367,119.157 208.828,110.688 220.452 C 97.018 239.214,89.000 273.054,92.270 298.185 C 95.625 323.974,109.736 340.945,134.493 348.967 C 168.161 359.876,186.410 361.578,210.918 356.096 C 232.310 351.311,238.718 351.355,263.399 356.452 C 283.234 360.549,292.165 361.019,302.004 358.482 C 318.754 354.163,334.142 338.797,341.166 319.376 C 356.401 277.248,339.941 209.055,303.736 164.315 L 301.850 161.984 302.315 160.659 C 303.071 158.509,305.551 154.707,310.382 148.290 C 329.128 123.396,333.958 107.897,327.318 93.941 C 324.227 87.447,317.780 85.737,286.143 83.026 C 275.105 82.080,275.716 82.311,276.649 79.434 C 283.479 58.361,273.999 37.554,258.725 40.098 M154.049 155.980 C 163.215 156.666,178.321 158.040,183.203 158.633 C 193.353 159.865,197.102 159.848,218.836 158.475 C 249.318 156.549,257.294 156.230,264.493 156.653 C 277.395 157.410,284.523 162.215,284.658 170.246 C 284.726 174.290,283.047 175.457,278.584 174.466 C 274.586 173.578,263.966 175.035,242.063 179.474 C 237.537 180.392,229.568 182.007,224.355 183.065 C 201.601 187.679,196.405 187.903,171.206 185.352 C 163.282 184.551,143.644 181.862,142.751 181.456 C 142.409 181.302,142.517 179.956,143.778 168.566 C 145.419 153.750,145.123 155.225,146.422 155.371 C 146.988 155.435,150.420 155.709,154.049 155.980 " stroke="none" fill="#000000" fill-rule="evenodd"></path></g></svg>