<svg height="400" viewBox="0 0 400 400" width="400" xmlns="http://www.w3.org/2000/svg"><path d="m198.8 48.026c-2.997.243-4.164.798-7.918 3.769-6.302 4.987-16.033 14.062-30.969 28.884-5.023 4.985-9.269 9.063-9.435 9.063-.167 0-2.698-.748-5.625-1.663-2.926-.915-5.493-1.698-5.703-1.74-.828-.165-12.284 7.929-17.494 12.361-14.243 12.115-17.816 18.874-18.172 34.376-.137 5.939.125 10.516.909 15.887 1.115 7.64-1.085 31.313-3.316 35.68-2.792 5.466-32.434 25.859-71.854 49.434-2.866 1.713-5.214 3.244-5.219 3.4-.037 1.198 5.023 13.055 8.531 19.992 7.145 14.13 11.256 20.134 24.676 36.038 15.568 18.45 26.174 28.099 43.743 39.798 5.573 3.71 5.382 3.635 6.51 2.57.481-.454 5.085-4.702 10.232-9.44 27.53-25.343 49.291-45.688 54.968-51.392 3.685-3.703 6.024-4.383 22.897-6.662 21.601-2.918 18.151-1.208 56.629-28.067 19.681-13.738 24.609-17.063 29.154-19.673 5.714-3.281 9.436-8.034 16.072-20.521 1.297-2.442 2.712-4.996 3.144-5.677 2.264-3.566 2.123-8.449-.338-11.737-1.083-1.447-4.233-3.603-8.917-6.101-2.834-1.513-3.357-1.877-3.272-2.28.056-.264.879-2.257 1.83-4.429 6.015-13.744 6.117-14.935 2.036-23.831-5.207-11.351-7.932-13.915-16.274-15.316-1.875-.315-1.879-.317-1.746-.985.785-3.924 2.475-17.508 2.701-21.712.218-4.055-.034-4.55-4.695-9.215-4.926-4.931-14.615-12.778-17.503-14.176-2.051-.993-8.398-.067-15.015 2.19-1.179.402-2.217.731-2.307.731-.089 0-.237-1.16-.329-2.579-.892-13.751-3.255-25.349-5.773-28.329-3.258-3.856-23.642-9.338-32.158-8.648m72.106 15.397c-1.972.463-7.631 4.073-7.393 4.718.041.111 1.208.951 2.594 1.866 5.038 3.325 13.046 9.808 17.85 14.45 10.345 9.996 12.282 15.337 10.831 29.853-.21 2.097-.351 3.829-.314 3.85 3.985 2.285 9.74 10.176 13.924 19.093 5.717 12.182 6.419 17.368 3.628 26.809l-.867 2.935 1.8 1.914c8.755 9.306 10.45 23.968 3.989 34.489-.553.902-2.119 3.715-3.479 6.252-6.258 11.67-11.084 18.324-16.663 22.977-1.971 1.644-3.001 2.326-7.784 5.154-2.804 1.658-11.608 7.661-27.114 18.486-39.683 27.703-38.289 27.016-61.322 30.231-4.809.672-10.202 1.456-11.984 1.744l-3.239.522-3.482 3.368c-4.639 4.486-17.712 16.736-27.666 25.922l-8.059 7.439 1.877 1.818c7.544 7.304 20.461 17.402 29.604 23.144l2.592 1.628 1.007-.959c.554-.527 7.324-6.779 15.045-13.892 24.111-22.217 43.134-39.999 49.787-46.54 4.419-4.345 5.007-4.521 24.073-7.199 20.752-2.914 18.368-1.757 51.875-25.19 21.394-14.963 28.338-19.676 32.513-22.066 6.403-3.666 10.071-8.294 16.93-21.362.97-1.848 2.274-4.201 2.897-5.23 1.706-2.814 2.101-5.632 1.197-8.537-1.161-3.728-2.663-5.049-10.826-9.514-1.65-.903-3.026-1.657-3.059-1.677s.6-1.539 1.405-3.376c6.924-15.789 6.967-16.584 1.474-27.575-4.744-9.493-6.592-11.18-13.968-12.752-1.512-.322-2.791-.628-2.842-.679s.347-3.15.884-6.888c1.235-8.583 1.709-13.159 1.709-16.479v-2.619l-.943-1.407c-2.954-4.406-18.717-17.653-22.093-18.565-2.096-.567-7.295.317-13.348 2.269l-3.166 1.021-.139-1.584c-1.631-18.645-3.519-27.454-6.405-29.882-5.14-4.325-26.8-9.511-33.33-7.98m-85.6 18.192c2.539 1.292 11.438 7.894 17.993 13.348 32.346 26.914 58.256 60.807 73.052 95.559 3.618 8.499 3.683 10.793.377 13.378-4.136 3.235-8.55 1.51-10.96-4.283-12.091-29.068-28.617-53.396-52.564-77.379-11.758-11.776-21.376-20.029-31.983-27.448-4.671-3.267-5.475-4.433-5.288-7.671.278-4.802 5.141-7.659 9.373-5.504" fill-rule="evenodd"/></svg>