<svg height="400" viewBox="0 0 400 400" width="400" xmlns="http://www.w3.org/2000/svg">
    <path
        d="m250.332 34.989c-25.666 18.144-47.061 32.846-47.544 32.67-.484-.175-18.116-12.663-39.184-27.75-21.067-15.087-38.411-27.314-38.542-27.17-.13.144.766 21.097 1.992 46.564s2.165 46.343 2.087 46.391c-.077.047-26.841 1.19-59.474 2.539-62.867 2.599-67.882 2.88-67.33 3.772.919 1.488 105.977 82.323 106.947 82.29.811-.028 14.965-8.243 17.289-10.034.132-.102-6.871-9.123-15.563-20.048l-15.802-19.863 2.229-.434c1.226-.239 15.73-1.864 32.23-3.61s30.189-3.355 30.42-3.574c.232-.219 1.074-13.291 1.873-29.049.798-15.758 1.564-28.763 1.701-28.9s8.695 5.075 19.017 11.581l18.767 11.83 2.444-1.163c1.344-.64 14.828-7.174 29.964-14.522 15.136-7.347 27.705-13.174 27.93-12.948.354.354 8.136 62.894 8.195 65.862.018.872 4.473 2.199 22.355 6.656 12.284 3.062 22.334 5.763 22.334 6.002s-7.875 5.118-17.5 10.841-17.894 10.661-18.375 10.973c-.661.43 2.39 6.376 12.53 24.418 7.372 13.117 13.252 24.002 13.067 24.187-.186.186-10.624-.004-23.197-.421-12.572-.417-24.218-.755-25.879-.752l-3.019.006-2.23 32.5c-1.226 17.875-2.324 32.607-2.439 32.737-.116.131-9.44-6.843-20.72-15.497-11.281-8.654-20.706-15.511-20.945-15.237s-2.473 4.407-4.963 9.185l-4.528 8.689 36.234 54.311 36.234 54.312.478-3c.263-1.65 2.819-31.125 5.681-65.5 2.861-34.375 5.463-62.5 5.781-62.5.486 0 99.135 34.517 104.745 36.65 2.716 1.033 4.057 3.29-31.377-52.823-17.802-28.193-32.23-51.397-32.062-51.565.169-.169 17.659-8.209 38.867-17.868 21.209-9.659 38.645-17.824 38.747-18.144.102-.321-21.277-7.783-47.509-16.583s-47.946-16.15-48.254-16.333c-.307-.184-1.861-25.609-3.452-56.5-1.591-30.892-3.048-56.167-3.239-56.167-.19 0-21.345 14.845-47.011 32.989m-24.928 99.045c-21.495 4.917-25.835 6.104-27.091 7.41-.822.856-34.304 37.123-74.404 80.595-40.1 43.471-73.209 79.075-73.576 79.12-.366.045-5.826-4.697-12.131-10.539-6.306-5.841-11.617-10.62-11.803-10.62s-2.065 2.895-4.177 6.433l-3.838 6.433 2.749 2.4c1.512 1.32 21.084 19.351 43.493 40.067 22.41 20.717 40.981 37.749 41.27 37.848.738.255 11.771-7.798 11.771-8.591 0-.359-5.1-5.314-11.334-11.012-6.233-5.697-11.333-10.622-11.333-10.942 0-.321 32.85-36.16 73-79.643s73.655-79.87 74.455-80.86c1.306-1.617 9.682-52.996 8.764-53.768-.12-.101-11.737 2.45-25.815 5.669m-203.346 219.426c-22.09 23.972-22.17 24.069-21.746 26.467 1.245 7.054 7.782 14.765 14.715 17.359 7.521 2.814 5.489 4.32 30.29-22.453l22.078-23.833-6.531-6.217c-3.592-3.419-8.804-8.28-11.582-10.8l-5.052-4.583z"
        fill-rule="evenodd" />
</svg>