<svg height="600" viewBox="0 0 600 600" width="600" xmlns="http://www.w3.org/2000/svg"
    xmlns:xlink="http://www.w3.org/1999/xlink">
    <clipPath id="a">
        <path d="m0 0h600v600h-600z" />
    </clipPath>
    <g clip-path="url(#a)">
        <path
            d="m203.78 491.87-13.81 9.87-101.77-93.92 8.72-14.57 27.99 25.83 174.7-189.3 59.72-13.66-8.84 60.63-174.69 189.3zm-59.45-16.23-51.26 55.54s-8.83 1.27-17.93-7.12c-9.09-8.39-8.53-17.3-8.53-17.3l51.26-55.54zm49.16-182.27 20.11-12.48-37.31-46.88 76.82-8.3 3.47-68.92 44.81 28.14 70.97-34.38 9.49 79.47 53.6 13.43-44.37 26.38 31.89 56.82-61.91-1.89-5.42 77.28-48.71-37.37-10.94 20.98 84.22 126.21 12.88-153.24 125.17 43.9-77.13-122.16 92.27-42.05-113.31-38.07-6.83-131.49-109.88 77.51-91.12-65.12 5.19 108.65-149.1 6.42z"
            fill="#2c2e35" />
    </g>
</svg>