<svg id="svg" xmlns="http://www.w3.org/2000/svg" xmlns:xlink="http://www.w3.org/1999/xlink" width="400" height="400" viewBox="0, 0, 400,400"><g id="svgg"><path id="path0" d="M287.772 10.900 C 279.606 16.523,253.527 34.841,224.306 55.478 C 199.898 72.715,202.950 70.894,200.918 69.441 C 200.015 68.795,185.463 58.389,168.580 46.316 C 136.910 23.668,126.619 16.417,126.426 16.610 C 126.297 16.739,126.636 25.088,127.684 47.562 C 128.445 63.869,129.749 93.138,130.114 102.101 C 130.310 106.904,130.293 107.127,129.750 107.131 C 129.438 107.134,126.887 107.267,124.081 107.429 C 121.275 107.590,106.489 108.263,91.223 108.926 C 34.839 111.372,6.604 112.697,6.439 112.906 C 6.131 113.297,102.485 188.756,109.688 193.764 L 110.598 194.397 117.663 189.977 C 124.865 185.470,126.932 184.057,126.932 183.640 C 126.932 183.310,123.266 178.562,111.179 163.241 C 99.598 148.560,96.813 144.945,96.970 144.795 C 97.139 144.634,106.401 143.526,119.580 142.090 C 139.384 139.932,159.950 137.734,160.345 137.734 C 160.616 137.734,160.846 134.715,161.241 125.956 C 161.868 112.061,163.180 86.839,163.480 82.916 L 163.691 80.160 165.791 81.453 C 166.947 82.164,175.275 87.354,184.299 92.986 C 193.323 98.618,200.847 103.226,201.018 103.226 C 201.190 103.226,207.512 100.239,215.069 96.588 C 242.171 83.494,260.200 74.930,260.321 75.094 C 260.531 75.379,263.292 97.633,267.616 133.908 C 268.083 137.827,268.522 141.089,268.591 141.158 C 268.660 141.226,276.617 143.268,286.272 145.696 C 302.811 149.855,312.507 152.423,312.313 152.593 C 311.873 152.980,303.175 158.355,293.513 164.212 C 283.119 170.512,277.684 173.920,276.872 174.647 C 276.535 174.949,279.648 180.679,298.636 214.704 L 302.655 221.905 300.690 222.006 C 299.609 222.061,294.876 221.955,290.173 221.769 C 276.614 221.235,263.199 220.868,256.985 220.861 L 251.254 220.855 250.906 224.531 C 250.715 226.553,249.890 237.592,249.073 249.062 C 247.264 274.462,246.650 282.475,246.402 283.943 L 246.212 285.066 240.660 280.820 C 218.669 264.000,206.219 254.754,205.577 254.767 C 205.374 254.771,204.775 255.849,199.993 264.816 C 198.057 268.447,196.470 271.553,196.465 271.718 C 196.461 271.883,207.800 288.965,221.663 309.677 C 235.526 330.390,251.408 354.148,256.956 362.472 C 262.983 371.517,267.107 377.433,267.203 377.176 C 267.356 376.767,268.281 366.012,273.970 298.575 C 276.887 263.995,278.084 250.843,278.390 250.027 C 278.609 249.444,279.303 249.654,292.723 254.355 C 347.354 273.490,378.203 284.333,379.768 284.951 C 383.690 286.499,384.818 288.531,359.347 248.162 C 332.246 205.211,318.922 183.590,319.320 183.210 C 319.505 183.034,327.610 179.300,356.489 166.088 C 371.755 159.103,386.677 152.215,389.647 150.782 L 395.049 148.175 390.548 146.546 C 382.790 143.738,301.311 116.129,300.782 116.129 C 300.723 116.129,300.675 115.392,300.675 114.492 C 300.675 112.000,295.046 6.814,294.883 6.248 C 294.850 6.136,291.650 8.229,287.772 10.900 M230.758 133.695 C 220.443 136.052,209.195 138.635,205.762 139.433 L 199.522 140.885 126.388 220.105 C 86.165 263.676,53.093 299.325,52.896 299.325 C 52.698 299.325,48.109 295.257,42.697 290.284 C 37.286 285.312,32.116 280.627,31.208 279.873 L 29.557 278.502 28.886 279.311 C 26.305 282.420,22.121 290.182,22.685 290.814 C 25.171 293.604,103.453 365.516,107.194 368.448 C 107.886 368.990,113.219 365.603,117.884 361.657 L 118.889 360.807 108.361 350.974 C 97.957 341.257,96.624 339.893,96.624 338.971 C 96.624 338.513,132.340 299.606,206.291 219.506 L 242.305 180.497 242.979 175.995 C 245.120 161.694,249.657 129.553,249.549 129.445 C 249.529 129.425,241.073 131.337,230.758 133.695 M41.837 332.858 C 26.534 348.367,6.770 370.272,5.106 373.570 C 1.801 380.118,12.347 392.008,23.105 393.864 L 25.897 394.346 26.711 393.497 C 27.506 392.668,60.672 356.667,66.310 350.514 L 69.154 347.410 66.373 344.745 C 61.308 339.893,47.680 327.382,47.458 327.382 C 47.338 327.382,44.809 329.846,41.837 332.858 " stroke="none" fill="#000000" fill-rule="evenodd"></path></g></svg>