<svg viewBox="0 0 578.7 578.66" xmlns="http://www.w3.org/2000/svg"><path d="m289.35 573.68a14.61 14.61 0 0 1 -10.39-4.3l-269.64-269.65a14.68 14.68 0 0 1 0-20.77l269.68-269.68a14.71 14.71 0 0 1 20.77 0l269.61 269.72a14.69 14.69 0 0 1 0 20.77l-269.65 269.61a14.57 14.57 0 0 1 -10.38 4.3" fill="#252528"/><g fill="#fff"><path d="m289.35 10a9.58 9.58 0 0 1 6.84 2.82l269.65 269.69a9.67 9.67 0 0 1 0 13.68l-269.65 269.65a9.63 9.63 0 0 1 -13.68 0l-269.65-269.65a9.67 9.67 0 0 1 0-13.68l269.65-269.68a9.58 9.58 0 0 1 6.84-2.83m0-10a19.68 19.68 0 0 0 -13.93 5.78l-269.64 269.64a19.62 19.62 0 0 0 0 27.82l269.64 269.68a19.76 19.76 0 0 0 27.85 0l269.65-269.68a19.64 19.64 0 0 0 0-27.82l-269.65-269.64a19.65 19.65 0 0 0 -13.92-5.78"/><path d="m336.21 243.85a67.09 67.09 0 0 0 -47.14 19.26 67.35 67.35 0 0 0 -114.5 48.1c0 12 3.13 29.51 17.5 48.14 24 31 58.18 57.22 94.91 80.74a3.88 3.88 0 0 0 4.19 0c36.72-23.52 70.94-49.69 94.9-80.74 14.38-18.63 17.5-36.14 17.5-48.14a67.36 67.36 0 0 0 -67.36-67.36"/><path d="m321.1 63.59a190.81 190.81 0 0 0 -64.06-.1l3.17 17.67c3.37.35 6.7.62 10 .83v65.74h37.69v-65.67c3.3-.21 6.64-.45 10-.79z"/><path d="m368.48 164.85-4.33 17.29h-40.95v41.54a76.8 76.8 0 0 0 -34.11 12.93 77.07 77.07 0 0 0 -34.18-12.93v-41.54h-40.91l-4.33-17.29z"/><path d="m254.94 323v158.24l31.05 40a3.9 3.9 0 0 0 6.18 0l31.05-40v-158.24z"/></g><path d="m242.63 343.63s4.09 34.28 12.31 51v-47.49z" fill="#282828"/><path d="m335.52 343.63s-4.1 34.28-12.31 51v-47.49z" fill="#282828"/><path d="m289.07 348.49c-26.3 0-54.32-9.36-54.32-9.36 20.18 20.91 54.32 34.15 54.32 34.15s34.15-13.28 54.33-34.15c0 0-28 9.36-54.33 9.36" fill="#282828"/><path d="m248.78 350c5.43 2.68 4.37 8.28 18.84 14.61 10 4.37 24.18 13.86 21.36 44.08-.66 6.64-8.53 18.09-7.29 30.54 1.1 11.62 8 15.74 14.47 14.75 6.78-1.07 12.86-7.91 13-15.34.34-16.26-7.74-19.91-9-30.36-.82-7.05.66-33.18 5.5-39.4 4.23-5.44 12.55-8.39 18.09-13.83 7.19-7-5.85-3.09-5.85-3.09s-37.47 3.64-69.11-2" fill="#282828"/></svg>