<svg height="580" viewBox="0 0 580 580" width="580" xmlns="http://www.w3.org/2000/svg" xmlns:xlink="http://www.w3.org/1999/xlink"><clipPath id="a"><path d="m-10-10h600v600h-600z"/></clipPath><g clip-path="url(#a)"><path d="m290.01 574.35c-3.92 0-7.6-1.51-10.39-4.3l-269.64-269.65c-5.75-5.74-5.75-15.06 0-20.76l269.64-269.68c2.79-2.75 6.47-4.3 10.39-4.3s7.6 1.55 10.38 4.3l269.65 269.68c2.78 2.75 4.3 6.46 4.3 10.38s-1.52 7.6-4.3 10.38l-269.65 269.65c-2.78 2.79-6.46 4.3-10.38 4.3z" fill="#212325"/><g fill="#fff"><path d="m303.93 6.45 269.65 269.64c7.7 7.71 7.7 20.15 0 27.82l-269.65 269.68c-3.85 3.85-8.9 5.74-13.92 5.74s-10.08-1.89-13.93-5.74l-269.64-269.68c-7.71-7.67-7.71-20.11 0-27.82l269.64-269.64c3.85-3.85 8.91-5.78 13.93-5.78s10.07 1.93 13.92 5.78zm-20.77 7.05-269.64 269.68c-3.78 3.75-3.78 9.9 0 13.68l269.64 269.65c1.83 1.82 4.27 2.85 6.85 2.85s5.02-1.03 6.84-2.85l269.65-269.65c3.78-3.78 3.78-9.93 0-13.68l-269.65-269.68c-1.82-1.82-4.26-2.82-6.84-2.82s-5.02 1-6.85 2.82z" fill-rule="evenodd"/><path d="m336.87 244.53c-18.36 0-34.97 7.32-47.14 19.25-12.17-11.93-28.78-19.25-47.14-19.25-37.2 0-67.36 30.15-67.36 67.36 0 12 3.13 29.5 17.5 48.13 23.97 31.05 58.18 57.22 94.9 80.74 1.28.83 2.93.83 4.2 0 36.72-23.52 70.94-49.69 94.9-80.74 14.37-18.63 17.5-36.13 17.5-48.13 0-37.21-30.15-67.36-67.36-67.36z"/><path d="m321.76 64.26c-21.18-3.64-42.84-3.68-64.06-.1l3.17 17.67c3.37.35 6.7.62 10.04.83v65.74h37.65v-65.67c3.3-.21 6.63-.45 9.97-.79z"/><path d="m369.14 165.52-4.33 17.3h-40.95v41.53c-12.28 1.52-23.93 5.95-34.11 12.93-10.21-6.98-21.87-11.41-34.18-12.93v-41.53h-40.92l-4.33-17.3z"/><path d="m255.59 323.67v158.24l31.05 40.03c1.59 2.03 4.61 2.03 6.19 0l31.05-40.03v-158.24z"/></g><path d="m243.29 344.3c2.73 22.86 6.83 39.85 12.31 50.99v-47.48z" fill="#242525"/><path d="m336.18 344.3c-2.73 22.86-6.84 39.85-12.31 50.99 0-5.66 0-21.49 0-47.48z" fill="#242525"/><path d="m289.73 349.16c-17.53 0-35.64-3.12-54.33-9.35 13.46 13.93 31.57 25.32 54.33 34.14 22.76-8.82 40.87-20.21 54.33-34.14-18.68 6.23-36.79 9.35-54.33 9.35z" fill="#242525"/><path d="m249.44 350.71c5.43 2.68 4.37 8.29 18.84 14.61 10.04 4.37 24.18 13.86 21.36 44.08-.66 6.64-8.53 18.09-7.29 30.54 1.1 11.62 8.04 15.75 14.47 14.75 6.78-1.07 12.86-7.91 13-15.34.34-16.26-7.74-19.9-9.01-30.36-.82-7.05.65-33.18 5.5-39.4 4.23-5.44 12.55-8.39 18.09-13.83 4.79-4.67 2.84-5.7-5.85-3.09-24.98 2.43-48.02 1.78-69.11-1.96z" fill="#242525"/></g></svg>