<svg xmlns="http://www.w3.org/2000/svg" width="800" height="800" viewBox="0 0 600 600"><path d="M259.5 89.8c-4.7 1-26.6 7.4-33.1 9.8l-7.2 2.6-1.6 8.6c-2.4 13.1-3.4 20.2-2.7 20.6.3.2 6.7 2.9 14.1 5.9s17.5 7.3 22.3 9.6c4.9 2.3 9.5 4.1 10.2 4.1.8 0 8.9-3.3 18.2-7.4 9.2-4 19.6-8.4 23.1-9.7 5.3-2.1 6.2-2.7 6.2-4.9 0-4.2-3.8-26.2-4.7-27-1.1-1.1-21.1-7.4-31.3-9.9-11-2.8-11.1-2.8-13.5-2.3M166.3 107.4c-6.1 3.1-15.8 8.7-21.5 12.4-9.3 6.2-10.7 7.5-14.2 13.6-2.2 3.7-4.9 8.9-6.1 11.5l-2.3 4.8 9.2 3.2c5 1.8 11.2 4 13.7 4.8l4.6 1.6 13.4-8c7.4-4.4 18.1-10.6 23.9-13.8 5.8-3.1 10.6-5.8 10.6-5.9.5-.4 5.2-28.1 4.9-28.5-.3-.2-6-.6-12.7-.9l-12.3-.4zM325.2 102.7c-3.9.4-4.3.7-3.8 2.6.2 1.2 1.4 7.8 2.6 14.7 1.2 6.8 2.2 12.5 2.3 12.6.1 0 4.3 2.2 9.2 4.9 5 2.7 15.8 8.9 24 13.8l15 8.9 4.5-1.7c2.5-.9 8.6-3.1 13.5-4.8 5-1.8 9.2-3.3 9.4-3.4.9-.5-4.4-11.5-8.8-18.4-4.4-6.7-5.7-8-14.9-13.6-5.5-3.4-14.5-8.5-20-11.3l-10.1-5-9.3.2c-5.1.1-11.3.3-13.6.5M195.5 150.2c-22.8 12.7-37.6 22-38.5 24.1-.5 1.2-1.3 6.2-1.9 11.2-1.3 10.8-4.1 37.4-4.1 38.5 0 .5 10.8 7 23.9 14.5l23.9 13.6 19.3-11.2c10.7-6.2 23-13.3 27.4-15.9l8-4.6.3-27.2.2-27.3-10.7-5.1c-14.6-6.8-36.2-15.8-37.6-15.7-.7 0-5.2 2.4-10.2 5.1M306 150.4c-6.9 2.9-17.4 7.6-23.5 10.4l-11 5-.3 27.8-.2 27.9 7.2 3.9c7.5 4.1 41.7 23.8 45.3 26.2 1.9 1.2 4.3.1 26-12.4l24-13.7-.3-5c-.4-6.2-4.1-39.9-4.8-44.1-.5-2.7-2.1-4-13.3-10.7-11.1-6.7-36.1-20.8-36.5-20.6 0 0-5.7 2.4-12.6 5.3M103.8 171.4c-5.1 4.6-12.5 11.7-16.4 15.7-6.9 7.3-7.1 7.5-9.8 17.9-1.6 5.8-3.8 15.3-5.1 21.2l-2.3 10.6 3.2 3c1.7 1.6 6.9 5.9 11.5 9.5l8.3 6.5 10.7-8.2c5.8-4.5 15.2-11.5 20.7-15.4l10.1-7.2 1.2-11.3c1.4-13.3 3.9-33.1 4.7-37 .5-2.5.2-2.9-4.8-5.1-3-1.3-9.3-3.8-14.1-5.5l-8.6-3zM398.3 169.3c-7.2 2.9-13.4 5.5-13.7 5.8s.1 5.3.9 11c.7 5.7 2.1 17.1 3 25.4.8 8.2 1.9 15.2 2.3 15.6.4.3 5 3.7 10.2 7.4 5.2 3.8 14.2 10.4 19.9 14.7 5.7 4.4 10.8 7.7 11.5 7.5 2.2-1 22.6-17.8 22.6-18.8 0-2.1-5.2-25-7.6-33.4-2.1-7.5-3.3-9.8-7.1-14-4.9-5.3-27.5-26.4-28.3-26.4-.3 0-6.4 2.3-13.7 5.2M244.3 246.9c-9.4 5.4-21.4 12.4-26.7 15.5l-9.6 5.7.2 32 .3 32 21 12.3c34 19.8 33 19.3 36.2 17.5 1.6-.9 13.9-8.1 27.6-15.9l24.7-14.4v-63.4l-4.2-2.4c-2.4-1.4-14.6-8.4-27.1-15.6-12.6-7.3-23.4-13.2-24-13.2-.7 0-8.9 4.5-18.4 9.9M131 248.3c-19.4 13.9-29.5 21.8-30.2 23.5-.4.9-.7 13.7-.7 28.4L100 327l7.6 6c12.2 9.7 34 25 35.5 24.9.8 0 11.5-6 23.9-13.2l22.5-13.2.3-32.1.2-32-23.1-13.5c-12.8-7.4-23.4-13.5-23.8-13.6-.3-.2-5.8 3.4-12.1 8M359 255l-23.5 13.7-.3 20.9-.2 20.8 9.2-9c5.1-5 12.3-11.2 15.9-13.7 13.2-9.3 36.5-18.7 50.5-20.3 3-.4 5.4-1 5.4-1.4 0-1-27.6-21.4-32.5-24.2-.5-.3-11.6 5.7-24.5 13.2M59.2 257.7c-9.4 13.9-10.4 16.4-11.3 29.1-.4 6.4-.6 16.9-.2 23.2.5 11 .7 11.8 4.5 19 2.2 4.1 5.5 9.6 7.4 12.2l3.5 4.8 7.2-6.3c4-3.4 9-7.6 11.3-9.4l4-3.2.1-28.3v-28.3l-7.9-6.5c-4.4-3.6-9.4-7.8-11.3-9.3l-3.4-2.8zM455 260.2l-7.2 6.3 3.3.8c6.8 1.8 20.5 5.6 22.3 6.3 1.7.7 1.7.6.1-2.7-1.8-3.6-10.6-16.9-11.1-16.9-.1 0-3.5 2.8-7.4 6.2"/><path d="M424 276.7c-46.6 2.9-86.6 33.9-100.3 77.8-3.9 12.5-5 19.9-5 34 .1 24.7 7.1 46.3 21.4 65.6 19.1 25.8 46.6 41.5 78.9 45 35.7 3.9 74-11.6 96.4-39 37.1-45.3 34.7-108.5-5.7-149.8-22.4-23-54.5-35.6-85.7-33.6m28 70.8V368h43v40h-43v42h-44v-42h-43v-40h43v-41h44zM85.9 348.3c-3.6 2.8-8.6 7-11.1 9.2l-4.6 4 2.3 11.1c1.3 6.2 3.6 15.8 5.1 21.5l2.7 10.4 12.1 12c6.6 6.6 14.2 13.7 16.7 15.8l4.6 3.7 11.4-4.4c6.3-2.4 12.6-4.8 14-5.4l2.6-1-1.8-12.9c-1-7-2.3-18.6-3-25.6-1.2-12.6-1.3-12.9-4.3-15.2-16-12.3-37.4-27.9-38.6-28.1-.8-.2-4.5 2-8.1 4.9M177 360.2c-12.4 7.1-23.1 13.3-23.9 13.7-1.1.7-1.1 3.4.3 17.2 1 9 2.3 20.7 2.9 25.9l1.2 9.5 10.5 6.4c5.8 3.5 16.8 9.9 24.6 14.3l14.1 7.8 10.9-4.5c6-2.5 16.9-7.3 24.2-10.7l13.2-6.1-.2-27.5-.3-27.4-22.5-13c-12.4-7.1-24.7-14.2-27.5-15.8l-5-2.8zM291.3 368.3 272 379.5v55.1l4.8 2.1c39.8 17.5 42.4 18.5 45.3 17.2 1.6-.6 2.9-1.4 2.9-1.7s-2-4.7-4.5-9.6c-9.7-19.8-13-35.5-12.2-58.6.3-8.5 1.2-18.1 2-21.3.8-3.1 1.2-5.7.8-5.6-.3 0-9.3 5.1-19.8 11.2M146 441.6c-1.9.8-7.3 2.9-12 4.5s-9.1 3.1-9.7 3.4c-1.5.5.9 6 7.5 17.6 4.1 7.2 4.9 7.9 14.5 13.9 5.6 3.5 14.9 8.8 20.7 11.8l10.5 5.5 12.7-.5c6.9-.3 13-.8 13.5-1.1s-.2-6.7-1.6-14.8l-2.6-14.2-15.5-8.6c-8.5-4.7-19.3-11-24-13.9-4.7-2.8-9-5.2-9.5-5.2-.6.1-2.6.8-4.5 1.6M253 453.2c-4.7 2.2-14.6 6.5-22 9.5-7.4 3.1-13.8 5.9-14.2 6.2-.7.7 2.7 24.6 4.1 27.6.9 2.2 10.7 5.7 30.6 11l12 3.2 11-2.9c6.1-1.5 15.8-4.4 21.6-6.4l10.7-3.5 2.2-14.5c1.3-7.9 2.1-14.6 1.9-14.7-.2-.2-3.5-1.6-7.4-3.2-3.8-1.5-14.1-5.9-22.7-9.7-8.6-3.7-16.5-6.8-17.5-6.7-1 0-5.6 1.9-10.3 4.1M330.8 466.6c-1.5.8-3 2.5-3.3 3.7-2 9.3-4.6 25.9-4.2 26.3.3.3 5.8.8 12.2 1.1l11.7.6 7.8-3.8 7.9-3.8-6.7-5.1c-3.7-2.7-10.1-8.5-14.3-12.8s-7.8-7.8-8-7.8c-.2.1-1.6.7-3.1 1.6"/></svg>