<svg xmlns="http://www.w3.org/2000/svg" width="800" height="800" viewBox="0 0 800 800"><path d="M343.2 65.9c-7.6 1.6-43 11.9-53.6 15.8L278 85.9l-2.6 13.9c-3.9 21.3-5.5 32.7-4.4 33.4.5.3 10.9 4.7 22.8 9.5 12 4.9 28.4 11.9 36.1 15.6 8 3.7 15.4 6.6 16.6 6.6s14.4-5.3 29.4-12c14.9-6.4 31.7-13.6 37.4-15.7 8.6-3.4 10-4.3 10-7.9 0-6.8-6.1-42.4-7.6-43.7-1.7-1.8-34.1-12-50.6-16-17.8-4.6-18-4.6-21.9-3.7M192.3 94.3c-9.8 5.1-25.5 14.1-34.8 20.1-15 10.1-17.3 12.2-22.9 22-3.6 6-8 14.4-9.9 18.6l-3.7 7.8 14.8 5.2c8.1 2.9 18.2 6.5 22.2 7.8l7.5 2.6 21.7-13c11.9-7.1 29.3-17.1 38.7-22.3 9.3-5 17.1-9.4 17.1-9.6.8-.6 8.4-45.5 7.9-46.1-.4-.3-9.7-1-20.5-1.5l-19.9-.6zm257.2-7.6c-6.3.6-7 1.1-6.1 4.2.3 1.9 2.2 12.6 4.2 23.8 1.9 11 3.5 20.2 3.7 20.4.1 0 6.9 3.5 14.9 7.9 8.1 4.4 25.6 14.4 38.8 22.3l24.3 14.5 7.3-2.8c4-1.5 13.9-5 21.8-7.8 8.1-2.9 14.9-5.3 15.3-5.5 1.4-.8-7.2-18.6-14.3-29.8-7.1-10.8-9.2-12.9-24.1-22-8.9-5.5-23.5-13.7-32.4-18.3l-16.3-8.1-15.1.4c-8.2.1-18.3.4-22 .8m-210 76.9c-36.9 20.5-60.8 35.6-62.3 39-.8 1.9-2.1 10-3.1 18.1-2.1 17.5-6.6 60.6-6.6 62.3 0 .8 17.5 11.4 38.7 23.5l38.7 22 31.2-18.1c17.3-10 37.3-21.5 44.4-25.8l12.9-7.4.5-44 .3-44.2-17.3-8.3c-23.6-11-58.6-25.6-60.8-25.4-1.2 0-8.5 3.9-16.6 8.3m178.9.3c-11.1 4.7-28.1 12.3-38 16.8l-17.8 8.1-.5 45-.3 45.2 11.6 6.3c12.2 6.6 67.5 38.5 73.3 42.4 3.1 2 7 .2 42.1-20.1l38.9-22.1-.5-8.1c-.6-10.1-6.6-64.6-7.8-71.4-.8-4.4-3.4-6.5-21.5-17.3-18-10.9-58.4-33.7-59.1-33.4 0 0-9.2 3.9-20.4 8.6m-327.3 34c-8.3 7.4-20.2 18.9-26.5 25.4-11.2 11.8-11.5 12.1-15.9 29-2.6 9.4-6.2 24.7-8.3 34.3l-3.7 17.2 5.2 4.8c2.7 2.6 11.2 9.6 18.6 15.4l13.4 10.5 17.4-13.3c9.3-7.2 24.6-18.6 33.5-24.9l16.3-11.7 2-18.2c2.2-21.6 6.3-53.6 7.6-59.9.8-4.1.3-4.7-7.8-8.3-4.9-2.1-15.1-6.1-22.8-8.9l-13.9-4.9zm476.7-3.4c-11.7 4.7-21.7 8.9-22.2 9.4s.2 8.6 1.5 17.8c1.1 9.3 3.4 27.7 4.8 41.2 1.3 13.2 3.1 24.6 3.7 25.2.7.5 8.1 6 16.6 12 8.4 6.1 22.9 16.8 32.2 23.8 9.2 7.1 17.5 12.5 18.6 12.1 3.6-1.6 36.6-28.8 36.6-30.4 0-3.4-8.4-40.5-12.3-54.1-3.4-12.1-5.4-15.8-11.5-22.6-8-8.6-44.5-42.8-45.8-42.8-.5 0-10.4 3.8-22.2 8.4M318.5 320.2c-15.2 8.7-34.6 20-43.2 25.1l-15.6 9.2.4 51.8.4 51.8 34 19.9c55.1 32.1 53.5 31.2 58.6 28.3 2.6-1.4 22.5-13.1 44.7-25.7l40-23.3V354.6l-6.8-3.8c-3.9-2.3-23.6-13.6-43.9-25.3-20.4-11.8-37.8-21.4-38.8-21.4-1.2 0-14.4 7.3-29.8 16.1m-183.4 2.2c-31.4 22.5-47.8 35.3-48.9 38.1-.7 1.4-1.1 22.2-1.1 45.9l-.2 43.4 12.3 9.7c19.8 15.7 55 40.5 57.5 40.4 1.3 0 18.6-9.8 38.7-21.4l36.4-21.4.5-51.9.3-51.8-37.4-21.9c-20.7-12-37.9-21.9-38.5-22-.5-.3-9.4 5.5-19.6 12.9m369.1 10.9-38.1 22.2-.5 33.8-.3 33.7 14.9-14.6c8.3-8.1 19.9-18.1 25.8-22.2 21.3-15 59-30.3 81.7-32.8 4.9-.7 8.7-1.7 8.7-2.3 0-1.6-44.6-34.7-52.6-39.2-.8-.5-18.7 9.2-39.6 21.4m-485.3 4.3C3.6 360.2 2 364.2.6 384.8c-.7 10.3-1 27.3-.4 37.5.8 17.8 1.2 19.1 7.3 30.8 3.6 6.6 8.9 15.5 12 19.7l5.7 7.8 11.6-10.2c6.5-5.5 14.6-12.3 18.3-15.2l6.5-5.2.2-45.8v-45.8L49 347.8c-7.2-5.8-15.3-12.6-18.3-15l-5.5-4.5zm640.7 4-11.7 10.2 5.4 1.3c11 2.9 33.2 9.1 36.1 10.2 2.7 1.1 2.7 1 .1-4.4-2.9-5.8-17.1-27.3-17.9-27.3-.2 0-5.7 4.5-12 10"/><path d="M609.5 368.4c-75.4 4.7-140.2 54.9-162.4 126-6.3 20.2-8.1 32.2-8.1 55 .2 40 11.5 74.9 34.7 106.2 30.9 41.7 75.4 67.2 127.7 72.8 57.8 6.3 119.8-18.7 156.1-63.1 60-73.3 56.1-175.6-9.3-242.5-36.2-37.2-88.2-57.6-138.7-54.4M654.8 483v33.2h69.6V581h-69.6v67.9h-71.2V581H514v-64.8h69.6v-66.4h71.2zm-592.6 1.3c-5.8 4.6-13.9 11.4-18 14.9l-7.4 6.5 3.7 18c2.1 10 5.8 25.5 8.3 34.8l4.3 16.8 19.6 19.4c10.7 10.7 23 22.2 27 25.6l7.5 6 18.4-7.1c10.2-3.9 20.4-7.8 22.7-8.8l4.2-1.6-2.9-20.9c-1.6-11.3-3.7-30.1-4.8-41.4-2-20.4-2.2-20.9-7-24.6-25.9-19.9-60.6-45.2-62.5-45.5-1.3-.3-7.3 3.2-13.1 7.9m147.5 19.3c-20.1 11.5-37.4 21.5-38.7 22.2-1.8 1.1-1.8 5.5.5 27.8 1.6 14.6 3.7 33.5 4.7 41.9l1.9 15.4 17 10.4c9.4 5.6 27.2 16 39.8 23.1l22.8 12.7 17.7-7.3c9.7-4.1 27.3-11.8 39.2-17.4l21.3-9.8-.3-44.5-.5-44.4-36.4-21c-20.1-11.5-40-23-44.5-25.6l-8.1-4.6zm185 13.2-31.2 18.1v89.2l7.7 3.4c64.5 28.3 68.7 29.9 73.4 27.8 2.6-.9 4.7-2.2 4.7-2.7S446 645 442 637c-15.7-32-21.1-57.4-19.8-94.8.5-13.8 2-29.3 3.3-34.5 1.3-5 1.9-9.2 1.3-9.1-.5 0-15.1 8.3-32.1 18.2M159.5 635.4c-3.1 1.3-11.8 4.7-19.4 7.3s-14.8 5-15.7 5.5c-2.5.8 1.4 9.7 12.1 28.5 6.7 11.7 7.9 12.8 23.5 22.5 9.1 5.7 24.1 14.2 33.5 19.1l17 8.9 20.6-.8c11.1-.5 21-1.3 21.8-1.8s-.3-10.8-2.6-23.9l-4.2-23-25.1-14c-13.7-7.6-31.2-17.8-38.8-22.5-7.6-4.5-14.6-8.4-15.4-8.4-1 .2-4.2 1.3-7.3 2.6m173.2 18.8c-7.6 3.6-23.6 10.5-35.6 15.4-12 5-22.3 9.5-23 10-1.1 1.1 4.4 39.8 6.7 44.7 1.4 3.6 17.3 9.2 49.5 17.8l19.4 5.2 17.8-4.7c9.9-2.4 25.6-7.1 35-10.4l17.3-5.6 3.6-23.5c2.1-12.8 3.4-23.7 3-23.8-.3-.3-5.6-2.6-11.9-5.2-6.2-2.4-22.9-9.5-36.8-15.7-13.9-6-26.7-11-28.3-10.8-1.6 0-9.1 3-16.7 6.6m126 21.7c-2.5 1.3-4.9 4-5.4 6-3.2 15-7.4 41.9-6.8 42.6.5.4 9.4 1.2 19.8 1.7l18.9 1 12.6-6.1 12.8-6.2-10.8-8.3c-6-4.3-16.4-13.7-23.2-20.7-6.8-6.9-12.6-12.6-12.9-12.6-.3.2-2.6 1.1-5 2.6"/></svg>