<svg viewBox="0 0 578.7 578.7" xmlns="http://www.w3.org/2000/svg"><path d="m289.35 573.69a14.59 14.59 0 0 1 -10.39-4.3l-269.65-269.66a14.68 14.68 0 0 1 0-20.77l269.69-269.65a14.67 14.67 0 0 1 20.77 0l269.62 269.69a14.69 14.69 0 0 1 0 20.77l-269.66 269.62a14.57 14.57 0 0 1 -10.38 4.3" fill="#d6a529"/><g fill="#fff"><path d="m289.35 10a9.69 9.69 0 0 1 6.84 2.83l269.65 269.66a9.68 9.68 0 0 1 0 13.72l-269.65 269.65a9.68 9.68 0 0 1 -13.68 0l-269.66-269.65a9.68 9.68 0 0 1 0-13.72l269.66-269.66a9.65 9.65 0 0 1 6.84-2.83m0-10a19.69 19.69 0 0 0 -13.93 5.78l-269.66 269.66a19.68 19.68 0 0 0 0 27.82l269.66 269.65a19.65 19.65 0 0 0 27.86 0l269.65-269.65a19.66 19.66 0 0 0 0-27.82l-269.65-269.66a19.7 19.7 0 0 0 -13.93-5.78"/><path d="m288.37 206.71 35.79 62.01 35.84 62.05h-71.63-71.64l35.84-62.05z"/><path d="m315.37 147.74a27 27 0 1 1 -27-27 27 27 0 0 1 27 27"/><path d="m392.27 385.18a27 27 0 1 1 37.23-8.45 27 27 0 0 1 -37.23 8.45"/><path d="m157 342.92a27 27 0 1 1 -7.47 37.44 27 27 0 0 1 7.47-37.44"/></g><path d="m428.66 287.66a140.3 140.3 0 1 1 -140.32-140.32 140.27 140.27 0 0 1 140.32 140.32z" fill="none" stroke="#fff" stroke-miterlimit="10" stroke-width="16"/><circle cx="288.37" cy="287.66" fill="none" r="76.57" stroke="#fff" stroke-miterlimit="10" stroke-width="16" transform="matrix(.92387953 -.38268343 .38268343 .92387953 -88.13 132.25)"/></svg>