<svg height="580" viewBox="0 0 580 580" width="580" xmlns="http://www.w3.org/2000/svg"
    xmlns:xlink="http://www.w3.org/1999/xlink">
    <clipPath id="a">
        <path d="m-10-10h600v600h-600z" />
    </clipPath>
    <g clip-path="url(#a)">
        <path
            d="m290 574.35c-3.93 0-7.6-1.52-10.38-4.31l-269.66-269.66c-5.74-5.74-5.74-15.02 0-20.76l269.66-269.66c2.78-2.79 6.45-4.31 10.38-4.31s7.6 1.52 10.38 4.31l269.66 269.66c2.79 2.78 4.31 6.45 4.31 10.38s-1.52 7.6-4.31 10.38l-269.66 269.66c-2.78 2.79-6.45 4.31-10.38 4.31z"
            fill="#dfa431" />
        <g fill="#fff">
            <path
                d="m303.93 6.43 269.66 269.66c7.68 7.68 7.68 20.14 0 27.82l-269.66 269.66c-3.84 3.84-8.91 5.78-13.93 5.78s-10.09-1.94-13.93-5.78l-269.66-269.66c-7.68-7.68-7.68-20.14 0-27.82l269.66-269.66c3.84-3.84 8.91-5.78 13.93-5.78s10.09 1.94 13.93 5.78zm-20.77 7.05-269.65 269.66c-3.8 3.8-3.8 9.92 0 13.72l269.65 269.66c1.82 1.81 4.26 2.82 6.84 2.82 2.57 0 5.02-1.01 6.84-2.82l269.65-269.66c3.8-3.8 3.8-9.92 0-13.72l-269.65-269.66c-1.82-1.81-4.27-2.82-6.84-2.82-2.58 0-5.02 1.01-6.84 2.82z"
                fill-rule="evenodd" />
            <path d="m289.02 207.36 35.79 62.01 35.84 62.05h-71.63-71.64l35.84-62.05z" />
            <path
                d="m316.02 148.39c0 14.9-12.07 27.02-27.02 27.02-14.9 0-26.97-12.12-26.97-27.02s12.07-27.01 26.97-27.01c14.95 0 27.02 12.11 27.02 27.01z" />
            <path
                d="m392.92 385.83c-12.62-7.98-16.38-24.65-8.44-37.23 7.98-12.63 24.65-16.38 37.27-8.45 12.63 7.98 16.38 24.66 8.41 37.23-7.94 12.63-24.62 16.43-37.24 8.45z" />
            <path
                d="m157.66 343.57c12.41-8.28 29.17-4.94 37.45 7.47 8.27 12.37 4.93 29.17-7.43 37.44-12.41 8.28-29.17 4.94-37.49-7.47-8.27-12.41-4.94-29.17 7.47-37.44z" />
        </g>
        <path
            d="m429.31 288.31c0 77.5-62.81 140.27-140.32 140.27-77.46 0-140.27-62.77-140.27-140.27s62.81-140.31 140.27-140.31c77.51 0 140.32 62.81 140.32 140.31z"
            fill="none" stroke="#fff" stroke-width="15.999" />
        <path
            d="m365.6 288.31c0 42.3-34.28 76.58-76.58 76.58-42.29 0-76.57-34.28-76.57-76.58s34.28-76.57 76.57-76.57c42.3 0 76.58 34.27 76.58 76.57z"
            fill="none" stroke="#fff" stroke-width="15.999" />
    </g>
</svg>