<svg id="svg" xmlns="http://www.w3.org/2000/svg" xmlns:xlink="http://www.w3.org/1999/xlink" width="400" height="400" viewBox="0, 0, 400,400" version="1.1"><g id="svgg"><path id="path0" d="M195.441 87.920 C 189.366 89.308,184.276 93.875,182.231 99.772 L 181.674 101.380 180.279 101.701 C 164.723 105.289,153.862 109.920,142.814 117.678 C 105.094 144.163,90.444 192.644,107.308 235.179 L 108.508 238.204 107.368 239.738 C 97.174 253.460,109.995 272.519,126.440 268.089 L 128.225 267.609 131.314 270.577 C 169.742 307.497,231.338 306.636,269.323 268.648 L 272.181 265.791 274.292 266.219 C 290.895 269.590,302.576 251.061,292.387 237.517 C 291.239 235.991,291.126 235.737,291.343 235.179 C 313.409 178.552,280.033 115.570,220.944 102.328 C 216.860 101.413,216.954 101.472,216.204 99.353 C 213.309 91.174,203.890 85.988,195.441 87.920 M219.664 113.129 C 270.034 125.047,299.420 178.111,282.776 227.093 C 281.473 230.928,281.739 230.695,278.745 230.620 C 264.895 230.276,255.886 244.584,262.183 256.925 C 263.528 259.560,263.666 259.149,260.369 262.328 C 226.507 294.975,172.224 295.102,138.506 262.614 L 136.749 260.921 137.696 259.071 C 144.219 246.314,133.685 230.668,119.921 232.673 C 117.866 232.972,118.041 233.139,116.735 229.630 C 98.416 180.430,126.954 126.203,177.922 113.365 C 182.274 112.269,182.461 112.276,183.112 113.557 C 189.695 126.502,207.971 126.983,214.997 114.395 C 216.175 112.285,216.191 112.265,216.637 112.393 C 216.857 112.456,218.219 112.788,219.664 113.129 M195.290 142.538 C 147.247 146.009,125.397 204.583,159.439 238.643 C 190.339 269.561,243.218 255.079,253.978 212.752 C 263.424 175.596,233.486 139.778,195.290 142.538 M193.819 154.023 C 193.716 154.417,190.810 159.489,175.043 186.803 C 173.443 189.574,168.908 197.430,164.966 204.259 C 161.024 211.089,157.667 216.677,157.506 216.677 C 157.345 216.677,156.872 215.732,156.454 214.577 C 146.878 188.113,162.748 159.893,190.500 154.038 C 193.315 153.444,193.971 153.441,193.819 154.023 M208.593 154.163 C 234.872 159.631,250.768 186.561,242.928 212.332 C 242.114 215.008,241.194 217.059,240.933 216.779 C 240.552 216.371,204.679 154.072,204.679 153.819 C 204.679 153.444,205.474 153.514,208.593 154.163 M234.284 227.908 C 234.476 228.217,231.254 231.604,228.846 233.625 C 212.085 247.693,188.398 248.138,171.086 234.709 C 168.772 232.915,164.367 228.546,164.367 228.046 C 164.367 227.671,234.053 227.533,234.284 227.908 " stroke="none" fill="#fcfcfc" fill-rule="evenodd"></path><path id="path1" d="M197.001 13.842 C 195.768 14.261,14.852 194.875,14.016 196.521 C 13.380 197.774,13.256 201.243,13.795 202.707 C 14.294 204.062,194.849 384.958,196.641 385.899 C 197.995 386.609,200.837 386.757,202.550 386.206 C 204.139 385.695,384.856 205.364,385.908 203.239 C 386.674 201.693,386.678 198.045,385.916 196.641 C 385.049 195.044,204.327 14.527,202.999 13.932 C 201.672 13.337,198.622 13.291,197.001 13.842 M204.799 88.404 C 210.101 90.199,214.438 94.362,216.204 99.353 C 216.954 101.472,216.860 101.413,220.944 102.328 C 280.033 115.570,313.409 178.552,291.343 235.179 C 291.126 235.737,291.239 235.991,292.387 237.517 C 302.576 251.061,290.895 269.590,274.292 266.219 L 272.181 265.791 269.323 268.648 C 231.338 306.636,169.742 307.497,131.314 270.577 L 128.225 267.609 126.440 268.089 C 109.995 272.519,97.174 253.460,107.368 239.738 L 108.508 238.204 107.308 235.179 C 90.444 192.644,105.094 144.163,142.814 117.678 C 153.862 109.920,164.723 105.289,180.279 101.701 L 181.674 101.380 182.231 99.772 C 185.434 90.536,195.749 85.340,204.799 88.404 M216.037 112.584 C 215.927 112.753,215.459 113.568,214.997 114.395 C 207.971 126.983,189.695 126.502,183.112 113.557 C 182.461 112.276,182.274 112.269,177.922 113.365 C 126.954 126.203,98.416 180.430,116.735 229.630 C 118.041 233.139,117.866 232.972,119.921 232.673 C 133.685 230.668,144.219 246.314,137.696 259.071 L 136.749 260.921 138.506 262.614 C 172.224 295.102,226.507 294.975,260.369 262.328 C 263.666 259.149,263.528 259.560,262.183 256.925 C 255.886 244.584,264.895 230.276,278.745 230.620 C 281.739 230.695,281.473 230.928,282.776 227.093 C 299.420 178.111,270.034 125.047,219.664 113.129 C 218.219 112.788,216.857 112.456,216.637 112.393 C 216.417 112.330,216.147 112.416,216.037 112.584 M205.879 142.799 C 236.892 146.188,259.798 175.869,255.208 206.719 C 248.348 252.831,192.294 271.517,159.439 238.643 C 121.789 200.972,152.786 136.998,205.879 142.799 M190.500 154.038 C 162.748 159.893,146.878 188.113,156.454 214.577 C 156.872 215.732,157.345 216.677,157.506 216.677 C 157.667 216.677,161.024 211.089,164.966 204.259 C 168.908 197.430,173.443 189.574,175.043 186.803 C 190.810 159.489,193.716 154.417,193.819 154.023 C 193.971 153.441,193.315 153.444,190.500 154.038 M204.679 153.819 C 204.679 154.072,240.552 216.371,240.933 216.779 C 241.194 217.059,242.114 215.008,242.928 212.332 C 250.768 186.561,234.872 159.631,208.593 154.163 C 205.474 153.514,204.679 153.444,204.679 153.819 M164.367 228.046 C 164.367 228.546,168.772 232.915,171.086 234.709 C 188.398 248.138,212.085 247.693,228.846 233.625 C 231.254 231.604,234.476 228.217,234.284 227.908 C 234.053 227.533,164.367 227.671,164.367 228.046 " stroke="none" fill="#d4a414" fill-rule="evenodd"></path></g></svg>