<svg id="svg" version="1.1" xmlns="http://www.w3.org/2000/svg" xmlns:xlink="http://www.w3.org/1999/xlink" width="400" height="400" viewBox="0, 0, 400,400"><g id="svgg"><path id="path0" d="M259.035 83.676 C 258.411 83.870,256.794 85.271,253.762 88.244 C 248.871 93.039,248.439 93.299,245.815 93.012 C 240.434 92.426,239.441 92.593,238.427 94.256 C 237.403 95.936,238.105 101.504,240.131 107.760 C 241.319 111.429,241.316 111.449,238.771 115.881 C 235.862 120.946,233.687 123.289,232.673 122.447 C 232.455 122.266,232.296 121.989,232.320 121.831 C 232.344 121.673,232.295 121.370,232.210 121.158 C 232.125 120.945,231.812 119.035,231.515 116.913 C 230.165 107.298,227.169 103.597,222.655 105.971 C 220.796 106.949,220.675 106.898,217.603 103.841 C 214.126 100.380,213.155 100.251,210.346 102.880 C 207.040 105.972,206.161 109.655,207.703 113.955 C 208.310 115.647,211.798 121.245,214.736 125.244 C 216.051 127.033,216.849 128.503,216.849 129.137 C 216.849 129.586,213.886 130.831,210.418 131.839 C 205.127 133.377,204.813 134.832,209.214 137.418 C 211.960 139.032,211.943 138.950,209.924 140.945 C 208.249 142.599,207.732 143.787,208.112 145.110 C 208.378 146.041,209.863 148.072,210.418 148.267 C 211.774 148.743,216.849 152.731,216.849 153.321 C 216.849 154.940,211.576 157.424,208.121 157.431 C 204.995 157.438,201.734 158.543,199.783 160.257 C 198.692 161.214,198.777 161.220,197.405 160.096 C 195.520 158.552,193.353 157.911,189.310 157.702 C 185.431 157.502,183.517 156.867,181.531 155.124 C 179.839 153.638,180.239 152.968,184.527 150.115 C 189.743 146.645,190.357 144.639,187.218 141.335 C 185.153 139.160,185.131 139.357,187.612 137.733 C 192.193 134.735,191.691 133.540,185.080 131.709 C 178.871 129.989,178.879 130.010,182.528 124.630 C 183.488 123.215,184.780 121.305,185.400 120.386 C 190.097 113.415,190.475 108.261,186.606 103.958 C 183.639 100.657,182.046 100.751,178.491 104.436 C 175.459 107.579,175.565 107.534,173.510 106.593 C 170.582 105.253,168.673 106.145,166.960 109.652 C 166.066 111.483,164.868 115.817,164.845 117.299 C 164.828 118.385,164.277 122.648,164.088 123.151 C 163.528 124.645,161.134 122.466,158.108 117.708 C 154.840 112.569,154.902 113.074,156.674 106.099 C 159.297 95.775,158.199 92.723,152.332 94.029 C 148.122 94.965,146.444 94.288,142.122 89.906 C 137.798 85.521,136.199 84.713,133.633 85.614 C 131.674 86.303,130.232 87.340,129.652 88.478 C 128.749 90.247,128.858 91.037,131.168 99.550 C 132.143 103.142,131.917 104.156,129.423 107.364 C 125.264 112.713,127.010 114.714,138.346 117.583 C 144.229 119.073,143.959 118.893,146.237 122.822 C 150.908 130.880,150.901 132.985,146.209 131.041 C 135.434 126.580,129.904 127.012,129.904 132.316 C 129.904 134.424,129.667 134.610,125.659 135.667 C 120.441 137.044,119.885 137.968,121.337 142.857 C 121.553 143.584,121.743 144.238,121.759 144.309 C 121.817 144.574,122.610 145.504,123.761 146.657 C 125.964 148.864,130.877 149.969,136.206 149.455 C 137.762 149.305,140.702 149.062,142.738 148.914 C 147.789 148.548,147.529 148.156,146.292 154.284 C 144.774 161.808,144.857 161.950,149.622 159.983 C 152.937 158.615,153.107 158.566,153.033 159.000 C 152.999 159.196,153.106 159.683,153.271 160.081 C 153.435 160.479,153.570 160.942,153.572 161.110 C 153.580 162.098,154.893 164.158,155.740 164.512 C 157.449 165.226,158.742 164.907,163.859 162.509 C 166.840 161.112,167.203 160.979,167.203 161.286 C 167.203 161.419,167.367 161.464,167.569 161.387 C 168.218 161.138,168.489 162.212,168.489 165.032 L 168.489 167.782 167.209 170.148 C 165.388 173.518,164.895 176.084,165.212 180.547 C 165.280 181.506,165.345 181.451,162.810 182.584 C 160.625 183.560,158.627 185.590,157.151 188.333 C 155.928 190.604,154.816 191.711,152.387 193.075 C 149.462 194.717,148.994 194.283,148.546 189.521 C 147.823 181.840,146.603 180.411,141.989 181.846 C 140.221 182.397,139.731 182.330,139.554 181.515 C 139.419 180.894,138.650 176.272,138.650 176.083 C 138.650 176.016,138.371 175.778,138.031 175.555 C 137.042 174.907,136.070 175.513,132.292 179.127 C 130.423 180.916,128.726 182.379,128.521 182.379 C 127.837 182.379,126.784 180.771,124.642 176.456 C 119.596 166.290,117.023 163.724,111.897 163.742 C 105.433 163.764,103.912 165.796,105.856 171.809 C 106.918 175.096,106.885 175.399,105.338 176.463 C 103.452 177.760,102.191 180.716,103.143 181.608 C 103.218 181.678,103.569 182.292,103.923 182.972 C 104.954 184.953,106.374 186.349,110.475 189.415 C 114.650 192.535,115.468 193.463,114.606 194.103 C 113.454 194.960,109.623 195.486,104.491 195.494 L 101.329 195.498 98.575 192.884 C 97.060 191.445,95.661 190.045,95.466 189.772 C 94.972 189.078,91.207 186.320,89.732 185.573 C 86.807 184.091,84.722 185.417,83.357 189.628 C 82.199 193.199,81.014 194.059,74.717 195.899 C 70.058 197.260,69.024 197.718,68.078 198.843 C 67.090 200.017,66.521 202.800,66.999 204.116 C 67.102 204.399,67.306 204.949,67.451 205.339 C 68.160 207.235,69.946 208.117,75.400 209.267 C 80.760 210.397,82.173 211.188,83.270 213.677 C 85.215 218.087,85.386 218.390,86.222 218.900 C 88.563 220.327,91.496 218.734,96.815 213.147 C 98.985 210.868,101.074 208.904,101.535 208.710 C 103.419 207.914,112.906 208.336,114.791 209.298 C 116.034 209.933,115.781 210.247,110.434 214.695 C 102.999 220.880,101.866 224.215,106.110 227.419 C 107.819 228.709,107.837 228.859,106.740 232.730 C 105.244 238.007,106.853 239.863,112.926 239.869 C 118.030 239.874,120.255 237.550,125.643 226.582 C 127.149 223.518,128.551 220.869,128.759 220.697 C 129.275 220.268,130.502 221.144,134.087 224.501 C 138.563 228.691,139.930 228.238,139.934 222.564 C 139.936 220.082,140.105 219.907,141.969 220.455 C 146.992 221.932,148.491 220.296,148.901 212.891 C 149.107 209.182,149.409 208.360,150.567 208.360 C 151.267 208.360,154.870 210.158,155.036 210.589 C 155.108 210.778,155.318 210.932,155.503 210.932 C 155.687 210.932,156.388 211.772,157.060 212.797 C 160.045 217.352,161.436 218.669,164.217 219.576 C 166.032 220.167,166.176 220.315,165.895 221.298 C 165.194 223.741,165.953 226.764,168.525 231.768 C 169.492 233.649,169.517 233.766,169.517 236.423 C 169.518 240.604,169.070 240.788,164.294 238.569 C 158.031 235.661,155.957 236.043,154.892 240.305 C 154.138 243.322,154.438 243.213,150.866 241.764 C 146.140 239.846,145.795 240.406,147.509 247.209 C 149.170 253.800,149.803 253.325,139.931 252.889 C 128.735 252.394,124.889 253.854,123.203 259.243 C 121.583 264.417,122.313 265.782,127.231 266.771 C 130.988 267.527,131.532 267.874,131.758 269.661 C 132.439 275.054,136.004 275.549,145.870 271.620 C 148.726 270.483,151.236 269.619,151.448 269.700 C 152.362 270.051,151.689 272.274,149.098 277.464 C 146.229 283.212,146.814 282.701,141.350 284.235 C 129.262 287.630,127.651 289.770,132.658 295.782 C 134.915 298.491,134.953 300.590,132.872 307.771 C 131.773 311.564,132.139 313.609,134.240 315.407 C 137.862 318.508,141.321 317.075,146.970 310.136 C 149.002 307.640,150.860 307.091,155.296 307.677 C 161.558 308.504,162.455 304.708,158.704 293.248 C 157.380 289.204,157.428 288.903,160.110 284.328 C 162.347 280.513,164.668 277.556,165.426 277.556 C 166.193 277.556,167.527 282.159,167.180 283.610 C 167.148 283.747,167.188 284.032,167.270 284.244 C 167.352 284.457,167.559 285.441,167.731 286.431 C 168.895 293.151,172.510 296.609,176.077 294.412 C 177.720 293.400,178.079 293.519,180.548 295.903 C 184.376 299.600,185.095 299.862,187.331 298.381 C 193.785 294.107,193.313 287.826,185.771 277.596 C 180.568 270.540,180.536 270.745,187.086 268.946 C 193.635 267.147,194.095 265.495,188.894 262.453 C 186.997 261.343,186.963 261.226,188.199 260.050 C 192.119 256.323,191.333 253.809,185.064 250.022 C 181.604 247.933,181.188 247.050,182.950 245.542 C 184.910 243.865,186.320 243.356,190.126 242.954 C 194.976 242.441,196.742 241.813,199.086 239.770 L 199.973 238.997 201.144 239.900 C 203.541 241.748,206.420 242.543,210.804 242.567 C 213.097 242.580,213.143 242.593,215.691 243.950 C 219.507 245.981,219.438 246.437,214.794 249.892 C 209.031 254.177,208.621 255.510,212.034 258.850 L 213.871 260.646 213.238 261.139 C 212.889 261.411,211.886 262.144,211.008 262.769 C 207.020 265.607,208.066 267.050,215.305 268.697 C 220.368 269.850,220.376 270.123,215.566 277.556 C 208.976 287.739,208.445 291.891,213.161 296.351 C 216.351 299.369,217.599 299.246,221.162 295.563 C 224.095 292.531,224.357 292.403,225.790 293.289 C 230.392 296.133,233.894 290.974,234.727 280.126 C 235.028 276.197,235.416 275.656,237.042 276.896 C 237.934 277.576,240.111 280.193,240.032 280.490 C 240.009 280.580,240.111 280.796,240.260 280.970 C 244.098 285.452,244.464 287.041,243.006 292.904 C 241.309 299.733,241.105 301.240,241.636 303.066 C 242.364 305.568,244.145 306.507,246.943 305.864 C 251.518 304.811,252.688 305.189,256.631 308.985 C 258.147 310.445,259.644 311.883,259.956 312.180 C 262.345 314.449,264.583 314.870,267.229 313.547 C 270.680 311.823,271.205 309.296,269.332 303.419 C 267.410 297.387,267.494 294.810,269.682 292.787 C 275.109 287.769,271.493 283.924,258.989 281.418 C 255.372 280.693,255.316 280.650,253.058 276.866 C 250.406 272.420,248.911 268.811,249.397 268.025 C 249.715 267.511,251.372 267.823,254.058 268.903 C 264.564 273.124,269.315 272.510,269.323 266.928 C 269.326 265.077,269.669 264.858,274.434 263.664 C 277.179 262.977,279.521 261.086,278.674 260.239 C 278.594 260.159,278.364 259.307,278.162 258.347 C 276.576 250.777,272.465 249.236,257.848 250.731 C 251.254 251.406,251.270 251.422,252.716 245.512 C 254.445 238.446,253.739 237.431,248.816 239.908 C 245.995 241.326,245.906 241.295,245.262 238.666 C 244.233 234.469,242.010 234.061,236.058 236.977 C 230.818 239.546,230.366 239.380,230.358 234.898 L 230.354 232.154 231.539 229.839 C 233.557 225.899,234.026 223.546,233.497 220.007 L 233.296 218.664 235.295 217.716 C 237.795 216.529,239.668 214.699,241.500 211.655 C 242.901 209.328,243.714 208.536,246.302 206.976 C 249.074 205.306,249.612 205.802,250.031 210.418 C 250.719 218.008,251.795 219.288,256.508 218.124 C 259.094 217.485,259.281 217.549,259.289 219.077 C 259.320 225.444,261.395 226.082,265.849 221.092 C 270.060 216.376,270.575 216.515,273.945 223.280 C 274.685 224.765,275.795 226.820,276.411 227.846 C 277.026 228.871,277.479 229.711,277.417 229.711 C 277.355 229.711,277.467 229.913,277.666 230.161 C 277.865 230.408,278.536 231.248,279.157 232.026 C 282.721 236.488,287.791 237.427,292.449 234.487 C 294.241 233.355,294.188 231.975,292.076 224.809 C 291.946 224.365,292.496 223.733,293.857 222.765 C 297.661 220.060,295.671 216.024,287.431 209.732 C 281.940 205.540,282.159 205.053,289.775 204.527 C 297.744 203.977,296.873 203.638,303.280 209.778 C 309.674 215.906,313.378 216.004,315.205 210.096 C 316.369 206.333,317.809 205.280,324.078 203.611 C 330.812 201.819,333.032 198.977,331.177 194.526 C 330.151 192.062,329.114 191.497,323.574 190.386 C 317.250 189.117,315.719 188.073,314.472 184.180 C 312.531 178.120,309.478 178.652,301.832 186.384 C 296.411 191.865,297.334 191.458,290.630 191.325 C 281.821 191.150,281.400 190.644,286.481 186.344 C 294.804 179.302,296.450 176.078,293.169 173.253 C 290.247 170.737,290.371 171.228,291.597 166.981 C 293.074 161.869,291.444 159.922,285.659 159.886 C 279.982 159.851,277.682 162.373,271.902 174.976 C 269.439 180.346,269.703 180.318,264.684 175.761 C 259.843 171.366,258.640 171.504,258.539 176.463 C 258.470 179.831,258.269 180.007,255.331 179.270 C 251.129 178.216,249.951 179.850,249.544 187.295 C 249.267 192.381,248.457 192.747,243.963 189.822 C 242.737 189.024,242.102 188.352,241.048 186.733 C 238.663 183.072,235.025 180.065,232.979 180.065 C 232.580 180.064,232.545 179.932,232.721 179.100 C 233.294 176.401,232.688 173.630,230.625 169.518 C 229.355 166.986,229.260 166.661,229.101 164.334 C 228.777 159.576,229.306 159.397,235.370 162.217 C 240.485 164.595,242.895 163.965,243.751 160.025 C 244.367 157.183,244.401 157.167,247.113 158.410 C 252.413 160.839,252.825 160.269,251.066 152.947 C 249.564 146.693,249.235 146.989,257.088 147.537 C 269.816 148.425,274.183 146.655,275.911 139.908 C 276.935 135.915,276.042 134.722,271.125 133.514 C 267.131 132.532,267.010 132.465,267.010 131.252 C 267.010 125.215,262.083 124.622,251.269 129.358 C 249.614 130.083,248.028 130.675,247.744 130.675 C 245.952 130.675,246.961 127.275,250.747 120.551 C 252.425 117.573,252.299 117.649,258.486 115.855 C 269.361 112.700,271.050 110.424,266.472 105.094 C 264.068 102.296,263.895 100.463,265.472 94.534 C 266.759 89.692,266.869 87.997,265.987 86.570 C 264.578 84.289,261.366 82.952,259.035 83.676 " stroke="none" fill="#fcfcfc" fill-rule="evenodd"></path><path id="path1" d="M197.170 1.132 C 195.034 2.223,1.507 195.960,0.895 197.621 C 0.352 199.093,0.472 201.617,1.148 202.970 C 1.877 204.427,195.361 397.836,196.913 398.659 C 198.669 399.589,201.262 399.623,202.958 398.737 C 204.821 397.764,398.012 204.476,398.719 202.878 C 399.556 200.985,399.628 199.484,398.968 197.685 C 398.347 195.993,205.875 2.920,203.253 1.358 C 201.552 0.346,198.904 0.247,197.170 1.132 M262.033 83.727 C 266.606 85.085,267.357 87.445,265.472 94.534 C 263.895 100.463,264.068 102.296,266.472 105.094 C 271.050 110.424,269.361 112.700,258.486 115.855 C 252.299 117.649,252.425 117.573,250.747 120.551 C 246.961 127.275,245.952 130.675,247.744 130.675 C 248.028 130.675,249.614 130.083,251.269 129.358 C 262.083 124.622,267.010 125.215,267.010 131.252 C 267.010 132.465,267.131 132.532,271.125 133.514 C 276.042 134.722,276.935 135.915,275.911 139.908 C 274.183 146.655,269.816 148.425,257.088 147.537 C 249.235 146.989,249.564 146.693,251.066 152.947 C 252.825 160.269,252.413 160.839,247.113 158.410 C 244.401 157.167,244.367 157.183,243.751 160.025 C 242.895 163.965,240.485 164.595,235.370 162.217 C 229.306 159.397,228.777 159.576,229.101 164.334 C 229.260 166.661,229.355 166.986,230.625 169.518 C 232.688 173.630,233.294 176.401,232.721 179.100 C 232.545 179.932,232.580 180.064,232.979 180.065 C 235.025 180.065,238.663 183.072,241.048 186.733 C 242.102 188.352,242.737 189.024,243.963 189.822 C 248.457 192.747,249.267 192.381,249.544 187.295 C 249.951 179.850,251.129 178.216,255.331 179.270 C 258.269 180.007,258.470 179.831,258.539 176.463 C 258.640 171.504,259.843 171.366,264.684 175.761 C 269.703 180.318,269.439 180.346,271.902 174.976 C 277.682 162.373,279.982 159.851,285.659 159.886 C 291.444 159.922,293.074 161.869,291.597 166.981 C 290.371 171.228,290.247 170.737,293.169 173.253 C 296.450 176.078,294.804 179.302,286.481 186.344 C 281.400 190.644,281.821 191.150,290.630 191.325 C 297.334 191.458,296.411 191.865,301.832 186.384 C 309.478 178.652,312.531 178.120,314.472 184.180 C 315.719 188.073,317.250 189.117,323.574 190.386 C 329.114 191.497,330.151 192.062,331.177 194.526 C 333.032 198.977,330.812 201.819,324.078 203.611 C 317.809 205.280,316.369 206.333,315.205 210.096 C 313.378 216.004,309.674 215.906,303.280 209.778 C 296.873 203.638,297.744 203.977,289.775 204.527 C 282.159 205.053,281.940 205.540,287.431 209.732 C 295.671 216.024,297.661 220.060,293.857 222.765 C 292.496 223.733,291.946 224.365,292.076 224.809 C 294.188 231.975,294.241 233.355,292.449 234.487 C 287.791 237.427,282.721 236.488,279.157 232.026 C 278.536 231.248,277.865 230.408,277.666 230.161 C 277.467 229.913,277.355 229.711,277.417 229.711 C 277.479 229.711,277.026 228.871,276.411 227.846 C 275.795 226.820,274.685 224.765,273.945 223.280 C 270.575 216.515,270.060 216.376,265.849 221.092 C 261.395 226.082,259.320 225.444,259.289 219.077 C 259.281 217.549,259.094 217.485,256.508 218.124 C 251.795 219.288,250.719 218.008,250.031 210.418 C 249.612 205.802,249.074 205.306,246.302 206.976 C 243.714 208.536,242.901 209.328,241.500 211.655 C 239.668 214.699,237.795 216.529,235.295 217.716 L 233.296 218.664 233.497 220.007 C 234.026 223.546,233.557 225.899,231.539 229.839 L 230.354 232.154 230.358 234.898 C 230.366 239.380,230.818 239.546,236.058 236.977 C 242.010 234.061,244.233 234.469,245.262 238.666 C 245.906 241.295,245.995 241.326,248.816 239.908 C 253.739 237.431,254.445 238.446,252.716 245.512 C 251.270 251.422,251.254 251.406,257.848 250.731 C 272.465 249.236,276.576 250.777,278.162 258.347 C 278.364 259.307,278.594 260.159,278.674 260.239 C 279.521 261.086,277.179 262.977,274.434 263.664 C 269.669 264.858,269.326 265.077,269.323 266.928 C 269.315 272.510,264.564 273.124,254.058 268.903 C 251.372 267.823,249.715 267.511,249.397 268.025 C 248.911 268.811,250.406 272.420,253.058 276.866 C 255.316 280.650,255.372 280.693,258.989 281.418 C 271.493 283.924,275.109 287.769,269.682 292.787 C 267.494 294.810,267.410 297.387,269.332 303.419 C 271.205 309.296,270.680 311.823,267.229 313.547 C 264.583 314.870,262.345 314.449,259.956 312.180 C 259.644 311.883,258.147 310.445,256.631 308.985 C 252.688 305.189,251.518 304.811,246.943 305.864 C 244.145 306.507,242.364 305.568,241.636 303.066 C 241.105 301.240,241.309 299.733,243.006 292.904 C 244.464 287.041,244.098 285.452,240.260 280.970 C 240.111 280.796,240.009 280.580,240.032 280.490 C 240.111 280.193,237.934 277.576,237.042 276.896 C 235.416 275.656,235.028 276.197,234.727 280.126 C 233.894 290.974,230.392 296.133,225.790 293.289 C 224.357 292.403,224.095 292.531,221.162 295.563 C 217.599 299.246,216.351 299.369,213.161 296.351 C 208.445 291.891,208.976 287.739,215.566 277.556 C 220.376 270.123,220.368 269.850,215.305 268.697 C 208.066 267.050,207.020 265.607,211.008 262.769 C 211.886 262.144,212.889 261.411,213.238 261.139 L 213.871 260.646 212.034 258.850 C 208.621 255.510,209.031 254.177,214.794 249.892 C 219.438 246.437,219.507 245.981,215.691 243.950 C 213.143 242.593,213.097 242.580,210.804 242.567 C 206.420 242.543,203.541 241.748,201.144 239.900 L 199.973 238.997 199.086 239.770 C 196.742 241.813,194.976 242.441,190.126 242.954 C 186.320 243.356,184.910 243.865,182.950 245.542 C 181.188 247.050,181.604 247.933,185.064 250.022 C 191.333 253.809,192.119 256.323,188.199 260.050 C 186.963 261.226,186.997 261.343,188.894 262.453 C 194.095 265.495,193.635 267.147,187.086 268.946 C 180.536 270.745,180.568 270.540,185.771 277.596 C 193.313 287.826,193.785 294.107,187.331 298.381 C 185.095 299.862,184.376 299.600,180.548 295.903 C 178.079 293.519,177.720 293.400,176.077 294.412 C 172.510 296.609,168.895 293.151,167.731 286.431 C 167.559 285.441,167.352 284.457,167.270 284.244 C 167.188 284.032,167.148 283.747,167.180 283.610 C 167.527 282.159,166.193 277.556,165.426 277.556 C 164.668 277.556,162.347 280.513,160.110 284.328 C 157.428 288.903,157.380 289.204,158.704 293.248 C 162.455 304.708,161.558 308.504,155.296 307.677 C 150.860 307.091,149.002 307.640,146.970 310.136 C 141.321 317.075,137.862 318.508,134.240 315.407 C 132.139 313.609,131.773 311.564,132.872 307.771 C 134.953 300.590,134.915 298.491,132.658 295.782 C 127.651 289.770,129.262 287.630,141.350 284.235 C 146.814 282.701,146.229 283.212,149.098 277.464 C 151.689 272.274,152.362 270.051,151.448 269.700 C 151.236 269.619,148.726 270.483,145.870 271.620 C 136.004 275.549,132.439 275.054,131.758 269.661 C 131.532 267.874,130.988 267.527,127.231 266.771 C 122.313 265.782,121.583 264.417,123.203 259.243 C 124.889 253.854,128.735 252.394,139.931 252.889 C 149.803 253.325,149.170 253.800,147.509 247.209 C 145.795 240.406,146.140 239.846,150.866 241.764 C 154.438 243.213,154.138 243.322,154.892 240.305 C 155.957 236.043,158.031 235.661,164.294 238.569 C 169.070 240.788,169.518 240.604,169.517 236.423 C 169.517 233.766,169.492 233.649,168.525 231.768 C 165.953 226.764,165.194 223.741,165.895 221.298 C 166.176 220.315,166.032 220.167,164.217 219.576 C 161.436 218.669,160.045 217.352,157.060 212.797 C 156.388 211.772,155.687 210.932,155.503 210.932 C 155.318 210.932,155.108 210.778,155.036 210.589 C 154.870 210.158,151.267 208.360,150.567 208.360 C 149.409 208.360,149.107 209.182,148.901 212.891 C 148.491 220.296,146.992 221.932,141.969 220.455 C 140.105 219.907,139.936 220.082,139.934 222.564 C 139.930 228.238,138.563 228.691,134.087 224.501 C 130.502 221.144,129.275 220.268,128.759 220.697 C 128.551 220.869,127.149 223.518,125.643 226.582 C 120.255 237.550,118.030 239.874,112.926 239.869 C 106.853 239.863,105.244 238.007,106.740 232.730 C 107.837 228.859,107.819 228.709,106.110 227.419 C 101.866 224.215,102.999 220.880,110.434 214.695 C 115.781 210.247,116.034 209.933,114.791 209.298 C 112.906 208.336,103.419 207.914,101.535 208.710 C 101.074 208.904,98.985 210.868,96.815 213.147 C 91.496 218.734,88.563 220.327,86.222 218.900 C 85.386 218.390,85.215 218.087,83.270 213.677 C 82.173 211.188,80.760 210.397,75.400 209.267 C 69.946 208.117,68.160 207.235,67.451 205.339 C 67.306 204.949,67.102 204.399,66.999 204.116 C 66.521 202.800,67.090 200.017,68.078 198.843 C 69.024 197.718,70.058 197.260,74.717 195.899 C 81.014 194.059,82.199 193.199,83.357 189.628 C 84.722 185.417,86.807 184.091,89.732 185.573 C 91.207 186.320,94.972 189.078,95.466 189.772 C 95.661 190.045,97.060 191.445,98.575 192.884 L 101.329 195.498 104.491 195.494 C 109.623 195.486,113.454 194.960,114.606 194.103 C 115.468 193.463,114.650 192.535,110.475 189.415 C 106.374 186.349,104.954 184.953,103.923 182.972 C 103.569 182.292,103.218 181.678,103.143 181.608 C 102.191 180.716,103.452 177.760,105.338 176.463 C 106.885 175.399,106.918 175.096,105.856 171.809 C 103.912 165.796,105.433 163.764,111.897 163.742 C 117.023 163.724,119.596 166.290,124.642 176.456 C 126.784 180.771,127.837 182.379,128.521 182.379 C 128.726 182.379,130.423 180.916,132.292 179.127 C 136.070 175.513,137.042 174.907,138.031 175.555 C 138.371 175.778,138.650 176.016,138.650 176.083 C 138.650 176.272,139.419 180.894,139.554 181.515 C 139.731 182.330,140.221 182.397,141.989 181.846 C 146.603 180.411,147.823 181.840,148.546 189.521 C 148.994 194.283,149.462 194.717,152.387 193.075 C 154.816 191.711,155.928 190.604,157.151 188.333 C 158.627 185.590,160.625 183.560,162.810 182.584 C 165.345 181.451,165.280 181.506,165.212 180.547 C 164.895 176.084,165.388 173.518,167.209 170.148 L 168.489 167.782 168.489 165.032 C 168.489 162.212,168.218 161.138,167.569 161.387 C 167.367 161.464,167.203 161.419,167.203 161.286 C 167.203 160.979,166.840 161.112,163.859 162.509 C 158.742 164.907,157.449 165.226,155.740 164.512 C 154.893 164.158,153.580 162.098,153.572 161.110 C 153.570 160.942,153.435 160.479,153.271 160.081 C 153.106 159.683,152.999 159.196,153.033 159.000 C 153.107 158.566,152.937 158.615,149.622 159.983 C 144.857 161.950,144.774 161.808,146.292 154.284 C 147.529 148.156,147.789 148.548,142.738 148.914 C 140.702 149.062,137.762 149.305,136.206 149.455 C 130.877 149.969,125.964 148.864,123.761 146.657 C 122.610 145.504,121.817 144.574,121.759 144.309 C 121.743 144.238,121.553 143.584,121.337 142.857 C 119.885 137.968,120.441 137.044,125.659 135.667 C 129.667 134.610,129.904 134.424,129.904 132.316 C 129.904 127.012,135.434 126.580,146.209 131.041 C 150.901 132.985,150.908 130.880,146.237 122.822 C 143.959 118.893,144.229 119.073,138.346 117.583 C 127.010 114.714,125.264 112.713,129.423 107.364 C 131.917 104.156,132.143 103.142,131.168 99.550 C 128.858 91.037,128.749 90.247,129.652 88.478 C 130.232 87.340,131.674 86.303,133.633 85.614 C 136.199 84.713,137.798 85.521,142.122 89.906 C 146.444 94.288,148.122 94.965,152.332 94.029 C 158.199 92.723,159.297 95.775,156.674 106.099 C 154.902 113.074,154.840 112.569,158.108 117.708 C 161.134 122.466,163.528 124.645,164.088 123.151 C 164.277 122.648,164.828 118.385,164.845 117.299 C 164.868 115.817,166.066 111.483,166.960 109.652 C 168.673 106.145,170.582 105.253,173.510 106.593 C 175.565 107.534,175.459 107.579,178.491 104.436 C 182.046 100.751,183.639 100.657,186.606 103.958 C 190.475 108.261,190.097 113.415,185.400 120.386 C 184.780 121.305,183.488 123.215,182.528 124.630 C 178.879 130.010,178.871 129.989,185.080 131.709 C 191.691 133.540,192.193 134.735,187.612 137.733 C 185.131 139.357,185.153 139.160,187.218 141.335 C 190.357 144.639,189.743 146.645,184.527 150.115 C 180.239 152.968,179.839 153.638,181.531 155.124 C 183.517 156.867,185.431 157.502,189.310 157.702 C 193.353 157.911,195.520 158.552,197.405 160.096 C 198.777 161.220,198.692 161.214,199.783 160.257 C 201.734 158.543,204.995 157.438,208.121 157.431 C 211.576 157.424,216.849 154.940,216.849 153.321 C 216.849 152.731,211.774 148.743,210.418 148.267 C 209.863 148.072,208.378 146.041,208.112 145.110 C 207.732 143.787,208.249 142.599,209.924 140.945 C 211.943 138.950,211.960 139.032,209.214 137.418 C 204.813 134.832,205.127 133.377,210.418 131.839 C 213.886 130.831,216.849 129.586,216.849 129.137 C 216.849 128.503,216.051 127.033,214.736 125.244 C 211.798 121.245,208.310 115.647,207.703 113.955 C 206.161 109.655,207.040 105.972,210.346 102.880 C 213.155 100.251,214.126 100.380,217.603 103.841 C 220.675 106.898,220.796 106.949,222.655 105.971 C 227.169 103.597,230.165 107.298,231.515 116.913 C 231.812 119.035,232.125 120.945,232.210 121.158 C 232.295 121.370,232.344 121.673,232.320 121.831 C 232.296 121.989,232.455 122.266,232.673 122.447 C 233.687 123.289,235.862 120.946,238.771 115.881 C 241.316 111.449,241.319 111.429,240.131 107.760 C 238.105 101.504,237.403 95.936,238.427 94.256 C 239.441 92.593,240.434 92.426,245.815 93.012 C 248.439 93.299,248.871 93.039,253.762 88.244 C 258.889 83.216,259.391 82.943,262.033 83.727 " stroke="none" fill="#0c4c64" fill-rule="evenodd"></path></g></svg>