<svg height="580" viewBox="0 0 580 580" width="580" xmlns="http://www.w3.org/2000/svg" xmlns:xlink="http://www.w3.org/1999/xlink"><clipPath id="a"><path d="m-10-10h600v600h-600z"/></clipPath><clipPath id="b"><path d="m290 .65c-5.02 0-10.08 1.93-13.9 5.78l-269.68 269.64c-7.66 7.71-7.66 20.15 0 27.86l269.68 269.64c7.67 7.7 20.15 7.7 27.82 0l269.68-269.64c3.82-3.86 5.74-8.91 5.74-13.93 0-5.05-1.92-10.08-5.74-13.93l-269.68-269.64c-3.85-3.85-8.87-5.78-13.92-5.78z"/></clipPath><g clip-path="url(#a)"><path d="m290 574.33c-3.92 0-7.6-1.51-10.38-4.3l-269.65-269.64c-2.78-2.79-4.3-6.47-4.3-10.39s1.52-7.63 4.3-10.38l269.65-269.68c2.78-2.75 6.46-4.3 10.38-4.3s7.6 1.55 10.39 4.3l269.64 269.68c2.79 2.75 4.3 6.46 4.3 10.38s-1.51 7.6-4.3 10.39l-269.64 269.64c-2.79 2.79-6.47 4.3-10.39 4.3z" fill="#2f9da3"/><path d="m303.93 6.43 269.64 269.65c7.71 7.7 7.71 20.15 0 27.81l-269.64 269.68c-3.85 3.82-8.91 5.75-13.93 5.75s-10.07-1.93-13.92-5.75l-269.65-269.68c-7.7-7.66-7.7-20.11 0-27.81l269.65-269.65c3.85-3.85 8.9-5.78 13.92-5.78s10.08 1.93 13.93 5.78zm-20.77 7.05-269.65 269.68c-3.78 3.75-3.78 9.9 0 13.69l269.65 269.64c1.82 1.82 4.26 2.86 6.84 2.86s5.02-1.04 6.85-2.86l269.64-269.64c3.78-3.79 3.78-9.94 0-13.69l-269.64-269.68c-1.83-1.82-4.27-2.82-6.85-2.82s-5.02 1-6.84 2.82z" fill="#fff" fill-rule="evenodd"/><g clip-path="url(#b)"><path d="m290.94 190.79-10.25 7.29-24.58-15.47-13.69-55.15 27.58 7.04 17.29 18.92zm64.73 157.88-3.54-24.13 14.92-20.05 46.93 12.76-2.95 40.33h-28.96zm-107.78 87.28 17.77-42.15 16.85-10.7 18.71 26.41 5.23 21.66-22.56 13.9zm86.08-389.17 64.77 64.76-20.08 36.43-49.2 22.08-21.66-26.65 4.12-32.8-10.72-51.27zm-57.38-30.53c3.68-3.71 8.56-5.57 13.41-5.57 4.88 0 9.72 1.86 13.44 5.57l2.42 2.42-23.58 43.18 4.13 62.89-24.86-20.29-59.58-13.59zm181.15 196.63-6.61-11.83 22.76-14.36 28.41 28.4zm-151.52 256.56c15.82 24.87 27.75 43.45 35.78 55.75l-38.56 38.55c-7.4 7.44-19.45 7.44-26.85 0l-52.71-52.69 14.43-48.66zm117.18-333.25 32.19 32.19-33.85 45.19-48.76 30.54-5.02-6.36 26.89-25.55-1.58-35.76zm-47.47 68.15-29.85 34.29-16.16-8.63-1.61-19.6 44.66-40.34zm68.58 218.35-84.54 84.53-38.96-48.27 7.29-42.6-14.34-20.05 17.54-34.18 18.02 14.82 71.76 9.56zm-238.55 70.44-89.12-89.11 39.47-30.51 9.56-53.09h38.27l36 50.82-31.22 66.75zm-48.64-357.62 28-28 38.18 7.42 14.82 69.93 19.36 15.96-15.47 16.64-31.22-10.04-26.2-28.02zm406.45 141.05c1.93 1.94 3.35 4.2 4.27 6.61l-46.29 5.59-60.14-3.65-40.57 19.36-50.58-15.71-2.51-14.34 47.62-34.63 37.13-11.17 75.86 12.73zm-9.94 36.82-93 93-27.93-40.59-2.27-49.68 55.12 1.13zm-455.88 71.76-57.28-57.28 24.48-5.62 34.42 18.91 40.34-14.09-5.47 29.36zm88.87-160.17 24.86 5.26 16.4 28.13-20.53 34.28-61.27 8.42-28.47 7.08-19.4-23.48v-40.54l44.22-8.91 38.27-26.64zm-97.5-21.48 51.84-51.83 28.13 34.58-33.97 26.2-29.16 5.02zm-72.56 72.56 50.12-50.12c1.31 11.2 3.01 25.47 5.11 42.8l7.53 27.78-29.16-.89z" fill="#fff" fill-rule="evenodd"/></g><path d="m304.13 265.05c-9.38-12.96-14.71-26.44-16.71-32.04-.31-.86-1.51-.86-1.82 0-2.03 5.6-7.36 19.08-16.74 32.04-12.25 16.96-18.47 25.21-18.47 39.48 0 19.94 16.16 36.1 36.11 36.1 19.94 0 36.1-16.16 36.1-36.1 0-14.27-6.19-22.52-18.47-39.48z" fill="#fff"/></g></svg>