<svg height="580" viewBox="0 0 580 580" width="580" xmlns="http://www.w3.org/2000/svg" xmlns:xlink="http://www.w3.org/1999/xlink"><clipPath id="a"><path d="m590 588.05h-600v-596.1h600z"/></clipPath><g clip-path="url(#a)"><path d="m290 574.35c-3.92 0-7.61-1.53-10.38-4.3l-269.67-269.67c-5.73-5.72-5.73-15.04 0-20.76l269.67-269.67c2.77-2.77 6.46-4.3 10.38-4.3s7.6 1.53 10.38 4.3l269.66 269.67c2.78 2.77 4.3 6.46 4.3 10.38s-1.52 7.61-4.3 10.38l-269.66 269.67c-2.78 2.77-6.46 4.3-10.38 4.3z" fill="#2ba2c5"/><path d="m303.92 6.42 269.66 269.66c7.69 7.69 7.69 20.15 0 27.84l-269.66 269.66c-3.85 3.85-8.88 5.77-13.92 5.77s-10.07-1.92-13.92-5.77l-269.66-269.66c-7.69-7.69-7.69-20.15 0-27.84l269.66-269.66c3.85-3.85 8.88-5.77 13.92-5.77s10.07 1.92 13.92 5.77zm-20.77 7.07-269.66 269.66c-3.78 3.78-3.78 9.92 0 13.7l269.66 269.66c1.83 1.83 4.26 2.84 6.85 2.84s5.02-1.01 6.85-2.84l269.66-269.66c3.78-3.78 3.78-9.92 0-13.7l-269.66-269.66c-1.83-1.83-4.26-2.84-6.85-2.84s-5.02 1.01-6.85 2.84z" fill="#fff" fill-rule="evenodd"/><path d="m182.96 282.7c2.59-59.2 52.68-105.1 111.89-102.52 59.2 2.59 105.11 52.68 102.52 111.89-2.58 59.2-52.68 105.1-111.88 102.52-59.21-2.59-105.11-52.68-102.53-111.89z" fill="#fff"/><path d="m373.06 291c2-45.78-33.49-84.51-79.27-86.51-45.79-2-84.52 33.49-86.52 79.28-2 45.78 33.5 84.51 79.28 86.51s84.51-33.49 86.51-79.28z" fill="#2ba2c5"/><g fill="#fff"><path d="m231.12 377.01 55.09-79.98-12.16 96.45-57.46 85.1z"/><path d="m318.7 390.87-12.25-66.5 41.5 53.48 13.61 70.19z"/><path d="m393.65 258.85-66.49 12.25 53.47-41.5 70.19-13.61z"/><path d="m261.63 183.9 12.25 66.5-41.5-53.48-13.61-70.19z"/><path d="m186.68 315.92 66.5-12.25-53.48 41.5-70.19 13.61z"/><path d="m379.79 346.43-79.98-55.09 96.45 12.16 85.1 57.46z"/><path d="m349.21 197.76-55.09 79.98 12.17-96.45 57.45-85.1z"/><path d="m200.55 228.34 79.97 55.09-96.45-12.16-85.1-57.46z"/></g></g></svg>