<svg xmlns="http://www.w3.org/2000/svg" width="682.667" height="682.667" viewBox="0 0 512 512"><path d="M192 24.1c-44 4.7-90.3 24.6-129.5 55.7-7.8 6.2-27.2 24.7-28.6 27.4-.9 1.7-.3 1.7 9.3 1.2 20.5-1.3 50.5 2.6 66.9 8.6 24.3 8.9 36.2 25.1 34.7 47.2-1.1 15.4-10.8 27.1-38.9 47.1-30.4 21.6-42.3 32.5-52.4 48-11.8 18.3-16.6 35.2-16.6 59.2 0 22.5 4.5 41.4 14.5 61.4 9.8 19.4 18.9 32.2 34.6 48.4 28.5 29.6 63.5 49.5 100.3 56.9l11.2 2.3h202.4l2.8-2.1c4.3-3.2 4.2-6.5-.7-11.8-6.6-7.2-21.8-14-42.7-19.1-6-1.5-11.4-2.9-12.2-3.1-.9-.3.4-2.3 4-6.2 3-3.1 8.6-9.5 12.5-14.2 43.1-51.9 38.9-93.5-10.3-101-9.7-1.5-20.2-.7-32.5 2.4-21.2 5.4-37.9 16.7-49.1 33.1-6.8 9.9-9.5 18.5-12 37.5-.3 2.2-.6 1.9-2.7-2.5-5.1-10.9-3.2-28.5 4.7-44 8.2-15.9 20.1-27.4 36.8-35.6 14.4-7 26.5-9.9 44.7-10.6l14.7-.6 7.8 5.1c19.7 12.9 33.2 17.5 50.8 17.4 10.4 0 20.8-1.2 28.5-3.2 5-1.3 7.5-5.8 7.5-13.7 0-5.5-.3-6.5-2.9-9.2-1.6-1.7-3.7-3.3-4.6-3.6s-9.5-1.1-19.1-1.9l-17.4-1.4-9.6-10.1c-10.6-11-13.9-16.5-13.9-23 0-5.7 2.2-10 8.2-16.1 8.5-8.7 7.6-8.5 22.4-5 41.1 9.8 56.7 9.3 61.7-1.9 5.1-11.4.2-47.7-9.2-68.5-8.8-19.5-24.4-33.4-42.6-38.1-3.2-.8-7.2-1.5-8.7-1.5-1.7 0-3.1-.7-3.8-1.9-1.4-2.8-1.2-11.7.5-20.8 2-10.2 1.9-16.7-.1-18.7-3.9-3.9-16.2-.5-27.7 7.7-12.4 8.9-22.7 23.1-22.7 31.4 0 2.8-.6 3.6-4.2 5.4-12.6 6.4-34.9 29.5-53.1 54.8-.6 1-5.5 3.9-10.7 6.4-23.3 11.4-46.8 34.6-68.3 67.2-18.6 28.4-33.1 59.2-40.3 86l-2.5 9 .6-13c1.7-39.9 12.4-74.4 32.4-104.3 13.8-20.6 32.4-38.5 65-62.9 41.4-30.9 47.8-41.9 40.3-69C307 57.8 267.6 26.4 211 23.7c-5.8-.3-14.3-.1-19 .4m248.3 148.3c1.4 1 3.4 3.8 4.3 6.2 1.6 4.1 1.6 4.7 0 8.8-3.9 10.2-17 11.5-22.6 2.3-7.2-11.8 6.7-24.9 18.3-17.3"/></svg>