<svg xmlns="http://www.w3.org/2000/svg" width="745.565" height="745.565" viewBox="0 0 197.264 197.264">
    <path
        d="M98.632 194.588c-25.63 0-49.728-9.982-67.85-28.105-18.124-18.123-28.105-42.22-28.105-67.85 0-25.631 9.98-49.729 28.105-67.851 18.122-18.124 42.22-28.105 67.85-28.105s49.728 9.98 67.85 28.105c18.124 18.122 28.106 42.22 28.106 67.85s-9.982 49.728-28.105 67.85c-18.123 18.124-42.22 28.106-67.85 28.106"
        style="fill:none;fill-opacity:1;fill-rule:nonzero;stroke:currentColor;stroke-width:5.353;stroke-miterlimit:4;stroke-dasharray:none;stroke-opacity:1" />
    <g style="fill:currentColor;fill-opacity:1">
        <path
            d="M69.3 15.1c10.2 1.8 17 7.9 22.4 15.7 5.6 8.1 9.5 17.2 11.6 26.8 1.5 6.8 2.6 13.7 3.9 20.6.2.8.1 1.7.2 3-1.3-.6-2.5-1.3-3.7-2-4.7-3.3-9.5-6.4-13.8-10-4.7-3.8-9.1-8-13.3-12.3-4.7-5.1-8.3-11.1-10.7-17.6-.4-1.4-.5-3-.2-4.4.9-5.8 1.9-11.6 2.9-17.4.2-.9.4-1.7.7-2.4M51.2 15.1c.7 4.6 1.5 9.1 2.3 13.4.1 1.4.4 2.9.7 4.3.9 3.4.4 7-1.5 10-4 8.4-9.8 15.9-17 21.8-5.6 4.6-10.7 9.8-17.2 13.3-1.8 1.1-3.7 2.1-6 3.3.2-1.9.4-3.3.5-4.8 1.4-13.7 5.2-27 11.4-39.3 2.6-5.1 6-9.7 10.2-13.7 4.5-4.4 10.3-7.3 16.6-8.3M64.3 45c6.6 12.1 16.3 22.3 28.1 29.4.9 4.8-.2 21.3-1.7 25.5-4.8-3.1-9.1-7-12.5-11.5-6.6-8.4-11.7-17.9-15-28q-.45-1.35-.3-2.7c.5-4.2.9-8.2 1.4-12.7M79.1 92.5c-4.2 7-8.6 13.3-16.9 16.1v-40c4.2 8.9 9.9 17 16.9 23.9M58 108.7c-8.5-2.9-12.9-9.2-16.9-16.1 7-6.9 12.7-15.1 16.9-24ZM60 81.6c-1.5-20.9-3-46.6-4.5-67.8 3.2-3.4 6.2-3.2 9.1.4-1.5 21.2-3 46.6-4.6 67.4M55.8 45.1c-6.7 12.1-16.4 22.3-28.2 29.4-.9 4.9.2 21.3 1.7 25.5 4.8-3.1 9.1-7 12.6-11.5 6.6-8.4 11.7-17.9 15-28q.45-1.35.3-2.7c-.4-4.2-.9-8.2-1.4-12.7"
            class="st0" style="fill:currentColor;fill-opacity:1" transform="translate(6.012 4.133)scale(1.5503)" />
    </g>
</svg>