<svg id="svg" version="1.1" xmlns="http://www.w3.org/2000/svg" xmlns:xlink="http://www.w3.org/1999/xlink" width="400" height="400" viewBox="0, 0, 400,400"><g id="svgg"><path id="path0" d="M197.089 1.062 C 194.362 2.483,114.773 81.669,115.225 82.514 C 115.577 83.171,118.139 94.715,128.850 143.886 C 142.555 206.807,142.462 206.408,143.617 207.688 C 144.859 209.067,145.525 208.880,174.194 199.137 C 187.424 194.640,188.031 194.519,189.466 196.086 C 190.975 197.733,190.411 189.805,194.897 272.468 C 198.851 345.335,198.654 342.328,199.543 343.576 C 201.671 346.564,205.371 345.649,206.822 341.776 C 207.099 341.039,213.688 320.383,221.464 295.874 C 229.241 271.365,237.608 245.034,240.058 237.359 C 242.508 229.685,246.560 216.924,249.063 209.002 C 251.566 201.080,257.033 183.863,261.213 170.743 C 275.220 126.772,274.531 129.299,273.066 127.277 C 271.596 125.247,271.290 125.294,242.611 131.986 C 213.831 138.701,215.818 138.430,214.253 135.863 C 213.079 133.937,213.522 132.587,238.882 60.779 L 245.130 43.089 243.766 41.492 C 237.102 33.692,204.172 1.273,202.329 0.698 C 200.483 0.123,198.649 0.250,197.089 1.062 " stroke="none" fill="#fbfbfb" fill-rule="evenodd"></path><path id="path1" d="M245.207 43.125 C 244.573 44.310,218.064 119.860,215.418 128.024 C 213.179 134.933,213.238 136.073,215.903 137.344 C 217.176 137.951,216.241 138.139,242.611 131.986 C 271.290 125.294,271.596 125.247,273.066 127.277 C 274.531 129.299,275.220 126.772,261.213 170.743 C 257.033 183.863,251.566 201.080,249.063 209.002 C 246.560 216.924,242.508 229.685,240.058 237.359 C 237.608 245.034,229.241 271.365,221.464 295.874 C 213.688 320.383,207.099 341.039,206.822 341.776 C 205.371 345.649,201.671 346.564,199.543 343.576 C 198.654 342.328,198.851 345.335,194.897 272.468 C 190.411 189.805,190.975 197.733,189.466 196.086 C 188.031 194.519,187.424 194.640,174.194 199.137 C 145.525 208.880,144.859 209.067,143.617 207.688 C 142.460 206.406,142.610 207.054,128.584 142.686 C 115.216 81.336,115.416 82.221,114.887 82.221 C 114.225 82.221,16.935 179.882,2.730 194.806 C 0.293 197.366,-0.236 199.166,0.571 202.149 C 1.266 204.716,194.631 398.422,197.185 399.110 C 197.899 399.302,199.450 399.410,200.632 399.350 L 202.782 399.242 214.745 387.569 C 239.070 363.833,398.503 204.115,398.958 203.027 C 399.488 201.759,399.519 198.235,399.011 197.071 C 398.500 195.901,382.052 179.211,318.209 115.079 C 253.346 49.922,245.636 42.323,245.207 43.125 " stroke="none" fill="#7c4cac" fill-rule="evenodd"></path></g></svg>