<svg height="580" viewBox="0 0 580 580" width="580" xmlns="http://www.w3.org/2000/svg" xmlns:xlink="http://www.w3.org/1999/xlink"><clipPath id="a"><path d="m-10-10h600v600h-600z"/></clipPath><clipPath id="b"><path d="m289.97.65c-4.98 0-10.05 1.94-13.89 5.79l-269.66 269.65c-7.68 7.68-7.68 20.14 0 27.82l269.66 269.66c3.67 3.71 8.49 5.61 13.34 5.78h1.14c4.85-.17 9.67-2.07 13.38-5.78l269.66-269.66c3.63-3.63 5.53-8.32 5.74-13.09v-1.69c-.21-4.72-2.11-9.41-5.74-13.04l-269.66-269.65c-3.84-3.85-8.91-5.79-13.97-5.79z"/></clipPath><g clip-path="url(#a)"><path d="m290 574.34c-3.93 0-7.6-1.52-10.38-4.3l-269.66-269.66c-5.74-5.74-5.74-15.03 0-20.77l269.66-269.65c2.78-2.79 6.45-4.31 10.38-4.31s7.6 1.52 10.38 4.31l269.66 269.65c2.79 2.79 4.31 6.46 4.31 10.39 0 3.92-1.52 7.59-4.31 10.38l-269.66 269.66c-2.78 2.78-6.45 4.3-10.38 4.3z" fill="#6b54ab"/><path d="m303.93 6.44 269.66 269.65c7.68 7.68 7.68 20.14 0 27.82l-269.66 269.66c-3.84 3.84-8.91 5.78-13.93 5.78s-10.09-1.94-13.93-5.78l-269.66-269.66c-7.68-7.68-7.68-20.14 0-27.82l269.66-269.65c3.84-3.85 8.91-5.79 13.93-5.79s10.09 1.94 13.93 5.79zm-20.77 7.04-269.65 269.66c-3.8 3.8-3.8 9.92 0 13.72l269.65 269.66c1.82 1.81 4.26 2.82 6.84 2.82 2.57 0 5.02-1.01 6.84-2.82l269.65-269.66c3.8-3.8 3.8-9.92 0-13.72l-269.65-269.66c-1.82-1.81-4.27-2.82-6.84-2.82-2.58 0-5.02 1.01-6.84 2.82z" fill="#fff" fill-rule="evenodd"/><g clip-path="url(#b)"><path d="m162.46 83.99 46.44 213.38c.59 3.47 4.18 5.58 7.51 4.44l53.32-18.37c3.59-1.22 7.38 1.31 7.6 5.11l10.97 200.26c.34 6.37 9.25 7.47 11.15 1.44l94.38-296.97c1.35-4.27-2.4-8.32-6.75-7.35l-71 16.68c-4.39 1.01-8.19-3.21-6.71-7.47l46.81-132.51c.42-1.24-13.76-21.15-42.55-59.73-1.1-1.44-2.79-2.24-4.56-2.24h-95.49c-2.15 0-4.13 1.18-5.1 3.12-30.82 52.66-46.16 79.39-46.02 80.21z" fill="#fff"/></g></g></svg>