<svg viewBox="0 0 578.7 578.7" xmlns="http://www.w3.org/2000/svg" xmlns:xlink="http://www.w3.org/1999/xlink"><clipPath id="a"><path d="m289.32 0a19.68 19.68 0 0 0 -13.89 5.78l-269.66 269.66a19.68 19.68 0 0 0 0 27.82l269.66 269.65a19.59 19.59 0 0 0 13.34 5.79h1.14a19.8 19.8 0 0 0 13.38-5.79l269.71-269.65a19.64 19.64 0 0 0 5.74-13.09v-1.69a19.62 19.62 0 0 0 -5.74-13l-269.71-269.7a19.73 19.73 0 0 0 -13.97-5.78z"/></clipPath><path d="m289.35 573.69a14.59 14.59 0 0 1 -10.39-4.3l-269.65-269.66a14.68 14.68 0 0 1 0-20.77l269.69-269.66a14.69 14.69 0 0 1 20.77 0l269.62 269.7a14.69 14.69 0 0 1 0 20.77l-269.66 269.62a14.57 14.57 0 0 1 -10.38 4.3" fill="#7d58a4"/><path d="m289.35 10a9.68 9.68 0 0 1 6.84 2.82l269.65 269.67a9.68 9.68 0 0 1 0 13.72l-269.65 269.65a9.68 9.68 0 0 1 -13.68 0l-269.66-269.65a9.68 9.68 0 0 1 0-13.72l269.66-269.66a9.65 9.65 0 0 1 6.84-2.83m0-10a19.69 19.69 0 0 0 -13.93 5.78l-269.66 269.66a19.68 19.68 0 0 0 0 27.82l269.66 269.65a19.65 19.65 0 0 0 27.86 0l269.65-269.65a19.66 19.66 0 0 0 0-27.82l-269.65-269.66a19.7 19.7 0 0 0 -13.93-5.78" fill="#fff"/><g clip-path="url(#a)"><path d="m161.81 83.34 46.44 213.38a5.74 5.74 0 0 0 7.51 4.44l53.32-18.37a5.75 5.75 0 0 1 7.59 5.11l11 200.26c.34 6.37 9.24 7.47 11.14 1.43l94.39-297a5.74 5.74 0 0 0 -6.75-7.35l-71 16.68a5.75 5.75 0 0 1 -6.72-7.48l46.8-132.44c.63-1.88-42.53-59.75-42.53-59.75a5.72 5.72 0 0 0 -4.58-2.25h-95.49a5.7 5.7 0 0 0 -5.11 3.12s-46.22 79-46 80.21" fill="#fff"/></g></svg>