<svg height="400" viewBox="0 0 400 400" width="400" xmlns="http://www.w3.org/2000/svg">
    <g fill-rule="evenodd">
        <path d="m174.012 216.008v7.901h25.988 25.988v-7.901-7.9h-25.988-25.988z" fill="#fff" />
        <path
            d="m174.947 9.15c-.082.131.828.206 2.518.206 1.455 0 2.607-.038 2.559-.083-.209-.2-4.959-.315-5.077-.123m8.645-.017c-.229.145-.179.204.215.257.563.076 2.424-4.41-33.847 81.617l-10.979 26.038-52.574.054-52.574.053 15.165 18.711c44.28 54.633 45.805 56.534 45.542 56.775-.142.13-16.302 13.461-35.912 29.625-49.504 40.806-57.477 47.396-57.536 47.556-.028.077 3.995.819 8.94 1.649 46.746 7.85 111.478 18.788 111.537 18.847.04.04.73 22.513 1.533 49.941s1.502 50.079 1.553 50.337c.151.759.471.577 3.308-1.881 1.486-1.288 17.227-14.807 34.979-30.041l32.276-27.698 11.798 10.269c6.49 5.649 20.032 17.423 30.094 26.167l18.295 15.896.053-44.378.052-44.379.676.122c2.532.454 94.176 13.249 94.265 13.16.062-.061-8.411-19.478-18.829-43.148-10.417-23.67-18.94-43.081-18.94-43.136 0-.054 19.342-9.796 42.983-21.649 23.641-11.852 43.055-21.619 43.142-21.703.088-.085-20.412-8.555-45.555-18.823-25.142-10.267-45.825-18.737-45.961-18.822-.172-.106 5.348-11.39 18.053-36.9 16.83-33.792 18.256-36.736 17.737-36.607-.955.237-93.046 25.892-93.605 26.077-.501.166-1.144-.633-14.761-18.346-39.106-50.87-50.1-65.2-50.1-65.304 0-.062.398-.115.884-.117.647-.002.8-.057.572-.204-.393-.254-2.085-.264-2.479-.015m5.389.008c0 .14 1.408.215 4.054.215 2.23 0 4.054-.083 4.054-.185 0-.101-1.824-.197-4.054-.214-2.665-.02-4.054.043-4.054.184m208.732.007c.407.262.981.262 1.144 0 .077-.125-.188-.207-.664-.205-.588.002-.711.055-.48.205m-180.971 97.297c11.743 15.608 21.457 28.488 21.587 28.622.18.186.882-.029 2.939-.901 10.786-4.573 40.299-16.909 40.343-16.863.03.031-3.817 9.734-8.549 21.562-4.732 11.827-8.58 21.529-8.55 21.558.045.046 17.429 8.116 45.613 21.175l7.525 3.488-23.014 15.463c-12.658 8.505-23.041 15.582-23.073 15.728-.032.145 1.288 3.021 2.933 6.39 9.493 19.445 21.346 43.85 21.346 43.951 0 .064-12.229.14-27.176.169l-27.176.053-2.858 13.721c-1.572 7.547-4.185 20.092-5.808 27.878l-2.95 14.156-18.799-15.819c-10.34-8.701-19.022-15.988-19.295-16.195l-.495-.375-17.976 14.772c-9.887 8.125-18.054 14.772-18.148 14.772s-1.612-13.776-3.372-30.613c-1.861-17.806-3.297-30.707-3.43-30.838-.127-.123-13.671-2.734-30.098-5.802l-29.868-5.578 5.346-5.632c2.939-3.098 12.254-12.976 20.699-21.952s15.769-16.753 16.277-17.282l.922-.961-12.718-26.55c-6.995-14.603-12.684-26.584-12.644-26.625.041-.04 11.72-.926 25.954-1.968 14.233-1.042 25.977-1.926 26.097-1.966.12-.039 8.447-14.908 18.503-33.041 10.057-18.134 18.348-32.949 18.424-32.923s9.746 12.818 21.489 28.426m-16.13 23.412c-.127.33-.726 1.91-1.33 3.511-4.879 12.918-11.099 24.106-21.093 37.942-16.228 22.465-19.688 29.814-20.115 42.723-1.084 32.737 32.609 54.88 61.988 40.739 22.911-11.028 31.196-38.521 18.709-62.089-3.515-6.635-15.965-24.488-17.078-24.491-.357 0-1.005-.87-3.138-4.211-6.622-10.371-11.615-19.953-15.955-30.622-1.853-4.556-1.692-4.272-1.988-3.502m25.376 86.151v7.901h-25.988-25.988v-7.901-7.9h25.988 25.988z"
            fill="#000" />
    </g>
</svg>