<svg height="580" viewBox="0 0 580 580" width="580" xmlns="http://www.w3.org/2000/svg" xmlns:xlink="http://www.w3.org/1999/xlink"><clipPath id="a"><path d="m-10-10h600v600h-600z"/></clipPath><clipPath id="b"><path d="m290 .67c-5.04 0-10.09 1.91-13.95 5.77l-269.63 269.63c-7.68 7.68-7.68 20.19 0 27.87l269.63 269.63c3.64 3.65 8.35 5.56 13.11 5.77h1.69c4.75-.21 9.42-2.12 13.03-5.77l269.71-269.63c7.68-7.68 7.68-20.19 0-27.87l-269.71-269.63c-3.78-3.86-8.83-5.77-13.88-5.77z"/></clipPath><clipPath id="c"><path d="m290 .67c-5.04 0-10.09 1.91-13.95 5.77l-269.63 269.63c-7.68 7.68-7.68 20.19 0 27.87l269.63 269.63c3.86 3.86 8.91 5.77 13.95 5.77 5.05 0 10.1-1.91 13.88-5.77l269.71-269.63c7.68-7.68 7.68-20.19 0-27.87l-269.71-269.63c-3.78-3.86-8.83-5.77-13.88-5.77z"/></clipPath><g clip-path="url(#a)"><path d="m290 574.36c-3.91 0-7.6-1.53-10.4-4.28l-269.67-269.71c-2.75-2.76-4.28-6.45-4.28-10.36 0-3.94 1.53-7.63 4.28-10.39l269.67-269.67c2.8-2.76 6.49-4.29 10.4-4.29 3.9 0 7.59 1.53 10.39 4.29l269.67 269.67c2.76 2.76 4.28 6.45 4.28 10.39 0 3.91-1.52 7.6-4.28 10.36l-269.67 269.71c-2.8 2.75-6.49 4.28-10.39 4.28z" fill="#5d7b7e"/><path d="m303.91 6.42 269.67 269.66c7.68 7.68 7.68 20.16 0 27.84l-269.67 269.66c-3.86 3.86-8.87 5.77-13.91 5.77-5.05 0-10.06-1.91-13.92-5.77l-269.67-269.66c-7.68-7.68-7.68-20.16 0-27.84l269.67-269.66c3.86-3.87 8.87-5.78 13.92-5.78 5.04 0 10.05 1.91 13.91 5.78zm-20.75 7.08-269.71 269.67c-3.77 3.77-3.77 9.88 0 13.66l269.71 269.71c1.83 1.83 4.25 2.8 6.84 2.8 2.58 0 5-.97 6.83-2.8l269.71-269.71c3.77-3.78 3.77-9.89 0-13.66l-269.71-269.67c-1.83-1.87-4.25-2.84-6.83-2.84-2.59 0-5.01.97-6.84 2.84z" fill="#fff" fill-rule="evenodd"/><g clip-path="url(#b)"><path d="m461.97 432.71c-8.06 13.69-17.43 24.86-28.09 33.52-10.64 8.68-22.7 14.62-36.19 17.82-12.28-21.3-21.4-33.28-27.37-35.94-10.31 1.32-30.5-5.13-45.61-11.79-24.14-10.61-44.33-38.49-50.87-43.58-6.53-5.05-12.81-9.88-43.65-22.48-30.85-12.56-36.79-21.94-30.93-33.52 5-9.84 33.09 1.19 44.5 6.32 11.46 5.13 30.76 12.98 32.25 7.98 2.37-8.06-34.07-31.65-41.11-36.45-7.05-4.75-33.18-18.96-33.95-31.69-.76-12.69 9.85-16.17 14.81-14.55 5.77 1.86 32.54 21.93 46.54 30.8 14 8.82 29.11 20.83 31.87 14.21 3.01-7.17-20.92-28.34-31.78-41.75-10.86-13.36-34.71-33.6-39.42-46.58-4.71-12.94 10.61-20.33 16.68-18.33 6.06 1.99 25.58 24.35 28.97 28.3 3.44 3.94 26.78 30.97 36.53 43.1 9.81 12.18 12.95 10.7 15.62 9.42 2.71-1.23 2.84-4.75 1.7-8.95-1.15-4.2-13.41-33.64-15.83-39.33-2.38-5.73-26.73-51.8-9.21-58.63 16.55-6.5 23.04 16.88 28.13 25.83 5.05 9 31.78 69.97 34.84 75.19 6.4 11.07 12.38 20.4 22.65 14.55 6.58-3.69 9.42-11.2 10.95-18.12 1.31-5.98 5.22-29.87 17.1-36.66 11.83-6.78 23.67 1.87 24.14 4.97.51 3.09-9.17 55.54-10.4 61.56s10.1 34.2 10.91 49.89c.8 15.7-2 36.66-1.53 38.61.34 1.3 9.59 13.4 27.75 36.28zm-77.05-33.69c-17.95-24.82-18.63-41.49-14.3-58.21 5.56-21.64 17.35-25.62 14.13-28.85-.93-.93-3.1-.85-4.58.85-.39.47-10.19 7-17.31 28.21-4.67 13.92-7.51 39.67 13.15 65.68 1.14 1.44 2.8 2.16 4.45 2.16 1.32 0 2.63-.46 3.74-1.4 2.46-2.12 2.63-5.81.72-8.44z" fill="#fff" fill-rule="evenodd"/></g><g clip-path="url(#c)" fill="#fff"><path d="m393.5 70.49-29.79 117.69c-1.74 6.92-5.64 6.41-5.6-.68l.68-121.42c.04-4.88 2.08-9.55 4.03-9.29l29.11 3.69c1.95.25 2.76 5.3 1.57 10.01z"/><path d="m10.09 272.89 141.58 35.09c8.28 2.04 7.73 6.24-.8 6.03l-145.82-3.7c-5.86-.12-11.46-2.41-11.21-4.58l4.25-31.39c.29-2.13 6.32-2.85 12-1.45z"/><path d="m143.83 431.68 72.09-28.81c4.24-1.7 6.06 1.27 2.63 4.28l-58.47 51.09c-2.33 2.03-5.64 2.59-6.57 1.06l-13.62-22.28c-.94-1.48 1.06-4.2 3.94-5.34z"/><path d="m244.56 49.72 22.1 106.92c1.28 6.24-2.5 7.6-5.43 1.91l-50.23-96.9c-1.99-3.91-2.12-8.53-.21-9.21l28.13-9.97c1.91-.68 4.75 2.97 5.64 7.25z"/><path d="m112.76 164.95 72.21 64.45c4.2 3.78 2.16 6.83-2.93 4.37l-87.35-41.66c-3.48-1.66-5.99-4.92-4.97-6.45l15.15-22.78c1.02-1.57 5-.51 7.89 2.07z"/></g></g></svg>