<svg id="svg" version="1.1" xmlns="http://www.w3.org/2000/svg" xmlns:xlink="http://www.w3.org/1999/xlink" width="400" height="400" viewBox="0, 0, 400,400"><g id="svgg"><path id="path0" d="M215.859 90.998 C 216.284 112.089,216.134 112.096,222.213 90.712 C 224.551 82.487,224.604 82.058,223.306 81.795 C 221.202 81.367,218.463 81.025,217.132 81.023 L 215.659 81.020 215.859 90.998 M159.769 94.613 C 156.032 96.821,155.139 97.528,155.139 98.277 C 155.139 99.598,174.305 122.322,174.776 121.559 C 175.056 121.106,164.418 94.638,163.458 93.398 C 162.997 92.804,162.623 92.927,159.769 94.613 M265.462 100.672 C 264.493 101.642,261.283 122.258,257.458 152.075 C 255.897 164.244,257.976 160.042,273.166 120.330 C 278.997 105.083,279.368 103.751,277.944 103.180 C 273.934 101.570,266.132 100.002,265.462 100.672 M205.046 123.873 C 196.133 127.040,196.625 137.255,206.848 161.290 C 215.200 180.925,219.989 193.531,220.058 196.056 C 220.115 198.200,218.420 200.081,215.702 200.888 C 212.929 201.711,212.772 201.575,201.687 188.749 C 173.563 156.206,163.796 146.105,159.285 144.898 C 155.350 143.846,149.005 147.393,146.750 151.906 C 143.833 157.744,146.478 162.040,164.167 180.197 C 167.866 183.994,172.378 188.718,174.194 190.694 C 176.009 192.670,179.946 196.880,182.943 200.050 C 198.271 216.260,200.807 220.566,196.084 222.361 C 193.601 223.305,184.150 218.141,160.840 203.100 C 140.047 189.684,139.498 189.431,134.893 191.166 C 129.565 193.172,126.817 200.215,129.422 205.186 C 131.722 209.575,137.228 213.960,150.788 222.201 C 174.601 236.673,185.875 246.409,182.431 249.526 C 180.567 251.212,174.176 249.697,158.890 243.946 C 133.470 234.383,126.140 234.553,125.505 244.719 C 124.941 253.761,129.436 256.880,160.090 268.723 C 173.533 273.916,177.452 276.576,190.482 289.354 C 199.129 297.833,202.938 301.173,207.178 303.995 C 216.982 310.520,235.801 317.103,246.565 317.772 C 251.341 318.069,251.531 318.162,255.159 321.974 C 257.627 324.567,259.237 326.514,263.832 332.459 C 265.033 334.014,266.190 335.344,266.402 335.414 C 267.121 335.651,307.021 295.499,310.540 290.998 C 310.904 290.533,310.750 290.209,309.189 288.155 C 300.388 276.574,301.341 279.403,302.510 268.322 C 304.403 250.387,304.137 246.748,299.605 228.624 C 296.111 214.651,296.075 216.650,300.162 198.350 C 306.270 170.998,306.641 168.759,305.332 167.203 C 302.135 163.404,294.425 162.411,289.122 165.116 C 283.337 168.068,280.991 172.038,275.874 187.531 C 271.431 200.985,267.725 205.672,261.515 205.693 C 258.634 205.703,257.805 205.349,254.813 202.830 C 249.636 198.473,247.221 194.252,238.773 174.794 C 220.096 131.778,217.606 127.044,212.152 124.193 C 210.337 123.245,207.210 123.104,205.046 123.873 M99.115 140.929 C 98.105 141.339,93.859 147.719,94.128 148.421 C 94.595 149.639,127.157 168.017,128.220 167.663 C 129.057 167.384,100.917 140.693,99.856 140.759 C 99.646 140.772,99.313 140.848,99.115 140.929 M81.357 214.960 C 80.929 215.475,79.777 219.643,79.975 219.962 C 80.485 220.789,97.184 223.945,105.101 224.711 C 108.811 225.070,108.833 225.085,99.775 221.241 C 84.714 214.851,82.168 213.983,81.357 214.960 M141.335 275.950 C 122.560 279.038,115.869 280.376,115.400 281.136 C 115.153 281.536,117.461 288.332,118.040 288.912 C 118.631 289.503,118.248 289.666,131.283 283.247 C 142.422 277.761,145.100 276.277,144.784 275.766 C 144.567 275.415,144.596 275.413,141.335 275.950 " stroke="none" fill="#fbfbfb" fill-rule="evenodd"></path><path id="path1" d="M196.656 0.878 C 194.201 1.993,1.473 195.113,0.698 197.235 C 0.253 198.453,0.211 200.868,0.609 202.302 C 1.081 203.999,192.523 396.334,196.024 398.628 C 197.061 399.308,200.781 399.583,202.524 399.110 C 203.963 398.719,240.345 362.863,258.399 344.044 L 266.451 335.650 265.758 334.892 C 265.377 334.475,263.936 332.648,262.556 330.833 C 257.888 324.692,253.039 319.383,251.198 318.398 C 250.805 318.188,248.706 317.905,246.534 317.770 C 235.802 317.103,216.968 310.511,207.178 303.995 C 202.938 301.173,199.129 297.833,190.482 289.354 C 177.452 276.576,173.533 273.916,160.090 268.723 C 129.436 256.880,124.941 253.761,125.505 244.719 C 126.140 234.553,133.470 234.383,158.890 243.946 C 174.176 249.697,180.567 251.212,182.431 249.526 C 185.875 246.409,174.601 236.673,150.788 222.201 C 137.228 213.960,131.722 209.575,129.422 205.186 C 126.817 200.215,129.565 193.172,134.893 191.166 C 139.498 189.431,140.047 189.684,160.840 203.100 C 184.150 218.141,193.601 223.305,196.084 222.361 C 200.807 220.566,198.271 216.260,182.943 200.050 C 179.946 196.880,176.009 192.670,174.194 190.694 C 172.378 188.718,167.866 183.994,164.167 180.197 C 146.478 162.040,143.833 157.744,146.750 151.906 C 149.005 147.393,155.350 143.846,159.285 144.898 C 163.796 146.105,173.563 156.206,201.687 188.749 C 212.772 201.575,212.929 201.711,215.702 200.888 C 218.420 200.081,220.115 198.200,220.058 196.056 C 219.989 193.521,215.084 180.620,206.839 161.290 C 195.758 135.313,196.191 123.481,208.221 123.481 C 214.246 123.481,216.823 126.449,224.082 141.744 C 227.531 149.012,229.593 153.651,238.773 174.794 C 247.221 194.252,249.636 198.473,254.813 202.830 C 257.805 205.349,258.634 205.703,261.515 205.693 C 267.725 205.672,271.431 200.985,275.874 187.531 C 280.991 172.038,283.337 168.068,289.122 165.116 C 294.425 162.411,302.135 163.404,305.332 167.203 C 306.641 168.759,306.270 170.998,300.162 198.350 C 296.075 216.650,296.111 214.651,299.605 228.624 C 304.122 246.687,304.406 250.551,302.519 268.267 C 302.000 273.136,301.576 277.280,301.576 277.475 C 301.575 278.115,310.596 290.377,311.459 290.911 C 311.866 291.163,398.505 204.111,398.981 202.971 C 399.463 201.819,399.532 198.957,399.114 197.499 C 398.286 194.613,205.112 1.314,202.365 0.622 C 200.431 0.135,198.057 0.242,196.656 0.878 M220.555 81.328 C 225.062 82.030,224.916 81.204,222.213 90.712 C 216.134 112.096,216.284 112.089,215.859 90.998 L 215.659 81.020 217.132 81.023 C 217.942 81.024,219.482 81.161,220.555 81.328 M163.458 93.398 C 164.418 94.638,175.056 121.106,174.776 121.559 C 174.305 122.322,155.139 99.598,155.139 98.277 C 155.139 96.865,162.706 92.428,163.458 93.398 M272.168 101.538 C 278.481 103.209,278.770 103.327,278.770 104.235 C 278.770 105.212,276.959 110.412,273.166 120.330 C 257.976 160.042,255.897 164.244,257.458 152.075 C 259.585 135.495,264.196 103.676,264.702 102.098 C 265.425 99.839,265.677 99.820,272.168 101.538 M102.856 143.048 C 110.990 150.228,128.767 167.480,128.220 167.663 C 127.480 167.909,108.714 157.617,97.930 151.050 C 93.163 148.147,93.219 148.511,96.800 143.701 C 99.557 139.998,99.418 140.013,102.856 143.048 M89.001 216.762 C 93.583 218.618,104.886 223.375,106.602 224.170 C 109.308 225.424,101.508 224.536,88.072 222.059 C 79.515 220.482,79.647 220.559,80.409 217.597 C 81.381 213.817,81.661 213.790,89.001 216.762 M144.784 275.766 C 145.118 276.306,125.318 286.637,119.485 288.964 C 118.098 289.518,117.830 289.169,116.401 284.951 C 114.747 280.066,113.318 280.775,130.983 277.719 C 144.994 275.295,144.534 275.360,144.784 275.766 " stroke="none" fill="#647c7c" fill-rule="evenodd"></path></g></svg>