<svg viewBox="0 0 600 600" xmlns="http://www.w3.org/2000/svg" xmlns:xlink="http://www.w3.org/1999/xlink"><clipPath id="a"><path d="m0 0h600v600h-600z"/></clipPath><g clip-path="url(#a)"><path d="m300 585.35c-3.92 0-7.6-1.52-10.37-4.29l-269.69-269.69c-5.71-5.71-5.71-15.03 0-20.74l269.69-269.69c2.77-2.77 6.45-4.29 10.37-4.29s7.6 1.52 10.37 4.29l269.69 269.69c5.71 5.71 5.71 15.03 0 20.74l-269.69 269.69c-2.77 2.77-6.45 4.29-10.37 4.29" fill="#d6802b"/><g fill="#fff"><path d="m300 20.65c2.6 0 5.03 1.01 6.86 2.84l269.66 269.66c1.82 1.82 2.84 4.29 2.84 6.86s-1.01 5.03-2.84 6.86l-269.66 269.66c-1.82 1.82-4.26 2.84-6.86 2.84s-5.03-1.01-6.86-2.84l-269.66-269.67c-1.82-1.82-2.84-4.26-2.84-6.86s1.01-5.03 2.84-6.86l269.66-269.66c1.82-1.82 4.26-2.84 6.86-2.84m0-10c-5.03 0-10.06 1.93-13.91 5.77l-269.66 269.68c-7.7 7.7-7.7 20.16 0 27.83l269.66 269.66c3.85 3.85 8.88 5.77 13.91 5.77s10.06-1.92 13.91-5.77l269.66-269.66c7.7-7.67 7.7-20.13 0-27.83l-269.66-269.66c-3.85-3.85-8.88-5.77-13.91-5.77"/><path d="m349.23 179.83c0 19.33-11.71 35.92-28.43 43.07 5.65 2.42 11.87 3.76 18.4 3.76 25.86 0 46.83-20.97 46.83-46.83s-20.97-46.83-46.83-46.83c-6.53 0-12.75 1.34-18.4 3.76 16.71 7.15 28.43 23.74 28.43 43.07z"/><path d="m360.37 246.94s-12.7 3.47-23.15 3.47c-4.31 0-9.01-.59-13.04-1.28l46.15 164.94s-7.14 33.92-51.48 41.46c5.54.94 11.65 1.47 18.4 1.47 60.86 0 69.88-42.93 69.88-42.93z"/><path d="m267.52 133.12c-1.12-.08-2.25-.13-3.39-.13-.67 0-1.33.01-1.99.04-3.29.14-6.5.61-9.58 1.4h23.16c-2.65-.68-5.38-1.12-8.19-1.32zm-47.01 63.79c.7 1.76 1.49 3.47 2.37 5.11h82.49c.89-1.64 1.68-3.35 2.37-5.11h-87.24zm16.8 21.31c3.91 2.73 8.24 4.88 12.9 6.32h27.84c4.65-1.45 8.99-3.59 12.9-6.32zm73.46-42.61h-93.28c-.12 1.28-.18 2.58-.19 3.88h93.66c-.01-1.31-.07-2.61-.19-3.88zm-7.37-21.3h-78.55c-.57.87-1.11 1.74-1.6 2.65h81.75c-.5-.91-1.03-1.78-1.6-2.65zm-11.77 115.29-.46-1.65h-58.05l-.46 1.65-1.99 7.12h62.97l-1.99-7.12zm12.6 45.05-1.14-4.08h-81.9l-1.14 4.08-1.99 7.12h88.17l-1.99-7.12zm12.6 45.05-1.83-6.53h-105.72l-1.83 6.53-2.01 7.13h113.39l-2.01-7.13zm-123.69 57.38c.84 2.42 2.36 6.06 4.95 10.2.8 1.29 1.71 2.62 2.73 3.98.78 1.03 1.63 2.09 2.55 3.15h117.56c.93-1.06 1.77-2.11 2.55-3.15 1.02-1.36 1.93-2.69 2.73-3.98 2.59-4.14 4.09-7.78 4.93-10.2h-137.99zm69.02 39.92c27.75 0 44.72-8.92 54.97-18.62h-109.93c10.26 9.7 27.23 18.62 54.97 18.62zm68.74-47.05-1.46-5.19-2.51-8.98h-129.55l-2.51 8.98-1.46 5.19-.54 1.93h138.58l-.54-1.93zm-5.96-21.3-1.79-6.43-2.17-7.76h-117.65l-2.16 7.76-1.8 6.43-.19.7h125.97l-.19-.7zm-14.41-51.47-1.48-5.31h-93.82l-1.48 5.31-1.99 7.13h100.76zm-12.6-45.05-.8-2.87h-69.98l-.8 2.87-1.99 7.12h75.57l-1.99-7.12zm-12.6-45.05-.04-.15s-.2.05-.57.15c-2.56.66-13.44 3.32-22.58 3.32s-20.35-2.71-22.7-3.32c-.3-.07-.45-.12-.45-.12l-.03.12-1.99 7.12h50.37l-1.99-7.12z"/></g></g></svg>