<svg height="1200" viewBox="0 0 1200 1200" width="1200" xmlns="http://www.w3.org/2000/svg" xmlns:xlink="http://www.w3.org/1999/xlink"><clipPath id="a"><path d="m0 0h1200v1200h-1200z"/></clipPath><g clip-path="url(#a)"><path d="m600 1144c-145.31 0-281.92-56.59-384.67-159.33-102.74-102.75-159.33-239.36-159.33-384.67s56.59-281.92 159.33-384.67c102.75-102.74 239.36-159.33 384.67-159.33s281.92 56.59 384.67 159.33c102.74 102.75 159.33 239.36 159.33 384.67s-56.59 281.92-159.33 384.67c-102.75 102.74-239.36 159.33-384.67 159.33z" fill="#1d2a33"/><g fill="#fff" fill-rule="evenodd"><path d="m817.99 84.02c66.69 28.21 126.57 68.58 177.99 120s91.79 111.3 120 177.99c29.21 69.06 44.02 142.4 44.02 217.99s-14.81 148.93-44.02 217.99c-28.21 66.69-68.58 126.57-120 177.99s-111.3 91.79-177.99 120c-69.06 29.21-142.4 44.02-217.99 44.02s-148.93-14.81-217.99-44.02c-66.69-28.21-126.57-68.58-177.99-120s-91.79-111.3-120-177.99c-29.21-69.06-44.02-142.4-44.02-217.99s14.81-148.93 44.02-217.99c28.21-66.69 68.58-126.57 120-177.99s111.3-91.79 177.99-120c69.06-29.21 142.4-44.02 217.99-44.02s148.93 14.81 217.99 44.02zm-745.99 515.98c0 291.61 236.39 528 528 528s528-236.39 528-528-236.39-528-528-528-528 236.39-528 528z"/><path d="m1007.22 600.01c0 174-141.56 315.56-315.56 315.56-31.86 0-62.62-4.74-91.64-13.58-29.02 8.84-59.8 13.58-91.66 13.58-174.02 0-315.58-141.56-315.58-315.56 0-174.02 141.56-315.58 315.58-315.58 31.86 0 62.64 4.74 91.66 13.58 29.02-8.84 59.78-13.58 91.64-13.58 174 0 315.56 141.56 315.56 315.58zm-372.2 262.58c97.5-47.22 164.9-147.18 164.9-262.58 0-115.42-67.4-215.38-164.9-262.6-11.28-5.46-22.98-10.24-35.02-14.22-12.84-4.28-26.1-7.66-39.66-10.12-16.88-3.04-34.24-4.64-51.98-4.64-160.78 0-291.58 130.8-291.58 291.58 0 160.76 130.8 291.56 291.58 291.56 17.74 0 35.1-1.6 51.98-4.64 13.56-2.46 26.82-5.84 39.66-10.12 12.04-3.98 23.74-8.76 35.02-14.22zm348.2-262.58c0-160.78-130.8-291.58-291.56-291.58-17.74 0-35.12 1.6-52 4.64 12.12 5.56 23.82 11.88 35.06 18.88 3.57 2.23 7.08 4.54 10.56 6.91 146.18 2.39 263.94 118.38 263.94 261.15 0 142.74-117.75 258.73-263.93 261.13-3.47 2.37-6.98 4.68-10.55 6.91-11.24 7-22.96 13.32-35.08 18.88 16.88 3.04 34.26 4.64 52 4.64 160.76 0 291.56-130.8 291.56-291.56z"/></g></g></svg>