<svg viewBox="0 0 44.2 22.48" xmlns="http://www.w3.org/2000/svg" xmlns:xlink="http://www.w3.org/1999/xlink"><clipPath id="a"><path d="m0 0h44.2v22.48h-44.2z"/></clipPath><g clip-path="url(#a)"><path d="m40.9 3.28a11.16 11.16 0 0 0 -7.9-3.28h-21.66a11.49 11.49 0 0 0 -4.65 1 11.36 11.36 0 0 0 -3.69 2.57 11.26 11.26 0 0 0 8.25 18.91h21.63a11.2 11.2 0 0 0 4.42-.9 11.53 11.53 0 0 0 3.62-2.45 11.19 11.19 0 0 0 0-15.85" fill="#fff"/><path d="m19.19.68h-7.85a10.56 10.56 0 1 0 -.1 21.12h7a.79.79 0 0 0 .78-.62l3.68-16.1a3.6 3.6 0 0 0 -3.51-4.4" fill="#e15426"/><path d="m24.91 21.8h8a10.56 10.56 0 1 0 .09-21.12h-7.16a.8.8 0 0 0 -.78.62l-3.66 16.1a3.6 3.6 0 0 0 3.51 4.4" fill="#1ac2ec"/><g fill="#fff"><path d="m15.08 8.44a6 6 0 0 1 -1.88-5.74c-1 .1-2.69 1.27-3.34 3.58-1.14 4.08 1.69 5.4 0 6.82-1.9 1.61-3.54-1-3.28-3.3-1.2.94-1.93 4.79-.38 7.12a6 6 0 0 0 4.38 2.86 1.54 1.54 0 0 1 -.42-1.8c.3-.86 1.29-1.24 2.22-2a3.86 3.86 0 0 0 1.54-2 4 4 0 0 1 .62 3.64 3.5 3.5 0 0 1 -1.37 2 6.11 6.11 0 0 0 4.83-5.8c0-3-1.51-4.27-2.88-5.38"/><path d="m39.7 13.1-1.52 1.12-1.18-.74 2-1.39a.28.28 0 1 0 -.32-.46l-2.18 1.53-1.9-1.11v-1.59l1.83-1.12 2.18 1.53a.25.25 0 0 0 .16.05.27.27 0 0 0 .23-.12.28.28 0 0 0 -.07-.39l-1.93-1.41 1.23-.74 1.47 1.15a.34.34 0 0 0 .17.05.28.28 0 0 0 .13-.46l-1.3-1 1.17-.71a.28.28 0 1 0 -.28-.48l-1.2.66-.18-1.65a.28.28 0 0 0 -.56.06l.21 1.88-1.26.68-.21-2.44a.28.28 0 0 0 -.56 0l.24 2.65-1.89 1-1.37-.65-.05-2.2 2.42-1.13a.28.28 0 1 0 -.24-.5l-2.19 1v-1.43l1.7-.74a.28.28 0 0 0 .14-.37.28.28 0 0 0 -.37-.15l-1.51.67v-1.37a.28.28 0 0 0 -.28-.28.27.27 0 0 0 -.28.28v1.37l-1.52-.67a.28.28 0 0 0 -.23.52l1.73.76v1.43l-2.19-1a.27.27 0 0 0 -.37.13.28.28 0 0 0 .14.37l2.29 1.11v2.2l-1.37.79-1.88-1 .25-2.73a.28.28 0 0 0 -.56 0l-.21 2.4-1.25-.68.2-1.88a.27.27 0 0 0 -.24-.31.27.27 0 0 0 -.31.25l-.18 1.65-1.25-.71a.28.28 0 0 0 -.28.48l1.18.74-1.34 1a.29.29 0 0 0 -.06.4.28.28 0 0 0 .22.11.34.34 0 0 0 .17-.05l1.53-1.12 1.22.66-2 1.38a.28.28 0 0 0 -.07.39.27.27 0 0 0 .23.12.25.25 0 0 0 .16-.05l2.18-1.53 1.83 1.11v1.58l-1.84 1.12-2.17-1.53a.28.28 0 0 0 -.32.46l2 1.38-1.22.75-1.53-1.08a.28.28 0 0 0 -.39.06.28.28 0 0 0 .06.39l1.33 1-1.17.71a.29.29 0 0 0 -.1.39.28.28 0 0 0 .24.14.33.33 0 0 0 .14 0l1.21-.66.18 1.65a.27.27 0 0 0 .27.25.28.28 0 0 0 .24-.31l-.2-1.88 1.25-.69.21 2.41a.28.28 0 0 0 .28.25.28.28 0 0 0 .26-.3l-.23-2.66 1.87-1 1.38.79.08 2.06-2.41 1.13a.28.28 0 0 0 -.14.37.29.29 0 0 0 .26.16h.11l2.19-1v1.42l-1.73.76a.29.29 0 0 0 -.14.37.27.27 0 0 0 .26.17h.11l1.52-.67v1.37a.27.27 0 0 0 .28.28.28.28 0 0 0 .28-.28v-1.37l1.51.67h.12a.26.26 0 0 0 .25-.17.28.28 0 0 0 -.14-.37l-1.73-.76v-1.43l2.19 1a.27.27 0 0 0 .12 0 .28.28 0 0 0 .25-.16.27.27 0 0 0 -.13-.37l-2.27-1.12.05-2.14 1.37-.79 1.89 1-.24 2.65a.28.28 0 0 0 .26.3.27.27 0 0 0 .28-.25l.21-2.41 1.26.69-.21 1.88a.28.28 0 0 0 .25.31.29.29 0 0 0 .28-.25l.18-1.65 1.2.66a.33.33 0 0 0 .14 0 .27.27 0 0 0 .24-.14.29.29 0 0 0 -.1-.39l-1.17-.71 1.33-1a.27.27 0 0 0 .06-.39.28.28 0 0 0 -.39-.06m-7.25-.01-1.51-.88v-1.74l1.51-.87 1.51.87v1.74z"/></g></g></svg>