<svg id="svg" version="1.1" xmlns="http://www.w3.org/2000/svg" xmlns:xlink="http://www.w3.org/1999/xlink" width="400" height="400" viewBox="0, 0, 400,400"><g id="svgg"><path id="path0" d="M303.343 80.355 C 302.453 80.814,299.409 82.442,296.579 83.972 C 274.096 96.124,256.491 100.972,210.803 107.592 C 174.949 112.787,163.266 115.317,148.537 121.074 C 112.854 135.023,82.738 169.891,78.186 202.525 C 74.857 226.393,86.254 252.742,107.471 270.232 C 116.033 277.291,117.567 276.751,119.870 265.866 C 125.080 241.247,139.937 220.508,165.246 202.524 C 170.598 198.721,174.831 196.136,189.732 187.573 C 225.720 166.892,246.713 152.368,270.730 131.536 C 278.380 124.900,278.322 124.910,276.600 130.533 C 272.479 143.989,261.076 155.206,216.204 189.943 C 155.816 236.692,142.121 253.570,136.377 288.326 C 132.902 309.352,134.534 342.735,139.229 346.686 C 142.368 349.327,155.110 346.244,160.028 341.654 C 163.049 338.835,163.031 337.365,159.817 324.629 C 155.960 309.341,154.621 299.664,155.104 290.577 C 155.147 289.778,155.055 289.752,164.291 293.118 C 202.961 307.209,227.778 305.408,256.931 286.392 C 293.386 262.614,310.454 229.032,314.948 172.243 C 317.535 139.549,312.331 82.376,306.548 79.960 C 305.180 79.388,305.228 79.382,303.343 80.355 " stroke="none" fill="#fbfbfb" fill-rule="evenodd"></path><path id="path1" d="M185.596 2.562 C 147.749 5.387,111.539 18.949,81.170 41.674 C 72.699 48.013,59.312 60.031,55.514 64.707 C 54.936 65.418,52.900 67.725,50.990 69.834 C -17.387 145.310,-13.215 267.557,60.222 340.366 C 115.956 395.623,198.307 412.809,271.858 384.533 C 388.416 339.722,434.300 197.806,366.300 92.423 C 360.377 83.245,354.457 75.703,345.089 65.400 C 343.354 63.492,341.513 61.467,340.996 60.898 C 338.982 58.683,329.115 49.869,324.231 45.923 C 285.369 14.521,235.280 -1.145,185.596 2.562 M306.548 79.960 C 311.123 81.871,316.014 121.754,315.583 153.638 C 314.635 223.836,294.497 265.809,249.812 290.723 C 223.232 305.543,200.161 306.189,164.291 293.118 C 155.055 289.752,155.147 289.778,155.104 290.577 C 154.621 299.664,155.960 309.341,159.817 324.629 C 163.031 337.365,163.049 338.835,160.028 341.654 C 155.198 346.161,142.009 349.394,139.247 346.748 C 134.499 342.199,132.889 309.431,136.377 288.326 C 142.121 253.570,155.816 236.692,216.204 189.943 C 261.076 155.206,272.516 143.952,276.596 130.533 C 278.250 125.091,278.157 125.105,270.923 131.372 C 246.560 152.478,225.823 166.833,189.732 187.573 C 174.831 196.136,170.598 198.721,165.246 202.524 C 139.937 220.508,125.080 241.247,119.870 265.866 C 117.567 276.751,116.033 277.291,107.471 270.232 C 86.254 252.742,74.857 226.393,78.186 202.525 C 82.738 169.891,112.854 135.023,148.537 121.074 C 163.266 115.317,174.949 112.787,210.803 107.592 C 256.491 100.972,274.096 96.124,296.579 83.972 C 305.855 78.958,304.986 79.307,306.548 79.960 " stroke="none" fill="#7cac2c" fill-rule="evenodd"></path></g></svg>