<svg xmlns="http://www.w3.org/2000/svg" width="746.667" height="746.667" viewBox="0 0 197.556 197.556">
    <path
        d="M98.778 194.733c-25.63 0-49.727-9.98-67.851-28.104S2.822 124.409 2.822 98.778c0-25.63 9.981-49.727 28.105-67.851s42.22-28.105 67.85-28.105c25.631 0 49.728 9.981 67.852 28.105 18.123 18.124 28.104 42.22 28.104 67.85 0 25.631-9.98 49.728-28.104 67.852-18.124 18.123-42.22 28.104-67.851 28.104"
        style="opacity:1;fill:#56c8ef;fill-opacity:1;fill-rule:nonzero;stroke:none;stroke-width:.352778" />
    <path
        d="M0 0c-37.793 0-74.464-7.405-108.994-22.01-33.344-14.104-63.286-34.291-88.996-60s-45.897-55.652-60-88.996C-272.595-205.537-280-242.207-280-280s7.405-74.464 22.01-108.993c14.103-33.345 34.291-63.287 60-88.997 25.71-25.709 55.652-45.897 88.996-59.999C-74.464-552.595-37.793-560 0-560c37.792 0 74.463 7.405 108.993 22.011 33.344 14.102 63.287 34.29 88.996 59.999 25.71 25.71 45.897 55.652 60 88.997C272.595-354.464 280-317.793 280-280s-7.405 74.463-22.011 108.994c-14.103 33.344-34.29 63.286-60 88.996-25.709 25.709-55.652 45.896-88.996 60C74.463-7.405 37.792 0 0 0m0-16c145.803 0 264-118.197 264-264S145.803-544 0-544c-145.804 0-264 118.197-264 264S-145.804-16 0-16"
        style="fill:currentColor;fill-opacity:1;fill-rule:nonzero;stroke:none"
        transform="matrix(.35278 0 0 -.35278 98.778 0)" />
    <path
        d="m0 0-37.729 21.782v43.567L0 87.132l37.729-21.783V21.782Zm182.664-2.602-38.139-27.986-30.576 18.524 49.5 34.673a7.001 7.001 0 0 1-8.033 11.467L100.863-4.137 51.729 25.63v35.871l49.135 29.768 54.552-38.214a6.97 6.97 0 0 1 4.011-1.267 7 7 0 0 1 4.022 12.733L113.95 99.196l30.575 18.524 38.139-27.987a6.97 6.97 0 0 1 4.136-1.357 7.002 7.002 0 0 1 4.147 12.645l-33.459 24.552 29.336 17.773a7 7 0 0 1-7 12.124l-30.065-16.465-4.529 41.199c-.421 3.844-3.881 6.621-7.722 6.193a7 7 0 0 1-6.194-7.722l5.161-46.945-31.334-17.159-5.268 60.069c-.338 3.85-3.711 6.71-7.585 6.361a7 7 0 0 1-6.362-7.584l5.803-66.19L41.16 79.534 10.482 97.246l-1.27 57.719L69.49 183.06a7 7 0 1 1-5.914 12.689L8.875 170.254l-.787 35.725 43.262 19.017a7 7 0 0 1 3.591 9.225 7 7 0 0 1-9.224 3.591L7.755 221.125 7 255.404a7 7 0 0 1-7 7 7 7 0 0 1-7-7l-.746-34.282-37.972 16.69a7 7 0 0 1-9.224-3.591 7 7 0 0 1 3.591-9.225l43.276-19.022-.778-35.73-54.724 25.505a7 7 0 0 1-5.914-12.689l60.305-28.107-1.253-57.683-30.711-17.73-50.579 27.694 5.802 66.183a7 7 0 0 1-6.362 7.584c-3.858.347-7.248-2.511-7.585-6.361l-5.266-60.063-31.334 17.157 5.159 46.941a6.999 6.999 0 1 1-13.916 1.529l-4.528-41.196-30.065 16.463a7 7 0 1 1-7-12.124l29.336-17.773-33.46-24.553a7.001 7.001 0 0 1 8.283-11.288l38.14 27.987 30.575-18.524-49.5-34.675a7 7 0 1 1 8.033-11.466l54.553 38.214L-51.729 61.5V26.002l-49.316-30.013-54.373 38.087a7 7 0 0 1-9.749-1.718 7 7 0 0 1 1.718-9.749l49.346-34.566-30.509-18.567-38.053 27.922a7.001 7.001 0 0 1-8.283-11.287l33.399-24.508-29.275-17.817a7.001 7.001 0 0 1 7-12.125l30.057 16.537 4.536-41.27a7 7 0 1 1 13.916 1.529l-5.17 47.048 31.329 17.236 5.282-60.249a7 7 0 0 1 7.585-6.362 7 7 0 0 1 6.362 7.585l-5.821 66.402 50.276 27.66 30.91-17.845 1.299-57.635-60.228-28.071a7 7 0 0 1 5.914-12.69l54.659 25.476.805-35.717-43.238-19.006a7 7 0 0 1-3.591-9.225 7 7 0 0 1 6.412-4.185c.94 0 1.896.191 2.812.594l37.946 16.679.772-34.271a7 7 0 1 1 14 0l.729 34.291 37.988-16.699a6.95 6.95 0 0 1 2.812-.594 7 7 0 0 1 6.412 4.185 7 7 0 0 1-3.59 9.225L8.05-118.677l.759 35.739 54.767-25.526a7 7 0 0 1 2.952-.657 7.002 7.002 0 0 1 2.962 13.347L9.134-67.644l1.22 57.456L41.151 7.593l50.578-27.695-5.803-66.183a7 7 0 0 1 13.947-1.223l5.267 60.064 31.333-17.158-5.159-46.941a7 7 0 0 1 13.916-1.529l4.528 41.197 30.066-16.464a7.001 7.001 0 0 1 7 12.125l-29.336 17.773 33.459 24.552a7.001 7.001 0 0 1-8.283 11.287"
        style="fill:#fff;fill-opacity:1;fill-rule:nonzero;stroke:none"
        transform="matrix(.35278 0 0 -.35278 98.778 114.174)" />
</svg>