<svg viewBox="0 0 44.21 22.48" xmlns="http://www.w3.org/2000/svg"><path d="m40.9 3.28a11.17 11.17 0 0 0 -7.9-3.28h-21.66a11.63 11.63 0 0 0 -4.65 1 11.31 11.31 0 0 0 -3.69 2.57 11.26 11.26 0 0 0 8.25 18.91h21.63a11.2 11.2 0 0 0 4.42-.9 11.59 11.59 0 0 0 3.62-2.45 11.2 11.2 0 0 0 0-15.83" fill="#fff"/><path d="m24.91 21.8h8a10.56 10.56 0 0 0 .09-21.12h-7.16a.8.8 0 0 0 -.78.62l-3.66 16.1a3.6 3.6 0 0 0 3.51 4.4" fill="#89a53d"/><path d="m28.38 15.07a.21.21 0 0 1 -.24.19h-.09c-1-.63-3.43-3.23-.47-6.51s6.79-1.55 10.63-3.87a.2.2 0 0 1 .27.07v.06c.52 2.36.84 7.52-1.57 9.89-2.91 2.9-5.31 1.62-6.61 1.16a7 7 0 0 0 .38 2.33c.2.66-1.08.85-1.24.73a6.74 6.74 0 0 1 .74-5.32c1.9-2.52 6.52-4.72 6.66-6.5a24.75 24.75 0 0 1 -5.16 3.58c-2.73 1.52-3.22 3.42-3.3 4.19" fill="#fff"/><path d="m19.19.68h-7.85a10.56 10.56 0 0 0 -.1 21.12h7a.79.79 0 0 0 .78-.62l3.68-16.1a3.6 3.6 0 0 0 -3.51-4.4" fill="#e15426"/><path d="m15.08 8.44a6 6 0 0 1 -1.88-5.74 4.69 4.69 0 0 0 -3.34 3.58c-1.14 4.08 1.69 5.4 0 6.82-1.9 1.61-3.54-1-3.28-3.3-1.2.94-1.93 4.79-.38 7.12a6 6 0 0 0 4.38 2.86 1.52 1.52 0 0 1 -.42-1.8c.3-.86 1.29-1.24 2.22-2a3.92 3.92 0 0 0 1.54-2 4 4 0 0 1 .62 3.64 3.52 3.52 0 0 1 -1.37 2 6.11 6.11 0 0 0 4.83-5.8c0-3-1.51-4.27-2.88-5.38" fill="#fff"/></svg>