<svg id="svg" version="1.1" xmlns="http://www.w3.org/2000/svg" xmlns:xlink="http://www.w3.org/1999/xlink" width="400" height="400" viewBox="0, 0, 400,400"><g id="svgg"><path id="path0" d="M194.599 94.101 C 171.334 95.808,158.402 106.665,146.737 134.284 C 130.107 173.658,110.371 187.039,67.067 188.298 C 59.293 188.524,58.515 188.620,58.515 189.358 C 58.515 193.705,98.504 194.542,113.724 190.514 C 131.720 185.751,140.740 176.866,156.949 147.937 C 168.078 128.074,175.458 119.055,184.179 114.661 C 201.824 105.770,226.953 116.953,231.981 135.934 C 236.479 152.912,223.421 174.583,206.035 178.994 C 186.898 183.848,171.832 165.541,184.165 152.417 C 189.345 146.904,194.680 146.838,199.925 152.222 L 202.251 154.609 202.251 152.964 C 202.251 132.084,172.496 136.905,166.569 158.745 C 159.687 184.101,185.492 200.389,215.454 189.602 C 243.909 179.358,258.811 142.209,244.278 117.745 C 235.167 102.408,214.624 92.631,194.599 94.101 M309.979 155.166 C 292.580 156.840,274.530 166.629,246.062 189.831 C 221.656 209.721,210.635 215.999,191.898 220.685 C 170.160 226.122,139.702 224.474,108.927 216.195 C 96.905 212.961,98.208 214.893,112.228 221.090 C 122.130 225.467,133.662 229.120,152.670 233.902 C 178.455 240.388,206.861 236.647,234.957 223.064 C 249.585 215.992,258.064 210.277,277.419 194.446 C 300.778 175.341,304.004 173.377,313.904 172.226 C 340.522 169.131,358.216 197.355,338.387 211.280 C 322.756 222.258,304.463 210.355,307.214 190.998 C 307.599 188.287,307.500 188.226,304.877 189.538 C 293.205 195.377,292.420 212.609,303.402 221.904 C 325.565 240.663,363.667 227.473,366.454 200.077 C 369.109 173.979,341.623 152.121,309.979 155.166 M37.871 218.177 C 30.387 218.900,31.509 219.838,43.061 222.522 C 69.377 228.636,85.846 235.953,112.828 253.518 C 163.967 286.808,181.160 295.913,204.403 302.013 C 251.316 314.327,292.551 295.944,293.997 262.073 C 294.652 246.717,284.310 234.120,268.122 230.557 C 248.502 226.238,229.475 248.004,240.319 262.363 C 242.242 264.910,242.556 264.823,242.839 261.665 C 244.605 241.939,269.597 236.518,278.187 253.998 C 288.411 274.806,253.557 292.807,216.827 285.687 C 197.102 281.863,177.496 273.408,130.625 248.509 C 103.257 233.970,96.288 230.545,85.071 226.116 C 69.193 219.848,51.457 216.864,37.871 218.177 " stroke="none" fill="#fbfbfb" fill-rule="evenodd"></path><path id="path1" d="M191.298 1.677 C 180.405 2.474,174.369 3.141,166.992 4.365 C 52.736 23.319,-20.525 135.398,7.330 248.624 C 25.348 321.863,86.230 379.975,160.240 394.576 C 284.604 419.112,398.520 326.081,398.495 200.000 C 398.474 91.004,311.304 2.632,202.851 1.658 C 197.322 1.608,192.123 1.617,191.298 1.677 M206.752 94.659 C 236.164 98.544,254.396 121.815,249.069 148.671 C 243.285 177.830,216.677 197.072,188.897 192.185 C 169.503 188.773,160.164 171.467,168.322 154.058 C 177.056 135.422,202.251 134.609,202.251 152.964 L 202.251 154.609 199.925 152.222 C 194.680 146.838,189.345 146.904,184.165 152.417 C 171.832 165.541,186.898 183.848,206.035 178.994 C 223.421 174.583,236.479 152.912,231.981 135.934 C 226.953 116.953,201.824 105.770,184.179 114.661 C 175.458 119.055,168.078 128.074,156.949 147.937 C 140.740 176.866,131.720 185.751,113.724 190.514 C 98.504 194.542,58.515 193.705,58.515 189.358 C 58.515 188.620,59.293 188.524,67.067 188.298 C 110.371 187.039,130.107 173.658,146.737 134.284 C 155.819 112.781,165.290 102.016,179.468 97.081 C 187.779 94.188,196.995 93.370,206.752 94.659 M321.424 155.152 C 348.962 157.927,368.735 177.653,366.454 200.077 C 363.667 227.473,325.565 240.663,303.402 221.904 C 292.420 212.609,293.205 195.377,304.877 189.538 C 307.500 188.226,307.599 188.287,307.214 190.998 C 304.463 210.355,322.756 222.258,338.387 211.280 C 358.216 197.355,340.522 169.131,313.904 172.226 C 304.004 173.377,300.778 175.341,277.419 194.446 C 258.064 210.277,249.585 215.992,234.957 223.064 C 206.861 236.647,178.455 240.388,152.670 233.902 C 133.662 229.120,122.130 225.467,112.228 221.090 C 98.208 214.893,96.905 212.961,108.927 216.195 C 139.702 224.474,170.160 226.122,191.898 220.685 C 210.635 215.999,221.656 209.721,246.062 189.831 C 279.982 162.185,299.966 152.990,321.424 155.152 M51.163 218.157 C 73.493 219.977,85.673 224.629,130.625 248.509 C 177.496 273.408,197.102 281.863,216.827 285.687 C 253.557 292.807,288.411 274.806,278.187 253.998 C 269.597 236.518,244.605 241.939,242.839 261.665 C 242.556 264.823,242.242 264.910,240.319 262.363 C 229.475 248.004,248.502 226.238,268.122 230.557 C 300.441 237.670,303.316 277.358,272.839 295.656 C 250.568 309.027,220.730 309.453,188.747 296.857 C 169.109 289.122,156.215 281.762,112.828 253.518 C 85.846 235.953,69.377 228.636,43.061 222.522 C 35.180 220.691,33.308 220.112,33.308 219.503 C 33.308 218.191,42.798 217.476,51.163 218.157 " stroke="none" fill="#9cb4b4" fill-rule="evenodd"></path></g></svg>