<svg id="svg" version="1.1" xmlns="http://www.w3.org/2000/svg" xmlns:xlink="http://www.w3.org/1999/xlink" width="400" height="400" viewBox="0, 0, 400,400"><g id="svgg"><path id="path0" d="M224.865 38.818 C 217.656 40.332,209.323 44.112,202.353 49.030 L 200.029 50.669 200.014 79.341 L 200.000 108.014 199.247 108.179 C 198.834 108.269,196.764 108.585,194.649 108.880 C 146.705 115.571,119.025 129.875,95.659 160.033 C 73.286 188.911,69.749 219.766,85.644 247.391 C 93.415 260.897,109.655 277.027,114.557 276.107 C 115.650 275.902,117.695 274.009,117.753 273.149 C 117.912 270.804,119.177 264.544,120.233 260.873 C 128.098 233.548,148.371 210.976,181.959 192.147 C 185.167 190.348,190.468 187.316,193.739 185.408 C 197.009 183.500,199.756 181.940,199.842 181.940 C 199.929 181.940,200.000 186.583,200.000 192.258 L 200.000 202.577 197.910 204.207 C 182.828 215.970,166.179 231.259,157.696 241.137 C 143.245 257.965,137.022 273.367,133.916 300.000 C 132.247 314.308,133.911 339.125,137.105 347.555 L 137.826 349.458 139.711 349.849 C 143.231 350.580,151.030 348.965,155.686 346.541 C 161.753 343.382,163.017 340.006,160.887 332.650 C 158.540 324.542,156.392 315.147,155.334 308.361 C 154.576 303.494,154.252 291.132,154.890 291.377 C 155.144 291.474,156.931 292.160,158.863 292.902 C 166.219 295.727,168.173 296.447,171.906 297.710 C 179.829 300.390,190.764 303.000,196.154 303.497 C 197.441 303.616,198.834 303.784,199.247 303.870 C 199.937 304.013,200.000 303.904,200.000 302.562 L 200.000 301.098 204.264 298.295 C 224.189 285.195,240.865 266.726,242.989 255.404 C 243.310 253.692,243.406 253.767,245.824 257.609 C 260.642 281.149,262.651 304.483,252.106 330.602 C 247.519 341.964,240.333 351.701,231.768 358.161 C 228.359 360.733,228.600 360.736,236.288 358.228 C 268.688 347.655,295.022 325.955,308.779 298.495 C 314.367 287.341,316.990 278.723,319.214 264.214 C 320.168 257.991,320.290 240.452,319.425 234.114 C 318.166 224.901,317.517 221.077,316.503 216.890 C 310.430 191.825,297.379 173.244,270.234 151.012 C 260.681 143.188,257.007 139.612,251.670 132.943 C 234.659 111.691,225.149 80.240,227.426 52.764 C 227.726 49.139,229.188 39.819,229.642 38.637 C 229.904 37.953,228.776 37.996,224.865 38.818 " stroke="none" fill="#fbfbfb" fill-rule="evenodd"></path><path id="path1" d="M200.000 25.251 C 200.000 39.139,200.094 50.502,200.210 50.502 C 200.325 50.502,201.417 49.773,202.635 48.883 C 209.052 44.195,217.729 40.295,225.073 38.798 C 229.112 37.975,229.907 37.947,229.642 38.637 C 229.188 39.819,227.726 49.139,227.426 52.764 C 225.149 80.240,234.659 111.691,251.670 132.943 C 257.007 139.612,260.681 143.188,270.234 151.012 C 297.379 173.244,310.430 191.825,316.503 216.890 C 317.517 221.077,318.166 224.901,319.425 234.114 C 320.290 240.452,320.168 257.991,319.214 264.214 C 312.303 309.306,282.434 343.169,236.288 358.228 C 228.600 360.736,228.359 360.733,231.768 358.161 C 240.333 351.701,247.519 341.964,252.106 330.602 C 262.651 304.483,260.642 281.149,245.824 257.609 C 243.406 253.767,243.310 253.692,242.989 255.404 C 240.865 266.726,224.189 285.195,204.264 298.295 L 200.000 301.098 200.000 350.549 L 200.000 400.000 204.431 399.998 C 257.593 399.971,313.938 373.784,350.222 332.239 C 430.707 240.086,411.439 99.205,309.197 32.279 C 278.560 12.224,239.130 0.058,204.599 0.007 L 200.000 0.000 200.000 25.251 " stroke="none" fill="#e45424" fill-rule="evenodd"></path><path id="path2" d="M184.281 0.514 C 42.444 12.246,-42.341 162.606,21.159 289.799 C 53.998 355.579,124.243 399.962,195.569 399.998 L 200.000 400.000 200.000 352.013 L 200.000 304.026 199.247 303.870 C 198.834 303.784,197.441 303.616,196.154 303.497 C 190.764 303.000,179.829 300.390,171.906 297.710 C 168.173 296.447,166.219 295.727,158.863 292.902 C 156.931 292.160,155.144 291.474,154.890 291.377 C 154.252 291.132,154.576 303.494,155.334 308.361 C 156.392 315.147,158.540 324.542,160.887 332.650 C 163.017 340.006,161.753 343.382,155.686 346.541 C 151.030 348.965,143.231 350.580,139.711 349.849 L 137.826 349.458 137.105 347.555 C 133.911 339.125,132.247 314.308,133.916 300.000 C 136.597 277.015,141.936 261.763,152.089 248.087 C 160.864 236.267,178.681 219.204,197.910 204.207 L 200.000 202.577 200.000 192.258 C 200.000 186.583,199.929 181.940,199.842 181.940 C 199.756 181.940,197.009 183.500,193.739 185.408 C 190.468 187.316,185.167 190.348,181.959 192.147 C 148.371 210.976,128.098 233.548,120.233 260.873 C 119.177 264.544,117.912 270.804,117.753 273.149 C 117.695 274.009,115.650 275.902,114.557 276.107 C 109.655 277.027,93.415 260.897,85.644 247.391 C 69.749 219.766,73.286 188.911,95.659 160.033 C 119.025 129.875,146.705 115.571,194.649 108.880 C 196.764 108.585,198.834 108.269,199.247 108.179 L 200.000 108.014 200.000 54.007 L 200.000 0.000 194.732 0.043 C 191.835 0.066,187.132 0.278,184.281 0.514 " stroke="none" fill="#8ba43b" fill-rule="evenodd"></path></g></svg>