<svg height="560" viewBox="0 0 560 560" width="560" xmlns="http://www.w3.org/2000/svg"><path d="m544 280c0-145.8-118.2-264-264-264v45.24c3.87 0 7 3.13 7 7l.76 34.28 37.96-16.69c3.54-1.56 7.67.05 9.22 3.59 1.56 3.54-.05 7.67-3.59 9.23l-43.26 19.01.79 35.73 54.7-25.5c3.5-1.63 7.67-.11 9.3 3.39 1.63 3.51.11 7.67-3.39 9.3l-60.28 28.1 1.27 57.72 30.68 17.71 50.57-27.69-5.8-66.19c-.34-3.86 2.51-7.25 6.36-7.59 3.87-.35 7.25 2.51 7.58 6.36l5.27 60.07 31.34-17.16-5.17-46.94c-.42-3.85 2.36-7.3 6.2-7.72 3.84-.43 7.3 2.34 7.72 6.19l4.53 41.2 30.06-16.47c3.35-1.93 7.63-.78 9.57 2.56 1.93 3.35.78 7.63-2.57 9.57l-29.33 17.77 33.46 24.55c3.11 2.29 3.79 6.67 1.5 9.79-1.37 1.87-3.5 2.86-5.65 2.86-1.44 0-2.89-.44-4.14-1.36l-38.13-27.99-30.58 18.53 49.5 34.67c3.17 2.22 3.93 6.58 1.72 9.75-1.37 1.94-3.54 2.98-5.74 2.98-1.39 0-2.79-.41-4.01-1.26l-54.56-38.22-49.13 29.77v35.87l49.13 29.77 54.56-38.21c3.16-2.22 7.53-1.45 9.75 1.71 2.21 3.17 1.45 7.54-1.72 9.75l-49.5 34.68 30.58 18.52 38.13-27.99c3.12-2.28 7.5-1.61 9.79 1.51 2.29 3.11 1.61 7.49-1.5 9.78l-33.46 24.55 29.33 17.78c3.35 1.93 4.5 6.21 2.57 9.56-1.3 2.24-3.65 3.5-6.07 3.5-1.19 0-2.39-.3-3.5-.94l-30.06-16.46-4.53 41.19c-.39 3.59-3.43 6.24-6.95 6.24-.25 0-.51-.01-.77-.04-3.84-.42-6.62-3.88-6.2-7.72l5.16-46.95-31.33-17.15-5.27 60.06c-.32 3.64-3.37 6.39-6.96 6.39-.21 0-.41-.01-.62-.03-3.85-.34-6.7-3.73-6.36-7.58l5.8-66.19-50.58-27.69-30.8 17.78-1.22 57.46 60.36 28.13c3.5 1.63 5.02 5.79 3.39 9.3-1.19 2.55-3.71 4.04-6.35 4.04-.99 0-2-.21-2.95-.65l-54.77-25.53-.76 35.74 43.3 19.03c3.54 1.56 5.15 5.69 3.59 9.23-1.15 2.62-3.72 4.18-6.41 4.18-.94 0-1.9-.19-2.81-.59l-37.99-16.7-.73 34.29c0 3.87-3.13 7-7 7v45.24c145.8 0 264-118.2 264-264z" fill="#40cef1"/><path d="m317.73 258.29-37.73-21.78v87.13l37.73-21.78z" fill="#40cef1"/><path d="m560 280c0 37.79-7.4 74.46-22.01 108.99-14.1 33.35-34.29 63.29-60 89s-55.65 45.9-89 60c-34.53 14.6-71.2 22.01-108.99 22.01-37.79 0-74.46-7.41-108.99-22.01-33.35-14.1-63.29-34.29-89-60s-45.9-55.65-60-89c-14.61-34.53-22.01-71.2-22.01-108.99s7.4-74.46 22.01-108.99c14.1-33.35 34.29-63.29 60-89s55.65-45.9 89-60c34.53-14.61 71.2-22.01 108.99-22.01 37.79 0 74.46 7.4 108.99 22.01 33.35 14.1 63.29 34.29 89 60s45.9 55.65 60 89c14.61 34.53 22.01 71.2 22.01 108.99zm-16 0c0-145.8-118.2-264-264-264-145.8 0-264 118.2-264 264s118.2 264 264 264c145.8 0 264-118.2 264-264z" fill="#fff" fill-rule="evenodd"/><path d="m280 418.41v-5.93c-16.66 10.93-31.44 20.31-36.94 36.07-5.22 14.98-4.23 34.45 10.52 44.9-45.71-5.26-81.52-29.4-109.52-71.4-38.95-58.42-20.5-154.5 9.5-178-4.5 56.5 30.56 117.58 82 82.5 44-30-22-88.5 0-170.5 9.68-36.06 26.79-59.06 44.44-72.74v-67.31c-145.8 0-264 118.2-264 264s118.2 264 264 264v-113z" fill="#f6501e"/><path d="m472.45 327.75c2.29 3.11 1.61 7.49-1.5 9.78l-33.46 24.55 29.33 17.78c3.35 1.93 4.5 6.21 2.57 9.56-1.3 2.24-3.65 3.5-6.07 3.5-1.19 0-2.39-.3-3.5-.94l-30.06-16.46-4.53 41.19c-.39 3.59-3.43 6.24-6.95 6.24-.25 0-.51-.01-.77-.04-3.84-.42-6.62-3.88-6.2-7.72l5.16-46.95-31.33-17.15-5.27 60.06c-.32 3.64-3.37 6.39-6.96 6.39-.21 0-.41-.01-.62-.03-3.85-.34-6.7-3.73-6.36-7.58l5.8-66.19-50.58-27.69-30.8 17.78-1.22 57.46 60.36 28.13c3.5 1.63 5.02 5.79 3.39 9.3-1.19 2.55-3.71 4.04-6.35 4.04-.99 0-2-.21-2.95-.65l-54.77-25.53-.76 35.74 43.3 19.03c3.54 1.56 5.15 5.69 3.59 9.23-1.15 2.62-3.72 4.18-6.41 4.18-.94 0-1.9-.19-2.81-.59l-37.99-16.7-.73 34.29c0 3.87-3.13 7-7 7v-86.28c-16.66 10.93-31.44 20.31-36.94 36.07-5.22 14.98-4.23 34.45 10.52 44.9-45.71-5.26-81.52-29.4-109.52-71.4-38.95-58.42-20.5-154.5 9.5-178-4.5 56.5 30.56 117.58 82 82.5 44-30-22-88.5 0-170.5 9.68-36.07 26.79-59.06 44.44-72.74v-22.07c3.87 0 7 3.13 7 7l.76 34.28 37.96-16.69c3.54-1.56 7.67.05 9.22 3.59 1.56 3.54-.05 7.67-3.59 9.23l-43.26 19.01.79 35.73 54.7-25.5c3.5-1.63 7.67-.11 9.3 3.39 1.63 3.51.11 7.67-3.39 9.3l-60.28 28.1 1.27 57.72 30.68 17.71 50.57-27.69-5.8-66.19c-.34-3.86 2.51-7.25 6.36-7.59 3.87-.35 7.25 2.51 7.58 6.36l5.27 60.07 31.34-17.16-5.17-46.94c-.42-3.85 2.36-7.3 6.2-7.72 3.84-.43 7.3 2.34 7.72 6.19l4.53 41.2 30.06-16.47c3.35-1.93 7.63-.78 9.57 2.56 1.93 3.35.78 7.63-2.57 9.57l-29.33 17.77 33.46 24.55c3.11 2.29 3.79 6.67 1.5 9.79-1.37 1.87-3.5 2.86-5.65 2.86-1.44 0-2.89-.44-4.14-1.36l-38.13-27.99-30.58 18.53 49.5 34.67c3.17 2.22 3.93 6.58 1.72 9.75-1.37 1.94-3.54 2.98-5.74 2.98-1.39 0-2.79-.41-4.01-1.26l-54.56-38.22-49.13 29.77v35.87l49.13 29.77 54.56-38.21c3.16-2.22 7.53-1.45 9.75 1.71 2.21 3.17 1.45 7.54-1.72 9.75l-49.5 34.68 30.58 18.52 38.13-27.99c3.12-2.28 7.5-1.61 9.79 1.51zm-154.72-69.46-37.73-21.78v87.13l37.73-21.78z" fill="#fff" fill-rule="evenodd"/></svg>