<svg version="1.2" baseProfile="tiny-ps" xmlns="http://www.w3.org/2000/svg" viewBox="0 0 560 560" width="560" height="560">
	<title>Layer 1</title>
	<style>
		tspan { white-space:pre }
		.shp0 { fill: #f6501e } 
		.shp1 { fill: #ffffff } 
		.shp2 { fill: #fdaa2f } 
	</style>
	<g id="Layer 1">
		<g id="&lt;Group&gt;">
			<g id="&lt;Group&gt;">
				<g id="&lt;Group&gt;">
					<path id="&lt;Path&gt;" class="shp0" d="M280 418.41L280 412.48C263.34 423.41 248.56 432.79 243.06 448.55C237.84 463.53 238.83 483 253.58 493.45C207.87 488.19 172.06 464.05 144.06 422.05C105.11 363.63 123.56 267.55 153.56 244.05C149.06 300.55 184.12 361.63 235.56 326.55C279.56 296.55 213.56 238.05 235.56 156.05C245.24 119.99 262.34 96.99 280 83.31L280 16C280 16 280 16 280 16C134.2 16 16 134.2 16 280C16 425.8 134.2 544 280 544C280 544 280 544 280 544L280 431L280 418.41Z" />
					<path id="&lt;Compound Path&gt;" fill-rule="evenodd" class="shp1" d="M560 280C560 317.79 552.6 354.46 537.99 388.99C523.89 422.34 503.7 452.28 477.99 477.99C452.28 503.7 422.34 523.89 388.99 537.99C354.46 552.59 317.79 560 280 560C280 560 280 560 280 560C280 560 280 560 280 560C242.21 560 205.54 552.59 171.01 537.99C137.66 523.89 107.72 503.7 82.01 477.99C56.3 452.28 36.11 422.34 22.01 388.99C7.4 354.46 0 317.79 0 280C0 242.21 7.4 205.54 22.01 171.01C36.11 137.66 56.3 107.72 82.01 82.01C107.72 56.3 137.66 36.11 171.01 22.01C205.54 7.4 242.21 0 280 0C280 0 280 0 280 0C280 0 280 0 280 0C317.79 0 354.46 7.4 388.99 22.01C422.34 36.11 452.28 56.3 477.99 82.01C503.7 107.72 523.89 137.66 537.99 171.01C552.6 205.54 560 242.21 560 280ZM544 280C544 134.2 425.8 16 280 16C280 16 280 16 280 16C280 16 280 16 280 16C134.2 16 16 134.2 16 280C16 425.8 134.2 544 280 544C280 544 280 544 280 544C280 544 280 544 280 544C425.8 544 544 425.8 544 280Z" />
				</g>
			</g>
			<g id="&lt;Group&gt;">
				<g id="&lt;Group&gt;">
					<path id="&lt;Path&gt;" class="shp2" d="M307.53 213.55L340.43 199.47L324.52 172.57L294.22 180.33L307.53 213.55Z" />
					<path id="&lt;Path&gt;" class="shp2" d="M307.53 346.45L294.22 379.67L324.52 387.44L340.43 360.53L307.53 346.45Z" />
					<path id="&lt;Path&gt;" class="shp2" d="M360.53 340.43L387.45 324.5L379.67 294.22L346.45 307.53L360.53 340.43Z" />
					<path id="&lt;Path&gt;" class="shp2" d="M375.57 184.43L365.61 207.71L391.28 220.59L409.2 150.86L339.42 168.75L352.29 194.39L375.57 184.43Z" />
					<path id="&lt;Path&gt;" class="shp2" d="M387.45 235.5L360.53 219.57L346.45 252.47L379.67 265.78L387.45 235.5Z" />
					<path id="&lt;Path&gt;" class="shp2" d="M391.65 270.58L415.15 280L391.65 289.42L400.69 316.67L462.69 280L400.69 243.33L391.65 270.58Z" />
					<path id="&lt;Path&gt;" class="shp2" d="M289.42 168.35L316.68 159.31L280.05 97.37L280 97.46L280 129.01L280 141.6L280 144.85L280 144.85L289.42 168.35Z" />
					<path id="&lt;Path&gt;" class="shp2" d="M544 280C544 134.2 425.8 16 280 16C280 16 280 16 280 16L280 57.69C280 57.69 280 57.69 280 57.69C282.27 57.69 284.34 58.97 285.36 61L332.12 154.18L431.06 121.35C433.21 120.63 435.59 121.2 437.19 122.81C438.8 124.41 439.36 126.78 438.65 128.94L405.82 227.88L499 274.64C501.03 275.65 502.31 277.73 502.31 280C502.31 282.27 501.03 284.34 499 285.36L405.81 332.11L438.65 431.06C439.36 433.22 438.8 435.59 437.19 437.19C436.05 438.34 434.52 438.95 432.95 438.95C432.32 438.95 431.68 438.85 431.06 438.65L332.11 405.82L285.36 499C284.34 501.03 282.27 502.31 280 502.31C280 502.31 280 502.31 280 502.31L280 544C280 544 280 544 280 544C425.8 544 544 425.8 544 280Z" />
					<path id="&lt;Path&gt;" class="shp2" d="M365.61 352.29L375.57 375.57L352.29 365.61L339.42 391.26L409.2 409.15L391.28 339.41L365.61 352.29Z" />
					<path id="&lt;Path&gt;" class="shp2" d="M316.68 400.69L289.42 391.65L280 415.15L280 415.15L280 418.41L280 431L280 462.55L280.05 462.64L316.68 400.69Z" />
					<path id="&lt;Compound Path&gt;" fill-rule="evenodd" class="shp1" d="M502.31 280C502.31 282.27 501.03 284.34 499 285.36L405.81 332.11L438.65 431.06C439.36 433.22 438.8 435.59 437.19 437.19C436.05 438.34 434.52 438.95 432.95 438.95C432.32 438.95 431.68 438.85 431.06 438.65L332.11 405.82L285.36 499C284.34 501.03 282.27 502.31 280 502.31C280 502.31 280 502.31 280 502.31L280 462.55L280.05 462.64L316.68 400.69L289.42 391.65L280 415.15L280 415.15L280 412.48C263.34 423.41 248.56 432.79 243.06 448.55C237.84 463.53 238.83 483 253.58 493.45C207.87 488.19 172.06 464.05 144.06 422.05C105.11 363.63 123.56 267.55 153.56 244.05C149.06 300.55 184.12 361.63 235.56 326.55C279.56 296.55 213.56 238.05 235.56 156.05C245.24 119.99 262.34 96.99 280 83.31L280 57.69C280 57.69 280 57.69 280 57.69C282.27 57.69 284.34 58.97 285.36 61L332.12 154.18L431.06 121.35C433.21 120.63 435.59 121.2 437.19 122.81C438.8 124.41 439.36 126.78 438.65 128.94L405.82 227.88L499 274.64C501.03 275.65 502.31 277.73 502.31 280ZM339.42 168.75L352.29 194.39L375.57 184.43L365.61 207.71L391.28 220.59L409.2 150.86L339.42 168.75ZM387.45 235.5L360.53 219.57L346.45 252.47L379.67 265.78L387.45 235.5ZM379.67 294.22L346.45 307.53L360.53 340.43L387.45 324.5L379.67 294.22ZM324.52 172.57L294.22 180.33L307.53 213.55L340.43 199.47L324.52 172.57ZM289.42 168.35L316.68 159.31L280.05 97.37L280 97.46L280 144.85L280 144.85L289.42 168.35ZM340.43 360.53L307.53 346.45L294.22 379.67L324.52 387.44L340.43 360.53ZM391.28 339.41L365.61 352.29L375.57 375.57L352.29 365.61L339.42 391.26L409.2 409.15L391.28 339.41ZM462.69 280L400.69 243.33L391.65 270.58L415.15 280L391.65 289.42L400.69 316.67L462.69 280Z" />
				</g>
			</g>
		</g>
	</g>
</svg>