<svg version="1.2" baseProfile="tiny-ps" xmlns="http://www.w3.org/2000/svg" viewBox="0 0 560 560" width="560" height="560">
	<title>Layer 1</title>
	<style>
		tspan { white-space:pre }
		.shp0 { fill: #40cef1 } 
		.shp1 { fill: #ffffff } 
		.shp2 { fill: #fdaa2f } 
	</style>
	<g id="Layer 1">
		<g id="&lt;Group&gt;">
			<g id="&lt;Group&gt;">
				<g id="&lt;Group&gt;">
					<path id="&lt;Path&gt;" class="shp0" d="M544 280C544 134.2 425.8 16 280 16L280 61.24C283.87 61.24 287 64.37 287 68.24L287.75 102.52L325.72 85.83C329.25 84.27 333.38 85.88 334.94 89.42C336.5 92.96 334.89 97.09 331.35 98.65L288.09 117.66L288.87 153.39L343.58 127.89C347.08 126.26 351.24 127.78 352.88 131.28C354.51 134.79 352.99 138.95 349.49 140.58L289.21 168.68L290.48 226.4L321.16 244.11L371.73 216.42L365.93 150.23C365.59 146.37 368.44 142.98 372.29 142.64C376.16 142.29 379.53 145.15 379.87 149L385.14 209.07L416.47 191.91L411.31 144.97C410.89 141.12 413.66 137.67 417.51 137.25C421.35 136.82 424.81 139.59 425.23 143.44L429.76 184.64L459.82 168.17C463.17 166.24 467.45 167.39 469.39 170.73C471.32 174.08 470.17 178.36 466.82 180.3L437.49 198.07L470.95 222.62C474.06 224.91 474.74 229.29 472.45 232.41C471.08 234.28 468.95 235.27 466.8 235.27C465.36 235.27 463.91 234.83 462.66 233.91L424.52 205.92L393.95 224.45L443.45 259.12C446.61 261.34 447.38 265.7 445.17 268.87C443.8 270.81 441.63 271.85 439.43 271.85C438.04 271.85 436.64 271.44 435.42 270.59L380.86 232.37L331.73 262.14L331.73 298.01L380.86 327.78L435.42 289.57C438.58 287.35 442.95 288.12 445.17 291.28C447.38 294.45 446.61 298.82 443.45 301.03L393.95 335.71L424.52 354.23L462.66 326.24C465.78 323.96 470.16 324.63 472.45 327.75C474.74 330.86 474.06 335.24 470.95 337.53L437.49 362.08L466.82 379.86C470.17 381.79 471.32 386.07 469.39 389.42C468.09 391.66 465.74 392.92 463.32 392.92C462.13 392.92 460.93 392.62 459.82 391.98L429.76 375.52L425.23 416.71C424.84 420.3 421.8 422.95 418.28 422.95C418.02 422.95 417.77 422.94 417.51 422.91C413.66 422.49 410.89 419.03 411.31 415.19L416.47 368.24L385.14 351.09L379.87 411.15C379.55 414.79 376.5 417.54 372.91 417.54C372.7 417.54 372.5 417.53 372.29 417.51C368.44 417.17 365.59 413.78 365.93 409.93L371.73 343.74L321.15 316.05L290.35 333.83L289.13 391.29L349.49 419.42C352.99 421.05 354.51 425.21 352.88 428.72C351.69 431.27 349.16 432.76 346.53 432.76C345.54 432.76 344.53 432.55 343.58 432.11L288.81 406.58L288.05 442.32L331.35 461.35C334.89 462.91 336.5 467.04 334.94 470.58C333.79 473.2 331.22 474.76 328.53 474.76C327.59 474.76 326.63 474.57 325.72 474.17L287.73 457.47L287 491.76C287 495.63 283.87 498.76 280 498.76L280 544C425.8 544 544 425.8 544 280Z" />
					<path id="&lt;Path&gt;" class="shp0" d="M317.73 258.29L280 236.51L280 323.64L317.73 301.86L317.73 258.29Z" />
					<path id="&lt;Compound Path&gt;" fill-rule="evenodd" class="shp1" d="M560 280C560 317.79 552.59 354.46 537.99 388.99C523.89 422.34 503.7 452.28 477.99 477.99C452.28 503.7 422.34 523.89 388.99 537.99C354.46 552.59 317.79 560 280 560C242.21 560 205.54 552.59 171.01 537.99C137.66 523.89 107.72 503.7 82.01 477.99C56.3 452.28 36.11 422.34 22.01 388.99C7.41 354.46 0 317.79 0 280C0 242.21 7.41 205.54 22.01 171.01C36.11 137.66 56.3 107.72 82.01 82.01C107.72 56.3 137.66 36.11 171.01 22.01C205.54 7.4 242.21 0 280 0C317.79 0 354.46 7.4 388.99 22.01C422.34 36.11 452.28 56.3 477.99 82.01C503.7 107.72 523.89 137.66 537.99 171.01C552.59 205.54 560 242.21 560 280ZM544 280C544 134.2 425.8 16 280 16C134.2 16 16 134.2 16 280C16 425.8 134.2 544 280 544C425.8 544 544 425.8 544 280Z" />
				</g>
			</g>
			<g id="&lt;Group&gt;">
				<g id="&lt;Group&gt;">
					<path id="&lt;Path&gt;" class="shp2" d="M194.39 207.71L184.43 184.43L207.71 194.39L220.59 168.74L150.91 150.86L168.76 220.57L194.39 207.71Z" />
					<path id="&lt;Path&gt;" class="shp2" d="M199.47 219.58L172.58 235.5L180.33 265.78L213.55 252.47L199.47 219.58Z" />
					<path id="&lt;Path&gt;" class="shp2" d="M172.58 324.5L199.47 340.42L213.55 307.53L180.33 294.22L172.58 324.5Z" />
					<path id="&lt;Path&gt;" class="shp2" d="M168.35 289.42L144.85 280L168.35 270.58L159.32 243.35L97.42 280L159.32 316.65L168.35 289.42Z" />
					<path id="&lt;Path&gt;" class="shp2" d="M280 418.41L280 415.15L270.58 391.65L243.36 400.68L280 462.55L280 431L280 418.41Z" />
					<path id="&lt;Path&gt;" class="shp2" d="M280 129.01L280 97.46L243.36 159.32L270.58 168.35L280 144.85L280 141.6L280 129.01Z" />
					<path id="&lt;Path&gt;" class="shp2" d="M219.58 199.47L252.47 213.55L265.78 180.33L235.52 172.57L219.58 199.47Z" />
					<path id="&lt;Path&gt;" class="shp2" d="M219.58 360.53L235.52 387.44L265.78 379.67L252.47 346.45L219.58 360.53Z" />
					<path id="&lt;Path&gt;" class="shp2" d="M274.64 499L227.88 405.82L128.94 438.65C126.78 439.36 124.41 438.8 122.81 437.19C121.2 435.59 120.64 433.22 121.35 431.06L154.18 332.11L61 285.36C58.97 284.34 57.69 282.27 57.69 280C57.69 277.73 58.97 275.65 61 274.64L154.18 227.89L121.35 128.94C120.64 126.78 121.2 124.41 122.81 122.81C124.41 121.2 126.78 120.64 128.94 121.35L227.88 154.18L274.64 61C275.66 58.97 277.73 57.69 280 57.69L280 16C134.2 16 16 134.2 16 280C16 425.8 134.2 544 280 544L280 502.31C277.73 502.31 275.66 501.03 274.64 499Z" />
					<path id="&lt;Path&gt;" class="shp2" d="M184.43 375.57L194.39 352.29L168.76 339.43L150.91 409.15L220.59 391.27L207.71 365.61L184.43 375.57Z" />
					<path id="&lt;Compound Path&gt;" fill-rule="evenodd" class="shp1" d="M472.45 327.75C474.74 330.86 474.06 335.24 470.95 337.53L437.49 362.08L466.82 379.86C470.17 381.79 471.32 386.07 469.39 389.42C468.09 391.66 465.74 392.92 463.32 392.92C462.13 392.92 460.93 392.62 459.82 391.98L429.76 375.52L425.23 416.71C424.84 420.3 421.8 422.95 418.28 422.95C418.02 422.95 417.77 422.94 417.51 422.91C413.66 422.49 410.89 419.03 411.31 415.19L416.47 368.24L385.14 351.09L379.87 411.15C379.55 414.79 376.5 417.54 372.91 417.54C372.7 417.54 372.5 417.53 372.29 417.51C368.44 417.17 365.59 413.78 365.93 409.93L371.73 343.74L321.15 316.05L290.35 333.83L289.13 391.29L349.49 419.42C352.99 421.05 354.51 425.21 352.88 428.72C351.69 431.27 349.16 432.76 346.53 432.76C345.54 432.76 344.53 432.55 343.58 432.11L288.81 406.58L288.05 442.32L331.35 461.35C334.89 462.91 336.5 467.04 334.94 470.58C333.79 473.2 331.22 474.76 328.53 474.76C327.59 474.76 326.63 474.57 325.72 474.17L287.73 457.47L287 491.76C287 495.63 283.87 498.76 280 498.76L280 502.31C277.73 502.31 275.66 501.03 274.64 499L227.88 405.82L128.94 438.65C126.78 439.36 124.41 438.8 122.81 437.19C121.2 435.59 120.64 433.22 121.35 431.06L154.18 332.11L61 285.36C58.97 284.34 57.69 282.27 57.69 280C57.69 277.73 58.97 275.65 61 274.64L154.18 227.89L121.35 128.94C120.64 126.78 121.2 124.41 122.81 122.81C124.41 121.2 126.78 120.64 128.94 121.35L227.88 154.18L274.64 61C275.66 58.97 277.73 57.69 280 57.69L280 61.24C283.87 61.24 287 64.37 287 68.24L287.75 102.52L325.72 85.83C329.25 84.27 333.38 85.88 334.94 89.42C336.5 92.96 334.89 97.09 331.35 98.65L288.09 117.66L288.87 153.39L343.58 127.89C347.08 126.26 351.24 127.78 352.88 131.28C354.51 134.79 352.99 138.95 349.49 140.58L289.21 168.68L290.48 226.4L321.16 244.11L371.73 216.42L365.93 150.23C365.59 146.37 368.44 142.98 372.29 142.64C376.16 142.29 379.53 145.15 379.87 149L385.14 209.07L416.48 191.91L411.31 144.97C410.89 141.12 413.66 137.67 417.51 137.25C421.35 136.82 424.81 139.59 425.23 143.44L429.76 184.64L459.82 168.17C463.17 166.24 467.45 167.39 469.39 170.73C471.32 174.08 470.17 178.36 466.82 180.3L437.49 198.07L470.95 222.62C474.06 224.91 474.74 229.29 472.45 232.41C471.08 234.28 468.95 235.27 466.8 235.27C465.36 235.27 463.91 234.83 462.66 233.91L424.52 205.92L393.95 224.45L443.45 259.12C446.61 261.34 447.38 265.7 445.17 268.87C443.8 270.81 441.63 271.85 439.43 271.85C438.04 271.85 436.64 271.44 435.42 270.59L380.86 232.37L331.73 262.14L331.73 298.01L380.86 327.78L435.42 289.57C438.58 287.35 442.95 288.12 445.17 291.28C447.38 294.45 446.61 298.82 443.45 301.03L393.95 335.71L424.52 354.23L462.66 326.24C465.78 323.96 470.16 324.63 472.45 327.75ZM243.36 159.32L270.58 168.35L280 144.85L280 97.46L243.36 159.32ZM219.58 199.47L252.47 213.55L265.78 180.33L235.52 172.57L219.58 199.47ZM168.76 220.57L194.39 207.71L184.43 184.43L207.71 194.39L220.59 168.74L150.91 150.86L168.76 220.57ZM213.55 252.47L199.47 219.58L172.58 235.5L180.33 265.78L213.55 252.47ZM180.33 294.22L172.58 324.5L199.47 340.42L213.55 307.53L180.33 294.22ZM159.32 316.65L168.35 289.42L144.85 280L168.35 270.58L159.32 243.35L97.42 280L159.32 316.65ZM220.59 391.27L207.71 365.61L184.43 375.57L194.39 352.29L168.76 339.43L150.91 409.15L220.59 391.27ZM235.52 387.44L265.78 379.67L252.47 346.45L219.58 360.53L235.52 387.44ZM280 415.15L270.58 391.65L243.36 400.68L280 462.55L280 415.15ZM317.73 258.29L280 236.51L280 323.64L317.73 301.86L317.73 258.29Z" />
				</g>
			</g>
		</g>
	</g>
</svg>