<svg height="1200" viewBox="0 0 1200 1200" width="1200" xmlns="http://www.w3.org/2000/svg" xmlns:xlink="http://www.w3.org/1999/xlink"><clipPath id="a"><path d="m0 0h1200v1200h-1200z"/></clipPath><g clip-path="url(#a)"><path d="m600 1144c-145.31 0-281.92-56.59-384.67-159.33-102.74-102.75-159.33-239.36-159.33-384.67s56.59-281.92 159.33-384.67c102.75-102.74 239.36-159.33 384.67-159.33s281.92 56.59 384.67 159.33c102.74 102.75 159.33 239.36 159.33 384.67s-56.59 281.92-159.33 384.67c-102.75 102.74-239.36 159.33-384.67 159.33z" fill="#fdaa2f"/><g fill="#fff" fill-rule="evenodd"><path d="m817.99 84.02c66.68 28.21 126.57 68.58 177.99 120s91.79 111.3 120 177.99c29.21 69.06 44.02 142.4 44.02 217.99s-14.81 148.93-44.02 217.99c-28.21 66.69-68.58 126.57-120 177.99s-111.31 91.79-177.99 120c-69.06 29.21-142.41 44.02-217.99 44.02-75.59 0-148.93-14.81-217.99-44.02-66.69-28.21-126.57-68.58-177.99-120s-91.79-111.3-120-177.99c-29.21-69.06-44.02-142.4-44.02-217.99s14.81-148.93 44.02-217.99c28.21-66.69 68.58-126.57 120-177.99s111.3-91.79 177.99-120c69.06-29.21 142.4-44.02 217.99-44.02 75.58 0 148.93 14.81 217.99 44.02zm-745.99 515.98c0 291.61 236.39 528 528 528s528-236.39 528-528-236.39-528-528-528-528 236.39-528 528z"/><path d="m1044.61 600c0 4.54-2.56 8.69-6.61 10.73l-186.37 93.5 65.66 197.9c1.43 4.3.31 9.05-2.9 12.26-2.29 2.29-5.35 3.51-8.49 3.51-1.26 0-2.54-.19-3.77-.61l-197.9-65.66-93.5 186.37c-2.04 4.05-6.19 6.62-10.73 6.62s-8.69-2.57-10.73-6.62l-93.5-186.37-197.89 65.66c-4.31 1.44-9.06.31-12.27-2.9s-4.33-7.96-2.9-12.26l65.66-197.9-186.36-93.5c-4.06-2.04-6.62-6.19-6.62-10.73s2.56-8.69 6.62-10.73l186.36-93.5-65.66-197.89c-1.43-4.31-.31-9.06 2.9-12.27s7.96-4.34 12.27-2.9l197.89 65.66 93.5-186.37c2.04-4.05 6.19-6.61 10.73-6.61s8.69 2.56 10.73 6.61l93.5 186.37 197.9-65.66c4.3-1.44 9.05-.31 12.26 2.9s4.33 7.96 2.9 12.27l-65.66 197.89 186.37 93.5c4.05 2.04 6.61 6.19 6.61 10.73zm-222.05 118.81-51.35 25.77 19.93 46.56-46.56-19.93-25.74 51.3 139.55 35.78zm-149.2 122.58-54.52-18.09-18.84 47-18.83-47-54.45 18.06 73.39 123.92zm-192.19-18.85-25.75-51.33-46.55 19.93 19.92-46.56-51.27-25.72-35.7 139.43zm-122.54-149.24 18.07-54.47-47.01-18.83 47.01-18.83-18.07-54.46-123.79 73.3zm18.89-192.16 51.27-25.72-19.92-46.55 46.55 19.92 25.75-51.32-139.35-35.75zm149.2-122.5 54.45 18.07 18.83-47.01 18.84 47.01 54.52-18.1-73.25-123.87zm272.63 212.93 15.56-60.57-53.85-31.85-28.15 65.8zm-38.29 149.28 53.85-31.84-15.56-60.58-66.44 26.62zm-132.63 78.49 60.61 15.54 31.82-53.82-65.81-28.15zm-149.27-38.28 31.87 53.81 60.54-15.53-26.62-66.43zm-78.49-132.62-15.51 60.56 53.78 31.84 28.15-65.79zm38.27-149.28-53.78 31.84 15.51 60.56 66.42-26.61zm132.63-78.5-60.54-15.53-31.87 53.81 65.79 28.15zm149.29 38.28-31.82-53.81-60.6 15.54 26.61 66.42zm-2.02-61.45 25.74 51.3 46.56-19.92-19.93 46.55 51.36 25.77 35.82-139.47zm246.54 222.52-124-73.35-18.08 54.5 47.01 18.84-47.01 18.84 18.08 54.51z"/></g></g></svg>