<svg xmlns="http://www.w3.org/2000/svg" width="746.667" height="746.667" viewBox="0 0 197.556 197.556">
    <path
        d="M98.778 194.733c-25.63 0-49.727-9.98-67.851-28.104S2.822 124.409 2.822 98.778c0-25.63 9.981-49.727 28.105-67.851s42.22-28.105 67.85-28.105c25.631 0 49.728 9.981 67.852 28.105 18.123 18.124 28.104 42.22 28.104 67.85 0 25.631-9.98 49.728-28.104 67.852-18.124 18.123-42.22 28.104-67.851 28.104"
        style="fill:#202830;fill-opacity:1;fill-rule:nonzero;stroke:none;stroke-width:.352778" />
    <path
        d="M0 0c-37.793 0-74.464-7.405-108.993-22.011-33.345-14.102-63.287-34.29-88.997-59.999-25.709-25.71-45.897-55.652-59.999-88.997C-272.595-205.536-280-242.207-280-280s7.405-74.464 22.011-108.993c14.102-33.345 34.29-63.287 59.999-88.997 25.71-25.709 55.652-45.896 88.997-59.999C-74.464-552.595-37.793-560 0-560s74.464 7.405 108.993 22.011c33.345 14.103 63.287 34.29 88.997 59.999 25.709 25.71 45.897 55.652 59.999 88.997C272.595-354.464 280-317.793 280-280s-7.405 74.464-22.011 108.993c-14.102 33.345-34.29 63.287-59.999 88.997-25.71 25.709-55.652 45.897-88.997 59.999C74.464-7.405 37.793 0 0 0m0-16c145.803 0 264-118.196 264-264 0-145.803-118.197-264-264-264s-264 118.197-264 264C-264-134.196-145.803-16 0-16"
        style="fill:currentColor;fill-opacity:1;fill-rule:nonzero;stroke:none"
        transform="matrix(.35278 0 0 -.35278 98.778 0)" />
    <path
        d="M0 0c-8.87 0-17.561.8-26 2.32a157 157 0 0 1 17.54 9.441 155 155 0 0 1 5.276 3.453c73.09 1.203 131.963 59.194 131.963 130.566 0 71.385-58.877 129.378-131.971 130.577a161 161 0 0 1-5.279 3.454A157 157 0 0 1-26 289.25a146.5 146.5 0 0 0 26 2.32c80.38 0 145.779-65.4 145.779-145.79C145.779 65.4 80.38 0 0 0m-45.83 7.38c-6.42-2.14-13.05-3.83-19.83-5.06C-74.1.8-82.78 0-91.65 0c-80.39 0-145.79 65.4-145.79 145.78 0 80.39 65.4 145.79 145.79 145.79 8.87 0 17.55-.799 25.99-2.32 6.78-1.229 13.41-2.92 19.83-5.06a144 144 0 0 0 17.51-7.11c48.75-23.61 82.45-73.59 82.45-131.3 0-57.7-33.7-107.679-82.45-131.29a144 144 0 0 0-17.51-7.11M0 303.57c-15.93 0-31.311-2.37-45.82-6.79-14.51 4.42-29.901 6.79-45.83 6.79-87.01 0-157.79-70.78-157.79-157.79 0-87 70.78-157.78 157.79-157.78 15.929 0 31.32 2.37 45.83 6.79C-31.311-9.63-15.93-12 0-12c87 0 157.779 70.78 157.779 157.78C157.779 232.79 87 303.57 0 303.57"
        style="fill:#fff;fill-opacity:1;fill-rule:nonzero;stroke:none"
        transform="matrix(.35278 0 0 -.35278 114.946 150.208)" />
</svg>