<svg height="1200" viewBox="0 0 1200 1200" width="1200" xmlns="http://www.w3.org/2000/svg" xmlns:xlink="http://www.w3.org/1999/xlink"><clipPath id="a"><path d="m0 0h1200v1200h-1200z"/></clipPath><g clip-path="url(#a)"><path d="m600 1144c-145.31 0-281.92-56.59-384.67-159.33-102.74-102.75-159.33-239.36-159.33-384.67s56.59-281.92 159.33-384.67c102.75-102.74 239.36-159.33 384.67-159.33s281.92 56.59 384.67 159.33c102.74 102.75 159.33 239.36 159.33 384.67s-56.59 281.92-159.33 384.67c-102.75 102.74-239.36 159.33-384.67 159.33z" fill="#f6501e"/><path d="m817.99 84.02c66.69 28.21 126.57 68.58 177.99 120s91.79 111.3 120 177.99c29.21 69.06 44.02 142.4 44.02 217.99s-14.81 148.93-44.02 217.99c-28.21 66.69-68.58 126.57-120 177.99s-111.3 91.79-177.99 120c-69.06 29.21-142.4 44.02-217.99 44.02s-148.93-14.81-217.99-44.02c-66.69-28.21-126.57-68.58-177.99-120s-91.79-111.3-120-177.99c-29.21-69.06-44.02-142.4-44.02-217.99s14.81-148.93 44.02-217.99c28.21-66.69 68.58-126.57 120-177.99s111.3-91.79 177.99-120c69.06-29.21 142.4-44.02 217.99-44.02s148.93 14.81 217.99 44.02zm-745.99 515.98c0 291.61 236.39 528 528 528s528-236.39 528-528-236.39-528-528-528-528 236.39-528 528zm844.12 129.11c-.35 168.12-129.72 263.5-239.67 291.9 34.72-22.22 56.65-59.66 68.67-98.9 26.17-85.37-5-143-31-182-3 19-25 59-77 99-46.52 35.78-96 55-111 98-10.45 29.95-8.45 68.9 21.04 89.78-91.41-10.51-163.04-58.78-219.04-142.78-77.89-116.84-41-309 19-356-9 113 61.12 235.16 164 165 88-60-44-177 0-341 34.46-128.43 116-174 167-179-23 88 9 218 94 287 68.27 55.42 144.32 119 144 269z" fill="#fff" fill-rule="evenodd"/></g></svg>