<svg version="1.2" baseProfile="tiny-ps" xmlns="http://www.w3.org/2000/svg" viewBox="0 0 560 560" width="560" height="560">
	<title>Layer 1</title>
	<style>
		tspan { white-space:pre }
		.shp0 { fill: #40cef1 } 
		.shp1 { fill: #93b7bb } 
		.shp2 { fill: #ffffff } 
	</style>
	<g id="Layer 1">
		<g id="&lt;Group&gt;">
			<g id="&lt;Group&gt;">
				<g id="&lt;Group&gt;">
					<path id="&lt;Path&gt;" class="shp0" d="M273 491.76L272.23 457.49L234.28 474.17C233.37 474.57 232.41 474.76 231.47 474.76C228.78 474.76 226.21 473.2 225.06 470.58C223.5 467.04 225.11 462.91 228.65 461.35L271.89 442.35L271.08 406.63L216.42 432.11C215.47 432.55 214.46 432.76 213.47 432.76C210.83 432.76 208.31 431.27 207.12 428.72C205.49 425.21 207 421.05 210.51 419.42L270.74 391.35L269.44 333.71L238.53 315.87L188.25 343.53L194.07 409.93C194.41 413.78 191.56 417.17 187.71 417.51C187.5 417.53 187.3 417.54 187.09 417.54C183.5 417.54 180.44 414.79 180.13 411.15L174.84 350.9L143.51 368.14L148.68 415.19C149.11 419.03 146.33 422.49 142.49 422.91C142.23 422.94 141.97 422.95 141.72 422.95C138.19 422.95 135.16 420.3 134.77 416.71L130.23 375.44L100.18 391.98C99.07 392.62 97.87 392.92 96.68 392.92C94.26 392.92 91.91 391.66 90.61 389.42C88.68 386.07 89.83 381.79 93.18 379.86L122.45 362.04L89.05 337.53C85.94 335.24 85.26 330.86 87.55 327.75C89.84 324.63 94.22 323.96 97.33 326.24L135.39 354.17L165.9 335.6L116.55 301.03C113.38 298.82 112.61 294.45 114.83 291.28C117.05 288.12 121.42 287.35 124.58 289.57L178.95 327.65L228.27 297.64L228.27 262.14L179.14 232.37L124.58 270.59C123.36 271.44 121.96 271.85 120.57 271.85C118.37 271.85 116.19 270.81 114.83 268.87C112.61 265.7 113.38 261.34 116.55 259.12L166.05 224.45L135.47 205.92L97.33 233.91C96.09 234.82 94.64 235.27 93.2 235.27C91.05 235.27 88.92 234.28 87.55 232.41C85.26 229.29 85.94 224.91 89.05 222.62L122.51 198.07L93.18 180.3C89.83 178.36 88.68 174.08 90.61 170.73C92.55 167.39 96.83 166.24 100.18 168.17L130.24 184.63L134.77 143.44C135.19 139.59 138.66 136.82 142.49 137.25C146.33 137.67 149.11 141.12 148.68 144.97L143.53 191.91L174.86 209.07L180.13 149C180.46 145.15 183.85 142.29 187.71 142.64C191.56 142.98 194.41 146.37 194.07 150.23L188.27 216.41L238.85 244.1L269.56 226.37L270.81 168.69L210.51 140.58C207 138.95 205.49 134.79 207.12 131.28C208.75 127.78 212.92 126.26 216.42 127.89L271.15 153.4L271.92 117.67L228.65 98.65C225.11 97.09 223.5 92.96 225.06 89.42C226.61 85.88 230.74 84.27 234.28 85.83L272.25 102.52L273 68.24C273 64.37 276.13 61.24 280 61.24L280 16C134.2 16 16 134.2 16 280C16 425.8 134.2 544 280 544L280 498.76C276.13 498.76 273 495.63 273 491.76Z" />
					<path id="&lt;Path&gt;" class="shp0" d="M242.27 258.29L242.27 301.86L280 323.64L280 236.51L242.27 258.29Z" />
				</g>
			</g>
			<g id="&lt;Group&gt;">
				<g id="&lt;Group&gt;">
					<path id="&lt;Path&gt;" class="shp1" d="M544 280C544 134.2 425.8 16 280 16L280 129.01L280 138.71C296.32 139.15 313.65 144.52 328.13 156.91C362.63 186.41 344.3 243.99 310.05 261.74C300.41 266.73 289.97 269.52 280 270.17L280 304.44C329.76 287.56 342.96 254.93 398.38 228.07C436.33 209.68 485.88 222.91 499.38 259.91C512.88 296.91 477.71 322.41 449.88 320.91C426.91 319.67 411.39 306.55 408.38 295.89C405.05 284.07 409.71 268.74 423.38 264.41C419.38 282.41 429.17 302.09 449.38 300.91C469.38 299.74 487.05 274.68 468.38 255.91C449.69 237.1 426.38 240.74 412.38 249.41C397.45 258.65 362.38 293.41 332.38 307.91C317.83 314.94 299.85 322.29 280 326.35L280 388.32C296.97 394.12 312.76 397.47 326.08 396.67C368.13 394.16 388.61 378.35 386.38 358.91C384.63 343.66 367.63 333.66 354.63 338.66C341.63 343.66 335.88 355.41 336.88 366.41C325.88 357.91 329.88 341.41 333.38 336.91C336.88 332.41 356.07 306.24 388.88 328.91C416.38 347.91 404.76 384.92 388.88 398.91C378.38 408.16 346.88 431.41 287.38 416.41C284.93 415.79 282.47 415.1 280 414.35L280 418.41L280 431L280 544C425.8 544 544 425.8 544 280Z" />
					<path id="&lt;Path&gt;" class="shp1" d="M282.88 219.91C282.18 218.68 281.22 217.39 280 216.02L280 253.19C290.1 253.1 301.43 248.48 311.05 237.07C332.55 211.57 327.88 176.91 292.38 164.41C288.02 162.87 283.91 161.99 280 161.65L280 206.26C282.63 210.23 283.59 214.78 282.88 219.91Z" />
					<path id="&lt;Compound Path&gt;" fill-rule="evenodd" class="shp2" d="M560 280C560 317.79 552.59 354.46 537.99 388.99C523.89 422.34 503.7 452.28 477.99 477.99C452.28 503.7 422.34 523.89 388.99 537.99C354.46 552.59 317.79 560 280 560C242.21 560 205.54 552.59 171.01 537.99C137.66 523.89 107.72 503.7 82.01 477.99C56.3 452.28 36.11 422.34 22.01 388.99C7.4 354.46 0 317.79 0 280C0 242.21 7.4 205.54 22.01 171.01C36.11 137.66 56.3 107.72 82.01 82.01C107.72 56.3 137.66 36.11 171.01 22.01C205.54 7.4 242.21 0 280 0C317.79 0 354.46 7.4 388.99 22.01C422.34 36.11 452.28 56.3 477.99 82.01C503.7 107.72 523.89 137.66 537.99 171.01C552.59 205.54 560 242.21 560 280ZM544 280C544 134.2 425.8 16 280 16C134.2 16 16 134.2 16 280C16 425.8 134.2 544 280 544C425.8 544 544 425.8 544 280Z" />
					<path id="&lt;Path&gt;" class="shp2" d="M499.38 259.91C485.88 222.91 436.33 209.68 398.38 228.07C342.96 254.93 329.76 287.56 280 304.44L280 323.64L242.27 301.86L242.27 258.29L280 236.51L280 216.02C281.22 217.39 282.18 218.68 282.88 219.91C283.59 214.78 282.63 210.23 280 206.26L280 161.65C283.91 161.99 288.02 162.87 292.38 164.41C327.88 176.91 332.55 211.57 311.05 237.07C301.43 248.48 290.1 253.1 280 253.19L280 270.17C289.97 269.52 300.41 266.73 310.05 261.74C344.3 243.99 362.63 186.41 328.13 156.91C313.65 144.52 296.32 139.15 280 138.71L280 129.01L280 61.24C276.13 61.24 273 64.37 273 68.24L272.25 102.52L234.28 85.83C230.74 84.27 226.61 85.88 225.06 89.42C223.5 92.96 225.11 97.09 228.65 98.65L271.92 117.67L271.15 153.4L216.42 127.89C212.92 126.26 208.75 127.78 207.12 131.28C205.49 134.79 207 138.95 210.51 140.58L270.81 168.69L269.56 226.37L238.85 244.1L188.27 216.41L194.07 150.23C194.41 146.37 191.56 142.98 187.71 142.64C183.85 142.29 180.46 145.15 180.13 149L174.86 209.07L143.53 191.91L148.69 144.97C149.11 141.12 146.33 137.67 142.49 137.25C138.66 136.82 135.19 139.59 134.77 143.44L130.24 184.63L100.18 168.17C96.83 166.24 92.55 167.39 90.61 170.73C88.68 174.08 89.83 178.36 93.18 180.3L122.51 198.07L89.05 222.62C85.94 224.91 85.26 229.29 87.55 232.41C88.92 234.28 91.05 235.27 93.2 235.27C94.64 235.27 96.09 234.82 97.33 233.91L135.48 205.92L166.05 224.45L116.55 259.12C113.38 261.34 112.61 265.7 114.83 268.87C116.2 270.81 118.37 271.85 120.57 271.85C121.96 271.85 123.36 271.44 124.58 270.59L179.14 232.37L228.27 262.14L228.27 297.64L178.95 327.65L124.58 289.57C121.42 287.35 117.05 288.12 114.83 291.28C112.61 294.45 113.38 298.82 116.55 301.03L165.9 335.6L135.39 354.17L97.33 326.24C94.22 323.96 89.84 324.63 87.55 327.75C85.26 330.86 85.94 335.24 89.05 337.53L122.45 362.04L93.18 379.86C89.83 381.79 88.68 386.07 90.61 389.42C91.91 391.66 94.26 392.92 96.68 392.92C97.87 392.92 99.07 392.62 100.18 391.98L130.23 375.44L134.77 416.71C135.16 420.3 138.19 422.95 141.72 422.95C141.97 422.95 142.23 422.94 142.49 422.91C146.33 422.49 149.11 419.03 148.69 415.19L143.52 368.14L174.84 350.9L180.13 411.15C180.44 414.79 183.5 417.54 187.09 417.54C187.3 417.54 187.5 417.53 187.71 417.51C191.56 417.17 194.41 413.78 194.07 409.93L188.25 343.53L238.53 315.87L269.44 333.71L270.74 391.35L210.51 419.42C207 421.05 205.49 425.21 207.12 428.72C208.31 431.27 210.83 432.76 213.47 432.76C214.46 432.76 215.47 432.55 216.42 432.11L271.08 406.63L271.89 442.35L228.65 461.35C225.11 462.91 223.5 467.04 225.06 470.58C226.21 473.2 228.78 474.76 231.47 474.76C232.41 474.76 233.37 474.57 234.28 474.17L272.23 457.49L273 491.76C273 495.63 276.13 498.76 280 498.76L280 431L280 418.41L280 414.35C282.47 415.1 284.93 415.79 287.38 416.41C346.88 431.41 378.38 408.16 388.88 398.91C404.76 384.92 416.38 347.91 388.88 328.91C356.07 306.24 336.88 332.41 333.38 336.91C329.88 341.41 325.88 357.91 336.88 366.41C335.88 355.41 341.63 343.66 354.63 338.66C367.63 333.66 384.63 343.66 386.38 358.91C388.61 378.35 368.13 394.16 326.08 396.67C312.76 397.47 296.97 394.12 280 388.32L280 326.35C299.85 322.29 317.83 314.94 332.38 307.91C362.38 293.41 397.45 258.65 412.38 249.41C426.38 240.74 449.69 237.1 468.38 255.91C487.05 274.68 469.38 299.74 449.38 300.91C429.17 302.09 419.38 282.41 423.38 264.41C409.71 268.74 405.05 284.07 408.38 295.89C411.39 306.55 426.91 319.67 449.88 320.91C477.71 322.41 512.88 296.91 499.38 259.91Z" />
				</g>
			</g>
		</g>
	</g>
</svg>