<svg height="560" viewBox="0 0 560 560" width="560" xmlns="http://www.w3.org/2000/svg"><path d="m544 280c0-145.8-118.2-264-264-264v67.31c13.78-10.67 27.89-15.66 39.06-16.76-11.5 44 4.5 109 47 143.5 34.14 27.71 72.16 59.5 72 134.5-.17 84.06-64.86 131.75-119.84 145.95 17.36-11.11 28.33-29.83 34.34-49.45 13.08-42.68-2.5-71.5-15.5-91-1.5 9.5-12.5 29.5-38.5 49.5-6.2 4.77-12.5 8.95-18.56 12.93v5.93 12.59 113c145.8 0 264-118.2 264-264z" fill="#f6501e"/><path d="m560 280c0 37.79-7.41 74.46-22.01 108.99-14.1 33.35-34.29 63.29-60 89s-55.65 45.9-89 60c-34.53 14.6-71.2 22.01-108.99 22.01s-74.46-7.41-108.99-22.01c-33.35-14.1-63.29-34.29-89-60s-45.9-55.65-60-89c-14.6-34.53-22.01-71.2-22.01-108.99s7.41-74.46 22.01-108.99c14.1-33.35 34.29-63.29 60-89s55.65-45.9 89-60c34.53-14.61 71.2-22.01 108.99-22.01s74.46 7.4 108.99 22.01c33.35 14.1 63.29 34.29 89 60s45.9 55.65 60 89c14.6 34.53 22.01 71.2 22.01 108.99zm-16 0c0-145.8-118.2-264-264-264s-264 118.2-264 264 118.2 264 264 264 264-118.2 264-264z" fill="#fff" fill-rule="evenodd"/><path d="m280 418.41v-2.24c-24.79-1.97-45.23-11.41-59.99-16.64-1.5 18 4.5 41.92 9.5 58.42s-27 21.08-31 18.08-18.61-83.75 18.5-133c15.73-20.86 38.9-40.84 62.99-59.85v-27.75c-7.87 4.65-16.34 9.51-25.49 14.6-68.44 38.11-80.63 85.6-82.66 104.82-.42 4-4.89 6.18-8.27 3.99-24.28-15.78-85.57-80.68-11.57-162.81 37.73-41.87 81.41-50.73 127.99-57.28v-17.15-12.59-113.01c-145.8 0-264 118.2-264 264s118.2 264 264 264v-113z" fill="#85a93d"/><path d="m366.06 210.05c-42.5-34.5-58.5-99.5-47-143.5-11.17 1.1-25.28 6.09-39.06 16.76v45.7 12.59 17.15c-46.58 6.55-90.26 15.41-127.99 57.28-74 82.13-12.71 147.03 11.57 162.81 3.38 2.19 7.85.01 8.27-3.99 2.03-19.22 14.22-66.71 82.66-104.82 9.15-5.09 17.62-9.95 25.49-14.6v27.75c-24.09 19.01-47.26 38.99-62.99 59.85-37.11 49.25-22.5 130-18.5 133s36-1.58 31-18.08-11-40.42-9.5-58.42c14.76 5.23 35.2 14.67 59.99 16.64v-3.69c6.06-3.98 12.36-8.16 18.56-12.93 26-20 37-40 38.5-49.5 13 19.5 28.58 48.32 15.5 91-6.01 19.62-16.98 38.34-34.34 49.45 54.98-14.2 119.67-61.89 119.84-145.95.16-75-37.86-106.79-72-134.5z" fill="#fff"/></svg>