<svg id="svg" version="1.1" xmlns="http://www.w3.org/2000/svg" xmlns:xlink="http://www.w3.org/1999/xlink" width="400" height="400" viewBox="0, 0, 400,400"><g id="svgg"><path id="path0" d="M226.407 40.425 C 197.390 44.462,170.019 79.242,164.469 119.130 C 161.768 138.539,163.261 150.390,172.814 185.354 C 175.769 196.169,176.818 200.699,177.942 207.502 C 180.132 220.745,174.744 230.876,161.693 238.059 C 132.727 254.000,106.303 227.275,105.075 180.795 L 104.876 173.293 102.459 175.694 C 93.545 184.547,85.524 205.084,82.827 225.956 C 79.171 254.257,84.109 283.426,95.816 302.671 C 114.883 334.019,142.778 354.094,174.344 359.186 C 176.407 359.519,178.527 359.864,179.055 359.952 C 179.984 360.107,179.952 360.050,178.045 358.225 C 170.327 350.839,168.144 339.110,172.243 327.050 C 175.530 317.380,180.809 312.188,201.200 298.573 C 224.034 283.327,239.523 266.817,242.196 254.874 C 242.700 252.622,243.047 252.815,245.506 256.714 C 249.996 263.836,254.282 273.594,256.091 280.812 C 262.859 307.820,251.554 341.319,230.458 356.770 C 229.715 357.314,229.377 357.684,229.707 357.592 C 274.759 345.102,308.030 311.805,316.115 271.118 C 321.177 245.644,317.802 216.307,307.436 195.672 C 299.627 180.128,291.118 170.204,270.518 152.613 C 251.396 136.286,243.890 126.624,235.998 108.177 C 227.041 87.243,224.052 57.839,229.141 40.735 C 229.304 40.187,228.650 40.113,226.407 40.425 M337.284 57.464 C 337.844 58.042,338.370 58.515,338.452 58.515 C 338.535 58.515,338.144 58.042,337.584 57.464 C 337.025 56.887,336.499 56.414,336.416 56.414 C 336.334 56.414,336.724 56.887,337.284 57.464 M342.086 62.209 C 342.086 62.261,342.524 62.700,343.061 63.185 L 344.036 64.066 343.155 63.091 C 342.333 62.182,342.086 61.978,342.086 62.209 M56.414 336.478 C 56.414 336.530,56.853 336.968,57.389 337.453 L 58.365 338.335 57.483 337.359 C 56.662 336.450,56.414 336.246,56.414 336.478 M62.416 342.536 C 62.975 343.113,63.501 343.586,63.584 343.586 C 63.666 343.586,63.276 343.113,62.716 342.536 C 62.156 341.958,61.630 341.485,61.548 341.485 C 61.465 341.485,61.856 341.958,62.416 342.536 M194.524 398.106 C 194.812 398.182,195.285 398.182,195.574 398.106 C 195.863 398.031,195.626 397.969,195.049 397.969 C 194.471 397.969,194.235 398.031,194.524 398.106 M204.280 398.112 C 204.653 398.183,205.193 398.181,205.480 398.106 C 205.767 398.031,205.461 397.972,204.801 397.975 C 204.141 397.978,203.906 398.040,204.280 398.112 " stroke="none" fill="#fbfbfb" fill-rule="evenodd"></path><path id="path1" d="M188.447 2.294 C 187.869 2.348,185.506 2.534,183.196 2.708 C 101.013 8.883,28.380 70.172,8.275 150.309 C -21.911 270.633,61.623 387.739,184.546 397.423 C 293.233 405.985,388.403 325.048,397.455 216.354 C 405.966 114.156,334.772 22.318,233.465 4.811 C 221.190 2.690,198.079 1.398,188.447 2.294 M229.141 40.735 C 224.052 57.839,227.041 87.243,235.998 108.177 C 243.890 126.624,251.396 136.286,270.518 152.613 C 296.911 175.150,307.659 190.048,313.903 212.753 C 331.974 278.461,296.786 338.995,229.707 357.592 C 229.377 357.684,229.715 357.314,230.458 356.770 C 251.554 341.319,262.859 307.820,256.091 280.812 C 254.282 273.594,249.996 263.836,245.506 256.714 C 243.047 252.815,242.700 252.622,242.196 254.874 C 239.523 266.817,224.034 283.327,201.200 298.573 C 180.809 312.188,175.530 317.380,172.243 327.050 C 168.144 339.110,170.327 350.839,178.045 358.225 C 179.952 360.050,179.984 360.107,179.055 359.952 C 178.527 359.864,176.407 359.519,174.344 359.186 C 142.778 354.094,114.883 334.019,95.816 302.671 C 84.109 283.426,79.171 254.257,82.827 225.956 C 85.524 205.084,93.545 184.547,102.459 175.694 L 104.876 173.293 105.075 180.795 C 106.303 227.275,132.727 254.000,161.693 238.059 C 174.744 230.876,180.132 220.745,177.942 207.502 C 176.818 200.699,175.769 196.169,172.814 185.354 C 165.648 159.125,164.158 151.746,163.542 139.424 C 161.585 100.303,181.889 60.305,211.134 45.668 C 218.465 41.999,229.680 38.927,229.141 40.735 " stroke="none" fill="#e4441c" fill-rule="evenodd"></path></g></svg>