<svg viewBox="0 0 44.21 22.48" xmlns="http://www.w3.org/2000/svg"><path d="m40.9 3.28a11.17 11.17 0 0 0 -7.9-3.28h-21.66a11.63 11.63 0 0 0 -4.65 1 11.31 11.31 0 0 0 -3.69 2.57 11.26 11.26 0 0 0 8.25 18.91h21.63a11.2 11.2 0 0 0 4.42-.9 11.59 11.59 0 0 0 3.62-2.45 11.2 11.2 0 0 0 0-15.83" fill="#fff"/><path d="m24.91 21.8h8a10.56 10.56 0 0 0 .09-21.12h-7.16a.8.8 0 0 0 -.78.62l-3.66 16.1a3.6 3.6 0 0 0 3.51 4.4" fill="#1f2c35"/><path d="m34.2 5a6.29 6.29 0 0 0 -1.83.27 6.07 6.07 0 0 0 -1.84-.27 6.31 6.31 0 0 0 0 12.62 6.4 6.4 0 0 0 1.84-.27 6.31 6.31 0 1 0 1.83-12.35m-1.83 11.81a5.54 5.54 0 0 1 -.8.21 6 6 0 0 1 -1 .09 5.83 5.83 0 0 1 0-11.66 6 6 0 0 1 1 .09 5.73 5.73 0 0 1 1.5.49 5.83 5.83 0 0 1 -.7 10.78m1.83.3a6 6 0 0 1 -1-.09c.24-.12.47-.24.7-.38l.21-.14a5.3 5.3 0 0 0 5.28-5.22 5.3 5.3 0 0 0 -5.28-5.23l-.21-.14a6.7 6.7 0 0 0 -.7-.37 6 6 0 0 1 1-.1 5.84 5.84 0 0 1 0 11.67" fill="#fff"/><path d="m19.19.68h-7.85a10.56 10.56 0 0 0 -.1 21.12h7a.79.79 0 0 0 .78-.62l3.68-16.1a3.6 3.6 0 0 0 -3.51-4.4" fill="#eeac1f"/><path d="m20.52 11-3.73-1.84 1.31-4a.24.24 0 0 0 -.1-.27h-.2l-4 1.32-1.8-3.73a.24.24 0 0 0 -.32-.11.29.29 0 0 0 -.11.11l-1.9 3.73-3.95-1.32a.25.25 0 0 0 -.31.16.38.38 0 0 0 0 .15l1.32 4-3.73 1.8a.24.24 0 0 0 -.11.32.22.22 0 0 0 .11.1l3.73 1.87-1.32 4a.25.25 0 0 0 .15.31.43.43 0 0 0 .16 0l4-1.32 1.82 3.72a.25.25 0 0 0 .33.11.27.27 0 0 0 .13-.11l1.87-3.73 4 1.32h.08a.24.24 0 0 0 .24-.24.24.24 0 0 0 0-.08l-1.31-4 3.73-1.87a.23.23 0 0 0 .1-.32.24.24 0 0 0 -.1-.1m-3.59-5-.72 2.79-1-.51.4-.93-.93.4-.51-1zm-4.16 2.6-.53-1.33 1.21-.31.64 1.06zm-2.2 0-1.32-.58.66-1.06 1.21.31zm-1.56 1.56-1.33.53-.31-1.21 1.08-.64zm0 2.2-.56 1.32-1.08-.66.31-1.21zm1.56 1.56.53 1.33-1.19.31-.64-1.08zm2.2 0 1.32.56-.64 1.08-1.21-.31zm1.56-1.56 1.32-.53.32 1.19-1.06.66zm0-2.2.58-1.32 1.08.64-.32 1.21zm-2.66-6.21 1.47 2.48-1.1.36-.37-.94-.38.94-1.09-.36zm-5.17 2.14 2.79.72-.51 1-.93-.4.4.93-1 .51zm-2.14 5.17 2.48-1.47.36 1.09-.94.38.94.38-.36 1.09zm2.14 5.17.72-2.79 1 .51-.4.93.93-.4.52 1zm5.17 2.14-1.47-2.48 1.09-.36.38.94.37-.94 1.1.36zm5.17-2.14-2.8-.72.52-1 .93.4-.4-.93 1-.51zm-.34-3.7-.36-1.09.94-.38-.94-.38.36-1.09 2.48 1.47z" fill="#fff"/></svg>