<svg version="1.2" baseProfile="tiny-ps" xmlns="http://www.w3.org/2000/svg" viewBox="0 0 560 560" width="560" height="560">
	<title>Layer 1</title>
	<style>
		tspan { white-space:pre }
		.shp0 { fill: #40cef1 } 
		.shp1 { fill: #1d2a33 } 
		.shp2 { fill: #ffffff } 
	</style>
	<g id="Layer 1">
		<g id="&lt;Group&gt;">
			<g id="&lt;Group&gt;">
				<g id="&lt;Group&gt;">
					<path id="&lt;Path&gt;" class="shp0" d="M273 491.76L272.23 457.49L234.28 474.17C233.37 474.57 232.41 474.76 231.47 474.76C228.78 474.76 226.21 473.2 225.06 470.58C223.5 467.04 225.11 462.91 228.65 461.35L271.89 442.35L271.08 406.63L216.42 432.11C215.47 432.55 214.46 432.76 213.47 432.76C210.83 432.76 208.31 431.27 207.12 428.72C205.49 425.21 207 421.05 210.51 419.42L270.74 391.35L269.44 333.71L238.53 315.87L188.25 343.53L194.07 409.93C194.41 413.78 191.56 417.17 187.71 417.51C187.5 417.53 187.3 417.54 187.09 417.54C183.5 417.54 180.44 414.79 180.13 411.15L174.84 350.9L143.51 368.14L148.68 415.19C149.11 419.03 146.33 422.49 142.49 422.91C142.23 422.94 141.97 422.95 141.72 422.95C138.19 422.95 135.16 420.3 134.77 416.71L130.23 375.44L100.18 391.98C99.07 392.62 97.87 392.92 96.68 392.92C94.26 392.92 91.91 391.66 90.61 389.42C88.68 386.07 89.83 381.79 93.18 379.86L122.45 362.04L89.05 337.53C85.94 335.24 85.26 330.86 87.55 327.75C89.84 324.63 94.22 323.96 97.33 326.24L135.39 354.17L165.9 335.6L116.55 301.03C113.38 298.82 112.61 294.45 114.83 291.28C117.05 288.12 121.42 287.35 124.58 289.57L178.95 327.65L228.27 297.64L228.27 262.14L179.14 232.37L124.58 270.59C123.36 271.44 121.96 271.85 120.57 271.85C118.37 271.85 116.19 270.81 114.83 268.87C112.61 265.7 113.38 261.34 116.55 259.12L166.05 224.45L135.47 205.92L97.33 233.91C96.09 234.82 94.64 235.27 93.2 235.27C91.05 235.27 88.92 234.28 87.55 232.41C85.26 229.29 85.94 224.91 89.05 222.62L122.51 198.07L93.18 180.3C89.83 178.36 88.68 174.08 90.61 170.73C92.55 167.39 96.83 166.24 100.18 168.17L130.24 184.63L134.77 143.44C135.19 139.59 138.66 136.82 142.49 137.25C146.33 137.67 149.11 141.12 148.68 144.97L143.53 191.91L174.86 209.07L180.13 149C180.46 145.15 183.85 142.29 187.71 142.64C191.56 142.98 194.41 146.37 194.07 150.23L188.27 216.41L238.85 244.1L269.56 226.37L270.81 168.69L210.51 140.58C207 138.95 205.49 134.79 207.12 131.28C208.75 127.78 212.92 126.26 216.42 127.89L271.15 153.4L271.92 117.67L228.65 98.65C225.11 97.09 223.5 92.96 225.06 89.42C226.61 85.88 230.74 84.27 234.28 85.83L272.25 102.52L273 68.24C273 64.37 276.13 61.24 280 61.24L280 16C134.2 16 16 134.2 16 280C16 425.8 134.2 544 280 544L280 498.76C276.13 498.76 273 495.63 273 491.76Z" />
					<path id="&lt;Path&gt;" class="shp0" d="M242.27 258.29L242.27 301.86L280 323.64L280 236.51L242.27 258.29Z" />
				</g>
			</g>
			<g id="&lt;Group&gt;">
				<path id="&lt;Path&gt;" class="shp1" d="M544 280C544 134.2 425.8 16 280 16L280 129C280 129 280.01 129 280.01 129.01C294.52 124.59 309.9 122.22 325.83 122.22C412.83 122.22 483.61 193 483.61 280.01C483.61 367.01 412.83 437.79 325.83 437.79C309.9 437.79 294.52 435.42 280.01 431C280.01 431 280 431 280 431L280 431L280 544C425.8 544 544 425.8 544 280Z" />
				<path id="&lt;Path&gt;" class="shp1" d="M297.51 411.3C346.26 387.68 379.96 337.71 379.96 280.01C379.96 222.3 346.26 172.32 297.51 148.71C291.87 145.97 286.02 143.59 280 141.6L280 141.6L280 141.6L280 418.41L280 418.41C286.02 416.42 291.87 414.02 297.51 411.3Z" />
				<path id="&lt;Path&gt;" class="shp1" d="M322.64 149.43C395.73 150.63 454.61 208.62 454.61 280.01C454.61 351.38 395.74 409.37 322.65 410.57C320.91 411.75 319.16 412.91 317.37 414.02C311.75 417.52 305.89 420.68 299.83 423.47C308.27 424.99 316.96 425.79 325.83 425.79C406.21 425.79 471.61 360.39 471.61 280.01C471.61 199.62 406.21 134.22 325.83 134.22C316.96 134.22 308.27 135.01 299.83 136.54C305.89 139.32 311.74 142.47 317.36 145.97C319.15 147.09 320.9 148.25 322.64 149.43Z" />
				<path id="&lt;Compound Path&gt;" fill-rule="evenodd" class="shp2" d="M560 280C560 317.79 552.59 354.46 537.99 388.99C523.89 422.34 503.7 452.28 477.99 477.99C452.28 503.7 422.34 523.89 388.99 537.99C354.46 552.59 317.79 560 280 560C242.21 560 205.54 552.59 171.01 537.99C137.66 523.89 107.72 503.7 82.01 477.99C56.3 452.28 36.11 422.34 22.01 388.99C7.4 354.46 0 317.79 0 280C0 242.21 7.4 205.54 22.01 171.01C36.11 137.66 56.3 107.72 82.01 82.01C107.72 56.3 137.66 36.11 171.01 22.01C205.54 7.4 242.21 0 280 0C317.79 0 354.46 7.4 388.99 22.01C422.34 36.11 452.28 56.3 477.99 82.01C503.7 107.72 523.89 137.66 537.99 171.01C552.59 205.54 560 242.21 560 280ZM544 280C544 134.2 425.8 16 280 16C134.2 16 16 134.2 16 280C16 425.8 134.2 544 280 544C425.8 544 544 425.8 544 280Z" />
				<path id="&lt;Compound Path&gt;" fill-rule="evenodd" class="shp2" d="M483.61 280C483.61 367.01 412.83 437.79 325.83 437.79C309.9 437.79 294.52 435.42 280.01 431C280.01 431 280 431 280 431L280 498.76C276.13 498.76 273 495.63 273 491.76L272.23 457.49L234.28 474.17C233.37 474.57 232.41 474.76 231.47 474.76C228.78 474.76 226.21 473.2 225.06 470.58C223.5 467.04 225.11 462.91 228.65 461.35L271.89 442.35L271.08 406.63L216.42 432.11C215.47 432.55 214.46 432.76 213.47 432.76C210.83 432.76 208.31 431.27 207.12 428.72C205.49 425.21 207 421.05 210.51 419.42L270.74 391.35L269.44 333.71L238.53 315.87L188.25 343.53L194.07 409.93C194.41 413.78 191.56 417.17 187.71 417.51C187.5 417.53 187.3 417.54 187.09 417.54C183.5 417.54 180.44 414.79 180.13 411.15L174.84 350.9L143.52 368.14L148.69 415.19C149.11 419.03 146.33 422.49 142.49 422.91C142.23 422.94 141.97 422.95 141.72 422.95C138.19 422.95 135.16 420.3 134.77 416.71L130.23 375.44L100.18 391.98C99.07 392.62 97.87 392.92 96.68 392.92C94.26 392.92 91.91 391.66 90.61 389.42C88.68 386.07 89.83 381.79 93.18 379.86L122.45 362.04L89.05 337.53C85.94 335.24 85.26 330.86 87.55 327.75C89.84 324.63 94.22 323.96 97.33 326.24L135.39 354.17L165.9 335.6L116.55 301.03C113.38 298.82 112.61 294.45 114.83 291.28C117.05 288.12 121.42 287.35 124.58 289.57L178.96 327.65L228.27 297.64L228.27 262.14L179.14 232.37L124.58 270.59C123.36 271.44 121.96 271.85 120.57 271.85C118.37 271.85 116.2 270.81 114.83 268.87C112.61 265.7 113.38 261.34 116.55 259.12L166.05 224.45L135.48 205.92L97.33 233.91C96.09 234.82 94.64 235.27 93.2 235.27C91.05 235.27 88.92 234.28 87.55 232.41C85.26 229.29 85.94 224.91 89.05 222.62L122.51 198.07L93.18 180.3C89.83 178.36 88.68 174.08 90.61 170.73C92.55 167.39 96.83 166.24 100.18 168.17L130.24 184.63L134.77 143.44C135.19 139.59 138.66 136.82 142.49 137.25C146.33 137.67 149.11 141.12 148.69 144.97L143.53 191.91L174.86 209.07L180.13 149C180.46 145.15 183.85 142.29 187.71 142.64C191.56 142.98 194.41 146.37 194.07 150.23L188.27 216.41L238.85 244.1L269.56 226.37L270.81 168.69L210.51 140.58C207 138.95 205.49 134.79 207.12 131.28C208.75 127.78 212.92 126.26 216.42 127.89L271.15 153.4L271.92 117.67L228.65 98.65C225.11 97.09 223.5 92.96 225.06 89.42C226.61 85.88 230.74 84.27 234.28 85.83L272.25 102.52L273 68.24C273 64.37 276.13 61.24 280 61.24L280 129C280 129 280.01 129 280.01 129C294.52 124.59 309.9 122.22 325.83 122.22C412.83 122.22 483.61 193 483.61 280ZM297.51 411.3C346.26 387.68 379.96 337.71 379.96 280C379.96 222.3 346.26 172.32 297.51 148.71C291.87 145.97 286.02 143.59 280 141.6L280 236.51L242.27 258.29L242.27 301.86L280 323.64L280 418.41C286.02 416.42 291.87 414.02 297.51 411.3ZM471.61 280C471.61 199.62 406.21 134.22 325.83 134.22C316.96 134.22 308.27 135.01 299.83 136.54C305.89 139.32 311.74 142.47 317.36 145.97C319.15 147.09 320.9 148.25 322.64 149.43C395.73 150.63 454.61 208.62 454.61 280C454.61 351.38 395.74 409.37 322.65 410.57C320.91 411.75 319.16 412.91 317.37 414.02C311.75 417.52 305.89 420.68 299.83 423.47C308.27 424.99 316.96 425.79 325.83 425.79C406.21 425.79 471.61 360.39 471.61 280Z" />
			</g>
		</g>
	</g>
</svg>