<svg height="560" viewBox="0 0 560 560" width="560" xmlns="http://www.w3.org/2000/svg"><path d="m280 418.41v-2.24c-24.79-1.97-45.23-11.41-59.99-16.64-1.5 18 4.5 41.92 9.5 58.42s-27 21.08-31 18.08-18.61-83.75 18.5-133c15.72-20.86 38.9-40.84 62.99-59.85v-27.75c-7.87 4.65-16.34 9.51-25.49 14.6-68.44 38.11-80.63 85.6-82.66 104.82-.42 4-4.89 6.18-8.27 3.99-24.28-15.78-85.57-80.68-11.57-162.81 37.73-41.87 81.41-50.73 127.99-57.28v-17.15-12.59-113.01c-145.8 0-264 118.2-264 264s118.2 264 264 264v-113z" fill="#85a93d"/><path d="m544 280c0-145.8-118.2-264-264-264v113.01 9.7c16.32.44 33.65 5.81 48.13 18.2 34.5 29.5 16.17 87.08-18.08 104.83-9.64 4.99-20.08 7.78-30.05 8.43v34.27c49.76-16.88 62.96-49.51 118.38-76.37 37.95-18.39 87.5-5.16 101 31.84s-21.67 62.5-49.5 61c-22.97-1.24-38.49-14.36-41.5-25.02-3.33-11.82 1.33-27.15 15-31.48-4 18 5.79 37.68 26 36.5 20-1.17 37.67-26.23 19-45-18.69-18.81-42-15.17-56-6.5-14.93 9.24-50 44-80 58.5-14.55 7.03-32.53 14.38-52.38 18.44v61.97c16.97 5.8 32.76 9.15 46.08 8.35 42.05-2.51 62.53-18.32 60.3-37.76-1.75-15.25-18.75-25.25-31.75-20.25s-18.75 16.75-17.75 27.75c-11-8.5-7-25-3.5-29.5s22.69-30.67 55.5-8c27.5 19 15.88 56.01 0 70-10.5 9.25-42 32.5-101.5 17.5-2.45-.62-4.91-1.31-7.38-2.06v4.06 12.59 113c145.8 0 264-118.2 264-264z" fill="#93b7bb"/><path d="m282.88 219.91c-.7-1.23-1.66-2.52-2.88-3.89v37.17c10.1-.09 21.43-4.71 31.05-16.12 21.5-25.5 16.83-60.16-18.67-72.66-4.36-1.54-8.47-2.42-12.38-2.76v44.61c2.63 3.97 3.59 8.52 2.88 13.65z" fill="#93b7bb"/><g fill="#fff"><path d="m560 280c0 37.79-7.41 74.46-22.01 108.99-14.1 33.35-34.29 63.29-60 89s-55.65 45.9-89 60c-34.53 14.6-71.2 22.01-108.99 22.01s-74.46-7.41-108.99-22.01c-33.35-14.1-63.29-34.29-89-60s-45.9-55.65-60-89c-14.61-34.53-22.01-71.2-22.01-108.99s7.4-74.46 22.01-108.99c14.1-33.35 34.29-63.29 60-89s55.65-45.9 89-60c34.53-14.61 71.2-22.01 108.99-22.01s74.46 7.4 108.99 22.01c33.35 14.1 63.29 34.29 89 60s45.9 55.65 60 89c14.6 34.53 22.01 71.2 22.01 108.99zm-16 0c0-145.8-118.2-264-264-264s-264 118.2-264 264 118.2 264 264 264 264-118.2 264-264z" fill-rule="evenodd"/><path d="m171.85 374.85c-.42 4-4.89 6.18-8.27 3.99-24.28-15.78-85.57-80.68-11.57-162.81 37.73-41.87 81.41-50.73 127.99-57.28v-20.04c16.32.44 33.65 5.81 48.13 18.2 34.5 29.5 16.17 87.08-18.08 104.83-9.64 4.99-20.08 7.78-30.05 8.43v-14.74c-7.87 4.65-16.34 9.51-25.49 14.6-68.44 38.11-80.63 85.6-82.66 104.82zm108.15-121.66c10.1-.09 21.43-4.71 31.05-16.12 21.5-25.5 16.83-60.16-18.67-72.66-4.36-1.54-8.47-2.42-12.38-2.76v44.61c2.63 3.97 3.59 8.52 2.88 13.65-.7-1.23-1.66-2.52-2.88-3.89z" fill-rule="evenodd"/><path d="m499.38 259.91c-13.5-37-63.05-50.23-101-31.84-55.42 26.86-68.62 59.49-118.38 76.37v-21.26c-24.09 19.01-47.26 38.99-62.99 59.85-37.11 49.25-22.5 130-18.5 133s36-1.58 31-18.08-11-40.42-9.5-58.42c14.76 5.23 35.2 14.67 59.99 16.64v-1.82c2.47.75 4.93 1.44 7.38 2.06 59.5 15 91-8.25 101.5-17.5 15.88-13.99 27.5-51 0-70-32.81-22.67-52 3.5-55.5 8s-7.5 21 3.5 29.5c-1-11 4.75-22.75 17.75-27.75s30 5 31.75 20.25c2.23 19.44-18.25 35.25-60.3 37.76-13.32.8-29.11-2.55-46.08-8.35v-61.97c19.85-4.06 37.83-11.41 52.38-18.44 30-14.5 65.07-49.26 80-58.5 14-8.67 37.31-12.31 56 6.5 18.67 18.77 1 43.83-19 45-20.21 1.18-30-18.5-26-36.5-13.67 4.33-18.33 19.66-15 31.48 3.01 10.66 18.53 23.78 41.5 25.02 27.83 1.5 63-24 49.5-61z"/></g></svg>