<svg xmlns="http://www.w3.org/2000/svg" width="746.667" height="746.667" viewBox="0 0 197.556 197.556"><path d="M98.778 194.733c-25.63 0-49.727-9.98-67.851-28.104S2.822 124.409 2.822 98.778c0-25.63 9.981-49.727 28.105-67.851s42.22-28.105 67.85-28.105c25.631 0 49.728 9.981 67.852 28.105 18.123 18.124 28.104 42.22 28.104 67.85 0 25.631-9.98 49.728-28.104 67.852-18.124 18.123-42.22 28.104-67.851 28.104" style="fill:#e2421f;fill-opacity:1;fill-rule:nonzero;stroke:none;stroke-width:.352778"/><path d="M0 0c-37.793 0-74.464-7.405-108.993-22.01-33.345-14.104-63.287-34.291-88.997-60-25.709-25.71-45.897-55.652-59.999-88.996C-272.595-205.537-280-242.207-280-280s7.405-74.464 22.011-108.993c14.102-33.345 34.29-63.287 59.999-88.997 25.71-25.709 55.652-45.897 88.997-59.999C-74.464-552.595-37.793-560 0-560s74.464 7.405 108.993 22.011c33.345 14.102 63.287 34.29 88.997 59.999 25.709 25.71 45.897 55.652 59.999 88.997C272.595-354.464 280-317.793 280-280s-7.405 74.463-22.011 108.994c-14.102 33.344-34.29 63.286-59.999 88.996s-55.652 45.896-88.997 60C74.464-7.405 37.793 0 0 0m0-16c145.803 0 264-118.197 264-264S145.803-544 0-544s-264 118.197-264 264S-145.803-16 0-16" style="fill:#fff;fill-opacity:1;fill-rule:nonzero;stroke:none" transform="matrix(.35278 0 0 -.35278 98.778 0)"/><path d="M0 0c-42.5 34.5-58.5 99.5-47 143.5-25.5-2.5-66.272-25.288-83.5-89.5-22-82 43.996-140.5 0-170.5-51.444-35.079-86.5 26-82 82.5-30-23.5-48.447-119.579-9.5-178 28-42 63.811-66.136 109.516-71.391-14.745 10.442-15.741 29.913-10.516 44.891 7.5 21.5 32.239 31.107 55.5 49 26 20 37 40 38.5 49.5 13-19.5 28.581-48.317 15.5-91-6.013-19.62-16.979-38.34-34.339-49.45C7.137-266.249 71.825-218.559 72-134.5 72.156-59.5 34.135-27.709 0 0" style="fill:#fff;fill-opacity:1;fill-rule:nonzero;stroke:none" transform="matrix(.35278 0 0 -.35278 129.138 74.102)"/></svg>