<svg viewBox="0 0 44.21 22.48" xmlns="http://www.w3.org/2000/svg"><path d="m40.9 3.28a11.17 11.17 0 0 0 -7.9-3.28h-21.66a11.63 11.63 0 0 0 -4.65 1 11.31 11.31 0 0 0 -3.69 2.57 11.26 11.26 0 0 0 8.25 18.91h21.63a11.2 11.2 0 0 0 4.42-.9 11.59 11.59 0 0 0 3.62-2.45 11.2 11.2 0 0 0 0-15.83" fill="#fff"/><path d="m24.91 21.8h8a10.56 10.56 0 0 0 .09-21.12h-7.16a.8.8 0 0 0 -.78.62l-3.66 16.1a3.6 3.6 0 0 0 3.51 4.4" fill="#eeac1f"/><path d="m41.13 11.06-3.73-1.87 1.31-4a.23.23 0 0 0 -.15-.3.19.19 0 0 0 -.15 0l-4 1.31-1.83-3.68a.24.24 0 0 0 -.32-.11.2.2 0 0 0 -.11.11l-1.87 3.72-4-1.31a.24.24 0 0 0 -.3.15.19.19 0 0 0 0 .15l1.31 4-3.72 1.87a.24.24 0 0 0 -.11.32.2.2 0 0 0 .11.11l3.72 1.87-1.31 4a.24.24 0 0 0 .15.3.19.19 0 0 0 .15 0l4-1.31 1.87 3.61a.23.23 0 0 0 .32.1.22.22 0 0 0 .11-.1l1.87-3.73 4 1.31h.07a.22.22 0 0 0 .24-.23.19.19 0 0 0 0-.08l-1.31-4 3.73-1.87a.24.24 0 0 0 .1-.32.27.27 0 0 0 -.1-.11m-3.6-4.95-.76 2.88-1-.51.4-.94-.93.4-.52-1zm-4.11 2.6-.54-1.33 1.22-.29.63 1.08zm-2.21 0-1.26-.56.59-1.06 1.21.31zm-1.55 1.56-1.33.53-.31-1.21 1.07-.64zm0 2.2-.57 1.31-1.07-.63.31-1.21zm1.55 1.55.54 1.33-1.21.31-.59-1.07zm2.21 0 1.31.57-.63 1.07-1.22-.31zm1.53-1.55 1.33-.53.31 1.21-1.07.63zm0-2.2.57-1.32 1.07.64-.31 1.21zm-2.63-6.18 1.46 2.48-1.09.36-.37-.94-.37.91-1.1-.36zm-5.17 2.11 2.8.72-.52 1-.93-.4.4.93-1 .52zm-2.14 5.17 2.48-1.47.36 1.09-.94.38.94.37-.36 1.09zm2.14 5.16.72-2.79 1 .52-.4.93.93-.4.52 1zm5.17 2.14-1.47-2.48 1.1-.36.38.94.37-.94 1.09.36zm5.16-2.14-2.79-.71.52-1 .93.4-.4-.93 1-.52zm-.34-3.7-.36-1.09.94-.37-.94-.38.36-1.09 2.48 1.47z" fill="#fff"/><path d="m19.19.68h-7.85a10.56 10.56 0 0 0 -.1 21.12h7a.79.79 0 0 0 .78-.62l3.68-16.1a3.6 3.6 0 0 0 -3.51-4.4" fill="#89a53d"/><path d="m7.61 14.31a.21.21 0 0 1 -.23.19.17.17 0 0 1 -.1 0c-1-.63-3.42-3.23-.46-6.52s6.78-1.54 10.63-3.86a.19.19 0 0 1 .27.07.08.08 0 0 1 0 .06c.53 2.36.84 7.52-1.56 9.88-2.94 2.9-5.34 1.62-6.64 1.16a7.09 7.09 0 0 0 .38 2.34c.2.66-1.08.84-1.24.72a6.7 6.7 0 0 1 .76-5.35c1.9-2.52 6.52-4.72 6.66-6.5a24.35 24.35 0 0 1 -5.16 3.58c-2.74 1.53-3.23 3.43-3.31 4.2" fill="#fff"/></svg>