<svg xmlns="http://www.w3.org/2000/svg" width="746.667" height="746.667" viewBox="0 0 197.556 197.556">
    <path
        d="M98.778 194.733c-25.63 0-49.728-9.98-67.85-28.105-18.125-18.122-28.106-42.22-28.106-67.85s9.981-49.728 28.105-67.85C49.05 12.802 73.147 2.821 98.777 2.821s49.729 9.981 67.851 28.105c18.124 18.123 28.105 42.22 28.105 67.85s-9.98 49.729-28.105 67.851c-18.122 18.124-42.22 28.105-67.85 28.105"
        style="fill:#97b0b3;fill-opacity:1;fill-rule:nonzero;stroke:none;stroke-width:.352778" />
    <path
        d="M20.688 108.38c-.487-.102-.465-.809.028-.874 4.411-.59 15.014-.973 28.808 5.526 18.344 8.643 47.967 27.954 65.51 26.905 14.835-.887 22.06-6.466 21.273-13.323-.617-5.38-6.614-8.907-11.2-7.144-4.587 1.764-6.615 5.91-6.262 9.79-3.88-2.999-2.47-8.82-1.235-10.407s8.005-10.818 19.58-2.822c9.7 6.703 5.6 19.76 0 24.694-3.705 3.263-14.817 11.466-35.808 6.174-20.99-5.292-43.62-24.459-55.562-30.163-10.991-5.249-15.726-6.379-25.132-8.356"
        style="fill:#fff;fill-opacity:1;fill-rule:nonzero;stroke:none;stroke-width:.352778" />
    <path
        d="M52.23 106.054c-.343-.188-.126-.71.247-.595 7.845 2.395 27.79 6.908 42.202 3.163 21.049-5.468 24.871-17.991 45.862-28.162 13.387-6.488 30.868-1.824 35.63 11.23 4.763 13.052-7.644 22.048-17.462 21.519-8.105-.436-13.58-5.065-14.64-8.827-1.177-4.167.47-9.576 5.291-11.105-1.411 6.35 2.04 13.292 9.172 12.876 7.056-.41 13.287-9.25 6.703-15.875-6.595-6.634-14.817-5.35-19.756-2.293-5.266 3.26-17.638 15.522-28.222 20.637-10.157 4.91-25.033 10.265-40.416 6.174-13.107-3.484-17.13-4.647-24.61-8.742"
        style="fill:#fff;fill-opacity:1;fill-rule:nonzero;stroke:none;stroke-width:.352778" />
    <path
        d="M32.343 94.131c-.446-.17-.306-.836.17-.817 6.043.245 22.948-.032 31.828-9.915 10.936-12.171 8.446-20.474 18.168-29.28 6.79-6.15 22.32-8.11 33.249 1.234 12.17 10.407 5.702 30.722-6.38 36.984-10.23 5.301-23.077 3.585-25.987-4.705-3.242-9.231 3.44-17.374 10.23-17.286 7.162.094 6.174 7.232 6.174 7.232s-2.117-3.701-5.027-3.263c-3.69.557-6.944 5.177-5.027 9.79 2.38 5.732 12.621 8.27 19.99-.47 7.584-8.996 5.939-21.226-6.585-25.636-11.575-4.075-18.362 4.462-24.518 15.878-4.85 8.993-10.319 20.458-26.987 21.418-12.22.703-16.95-.263-19.298-1.164"
        style="fill:#fff;fill-opacity:1;fill-rule:nonzero;stroke:none;stroke-width:.352778" />
    <path
        d="M0 0c-37.793 0-74.464-7.405-108.993-22.011-33.345-14.102-63.287-34.29-88.997-59.999-25.709-25.71-45.897-55.652-59.999-88.997C-272.595-205.536-280-242.207-280-280s7.405-74.464 22.011-108.993c14.102-33.345 34.29-63.287 59.999-88.997 25.71-25.709 55.652-45.896 88.997-59.999C-74.464-552.595-37.793-560 0-560s74.464 7.405 108.993 22.011c33.345 14.103 63.287 34.29 88.997 59.999 25.709 25.71 45.897 55.652 59.999 88.997C272.595-354.464 280-317.793 280-280s-7.405 74.464-22.011 108.993c-14.102 33.345-34.29 63.287-59.999 88.997-25.71 25.709-55.652 45.897-88.997 59.999C74.464-7.405 37.793 0 0 0m0-16c145.803 0 264-118.196 264-264 0-145.803-118.197-264-264-264s-264 118.197-264 264C-264-134.196-145.803-16 0-16"
        style="fill:currentColor;fill-opacity:1;fill-rule:nonzero;stroke:none"
        transform="matrix(.35278 0 0 -.35278 98.778 0)" />
</svg>