<svg viewBox="0 0 600 600" xmlns="http://www.w3.org/2000/svg" xmlns:xlink="http://www.w3.org/1999/xlink"><clipPath id="a"><path d="m0 0h600v600h-600z"/></clipPath><g clip-path="url(#a)"><path d="m300 572a272 272 0 0 1 -192.33-464.33 272 272 0 1 1 384.66 384.66 270.19 270.19 0 0 1 -192.33 79.67" fill="#fff"/><path d="m300 36c145.8 0 264 118.2 264 264s-118.2 264-264 264-264-118.2-264-264 118.2-264 264-264m0-16a280.07 280.07 0 0 0 -109 538 280.07 280.07 0 0 0 218-516 278.34 278.34 0 0 0 -109-22" fill="#fff"/><path d="m300 300s-160.14 93.37-228.67 132a263.91 263.91 0 0 1 0-264z" fill="#1f2c35"/><path d="m300 300s.79 185.37 0 264a263.87 263.87 0 0 1 -228.63-132z" fill="#eeac1f"/><path d="m300 300s160.93 92 228.67 132a263.89 263.89 0 0 1 -228.67 132z" fill="#89a53d"/><path d="m300 300s160.14-93.37 228.67-132a263.91 263.91 0 0 1 0 264z" fill="#e15426"/><path d="m300 300s-.79-185.37 0-264a263.87 263.87 0 0 1 228.63 132z" fill="#1ac2ec"/><path d="m300 300s-160.93-92-228.67-132a263.89 263.89 0 0 1 228.67-132z" fill="#9ab0b7"/><path d="m300 575.57a275.64 275.64 0 0 1 -107.27-529.47 275.63 275.63 0 0 1 214.54 507.8 273.8 273.8 0 0 1 -107.27 21.67m0-529.57c-140.06 0-254 113.94-254 254s113.94 254 254 254 254-113.94 254-254-113.94-254-254-254" fill="#fff"/><path d="m470.47 509.74a7 7 0 0 1 -5.14-2l-165.33-165.31-165.33 165.32a7 7 0 0 1 -5.14 2c-9.43 0-33.53-18.09-39-31.29-2.91-7-.17-11.23 1.72-13.12l165.32-165.34-165.32-165.33c-2.09-2.08-5-6.87-1.47-15.51 5.44-13.16 23.82-30.07 35.89-30.07a11 11 0 0 1 8 3.16l165.33 165.32 165.33-165.32a11 11 0 0 1 8-3.16c12.07 0 30.45 16.94 35.89 30.07 3.58 8.64.62 13.43-1.47 15.51l-165.32 165.33 165.32 165.33c1.89 1.89 4.63 6.1 1.72 13.12-5.47 13.21-29.57 31.29-39 31.29z" fill="#e26969"/><path d="m473.33 94.09c13.09 0 39.49 28.45 30.89 37l-168.87 168.91 168.87 168.86c9 9.05-24.85 35.88-33.75 35.88a2.2 2.2 0 0 1 -1.61-.52l-168.86-168.86-168.86 168.86a2.2 2.2 0 0 1 -1.61.52c-8.91 0-42.8-26.83-33.75-35.88l168.86-168.86-168.86-168.86c-8.6-8.6 17.8-37 30.89-37a6.11 6.11 0 0 1 4.47 1.69l168.86 168.82 168.86-168.87a6.11 6.11 0 0 1 4.47-1.69m-384.62 44.12 161.79 161.79-161.79 161.79c-2.23 2.23 47.27 51.73 49.5 49.5l161.79-161.79 161.79 161.79c2.23 2.23 51.73-47.27 49.5-49.5l-161.79-161.79 161.79-161.79c2.39-2.39-46.48-52.52-49.5-49.5l-161.79 161.79-161.79-161.79c-3-3-51.89 47.11-49.5 49.5" fill="#fff"/><path d="m300 36c145.8 0 264 118.2 264 264s-118.2 264-264 264-264-118.2-264-264 118.2-264 264-264m0-16a280.07 280.07 0 0 0 -109 538 280.07 280.07 0 0 0 218-516 278.34 278.34 0 0 0 -109-22" fill="#e26969"/></g></svg>