<svg clip-rule="evenodd" fill-rule="evenodd" height="1000" image-rendering="optimizeQuality" shape-rendering="geometricPrecision" text-rendering="geometricPrecision" width="1000" xmlns="http://www.w3.org/2000/svg"><path d="m-.5 243.5c1.333333.667 1.333333.667 0 0z" fill="#fefffe" opacity=".063"/><path d="m-.5 513.5c0-14 0-28 0-42 8.29935-75.448 42.6327-135.948 103-181.5-2.254-1.377-4.4205-2.877-6.5-4.5-1.7698.776-3.6031.61-5.5-.5-19.5454-8.942-38.8788-18.108-58-27.5 23.3706 8.407 46.3706 17.907 69 28.5 3 .667 6 .667 9 0 26.765-18.368 56.098-30.702 88-37 11.188-2.649 22.522-4.315 34-5 174-.667 348-.667 522 0 90.819 11.09 157.986 56.59 201.5 136.5 38.495 83.329 34.829 164.662-11 244-39.528 60.226-94.694 98.393-165.5 114.5-8.959 1.613-17.959 2.946-27 4-175.333.667-350.667.667-526 0-60.365-7.089-112.198-31.589-155.5-73.5-.3333-1-.6667-2-1-3-14.0717-12.841-25.7383-27.508-35-44-19.5582-33.841-31.39149-70.174-35.5-109z" fill="#fefdfd" opacity=".986"/><g fill="#fefffe"><path d="m4.5 245.5c-1.05198.149-2.05198-.017-3-.5 1.24943-.74 2.24943-.573 3 .5z" opacity=".063"/><path d="m4.5 245.5c.99162-.172 1.65829.162 2 1-.99162.172-1.65829-.162-2-1z" opacity=".094"/><path d="m6.5 246.5c2.05292-.098 3.7196.569 5 2-2.05292.098-3.71959-.569-5-2z" opacity=".105"/><path d="m11.5 248.5c.9916-.172 1.6583.162 2 1-.9916.172-1.6583-.162-2-1z" opacity=".214"/><path d="m13.5 249.5c6.5727 2.296 12.9061 4.962 19 8-2.4267-.023-4.76-.523-7-1.5-4.2778-1.904-8.2778-4.071-12-6.5z" opacity=".236"/></g><path d="m232.5 258.5c70.028-.477 140.028.023 210 1.5 25.746 6.762 44.58 21.929 56.5 45.5 4.155 10.761 6.322 21.927 6.5 33.5-1.993 16.645-4.826 33.145-8.5 49.5-8.49 34.292-16.823 68.625-25 103-.995 4.953-1.662 9.953-2 15-16.973 69.834-33.307 139.834-49 210-1.941 4.275-4.941 7.608-9 10-62.138 1.161-124.305 1.328-186.5.5-72.696-9.761-129.8626-44.595-171.5-104.5-49.04449-81.849-51.04449-164.849-6-249 43.1435-67.619 104.644-105.952 184.5-115z" fill="#e15426"/><path d="m569.5 258.5c60.001-.167 120.001 0 180 .5 44.01 4.017 84.01 18.683 120 44 5.734 5.731 12.067 10.731 19 15 50.27 47.061 76.27 105.228 78 174.5-2.529 79.647-35.196 143.814-98 192.5-9.241 4.903-18.241 10.236-27 16-29.368 14.426-60.368 23.092-93 26-69.667.667-139.333.667-209 0-21.376-4.424-38.543-15.257-51.5-32.5-11.709-17.166-16.709-36.166-15-57 12.538-52.906 24.538-105.906 36-159 .681-2.395 1.515-4.728 2.5-7 1.831 1.429 3.831 1.929 6 1.5-2.615-.795-4.615-2.295-6-4.5.137-1.607.804-2.941 2-4 15.199 7.568 30.865 14.068 47 19.5 22.111 3.868 43.777 2.202 65-5 4.992-2.161 9.659-4.828 14-8 14.522-14.205 25.689-30.705 33.5-49.5 3.667-5.333 7.333-10.667 11-16 21.487-23.306 43.82-23.972 67-2 14.345 29.635 6.512 51.135-23.5 64.5-5.667.667-11.333.667-17 0-13.431-5.433-17.598-14.933-12.5-28.5 7.779-10.607 15.612-10.607 23.5 0 1.649-8.904-2.018-14.737-11-17.5-19.821.656-30.821 10.822-33 30.5 2.635 22.131 15.135 33.131 37.5 33 14.902-.431 28.402-4.931 40.5-13.5 4.452-5.074 8.786-10.241 13-15.5 19.879-36.202 11.879-64.036-24-83.5-8.978-2.616-18.144-4.116-27.5-4.5-24.897.186-43.063 11.186-54.5 33-5.787 14.875-12.62 29.209-20.5 43-5.331 8.998-12.831 15.498-22.5 19.5-13.39 2.149-26.723 1.816-40-1-21.168-3.625-41.834-9.125-62-16.5 2.687-15.629 6.187-31.296 10.5-47 .278-6.457 1.278-12.79 3-19 8.827-36.973 17.493-73.973 26-111 2.537-5.715 6.704-9.382 12.5-11z" fill="#9ab0b7"/><path d="m290.5 303.5c1.175-.219 2.175.114 3 1-8.2 42.542 1.3 80.542 28.5 114 3.536 3.201 6.703 6.701 9.5 10.5 5.944 3.611 11.611 7.611 17 12 6.5 7.833 13.667 15 21.5 21.5 24 31.327 33.333 66.66 28 106-12.21 57.712-46.71 94.712-103.5 111 6.295-7.186 12.795-14.853 19.5-23 19.506-35.203 17.84-69.203-5-102-5.817 15.455-14.983 28.622-27.5 39.5-11.718 8.715-23.718 17.048-36 25-6.5 5.167-12.333 11-17.5 17.5-9.17 17.22-7.003 32.72 6.5 46.5-15.737-2.02-30.737-6.687-45-14-47.824-27.588-71.824-69.254-72-125 .975-20.344 4.808-40.177 11.5-59.5 4.101-8.539 9.434-16.206 16-23-1.051 24.131 4.616 46.465 17 67 13.668 17.751 30.501 21.585 50.5 11.5 3.175-3.508 6.675-6.675 10.5-9.5 7.015-8.11 9.349-17.443 7-28-5.4-15.533-10.4-31.199-15-47-4.675-28.169-2.675-55.836 6-83 12.502-34.003 35.669-57.003 69.5-69z" fill="#fefefe"/><path d="m844.5 440.5c22.014-2.491 41.348 3.342 58 17.5 18.583 23.178 16.916 44.844-5 65-17.74 9.93-35.407 9.93-53 0-4.23-3.893-8.063-8.059-11.5-12.5-2.554-8.051-1.888-15.717 2-23 2.979-2.144 5.812-4.478 8.5-7-1.783 13.475 3.217 23.642 15 30.5 22.676 3.327 33.176-6.507 31.5-29.5-4.249-8.584-10.749-14.75-19.5-18.5-11.004-3.88-21.671-3.214-32 2-21.07 17.063-42.737 33.396-65 49-6.904 2.785-13.571 6.119-20 10-36.459 15.052-73.459 16.385-111 4-13.276-4.756-26.276-10.089-39-16 14.513 2.955 29.18 5.622 44 8 26.112 3.088 51.779 1.088 77-6 10.751-4.876 21.084-10.543 31-17 9.62-7.608 19.287-15.275 29-23 5.71-5.701 12.043-10.701 19-15 7.728-4.702 15.728-9.035 24-13 5.732-2.008 11.398-3.842 17-5.5z" fill="#fdfdfe"/><path d="m523.5 515.5c21.394-1.652 42.061 1.514 62 9.5 30.005 14.838 59.671 30.505 89 47 14.875 6.603 29.875 12.937 45 19 28.792 10.919 56.792 9.253 84-5 9.568-6.82 12.735-15.987 9.5-27.5-8.431-13.847-19.598-16.68-33.5-8.5-6.83 5.512-9.997 12.678-9.5 21.5-7.169-8.346-8.169-17.346-3-27 19.305-20.158 38.305-19.825 57 1 12.415 22.999 8.249 42.499-12.5 58.5-20.988 13.769-43.988 19.102-69 16-21.962-5.153-42.962-12.819-63-23-14.532-8.429-28.865-17.095-43-26-27.743-21.273-58.41-37.273-92-48-6.951-1.819-13.951-3.319-21-4.5 0-1 0-2 0-3z" fill="#fdfdfd"/></svg>