<svg height="560" viewBox="0 0 560 560" width="560" xmlns="http://www.w3.org/2000/svg">
	<path
		d="m280 418.41v-2.24c-24.79-1.97-45.23-11.41-59.99-16.64-1.5 18 4.5 41.92 9.5 58.42s-27 21.08-31 18.08-18.61-83.75 18.5-133c15.72-20.86 38.9-40.84 62.99-59.85v-27.75c-7.87 4.65-16.34 9.51-25.49 14.6-68.44 38.11-80.63 85.6-82.66 104.82-.42 4-4.89 6.18-8.27 3.99-24.28-15.78-85.57-80.68-11.57-162.81 37.73-41.87 81.41-50.73 127.99-57.28v-17.15-12.59-113.01c-145.8 0-264 118.2-264 264s118.2 264 264 264v-113z"
		fill="#85a93d" />
	<path
		d="m217.01 343.03c-37.11 49.25-22.5 130-18.5 133s36-1.58 31-18.08-11-40.42-9.5-58.42c14.76 5.23 35.2 14.67 59.99 16.64v-132.99c-24.09 19.01-47.27 38.99-62.99 59.85z"
		fill="#fff" />
	<path
		d="m152.01 216.03c-74 82.13-12.71 147.03 11.57 162.81 3.38 2.19 7.85.01 8.27-3.99 2.03-19.22 14.22-66.71 82.66-104.82 9.15-5.09 17.62-9.95 25.49-14.6v-96.68c-46.58 6.55-90.26 15.41-127.99 57.28z"
		fill="#fff" />
	<g fill="#1d2a33">
		<path
			d="m544 280c0-145.8-118.2-264-264-264v113s.01 0 .01.01c14.51-4.42 29.89-6.79 45.82-6.79 87 0 157.78 70.78 157.78 157.79 0 87-70.78 157.78-157.78 157.78-15.93 0-31.31-2.37-45.82-6.79h-.01v113c145.8 0 264-118.2 264-264z" />
		<path
			d="m297.51 411.3c48.75-23.62 82.45-73.59 82.45-131.29 0-57.71-33.7-107.69-82.45-131.3-5.64-2.74-11.49-5.12-17.51-7.11v276.81c6.02-1.99 11.87-4.39 17.51-7.11z" />
		<path
			d="m322.64 149.43c73.09 1.2 131.97 59.19 131.97 130.58 0 71.37-58.87 129.36-131.96 130.56-1.74 1.18-3.49 2.34-5.28 3.45-5.62 3.5-11.48 6.66-17.54 9.45 8.44 1.52 17.13 2.32 26 2.32 80.38 0 145.78-65.4 145.78-145.78 0-80.39-65.4-145.79-145.78-145.79-8.87 0-17.56.79-26 2.32 6.06 2.78 11.91 5.93 17.53 9.43 1.79 1.12 3.54 2.28 5.28 3.46z" />
	</g>
	<path
		d="m560 280c0 37.79-7.41 74.46-22.01 108.99-14.1 33.35-34.29 63.29-60 89s-55.65 45.9-89 60c-34.53 14.6-71.2 22.01-108.99 22.01s-74.46-7.41-108.99-22.01c-33.35-14.1-63.29-34.29-89-60s-45.9-55.65-60-89c-14.61-34.53-22.01-71.2-22.01-108.99s7.4-74.46 22.01-108.99c14.1-33.35 34.29-63.29 60-89s55.65-45.9 89-60c34.53-14.61 71.2-22.01 108.99-22.01s74.46 7.4 108.99 22.01c33.35 14.1 63.29 34.29 89 60s45.9 55.65 60 89c14.6 34.53 22.01 71.2 22.01 108.99zm-16 0c0-145.8-118.2-264-264-264s-264 118.2-264 264 118.2 264 264 264 264-118.2 264-264z"
		fill="#fff" fill-rule="evenodd" />
	<path
		d="m280 129s.01 0 .01.01c14.51-4.42 29.89-6.79 45.82-6.79 87 0 157.78 70.78 157.78 157.79 0 87-70.78 157.78-157.78 157.78-15.93 0-31.31-2.37-45.82-6.79h-.01v-12.59c6.02-1.99 11.87-4.39 17.51-7.11 48.75-23.62 82.45-73.59 82.45-131.29 0-57.71-33.7-107.69-82.45-131.3-5.64-2.74-11.49-5.12-17.51-7.11zm19.83 7.54c6.06 2.78 11.91 5.93 17.53 9.43 1.79 1.12 3.54 2.28 5.28 3.46 73.09 1.2 131.97 59.19 131.97 130.58 0 71.37-58.87 129.36-131.96 130.56-1.74 1.18-3.49 2.34-5.28 3.45-5.62 3.5-11.48 6.66-17.54 9.45 8.44 1.52 17.13 2.32 26 2.32 80.38 0 145.78-65.4 145.78-145.78 0-80.39-65.4-145.79-145.78-145.79-8.87 0-17.56.79-26 2.32z"
		fill="#fff" fill-rule="evenodd" />
</svg>