<svg viewBox="0 0 44.21 22.48" xmlns="http://www.w3.org/2000/svg"><path d="m40.9 3.28a11.17 11.17 0 0 0 -7.9-3.28h-21.66a11.63 11.63 0 0 0 -4.65 1 11.31 11.31 0 0 0 -3.69 2.57 11.26 11.26 0 0 0 8.25 18.91h21.63a11.2 11.2 0 0 0 4.42-.9 11.59 11.59 0 0 0 3.62-2.45 11.2 11.2 0 0 0 0-15.83" fill="#fff"/><path d="m24.91 21.8h8a10.56 10.56 0 0 0 .09-21.12h-7.16a.8.8 0 0 0 -.78.62l-3.66 16.1a3.6 3.6 0 0 0 3.51 4.4" fill="#9ab0b7"/><g fill="#fff"><path d="m23.56 12.33s0 0 0-.06a0 0 0 0 1 0 0 5.9 5.9 0 0 1 3.27.63c2.08 1 5.44 3.17 7.42 3.05 1.69-.1 2.5-.74 2.42-1.51a1 1 0 0 0 -1.27-.81 1.07 1.07 0 0 0 -.71 1.11.94.94 0 0 1 -.14-1.18 1.47 1.47 0 0 1 2.22-.32 1.83 1.83 0 0 1 0 2.8 4.23 4.23 0 0 1 -4.06.7c-2.38-.6-4.95-2.78-6.3-3.42a10 10 0 0 0 -2.85-.95"/><path d="m27.13 12.07a0 0 0 0 1 0-.05s0 0 0 0a10.35 10.35 0 0 0 4.79.36c2.38-.62 2.82-2 5.2-3.2 1.51-.73 3.5-.2 4 1.28a1.88 1.88 0 0 1 -2 2.44 1.8 1.8 0 0 1 -1.66-1 1 1 0 0 1 .6-1.26 1.1 1.1 0 0 0 1 1.46 1.07 1.07 0 0 0 .76-1.8 1.77 1.77 0 0 0 -2.11-.3 28 28 0 0 1 -3.2 2.34 6.78 6.78 0 0 1 -4.59.7 10.75 10.75 0 0 1 -2.79-1"/><path d="m24.88 10.71a0 0 0 0 1 0-.06.05.05 0 0 1 0 0c.68 0 2.6 0 3.61-1.12 1.24-1.38.95-2.32 2.06-3.32a3 3 0 0 1 3.77.14c1.38 1.18.64 3.48-.73 4.19-1.16.6-2.61.41-2.94-.53a1.41 1.41 0 0 1 1.16-2 .69.69 0 0 1 .7.82s-.24-.42-.57-.37a.81.81 0 0 0 -.57 1.11c.27.65 1.43.93 2.26-.06a1.72 1.72 0 0 0 -.74-2.9c-1.32-.47-2.08.5-2.78 1.8-.55 1-1.17 2.32-3.06 2.43a5.34 5.34 0 0 1 -2.19-.14"/></g><path d="m19.19.68h-7.85a10.56 10.56 0 0 0 -.1 21.12h7a.79.79 0 0 0 .78-.62l3.68-16.1a3.6 3.6 0 0 0 -3.51-4.4" fill="#e15426"/><path d="m15.08 8.44a6 6 0 0 1 -1.88-5.74 4.69 4.69 0 0 0 -3.34 3.58c-1.14 4.08 1.69 5.4 0 6.82-1.9 1.61-3.54-1-3.28-3.3-1.2.94-1.93 4.79-.38 7.12a6 6 0 0 0 4.38 2.86 1.52 1.52 0 0 1 -.42-1.8c.3-.86 1.29-1.24 2.22-2a3.92 3.92 0 0 0 1.54-2 4 4 0 0 1 .62 3.64 3.52 3.52 0 0 1 -1.37 2 6.11 6.11 0 0 0 4.83-5.8c0-3-1.51-4.27-2.88-5.38" fill="#fff"/></svg>