<svg height="1200" viewBox="0 0 1200 1200" width="1200" xmlns="http://www.w3.org/2000/svg" xmlns:xlink="http://www.w3.org/1999/xlink"><clipPath id="a"><path d="m0 0h1200v1200h-1200z"/></clipPath><g clip-path="url(#a)"><path d="m600 1144c-145.31 0-281.92-56.59-384.67-159.33-102.74-102.75-159.33-239.36-159.33-384.67s56.59-281.92 159.33-384.67c102.75-102.74 239.36-159.33 384.67-159.33s281.92 56.59 384.67 159.33c102.74 102.75 159.33 239.36 159.33 384.67s-56.59 281.92-159.33 384.67c-102.75 102.74-239.36 159.33-384.67 159.33z" fill="#85a93d"/><path d="m817.99 84.02c66.69 28.21 126.57 68.58 177.99 120s91.79 111.3 120 177.99c29.21 69.06 44.02 142.4 44.02 217.99s-14.81 148.93-44.02 217.99c-28.21 66.69-68.58 126.57-120 177.99s-111.3 91.79-177.99 120c-69.06 29.21-142.4 44.02-217.99 44.02s-148.93-14.81-217.99-44.02c-66.69-28.21-126.57-68.58-177.99-120s-91.79-111.3-120-177.99c-29.21-69.06-44.02-142.4-44.02-217.99s14.81-148.93 44.02-217.99c28.21-66.69 68.58-126.57 120-177.99s111.3-91.79 177.99-120c69.06-29.21 142.4-44.02 217.99-44.02s148.93 14.81 217.99 44.02zm-745.99 515.98c0 291.61 236.39 528 528 528s528-236.39 528-528-236.39-528-528-528-528 236.39-528 528zm311.7 189.71c-.85 8-9.79 12.36-16.53 7.97-48.57-31.55-171.14-161.35-23.14-325.62 146.97-163.12 339.13-75.72 531.4-191.74 5.82-3.51 13.33-.33 14.8 6.3 26.27 118.34 41.93 375.95-78.2 494.44-147 145-267 81-332 58.01-3 35.99 9 83.84 19 116.84s-54 42.15-62 36.16c-8-6-37.22-167.51 37-266.01 95-126.06 326-236 333-325-45 40-103.62 93.04-258 179-136.89 76.23-161.26 171.2-165.33 209.65z" fill="#fff" fill-rule="evenodd"/></g></svg>