<svg height="1200" viewBox="0 0 1200 1200" width="1200" xmlns="http://www.w3.org/2000/svg" xmlns:xlink="http://www.w3.org/1999/xlink"><clipPath id="a"><path d="m0 0h1200v1200h-1200z"/></clipPath><g clip-path="url(#a)"><path d="m600 1144c-145.31 0-281.92-56.59-384.67-159.33-102.74-102.75-159.33-239.36-159.33-384.67s56.59-281.92 159.33-384.67c102.75-102.74 239.36-159.33 384.67-159.33s281.92 56.59 384.67 159.33c102.74 102.75 159.33 239.36 159.33 384.67s-56.59 281.92-159.33 384.67c-102.75 102.74-239.36 159.33-384.67 159.33z" fill="#fff"/><path d="m817.99 84.02c66.69 28.21 126.57 68.58 177.99 120s91.79 111.3 120 177.99c29.21 69.06 44.02 142.4 44.02 217.99s-14.81 148.93-44.02 217.99c-28.21 66.69-68.58 126.57-120 177.99s-111.3 91.79-177.99 120c-69.06 29.21-142.4 44.02-217.99 44.02s-148.93-14.81-217.99-44.02c-66.69-28.21-126.57-68.58-177.99-120s-91.79-111.3-120-177.99c-29.21-69.06-44.02-142.4-44.02-217.99s14.81-148.93 44.02-217.99c28.21-66.69 68.58-126.57 120-177.99s111.3-91.79 177.99-120c69.06-29.21 142.4-44.02 217.99-44.02s148.93 14.81 217.99 44.02zm-745.99 515.98c0 291.61 236.39 528 528 528s528-236.39 528-528-236.39-528-528-528-528 236.39-528 528z" fill="#fff" fill-rule="evenodd"/><path d="m600 600s-320.28 186.74-457.34 264.04c-91-157.96-97.63-358.8.08-528.04 108.25 62.5 457.26 264 457.26 264z" fill="#1d2a33"/><path d="m600 600s1.58 370.74 0 528.09c-182.3-.17-359.55-94.85-457.26-264.09 108.25-62.5 457.26-264 457.26-264z" fill="#fdaa2f"/><path d="m600 600s321.87 184 457.34 264.04c-91.3 157.8-261.92 263.96-457.34 263.96z" fill="#85a93d"/><path d="m600 600s320.28-186.75 457.34-264.04c91 157.96 97.63 358.8-.08 528.04-108.25-62.5-457.26-264-457.26-264z" fill="#f6501e"/><path d="m600 600s-1.58-370.75 0-528.09c182.3.17 359.55 94.85 457.26 264.09-108.25 62.5-457.26 264-457.26 264z" fill="#40cef1"/><path d="m600 600s-321.87-184-457.34-264.04c91.3-157.8 261.92-263.96 457.34-263.96z" fill="#93b7bb"/></g></svg>