<svg version="1.2" baseProfile="tiny-ps" xmlns="http://www.w3.org/2000/svg" viewBox="0 0 560 560" width="560" height="560">
	<title>Layer 1</title>
	<style>
		tspan { white-space:pre }
		.shp0 { fill: #fdaa2f } 
		.shp1 { fill: #93b7bb } 
		.shp2 { fill: #ffffff } 
	</style>
	<g id="Layer 1">
		<g id="&lt;Group&gt;">
			<g id="&lt;Group&gt;">
				<g id="&lt;Group&gt;">
					<path id="&lt;Path&gt;" class="shp0" d="M194.39 207.71L184.43 184.43L207.71 194.39L220.59 168.74L150.91 150.86L168.76 220.57L194.39 207.71Z" />
					<path id="&lt;Path&gt;" class="shp0" d="M199.47 219.58L172.58 235.5L180.33 265.78L213.55 252.47L199.47 219.58Z" />
					<path id="&lt;Path&gt;" class="shp0" d="M172.58 324.5L199.47 340.42L213.55 307.53L180.33 294.22L172.58 324.5Z" />
					<path id="&lt;Path&gt;" class="shp0" d="M168.35 289.42L144.85 280L168.35 270.58L159.32 243.35L97.42 280L159.32 316.65L168.35 289.42Z" />
					<path id="&lt;Path&gt;" class="shp0" d="M280 418.41L280 415.15L270.58 391.65L243.36 400.68L280 462.55L280 431L280 418.41Z" />
					<path id="&lt;Path&gt;" class="shp0" d="M280 129.01L280 97.46L243.36 159.32L270.58 168.35L280 144.85L280 141.6L280 129.01Z" />
					<path id="&lt;Path&gt;" class="shp0" d="M219.58 199.47L252.47 213.55L265.78 180.33L235.52 172.57L219.58 199.47Z" />
					<path id="&lt;Path&gt;" class="shp0" d="M219.58 360.53L235.52 387.44L265.78 379.67L252.47 346.45L219.58 360.53Z" />
					<path id="&lt;Path&gt;" class="shp0" d="M274.64 499L227.88 405.82L128.94 438.65C126.78 439.36 124.41 438.8 122.81 437.19C121.2 435.59 120.64 433.22 121.35 431.06L154.18 332.11L61 285.36C58.97 284.34 57.69 282.27 57.69 280C57.69 277.73 58.97 275.65 61 274.64L154.18 227.89L121.35 128.94C120.64 126.78 121.2 124.41 122.81 122.81C124.41 121.2 126.78 120.64 128.94 121.35L227.88 154.18L274.64 61C275.66 58.97 277.73 57.69 280 57.69L280 16C134.2 16 16 134.2 16 280C16 425.8 134.2 544 280 544L280 502.31C277.73 502.31 275.66 501.03 274.64 499Z" />
					<path id="&lt;Path&gt;" class="shp0" d="M184.43 375.57L194.39 352.29L168.76 339.43L150.91 409.15L220.59 391.27L207.71 365.61L184.43 375.57Z" />
				</g>
			</g>
			<g id="&lt;Group&gt;">
				<g id="&lt;Group&gt;">
					<path id="&lt;Path&gt;" class="shp1" d="M544 280C544 134.2 425.8 16 280 16L280 129.01L280 138.71C296.32 139.15 313.65 144.52 328.13 156.91C362.63 186.41 344.3 243.99 310.05 261.74C300.41 266.73 289.97 269.52 280 270.17L280 304.44C329.76 287.56 342.96 254.93 398.38 228.07C436.33 209.68 485.88 222.91 499.38 259.91C512.88 296.91 477.71 322.41 449.88 320.91C426.91 319.67 411.39 306.55 408.38 295.89C405.05 284.07 409.71 268.74 423.38 264.41C419.38 282.41 429.17 302.09 449.38 300.91C469.38 299.74 487.05 274.68 468.38 255.91C449.69 237.1 426.38 240.74 412.38 249.41C397.45 258.65 362.38 293.41 332.38 307.91C317.83 314.94 299.85 322.29 280 326.35L280 388.32C296.97 394.12 312.76 397.47 326.08 396.67C368.13 394.16 388.61 378.35 386.38 358.91C384.63 343.66 367.63 333.66 354.63 338.66C341.63 343.66 335.88 355.41 336.88 366.41C325.88 357.91 329.88 341.41 333.38 336.91C336.88 332.41 356.07 306.24 388.88 328.91C416.38 347.91 404.76 384.92 388.88 398.91C378.38 408.16 346.88 431.41 287.38 416.41C284.93 415.79 282.47 415.1 280 414.35L280 418.41L280 431L280 544C425.8 544 544 425.8 544 280Z" />
					<path id="&lt;Path&gt;" class="shp1" d="M282.88 219.91C282.18 218.68 281.22 217.39 280 216.02L280 253.19C290.1 253.1 301.43 248.48 311.05 237.07C332.55 211.57 327.88 176.91 292.38 164.41C288.02 162.87 283.91 161.99 280 161.65L280 206.26C282.63 210.23 283.59 214.78 282.88 219.91Z" />
					<path id="&lt;Compound Path&gt;" fill-rule="evenodd" class="shp2" d="M560 280C560 317.79 552.59 354.46 537.99 388.99C523.89 422.34 503.7 452.28 477.99 477.99C452.28 503.7 422.34 523.89 388.99 537.99C354.46 552.59 317.79 560 280 560C242.21 560 205.54 552.59 171.01 537.99C137.66 523.89 107.72 503.7 82.01 477.99C56.3 452.28 36.11 422.34 22.01 388.99C7.41 354.46 0 317.79 0 280C0 242.21 7.41 205.54 22.01 171.01C36.11 137.66 56.3 107.72 82.01 82.01C107.72 56.3 137.66 36.11 171.01 22.01C205.54 7.4 242.21 0 280 0C317.79 0 354.46 7.4 388.99 22.01C422.34 36.11 452.28 56.3 477.99 82.01C503.7 107.72 523.89 137.66 537.99 171.01C552.59 205.54 560 242.21 560 280ZM544 280C544 134.2 425.8 16 280 16C134.2 16 16 134.2 16 280C16 425.8 134.2 544 280 544C425.8 544 544 425.8 544 280Z" />
					<path id="&lt;Compound Path&gt;" fill-rule="evenodd" class="shp2" d="M449.88 320.91C426.91 319.67 411.39 306.55 408.38 295.89C405.05 284.07 409.71 268.74 423.38 264.41C419.38 282.41 429.17 302.09 449.38 300.91C469.38 299.74 487.05 274.68 468.38 255.91C449.69 237.1 426.38 240.74 412.38 249.41C397.45 258.65 362.38 293.41 332.38 307.91C317.83 314.94 299.85 322.29 280 326.35L280 388.32C296.97 394.12 312.76 397.47 326.08 396.67C368.13 394.16 388.61 378.35 386.38 358.91C384.63 343.66 367.63 333.66 354.63 338.66C341.63 343.66 335.88 355.41 336.88 366.41C325.88 357.91 329.88 341.41 333.38 336.91C336.88 332.41 356.07 306.24 388.88 328.91C416.38 347.91 404.76 384.92 388.88 398.91C378.38 408.16 346.88 431.41 287.38 416.41C284.93 415.79 282.47 415.1 280 414.35L280 415.15L270.58 391.65L243.36 400.68L280 462.55L280 502.31C277.73 502.31 275.66 501.03 274.64 499L227.88 405.82L128.94 438.65C126.78 439.36 124.41 438.8 122.81 437.19C121.2 435.59 120.64 433.22 121.35 431.06L154.18 332.11L61 285.36C58.97 284.34 57.69 282.27 57.69 280C57.69 277.73 58.97 275.65 61 274.64L154.18 227.89L121.35 128.94C120.64 126.78 121.2 124.41 122.81 122.81C124.41 121.2 126.78 120.64 128.94 121.35L227.88 154.18L274.64 61C275.66 58.97 277.73 57.69 280 57.69L280 97.46L243.36 159.32L270.58 168.35L280 144.85L280 138.71C296.32 139.15 313.65 144.52 328.13 156.91C362.63 186.41 344.3 243.99 310.05 261.74C300.41 266.73 289.97 269.52 280 270.17L280 304.44C329.76 287.56 342.96 254.93 398.38 228.07C436.33 209.68 485.88 222.91 499.38 259.91C512.88 296.91 477.71 322.41 449.88 320.91ZM280 253.19C290.1 253.1 301.43 248.48 311.05 237.07C332.55 211.57 327.88 176.91 292.38 164.41C288.02 162.87 283.91 161.99 280 161.65L280 206.26C282.63 210.23 283.59 214.78 282.88 219.91C282.18 218.68 281.22 217.39 280 216.02L280 253.19ZM219.58 199.47L252.47 213.55L265.78 180.33L235.52 172.57L219.58 199.47ZM168.76 220.57L194.39 207.71L184.43 184.43L207.71 194.39L220.59 168.74L150.91 150.86L168.76 220.57ZM213.55 252.47L199.47 219.58L172.58 235.5L180.33 265.78L213.55 252.47ZM180.33 294.22L172.58 324.5L199.47 340.42L213.55 307.53L180.33 294.22ZM159.32 316.65L168.35 289.42L144.85 280L168.35 270.58L159.32 243.35L97.42 280L159.32 316.65ZM220.59 391.27L207.71 365.61L184.43 375.57L194.39 352.29L168.76 339.43L150.91 409.15L220.59 391.27ZM265.78 379.67L252.47 346.45L219.58 360.53L235.52 387.44L265.78 379.67Z" />
				</g>
			</g>
		</g>
	</g>
</svg>