<svg xmlns="http://www.w3.org/2000/svg" width="746.667" height="746.667" viewBox="0 0 197.556 197.556"><defs><clipPath id="a" clipPathUnits="userSpaceOnUse"><path d="M0 600h600V0H0Z"/></clipPath></defs><g clip-path="url(#a)" transform="matrix(.35278 0 0 -.35278 -7.056 204.611)"><path d="M0 0c-72.653 0-140.959 28.293-192.333 79.667S-272 199.347-272 272c0 72.654 28.293 140.959 79.667 192.333S-72.653 544 0 544s140.959-28.293 192.333-79.667S272 344.654 272 272s-28.293-140.959-79.667-192.333S72.653 0 0 0" style="fill:#fff;fill-opacity:1;fill-rule:nonzero;stroke:none" transform="translate(300 28)"/><path d="M0 0c-37.793 0-74.463-7.405-108.994-22.01-33.344-14.104-63.286-34.291-88.996-60s-45.897-55.652-59.999-88.996C-272.595-205.537-280-242.207-280-280s7.405-74.464 22.011-108.993c14.102-33.345 34.29-63.287 59.999-88.997 25.71-25.709 55.652-45.897 88.996-59.999C-74.463-552.595-37.793-560 0-560s74.463 7.405 108.994 22.011c33.344 14.102 63.286 34.29 88.996 59.999s45.897 55.652 60 88.997C272.595-354.464 280-317.793 280-280s-7.405 74.463-22.01 108.994c-14.103 33.344-34.291 63.286-60 88.996s-55.652 45.896-88.996 60C74.463-7.405 37.793 0 0 0m0-16c145.803 0 264-118.197 264-264S145.803-544 0-544s-264 118.197-264 264S-145.803-16 0-16" style="fill:#fff;fill-opacity:1;fill-rule:nonzero;stroke:none" transform="translate(300 580)"/><path d="M0 0s-160.142-93.372-228.669-132.022c-45.502 78.982-48.816 179.404.038 264.022z" style="fill:#202830;fill-opacity:1;fill-rule:nonzero;stroke:none" transform="translate(300 300)"/><path d="M0 0s.792-185.372.001-264.044c-91.153.085-179.777 47.426-228.632 132.044z" style="fill:#eca610;fill-opacity:1;fill-rule:nonzero;stroke:none" transform="translate(300 300)"/><path d="M0 0s160.934-92 228.669-132.021C183.02-210.919 97.708-264 0-264Z" style="fill:#7da82a;fill-opacity:1;fill-rule:nonzero;stroke:none" transform="translate(300 300)"/><path d="M0 0s160.141 93.373 228.668 132.022C274.171 53.04 277.485-47.382 228.631-132z" style="fill:#e2421f;fill-opacity:1;fill-rule:nonzero;stroke:none" transform="translate(300 300)"/><path d="M0 0s-.792 185.373-.001 264.044c91.153-.085 179.777-47.426 228.632-132.044z" style="fill:#56c8ef;fill-opacity:1;fill-rule:nonzero;stroke:none" transform="translate(300 300)"/><path d="M0 0s-160.934 92-228.669 132.021C-183.02 210.919-97.708 264 0 264Z" style="fill:#98b0b5;fill-opacity:1;fill-rule:nonzero;stroke:none" transform="translate(300 300)"/></g></svg>