<svg version="1.2" baseProfile="tiny-ps" xmlns="http://www.w3.org/2000/svg" viewBox="0 0 560 560" width="560" height="560">
	<title>Layer 1</title>
	<style>
		tspan { white-space:pre }
		.shp0 { fill: #f6501e } 
		.shp1 { fill: #93b7bb } 
		.shp2 { fill: #ffffff } 
	</style>
	<g id="Layer 1">
		<g id="&lt;Group&gt;">
			<path id="&lt;Path&gt;" class="shp0" d="M280 418.41L280 412.48C263.34 423.41 248.56 432.79 243.06 448.55C237.84 463.53 238.83 483 253.58 493.45C207.87 488.19 172.06 464.05 144.06 422.05C105.11 363.63 123.56 267.55 153.56 244.05C149.06 300.55 184.12 361.63 235.56 326.55C279.56 296.55 213.56 238.05 235.56 156.05C245.24 119.98 262.34 96.99 280 83.31L280 16C280 16 280 16 280 16C134.2 16 16 134.2 16 280C16 425.8 134.2 544 280 544C280 544 280 544 280 544L280 431L280 418.41Z" />
			<g id="&lt;Group&gt;">
				<g id="&lt;Group&gt;">
					<path id="&lt;Path&gt;" class="shp1" d="M544 280C544 134.2 425.8 16 280 16L280 129.01L280 138.71C296.32 139.15 313.65 144.52 328.13 156.91C362.63 186.41 344.3 243.99 310.05 261.74C300.41 266.73 289.97 269.52 280 270.17L280 304.44C329.76 287.56 342.97 254.93 398.38 228.07C436.33 209.68 485.88 222.91 499.38 259.91C512.88 296.91 477.71 322.41 449.88 320.91C426.91 319.67 411.39 306.55 408.38 295.89C405.05 284.07 409.71 268.74 423.38 264.41C419.38 282.41 429.17 302.09 449.38 300.91C469.38 299.74 487.05 274.68 468.38 255.91C449.69 237.1 426.38 240.74 412.38 249.41C397.45 258.65 362.38 293.41 332.38 307.91C317.83 314.94 299.85 322.29 280 326.35L280 388.32C296.97 394.12 312.76 397.47 326.08 396.67C368.13 394.16 388.61 378.35 386.38 358.91C384.63 343.66 367.63 333.66 354.63 338.66C341.63 343.66 335.88 355.41 336.88 366.41C325.88 357.91 329.88 341.41 333.38 336.91C336.88 332.41 356.07 306.24 388.88 328.91C416.38 347.91 404.76 384.92 388.88 398.91C378.38 408.16 346.88 431.41 287.38 416.41C284.93 415.79 282.47 415.1 280 414.35L280 418.41L280 431L280 544C425.8 544 544 425.8 544 280Z" />
					<path id="&lt;Path&gt;" class="shp1" d="M282.88 219.91C282.18 218.68 281.22 217.39 280 216.02L280 253.19C290.1 253.1 301.43 248.48 311.05 237.07C332.55 211.57 327.88 176.91 292.38 164.41C288.02 162.87 283.91 161.99 280 161.65L280 206.26C282.63 210.23 283.59 214.78 282.88 219.91Z" />
					<path id="&lt;Compound Path&gt;" fill-rule="evenodd" class="shp2" d="M560 280C560 317.79 552.6 354.46 537.99 388.99C523.89 422.34 503.7 452.28 477.99 477.99C452.28 503.7 422.34 523.89 388.99 537.99C354.46 552.59 317.79 560 280 560C280 560 280 560 280 560C242.21 560 205.54 552.59 171.01 537.99C137.66 523.89 107.72 503.7 82.01 477.99C56.3 452.28 36.11 422.34 22.01 388.99C7.4 354.46 0 317.79 0 280C0 242.21 7.4 205.54 22.01 171.01C36.11 137.66 56.3 107.72 82.01 82.01C107.72 56.3 137.66 36.11 171.01 22.01C205.54 7.4 242.21 0 280 0C280 0 280 0 280 0C317.79 0 354.46 7.4 388.99 22.01C422.34 36.11 452.28 56.3 477.99 82.01C503.7 107.72 523.89 137.66 537.99 171.01C552.6 205.54 560 242.21 560 280ZM544 280C544 134.2 425.8 16 280 16C280 16 280 16 280 16C134.2 16 16 134.2 16 280C16 425.8 134.2 544 280 544C280 544 280 544 280 544C425.8 544 544 425.8 544 280Z" />
					<path id="&lt;Compound Path&gt;" fill-rule="evenodd" class="shp2" d="M449.88 320.91C426.91 319.67 411.39 306.55 408.38 295.89C405.05 284.07 409.71 268.74 423.38 264.41C419.38 282.41 429.17 302.09 449.38 300.91C469.38 299.74 487.05 274.68 468.38 255.91C449.69 237.1 426.38 240.74 412.38 249.41C397.45 258.65 362.38 293.41 332.38 307.91C317.83 314.94 299.85 322.29 280 326.35L280 388.32C296.97 394.12 312.76 397.47 326.08 396.67C368.13 394.16 388.61 378.35 386.38 358.91C384.63 343.66 367.63 333.66 354.63 338.66C341.63 343.66 335.88 355.41 336.88 366.41C325.88 357.91 329.88 341.41 333.38 336.91C336.88 332.41 356.07 306.24 388.88 328.91C416.38 347.91 404.76 384.92 388.88 398.91C378.38 408.16 346.88 431.41 287.38 416.41C284.93 415.79 282.47 415.1 280 414.35L280 412.48C263.34 423.41 248.56 432.79 243.06 448.55C237.84 463.53 238.83 483 253.58 493.45C207.87 488.19 172.06 464.05 144.06 422.05C105.11 363.63 123.56 267.55 153.56 244.05C149.06 300.55 184.12 361.63 235.56 326.55C279.56 296.55 213.56 238.05 235.56 156.05C245.24 119.98 262.34 96.99 280 83.31L280 138.71C296.32 139.15 313.65 144.52 328.13 156.91C362.63 186.41 344.3 243.99 310.05 261.74C300.41 266.73 289.97 269.52 280 270.17L280 304.44C329.76 287.56 342.97 254.93 398.38 228.07C436.33 209.68 485.88 222.91 499.38 259.91C512.88 296.91 477.71 322.41 449.88 320.91ZM280 253.19C290.1 253.1 301.43 248.48 311.05 237.07C332.55 211.57 327.88 176.91 292.38 164.41C288.02 162.87 283.91 161.99 280 161.65L280 206.26C282.63 210.23 283.59 214.78 282.88 219.91C282.18 218.68 281.22 217.39 280 216.02L280 253.19Z" />
				</g>
			</g>
		</g>
	</g>
</svg>