<svg id="svg" version="1.1" xmlns="http://www.w3.org/2000/svg" xmlns:xlink="http://www.w3.org/1999/xlink" width="400" height="400" viewBox="0, 0, 400,400"><g id="svgg"><path id="path0" d="M198.661 36.362 C 195.189 37.356,195.012 37.956,194.689 49.812 C 194.543 55.176,194.349 61.208,194.257 63.215 L 194.091 66.866 191.944 65.954 C 190.764 65.453,184.936 62.888,178.995 60.255 C 165.523 54.284,164.170 53.800,162.351 54.302 C 158.877 55.260,157.451 58.950,159.352 62.066 C 160.112 63.313,163.052 64.749,180.287 72.292 C 187.104 75.275,192.963 77.867,193.308 78.051 C 193.933 78.386,193.915 98.919,193.285 103.549 L 193.098 104.922 184.096 100.752 C 150.466 85.175,150.636 85.247,148.897 85.768 C 144.766 87.006,143.545 92.435,146.896 94.668 C 147.779 95.256,162.838 102.483,172.243 106.832 C 178.575 109.760,184.520 112.541,189.248 114.786 L 193.199 116.662 193.057 121.872 C 192.979 124.737,192.728 134.441,192.500 143.436 C 192.088 159.670,192.080 159.793,191.432 160.240 C 190.269 161.041,170.683 172.195,169.787 172.566 C 169.021 172.883,168.734 172.827,167.355 172.089 C 163.266 169.900,138.366 156.292,135.184 154.507 L 131.583 152.488 131.676 149.987 C 131.727 148.612,132.571 137.877,133.551 126.131 C 135.567 101.979,135.614 100.899,134.703 99.426 C 133.424 97.356,130.212 96.610,127.824 97.828 C 125.468 99.030,125.288 99.901,123.793 117.329 C 122.315 134.545,121.188 146.298,120.997 146.484 C 120.878 146.600,117.607 144.941,113.728 142.796 C 109.850 140.652,104.685 137.795,102.251 136.448 C 99.549 134.953,97.825 133.821,97.825 133.541 C 97.825 133.289,98.428 127.614,99.164 120.930 C 101.808 96.913,101.824 96.443,100.063 94.681 C 98.222 92.841,95.532 92.608,93.257 94.092 C 91.480 95.252,91.130 96.968,89.438 112.828 C 88.035 125.984,87.857 127.451,87.623 127.830 C 87.373 128.235,85.971 127.566,78.170 123.317 C 62.964 115.035,62.868 114.996,60.435 116.101 C 58.243 117.096,56.981 119.779,57.609 122.112 C 58.204 124.320,57.230 123.628,74.719 134.279 C 78.432 136.540,81.525 138.444,81.591 138.509 C 81.767 138.680,80.990 139.275,70.545 146.959 C 56.760 157.100,55.796 157.860,55.327 158.955 C 53.719 162.711,56.703 166.968,60.543 166.395 C 61.915 166.190,64.586 164.351,81.615 151.890 C 86.151 148.571,90.298 145.621,90.831 145.334 C 91.992 144.709,91.086 144.266,101.875 150.733 C 111.860 156.716,114.075 158.150,113.943 158.545 C 113.883 158.727,107.902 163.039,100.653 168.127 C 76.419 185.136,76.533 185.051,75.900 186.447 C 74.291 189.989,76.694 193.848,80.506 193.848 C 82.026 193.848,84.780 192.050,106.677 176.753 C 113.443 172.026,120.178 167.326,121.643 166.309 L 124.307 164.460 125.694 165.255 C 126.457 165.692,132.348 169.218,138.785 173.091 C 145.221 176.964,152.881 181.565,155.807 183.315 L 161.127 186.497 161.059 199.981 L 160.990 213.465 142.730 224.532 L 124.470 235.600 120.225 232.753 C 115.799 229.785,113.918 228.487,98.575 217.814 C 83.521 207.342,82.106 206.452,80.515 206.452 C 77.728 206.452,75.664 208.369,75.391 211.210 C 75.102 214.216,75.021 214.149,99.025 230.908 C 107.277 236.669,114.029 241.575,114.025 241.806 C 114.017 242.259,92.130 255.364,91.381 255.364 C 91.276 255.364,87.744 252.832,83.532 249.737 C 62.653 234.396,62.067 233.995,60.324 233.827 C 57.354 233.542,54.870 235.919,54.866 239.051 C 54.862 241.562,55.558 242.266,64.479 248.784 C 79.755 259.945,81.678 261.437,81.268 261.814 C 81.049 262.015,76.617 264.784,71.418 267.967 C 58.761 275.717,58.581 275.843,57.851 277.492 C 56.383 280.811,58.768 284.519,62.394 284.556 C 64.011 284.573,65.147 284.027,76.819 277.638 C 88.293 271.356,87.762 271.519,88.047 274.193 C 90.640 298.558,91.338 303.885,92.062 304.855 C 94.391 307.974,99.184 307.793,100.852 304.524 C 101.581 303.095,100.749 292.041,98.398 271.910 C 98.064 269.045,97.832 266.664,97.882 266.618 C 99.808 264.897,120.641 253.165,121.040 253.578 C 121.112 253.652,122.071 263.706,123.171 275.919 C 124.271 288.132,125.310 298.660,125.480 299.314 C 126.482 303.171,131.538 304.275,134.284 301.235 C 135.819 299.536,135.769 298.427,132.489 261.815 C 132.090 257.359,131.671 252.350,131.558 250.685 L 131.354 247.656 137.620 244.192 C 157.723 233.081,168.621 227.157,168.956 227.157 C 169.296 227.157,172.558 228.999,187.736 237.762 L 191.976 240.210 192.161 244.411 C 192.556 253.374,193.015 283.324,192.762 283.571 C 192.617 283.712,185.611 287.026,177.194 290.934 C 157.308 300.167,147.394 305.009,146.373 305.988 C 143.430 308.807,145.705 314.479,149.778 314.478 C 151.333 314.478,157.290 311.917,173.143 304.430 C 181.043 300.700,191.654 295.909,192.472 295.704 C 193.380 295.476,193.472 296.595,193.732 311.028 L 193.927 321.830 190.812 323.168 C 183.160 326.455,161.100 336.341,160.411 336.793 C 157.388 338.773,158.136 344.112,161.642 345.577 C 163.737 346.453,163.424 346.559,180.458 339.187 C 187.865 335.982,193.983 333.418,194.055 333.490 C 194.127 333.561,194.310 338.462,194.462 344.379 C 194.915 361.973,194.899 361.880,197.740 363.316 C 200.868 364.896,204.241 363.427,204.963 360.171 C 205.102 359.549,205.370 353.301,205.560 346.287 C 205.750 339.272,205.936 333.503,205.972 333.465 C 206.108 333.324,209.345 334.683,220.255 339.462 C 235.148 345.985,235.481 346.111,237.163 345.859 C 240.759 345.320,242.612 341.722,240.961 338.486 C 240.053 336.705,239.352 336.353,218.755 327.320 C 212.731 324.678,207.452 322.337,207.025 322.116 L 206.248 321.715 206.355 312.470 C 206.482 301.455,206.729 295.274,207.041 295.274 C 207.166 295.274,213.533 298.192,221.189 301.758 C 244.871 312.789,248.700 314.479,250.010 314.479 C 253.958 314.479,256.453 309.592,254.153 306.362 C 253.255 305.101,248.794 302.935,211.553 285.682 L 207.202 283.667 207.103 279.793 C 207.000 275.736,207.518 250.800,207.843 244.157 L 208.032 240.301 209.718 239.222 C 211.798 237.890,224.819 230.636,228.537 228.738 L 231.267 227.345 238.740 231.422 C 246.403 235.603,262.420 244.369,266.504 246.616 L 268.792 247.875 268.670 249.144 C 267.726 259.002,264.666 295.916,264.666 297.450 C 264.666 301.046,266.359 302.927,269.594 302.924 C 273.822 302.920,274.572 301.555,275.440 292.273 C 275.988 286.408,278.770 254.694,278.770 254.306 C 278.770 253.689,282.960 255.644,291.823 260.396 C 299.416 264.467,302.176 266.208,302.176 266.930 C 302.176 267.286,301.510 273.843,300.696 281.501 C 298.514 302.040,298.503 302.152,298.709 303.248 C 299.303 306.412,303.493 308.020,306.521 306.246 C 308.715 304.960,308.650 305.282,310.866 284.921 C 311.531 278.815,312.150 273.373,312.243 272.829 L 312.411 271.839 315.620 273.551 C 317.385 274.493,320.855 276.370,323.331 277.723 C 333.749 283.418,336.029 284.525,337.390 284.545 C 341.669 284.610,344.272 279.557,341.597 276.378 C 340.823 275.458,335.942 272.346,324.610 265.548 C 321.188 263.495,318.386 261.744,318.384 261.656 C 318.380 261.500,320.375 259.999,331.133 252.065 C 345.390 241.551,345.653 241.295,345.216 238.376 C 344.836 235.843,343.051 234.063,340.660 233.833 C 338.683 233.643,338.142 233.950,330.233 239.738 C 326.602 242.395,320.296 247.003,316.221 249.978 L 308.811 255.388 306.756 254.354 C 301.915 251.916,287.087 242.993,286.300 242.044 C 285.927 241.595,285.611 241.829,305.776 227.600 C 322.795 215.591,323.499 215.065,324.156 213.868 C 326.063 210.397,322.716 205.640,318.870 206.355 C 317.706 206.572,312.859 209.807,295.658 221.848 C 288.267 227.021,280.764 232.254,278.984 233.476 L 275.747 235.698 274.183 234.823 C 272.154 233.688,258.788 225.685,247.634 218.926 L 238.854 213.606 238.932 200.064 L 239.010 186.522 256.714 175.799 C 266.452 169.901,274.711 164.916,275.069 164.721 C 275.715 164.368,280.745 167.760,307.577 186.644 C 319.570 195.085,321.533 195.616,324.068 191.107 C 326.286 187.160,325.657 186.503,307.577 173.886 C 304.524 171.756,299.257 168.059,295.874 165.671 C 292.491 163.282,288.878 160.736,287.847 160.011 C 286.815 159.286,285.971 158.578,285.971 158.436 C 285.971 158.166,288.905 156.313,300.918 148.997 L 308.212 144.554 310.297 145.979 C 311.445 146.763,314.779 149.169,317.707 151.327 C 330.020 160.399,337.495 165.747,338.400 166.132 C 341.581 167.482,345.183 164.875,345.150 161.246 C 345.125 158.486,344.767 158.163,328.657 146.356 C 323.005 142.213,318.380 138.746,318.380 138.652 C 318.380 138.557,321.587 136.532,325.506 134.151 C 342.367 123.910,342.199 124.032,342.548 121.701 C 343.017 118.576,340.593 115.529,337.638 115.529 C 336.574 115.529,332.306 117.607,323.475 122.425 C 319.765 124.449,315.757 126.634,314.570 127.281 L 312.410 128.457 312.245 127.469 C 312.155 126.926,311.536 121.485,310.870 115.379 C 309.247 100.486,308.833 97.375,308.291 96.022 C 306.734 92.129,300.519 92.219,299.016 96.156 C 298.437 97.672,298.440 97.713,301.138 122.960 C 302.366 134.453,302.395 133.789,300.625 134.790 C 287.748 142.078,279.062 146.837,278.926 146.681 C 278.827 146.566,277.926 136.644,276.520 120.180 C 274.677 98.596,274.789 99.162,272.105 97.793 C 269.953 96.694,266.780 97.388,265.417 99.254 C 264.480 100.539,264.524 103.348,265.690 116.579 C 267.830 140.860,268.688 151.700,268.507 152.168 C 268.342 152.593,261.381 156.495,241.560 167.271 C 238.342 169.021,234.608 171.019,233.263 171.712 L 230.817 172.971 229.212 172.101 C 228.329 171.623,223.218 168.700,217.854 165.606 L 208.102 159.981 207.897 158.385 C 207.712 156.951,207.041 125.981,207.049 119.257 L 207.052 116.533 211.928 114.258 C 214.610 113.007,220.855 110.095,225.806 107.787 C 253.612 94.825,253.379 94.942,254.320 93.506 C 256.041 90.880,254.693 87.132,251.605 85.952 C 249.600 85.187,248.288 85.674,232.558 93.025 C 219.614 99.075,207.303 104.726,207.069 104.726 C 206.726 104.726,206.462 98.082,206.374 87.232 L 206.302 78.291 213.953 74.897 C 218.162 73.030,225.049 69.983,229.257 68.126 C 239.612 63.556,240.203 63.230,240.951 61.684 C 242.075 59.363,241.604 57.005,239.679 55.315 C 237.326 53.249,236.598 53.441,221.426 60.123 C 210.235 65.052,206.567 66.617,206.201 66.617 C 206.038 66.617,205.839 63.248,205.727 58.590 C 205.285 40.130,204.979 37.845,202.816 36.848 C 201.390 36.191,199.876 36.014,198.661 36.362 M208.060 172.071 C 212.209 174.451,218.372 178.005,221.755 179.968 L 227.907 183.536 227.985 200.068 L 228.062 216.599 218.982 221.842 C 206.651 228.962,200.987 232.187,200.449 232.393 C 199.944 232.586,195.995 230.438,181.618 222.148 L 171.938 216.567 172.015 200.068 L 172.093 183.570 180.645 178.615 C 192.590 171.695,199.629 167.767,200.108 167.754 C 200.333 167.747,203.912 169.690,208.060 172.071 " stroke="none" fill="#fbfbfb" fill-rule="evenodd"></path><path id="path1" d="M192.198 2.095 C 69.450 7.978,-18.140 119.420,5.871 239.160 C 25.832 338.701,118.792 407.440,219.505 397.129 C 336.689 385.132,417.339 275.628,393.969 160.245 C 374.840 65.798,287.726 -2.483,192.198 2.095 M202.816 36.848 C 204.979 37.845,205.285 40.130,205.727 58.590 C 205.839 63.248,206.038 66.617,206.201 66.617 C 206.567 66.617,210.235 65.052,221.426 60.123 C 236.598 53.441,237.326 53.249,239.679 55.315 C 241.604 57.005,242.075 59.363,240.951 61.684 C 240.203 63.230,239.612 63.556,229.257 68.126 C 225.049 69.983,218.162 73.030,213.953 74.897 L 206.302 78.291 206.374 87.232 C 206.462 98.082,206.726 104.726,207.069 104.726 C 207.303 104.726,219.614 99.075,232.558 93.025 C 248.288 85.674,249.600 85.187,251.605 85.952 C 254.693 87.132,256.041 90.880,254.320 93.506 C 253.379 94.942,253.612 94.825,225.806 107.787 C 220.855 110.095,214.610 113.007,211.928 114.258 L 207.052 116.533 207.049 119.257 C 207.041 125.981,207.712 156.951,207.897 158.385 L 208.102 159.981 217.854 165.606 C 223.218 168.700,228.329 171.623,229.212 172.101 L 230.817 172.971 233.263 171.712 C 234.608 171.019,238.342 169.021,241.560 167.271 C 261.381 156.495,268.342 152.593,268.507 152.168 C 268.688 151.700,267.830 140.860,265.690 116.579 C 264.524 103.348,264.480 100.539,265.417 99.254 C 266.780 97.388,269.953 96.694,272.105 97.793 C 274.789 99.162,274.677 98.596,276.520 120.180 C 277.926 136.644,278.827 146.566,278.926 146.681 C 279.062 146.837,287.748 142.078,300.625 134.790 C 302.395 133.789,302.366 134.453,301.138 122.960 C 298.440 97.713,298.437 97.672,299.016 96.156 C 300.519 92.219,306.734 92.129,308.291 96.022 C 308.833 97.375,309.247 100.486,310.870 115.379 C 311.536 121.485,312.155 126.926,312.245 127.469 L 312.410 128.457 314.570 127.281 C 315.757 126.634,319.765 124.449,323.475 122.425 C 332.306 117.607,336.574 115.529,337.638 115.529 C 340.593 115.529,343.017 118.576,342.548 121.701 C 342.199 124.032,342.367 123.910,325.506 134.151 C 321.587 136.532,318.380 138.557,318.380 138.652 C 318.380 138.746,323.005 142.213,328.657 146.356 C 344.767 158.163,345.125 158.486,345.150 161.246 C 345.183 164.875,341.581 167.482,338.400 166.132 C 337.495 165.747,330.020 160.399,317.707 151.327 C 314.779 149.169,311.445 146.763,310.297 145.979 L 308.212 144.554 300.918 148.997 C 288.905 156.313,285.971 158.166,285.971 158.436 C 285.971 158.578,286.815 159.286,287.847 160.011 C 288.878 160.736,292.491 163.282,295.874 165.671 C 299.257 168.059,304.524 171.756,307.577 173.886 C 325.657 186.503,326.286 187.160,324.068 191.107 C 321.533 195.616,319.570 195.085,307.577 186.644 C 280.745 167.760,275.715 164.368,275.069 164.721 C 274.711 164.916,266.452 169.901,256.714 175.799 L 239.010 186.522 238.932 200.064 L 238.854 213.606 247.634 218.926 C 258.788 225.685,272.154 233.688,274.183 234.823 L 275.747 235.698 278.984 233.476 C 280.764 232.254,288.267 227.021,295.658 221.848 C 312.859 209.807,317.706 206.572,318.870 206.355 C 322.716 205.640,326.063 210.397,324.156 213.868 C 323.499 215.065,322.795 215.591,305.776 227.600 C 285.611 241.829,285.927 241.595,286.300 242.044 C 287.087 242.993,301.915 251.916,306.756 254.354 L 308.811 255.388 316.221 249.978 C 320.296 247.003,326.602 242.395,330.233 239.738 C 338.142 233.950,338.683 233.643,340.660 233.833 C 343.051 234.063,344.836 235.843,345.216 238.376 C 345.653 241.295,345.390 241.551,331.133 252.065 C 320.375 259.999,318.380 261.500,318.384 261.656 C 318.386 261.744,321.188 263.495,324.610 265.548 C 335.942 272.346,340.823 275.458,341.597 276.378 C 344.272 279.557,341.669 284.610,337.390 284.545 C 336.029 284.525,333.749 283.418,323.331 277.723 C 320.855 276.370,317.385 274.493,315.620 273.551 L 312.411 271.839 312.243 272.829 C 312.150 273.373,311.531 278.815,310.866 284.921 C 308.650 305.282,308.715 304.960,306.521 306.246 C 303.493 308.020,299.303 306.412,298.709 303.248 C 298.503 302.152,298.514 302.040,300.696 281.501 C 301.510 273.843,302.176 267.286,302.176 266.930 C 302.176 266.208,299.416 264.467,291.823 260.396 C 282.960 255.644,278.770 253.689,278.770 254.306 C 278.770 254.694,275.988 286.408,275.440 292.273 C 274.572 301.555,273.822 302.920,269.594 302.924 C 266.359 302.927,264.666 301.046,264.666 297.450 C 264.666 295.916,267.726 259.002,268.670 249.144 L 268.792 247.875 266.504 246.616 C 262.420 244.369,246.403 235.603,238.740 231.422 L 231.267 227.345 228.537 228.738 C 224.819 230.636,211.798 237.890,209.718 239.222 L 208.032 240.301 207.843 244.157 C 207.518 250.800,207.000 275.736,207.103 279.793 L 207.202 283.667 211.553 285.682 C 248.794 302.935,253.255 305.101,254.153 306.362 C 256.453 309.592,253.958 314.479,250.010 314.479 C 248.700 314.479,244.871 312.789,221.189 301.758 C 213.533 298.192,207.166 295.274,207.041 295.274 C 206.729 295.274,206.482 301.455,206.355 312.470 L 206.248 321.715 207.025 322.116 C 207.452 322.337,212.731 324.678,218.755 327.320 C 239.352 336.353,240.053 336.705,240.961 338.486 C 242.612 341.722,240.759 345.320,237.163 345.859 C 235.481 346.111,235.148 345.985,220.255 339.462 C 209.345 334.683,206.108 333.324,205.972 333.465 C 205.936 333.503,205.750 339.272,205.560 346.287 C 205.370 353.301,205.102 359.549,204.963 360.171 C 204.241 363.427,200.868 364.896,197.740 363.316 C 194.899 361.880,194.915 361.973,194.462 344.379 C 194.310 338.462,194.127 333.561,194.055 333.490 C 193.983 333.418,187.865 335.982,180.458 339.187 C 163.424 346.559,163.737 346.453,161.642 345.577 C 158.136 344.112,157.388 338.773,160.411 336.793 C 161.100 336.341,183.160 326.455,190.812 323.168 L 193.927 321.830 193.732 311.028 C 193.472 296.595,193.380 295.476,192.472 295.704 C 191.654 295.909,181.043 300.700,173.143 304.430 C 157.290 311.917,151.333 314.478,149.778 314.478 C 145.705 314.479,143.430 308.807,146.373 305.988 C 147.394 305.009,157.308 300.167,177.194 290.934 C 185.611 287.026,192.617 283.712,192.762 283.571 C 193.015 283.324,192.556 253.374,192.161 244.411 L 191.976 240.210 187.736 237.762 C 172.558 228.999,169.296 227.157,168.956 227.157 C 168.621 227.157,157.723 233.081,137.620 244.192 L 131.354 247.656 131.558 250.685 C 131.671 252.350,132.090 257.359,132.489 261.815 C 135.769 298.427,135.819 299.536,134.284 301.235 C 131.538 304.275,126.482 303.171,125.480 299.314 C 125.310 298.660,124.271 288.132,123.171 275.919 C 122.071 263.706,121.112 253.652,121.040 253.578 C 120.641 253.165,99.808 264.897,97.882 266.618 C 97.832 266.664,98.064 269.045,98.398 271.910 C 100.749 292.041,101.581 303.095,100.852 304.524 C 99.184 307.793,94.391 307.974,92.062 304.855 C 91.338 303.885,90.640 298.558,88.047 274.193 C 87.762 271.519,88.293 271.356,76.819 277.638 C 65.147 284.027,64.011 284.573,62.394 284.556 C 58.768 284.519,56.383 280.811,57.851 277.492 C 58.581 275.843,58.761 275.717,71.418 267.967 C 76.617 264.784,81.049 262.015,81.268 261.814 C 81.678 261.437,79.755 259.945,64.479 248.784 C 55.558 242.266,54.862 241.562,54.866 239.051 C 54.870 235.919,57.354 233.542,60.324 233.827 C 62.067 233.995,62.653 234.396,83.532 249.737 C 87.744 252.832,91.276 255.364,91.381 255.364 C 92.130 255.364,114.017 242.259,114.025 241.806 C 114.029 241.575,107.277 236.669,99.025 230.908 C 75.021 214.149,75.102 214.216,75.391 211.210 C 75.664 208.369,77.728 206.452,80.515 206.452 C 82.106 206.452,83.521 207.342,98.575 217.814 C 113.918 228.487,115.799 229.785,120.225 232.753 L 124.470 235.600 142.730 224.532 L 160.990 213.465 161.059 199.981 L 161.127 186.497 155.807 183.315 C 152.881 181.565,145.221 176.964,138.785 173.091 C 132.348 169.218,126.457 165.692,125.694 165.255 L 124.307 164.460 121.643 166.309 C 120.178 167.326,113.443 172.026,106.677 176.753 C 84.780 192.050,82.026 193.848,80.506 193.848 C 76.694 193.848,74.291 189.989,75.900 186.447 C 76.533 185.051,76.419 185.136,100.653 168.127 C 107.902 163.039,113.883 158.727,113.943 158.545 C 114.075 158.150,111.860 156.716,101.875 150.733 C 91.086 144.266,91.992 144.709,90.831 145.334 C 90.298 145.621,86.151 148.571,81.615 151.890 C 64.586 164.351,61.915 166.190,60.543 166.395 C 56.703 166.968,53.719 162.711,55.327 158.955 C 55.796 157.860,56.760 157.100,70.545 146.959 C 80.990 139.275,81.767 138.680,81.591 138.509 C 81.525 138.444,78.432 136.540,74.719 134.279 C 57.230 123.628,58.204 124.320,57.609 122.112 C 56.981 119.779,58.243 117.096,60.435 116.101 C 62.868 114.996,62.964 115.035,78.170 123.317 C 85.971 127.566,87.373 128.235,87.623 127.830 C 87.857 127.451,88.035 125.984,89.438 112.828 C 91.130 96.968,91.480 95.252,93.257 94.092 C 95.532 92.608,98.222 92.841,100.063 94.681 C 101.824 96.443,101.808 96.913,99.164 120.930 C 98.428 127.614,97.825 133.289,97.825 133.541 C 97.825 133.821,99.549 134.953,102.251 136.448 C 104.685 137.795,109.850 140.652,113.728 142.796 C 117.607 144.941,120.878 146.600,120.997 146.484 C 121.188 146.298,122.315 134.545,123.793 117.329 C 125.288 99.901,125.468 99.030,127.824 97.828 C 130.212 96.610,133.424 97.356,134.703 99.426 C 135.614 100.899,135.567 101.979,133.551 126.131 C 132.571 137.877,131.727 148.612,131.676 149.987 L 131.583 152.488 135.184 154.507 C 138.366 156.292,163.266 169.900,167.355 172.089 C 168.734 172.827,169.021 172.883,169.787 172.566 C 170.683 172.195,190.269 161.041,191.432 160.240 C 192.080 159.793,192.088 159.670,192.500 143.436 C 192.728 134.441,192.979 124.737,193.057 121.872 L 193.199 116.662 189.248 114.786 C 184.520 112.541,178.575 109.760,172.243 106.832 C 162.838 102.483,147.779 95.256,146.896 94.668 C 143.545 92.435,144.766 87.006,148.897 85.768 C 150.636 85.247,150.466 85.175,184.096 100.752 L 193.098 104.922 193.285 103.549 C 193.915 98.919,193.933 78.386,193.308 78.051 C 192.963 77.867,187.104 75.275,180.287 72.292 C 163.052 64.749,160.112 63.313,159.352 62.066 C 157.451 58.950,158.877 55.260,162.351 54.302 C 164.170 53.800,165.523 54.284,178.995 60.255 C 184.936 62.888,190.764 65.453,191.944 65.954 L 194.091 66.866 194.257 63.215 C 194.349 61.208,194.543 55.176,194.689 49.812 C 194.979 39.179,195.097 38.457,196.751 37.279 C 198.548 35.999,200.650 35.850,202.816 36.848 M194.449 170.713 C 191.560 172.334,185.349 175.890,180.645 178.615 L 172.093 183.570 172.015 200.068 L 171.938 216.567 181.618 222.148 C 195.995 230.438,199.944 232.586,200.449 232.393 C 200.987 232.187,206.651 228.962,218.982 221.842 L 228.062 216.599 227.985 200.068 L 227.907 183.536 221.755 179.968 C 207.412 171.647,200.492 167.743,200.108 167.754 C 199.884 167.760,197.337 169.092,194.449 170.713 " stroke="none" fill="#5cccec" fill-rule="evenodd"></path></g></svg>