<svg xmlns="http://www.w3.org/2000/svg" width="746.667" height="746.667" viewBox="0 0 197.556 197.556">
    <path
        d="M98.778 194.733c-25.63 0-49.727-9.98-67.851-28.104S2.822 124.409 2.822 98.778c0-25.63 9.981-49.727 28.105-67.851s42.22-28.105 67.85-28.105c25.631 0 49.728 9.981 67.852 28.105 18.123 18.124 28.104 42.22 28.104 67.85 0 25.631-9.98 49.728-28.104 67.852-18.124 18.123-42.22 28.104-67.851 28.104"
        style="fill:#eca610;fill-opacity:1;fill-rule:nonzero;stroke:none;stroke-width:.352778" />
    <path
        d="M0 0c-37.793 0-74.464-7.405-108.994-22.011-33.344-14.102-63.286-34.29-88.996-59.999s-45.897-55.652-60-88.997C-272.595-205.536-280-242.207-280-280s7.405-74.464 22.01-108.993c14.103-33.345 34.291-63.287 60-88.997 25.71-25.709 55.652-45.896 88.996-59.999C-74.464-552.595-37.793-560 0-560c37.792 0 74.463 7.405 108.993 22.011 33.344 14.103 63.287 34.29 88.996 59.999 25.71 25.71 45.897 55.652 60 88.997C272.595-354.464 280-317.793 280-280s-7.405 74.464-22.011 108.993c-14.103 33.345-34.29 63.287-60 88.997-25.709 25.709-55.652 45.897-88.996 59.999C74.463-7.405 37.792 0 0 0m0-16c145.803 0 264-118.196 264-264 0-145.803-118.197-264-264-264-145.804 0-264 118.197-264 264C-264-134.196-145.804-16 0-16"
        style="fill:currentColor;fill-opacity:1;fill-rule:nonzero;stroke:none"
        transform="matrix(.35278 0 0 -.35278 98.778 0)" />
    <path
        d="m0 0-9.044 27.255 23.505 9.418-23.504 9.418 9.042 27.252L61.996 36.67zm8.504-92.473-69.776 17.889 12.869 25.65 23.279-9.961-9.961 23.28L-9.41-22.733zm-129.142-53.492-36.693 61.957 27.222 9.032 9.418-23.503 9.417 23.503 27.262-9.045zM-249.78-92.473l17.848 69.718 25.633-12.86-9.96-23.28 23.279 9.961 12.875-25.661zM-303.272 36.67l61.897 36.648 9.034-27.228-23.504-9.417 23.504-9.417-9.035-27.232zm53.492 129.142 69.674-17.875-12.874-25.658-23.279 9.961 9.96-23.279-25.634-12.86zm129.142 53.493 36.625-61.939-27.26-9.046-9.418 23.505-9.418-23.505-27.221 9.033zm66.4-155.106 14.078 32.9 26.922-15.926-7.78-30.284zm0-55.053 33.22 13.311 7.78-30.287-26.922-15.924zm-38.928-38.927 32.902-14.078-15.909-26.906-30.302 7.769zm-55.052 0 13.31-33.217-30.267-7.766-15.936 26.909zm-38.927 38.927-14.076-32.895-26.889 15.92 7.753 30.283zm0 55.053-33.212-13.307-7.753 30.281 26.889 15.921zm38.927 38.928-32.893 14.074 15.935 26.906 30.267-7.764zm55.052 0-13.308 33.213 30.302 7.767 15.908-26.902zm101.67 62.685L-9.409 96.079l-25.676 12.882 9.961 23.279-23.279-9.961-12.868 25.648zM98.306 42.036 5.124 88.788l32.831 98.947a6 6 0 0 1-1.452 6.132 5.99 5.99 0 0 1-6.132 1.452l-98.947-32.831-46.752 93.183a6.001 6.001 0 0 1-10.727 0l-46.752-93.183-98.947 32.831a5.99 5.99 0 0 1-6.132-1.452 6 6 0 0 1-1.452-6.132l32.83-98.948-93.181-46.751a6 6 0 0 1 0-10.726l93.181-46.751-32.83-98.949a6 6 0 0 1 1.452-6.131 6 6 0 0 1 6.132-1.453l98.947 32.831 46.752-93.182a6.003 6.003 0 0 1 10.727 0l46.751 93.182 98.948-32.831a5.997 5.997 0 0 1 6.132 1.453 6 6 0 0 1 1.452 6.131L5.123-15.442 98.306 31.31a6 6 0 0 1 0 10.726"
        style="fill:#fff;fill-opacity:1;fill-rule:nonzero;stroke:none"
        transform="matrix(.35278 0 0 -.35278 141.355 111.715)" />
</svg>