<svg version="1.2" baseProfile="tiny-ps" xmlns="http://www.w3.org/2000/svg" viewBox="0 0 560 560" width="560" height="560">
	<title>Layer 1</title>
	<style>
		tspan { white-space:pre }
		.shp0 { fill: #f6501e } 
		.shp1 { fill: #ffffff } 
		.shp2 { fill: #1d2a33 } 
	</style>
	<g id="Layer 1">
		<g id="&lt;Group&gt;">
			<g id="&lt;Group&gt;">
				<g id="&lt;Group&gt;">
					<path id="&lt;Path&gt;" class="shp0" d="M280 418.41L280 412.48C263.34 423.41 248.56 432.79 243.06 448.55C237.84 463.53 238.83 483 253.58 493.45C207.87 488.19 172.06 464.05 144.06 422.05C105.11 363.63 123.56 267.55 153.56 244.05C149.06 300.55 184.12 361.63 235.56 326.55C279.56 296.55 213.56 238.05 235.56 156.05C245.24 119.98 262.34 96.99 280 83.31L280 16C280 16 280 16 280 16C134.2 16 16 134.2 16 280C16 425.8 134.2 544 280 544C280 544 280 544 280 544L280 431L280 418.41Z" />
					<path id="&lt;Path&gt;" class="shp1" d="M235.56 156.05C213.56 238.05 279.56 296.55 235.56 326.55C184.12 361.63 149.06 300.55 153.56 244.05C123.56 267.55 105.11 363.63 144.06 422.05C172.06 464.05 207.87 488.19 253.58 493.45C238.83 483 237.84 463.53 243.06 448.55C248.56 432.79 263.34 423.41 280 412.48L280 141.6L280 129.01L280 83.31C262.34 96.99 245.24 119.98 235.56 156.05Z" />
				</g>
			</g>
			<g id="&lt;Group&gt;">
				<path id="&lt;Path&gt;" class="shp2" d="M544 280C544 134.2 425.8 16 280 16L280 129C280 129 280.01 129 280.01 129.01C294.52 124.59 309.9 122.22 325.83 122.22C412.83 122.22 483.61 193 483.61 280.01C483.61 367.01 412.83 437.79 325.83 437.79C309.9 437.79 294.52 435.42 280.01 431C280.01 431 280 431 280 431L280 431L280 544C425.8 544 544 425.8 544 280Z" />
				<path id="&lt;Path&gt;" class="shp2" d="M297.51 411.3C346.26 387.68 379.96 337.71 379.96 280.01C379.96 222.3 346.26 172.32 297.51 148.71C291.87 145.97 286.02 143.59 280 141.6C280 141.6 280 141.6 280 141.6L280 141.6L280 418.41C280 418.41 280 418.41 280 418.41C286.02 416.42 291.87 414.02 297.51 411.3Z" />
				<path id="&lt;Path&gt;" class="shp2" d="M322.64 149.43C395.73 150.63 454.61 208.62 454.61 280.01C454.61 351.38 395.74 409.37 322.65 410.57C320.91 411.75 319.16 412.91 317.37 414.02C311.75 417.52 305.89 420.68 299.83 423.47C308.27 424.99 316.96 425.79 325.83 425.79C406.21 425.79 471.61 360.39 471.61 280.01C471.61 199.62 406.21 134.22 325.83 134.22C316.96 134.22 308.27 135.01 299.83 136.54C305.89 139.32 311.74 142.47 317.36 145.97C319.15 147.09 320.9 148.25 322.64 149.43Z" />
				<path id="&lt;Compound Path&gt;" fill-rule="evenodd" class="shp1" d="M560 280C560 317.79 552.6 354.46 537.99 388.99C523.89 422.34 503.7 452.28 477.99 477.99C452.28 503.7 422.34 523.89 388.99 537.99C354.46 552.59 317.79 560 280 560C280 560 280 560 280 560C242.21 560 205.54 552.59 171.01 537.99C137.66 523.89 107.72 503.7 82.01 477.99C56.3 452.28 36.11 422.34 22.01 388.99C7.4 354.46 0 317.79 0 280C0 242.21 7.4 205.54 22.01 171.01C36.11 137.66 56.3 107.72 82.01 82.01C107.72 56.3 137.66 36.11 171.01 22.01C205.54 7.4 242.21 0 280 0C280 0 280 0 280 0C317.79 0 354.46 7.4 388.99 22.01C422.34 36.11 452.28 56.3 477.99 82.01C503.7 107.72 523.89 137.66 537.99 171.01C552.6 205.54 560 242.21 560 280ZM544 280C544 134.2 425.8 16 280 16C280 16 280 16 280 16C134.2 16 16 134.2 16 280C16 425.8 134.2 544 280 544C280 544 280 544 280 544C425.8 544 544 425.8 544 280Z" />
				<path id="&lt;Compound Path&gt;" fill-rule="evenodd" class="shp1" d="M280 129C280 129 280.01 129 280.01 129.01C294.52 124.59 309.9 122.22 325.83 122.22C412.83 122.22 483.61 193 483.61 280.01C483.61 367.01 412.83 437.79 325.83 437.79C309.9 437.79 294.52 435.42 280.01 431C280.01 431 280 431 280 431L280 418.41C280 418.41 280 418.41 280 418.41C286.02 416.42 291.87 414.02 297.51 411.3C346.26 387.68 379.96 337.71 379.96 280.01C379.96 222.3 346.26 172.32 297.51 148.71C291.87 145.97 286.02 143.59 280 141.6C280 141.6 280 141.6 280 141.6L280 129ZM299.83 136.54C305.89 139.32 311.74 142.47 317.36 145.97C319.15 147.09 320.9 148.25 322.64 149.43C395.73 150.63 454.61 208.62 454.61 280.01C454.61 351.38 395.74 409.37 322.65 410.57C320.91 411.75 319.16 412.91 317.37 414.02C311.75 417.52 305.89 420.68 299.83 423.47C308.27 424.99 316.96 425.79 325.83 425.79C406.21 425.79 471.61 360.39 471.61 280.01C471.61 199.62 406.21 134.22 325.83 134.22C316.96 134.22 308.27 135.01 299.83 136.54Z" />
			</g>
		</g>
	</g>
</svg>