<svg height="1200" viewBox="0 0 1200 1200" width="1200" xmlns="http://www.w3.org/2000/svg" xmlns:xlink="http://www.w3.org/1999/xlink"><clipPath id="a"><path d="m0 0h1200v1200h-1200z"/></clipPath><g clip-path="url(#a)"><path d="m600 1144c-145.31 0-281.92-56.59-384.67-159.33-102.74-102.75-159.33-239.36-159.33-384.67s56.59-281.92 159.33-384.67c102.75-102.74 239.36-159.33 384.67-159.33s281.92 56.59 384.67 159.33c102.74 102.75 159.33 239.36 159.33 384.67s-56.59 281.92-159.33 384.67c-102.75 102.74-239.36 159.33-384.67 159.33z" fill="#93b7bb"/><path d="m817.99 84.02c66.69 28.21 126.57 68.58 177.99 120s91.79 111.3 120 177.99c29.21 69.06 44.02 142.4 44.02 217.99s-14.81 148.93-44.02 217.99c-28.21 66.69-68.58 126.57-120 177.99s-111.3 91.79-177.99 120c-69.06 29.21-142.4 44.02-217.99 44.02s-148.93-14.81-217.99-44.02c-66.69-28.21-126.57-68.58-177.99-120s-91.79-111.3-120-177.99c-29.21-69.06-44.02-142.4-44.02-217.99s14.81-148.93 44.02-217.99c28.21-66.69 68.58-126.57 120-177.99s111.3-91.79 177.99-120c69.06-29.21 142.4-44.02 217.99-44.02s148.93 14.81 217.99 44.02zm-745.99 515.98c0 291.61 236.39 528 528 528s528-236.39 528-528-236.39-528-528-528-528 236.39-528 528zm85.29 54.44c-2.77-.58-2.64-4.58.15-4.96 25.01-3.34 85.12-5.51 163.32 31.34 104 49 271.94 158.47 371.4 152.52 84.1-5.02 125.07-36.65 120.6-75.52-3.5-30.5-37.5-50.5-63.5-40.5s-37.5 33.5-35.5 55.5c-22-17-14-50-7-59s45.39-61.34 111-16c55 38 31.75 112.02 0 140-21 18.5-84 65-203 35s-247.29-138.67-315-171c-62.3-29.76-89.15-36.17-142.47-47.38zm178.82-13.19c-1.94-1.06-.72-4.03 1.4-3.38 44.48 13.58 157.55 39.17 239.25 17.94 119.34-31 141-101.99 260-159.66 75.91-36.78 175-10.33 202 63.67 27 73.99-43.33 124.99-99 121.99-45.94-2.47-76.98-28.71-83-50.03-6.66-23.63 2.67-54.3 30-62.96-8 35.99 11.58 75.35 52 72.99 40-2.33 75.34-52.44 38-89.99-37.39-37.62-84-30.34-112-13-29.85 18.48-100 87.99-160 116.99-57.58 27.83-141.92 58.2-229.13 35.01-74.3-19.76-97.11-26.35-139.52-49.57zm-112.75-67.59c-2.52-.97-1.73-4.74.97-4.63 34.26 1.38 130.09-.19 180.43-56.21 62-69 47.89-116.08 103-166 38.5-34.88 126.54-45.99 188.5 7 69 59 32.34 174.16-36.16 209.66-58.01 30.06-130.84 20.34-147.34-26.66-18.37-52.34 19.5-98.5 58-98 40.61.52 35 41 35 41s-12-20.99-28.5-18.5c-20.91 3.15-39.36 29.34-28.5 55.5 13.5 32.5 71.56 46.88 113.34-2.67 43-51 33.66-120.33-37.34-145.33-65.62-23.11-104.09 25.29-139 90.01-27.5 50.99-58.5 115.99-153 121.43-69.26 3.98-96.09-1.5-109.4-6.6z" fill="#fff" fill-rule="evenodd"/></g></svg>