<svg height="560" viewBox="0 0 560 560" width="560" xmlns="http://www.w3.org/2000/svg"><path d="m280 418.41v-4.06c-57.36-17.36-117.66-67.94-150.12-83.44-31.15-14.88-44.58-18.09-71.24-23.69-1.38-.29-1.32-2.29.08-2.48 12.51-1.67 42.56-2.76 81.66 15.67 38.07 17.93 93.26 52.07 139.62 67.91v-61.97c-19.42 3.97-40.62 4.79-62.19-.94-37.15-9.88-48.55-13.18-69.76-24.78-.97-.54-.35-2.02.7-1.69 22.24 6.79 78.78 19.58 119.63 8.97 4.1-1.07 7.95-2.23 11.62-3.47v-34.27c-20.04 1.3-38.11-6.07-43.62-21.76-9.19-26.17 9.75-49.25 29-49 7.79.1 12.17 3.14 14.62 6.85v-44.61c-25.5-2.2-41.99 19.7-57.12 47.76-13.75 25.5-29.25 58-76.5 60.72-34.63 1.99-48.04-.75-54.7-3.3-1.26-.49-.87-2.37.48-2.32 17.13.7 65.05-.09 90.22-28.1 31-34.5 23.94-58.04 51.5-83 10.25-9.29 27.53-15.2 46.12-14.7v-9.7-113.01c-145.8 0-264 118.2-264 264s118.2 264 264 264v-113z" fill="#93b7bb"/><path d="m268.63 210.66c-10.45 1.57-19.68 14.67-14.25 27.75 3.64 8.77 13.78 14.89 25.62 14.78v-37.17c-2.54-2.84-6.57-6.09-11.37-5.36z" fill="#93b7bb"/><g fill="#fff"><path d="m58.72 304.74c-1.4.19-1.46 2.19-.08 2.48 26.66 5.6 40.09 8.81 71.24 23.69 32.46 15.5 92.76 66.08 150.12 83.44v-26.03c-46.36-15.84-101.55-49.98-139.62-67.91-39.1-18.43-69.15-17.34-81.66-15.67z"/><path d="m148.75 298.94c-1.05-.33-1.67 1.15-.7 1.69 21.21 11.6 32.61 14.9 69.76 24.78 21.57 5.73 42.77 4.91 62.19.94v-21.91c-3.67 1.24-7.52 2.4-11.62 3.47-40.85 10.61-97.39-2.18-119.63-8.97z"/><path d="m233.88 153.41c-27.56 24.96-20.5 48.5-51.5 83-25.17 28.01-73.09 28.8-90.22 28.1-1.35-.05-1.74 1.83-.48 2.32 6.66 2.55 20.07 5.29 54.7 3.3 47.25-2.72 62.75-35.22 76.5-60.72 15.13-28.06 31.62-49.96 57.12-47.76v-20.05-2.89c-18.59-.5-35.87 5.41-46.12 14.7z"/><path d="m254.38 238.41c-5.43-13.08 3.8-26.18 14.25-27.75 4.8-.73 8.83 2.52 11.37 5.36v-9.76c-2.45-3.71-6.83-6.75-14.62-6.85-19.25-.25-38.19 22.83-29 49 5.51 15.69 23.58 23.06 43.62 21.76v-16.98c-11.84.11-21.98-6.01-25.62-14.78z"/></g><path d="m544 280c0-145.8-118.2-264-264-264v113s.01 0 .01.01c14.51-4.42 29.89-6.79 45.82-6.79 87 0 157.78 70.78 157.78 157.79 0 87-70.78 157.78-157.78 157.78-15.93 0-31.31-2.37-45.82-6.79h-.01v113c145.8 0 264-118.2 264-264z" fill="#1d2a33"/><path d="m297.51 411.3c48.75-23.62 82.45-73.59 82.45-131.29 0-57.71-33.7-107.69-82.45-131.3-5.64-2.74-11.49-5.12-17.51-7.11v276.81c6.02-1.99 11.87-4.39 17.51-7.11z" fill="#1d2a33"/><path d="m322.64 149.43c73.09 1.2 131.97 59.19 131.97 130.58 0 71.37-58.87 129.36-131.96 130.56-1.74 1.18-3.49 2.34-5.28 3.45-5.62 3.5-11.48 6.66-17.54 9.45 8.44 1.52 17.13 2.32 26 2.32 80.38 0 145.78-65.4 145.78-145.78 0-80.39-65.4-145.79-145.78-145.79-8.87 0-17.56.79-26 2.32 6.06 2.78 11.91 5.93 17.53 9.43 1.79 1.12 3.54 2.28 5.28 3.46z" fill="#1d2a33"/><path d="m560 280c0 37.79-7.41 74.46-22.01 108.99-14.1 33.35-34.29 63.29-60 89s-55.65 45.9-89 60c-34.53 14.6-71.2 22.01-108.99 22.01s-74.46-7.41-108.99-22.01c-33.35-14.1-63.29-34.29-89-60s-45.9-55.65-60-89c-14.61-34.53-22.01-71.2-22.01-108.99s7.4-74.46 22.01-108.99c14.1-33.35 34.29-63.29 60-89s55.65-45.9 89-60c34.53-14.61 71.2-22.01 108.99-22.01s74.46 7.4 108.99 22.01c33.35 14.1 63.29 34.29 89 60s45.9 55.65 60 89c14.6 34.53 22.01 71.2 22.01 108.99zm-16 0c0-145.8-118.2-264-264-264s-264 118.2-264 264 118.2 264 264 264 264-118.2 264-264z" fill="#fff" fill-rule="evenodd"/><path d="m280 129s.01 0 .01.01c14.51-4.42 29.89-6.79 45.82-6.79 87 0 157.78 70.78 157.78 157.79 0 87-70.78 157.78-157.78 157.78-15.93 0-31.31-2.37-45.82-6.79h-.01v-12.59c6.02-1.99 11.87-4.39 17.51-7.11 48.75-23.62 82.45-73.59 82.45-131.29 0-57.71-33.7-107.69-82.45-131.3-5.64-2.74-11.49-5.12-17.51-7.11zm19.83 7.54c6.06 2.78 11.91 5.93 17.53 9.43 1.79 1.12 3.54 2.28 5.28 3.46 73.09 1.2 131.97 59.19 131.97 130.58 0 71.37-58.87 129.36-131.96 130.56-1.74 1.18-3.49 2.34-5.28 3.45-5.62 3.5-11.48 6.66-17.54 9.45 8.44 1.52 17.13 2.32 26 2.32 80.38 0 145.78-65.4 145.78-145.78 0-80.39-65.4-145.79-145.78-145.79-8.87 0-17.56.79-26 2.32z" fill="#fff" fill-rule="evenodd"/></svg>