<svg height="1200" viewBox="0 0 1200 1200" width="1200" xmlns="http://www.w3.org/2000/svg" xmlns:xlink="http://www.w3.org/1999/xlink"><clipPath id="a"><path d="m0 0h1200v1200h-1200z"/></clipPath><g clip-path="url(#a)"><path d="m600 1144c-145.31 0-281.92-56.59-384.67-159.33-102.74-102.75-159.33-239.36-159.33-384.67s56.59-281.92 159.33-384.67c102.75-102.74 239.36-159.33 384.67-159.33s281.92 56.59 384.67 159.33c102.74 102.75 159.33 239.36 159.33 384.67s-56.59 281.92-159.33 384.67c-102.75 102.74-239.36 159.33-384.67 159.33z" fill="#40cef1"/><g fill="#fff" fill-rule="evenodd"><path d="m817.99 84.02c66.68 28.21 126.57 68.58 177.99 120s91.79 111.3 120 177.99c29.21 69.06 44.02 142.4 44.02 217.99s-14.81 148.93-44.02 217.99c-28.21 66.69-68.58 126.57-120 177.99s-111.31 91.79-177.99 120c-69.06 29.21-142.41 44.02-217.99 44.02-75.59 0-148.93-14.81-217.99-44.02-66.69-28.21-126.57-68.58-177.99-120s-91.79-111.3-120-177.99c-29.21-69.06-44.02-142.4-44.02-217.99s14.81-148.93 44.02-217.99c28.21-66.69 68.58-126.57 120-177.99s111.3-91.79 177.99-120c69.06-29.21 142.4-44.02 217.99-44.02 75.58 0 148.93 14.81 217.99 44.02zm-745.99 515.98c0 291.61 236.39 528 528 528s528-236.39 528-528-236.39-528-528-528-528 236.39-528 528z"/><path d="m984.9 695.49c4.57 6.24 3.23 15-3.01 19.57l-66.91 49.11 58.67 35.54c6.69 3.87 8.99 12.43 5.12 19.13-2.59 4.49-7.3 7-12.14 7-2.37 0-4.78-.6-6.98-1.88l-60.13-32.92-9.06 82.39c-.79 7.17-6.85 12.47-13.9 12.47-.51 0-1.02-.03-1.54-.08-7.69-.85-13.24-7.76-12.39-15.45l10.32-93.88-62.67-34.32-10.53 120.13c-.64 7.29-6.76 12.78-13.94 12.78-.41 0-.82-.02-1.23-.05-7.71-.68-13.4-7.47-12.73-15.17l11.61-132.37-101.16-55.39-61.59 35.56-2.44 114.91 120.71 56.26c7.01 3.27 10.04 11.6 6.78 18.61-2.38 5.09-7.43 8.09-12.7 8.09-1.98 0-3.99-.42-5.91-1.32l-109.53-51.05-1.52 71.48 86.6 38.07c7.08 3.11 10.29 11.37 7.18 18.45-2.3 5.24-7.44 8.37-12.82 8.37-1.88 0-3.79-.38-5.63-1.19l-75.97-33.4-1.46 68.58c0 7.74-6.27 14-14 14s-14-6.26-14-14l-1.54-68.54-75.9 33.36c-1.83.81-3.74 1.19-5.62 1.19-5.39 0-10.52-3.13-12.82-8.37-3.12-7.08.1-15.34 7.18-18.45l86.47-38.01-1.61-71.44-109.31 50.95c-1.92.89-3.93 1.32-5.91 1.32-5.27 0-10.32-3-12.7-8.09-3.26-7.01-.23-15.34 6.78-18.61l120.45-56.14-2.59-115.27-61.82-35.69-100.56 55.32 11.65 132.81c.67 7.7-5.02 14.49-12.73 15.17-.41.03-.83.05-1.24.05-7.18 0-13.29-5.49-13.93-12.78l-10.56-120.5-62.66 34.48 10.34 94.09c.84 7.69-4.7 14.6-12.39 15.45-.52.05-1.03.08-1.54.08-7.05 0-13.12-5.3-13.9-12.47l-9.07-82.54-60.12 33.07c-2.2 1.28-4.61 1.88-6.98 1.88-4.84 0-9.55-2.51-12.14-7-3.87-6.7-1.57-15.26 5.12-19.13l58.55-35.63-66.8-49.02c-6.23-4.57-7.57-13.33-3-19.57 4.57-6.23 13.33-7.58 19.57-3l76.11 55.84 61.01-37.13-98.69-69.13c-6.33-4.44-7.87-13.17-3.43-19.5s13.17-7.87 19.49-3.44l108.75 76.18 98.63-60.03v-70.99l-98.27-59.54-109.1 76.43c-2.45 1.71-5.25 2.53-8.03 2.53-4.41 0-8.75-2.08-11.47-5.97-4.44-6.33-2.9-15.06 3.43-19.5l99-69.35-61.15-37.04-76.28 55.97c-2.5 1.83-5.4 2.71-8.27 2.71-4.31 0-8.56-1.98-11.3-5.72-4.57-6.23-3.23-14.99 3-19.57l66.92-49.1-58.67-35.55c-6.69-3.86-8.99-12.43-5.12-19.12 3.86-6.7 12.43-8.99 19.12-5.13l60.13 32.93 9.06-82.39c.84-7.69 7.78-13.24 15.44-12.39 7.69.84 13.23 7.76 12.39 15.45l-10.32 93.88 62.67 34.31 10.53-120.12c.68-7.7 7.46-13.42 15.17-12.73 7.71.68 13.4 7.47 12.73 15.17l-11.61 132.37 101.16 55.39 61.42-35.46 2.51-115.37-120.61-56.21c-7.01-3.27-10.04-11.6-6.78-18.61 3.27-7 11.59-10.04 18.61-6.77l109.44 51.01 1.56-71.46-86.55-38.05c-7.08-3.11-10.3-11.37-7.18-18.45 3.1-7.07 11.37-10.29 18.44-7.18l75.95 33.38 1.49-68.56c0-7.74 6.27-14 14-14s14 6.26 14 14l1.51 68.56 75.92-33.38c7.08-3.11 15.34.11 18.45 7.18 3.11 7.08-.1 15.34-7.18 18.45l-86.52 38.04 1.57 71.45 109.4-50.99c7.01-3.27 15.34-.23 18.61 6.77 3.26 7.01.23 15.34-6.78 18.61l-120.56 56.19 2.54 115.43 61.36 35.43 101.14-55.39-11.61-132.38c-.67-7.7 5.02-14.49 12.73-15.17 7.74-.69 14.49 5.03 15.17 12.73l10.53 120.13 62.67-34.31-10.32-93.89c-.85-7.69 4.7-14.6 12.39-15.45 7.68-.85 14.6 4.7 15.44 12.39l9.06 82.4 60.13-32.93c6.7-3.87 15.26-1.58 19.12 5.12 3.87 6.7 1.57 15.26-5.12 19.12l-58.67 35.55 66.91 49.1c6.24 4.58 7.58 13.34 3.01 19.58-2.74 3.73-6.99 5.71-11.3 5.71-2.88 0-5.78-.88-8.27-2.71l-76.28-55.97-61.15 37.04 99 69.35c6.33 4.44 7.87 13.17 3.43 19.5-2.72 3.89-7.06 5.97-11.48 5.97-2.77 0-5.57-.82-8.02-2.53l-109.1-76.43-98.27 59.53v71.75l98.27 59.53 109.1-76.43c6.34-4.43 15.06-2.89 19.5 3.44s2.9 15.06-3.43 19.5l-99 69.34 61.15 37.05 76.28-55.97c6.23-4.58 15-3.23 19.57 3zm-309.44-51.77v-87.13l-75.46-43.57-75.46 43.57v87.13l75.46 43.57z"/></g></g></svg>