<svg id="svg" version="1.1" xmlns="http://www.w3.org/2000/svg" xmlns:xlink="http://www.w3.org/1999/xlink" width="400" height="400" viewBox="0, 0, 400,400"><g id="svgg"><path id="path0" d="M2.029 192.750 C 2.034 193.738,2.036 193.742,2.204 193.112 C 2.320 192.674,2.318 192.361,2.198 192.112 C 2.055 191.817,2.024 191.935,2.029 192.750 M199.429 200.110 C 199.379 200.243,199.400 200.312,199.476 200.265 C 199.795 200.068,199.834 210.935,199.836 302.033 C 199.837 354.586,199.894 397.658,199.961 397.750 C 200.107 397.949,212.018 397.778,215.583 397.525 C 219.676 397.235,226.653 396.457,230.000 395.917 C 230.779 395.792,231.979 395.603,232.667 395.497 C 233.354 395.392,234.442 395.206,235.083 395.084 C 235.725 394.963,236.737 394.776,237.333 394.669 C 240.456 394.111,249.997 391.901,252.083 391.252 C 252.450 391.138,253.350 390.876,254.083 390.670 C 254.817 390.464,255.829 390.166,256.333 390.007 C 256.837 389.849,257.587 389.620,258.000 389.499 C 258.758 389.275,262.590 388.025,263.667 387.650 C 263.987 387.538,264.737 387.277,265.333 387.070 C 265.929 386.863,267.542 386.265,268.917 385.741 C 270.292 385.217,271.690 384.689,272.024 384.567 C 273.028 384.203,277.436 382.355,279.750 381.329 C 287.911 377.709,296.869 372.986,303.719 368.693 C 304.985 367.899,306.147 367.175,306.302 367.083 C 306.946 366.701,312.590 362.942,312.667 362.844 C 312.712 362.786,313.387 362.306,314.167 361.778 C 314.946 361.250,315.804 360.653,316.074 360.451 C 321.106 356.683,322.679 355.491,322.833 355.329 C 322.879 355.281,323.253 354.981,323.664 354.662 C 324.075 354.344,324.533 353.971,324.683 353.833 C 324.833 353.696,325.434 353.209,326.019 352.753 C 326.605 352.296,327.121 351.880,327.167 351.830 C 327.270 351.716,330.443 348.979,331.483 348.107 C 333.166 346.697,336.449 343.573,340.254 339.761 C 345.107 334.900,346.055 333.893,349.413 330.029 C 349.598 329.816,349.870 329.516,350.017 329.362 C 350.165 329.209,351.090 328.108,352.074 326.917 C 353.058 325.725,353.987 324.600,354.140 324.416 C 354.292 324.232,354.677 323.745,354.996 323.333 C 355.314 322.921,355.622 322.546,355.680 322.500 C 355.801 322.404,358.604 318.692,359.581 317.333 C 359.944 316.829,361.009 315.329,361.948 314.000 C 362.887 312.671,363.733 311.493,363.828 311.382 C 363.922 311.271,364.000 311.140,364.000 311.091 C 364.000 311.042,364.375 310.476,364.833 309.833 C 365.292 309.191,365.667 308.636,365.667 308.599 C 365.667 308.563,366.142 307.832,366.723 306.975 C 367.303 306.118,367.810 305.342,367.848 305.250 C 367.886 305.158,368.263 304.558,368.685 303.917 C 370.039 301.860,371.406 299.293,371.303 299.003 C 371.274 298.920,369.375 297.775,367.083 296.458 C 364.792 295.141,361.942 293.498,360.750 292.807 C 359.558 292.116,357.421 290.877,356.000 290.053 C 354.579 289.230,351.279 287.317,348.667 285.803 C 343.627 282.882,325.715 272.537,300.750 258.130 C 292.408 253.316,274.671 243.079,261.333 235.381 C 231.070 217.914,223.775 213.709,213.833 208.000 C 203.282 201.941,200.798 200.497,200.500 200.252 C 200.092 199.917,199.532 199.843,199.429 200.110 M2.030 206.750 C 2.027 207.632,2.047 207.694,2.199 207.275 C 2.317 206.952,2.318 206.633,2.203 206.275 C 2.049 205.796,2.034 205.837,2.030 206.750 " stroke="none" fill="#7ca32b" fill-rule="evenodd"></path><path id="path1" d="M364.415 105.133 C 360.749 107.230,348.525 114.272,337.250 120.781 C 325.975 127.290,304.825 139.499,290.250 147.912 C 275.675 156.325,260.862 164.877,257.333 166.916 C 253.804 168.955,243.154 175.107,233.667 180.585 C 224.179 186.064,213.567 192.200,210.083 194.221 C 206.600 196.242,202.946 198.359,201.963 198.926 C 200.323 199.872,200.199 199.977,200.463 200.207 C 200.790 200.493,202.736 201.627,213.833 208.000 C 223.775 213.709,231.070 217.914,261.333 235.381 C 274.671 243.079,292.408 253.316,300.750 258.130 C 325.715 272.537,343.627 282.882,348.667 285.803 C 351.279 287.317,354.579 289.230,356.000 290.053 C 357.421 290.877,359.558 292.116,360.750 292.807 C 372.251 299.478,371.450 299.094,372.034 298.208 C 373.248 296.367,377.724 287.588,380.127 282.333 C 380.316 281.921,380.769 280.946,381.135 280.167 C 381.971 278.384,383.273 275.268,384.442 272.250 C 384.939 270.967,385.450 269.654,385.577 269.333 C 385.704 269.012,386.007 268.188,386.250 267.500 C 386.493 266.813,386.793 265.987,386.918 265.667 C 387.042 265.346,387.300 264.596,387.492 264.000 C 387.684 263.404,388.144 261.979,388.514 260.833 C 389.240 258.585,390.035 255.987,390.418 254.610 C 390.549 254.137,390.807 253.225,390.991 252.583 C 391.174 251.942,391.629 250.179,392.001 248.667 C 392.373 247.154,392.783 245.504,392.912 245.000 C 393.157 244.043,393.287 243.462,393.751 241.250 C 393.905 240.517,394.093 239.654,394.168 239.333 C 394.244 239.012,394.427 238.075,394.575 237.250 C 394.723 236.425,394.948 235.188,395.074 234.500 C 395.200 233.813,395.390 232.688,395.496 232.000 C 395.602 231.313,395.792 230.112,395.917 229.333 C 396.043 228.554,396.223 227.279,396.318 226.500 C 396.886 221.827,397.018 220.675,397.244 218.417 C 398.349 207.399,398.117 187.991,396.755 177.417 C 396.625 176.408,396.435 174.871,396.334 174.000 C 396.232 173.129,396.044 171.779,395.917 171.000 C 395.789 170.221,395.599 168.983,395.495 168.250 C 395.390 167.517,395.203 166.392,395.080 165.750 C 394.956 165.108,394.658 163.533,394.418 162.250 C 394.177 160.967,393.867 159.429,393.727 158.833 C 393.588 158.237,393.411 157.450,393.333 157.083 C 392.973 155.374,391.566 149.566,391.234 148.417 C 391.101 147.958,390.884 147.208,390.750 146.750 C 390.617 146.292,390.239 144.979,389.911 143.833 C 389.258 141.552,389.236 141.482,387.924 137.500 C 386.940 134.516,386.685 133.761,386.489 133.250 C 386.418 133.067,386.119 132.242,385.824 131.417 C 384.965 129.014,384.891 128.822,384.264 127.338 C 383.935 126.562,383.667 125.864,383.667 125.786 C 383.667 125.709,383.489 125.257,383.273 124.781 C 382.368 122.796,382.130 122.253,381.838 121.513 C 381.670 121.085,381.291 120.213,380.996 119.575 C 380.342 118.161,379.842 117.067,379.245 115.750 C 377.366 111.600,374.086 105.099,372.645 102.667 C 371.590 100.887,372.104 100.733,364.415 105.133 " stroke="none" fill="#e3441c" fill-rule="evenodd"></path><path id="path2" d="M200.750 1.973 L 200.083 2.083 200.042 100.723 C 200.019 154.975,200.059 199.469,200.133 199.600 C 200.237 199.786,201.091 199.356,204.091 197.610 C 207.336 195.721,274.389 156.994,286.167 150.206 C 288.321 148.965,290.946 147.448,292.000 146.835 C 293.054 146.223,295.417 144.856,297.250 143.798 C 299.083 142.740,308.608 137.243,318.417 131.582 C 337.701 120.451,339.348 119.501,346.000 115.666 C 348.429 114.266,351.654 112.406,353.167 111.533 C 363.302 105.684,368.942 102.459,370.129 101.833 C 371.717 100.996,371.691 101.075,370.837 99.667 C 370.476 99.071,370.055 98.358,369.901 98.083 C 369.747 97.808,369.358 97.171,369.036 96.667 C 368.713 96.162,368.286 95.487,368.086 95.167 C 367.886 94.846,367.235 93.833,366.641 92.917 C 366.046 92.000,365.270 90.800,364.916 90.250 C 364.562 89.700,364.230 89.212,364.178 89.167 C 364.126 89.121,364.008 88.954,363.917 88.795 C 363.658 88.349,359.548 82.469,359.167 82.000 C 358.980 81.771,358.322 80.907,357.705 80.081 C 354.283 75.500,349.373 69.651,344.835 64.751 C 342.004 61.694,335.559 55.371,332.602 52.749 C 331.878 52.108,331.166 51.468,331.018 51.327 C 330.871 51.185,330.262 50.660,329.667 50.160 C 329.071 49.659,328.508 49.170,328.417 49.073 C 327.933 48.560,323.054 44.611,320.913 43.000 C 320.365 42.588,319.879 42.208,319.833 42.156 C 319.597 41.887,311.787 36.361,309.917 35.139 C 305.949 32.547,305.746 32.418,302.333 30.335 C 301.067 29.562,298.139 27.856,297.671 27.619 C 297.348 27.456,296.858 27.187,296.583 27.022 C 296.308 26.857,295.708 26.509,295.250 26.248 C 294.145 25.621,285.090 21.072,283.500 20.346 C 282.813 20.032,281.875 19.598,281.417 19.381 C 280.958 19.163,278.858 18.270,276.750 17.395 C 274.642 16.520,272.767 15.741,272.583 15.664 C 272.400 15.587,271.725 15.328,271.083 15.087 C 270.442 14.847,269.654 14.548,269.333 14.422 C 267.762 13.806,266.208 13.273,261.917 11.877 C 259.350 11.043,256.575 10.164,255.750 9.926 C 254.925 9.687,253.875 9.381,253.417 9.246 C 252.272 8.908,250.040 8.317,249.333 8.166 C 249.012 8.097,247.813 7.803,246.667 7.512 C 245.521 7.221,244.246 6.914,243.833 6.828 C 243.421 6.743,242.558 6.557,241.917 6.416 C 239.283 5.837,234.087 4.851,231.833 4.504 C 231.146 4.398,229.946 4.208,229.167 4.081 C 228.387 3.955,227.037 3.766,226.167 3.662 C 225.296 3.559,223.833 3.372,222.917 3.249 C 222.000 3.125,220.275 2.944,219.083 2.845 C 217.892 2.747,215.679 2.558,214.167 2.425 C 212.654 2.293,209.879 2.141,208.000 2.089 C 206.121 2.036,203.871 1.964,203.000 1.928 C 202.129 1.892,201.117 1.913,200.750 1.973 " stroke="none" fill="#54ccec" fill-rule="evenodd"></path><path id="path3" d="M196.148 1.907 C 196.107 1.948,194.089 2.059,191.662 2.153 C 186.087 2.371,180.942 2.749,176.750 3.249 C 175.650 3.381,174.037 3.572,173.167 3.676 C 172.296 3.779,170.908 3.970,170.083 4.101 C 169.258 4.232,168.058 4.420,167.417 4.518 C 165.884 4.753,163.865 5.118,162.417 5.423 C 161.775 5.558,160.688 5.779,160.000 5.913 C 158.170 6.271,154.855 6.983,154.174 7.164 C 153.849 7.251,153.133 7.429,152.583 7.560 C 152.033 7.692,150.983 7.965,150.250 8.168 C 149.517 8.371,148.386 8.669,147.737 8.830 C 147.089 8.992,146.301 9.206,145.987 9.307 C 145.674 9.407,144.742 9.689,143.917 9.933 C 141.152 10.751,139.754 11.186,139.167 11.410 C 138.846 11.532,138.208 11.748,137.750 11.889 C 137.292 12.030,136.692 12.225,136.417 12.322 C 134.685 12.935,130.578 14.435,129.667 14.788 C 129.071 15.018,128.292 15.313,127.937 15.443 C 127.050 15.768,120.377 18.574,119.111 19.155 C 114.088 21.460,107.970 24.526,104.917 26.268 C 104.275 26.634,103.638 26.989,103.500 27.057 C 103.362 27.124,103.100 27.271,102.917 27.382 C 102.733 27.493,101.547 28.183,100.281 28.917 C 97.582 30.480,97.720 30.399,96.333 31.240 C 95.737 31.601,95.212 31.945,95.167 32.004 C 95.121 32.064,94.708 32.329,94.250 32.593 C 92.186 33.785,83.345 39.856,81.609 41.273 C 81.439 41.412,80.862 41.847,80.327 42.241 C 77.113 44.607,69.049 51.285,67.333 53.000 C 67.287 53.046,66.350 53.905,65.250 54.909 C 63.110 56.862,57.104 62.822,55.327 64.754 C 52.885 67.410,52.368 67.980,51.333 69.159 C 50.737 69.838,50.137 70.516,50.000 70.665 C 48.973 71.784,45.601 75.916,43.335 78.834 C 43.014 79.246,42.696 79.608,42.626 79.639 C 42.557 79.669,42.500 79.774,42.500 79.871 C 42.500 79.967,42.398 80.130,42.274 80.232 C 41.428 80.925,32.543 93.928,30.066 98.098 C 28.422 100.866,28.411 100.930,29.458 101.567 C 30.605 102.264,37.888 106.519,45.667 111.036 C 49.379 113.192,54.929 116.417,58.000 118.203 C 65.707 122.685,86.395 134.669,94.250 139.201 C 97.825 141.264,102.475 143.948,104.583 145.166 C 109.871 148.221,139.188 165.097,150.833 171.790 C 191.411 195.112,198.996 199.481,199.412 199.771 C 199.593 199.897,199.818 200.000,199.912 200.000 C 200.029 200.000,200.083 168.629,200.083 100.917 L 200.083 1.833 198.153 1.833 C 197.091 1.833,196.189 1.867,196.148 1.907 M200.833 398.000 C 200.833 398.101,201.528 398.167,202.583 398.167 C 203.639 398.167,204.333 398.101,204.333 398.000 C 204.333 397.899,203.639 397.833,202.583 397.833 C 201.528 397.833,200.833 397.899,200.833 398.000 " stroke="none" fill="#9cb4b4" fill-rule="evenodd"></path><path id="path4" d="M27.554 102.625 C 26.697 104.092,26.214 104.958,24.882 107.417 C 24.091 108.876,21.042 115.010,20.117 117.000 C 18.673 120.108,18.500 120.491,18.500 120.572 C 18.500 120.619,18.305 121.091,18.066 121.620 C 17.392 123.116,15.863 126.798,15.435 127.954 C 15.034 129.038,14.528 130.381,14.160 131.333 C 13.488 133.076,11.639 138.549,10.726 141.500 C 10.485 142.279,10.193 143.217,10.078 143.583 C 9.962 143.950,9.776 144.587,9.663 145.000 C 9.551 145.412,9.365 146.087,9.250 146.500 C 9.135 146.912,8.962 147.550,8.865 147.917 C 8.769 148.283,8.580 148.996,8.447 149.500 C 7.646 152.516,7.020 155.093,6.602 157.083 C 6.467 157.725,6.232 158.813,6.080 159.500 C 5.927 160.188,5.741 161.125,5.666 161.583 C 5.591 162.042,5.373 163.242,5.183 164.250 C 4.992 165.258,4.720 166.833,4.577 167.750 C 4.434 168.667,4.213 170.054,4.086 170.833 C 3.958 171.612,3.777 172.887,3.683 173.667 C 3.589 174.446,3.401 175.983,3.265 177.083 C 3.129 178.183,2.936 180.096,2.835 181.333 C 2.734 182.571,2.569 184.408,2.469 185.417 C 2.212 188.019,2.095 192.788,2.115 199.917 C 2.125 203.308,2.135 206.972,2.137 208.059 C 2.139 209.145,2.260 211.470,2.406 213.225 C 2.551 214.981,2.751 217.392,2.848 218.583 C 2.946 219.775,3.129 221.537,3.254 222.500 C 3.380 223.463,3.566 224.963,3.667 225.833 C 3.768 226.704,3.956 228.054,4.083 228.833 C 4.211 229.612,4.400 230.850,4.504 231.583 C 4.692 232.915,4.966 234.473,5.426 236.833 C 5.559 237.521,5.784 238.683,5.926 239.417 C 6.067 240.150,6.248 241.012,6.327 241.333 C 6.406 241.654,6.556 242.329,6.660 242.833 C 7.049 244.714,7.371 246.042,8.782 251.583 C 9.765 255.443,12.984 265.597,14.198 268.667 C 14.470 269.354,14.865 270.367,15.076 270.917 C 15.750 272.671,18.190 278.539,18.772 279.804 C 19.081 280.475,19.333 281.052,19.333 281.086 C 19.333 281.119,19.637 281.808,20.008 282.615 C 20.379 283.423,20.922 284.608,21.214 285.250 C 23.535 290.345,27.483 297.647,28.333 298.416 C 28.825 298.861,25.193 300.913,82.917 267.584 C 86.125 265.732,91.712 262.507,95.333 260.417 C 115.253 248.923,140.250 234.481,161.167 222.380 C 168.454 218.164,179.517 211.769,185.750 208.169 C 200.065 199.902,199.417 200.290,199.417 200.008 C 199.417 199.766,196.167 197.877,158.833 176.419 C 114.925 151.182,76.969 129.281,58.750 118.669 C 56.275 117.228,49.112 113.063,42.833 109.415 C 36.554 105.767,30.829 102.418,30.112 101.974 C 28.445 100.943,28.553 100.915,27.554 102.625 " stroke="none" fill="#1c242c" fill-rule="evenodd"></path><path id="path5" d="M397.717 188.500 C 397.717 189.004,397.748 189.210,397.786 188.958 C 397.824 188.706,397.824 188.294,397.786 188.042 C 397.748 187.790,397.717 187.996,397.717 188.500 M397.836 194.958 C 397.837 195.577,397.911 196.196,398.000 196.333 C 398.112 196.506,398.162 196.158,398.164 195.208 C 398.166 194.401,398.098 193.833,398.000 193.833 C 397.905 193.833,397.834 194.318,397.836 194.958 M198.250 200.990 C 197.517 201.430,190.617 205.427,182.917 209.872 C 175.217 214.317,162.954 221.402,155.667 225.616 C 148.379 229.831,141.442 233.842,140.250 234.530 C 139.058 235.218,131.071 239.832,122.500 244.782 C 74.193 272.684,39.235 292.846,33.833 295.920 C 32.412 296.728,30.613 297.723,29.833 298.129 C 28.180 298.992,28.063 299.275,28.996 300.167 C 29.044 300.212,29.227 300.512,29.404 300.833 C 29.745 301.455,33.676 307.779,34.164 308.492 C 34.324 308.726,35.006 309.742,35.680 310.750 C 36.822 312.458,38.616 315.038,39.331 316.000 C 39.501 316.229,40.381 317.429,41.285 318.667 C 42.190 319.904,43.052 321.067,43.202 321.250 C 43.351 321.433,44.130 322.408,44.933 323.417 C 46.715 325.654,48.531 327.887,48.660 328.000 C 48.712 328.046,49.392 328.831,50.169 329.745 C 50.947 330.659,51.890 331.747,52.266 332.162 C 54.600 334.744,55.197 335.389,56.406 336.639 C 60.380 340.745,64.357 344.633,66.834 346.833 C 67.608 347.521,68.656 348.464,69.162 348.930 C 69.669 349.395,71.096 350.618,72.333 351.649 C 73.571 352.679,74.733 353.650,74.917 353.808 C 75.555 354.357,78.423 356.610,79.417 357.344 C 79.967 357.749,80.454 358.126,80.500 358.181 C 80.850 358.600,91.282 365.899,91.948 366.191 C 92.023 366.224,92.734 366.679,93.530 367.202 C 94.325 367.725,95.225 368.289,95.530 368.455 C 95.834 368.622,96.500 369.018,97.010 369.337 C 97.519 369.656,98.082 370.008,98.260 370.119 C 98.610 370.338,99.758 370.998,101.083 371.743 C 101.542 372.001,101.992 372.268,102.083 372.337 C 102.175 372.405,102.850 372.786,103.583 373.182 C 108.592 375.890,116.216 379.675,119.130 380.901 C 119.706 381.144,120.664 381.565,121.260 381.838 C 121.855 382.110,122.381 382.333,122.430 382.333 C 122.479 382.333,122.833 382.474,123.217 382.645 C 124.059 383.020,127.066 384.211,129.583 385.167 C 130.592 385.549,131.679 385.966,132.000 386.092 C 132.792 386.404,136.962 387.826,137.583 387.996 C 137.858 388.071,138.908 388.402,139.917 388.732 C 140.925 389.061,142.050 389.415,142.417 389.518 C 142.783 389.621,143.280 389.777,143.520 389.864 C 144.001 390.038,145.593 390.479,149.500 391.518 C 152.158 392.225,152.617 392.337,154.138 392.648 C 154.626 392.748,155.087 392.867,155.162 392.914 C 155.237 392.960,156.075 393.151,157.024 393.338 C 157.973 393.525,159.012 393.745,159.333 393.827 C 159.877 393.966,161.757 394.346,163.500 394.669 C 164.171 394.794,165.849 395.088,168.250 395.501 C 170.243 395.844,172.363 396.159,173.833 396.331 C 174.704 396.433,176.242 396.623,177.250 396.753 C 182.456 397.422,187.866 397.824,197.583 398.265 L 199.917 398.371 199.872 302.227 C 199.848 249.348,199.773 204.757,199.706 203.137 L 199.583 200.190 198.250 200.990 M397.938 203.875 C 397.774 204.487,397.820 206.472,398.000 206.583 C 398.107 206.649,398.167 206.113,398.167 205.093 C 398.167 203.470,398.117 203.207,397.938 203.875 M397.712 211.667 C 397.712 212.079,397.745 212.248,397.784 212.042 C 397.824 211.835,397.824 211.498,397.784 211.292 C 397.745 211.085,397.712 211.254,397.712 211.667 " stroke="none" fill="#eba30c" fill-rule="evenodd"></path></g></svg>