<svg id="svg" version="1.1" xmlns="http://www.w3.org/2000/svg" xmlns:xlink="http://www.w3.org/1999/xlink" width="400" height="400" viewBox="0, 0, 400,400"><g id="svgg"><path id="path0" d="M197.701 34.120 C 196.667 34.761,194.825 38.290,176.153 75.394 C 167.868 91.857,160.947 105.326,160.773 105.326 C 160.149 105.326,153.960 103.322,125.431 93.879 C 82.611 79.706,84.206 80.141,82.175 82.102 C 80.132 84.074,79.906 83.233,93.733 124.981 C 103.619 154.831,105.326 160.096,105.326 160.728 C 105.326 160.972,97.666 164.972,86.497 170.560 C 36.006 195.821,33.811 197.026,33.537 199.629 C 33.197 202.851,32.477 202.437,77.554 224.969 C 92.911 232.645,105.519 238.965,105.572 239.013 C 105.624 239.061,100.469 254.812,94.115 274.014 C 79.234 318.986,80.127 315.748,82.048 317.755 C 84.199 320.002,82.461 320.472,128.660 305.149 C 146.032 299.388,160.446 294.674,160.692 294.674 C 160.985 294.674,165.229 302.850,172.957 318.305 C 197.578 367.535,197.367 367.168,200.646 366.553 C 203.031 366.105,203.121 365.944,222.728 327.008 C 234.492 303.648,239.148 294.676,239.508 294.675 C 239.782 294.674,242.820 295.630,246.259 296.799 C 268.985 304.521,303.142 315.655,311.641 318.112 C 316.286 319.454,318.336 318.864,318.867 316.034 C 319.234 314.080,312.569 293.081,295.484 242.362 C 294.725 240.109,294.654 239.653,295.008 239.309 C 295.759 238.579,301.992 235.359,327.682 222.427 C 367.868 202.199,366.692 202.893,366.692 199.412 C 366.692 197.189,368.251 198.056,326.435 177.055 L 294.430 160.982 304.315 131.129 C 320.203 83.147,319.663 84.995,318.414 82.947 C 317.769 81.889,316.156 81.020,314.836 81.020 C 313.762 81.020,299.740 85.538,264.867 97.122 C 250.701 101.828,239.069 105.632,239.018 105.577 C 238.967 105.522,233.188 93.998,226.176 79.970 C 206.662 40.931,203.293 34.506,202.030 33.931 C 200.978 33.452,198.611 33.555,197.701 34.120 M206.893 74.569 C 209.995 79.850,213.308 85.454,214.255 87.022 C 215.202 88.590,217.505 92.506,219.372 95.724 C 221.239 98.942,223.688 103.094,224.815 104.949 C 227.863 109.970,228.662 109.127,217.271 112.913 C 211.916 114.692,207.392 116.093,207.218 116.026 C 207.044 115.958,205.417 112.165,203.603 107.596 C 200.553 99.917,200.269 99.332,199.849 99.851 C 199.599 100.160,197.995 103.881,196.283 108.121 C 193.235 115.674,193.155 115.829,192.315 115.829 C 191.546 115.829,175.465 110.626,173.583 109.768 C 172.564 109.304,171.003 112.121,189.934 80.270 C 192.681 75.649,195.930 70.113,197.155 67.967 C 198.380 65.821,199.521 63.969,199.691 63.850 C 200.250 63.460,201.193 64.862,206.893 74.569 M111.328 105.286 C 126.253 109.060,155.293 116.508,155.382 116.584 C 155.640 116.808,145.897 135.634,145.522 135.634 C 145.395 135.634,141.623 134.068,137.141 132.153 C 132.659 130.239,128.920 128.744,128.832 128.832 C 128.744 128.920,130.239 132.659,132.153 137.141 C 134.068 141.623,135.634 145.395,135.634 145.522 C 135.634 146.130,116.759 155.598,116.601 155.069 C 116.538 154.860,116.396 154.419,116.286 154.089 C 116.176 153.758,113.256 142.416,109.798 128.882 C 106.341 115.349,103.434 104.026,103.339 103.721 C 103.204 103.288,103.288 103.203,103.721 103.335 C 104.026 103.428,107.449 104.306,111.328 105.286 M296.774 103.569 C 296.774 103.874,289.914 130.840,288.387 136.534 C 288.055 137.772,286.885 142.318,285.786 146.636 C 284.687 150.955,283.675 154.668,283.537 154.888 C 283.250 155.347,265.060 146.429,264.776 145.691 C 264.689 145.464,265.459 143.277,266.487 140.831 C 270.561 131.137,271.275 129.189,270.792 129.083 C 270.544 129.028,266.817 130.499,262.510 132.351 L 254.681 135.719 254.127 135.001 C 253.209 133.812,245.161 117.701,245.161 117.053 C 245.161 116.610,245.457 116.376,246.287 116.163 C 246.905 116.005,253.556 114.304,261.065 112.385 C 282.385 106.936,289.770 105.036,293.173 104.127 C 296.955 103.116,296.774 103.144,296.774 103.569 M238.324 127.757 C 245.010 139.001,244.945 138.884,244.757 139.373 C 244.535 139.951,221.961 150.038,220.888 150.038 C 220.532 150.038,210.882 126.048,211.056 125.594 C 211.137 125.384,212.058 124.983,213.104 124.703 C 217.274 123.587,233.020 119.470,233.191 119.450 C 233.291 119.439,235.601 123.177,238.324 127.757 M177.709 122.280 C 188.412 125.012,189.457 125.336,189.235 125.849 C 189.155 126.032,186.976 131.380,184.392 137.734 C 181.808 144.089,179.623 149.456,179.537 149.662 C 179.297 150.238,179.531 150.326,167.976 145.351 C 161.988 142.774,156.577 140.456,155.951 140.200 C 155.325 139.943,154.873 139.579,154.945 139.390 C 155.215 138.686,165.418 121.643,166.131 120.705 C 167.080 119.456,166.156 119.331,177.709 122.280 M141.387 158.740 C 142.198 160.638,143.592 163.878,144.486 165.941 C 147.947 173.928,149.757 178.322,149.821 178.892 C 149.892 179.530,125.843 189.567,125.366 189.098 C 125.121 188.857,119.730 167.792,119.730 167.077 C 119.730 166.689,126.548 162.466,137.734 155.926 C 139.639 154.812,139.745 154.894,141.387 158.740 M262.351 155.928 C 264.438 156.981,277.380 164.751,278.995 165.921 C 280.607 167.090,280.702 166.182,277.729 177.944 C 274.543 190.543,274.886 189.417,274.304 189.199 C 271.715 188.229,250.358 179.600,250.187 179.455 C 249.894 179.206,260.247 155.139,260.647 155.139 C 260.723 155.139,261.490 155.494,262.351 155.928 M109.872 173.761 C 110.643 175.163,116.153 192.540,115.934 192.876 C 115.794 193.090,112.197 194.657,107.941 196.358 C 100.670 199.265,99.294 199.919,99.669 200.294 C 99.754 200.379,103.458 201.916,107.901 203.710 C 112.609 205.611,116.005 207.145,116.041 207.387 C 116.075 207.615,114.657 212.123,112.890 217.404 C 109.082 228.787,110.258 228.020,103.156 223.754 C 100.306 222.042,93.788 218.181,88.672 215.173 C 70.583 204.538,63.615 200.303,63.713 200.003 C 63.827 199.657,67.032 197.688,77.269 191.675 C 85.988 186.554,91.612 183.210,93.023 182.309 C 95.269 180.875,107.149 174.004,108.087 173.598 C 109.206 173.112,109.532 173.142,109.872 173.761 M299.188 177.629 C 303.224 179.990,307.337 182.426,308.327 183.043 C 310.180 184.198,311.806 185.160,327.307 194.278 C 332.299 197.215,336.384 199.730,336.384 199.869 C 336.384 200.448,330.052 204.323,309.077 216.577 C 305.529 218.650,301.815 220.846,300.825 221.457 C 298.071 223.154,292.538 226.408,291.468 226.960 L 290.512 227.452 287.322 217.842 C 285.568 212.556,284.175 207.943,284.227 207.591 C 284.316 206.988,293.488 202.909,298.627 201.187 C 299.398 200.929,300.191 200.522,300.389 200.284 C 300.813 199.773,301.378 200.040,291.223 195.961 C 285.036 193.477,284.033 192.987,284.108 192.483 C 284.224 191.700,289.868 174.345,290.236 173.639 C 290.696 172.756,291.367 173.055,299.188 177.629 M136.915 215.341 C 142.895 217.754,148.293 219.935,148.912 220.187 C 150.334 220.767,150.733 219.440,145.503 231.529 C 143.010 237.294,140.696 242.652,140.362 243.436 C 140.028 244.220,139.566 244.861,139.336 244.861 C 138.810 244.861,136.300 243.419,120.583 234.084 L 119.486 233.432 122.303 222.417 C 123.852 216.359,125.123 211.302,125.126 211.178 C 125.139 210.659,126.558 211.161,136.915 215.341 M274.792 211.328 C 275.140 211.767,280.270 231.864,280.270 232.787 C 280.270 233.617,272.025 238.843,262.076 244.320 L 260.537 245.168 258.809 241.338 C 256.148 235.440,249.907 220.808,250.016 220.723 C 250.129 220.634,256.170 218.160,266.467 213.985 C 274.444 210.751,274.357 210.778,274.792 211.328 M126.534 249.561 C 131.539 252.146,135.634 254.361,135.634 254.483 C 135.634 254.605,134.081 258.318,132.183 262.735 C 130.285 267.152,128.732 270.811,128.732 270.867 C 128.732 271.335,131.113 270.512,137.635 267.787 C 141.822 266.038,145.441 264.681,145.676 264.771 C 146.423 265.057,155.353 283.246,154.889 283.536 C 154.670 283.674,151.159 284.628,147.088 285.656 C 143.016 286.685,138.740 287.783,137.584 288.098 C 133.430 289.228,103.846 296.774,103.569 296.774 C 103.413 296.774,104.811 290.799,106.674 283.496 C 108.537 276.193,111.432 264.816,113.106 258.215 C 116.347 245.437,116.518 244.861,117.075 244.861 C 117.272 244.861,121.529 246.976,126.534 249.561 M286.881 257.614 C 288.650 264.546,291.609 276.138,293.457 283.375 C 295.304 290.612,296.754 296.595,296.678 296.671 C 296.601 296.747,289.064 294.895,279.928 292.555 C 243.339 283.183,245.320 283.726,245.220 283.050 C 245.122 282.394,253.992 264.366,254.413 264.366 C 254.549 264.366,256.540 265.191,258.838 266.200 C 264.421 268.650,271.025 271.311,271.168 271.168 C 271.311 271.025,268.650 264.421,266.200 258.838 C 265.191 256.540,264.366 254.549,264.366 254.413 C 264.366 254.072,282.718 244.871,283.242 244.949 C 283.535 244.992,284.644 248.854,286.881 257.614 M184.267 261.975 C 186.887 268.489,189.034 274.036,189.039 274.303 C 189.048 274.858,187.480 275.335,176.347 278.163 C 172.416 279.162,168.576 280.011,167.816 280.049 L 166.432 280.120 163.111 274.558 C 155.439 261.709,154.956 260.828,155.360 260.424 C 155.732 260.052,178.931 250.001,179.249 250.074 C 179.389 250.106,181.647 255.462,184.267 261.975 M229.205 253.522 C 233.772 255.480,239.227 257.857,241.327 258.804 L 245.145 260.527 244.666 261.471 C 244.403 261.991,243.349 263.833,242.324 265.566 C 241.299 267.299,239.675 270.068,238.716 271.718 C 233.788 280.196,233.607 280.418,231.859 280.140 C 229.362 279.742,211.692 275.063,211.284 274.691 C 210.930 274.368,211.577 272.547,215.454 262.961 C 217.979 256.719,220.189 251.242,220.365 250.788 C 220.765 249.762,219.571 249.393,229.205 253.522 M193.444 284.696 C 193.764 285.644,198.577 297.790,199.225 299.283 C 199.976 301.016,200.439 300.861,201.187 298.627 C 202.931 293.416,206.975 284.316,207.585 284.227 C 207.940 284.175,212.562 285.569,217.854 287.326 L 227.476 290.520 226.612 292.072 C 225.693 293.722,222.451 299.228,220.928 301.725 C 220.425 302.551,217.553 307.412,214.545 312.528 C 204.535 329.557,200.415 336.384,200.148 336.384 C 199.870 336.384,196.649 331.286,192.945 324.981 C 191.732 322.918,189.298 318.800,187.534 315.829 C 171.858 289.422,172.632 290.793,173.190 290.432 C 173.978 289.921,191.612 284.195,192.433 284.183 C 192.967 284.175,193.331 284.360,193.444 284.696 " stroke="none" fill="#fcfbfb" fill-rule="evenodd"></path><path id="path1" d="M181.088 2.694 C 139.337 7.223,104.057 22.035,72.468 48.298 C 66.674 53.115,53.115 66.674,48.298 72.468 C 42.167 79.842,40.092 82.626,34.228 91.348 C 27.865 100.812,18.352 119.392,14.704 129.482 C -16.005 214.420,10.297 305.448,80.870 358.477 C 87.325 363.327,100.665 372.093,101.591 372.093 C 101.687 372.093,102.204 372.428,102.740 372.837 C 104.490 374.171,120.308 381.674,127.076 384.380 C 174.120 403.187,229.262 402.784,275.769 383.293 C 283.983 379.851,299.422 372.096,302.175 370.030 C 302.753 369.597,303.682 368.996,304.241 368.695 C 307.488 366.945,315.139 361.629,322.431 356.056 C 331.232 349.330,350.286 330.273,356.188 322.295 C 356.766 321.513,358.447 319.266,359.922 317.301 C 362.399 314.002,367.109 307.011,368.819 304.093 C 369.217 303.415,370.274 301.659,371.168 300.192 C 395.040 261.029,403.851 208.216,394.411 160.879 C 392.664 152.122,388.491 137.003,386.944 133.833 C 386.743 133.421,386.488 132.704,386.377 132.240 C 385.476 128.462,377.461 110.992,373.120 103.346 C 340.849 46.503,285.391 9.928,220.705 2.827 C 213.523 2.039,187.921 1.953,181.088 2.694 M202.030 33.931 C 203.293 34.506,206.662 40.931,226.176 79.970 C 233.188 93.998,238.967 105.522,239.018 105.577 C 239.069 105.632,250.701 101.828,264.867 97.122 C 299.740 85.538,313.762 81.020,314.836 81.020 C 316.156 81.020,317.769 81.889,318.414 82.947 C 319.663 84.995,320.203 83.147,304.315 131.129 L 294.430 160.982 326.435 177.055 C 368.251 198.056,366.692 197.189,366.692 199.412 C 366.692 202.893,367.868 202.199,327.682 222.427 C 301.992 235.359,295.759 238.579,295.008 239.309 C 294.654 239.653,294.725 240.109,295.484 242.362 C 312.569 293.081,319.234 314.080,318.867 316.034 C 318.336 318.864,316.286 319.454,311.641 318.112 C 303.142 315.655,268.985 304.521,246.259 296.799 C 242.820 295.630,239.782 294.674,239.508 294.675 C 239.148 294.676,234.492 303.648,222.728 327.008 C 203.121 365.944,203.031 366.105,200.646 366.553 C 197.367 367.168,197.578 367.535,172.957 318.305 C 165.229 302.850,160.985 294.674,160.692 294.674 C 160.446 294.674,146.032 299.388,128.660 305.149 C 82.461 320.472,84.199 320.002,82.048 317.755 C 80.127 315.748,79.234 318.986,94.115 274.014 C 100.469 254.812,105.624 239.061,105.572 239.013 C 105.519 238.965,92.911 232.645,77.554 224.969 C 32.477 202.437,33.197 202.851,33.537 199.629 C 33.811 197.026,36.006 195.821,86.497 170.560 C 97.666 164.972,105.326 160.972,105.326 160.728 C 105.326 160.096,103.619 154.831,93.733 124.981 C 79.906 83.233,80.132 84.074,82.175 82.102 C 84.206 80.141,82.611 79.706,125.431 93.879 C 153.960 103.322,160.149 105.326,160.773 105.326 C 160.947 105.326,167.868 91.857,176.153 75.394 C 194.825 38.290,196.667 34.761,197.701 34.120 C 198.611 33.555,200.978 33.452,202.030 33.931 M199.691 63.850 C 199.521 63.969,198.380 65.821,197.155 67.967 C 195.930 70.113,192.681 75.649,189.934 80.270 C 171.003 112.121,172.564 109.304,173.583 109.768 C 175.465 110.626,191.546 115.829,192.315 115.829 C 193.155 115.829,193.235 115.674,196.283 108.121 C 197.995 103.881,199.599 100.160,199.849 99.851 C 200.269 99.332,200.553 99.917,203.603 107.596 C 205.417 112.165,207.044 115.958,207.218 116.026 C 207.392 116.093,211.916 114.692,217.271 112.913 C 228.662 109.127,227.863 109.970,224.815 104.949 C 223.688 103.094,221.239 98.942,219.372 95.724 C 217.505 92.506,215.202 88.590,214.255 87.022 C 213.308 85.454,209.995 79.850,206.893 74.569 C 201.193 64.862,200.250 63.460,199.691 63.850 M103.339 103.721 C 103.434 104.026,106.341 115.349,109.798 128.882 C 113.256 142.416,116.176 153.758,116.286 154.089 C 116.396 154.419,116.538 154.860,116.601 155.069 C 116.759 155.598,135.634 146.130,135.634 145.522 C 135.634 145.395,134.068 141.623,132.153 137.141 C 130.239 132.659,128.744 128.920,128.832 128.832 C 128.920 128.744,132.659 130.239,137.141 132.153 C 141.623 134.068,145.395 135.634,145.522 135.634 C 145.897 135.634,155.640 116.808,155.382 116.584 C 155.293 116.508,126.253 109.060,111.328 105.286 C 107.449 104.306,104.026 103.428,103.721 103.335 C 103.288 103.203,103.204 103.288,103.339 103.721 M293.173 104.127 C 289.770 105.036,282.385 106.936,261.065 112.385 C 253.556 114.304,246.905 116.005,246.287 116.163 C 245.457 116.376,245.161 116.610,245.161 117.053 C 245.161 117.701,253.209 133.812,254.127 135.001 L 254.681 135.719 262.510 132.351 C 266.817 130.499,270.544 129.028,270.792 129.083 C 271.275 129.189,270.561 131.137,266.487 140.831 C 265.459 143.277,264.689 145.464,264.776 145.691 C 265.060 146.429,283.250 155.347,283.537 154.888 C 283.675 154.668,284.687 150.955,285.786 146.636 C 286.885 142.318,288.055 137.772,288.387 136.534 C 289.914 130.840,296.774 103.874,296.774 103.569 C 296.774 103.144,296.955 103.116,293.173 104.127 M224.006 121.833 C 219.055 123.132,214.149 124.423,213.104 124.703 C 212.058 124.983,211.137 125.384,211.056 125.594 C 210.882 126.048,220.532 150.038,220.888 150.038 C 221.174 150.038,242.287 140.995,243.664 140.284 C 244.967 139.610,245.040 139.146,244.099 137.513 C 240.799 131.787,233.339 119.434,233.191 119.450 C 233.090 119.462,228.957 120.534,224.006 121.833 M166.131 120.705 C 165.418 121.643,155.215 138.686,154.945 139.390 C 154.873 139.579,155.325 139.943,155.951 140.200 C 156.577 140.456,161.988 142.774,167.976 145.351 C 179.531 150.326,179.297 150.238,179.537 149.662 C 179.623 149.456,181.808 144.089,184.392 137.734 C 186.976 131.380,189.155 126.032,189.235 125.849 C 189.457 125.336,188.412 125.012,177.709 122.280 C 166.156 119.331,167.080 119.456,166.131 120.705 M137.734 155.926 C 126.548 162.466,119.730 166.689,119.730 167.077 C 119.730 167.792,125.121 188.857,125.366 189.098 C 125.843 189.567,149.892 179.530,149.821 178.892 C 149.757 178.322,147.947 173.928,144.486 165.941 C 143.592 163.878,142.198 160.638,141.387 158.740 C 139.745 154.894,139.639 154.812,137.734 155.926 M259.701 156.864 C 257.130 162.357,249.997 179.294,250.187 179.455 C 250.358 179.600,271.715 188.229,274.304 189.199 C 274.886 189.417,274.543 190.543,277.729 177.944 C 280.702 166.182,280.607 167.090,278.995 165.921 C 276.311 163.976,261.273 155.139,260.647 155.139 C 260.571 155.139,260.146 155.915,259.701 156.864 M108.087 173.598 C 107.149 174.004,95.269 180.875,93.023 182.309 C 91.612 183.210,85.988 186.554,77.269 191.675 C 67.032 197.688,63.827 199.657,63.713 200.003 C 63.615 200.303,70.583 204.538,88.672 215.173 C 93.788 218.181,100.306 222.042,103.156 223.754 C 110.258 228.020,109.082 228.787,112.890 217.404 C 114.657 212.123,116.075 207.615,116.041 207.387 C 116.005 207.145,112.609 205.611,107.901 203.710 C 103.458 201.916,99.754 200.379,99.669 200.294 C 99.294 199.919,100.670 199.265,107.941 196.358 C 112.197 194.657,115.794 193.090,115.934 192.876 C 116.153 192.540,110.643 175.163,109.872 173.761 C 109.532 173.142,109.206 173.112,108.087 173.598 M290.236 173.639 C 289.868 174.345,284.224 191.700,284.108 192.483 C 284.033 192.987,285.036 193.477,291.223 195.961 C 301.378 200.040,300.813 199.773,300.389 200.284 C 300.191 200.522,299.398 200.929,298.627 201.187 C 293.488 202.909,284.316 206.988,284.227 207.591 C 284.175 207.943,285.568 212.556,287.322 217.842 L 290.512 227.452 291.468 226.960 C 292.538 226.408,298.071 223.154,300.825 221.457 C 301.815 220.846,305.529 218.650,309.077 216.577 C 330.052 204.323,336.384 200.448,336.384 199.869 C 336.384 199.730,332.299 197.215,327.307 194.278 C 311.806 185.160,310.180 184.198,308.327 183.043 C 303.741 180.186,291.779 173.323,291.187 173.210 C 290.757 173.128,290.424 173.278,290.236 173.639 M125.126 211.178 C 125.123 211.302,123.852 216.359,122.303 222.417 L 119.486 233.432 120.583 234.084 C 136.300 243.419,138.810 244.861,139.336 244.861 C 139.566 244.861,140.028 244.220,140.362 243.436 C 140.696 242.652,143.010 237.294,145.503 231.529 C 150.733 219.440,150.334 220.767,148.912 220.187 C 128.989 212.065,125.140 210.607,125.126 211.178 M266.467 213.985 C 256.170 218.160,250.129 220.634,250.016 220.723 C 249.907 220.808,256.148 235.440,258.809 241.338 L 260.537 245.168 262.076 244.320 C 272.025 238.843,280.270 233.617,280.270 232.787 C 280.270 231.864,275.140 211.767,274.792 211.328 C 274.357 210.778,274.444 210.751,266.467 213.985 M116.434 245.536 C 116.278 245.908,114.781 251.613,113.106 258.215 C 111.432 264.816,108.537 276.193,106.674 283.496 C 104.811 290.799,103.413 296.774,103.569 296.774 C 103.846 296.774,133.430 289.228,137.584 288.098 C 138.740 287.783,143.016 286.685,147.088 285.656 C 151.159 284.628,154.670 283.674,154.889 283.536 C 155.353 283.246,146.423 265.057,145.676 264.771 C 145.441 264.681,141.822 266.038,137.635 267.787 C 131.113 270.512,128.732 271.335,128.732 270.867 C 128.732 270.811,130.285 267.152,132.183 262.735 C 134.081 258.318,135.634 254.605,135.634 254.483 C 135.634 254.217,117.588 244.861,117.075 244.861 C 116.878 244.861,116.589 245.165,116.434 245.536 M273.593 249.526 C 268.518 252.078,264.366 254.277,264.366 254.413 C 264.366 254.549,265.191 256.540,266.200 258.838 C 268.650 264.421,271.311 271.025,271.168 271.168 C 271.025 271.311,264.421 268.650,258.838 266.200 C 256.540 265.191,254.549 264.366,254.413 264.366 C 253.992 264.366,245.122 282.394,245.220 283.050 C 245.320 283.726,243.339 283.183,279.928 292.555 C 289.064 294.895,296.601 296.747,296.678 296.671 C 296.754 296.595,295.304 290.612,293.457 283.375 C 291.609 276.138,288.650 264.546,286.881 257.614 C 284.644 248.854,283.535 244.992,283.242 244.949 C 283.010 244.914,278.668 246.974,273.593 249.526 M167.313 255.084 C 160.888 257.871,155.509 260.275,155.360 260.424 C 154.956 260.828,155.439 261.709,163.111 274.558 L 166.432 280.120 167.816 280.049 C 168.576 280.011,172.416 279.162,176.347 278.163 C 187.480 275.335,189.048 274.858,189.039 274.303 C 189.027 273.596,179.551 250.143,179.249 250.074 C 179.109 250.042,173.738 252.296,167.313 255.084 M220.365 250.788 C 220.189 251.242,217.979 256.719,215.454 262.961 C 211.577 272.547,210.930 274.368,211.284 274.691 C 211.692 275.063,229.362 279.742,231.859 280.140 C 233.607 280.418,233.788 280.196,238.716 271.718 C 239.675 270.068,241.299 267.299,242.324 265.566 C 243.349 263.833,244.403 261.991,244.666 261.471 L 245.145 260.527 241.327 258.804 C 237.373 257.020,220.982 249.962,220.794 249.962 C 220.735 249.962,220.542 250.334,220.365 250.788 M182.596 287.183 C 177.644 288.826,173.412 290.288,173.190 290.432 C 172.632 290.793,171.858 289.422,187.534 315.829 C 189.298 318.800,191.732 322.918,192.945 324.981 C 196.649 331.286,199.870 336.384,200.148 336.384 C 200.415 336.384,204.535 329.557,214.545 312.528 C 217.553 307.412,220.425 302.551,220.928 301.725 C 222.451 299.228,225.693 293.722,226.612 292.072 L 227.476 290.520 217.854 287.326 C 212.562 285.569,207.940 284.175,207.585 284.227 C 206.975 284.316,202.931 293.416,201.187 298.627 C 200.439 300.861,199.976 301.016,199.225 299.283 C 198.577 297.790,193.764 285.644,193.444 284.696 C 193.143 283.804,191.954 284.077,182.596 287.183 " stroke="none" fill="#eca40c" fill-rule="evenodd"></path></g></svg>