<svg id="svg" version="1.1" xmlns="http://www.w3.org/2000/svg" xmlns:xlink="http://www.w3.org/1999/xlink" width="400" height="400" viewBox="0, 0, 400,400"><g id="svgg"><path id="path0" d="M160.090 81.970 C 103.899 84.169,55.745 128.279,48.617 184.082 C 44.219 218.513,53.171 249.356,75.307 276.037 C 103.826 310.411,149.537 325.436,193.572 314.911 C 200.101 313.350,200.058 313.352,203.866 314.342 C 244.510 324.906,288.236 313.297,317.476 284.179 C 379.963 221.952,355.476 116.291,272.018 88.028 C 250.376 80.699,228.645 79.905,204.803 85.573 L 199.704 86.785 196.401 85.869 C 185.219 82.767,173.064 81.462,160.090 81.970 M170.517 90.920 C 230.823 94.124,276.260 142.954,274.775 202.964 C 273.011 274.230,204.564 324.544,135.784 305.132 C 93.489 293.195,62.011 256.091,57.008 212.278 C 56.265 205.772,56.774 187.895,57.874 181.845 C 67.420 129.358,110.697 92.124,163.841 90.674 C 164.584 90.654,167.588 90.764,170.517 90.920 M244.711 91.243 C 315.899 97.500,361.531 170.578,336.700 238.560 C 335.011 243.182,330.791 251.915,328.166 256.219 C 327.295 257.647,326.206 259.475,325.745 260.282 C 324.620 262.251,318.629 269.670,314.563 274.129 C 290.771 300.220,254.232 313.338,219.245 308.349 C 215.112 307.759,215.119 307.659,219.454 305.359 C 221.516 304.266,225.108 302.235,227.436 300.848 C 229.837 299.418,232.154 298.251,232.789 298.155 C 233.405 298.061,236.002 297.775,238.560 297.520 C 268.328 294.550,291.816 282.118,310.018 259.697 C 329.104 236.188,335.551 203.464,327.035 173.318 C 315.916 133.954,278.831 104.903,236.459 102.362 C 232.080 102.099,231.900 102.042,228.419 99.801 C 227.312 99.088,224.584 97.523,222.356 96.322 C 214.413 92.041,214.616 92.411,219.805 91.670 C 226.668 90.691,236.506 90.522,244.711 91.243 " stroke="none" fill="#fbfbfb" fill-rule="evenodd"></path><path id="path1" d="M183.646 2.402 C 182.573 2.548,180.143 2.812,178.245 2.990 C 176.347 3.167,173.511 3.518,171.943 3.769 C 161.308 5.477,161.469 5.447,154.989 6.941 C 150.657 7.940,143.807 9.824,140.885 10.821 C 139.400 11.327,137.621 11.862,136.932 12.009 C 136.243 12.156,134.801 12.675,133.728 13.161 C 132.654 13.648,131.711 13.982,131.632 13.903 C 131.553 13.824,131.057 13.982,130.530 14.255 C 130.002 14.528,129.011 14.933,128.326 15.156 C 126.475 15.759,121.823 17.714,117.695 19.625 C 115.686 20.554,113.735 21.447,113.360 21.609 C 112.985 21.771,112.408 22.061,112.078 22.252 C 110.852 22.963,110.542 23.123,108.988 23.846 C 108.113 24.253,107.033 24.845,106.587 25.162 C 106.141 25.478,104.260 26.517,102.406 27.470 C 100.552 28.423,98.780 29.440,98.469 29.730 C 98.158 30.020,97.230 30.598,96.408 31.015 C 95.586 31.432,94.030 32.377,92.952 33.115 C 91.873 33.854,90.581 34.670,90.080 34.929 C 89.579 35.188,88.558 35.909,87.812 36.530 C 87.066 37.151,85.608 38.200,84.573 38.860 C 83.538 39.520,81.353 41.140,79.719 42.461 C 78.084 43.781,76.459 45.057,76.108 45.297 C 75.756 45.537,74.770 46.347,73.917 47.098 C 73.063 47.848,71.655 49.070,70.788 49.812 C 64.846 54.903,53.356 66.307,49.962 70.482 C 48.972 71.700,47.616 73.321,46.948 74.083 C 46.281 74.845,45.538 75.758,45.298 76.112 C 45.058 76.466,43.837 78.019,42.584 79.563 C 41.332 81.107,39.684 83.316,38.922 84.471 C 38.160 85.626,37.250 86.942,36.901 87.395 C 35.561 89.133,31.713 95.042,30.988 96.474 C 30.570 97.299,30.125 98.042,29.997 98.125 C 29.641 98.355,26.515 103.879,26.261 104.726 C 26.137 105.139,25.864 105.679,25.655 105.926 C 25.445 106.174,24.857 107.187,24.348 108.177 C 23.526 109.778,23.023 110.707,22.160 112.228 C 22.019 112.476,21.779 112.966,21.626 113.318 C 21.472 113.670,20.578 115.628,19.637 117.669 C 17.502 122.303,15.462 127.255,14.090 131.133 C 13.451 132.940,12.919 134.392,12.470 135.559 C 10.165 141.553,6.106 157.366,4.826 165.341 C 3.155 175.754,2.941 177.547,2.370 185.896 C 1.974 191.674,2.197 216.053,2.676 219.355 C 2.855 220.593,3.127 222.753,3.280 224.156 C 4.065 231.347,5.454 239.057,7.254 246.212 C 7.753 248.192,8.404 250.893,8.702 252.213 C 9.000 253.533,9.536 255.424,9.892 256.414 C 10.249 257.404,10.794 259.092,11.103 260.165 C 12.455 264.854,15.014 271.852,17.288 277.081 C 19.885 283.052,25.081 293.673,26.231 295.362 C 26.658 295.988,27.007 296.621,27.007 296.768 C 27.007 297.042,27.940 298.657,30.219 302.326 C 30.937 303.481,31.689 304.696,31.891 305.026 C 32.092 305.356,32.561 306.056,32.932 306.582 C 33.304 307.107,33.608 307.661,33.608 307.814 C 33.608 307.966,34.047 308.688,34.584 309.418 C 35.120 310.147,35.694 310.954,35.859 311.211 C 37.473 313.718,38.866 315.686,40.787 318.174 C 42.038 319.793,43.372 321.549,43.753 322.075 C 51.276 332.462,68.133 349.054,80.539 358.284 C 89.076 364.636,104.442 374.406,106.827 374.999 C 107.239 375.102,107.644 375.276,107.727 375.387 C 108.004 375.756,112.347 378.020,115.529 379.453 C 117.262 380.233,119.692 381.347,120.930 381.927 C 122.168 382.508,124.194 383.353,125.431 383.805 C 126.669 384.256,129.100 385.191,130.833 385.882 C 132.566 386.573,134.389 387.246,134.884 387.379 C 135.379 387.511,136.122 387.754,136.534 387.918 C 136.947 388.083,138.230 388.505,139.385 388.857 C 140.540 389.209,142.836 389.913,144.486 390.422 C 148.473 391.651,156.163 393.510,160.495 394.292 C 162.418 394.639,164.531 395.057,165.191 395.220 C 166.383 395.516,169.756 396.034,174.644 396.675 C 187.649 398.380,207.605 398.654,220.105 397.300 C 231.590 396.056,246.165 393.340,253.113 391.149 C 253.938 390.889,255.829 390.345,257.314 389.941 C 258.800 389.537,261.568 388.652,263.466 387.975 C 265.364 387.297,267.457 386.561,268.117 386.339 C 268.777 386.117,270.060 385.642,270.968 385.282 C 271.875 384.923,273.293 384.388,274.119 384.093 C 276.453 383.259,283.881 379.896,285.134 379.105 C 285.753 378.714,286.386 378.395,286.541 378.395 C 286.882 378.395,289.962 376.879,290.173 376.607 C 290.255 376.500,290.941 376.181,291.697 375.898 C 292.453 375.615,293.359 375.115,293.710 374.788 C 294.061 374.461,294.608 374.194,294.924 374.194 C 295.241 374.194,295.669 373.991,295.874 373.743 C 296.079 373.496,296.379 373.293,296.541 373.293 C 296.861 373.293,301.487 370.531,302.940 369.472 C 303.349 369.174,304.674 368.411,306.430 367.462 C 307.203 367.044,307.916 366.572,308.015 366.411 C 308.114 366.250,308.867 365.754,309.687 365.307 C 310.507 364.861,311.178 364.394,311.178 364.269 C 311.178 364.144,311.775 363.709,312.505 363.301 C 314.230 362.337,319.280 358.564,319.280 358.240 C 319.280 358.102,319.421 357.989,319.593 357.989 C 320.225 357.989,329.823 350.298,330.743 349.054 C 330.957 348.764,331.493 348.297,331.932 348.017 C 335.362 345.829,351.757 328.242,357.635 320.445 C 361.657 315.110,362.853 313.433,363.404 312.352 C 363.718 311.737,364.091 311.187,364.233 311.130 C 364.472 311.035,366.544 307.999,367.068 306.977 C 367.195 306.729,367.534 306.173,367.820 305.740 C 368.107 305.308,368.854 304.093,369.479 303.040 C 370.104 301.987,371.213 300.180,371.942 299.025 C 372.671 297.869,373.274 296.772,373.281 296.586 C 373.288 296.400,373.496 296.079,373.743 295.874 C 373.991 295.669,374.194 295.241,374.194 294.924 C 374.194 294.608,374.461 294.061,374.788 293.710 C 375.115 293.359,375.617 292.453,375.902 291.697 C 376.188 290.941,376.595 290.144,376.808 289.926 C 377.020 289.708,377.194 289.324,377.194 289.072 C 377.194 288.821,377.470 288.228,377.806 287.755 C 378.713 286.482,382.918 277.356,384.090 274.119 C 384.389 273.293,384.969 271.740,385.378 270.668 C 385.788 269.595,386.434 267.839,386.813 266.767 C 387.193 265.694,387.893 263.736,388.370 262.416 C 388.847 261.095,389.561 258.800,389.956 257.314 C 390.352 255.829,390.889 253.938,391.149 253.113 C 391.888 250.770,393.580 243.565,394.284 239.760 C 394.636 237.862,395.114 235.431,395.347 234.359 C 395.580 233.286,395.853 231.598,395.954 230.608 C 396.055 229.617,396.323 227.659,396.550 226.257 C 398.635 213.338,398.636 187.729,396.551 173.743 C 396.318 172.176,396.050 170.218,395.956 169.392 C 395.862 168.567,395.592 167.014,395.356 165.941 C 395.120 164.869,394.642 162.418,394.294 160.495 C 393.508 156.153,391.648 148.464,390.422 144.486 C 389.913 142.836,389.209 140.540,388.857 139.385 C 388.505 138.230,388.083 136.947,387.918 136.534 C 387.754 136.122,387.513 135.379,387.383 134.884 C 387.254 134.389,386.587 132.566,385.901 130.833 C 385.216 129.100,384.412 127.007,384.114 126.182 C 383.326 123.999,382.136 121.261,380.197 117.179 C 379.257 115.199,378.054 112.637,377.525 111.486 C 376.996 110.334,376.255 108.984,375.878 108.485 C 375.502 107.985,375.036 107.118,374.844 106.558 C 374.409 105.291,369.297 96.474,367.001 93.031 C 361.594 84.924,357.342 79.018,355.491 77.044 C 355.066 76.590,354.785 76.219,354.869 76.219 C 355.753 76.219,338.692 57.963,333.836 53.713 C 332.233 52.311,330.159 50.474,329.226 49.633 C 328.294 48.791,326.317 47.139,324.831 45.962 C 323.346 44.785,321.339 43.178,320.371 42.391 C 319.402 41.604,317.850 40.457,316.920 39.842 C 315.990 39.227,315.026 38.536,314.779 38.308 C 314.388 37.947,312.763 36.832,311.209 35.859 C 310.946 35.694,310.243 35.192,309.647 34.743 C 309.051 34.294,308.240 33.785,307.845 33.611 C 307.450 33.438,306.564 32.928,305.877 32.477 C 302.044 29.965,297.118 27.007,296.768 27.007 C 296.621 27.007,295.988 26.658,295.362 26.231 C 291.558 23.641,269.812 13.803,267.890 13.803 C 267.668 13.803,267.359 13.688,267.202 13.546 C 266.740 13.129,254.777 9.318,251.013 8.388 C 240.019 5.674,228.592 3.540,222.956 3.149 C 221.883 3.074,219.925 2.876,218.605 2.708 C 215.485 2.312,186.187 2.055,183.646 2.402 M179.745 82.658 C 186.563 83.463,190.382 84.199,196.401 85.869 L 199.704 86.785 204.803 85.573 C 280.354 67.615,350.158 120.424,352.485 197.299 C 354.855 275.535,280.339 334.218,203.866 314.342 C 200.058 313.352,200.101 313.350,193.572 314.911 C 121.035 332.249,50.558 279.252,47.544 205.101 C 44.586 132.346,107.454 74.118,179.745 82.658 M158.505 90.951 C 114.238 93.625,75.798 123.717,61.563 166.842 C 55.452 185.355,54.869 208.507,60.025 227.907 C 69.938 265.203,98.895 294.720,135.784 305.132 C 204.564 324.544,273.011 274.230,274.775 202.964 C 276.260 142.954,230.823 94.124,170.517 90.920 C 164.618 90.607,164.197 90.608,158.505 90.951 M228.057 90.925 C 223.210 91.166,216.390 92.010,215.949 92.424 C 215.673 92.682,216.220 93.015,222.356 96.322 C 224.584 97.523,227.312 99.088,228.419 99.801 C 231.900 102.042,232.080 102.099,236.459 102.362 C 279.333 104.933,316.493 134.423,327.351 174.494 C 336.984 210.045,325.945 247.435,298.670 271.639 C 280.931 287.380,263.058 295.076,238.560 297.520 C 236.002 297.775,233.405 298.061,232.789 298.155 C 232.154 298.251,229.837 299.418,227.436 300.848 C 225.108 302.235,221.516 304.266,219.454 305.359 C 215.119 307.659,215.112 307.759,219.245 308.349 C 254.232 313.338,290.771 300.220,314.563 274.129 C 318.629 269.670,324.620 262.251,325.745 260.282 C 326.206 259.475,327.295 257.647,328.166 256.219 C 345.843 227.237,348.551 189.709,335.252 158.009 C 317.233 115.055,274.951 88.595,228.057 90.925 " stroke="none" fill="#1c242c" fill-rule="evenodd"></path></g></svg>