<svg viewBox="0 0 44.21 22.48" xmlns="http://www.w3.org/2000/svg"><path d="m40.9 3.28a11.17 11.17 0 0 0 -7.9-3.28h-21.66a11.63 11.63 0 0 0 -4.65 1 11.31 11.31 0 0 0 -3.69 2.57 11.26 11.26 0 0 0 8.25 18.91h21.63a11.2 11.2 0 0 0 4.42-.9 11.59 11.59 0 0 0 3.62-2.45 11.2 11.2 0 0 0 0-15.83" fill="#fff"/><path d="m24.91 21.8h8a10.56 10.56 0 0 0 .09-21.12h-7.16a.8.8 0 0 0 -.78.62l-3.66 16.1a3.6 3.6 0 0 0 3.51 4.4" fill="#1f2c35"/><path d="m34.2 5a6.29 6.29 0 0 0 -1.83.27 6.07 6.07 0 0 0 -1.84-.27 6.31 6.31 0 0 0 0 12.62 6.4 6.4 0 0 0 1.84-.27 6.31 6.31 0 1 0 1.83-12.35m-1.83 11.81a5.54 5.54 0 0 1 -.8.21 6 6 0 0 1 -1 .09 5.83 5.83 0 0 1 0-11.66 6 6 0 0 1 1 .09 5.73 5.73 0 0 1 1.5.49 5.83 5.83 0 0 1 -.7 10.78m1.83.3a6 6 0 0 1 -1-.09c.24-.12.47-.24.7-.38l.21-.14a5.3 5.3 0 0 0 5.28-5.22 5.3 5.3 0 0 0 -5.28-5.23l-.21-.14a6.7 6.7 0 0 0 -.7-.37 6 6 0 0 1 1-.1 5.84 5.84 0 0 1 0 11.67" fill="#fff"/><path d="m19.19.68h-7.85a10.56 10.56 0 0 0 -.1 21.12h7a.79.79 0 0 0 .78-.62l3.68-16.1a3.6 3.6 0 0 0 -3.51-4.4" fill="#9ab0b7"/><g fill="#fff"><path d="m2.93 12.3s0 0 0-.06a.07.07 0 0 1 0 0 6 6 0 0 1 3.26.63c2.08 1 5.44 3.17 7.43 3.05 1.68-.1 2.5-.73 2.41-1.51a1 1 0 0 0 -1.27-.81 1.07 1.07 0 0 0 -.71 1.11.94.94 0 0 1 -.14-1.18 1.48 1.48 0 0 1 2.22-.32 1.83 1.83 0 0 1 0 2.8 4.23 4.23 0 0 1 -4.06.7c-2.38-.6-4.94-2.77-6.3-3.42a10.13 10.13 0 0 0 -2.85-.95"/><path d="m6.51 12a0 0 0 0 1 0 0 10.19 10.19 0 0 0 4.78.36c2.39-.62 2.82-2 5.2-3.19a2.93 2.93 0 0 1 4 1.27 1.88 1.88 0 0 1 -2 2.44 1.78 1.78 0 0 1 -1.66-1 1 1 0 0 1 .6-1.26 1.1 1.1 0 0 0 1 1.46 1.07 1.07 0 0 0 .76-1.8 1.78 1.78 0 0 0 -2.11-.28 28 28 0 0 1 -3.2 2.34 6.64 6.64 0 0 1 -4.58.66 9.94 9.94 0 0 1 -2.79-1"/><path d="m4.25 10.69a0 0 0 0 1 0-.06s0 0 0 0c.69 0 2.6 0 3.61-1.13 1.24-1.38 1-2.32 2.06-3.32a3 3 0 0 1 3.77.14c1.38 1.18.65 3.48-.72 4.19-1.16.6-2.62.41-3-.53a1.41 1.41 0 0 1 1.23-1.98.69.69 0 0 1 .7.82s-.24-.42-.57-.37a.81.81 0 0 0 -.57 1.11c.27.65 1.43.94 2.27-.05a1.73 1.73 0 0 0 -.75-2.91c-1.28-.47-2.08.5-2.78 1.79-.55 1-1.17 2.32-3.06 2.43a5.68 5.68 0 0 1 -2.19-.13"/></g></svg>