<svg version="1.2" baseProfile="tiny-ps" xmlns="http://www.w3.org/2000/svg" viewBox="0 0 560 560" width="560" height="560">
	<title>Layer 1</title>
	<style>
		tspan { white-space:pre }
		.shp0 { fill: #fdaa2f } 
		.shp1 { fill: #ffffff } 
		.shp2 { fill: #1d2a33 } 
	</style>
	<g id="Layer 1">
		<g id="&lt;Group&gt;">
			<g id="&lt;Group&gt;">
				<g id="&lt;Group&gt;">
					<path id="&lt;Path&gt;" class="shp0" d="M194.39 207.71L184.43 184.43L207.71 194.39L220.59 168.74L150.91 150.86L168.76 220.57L194.39 207.71Z" />
					<path id="&lt;Path&gt;" class="shp0" d="M199.47 219.58L172.58 235.5L180.33 265.78L213.55 252.47L199.47 219.58Z" />
					<path id="&lt;Path&gt;" class="shp0" d="M172.58 324.5L199.47 340.42L213.55 307.53L180.33 294.22L172.58 324.5Z" />
					<path id="&lt;Path&gt;" class="shp0" d="M168.35 289.42L144.85 280L168.35 270.58L159.32 243.35L97.42 280L159.32 316.65L168.35 289.42Z" />
					<path id="&lt;Path&gt;" class="shp0" d="M280 418.41L280 415.15L270.58 391.65L243.36 400.68L280 462.55L280 431L280 418.41Z" />
					<path id="&lt;Path&gt;" class="shp0" d="M280 129.01L280 97.46L243.36 159.32L270.58 168.35L280 144.85L280 141.6L280 129.01Z" />
					<path id="&lt;Path&gt;" class="shp0" d="M219.58 199.47L252.47 213.55L265.78 180.33L235.52 172.57L219.58 199.47Z" />
					<path id="&lt;Path&gt;" class="shp0" d="M219.58 360.53L235.52 387.44L265.78 379.67L252.47 346.45L219.58 360.53Z" />
					<path id="&lt;Path&gt;" class="shp0" d="M274.64 499L227.88 405.82L128.94 438.65C126.78 439.36 124.41 438.8 122.81 437.19C121.2 435.59 120.64 433.22 121.35 431.06L154.18 332.11L61 285.36C58.97 284.34 57.69 282.27 57.69 280C57.69 277.73 58.97 275.65 61 274.64L154.18 227.89L121.35 128.94C120.64 126.78 121.2 124.41 122.81 122.81C124.41 121.2 126.78 120.64 128.94 121.35L227.88 154.18L274.64 61C275.66 58.97 277.73 57.69 280 57.69L280 16C134.2 16 16 134.2 16 280C16 425.8 134.2 544 280 544L280 502.31C277.73 502.31 275.66 501.03 274.64 499Z" />
					<path id="&lt;Path&gt;" class="shp0" d="M184.43 375.57L194.39 352.29L168.76 339.43L150.91 409.15L220.59 391.27L207.71 365.61L184.43 375.57Z" />
					<path id="&lt;Compound Path&gt;" fill-rule="evenodd" class="shp1" d="M280 57.69L280 97.46L243.36 159.32L270.58 168.35L280 144.85L280 415.15L270.58 391.65L243.36 400.68L280 462.55L280 502.31C277.73 502.31 275.66 501.03 274.64 499L227.88 405.82L128.94 438.65C126.78 439.36 124.41 438.8 122.81 437.19C121.2 435.59 120.64 433.22 121.35 431.06L154.18 332.11L61 285.36C58.97 284.34 57.69 282.27 57.69 280C57.69 277.73 58.97 275.65 61 274.64L154.18 227.89L121.35 128.94C120.64 126.78 121.2 124.41 122.81 122.81C124.41 121.2 126.78 120.64 128.94 121.35L227.88 154.18L274.64 61C275.66 58.97 277.73 57.69 280 57.69ZM168.76 220.57L194.39 207.71L184.43 184.43L207.71 194.39L220.59 168.74L150.91 150.86L168.76 220.57ZM213.55 252.47L199.47 219.58L172.58 235.5L180.33 265.78L213.55 252.47ZM180.33 294.22L172.58 324.5L199.47 340.42L213.55 307.53L180.33 294.22ZM159.32 316.65L168.35 289.42L144.85 280L168.35 270.58L159.32 243.35L97.42 280L159.32 316.65ZM220.59 391.27L207.71 365.61L184.43 375.57L194.39 352.29L168.76 339.43L150.91 409.15L220.59 391.27ZM265.78 379.67L252.47 346.45L219.58 360.53L235.52 387.44L265.78 379.67ZM235.52 172.57L219.58 199.47L252.47 213.55L265.78 180.33L235.52 172.57Z" />
				</g>
			</g>
			<g id="&lt;Group&gt;">
				<path id="&lt;Path&gt;" class="shp2" d="M544 280C544 134.2 425.8 16 280 16L280 129C280 129 280.01 129 280.01 129.01C294.52 124.59 309.9 122.22 325.83 122.22C412.83 122.22 483.61 193 483.61 280.01C483.61 367.01 412.83 437.79 325.83 437.79C309.9 437.79 294.52 435.42 280.01 431C280.01 431 280 431 280 431L280 431L280 544C425.8 544 544 425.8 544 280Z" />
				<path id="&lt;Path&gt;" class="shp2" d="M297.51 411.3C346.26 387.68 379.96 337.71 379.96 280.01C379.96 222.3 346.26 172.32 297.51 148.71C291.87 145.97 286.02 143.59 280 141.6C280 141.6 280 141.6 280 141.6L280 141.6L280 418.41C280 418.41 280 418.41 280 418.41C286.02 416.42 291.87 414.02 297.51 411.3Z" />
				<path id="&lt;Path&gt;" class="shp2" d="M322.64 149.43C395.73 150.63 454.61 208.62 454.61 280.01C454.61 351.38 395.74 409.37 322.65 410.57C320.91 411.75 319.16 412.91 317.37 414.02C311.75 417.52 305.89 420.68 299.83 423.47C308.27 424.99 316.96 425.79 325.83 425.79C406.21 425.79 471.61 360.39 471.61 280.01C471.61 199.62 406.21 134.22 325.83 134.22C316.96 134.22 308.27 135.01 299.83 136.54C305.89 139.32 311.74 142.47 317.36 145.97C319.15 147.09 320.9 148.25 322.64 149.43Z" />
				<path id="&lt;Compound Path&gt;" fill-rule="evenodd" class="shp1" d="M560 280C560 317.79 552.59 354.46 537.99 388.99C523.89 422.34 503.7 452.28 477.99 477.99C452.28 503.7 422.34 523.89 388.99 537.99C354.46 552.59 317.79 560 280 560C242.21 560 205.54 552.59 171.01 537.99C137.66 523.89 107.72 503.7 82.01 477.99C56.3 452.28 36.11 422.34 22.01 388.99C7.4 354.46 0 317.79 0 280C0 242.21 7.4 205.54 22.01 171.01C36.11 137.66 56.3 107.72 82.01 82.01C107.72 56.3 137.66 36.11 171.01 22.01C205.54 7.4 242.21 0 280 0C317.79 0 354.46 7.4 388.99 22.01C422.34 36.11 452.28 56.3 477.99 82.01C503.7 107.72 523.89 137.66 537.99 171.01C552.59 205.54 560 242.21 560 280ZM544 280C544 134.2 425.8 16 280 16C134.2 16 16 134.2 16 280C16 425.8 134.2 544 280 544C425.8 544 544 425.8 544 280Z" />
				<path id="&lt;Compound Path&gt;" fill-rule="evenodd" class="shp1" d="M280 129C280 129 280.01 129 280.01 129.01C294.52 124.59 309.9 122.22 325.83 122.22C412.83 122.22 483.61 193 483.61 280.01C483.61 367.01 412.83 437.79 325.83 437.79C309.9 437.79 294.52 435.42 280.01 431C280.01 431 280 431 280 431L280 418.41C280 418.41 280 418.41 280 418.41C286.02 416.42 291.87 414.02 297.51 411.3C346.26 387.68 379.96 337.71 379.96 280.01C379.96 222.3 346.26 172.32 297.51 148.71C291.87 145.97 286.02 143.59 280 141.6C280 141.6 280 141.6 280 141.6L280 129ZM299.83 136.54C305.89 139.32 311.74 142.47 317.36 145.97C319.15 147.09 320.9 148.25 322.64 149.43C395.73 150.63 454.61 208.62 454.61 280.01C454.61 351.38 395.74 409.37 322.65 410.57C320.91 411.75 319.16 412.91 317.37 414.02C311.75 417.52 305.89 420.68 299.83 423.47C308.27 424.99 316.96 425.79 325.83 425.79C406.21 425.79 471.61 360.39 471.61 280.01C471.61 199.62 406.21 134.22 325.83 134.22C316.96 134.22 308.27 135.01 299.83 136.54Z" />
			</g>
		</g>
	</g>
</svg>