<svg height="580" viewBox="0 0 580 580" width="580" xmlns="http://www.w3.org/2000/svg" xmlns:xlink="http://www.w3.org/1999/xlink"><clipPath id="a"><path d="m590 590h-600v-600h600z"/></clipPath><g clip-path="url(#a)"><path d="m290 5.65c3.92 0 7.61 1.53 10.38 4.3l269.67 269.67c5.72 5.72 5.72 15.04 0 20.76l-269.67 269.67c-2.77 2.77-6.46 4.3-10.38 4.3s-7.61-1.53-10.38-4.3l-269.67-269.67c-2.77-2.77-4.3-6.46-4.3-10.38s1.53-7.61 4.3-10.38l269.67-269.67c2.77-2.77 6.46-4.3 10.38-4.3z" fill="#553857" stroke="#fff" stroke-width="1.25"/><g fill="#fff"><path d="m276.08 573.58-269.66-269.66c-7.69-7.69-7.69-20.15 0-27.84l269.66-269.66c3.85-3.85 8.88-5.77 13.92-5.77s10.07 1.92 13.92 5.77l269.66 269.66c7.69 7.69 7.69 20.15 0 27.84l-269.66 269.66c-3.85 3.85-8.88 5.77-13.92 5.77s-10.07-1.92-13.92-5.77zm20.77-7.07 269.66-269.66c3.78-3.78 3.78-9.92 0-13.7l-269.66-269.66c-1.83-1.83-4.26-2.84-6.85-2.84s-5.02 1.01-6.85 2.84l-269.66 269.66c-3.78 3.78-3.78 9.92 0 13.7l269.66 269.66c1.83 1.83 4.26 2.84 6.85 2.84s5.02-1.01 6.85-2.84z" fill-rule="evenodd"/><path d="m209.71 390.21 77.03 107.55c1.6 2.24 4.92 2.24 6.52 0l77.03-107.55c1.57-2.19 0-5.25-2.7-5.25h-155.18c-2.7 0-4.27 3.06-2.7 5.25z"/><path d="m257.41 257.68 32.59 32.59 32.59-32.59v136.13h-32.59-32.59z"/><path d="m257.41 102.3 32.59 32.59 32.59-32.59v32.59l-32.59 32.58-32.59-32.58z"/><path d="m257.41 174.05 32.59 32.59 32.59-32.59v51.05l-32.59 32.58-32.59-32.58z"/></g></g></svg>