<svg height="578.7" viewBox="0 0 578.68 578.7" width="578.68" xmlns="http://www.w3.org/2000/svg"><path d="m289.35 5a14.62 14.62 0 0 1 10.33 4.3l269.72 269.7a14.7 14.7 0 0 1 0 20.73l-269.72 269.67a14.68 14.68 0 0 1 -20.76 0l-269.62-269.7a14.68 14.68 0 0 1 0-20.76l269.7-269.64a14.61 14.61 0 0 1 10.35-4.3" fill="#5e3c58"/><g fill="#fff"><path d="m289.34 343.68-35.38-34.98h-186.43l221.81 219.33 221.8-219.33h-186.43z"/><path d="m245.74 249-25.2 27.6a12.57 12.57 0 0 1 -8.4-3.6 13.48 13.48 0 0 1 -5.4-9l25.2-27.6z"/><path d="m220.84 285.85a91.51 91.51 0 0 1 -23.4-22.2l6.9-5.4a180.31 180.31 0 0 1 21.3 18.9z"/><path d="m318.11 181.43 32.93-35.68 4.2-31.2-30.6 7.2-30.1 33.47z"/><path d="m282.8 219.7-23.43-25.38-23.23 25.83-15-13.5-7.2 5.1 58.2 52.5 4.2-7.5-15-13.8z"/><path d="m346.74 236.35 25.2 27.6a13.48 13.48 0 0 1 -5.4 9 12.57 12.57 0 0 1 -8.4 3.6l-25.2-27.55z"/><path d="m353 277.15a180.31 180.31 0 0 1 21.3-18.9l6.9 5.4a91.18 91.18 0 0 1 -23.4 22.2z"/><path d="m223.44 114.55 4.2 31.2 89.7 97.2-15 13.8 4.2 7.5 58.2-52.5-7.2-5.1-15 13.5-88.5-98.4z"/><path d="m289.34 568.7a9.62 9.62 0 0 1 -6.85-2.84l-269.66-269.67a9.68 9.68 0 0 1 0-13.69l269.66-269.66a9.66 9.66 0 0 1 13.66 0l269.7 269.66a9.68 9.68 0 0 1 0 13.69l-269.67 269.67a9.6 9.6 0 0 1 -6.84 2.84m0 10a19.65 19.65 0 0 0 13.92-5.77l269.66-269.67a19.68 19.68 0 0 0 0-27.82l-269.66-269.68a19.7 19.7 0 0 0 -27.84 0l-269.66 269.67a19.68 19.68 0 0 0 0 27.82l269.66 269.68a19.65 19.65 0 0 0 13.92 5.77"/></g></svg>