<svg xmlns="http://www.w3.org/2000/svg" width="800" height="800" viewBox="0 0 600 600">
    <circle cx="300" cy="300" r="300" fill="#000000" />
    <path fill="#fbf679"
        d="M271 26.1c-65.9 8.3-120.9 34.7-165.6 79.3C53.3 157.5 25 226.1 25 300s28.3 142.5 80.4 194.6S226.1 575 300 575s142.5-28.3 194.6-80.4S575 373.9 575 300s-28.3-142.5-80.4-194.6c-44.2-44.1-98.8-70.6-162.9-78.9-12.7-1.6-49.1-1.9-60.7-.4m136.1 60.3c4.7 2.3 14.1 11.3 55.1 52.5 38.7 38.7 50 50.7 51.9 54.6 2 4.2 2.4 6.6 2.4 14.5 0 8.4-.3 10.1-2.7 14.5-3.2 6-9.7 12.4-15.8 15.6-3.9 2.1-5.9 2.4-14.5 2.4-9.4 0-10.4-.2-16-3.3l-5.9-3.2L338 357.3C218.1 477 214.3 480.7 207 484.3c-11.3 5.4-18.6 7.1-32 7-9.9 0-12.6-.4-19.5-2.7-11.7-4-18-8-27.1-17-9-9.1-13-15.4-17-27.1-2.3-6.9-2.7-9.6-2.7-19.5-.1-13.4 1.6-20.7 7-32 3.6-7.3 7.3-11.1 127-131.1l123.4-123.5-3.3-6.4c-3.1-5.9-3.3-7-3.3-15.9 0-11.1 1.7-15.5 8.9-22.9 7.3-7.7 13.9-10.3 25.1-9.8 6.3.2 9.2.8 13.6 3" />
    <path fill="#fbf679"
        d="M215.8 341.7c-63.3 63.5-66.7 67.1-68.4 72.3-3.7 11.3-1.4 21.7 6.6 30.4 8.4 9.1 20.1 12.1 32 8.2 5.2-1.7 9.1-5.4 84.2-80.4 43.3-43.3 78.4-78.9 78-79.3-.6-.6-63.8-17.9-65.3-17.9-.2 0-30.4 30-67.1 66.7" />
</svg>