<svg height="400" viewBox="0 0 400 400" width="400" xmlns="http://www.w3.org/2000/svg"><path d="m200 400c-110.6 0-200-89.4-200-200s89.4-200 200-200 200 89.4 200 200-89.4 200-200 200z" fill="#b28abf"/><path d="m251 23c-5 1.8-9.2 9.8-9.2 17.5 0 2.6-2.7 8.6-5.2 11.9-.7.9-1.3 2.6-1.3 3.8s-.5 3-1.1 4.1c-.5 1.1-1.8 4.8-2.8 8.3-1.2 4.3-2.8 7.8-5.4 11.7-2.2 3.3-4 6.9-4.5 9.1-.4 2.1-1.7 5.4-2.9 7.5s-2.9 6.6-3.9 10c-2.5 8.6-4.2 12.5-5.2 12.1-.5-.2-3.1-.6-5.8-.9l-4.9-.5.4-3c.2-1.6.8-5.8 1.3-9.3.7-5 .7-7.7-.1-12.9-.8-5.9-.7-6.8.3-7.9.6-.7 1.2-1.5 1.2-1.8s.8-1.8 1.8-3.2c6.1-9-2.9-20.2-14.4-18-9.8 1.8-15.5 14.5-10.5 23 2.2 3.7 2.6 12.3 1.5 28l-.4 6.6-4.5 1.2c-2.5.6-5.1 1.3-5.7 1.5-1.4.6-5.1-5.4-6.8-11.1-.6-2.2-2.4-6.2-4-9-1.7-2.7-3.6-7.5-4.4-10.6s-2.7-8.4-4.3-11.7c-2.2-4.9-2.8-6.9-2.8-10.3 0-4.4-2.8-10.9-6.9-16.3-1.2-1.6-1.5-2.6-1.1-3.3 4.1-6.4-2.3-16.3-10.5-16.3-13.1 0-17.9 14.7-8 24.4 1.4 1.3 2.5 2.9 2.5 3.6s.7 2.9 1.6 4.8c2.5 5.8 6.3 17.5 6.8 21.1 1 6.4 10.8 28.3 17.1 38.4 3.5 5.4 3.5 5.2-.3 8l-3.2 2.3-2.9-1.9c-7.9-5.3-27.8-26.7-27.8-29.9 0-11.8-15.7-14.2-21-3.3-3.9 8.3-.7 19.3 5.6 19.3.7 0 4.7 3.4 8.9 7.7 4.2 4.2 9.7 9.3 12.3 11.3 2.6 2.1 6.4 5.4 8.5 7.3l3.7 3.6-2 4.4c-1.2 2.4-2.3 4.5-2.5 4.7-.4.4-6.2-2.8-9.1-5-.9-.7-3-1.7-4.7-2.1-3.9-1-10.1-4.1-14.2-6.9-1.8-1.2-9.4-5-16.9-8.4-11.5-5.2-13.6-6.4-14-7.9-2.6-11.5-22.8-11.8-25.7-.4-2.1 8.3 2.5 16.4 9.4 16.4 4.6 0 31.3 11.9 37.9 16.9 8 6 14.2 9.8 16.8 10.3 1.2.3 3.4 1.2 4.8 2.1s4.4 2.4 6.7 3.3c4.6 1.8 4.9 2.2 2.9 3.9-2.6 2.3-28.6 3.1-35.3 1.1-2.3-.7-5.2-1.3-6.3-1.3-1.2 0-2.7-.6-3.4-1.3-4.4-4.4-9.8-5.1-15.2-1.9-3.8 2.2-3.7 1.8-.5 6.4 7.3 10.2 12.2 15.6 13.8 15.2.9-.2 4 0 6.9.5 3 .5 12.6 1.1 21.3 1.4l16 .4.9 2.6c2.5 7.6.6 10.3-8.1 12-3.2.6-13.5 5.1-13.5 6 0 .6 14.8 10.6 17.7 11.8 1.8.8 2.6.6 7.9-2 4.3-2.1 6-2.6 6.2-1.9.2.6 1.1 1.9 2 3l1.7 1.9-2.6 2.7-2.6 2.7 4.7 2.2c27.8 12.6 66.8 15.6 93.8 7.3l4.9-1.5-2.7-5.1-2.8-5 1.4-2.4c.8-1.3 2.2-3.7 3.1-5.3 6.7-11.8 5.9-39.9-1.5-52.6-9.9-16.8-32.6-24.7-49.5-17.1-5.2 2.3-14.9 10.3-14.9 12.2 0 .9-.8 3.3-1.8 5.3-4.9 10 1.1 29 11.1 35.3 6.1 3.8 19.6 5.1 26.6 2.7 8.1-2.8 8.5-3 9.6-5.2 1.6-2.9 2.2-14.3 1-17.2-2.6-6.3-11.5-11.7-16.3-9.9-7.2 2.8-8.3 9.2-1.8 10.8 5.3 1.4 8.5 6 5.6 8.3-1.2.9-10.8 3.8-12.7 3.8-6.5 0-12.6-9.9-10.4-17 .4-1.2 1-3.5 1.4-5.2 2.2-8.4 7.3-11.2 20.5-11.2 10.6 0 21.4 6.1 22.8 12.7.2 1.2.9 3.2 1.6 4.4 1.7 3.3 2.4 9.2 1.7 13.9-.4 2.3-1 6.5-1.5 9.3-1 6.4-2.3 9.2-6.4 13-1.8 1.6-4.1 3.9-5.1 4.9-2.5 2.5-7.4 5-11.6 5.8-1.9.3-5.2 1-7.4 1.4-6.5 1.4-23.6-4.6-29.6-10.4-1.7-1.6-3.8-3.3-4.8-3.7-2.6-1.2-8.2-8.2-8.7-10.9-.3-1.4-1.1-3.2-1.8-4.2-3.9-4.9-4.3-13.3-1.7-31.8 4-28.1 46.8-47 74.7-33.1 12.7 6.3 26.5 22.5 28.6 33.6 2.5 13.1 1.2 27.7-3.3 38.3-4.5 10.4-5.2 18.6-2 21.7l2.1 2 2.9-2.5 2.9-2.6 6.4 3.6c7.9 4.4 6.8 4.5 16.5-.4 15.7-7.9 16-8.4 7-11.2-6.5-2-19.5-7.3-19.4-7.9 0-.3.7-2.6 1.7-5.2l1.7-4.7 3.9.1c15.6.4 23.3 1.8 31.6 5.8l5.4 2.5 3.4-2.9c20.5-17.3 19.9-21.2-3.5-22.5-6.9-.4-14.5-1.1-16.7-1.5s-7.8-.7-12.4-.6c-10.1.2-9.1.9-9.5-7l-.2-6.5 4.7-1.8c2.6-.9 6.4-2 8.4-2.3 3.1-.5 16.1-5.6 18.1-7.2.4-.3 1.9-.8 3.3-1.1 1.5-.2 6.4-2.1 11.1-4.1 4.6-1.9 9.2-3.6 10.3-3.6s2.5-.3 3.1-.6c.8-.4 3.2-.3 6.4.4 14.1 3.1 25.3-8.3 18.2-18.5-5.1-7.4-15.2-7.5-30.8-.4-3.1 1.3-7.6 2.8-10 3.1-2.5.4-6.1 1.3-7.9 2.1-1.9.9-7.4 2.7-12.2 4.2-4.8 1.4-13.3 4.5-18.9 6.9-5.6 2.3-10.3 4.3-10.4 4.3s-1.5-2.4-3.1-5.4l-3-5.4 6.6-6.4c3.6-3.5 7.9-8.2 9.6-10.4 7.1-9.5 13.4-15.8 16.2-16.2 5.1-.9 10.4-11 9.5-18.2-1.6-12.3-20.4-8.6-24.8 5-.3.8-3.4 3.7-7 6.5s-8.6 7.4-11.1 10.2c-2.4 2.8-6.2 6.9-8.3 9.1l-3.9 4.1-4.7-3.1c-2.6-1.8-5-3.2-5.4-3.2-.3 0 0-1.4.8-3.1.7-1.7 1.5-4.8 1.7-7 .2-2.1.9-4.7 1.6-5.8s1.4-3.1 1.4-4.5c.2-3.5 3.5-10.5 6.9-14.4 1.6-1.7 2.9-4 2.9-4.9s.8-3.2 1.8-5.1c1-1.8 1.8-3.9 1.8-4.6s.8-3.1 1.8-5.2c1-2.2 2.3-6.2 2.9-9.1 1.4-6.7 3.1-10.2 5.2-10.7 3.1-.8 8.5-8.8 8.9-13.2.9-11.2-7.9-18.2-18.3-14.5zm-213.2 161.8c-16.8 84.9 43.1 172.5 129.4 189.3 110.6 21.6 209.9-70.6 195.5-181.5-1.7-13.1-1.4-12.9-7-4.2-72.9 113.2-239.3 113.4-311.7.4-5.9-9.2-5.3-8.7-6.2-4z" fill="#fff" fill-rule="evenodd"/></svg>