<svg height="400" viewBox="0 0 400 400" width="400" xmlns="http://www.w3.org/2000/svg"><path d="m337.333 19.382c-3.194.473-4.701 1.055-5.732 2.216-3.733 4.203-29.65 48.151-86.922 147.402-25.874 44.838-58.15 100.61-58.392 100.898-.385.459-44.738-31.373-95.844-68.787l-7.89-5.776-3.776.371c-23.629 2.32-35.429 5.658-50.88 14.391-8.406 4.751-27.022 19.662-25.897 20.743.183.176 12.483 9.752 27.333 21.28s41.83 32.492 59.956 46.586c18.126 14.095 36.444 28.327 40.708 31.627 4.263 3.3 17.876 13.95 30.25 23.667s25.52 19.995 29.213 22.84l6.716 5.173 11.81-19.84c19.618-32.956 46.866-79.24 102.338-173.84 46.067-78.56 66.608-113.504 77.479-131.804l10.973-18.471-2.059-2.562c-9.552-11.887-37.219-19.394-59.384-16.114" fill-rule="evenodd"/></svg>