<svg id="svg" version="1.1" xmlns="http://www.w3.org/2000/svg" xmlns:xlink="http://www.w3.org/1999/xlink" width="400" height="400" viewBox="0, 0, 400,400"><g id="svgg"><path id="path0" d="M340.181 19.213 C 335.702 19.639,332.173 20.452,331.182 21.285 C 328.124 23.855,304.729 63.544,237.509 180.195 C 198.016 248.732,186.151 268.867,185.258 268.867 C 184.590 268.867,118.586 221.415,84.687 196.563 L 82.502 194.962 79.286 195.169 C 48.598 197.144,27.519 206.340,4.838 227.646 L 2.324 230.008 10.239 236.142 C 60.860 275.373,121.364 322.384,150.638 345.231 C 170.525 360.753,188.552 374.786,190.698 376.417 C 192.843 378.048,194.753 379.502,194.942 379.649 C 196.052 380.512,205.464 364.716,305.021 194.899 C 327.759 156.114,357.447 105.544,370.994 82.522 C 384.542 59.499,395.822 40.117,396.062 39.452 C 396.750 37.537,396.371 36.765,393.246 33.724 C 383.193 23.940,359.262 17.396,340.181 19.213 " stroke="none" fill="#000000" fill-rule="evenodd"></path></g></svg>