<svg height="400" viewBox="0 0 400 400" width="400" xmlns="http://www.w3.org/2000/svg">
    <g fill-rule="evenodd">
        <path
            d="m173.28 192.88c-.363.363-.48 6.411-.48 24.771 0 21.55-.071 24.363-.629 24.92-.557.558-3.398.629-25.226.629-16.191 0-24.862.142-25.371.414-.974.521-1.242 47.236-.274 47.862.275.178 11.93.414 25.9.524l25.4.2.103 24.363c.073 17.184.235 24.521.549 24.9.661.796 51.635.796 52.296 0 .314-.379.476-7.716.549-24.9l.103-24.363 25.563-.103c18.072-.073 25.72-.234 26.1-.549.56-.465.843-46.284.294-47.715-.218-.568-2.829-.633-25.4-.633-24.624 0-25.174-.017-25.957-.8-.782-.782-.8-1.333-.8-25.157 0-21.842-.065-24.382-.633-24.6-1.304-.501-51.578-.272-52.087.237"
            fill="#fff" fill-opacity="0" />
        <path
            d="m198 .376c0 .207-.675.432-1.5.5-1.41.117-1.507.211-1.622 1.583-.087 1.048-.341 1.516-.9 1.663-.642.168-.778.558-.778 2.241 0 1.544-.145 2.037-.6 2.037-.461 0-.6.511-.6 2.2 0 1.933-.097 2.2-.8 2.2-.667 0-.8.267-.8 1.6s-.133 1.6-.8 1.6c-.701 0-.8.267-.8 2.153 0 1.817-.125 2.186-.8 2.363-.613.16-.8.546-.8 1.647 0 1.011-.178 1.437-.6 1.437-.415 0-.6.417-.6 1.353 0 1.017-.199 1.406-.8 1.563-.665.174-.8.546-.8 2.2s-.135 2.026-.8 2.2c-.606.159-.8.546-.8 1.6s-.194 1.441-.8 1.6c-.613.16-.8.546-.8 1.647 0 .957-.185 1.437-.553 1.437-.631 0-1.034 1.2-1.042 3.1-.003.886-.196 1.3-.605 1.3-.419 0-.6.422-.6 1.4 0 1.133-.152 1.4-.8 1.4-.667 0-.8.267-.8 1.6s-.133 1.6-.8 1.6c-.642 0-.8.267-.8 1.353 0 1.017-.199 1.406-.8 1.563-.613.16-.8.546-.8 1.647 0 1.011-.178 1.437-.6 1.437-.419 0-.6.422-.6 1.4 0 1.133-.152 1.4-.8 1.4-.667 0-.8.267-.8 1.6s-.133 1.6-.8 1.6c-.642 0-.8.267-.8 1.353 0 1.017-.199 1.406-.8 1.563-.613.16-.8.546-.8 1.647 0 1.011-.178 1.437-.6 1.437-.415 0-.6.417-.6 1.353 0 1.017-.199 1.406-.8 1.563-.613.16-.8.546-.8 1.647 0 1.17-.148 1.437-.8 1.437-.533 0-.8.267-.8.8 0 .44-.262.8-.582.8-.346 0-.686.556-.839 1.372-.142.755-.51 1.469-.818 1.588-.335.128-.561.785-.561 1.627 0 1.146-.151 1.413-.8 1.413-.648 0-.8.267-.8 1.4s-.152 1.4-.8 1.4c-.667 0-.8.267-.8 1.6s-.133 1.6-.8 1.6c-.44 0-.8.251-.8.557 0 .307-.27.661-.6.788-.377.144-.6.756-.6 1.642 0 1.146-.151 1.413-.8 1.413-.648 0-.8.267-.8 1.4s-.152 1.4-.8 1.4c-.533 0-.8.267-.8.8 0 .44-.251.8-.557.8-.645 0-1.043.852-1.043 2.233 0 .593-.232.967-.6.967-.33 0-.6.287-.6.637 0 .351-.36.732-.8.847-.601.157-.8.546-.8 1.563 0 1.086-.158 1.353-.8 1.353-.667 0-.8.267-.8 1.6s-.133 1.6-.8 1.6c-.44 0-.8.258-.8.573s-.36.687-.8.827c-.595.189-.8.605-.8 1.627 0 .954-.183 1.373-.6 1.373-.333 0-.6.356-.6.8 0 .533-.267.8-.8.8-.517 0-.8.267-.8.753 0 .417-.357.847-.8.963-.583.152-.8.546-.8 1.447 0 .865-.192 1.237-.637 1.237-.351 0-.732.36-.847.8s-.458.8-.763.8c-.365 0-.553.475-.553 1.4 0 1.133-.152 1.4-.8 1.4-.533 0-.8.267-.8.8s-.267.8-.8.8c-.648 0-.8.267-.8 1.4 0 1.014-.176 1.4-.637 1.4-.351 0-.732.36-.847.8s-.458.8-.763.8c-.304 0-.553.339-.553.753 0 .417-.357.847-.8.963-.583.152-.8.546-.8 1.447 0 .865-.192 1.237-.637 1.237-.351 0-.732.36-.847.8s-.464.8-.775.8-.682.315-.823.7c-.142.385-.496.844-.788 1.02-.291.176-.53.851-.53 1.5 0 .813-.198 1.18-.637 1.18-.351 0-.728.343-.837.763-.11.42-.543.853-.963.963-.572.149-.763.559-.763 1.637 0 1.17-.148 1.437-.8 1.437-.444 0-.8.267-.8.6 0 .33-.27.6-.6.6s-.6.339-.6.753c0 .417-.357.847-.8.963-.613.16-.8.546-.8 1.647 0 1.17-.148 1.437-.8 1.437-.517 0-.8.267-.8.753 0 .417-.357.847-.8.963-.583.152-.8.546-.8 1.447 0 .833-.196 1.237-.6 1.237-.333 0-.6.356-.6.8 0 .533-.267.8-.8.8-.517 0-.8.267-.8.753 0 .417-.357.847-.8.963-.574.15-.8.546-.8 1.4s-.226 1.25-.8 1.4c-.44.115-.8.477-.8.804s-.27.698-.6.825c-.351.134-.6.734-.6 1.442 0 .946-.176 1.213-.8 1.213-.524 0-.8.267-.8.773 0 .425-.36.887-.8 1.027-.595.189-.8.605-.8 1.627 0 1.106-.155 1.373-.8 1.373-.533 0-.8.267-.8.8 0 .44-.262.8-.582.8-.348 0-.687.562-.844 1.4-.151.802-.5 1.4-.819 1.4-.305 0-.555.339-.555.753 0 .417-.357.847-.8.963-.583.152-.8.546-.8 1.447 0 .97-.172 1.237-.8 1.237-.444 0-.8.267-.8.6 0 .33-.36.96-.8 1.4s-.8 1.141-.8 1.557c0 .417-.27.861-.6.988-.377.144-.6.756-.6 1.642 0 1.146-.151 1.413-.8 1.413-.517 0-.8.267-.8.753 0 .417-.357.847-.8.963-.564.147-.8.546-.8 1.35 0 .708-.304 1.331-.8 1.641-.51.319-.8.933-.8 1.696 0 .797-.2 1.197-.6 1.197-.419 0-.6.422-.6 1.4 0 1.133-.152 1.4-.8 1.4-.667 0-.8.267-.8 1.6s-.133 1.6-.8 1.6c-.533 0-.8.267-.8.8 0 .44-.262.8-.582.8-.346 0-.686.556-.839 1.372-.142.755-.51 1.469-.818 1.588-.378.145-.561.87-.561 2.227 0 1.746-.106 2.013-.8 2.013-.667 0-.8.267-.8 1.6s-.133 1.6-.8 1.6c-.636 0-.8.267-.8 1.304 0 .87-.266 1.47-.8 1.803-.626.391-.8.933-.8 2.496 0 1.508-.147 1.997-.6 1.997-.461 0-.6.511-.6 2.2 0 1.933-.097 2.2-.8 2.2-.701 0-.8.267-.8 2.153 0 1.817-.125 2.186-.8 2.363-.704.184-.8.546-.8 3s-.096 2.816-.8 3-.8.546-.8 3.004c0 2.115-.146 2.85-.6 3.025-.483.185-.6 1.084-.6 4.596 0 4.029-.062 4.382-.8 4.575-1.259.329-1.259 39.839 0 40.168.738.193.8.546.8 4.563 0 3.603.103 4.353.6 4.353.471 0 .6.552.6 2.567 0 2.925.247 3.833 1.043 3.833.419 0 .557.644.557 2.597 0 2.163.133 2.68.8 3.096.621.388.8.933.8 2.441 0 1.604.139 1.977.8 2.15.627.164.8.546.8 1.763 0 1.114.17 1.553.6 1.553.431 0 .6.441.6 1.567 0 1.955.323 2.833 1.043 2.833.37 0 .557.47.557 1.4 0 1.133.152 1.4.8 1.4.667 0 .8.267.8 1.6s.133 1.6.8 1.6c.648 0 .8.267.8 1.4 0 .978.181 1.4.6 1.4.422 0 .6.426.6 1.437 0 1.101.187 1.487.8 1.647.601.157.8.546.8 1.563 0 1.086.158 1.353.8 1.353.667 0 .8.267.8 1.6s.133 1.6.8 1.6c.533 0 .8.267.8.8 0 .444.267.8.6.8.404 0 .6.404.6 1.237 0 .901.217 1.295.8 1.447.443.116.8.546.8.963 0 .486.283.753.8.753.645 0 .8.267.8 1.373 0 1.022.205 1.438.8 1.627.44.14.8.512.8.827s.27.573.6.573c.333 0 .6.356.6.8 0 .533.267.8.8.8.628 0 .8.267.8 1.237 0 .901.217 1.295.8 1.447.443.116.8.546.8.963 0 .486.283.753.8.753.533 0 .8.267.8.8 0 .444.267.8.6.8.33 0 .6.287.6.637 0 .351.36.732.8.847.443.116.8.546.8.963 0 .486.283.753.8.753.444 0 .8.267.8.6s.356.6.8.6c.533 0 .8.267.8.8s.267.8.8.8.8.267.8.8c0 .444.267.8.6.8.33 0 .6.287.6.637 0 .351.36.732.8.847s.8.458.8.763c0 .304.36.553.8.553.533 0 .8.267.8.8s.267.8.8.8.8.267.8.8c0 .444.267.8.6.8.33 0 .6.287.6.637 0 .351.36.732.8.847s.8.458.8.763c0 .304.339.553.753.553.417 0 .847.357.963.8.152.583.546.8 1.447.8.865 0 1.237.192 1.237.637 0 .351.343.728.763.837.42.11.853.543.963.963.149.572.559.763 1.637.763 1.011 0 1.437.178 1.437.6 0 .33.27.6.6.6.333 0 .6.356.6.8 0 .524.267.8.773.8.425 0 .887.36 1.027.8.189.595.605.8 1.627.8 1.106 0 1.373.155 1.373.8 0 .642.267.8 1.353.8 1.017 0 1.406.199 1.563.8.16.613.546.8 1.647.8 1.011 0 1.437.178 1.437.6 0 .33.264.6.586.6s.779.36 1.014.8c.28.524.838.8 1.614.8.747 0 1.186.206 1.186.557 0 .645.852 1.043 2.233 1.043.557 0 .967.235.967.553 0 .631 1.2 1.034 3.1 1.042.886.003 1.3.196 1.3.605 0 .417.419.6 1.373.6 1.022 0 1.438.205 1.627.8.213.671.605.8 2.427.8 1.906 0 2.173.098 2.173.8 0 .701.267.8 2.153.8 1.817 0 2.186.125 2.363.8.174.665.546.8 2.204.8 1.404 0 2.063.178 2.225.6.181.472 1 .6 3.842.6 3.346 0 3.613.059 3.613.8 0 .744.267.8 3.8.8 2.267 0 3.8.161 3.8.4 0 .262 7.267.4 21 .4s21-.138 21-.4c0-.242 1.733-.4 4.4-.4 4.133 0 4.4-.048 4.4-.8 0-.729.267-.8 3-.8 2.4 0 3-.12 3-.6 0-.462.515-.6 2.237-.6 1.901 0 2.269-.12 2.447-.8.177-.675.546-.8 2.363-.8 1.886 0 2.153-.099 2.153-.8 0-.703.267-.8 2.2-.8s2.2-.097 2.2-.8.267-.8 2.2-.8c1.689 0 2.2-.139 2.2-.6 0-.368.374-.6.967-.6 1.381 0 2.233-.398 2.233-1.043 0-.37.47-.557 1.4-.557 1.133 0 1.4-.152 1.4-.8 0-.667.267-.8 1.6-.8s1.6-.133 1.6-.8c0-.649.267-.8 1.413-.8.886 0 1.498-.223 1.642-.6.127-.33.571-.6.988-.6.416 0 1.117-.36 1.557-.8s1.07-.8 1.4-.8c.333 0 .6-.356.6-.8 0-.648.267-.8 1.4-.8s1.4-.152 1.4-.8c0-.533.267-.8.8-.8s.8-.267.8-.8c0-.649.267-.8 1.413-.8.886 0 1.498-.223 1.642-.6.127-.33.481-.6.788-.6.306 0 .557-.36.557-.8 0-.619.267-.8 1.177-.8.679 0 1.399-.307 1.7-.726.288-.4.838-.844 1.223-.988.385-.143.7-.537.7-.873 0-.337.27-.613.6-.613s.6-.27.6-.6c0-.333.356-.6.8-.6.533 0 .8-.267.8-.8s.267-.8.8-.8.8-.267.8-.8c0-.628.267-.8 1.237-.8.882 0 1.295-.22 1.437-.763.11-.42.543-.853.963-.963.42-.109.763-.486.763-.837 0-.35.261-.637.58-.637s.724-.239.9-.53c.176-.292.635-.646 1.02-.788.385-.141.7-.513.7-.827 0-.313.27-.673.6-.8.33-.126.6-.506.6-.842 0-.346.348-.613.8-.613.533 0 .8-.267.8-.8 0-.44.196-.8.436-.8.918 0 2.764-2.202 2.764-3.299 0-.834.194-1.101.8-1.101.444 0 .8-.267.8-.6 0-.33.27-.6.6-.6.333 0 .6-.356.6-.8 0-.533.267-.8.8-.8s.8-.267.8-.8c0-.44.251-.8.557-.8.603 0 1.043-.838 1.043-1.986 0-.396.36-.815.8-.93s.8-.496.8-.847c0-.35.27-.637.6-.637.433 0 .6-.444.6-1.6 0-1.333.133-1.6.8-1.6.44 0 .8-.249.8-.553 0-.305.36-.648.8-.763.613-.16.8-.546.8-1.647 0-1.17.148-1.437.8-1.437.533 0 .8-.267.8-.8 0-.444.267-.8.6-.8.417 0 .6-.419.6-1.373 0-1.022.205-1.438.8-1.627s.8-.605.8-1.627c0-1.106.155-1.373.8-1.373.642 0 .8-.267.8-1.353 0-1.017.199-1.406.8-1.563.613-.16.8-.546.8-1.647 0-1.011.178-1.437.6-1.437.415 0 .6-.417.6-1.353 0-1.017.199-1.406.8-1.563.68-.178.8-.546.8-2.447 0-1.97.095-2.237.8-2.237.63 0 .8-.267.8-1.256 0-.699.289-1.467.652-1.733.399-.291.73-1.281.851-2.544.134-1.389.379-2.067.748-2.067.412 0 .549-.686.549-2.753 0-2.417.098-2.779.8-2.963.711-.186.8-.546.8-3.247 0-2.77.07-3.037.8-3.037.739 0 .8-.267.8-3.504 0-3.07.099-3.565.8-4.003.753-.47.8-.933.8-7.847 0-6.044.107-7.436.6-7.846.489-.406.6-1.715.6-7.062 0-5.465-.1-6.602-.6-6.793-.505-.194-.6-1.458-.6-7.955 0-8.024-.112-8.99-1.043-8.99-.441 0-.557-.882-.557-4.237 0-3.901-.064-4.255-.8-4.447-.709-.185-.8-.546-.8-3.163 0-2.686-.072-2.953-.8-2.953-.703 0-.8-.267-.8-2.2 0-1.689-.139-2.2-.6-2.2-.462 0-.6-.515-.6-2.237 0-1.901-.12-2.269-.8-2.447-.675-.177-.8-.546-.8-2.363 0-1.886-.099-2.153-.8-2.153-.695 0-.8-.267-.8-2.037 0-1.701-.132-2.072-.8-2.247-.627-.164-.8-.546-.8-1.763 0-1.114-.17-1.553-.6-1.553-.419 0-.6-.422-.6-1.4 0-1.133-.152-1.4-.8-1.4-.667 0-.8-.267-.8-1.6s-.133-1.6-.8-1.6c-.648 0-.8-.267-.8-1.4s-.152-1.4-.8-1.4c-.667 0-.8-.267-.8-1.6 0-1.156-.167-1.6-.6-1.6-.419 0-.6-.422-.6-1.4 0-1.133-.152-1.4-.8-1.4-.652 0-.8-.267-.8-1.437 0-1.101-.187-1.487-.8-1.647-.574-.15-.8-.546-.8-1.4s-.226-1.25-.8-1.4c-.443-.116-.8-.546-.8-.963 0-.414-.27-.753-.6-.753-.368 0-.6-.374-.6-.967 0-1.381-.398-2.233-1.043-2.233-.356 0-.557-.446-.557-1.237 0-.901-.217-1.295-.8-1.447-.443-.116-.8-.546-.8-.963 0-.486-.283-.753-.8-.753-.648 0-.8-.267-.8-1.4 0-.978-.181-1.4-.6-1.4-.333 0-.6-.356-.6-.8 0-.533-.267-.8-.8-.8-.652 0-.8-.267-.8-1.437 0-1.101-.187-1.487-.8-1.647-.443-.116-.8-.546-.8-.963 0-.486-.283-.753-.8-.753-.648 0-.8-.267-.8-1.4s-.152-1.4-.8-1.4c-.533 0-.8-.267-.8-.8 0-.44-.25-.8-.555-.8-.319 0-.668-.598-.819-1.4-.157-.838-.496-1.4-.844-1.4-.32 0-.582-.36-.582-.8 0-.533-.267-.8-.8-.8-.62 0-.8-.267-.8-1.186 0-.776-.276-1.334-.8-1.614-.44-.235-.8-.692-.8-1.014s-.27-.586-.6-.586c-.333 0-.6-.356-.6-.8 0-.533-.267-.8-.8-.8-.652 0-.8-.267-.8-1.437 0-1.101-.187-1.487-.8-1.647-.44-.115-.8-.458-.8-.763 0-.304-.36-.553-.8-.553-.649 0-.8-.267-.8-1.413 0-.842-.226-1.499-.561-1.627-.308-.119-.651-.563-.762-.988-.111-.424-.489-.772-.84-.772-.37 0-.637-.335-.637-.8 0-.533-.267-.8-.8-.8-.648 0-.8-.267-.8-1.4s-.152-1.4-.8-1.4c-.533 0-.8-.267-.8-.8 0-.44-.25-.8-.555-.8-.319 0-.668-.598-.819-1.4-.157-.838-.496-1.4-.844-1.4-.32 0-.582-.36-.582-.8 0-.533-.267-.8-.8-.8s-.8-.267-.8-.8-.267-.8-.8-.8c-.648 0-.8-.267-.8-1.4 0-.978-.181-1.4-.6-1.4-.333 0-.6-.356-.6-.8 0-.533-.267-.8-.8-.8-.628 0-.8-.267-.8-1.237 0-.901-.217-1.295-.8-1.447-.443-.116-.8-.546-.8-.963 0-.486-.283-.753-.8-.753-.533 0-.8-.267-.8-.8 0-.44-.25-.8-.555-.8-.319 0-.668-.598-.819-1.4-.157-.838-.496-1.4-.844-1.4-.32 0-.582-.36-.582-.8 0-.533-.267-.8-.8-.8-.645 0-.8-.267-.8-1.373 0-1.022-.205-1.438-.8-1.627-.44-.14-.8-.602-.8-1.027 0-.506-.276-.773-.8-.773-.444 0-.8-.267-.8-.6 0-.33-.27-.6-.6-.6-.422 0-.6-.426-.6-1.437 0-1.101-.187-1.487-.8-1.647-.443-.116-.8-.546-.8-.963 0-.486-.283-.753-.8-.753-.648 0-.8-.267-.8-1.4s-.152-1.4-.8-1.4c-.645 0-.8-.267-.8-1.38 0-.759-.239-1.524-.53-1.7-.292-.176-.646-.635-.788-1.02-.141-.385-.533-.7-.869-.7-.338 0-.613-.345-.613-.767 0-1.192-.431-2.033-1.043-2.033-.306 0-.557-.36-.557-.8 0-.533-.267-.8-.8-.8-.648 0-.8-.267-.8-1.4 0-.928-.187-1.4-.555-1.4-.32 0-.669-.603-.823-1.421-.146-.782-.526-1.521-.844-1.643s-.578-.489-.578-.816-.36-.689-.8-.804c-.601-.157-.8-.546-.8-1.563 0-1.086-.158-1.353-.8-1.353-.649 0-.8-.267-.8-1.413 0-.886-.223-1.498-.6-1.642-.33-.127-.6-.571-.6-.988 0-.416-.36-1.117-.8-1.557s-.8-1.07-.8-1.4c0-.333-.356-.6-.8-.6-.648 0-.8-.267-.8-1.4s-.152-1.4-.8-1.4c-.667 0-.8-.267-.8-1.6 0-1.156-.167-1.6-.6-1.6-.404 0-.6-.404-.6-1.237 0-.901-.217-1.295-.8-1.447-.606-.159-.8-.546-.8-1.6s-.194-1.441-.8-1.6c-.564-.148-.8-.546-.8-1.349 0-.729-.287-1.293-.8-1.567-.527-.282-.8-.838-.8-1.627 0-.659-.252-1.295-.561-1.413-.308-.119-.676-.833-.818-1.588-.153-.816-.493-1.372-.839-1.372-.349 0-.582-.388-.582-.967 0-1.381-.398-2.233-1.043-2.233-.368 0-.557-.466-.557-1.373 0-1.022-.205-1.438-.8-1.627s-.8-.605-.8-1.627c0-.954-.183-1.373-.6-1.373-.4 0-.6-.4-.6-1.197 0-.763-.29-1.377-.8-1.696-.534-.333-.8-.933-.8-1.803 0-1.037-.164-1.304-.8-1.304-.667 0-.8-.267-.8-1.6s-.133-1.6-.8-1.6c-.695 0-.8-.267-.8-2.037 0-1.701-.132-2.072-.8-2.247-.601-.157-.8-.546-.8-1.563 0-.936-.185-1.353-.6-1.353-.422 0-.6-.426-.6-1.437 0-1.101-.187-1.487-.8-1.647-.665-.174-.8-.546-.8-2.2s-.135-2.026-.8-2.2c-.627-.164-.8-.546-.8-1.763 0-1.286-.137-1.553-.8-1.553-.694 0-.8-.267-.8-2.013 0-1.419-.177-2.08-.6-2.242-.375-.144-.6-.755-.6-1.625 0-1.058-.193-1.445-.8-1.604-.665-.174-.8-.546-.8-2.2s-.135-2.026-.8-2.2-.8-.546-.8-2.2-.135-2.026-.8-2.2c-.443-.116-.8-.546-.8-.963 0-.414-.27-.753-.6-.753s-.6-.18-.6-.4-.99-.4-2.2-.4-2.2.169-2.2.376m27.367 192.267c.568.218.633 2.758.633 24.6 0 23.824.018 24.375.8 25.157.783.783 1.333.8 25.957.8 22.571 0 25.182.065 25.4.633.549 1.431.266 47.25-.294 47.715-.38.315-8.028.476-26.1.549l-25.563.103-.103 24.363c-.073 17.184-.235 24.521-.549 24.9-.661.796-51.635.796-52.296 0-.314-.379-.476-7.716-.549-24.9l-.103-24.363-25.4-.2c-13.97-.11-25.625-.346-25.9-.524-.968-.626-.7-47.341.274-47.862.509-.272 9.18-.414 25.371-.414 21.828 0 24.669-.071 25.226-.629.558-.557.629-3.37.629-24.92 0-18.36.117-24.408.48-24.771.509-.509 50.783-.738 52.087-.237" />
    </g>
</svg>