<svg id="svg" xmlns="http://www.w3.org/2000/svg" xmlns:xlink="http://www.w3.org/1999/xlink" width="400" height="400" viewBox="0, 0, 400,400" version="1.1"><g id="svgg"><path id="path0" d="M192.962 19.922 C 181.519 26.507,107.722 69.092,72.780 89.274 L 40.745 107.778 40.805 200.213 L 40.864 292.649 51.975 299.070 C 58.086 302.602,92.309 322.354,128.025 342.964 C 163.741 363.573,194.587 381.374,196.572 382.522 L 200.180 384.608 215.090 375.991 C 223.291 371.251,259.195 350.530,294.877 329.944 L 359.754 292.515 359.692 200.161 L 359.630 107.807 355.309 105.301 C 329.700 90.448,200.327 15.802,200.193 15.802 C 200.154 15.802,196.900 17.656,192.962 19.922 M218.296 59.093 C 266.783 87.054,305.828 109.583,317.778 116.493 L 330.988 124.131 331.041 200.152 L 331.095 276.173 328.078 277.888 C 326.419 278.831,309.506 288.594,290.494 299.584 C 204.690 349.181,200.243 351.709,199.530 351.290 C 199.177 351.083,187.944 344.612,174.568 336.910 C 151.789 323.795,137.529 315.563,88.889 287.451 L 69.259 276.106 69.197 200.187 L 69.135 124.267 98.827 107.099 C 115.157 97.657,144.296 80.845,163.580 69.739 C 182.864 58.634,198.975 49.344,199.383 49.095 C 199.790 48.847,200.135 48.643,200.148 48.643 C 200.162 48.642,208.328 53.345,218.296 59.093 " stroke="none" fill="#fbfbfb" fill-rule="evenodd"></path><path id="path1" d="M199.189 3.882 C 198.241 4.024,146.992 33.411,81.728 71.237 C 37.861 96.661,31.910 100.185,30.309 101.680 L 29.630 102.315 29.635 200.108 C 29.640 292.394,29.665 297.931,30.067 298.424 C 31.118 299.712,33.393 301.062,82.222 329.378 C 164.890 377.317,198.397 396.359,200.123 396.383 C 201.584 396.403,205.202 394.389,254.074 366.346 C 319.959 328.540,368.167 300.421,370.062 298.692 L 370.617 298.186 370.617 200.311 C 370.617 136.323,370.533 102.279,370.373 101.981 C 369.768 100.849,330.729 78.015,255.679 34.894 C 201.215 3.601,201.184 3.584,199.189 3.882 M234.503 35.455 C 253.076 46.155,288.383 66.533,312.963 80.740 C 337.543 94.947,358.127 106.836,358.704 107.158 L 359.754 107.746 359.692 200.203 L 359.630 292.660 348.519 299.075 C 342.407 302.603,308.185 322.352,272.469 342.962 C 236.753 363.572,205.879 381.390,203.860 382.557 L 200.189 384.680 170.156 367.360 C 129.325 343.812,82.328 316.690,59.444 303.467 L 40.493 292.517 40.555 200.155 L 40.617 107.793 44.074 105.788 C 52.957 100.635,127.360 57.650,143.951 48.086 C 154.204 42.176,170.981 32.496,181.235 26.577 C 191.741 20.511,200.064 15.855,200.305 15.908 C 200.541 15.959,215.930 24.756,234.503 35.455 " stroke="none" fill="#040404" fill-rule="evenodd"></path><path id="path2" d="M199.383 49.095 C 198.975 49.344,182.864 58.634,163.580 69.739 C 144.296 80.845,115.157 97.657,98.827 107.099 L 69.135 124.267 69.197 200.187 L 69.259 276.106 88.889 287.451 C 137.529 315.563,151.789 323.795,174.568 336.910 C 187.944 344.612,199.177 351.083,199.530 351.290 C 200.243 351.709,204.690 349.181,290.494 299.584 C 309.506 288.594,326.419 278.831,328.078 277.888 L 331.095 276.173 331.041 200.152 L 330.988 124.131 317.778 116.493 C 298.520 105.357,200.193 48.641,200.148 48.643 C 200.135 48.643,199.790 48.847,199.383 49.095 M40.555 200.171 C 40.521 250.987,40.577 292.615,40.679 292.678 C 40.846 292.781,40.846 230.967,40.678 141.235 C 40.644 122.833,40.588 149.355,40.555 200.171 " stroke="none" fill="#8b0404" fill-rule="evenodd"></path></g></svg>