<svg viewBox="0 0 578.7 578.7" xmlns="http://www.w3.org/2000/svg"><path d="m289.35 573.7a14.56 14.56 0 0 1 -10.35-4.29l-269.71-269.69a14.68 14.68 0 0 1 0-20.74l269.71-269.69a14.68 14.68 0 0 1 20.74 0l269.67 269.71a14.68 14.68 0 0 1 0 20.74l-269.69 269.67a14.56 14.56 0 0 1 -10.37 4.29" fill="#9b342f"/><g fill="#fff"><path d="m289.35 10a9.62 9.62 0 0 1 6.85 2.83l269.66 269.66a9.69 9.69 0 0 1 0 13.71l-269.66 269.66a9.69 9.69 0 0 1 -13.71 0l-269.66-269.66a9.71 9.71 0 0 1 0-13.71l269.66-269.66a9.66 9.66 0 0 1 6.86-2.83m0-10a19.67 19.67 0 0 0 -13.92 5.77l-269.66 269.66a19.67 19.67 0 0 0 0 27.83l269.66 269.66a19.64 19.64 0 0 0 27.83 0l269.66-269.66a19.65 19.65 0 0 0 0-27.83l-269.66-269.66a19.65 19.65 0 0 0 -13.91-5.77"/><path d="m249.29 377a8 8 0 0 1 -5.94-4.26l-88.65-173.15c-2-3.92.81-6.38 4.76-8.41s7.47-2.8 9.49 1.12l88.62 173.11a8 8 0 0 1 -8.28 11.59"/><path d="m224 249.85c-1.49 11.18-1.79 23.57-1.79 23.57s-32.56-64.5-36.64-72.71c8.34-5.91 10.16-19 12.42-29.71 7.81 4.39 9.36 25.46 14.76 34.31 1.52 2.46 4.16 2.83 6.28-2 7.43 10.51 6.83 32.53 5 46.54"/><path d="m169.46 278.39c10 5.27 20.26 12.23 20.26 12.23s-33.7-63.93-38.06-72c-9.62 3.34-21.37-2.74-31.4-7.13-1 8.95 15.33 22.39 19.38 31.95 1.15 2.67-.07 5-5.23 3.95 4.25 12.16 22.56 24.38 35.05 31"/><path d="m294.6 426.86c17.12-9.76 31.17-12 42.89-11.31 5.14.3 13.61 3.51 19.62 8.71 13.51-3.75 40.05-6.14 46.71-10.13a3.56 3.56 0 0 0 1.72-2.6c.47-3.71 2.9-26.91 2-36.17-1.25-12-17.06-70-17.33-73.48-1-13.51 9.66-76.22 10.44-79.06.64-2.36 13.07-24.21 17.19-31.44a2.7 2.7 0 0 0 -1-3.68c-14.49-8.28-34.41-12.7-34.41-12.7s2.5-6.21 3.88-10.77a2.39 2.39 0 0 0 -2-3c-40.22-7-76.59-3.11-104.28 10.09a3.37 3.37 0 0 0 -1.66 4.26c2.77 6.92 5.88 19.11 8.55 32.69l33.84-2.94a9.65 9.65 0 0 1 1 19.28l-31.58 2.84a260 260 0 0 1 3 32.35l27.93-2.63a9.62 9.62 0 0 1 10.1 9.15 9.68 9.68 0 0 1 -9.12 10.13l-30.09 2.77c0 26.24-14.32 41.13-21.21 58.59-6.92 4.25-36.4 9.76-58.55 18.74l-29.59-3.17c-11.31 8.61-17.36 31.24-9.79 45.35 13.1 8.51 62.54 29.15 121.74 28.13"/></g></svg>