<svg height="580" viewBox="0 0 580 580" width="580" xmlns="http://www.w3.org/2000/svg" xmlns:xlink="http://www.w3.org/1999/xlink"><clipPath id="a"><path d="m-10-10h600v600h-600z"/></clipPath><g clip-path="url(#a)"><path d="m290 574.35c-3.92 0-7.6-1.52-10.37-4.29l-269.69-269.69c-2.77-2.77-4.29-6.45-4.29-10.37 0-3.91 1.52-7.59 4.29-10.36l269.69-269.7c2.77-2.77 6.45-4.29 10.37-4.29s7.6 1.52 10.37 4.29l269.69 269.7c2.77 2.77 4.29 6.45 4.29 10.36 0 3.92-1.52 7.6-4.29 10.37l-269.69 269.69c-2.77 2.77-6.45 4.29-10.37 4.29z" fill="#a5322b"/><g fill="#fff"><path d="m303.91 6.43 269.66 269.66c7.7 7.7 7.7 20.16 0 27.82l-269.66 269.66c-3.85 3.85-8.88 5.78-13.91 5.78s-10.06-1.93-13.91-5.78l-269.66-269.66c-7.7-7.66-7.7-20.12 0-27.82l269.66-269.66c3.85-3.85 8.88-5.78 13.91-5.78s10.06 1.93 13.91 5.78zm-20.77 7.05-269.66 269.66c-3.78 3.79-3.78 9.93 0 13.72l269.66 269.66c1.83 1.82 4.26 2.83 6.86 2.83s5.03-1.01 6.86-2.83l269.66-269.66c3.78-3.79 3.78-9.93 0-13.72l-269.66-269.66c-1.83-1.82-4.26-2.83-6.86-2.83s-5.03 1.01-6.86 2.83z" fill-rule="evenodd"/><path d="m249.94 377.61c-2.46-.37-4.72-1.89-5.94-4.26l-88.65-173.11c-1.99-3.91.81-6.38 4.76-8.4 3.92-2 7.47-2.81 9.49 1.11l88.62 173.11c2.02 3.92.47 8.75-3.45 10.74-1.55.81-3.24 1.04-4.83.81z"/><path d="m224.63 250.5c-.99 7.45-1.59 15.31-1.79 23.57-21.7-43-33.92-67.23-36.64-72.7 8.34-5.91 10.16-18.98 12.43-29.72 7.8 4.39 9.35 25.46 14.75 34.31 1.52 2.46 4.16 2.84 6.29-1.99 7.43 10.5 6.82 32.52 4.96 46.53z"/><path d="m170.11 279.04c6.65 3.52 13.4 7.59 20.27 12.23-22.47-42.62-35.16-66.62-38.06-72-9.63 3.34-21.38-2.73-31.41-7.12-.95 8.94 15.33 22.39 19.38 31.94 1.15 2.67-.06 5-5.23 3.95 4.25 12.16 22.56 24.39 35.05 31z"/><path d="m295.25 427.51c17.13-9.75 31.18-11.98 42.89-11.31 5.14.31 13.61 3.51 19.62 8.71 13.51-3.74 40.06-6.14 46.71-10.13.94-.57 1.59-1.52 1.72-2.6.47-3.71 2.91-26.91 1.96-36.17-1.25-11.98-17.05-70.04-17.32-73.48-.98-13.51 9.65-76.22 10.43-79.06.64-2.36 13.07-24.21 17.19-31.44.74-1.28.3-2.94-.98-3.68-9.66-5.52-21.13-9.75-34.41-12.7 1.66-4.14 2.96-7.73 3.88-10.77.41-1.35-.57-2.74-1.96-2.97-40.22-6.96-76.59-3.11-104.28 10.09-1.59.78-2.3 2.64-1.66 4.26 2.77 6.92 5.88 19.11 8.55 32.69l33.84-2.94c2.12-.1 4.15.47 5.84 1.59 2.43 1.65 4.12 4.39 4.29 7.56.27 5.31-3.82 9.87-9.12 10.14l-31.58 2.83c1.73 11.72 2.91 23.24 3.04 32.35l27.93-2.63c2.13-.1 4.16.47 5.81 1.59 2.47 1.65 4.15 4.39 4.29 7.56.27 5.3-3.82 9.83-9.12 10.13l-30.16 2.74c0 26.24-14.31 41.13-21.2 58.59-6.93 4.26-36.41 9.76-58.56 18.74-15.94-1.71-25.8-2.77-29.59-3.17-11.31 8.61-17.35 31.24-9.79 45.35 13.1 8.51 62.54 29.15 121.74 28.13z"/></g></g></svg>