<svg id="svg" version="1.1" xmlns="http://www.w3.org/2000/svg" xmlns:xlink="http://www.w3.org/1999/xlink" width="400" height="400" viewBox="0, 0, 400,400"><g id="svgg"><path id="path0" d="M128.490 125.056 C 127.319 129.636,126.070 134.554,125.715 135.985 L 125.069 138.587 134.906 152.339 C 144.800 166.172,153.239 177.882,153.646 178.343 C 154.005 178.750,158.683 161.423,159.182 157.839 L 159.370 156.489 146.825 138.935 C 135.414 122.966,130.882 116.729,130.690 116.729 C 130.652 116.729,129.662 120.476,128.490 125.056 M253.713 118.860 C 249.507 119.300,244.240 120.568,236.935 122.901 C 227.338 125.965,223.704 126.630,216.547 126.633 C 214.873 126.633,211.377 126.722,208.777 126.830 L 204.051 127.026 204.051 128.404 C 204.052 130.475,204.949 137.028,207.773 155.589 C 215.413 205.810,215.074 201.854,212.262 207.952 C 210.577 211.606,195.923 235.389,193.055 239.126 C 193.006 239.190,191.713 239.308,190.181 239.388 L 187.397 239.534 154.946 194.110 C 117.213 141.295,113.076 135.572,112.026 134.746 C 109.975 133.133,106.527 134.920,106.527 137.596 C 106.527 138.269,174.513 234.268,178.590 239.352 C 178.788 239.600,178.132 239.793,176.229 240.046 C 166.884 241.289,160.018 242.775,154.663 244.713 L 151.828 245.739 145.652 244.475 L 139.475 243.211 138.043 244.765 C 134.353 248.771,131.141 258.385,131.135 265.449 L 131.133 267.281 133.458 269.359 C 151.094 285.112,172.792 293.733,195.180 293.880 L 201.764 293.923 202.413 291.142 C 202.770 289.612,203.128 288.295,203.208 288.215 C 204.444 286.979,231.616 286.947,233.961 288.179 C 235.189 288.824,237.055 290.883,238.840 293.563 C 241.136 297.012,241.991 297.040,252.663 294.022 C 270.002 289.117,281.869 283.851,283.742 280.230 C 285.780 276.288,281.836 244.389,275.144 210.695 L 273.633 203.085 275.576 197.641 C 286.638 166.650,291.141 136.042,286.300 124.748 C 285.606 123.128,285.220 122.954,278.620 121.293 C 269.276 118.941,260.831 118.117,253.713 118.860 M83.121 150.766 C 83.121 151.168,102.409 176.762,111.423 188.322 L 112.847 190.147 120.714 190.504 C 125.042 190.700,130.120 190.942,132.000 191.042 C 134.858 191.195,135.376 191.157,135.166 190.811 C 134.694 190.032,121.349 172.100,113.756 162.041 C 107.183 153.333,106.041 151.962,105.222 151.795 C 104.316 151.610,96.956 151.177,87.547 150.755 C 85.113 150.646,83.121 150.651,83.121 150.766 " stroke="none" fill="#fbfbfb" fill-rule="evenodd"></path><path id="path1" d="M197.449 1.230 C 195.454 1.754,1.655 196.152,1.189 198.098 C 0.355 201.572,0.296 201.479,8.931 210.202 C 15.235 216.571,15.483 216.847,10.278 211.705 C 6.770 208.241,3.901 205.541,3.901 205.704 C 3.901 206.224,192.812 394.934,193.084 394.686 C 193.227 394.555,193.260 394.598,193.156 394.780 C 192.920 395.194,194.251 396.488,194.594 396.177 C 194.732 396.051,194.757 396.102,194.650 396.290 C 194.543 396.478,194.656 396.798,194.902 397.002 C 195.148 397.206,195.349 397.263,195.349 397.130 C 195.349 396.996,195.762 397.283,196.267 397.767 C 197.097 398.562,197.415 398.657,199.566 398.755 L 201.945 398.863 214.014 387.053 C 248.471 353.337,379.926 222.105,393.493 207.878 L 398.539 202.587 398.708 200.948 C 398.955 198.554,398.617 197.282,397.357 195.875 C 396.748 195.193,396.452 194.746,396.699 194.880 C 396.947 195.015,354.141 152.099,301.576 99.513 C 249.010 46.926,205.872 3.901,205.714 3.901 C 205.556 3.901,206.027 4.542,206.761 5.326 C 207.495 6.110,206.870 5.561,205.372 4.105 C 202.108 0.935,200.624 0.397,197.449 1.230 M204.863 3.292 C 205.142 3.617,205.430 3.823,205.503 3.749 C 205.682 3.570,204.947 2.701,204.617 2.701 C 204.474 2.701,204.585 2.967,204.863 3.292 M132.520 119.055 C 133.489 120.334,139.926 129.280,146.825 138.935 L 159.370 156.489 159.182 157.839 C 158.683 161.423,154.005 178.750,153.646 178.343 C 153.239 177.882,144.800 166.172,134.906 152.339 L 125.069 138.587 125.715 135.985 C 127.254 129.781,130.626 116.729,130.690 116.729 C 130.729 116.729,131.552 117.776,132.520 119.055 M263.466 118.839 C 269.218 119.195,273.219 119.863,279.612 121.533 C 286.073 123.221,285.927 123.111,287.124 127.232 C 290.666 139.429,285.831 168.913,275.576 197.641 L 273.633 203.085 275.144 210.695 C 281.836 244.389,285.780 276.288,283.742 280.230 C 281.869 283.851,270.002 289.117,252.663 294.022 C 241.991 297.040,241.136 297.012,238.840 293.563 C 237.055 290.883,235.189 288.824,233.961 288.179 C 231.616 286.947,204.444 286.979,203.208 288.215 C 203.128 288.295,202.770 289.612,202.413 291.142 L 201.764 293.923 195.180 293.880 C 172.792 293.733,151.094 285.112,133.458 269.359 L 131.133 267.281 131.135 265.449 C 131.141 258.385,134.353 248.771,138.043 244.765 L 139.475 243.211 145.652 244.475 L 151.828 245.739 154.663 244.713 C 160.018 242.775,166.884 241.289,176.229 240.046 C 178.132 239.793,178.788 239.600,178.590 239.352 C 174.513 234.268,106.527 138.269,106.527 137.596 C 106.527 134.920,109.975 133.133,112.026 134.746 C 113.076 135.572,117.213 141.295,154.946 194.110 L 187.397 239.534 190.181 239.388 C 191.713 239.308,193.006 239.190,193.055 239.126 C 195.923 235.389,210.577 211.606,212.262 207.952 C 215.074 201.854,215.413 205.810,207.773 155.589 C 204.949 137.028,204.052 130.475,204.051 128.404 L 204.051 127.026 208.777 126.830 C 211.377 126.722,214.873 126.633,216.547 126.633 C 223.704 126.630,227.338 125.965,236.935 122.901 C 249.262 118.965,253.938 118.249,263.466 118.839 M98.125 151.278 C 101.508 151.456,104.702 151.689,105.222 151.795 C 106.041 151.962,107.183 153.333,113.756 162.041 C 121.349 172.100,134.694 190.032,135.166 190.811 C 135.376 191.157,134.858 191.195,132.000 191.042 C 130.120 190.942,125.042 190.700,120.714 190.504 L 112.847 190.147 111.423 188.322 C 102.409 176.762,83.121 151.168,83.121 150.766 C 83.121 150.556,86.789 150.681,98.125 151.278 M2.701 204.617 C 2.701 204.947,3.570 205.682,3.749 205.503 C 3.823 205.430,3.617 205.142,3.292 204.863 C 2.967 204.585,2.701 204.474,2.701 204.617 " stroke="none" fill="#9c2c2c" fill-rule="evenodd"></path></g></svg>