<svg viewBox="0 0 36 36" xmlns="http://www.w3.org/2000/svg"><rect fill="#77066b" height="25.95" rx="1.44" transform="matrix(.70710678 -.70710678 .70710678 .70710678 -7.46 17.99)" width="25.95" x="5.02" y="5.02"/><g fill="#fff"><path d="m18 24a5.53 5.53 0 1 1 5.53-5.52 5.55 5.55 0 0 1 -5.53 5.52zm0-12.27a6.76 6.76 0 1 0 6.75 6.75 6.73 6.73 0 0 0 -6.75-6.8zm6.38 15.25a4.66 4.66 0 0 1 -4.65-4.68 4.61 4.61 0 0 1 1.39-3.31c0-.06.08-.09.11-.12a.27.27 0 0 0 .14-.14c.06 0 .08-.08.14-.11s.06 0 .06-.06.06 0 .08-.05a4.78 4.78 0 0 1 2.36-.83h.31a4.63 4.63 0 0 1 4.25 2.78s0 0 .06.06c0-.2 0-.4-.06-.6a6.63 6.63 0 0 0 -3.26-4.92.93.93 0 0 1 -.56-1 6.35 6.35 0 0 0 -1.51-4.31 6.24 6.24 0 0 0 -1.53-1.33 4.57 4.57 0 0 1 .34 5.13 1 1 0 0 0 -.11.23s0 0 0 0a4.49 4.49 0 0 1 -1.5 1.47 4.15 4.15 0 0 1 -2.15.65h-.4a4.63 4.63 0 0 1 -4.51-4.64 4.46 4.46 0 0 1 .94-2.78.1.1 0 0 0 -.06 0 6.68 6.68 0 0 0 -3 5.95c0 .17 0 .28-.14.37a6.48 6.48 0 0 0 -3.49 4.26c-.15.49-.2 1-.32 1.45h.06a4.64 4.64 0 0 1 4.28-2.84h.35a4.89 4.89 0 0 1 1.9.57 4.59 4.59 0 0 1 2.41 4 4.83 4.83 0 0 1 -.4 1.93l-.08.14a4.64 4.64 0 0 1 -4.17 2.61 3.31 3.31 0 0 1 -.54-.06 6.73 6.73 0 0 0 6.88-.44 6.67 6.67 0 0 0 6.89.51 3.31 3.31 0 0 1 -.51.06z"/><path d="m.34 17.18 16.84-16.84a1.16 1.16 0 0 1 1.64 0l16.84 16.84a1.16 1.16 0 0 1 0 1.64l-16.84 16.84a1.16 1.16 0 0 1 -1.64 0l-16.84-16.84a1.16 1.16 0 0 1 0-1.64zm17.43-16.24-16.83 16.83a.34.34 0 0 0 0 .46l16.83 16.83a.34.34 0 0 0 .46 0l16.83-16.83a.34.34 0 0 0 0-.46l-16.83-16.83a.34.34 0 0 0 -.46 0z" fill-rule="evenodd"/></g></svg>