<svg height="580" viewBox="0 0 580 580" width="580" xmlns="http://www.w3.org/2000/svg" xmlns:xlink="http://www.w3.org/1999/xlink"><clipPath id="a"><path d="m590 590h-600v-600h600z"/></clipPath><g clip-path="url(#a)"><path d="m290 574.34c-3.92 0-7.6-1.51-10.38-4.29l-269.65-269.65c-2.78-2.78-4.3-6.46-4.3-10.38s1.52-7.64 4.3-10.39l269.65-269.68c2.78-2.75 6.46-4.3 10.38-4.3s7.6 1.55 10.38 4.3l269.65 269.68c2.78 2.75 4.3 6.47 4.3 10.39s-1.52 7.6-4.3 10.38l-269.65 269.65c-2.78 2.78-6.46 4.29-10.38 4.29z" fill="#803449"/><path d="m303.93 6.45 269.64 269.64c7.7 7.7 7.7 20.15 0 27.82l-269.64 269.68c-3.86 3.82-8.91 5.74-13.93 5.74s-10.07-1.92-13.93-5.74l-269.64-269.68c-7.7-7.67-7.7-20.12 0-27.82l269.64-269.64c3.86-3.86 8.91-5.78 13.93-5.78s10.07 1.92 13.93 5.78zm-20.77 7.04-269.65 269.68c-3.78 3.75-3.78 9.91 0 13.69l269.65 269.65c1.82 1.82 4.26 2.85 6.84 2.85s5.02-1.03 6.84-2.85l269.65-269.65c3.78-3.78 3.78-9.94 0-13.69l-269.65-269.68c-1.82-1.82-4.26-2.82-6.84-2.82s-5.02 1-6.84 2.82z" fill="#fff" fill-rule="evenodd"/><path d="m407.79 350.35c-12.41 34.83-32.56 50.62-30.05 69.49-12.14-7.9-9.01-42.12-25.76-45.32-16.3-3.12-33.04 17.64-39.2 27.34-21.01-12.07-17.81-37.55-31.05-45.46-11.24-6.74-40.71 20.63-46.62 28.58-3.44 4.61-2.65 10 .1 14.92 3.65 6.57 22.9 47.97 9.01 68.01.21-11.58-15.37-35.93-28.71-51.47-40.78-47.38-34.63-100.71-14.92-131.28 8.56-13.27 17.57-24.21 21.45-42.23-18.67-4.47-35.31 5.88-54.43 24.9-11.42-8.77-16.57-32.53-11.17-42.57 8.14-15.13 42.77-15.78 64.12-13.99-28.47-32.95-32.22-61.17-18.26-76.85 10.66-12.04 27 2.88 43.57 11.55 16.57 8.66 33.35 11.11 37.38 10.66 8.01-.9 32.9-32.91 52.47-42.67 19.56-9.8 29.36 21.01 21.35 41.46 11.52 7.36 26.79-2.09 38.44-.13 4.65.79 8.26 4.47 9.15 9.11 3.75 19.77-16.33 46.49-25.38 58.83-3.57 4.88-3.57 11.55.04 16.44 32.15 43.29 40.92 75.88 28.47 110.68zm-50.62-130.08c-27.99-5.15-48.58 7.57-81.04 1.31-13.24-2.58-33.18-5.47-39.82-5.16-3.39 8-3.83 16.35-1.31 25.04 27.28 3.3 46.92 4.97 58.91 5.02 27.33.13 39.06-10.66 65.36-13 .76-3.03.76-6.81-2.1-13.21z" fill="#fff" fill-rule="evenodd"/><path d="m325.63 346.98c-2.34 0-4.58-.86-6.33-2.38l-1.07-.93c-3.92-3.43-4.4-9.31-1.06-13.34l.1-.13 18.16-19.74-19.91-19.74-.14-.17c-2.65-2.99-3.16-7.19-1.31-10.73l.52-1.03c1.65-3.23 4.92-5.19 8.53-5.19 2.64 0 5.19 1.1 7.01 3.02l18.09 20.19 14.23-18.71.28-.27c1.82-1.82 4.26-2.82 6.84-2.82 2.85 0 5.57 1.27 7.39 3.51l1.55 1.85c3.13 3.82 2.89 9.35-.62 12.86l-17.05 17.26 15.74 17.68c2.89 3.23 3.24 8.01.86 11.62l-.55.86c-1.78 2.72-4.78 4.33-8.04 4.33-2.58 0-5.13-1.06-6.91-2.96l-.21-.2-13.48-17.13-15.33 18.92-.07.06c-1.83 2.1-4.44 3.31-7.22 3.31z" fill="#803449"/></g></svg>