<svg id="svg" version="1.1" xmlns="http://www.w3.org/2000/svg" xmlns:xlink="http://www.w3.org/1999/xlink" width="400" height="400" viewBox="0, 0, 400,400"><g id="svgg"><path id="path0" d="M192.368 69.944 C 184.564 71.475,179.659 74.795,179.703 78.516 C 179.763 83.515,182.872 84.659,189.497 82.119 C 191.478 81.359,193.841 80.531,194.749 80.278 C 198.666 79.187,200.409 76.707,199.536 73.466 C 198.748 70.542,196.059 69.220,192.368 69.944 M212.903 73.644 C 208.663 75.536,208.740 80.310,213.063 83.505 C 214.130 84.294,216.037 85.877,217.299 87.023 C 221.330 90.682,223.534 91.255,226.085 89.309 C 230.040 86.293,228.542 82.077,221.587 76.646 C 217.580 73.518,215.104 72.661,212.903 73.644 M169.335 89.544 C 167.213 90.507,165.466 94.417,164.732 99.846 C 163.838 106.453,165.261 109.526,169.321 109.755 C 172.904 109.956,174.343 108.403,174.951 103.676 C 175.142 102.191,175.556 99.795,175.871 98.353 C 176.906 93.614,176.535 91.595,174.326 89.959 C 173.299 89.199,170.591 88.974,169.335 89.544 M227.607 100.005 C 225.926 100.943,225.114 102.712,224.734 106.257 C 224.567 107.808,224.148 110.225,223.801 111.628 C 222.565 116.630,223.462 119.122,226.821 120.017 C 231.473 121.257,234.773 116.277,235.185 107.393 C 235.485 100.925,232.016 97.543,227.607 100.005 M175.094 119.183 C 170.601 120.843,170.427 125.223,174.680 129.597 C 181.160 136.260,186.377 137.822,189.061 133.901 C 190.874 131.252,189.814 128.274,185.980 125.246 C 184.779 124.297,182.949 122.737,181.914 121.780 C 179.111 119.186,177.128 118.431,175.094 119.183 M212.003 126.531 C 211.013 126.963,208.532 127.891,206.490 128.593 C 204.448 129.295,202.423 130.134,201.989 130.458 C 199.096 132.614,199.472 137.533,202.644 139.038 C 206.947 141.080,219.350 136.015,220.121 131.901 C 220.993 127.258,216.758 124.457,212.003 126.531 M192.435 153.891 C 187.775 154.523,184.735 164.198,188.092 167.717 C 190.732 170.485,194.864 169.569,196.705 165.807 L 197.520 164.141 199.881 164.141 L 202.242 164.141 203.137 165.914 C 206.114 171.811,213.486 169.858,212.976 163.308 C 212.593 158.391,210.662 154.686,208.244 154.229 C 206.422 153.885,194.380 153.627,192.435 153.891 M184.096 182.206 C 181.632 183.063,181.046 184.252,178.798 192.948 C 177.463 198.113,177.378 200.149,178.439 201.569 C 181.053 205.071,186.626 204.140,187.830 200.000 C 189.977 192.616,191.143 187.143,190.824 185.948 C 190.050 183.055,186.820 181.258,184.096 182.206 M211.991 182.393 C 208.367 184.088,208.201 185.706,210.668 195.282 C 212.520 202.470,213.378 203.601,216.978 203.601 C 222.083 203.601,222.978 200.787,220.709 191.863 C 218.384 182.721,216.249 180.401,211.991 182.393 M362.478 239.094 C 343.423 258.189,331.950 269.752,336.984 264.789 C 357.849 244.220,397.419 204.671,397.277 204.529 C 397.193 204.444,381.533 219.999,362.478 239.094 M175.125 216.666 C 172.505 217.450,169.536 224.860,168.757 232.558 C 168.224 237.823,174.862 240.389,178.012 236.136 C 179.050 234.733,181.840 224.028,181.837 221.455 C 181.833 218.013,178.521 215.649,175.125 216.666 M220.858 216.911 C 217.600 218.658,217.346 220.359,219.201 227.980 C 221.337 236.756,222.620 238.535,226.539 238.151 C 231.742 237.641,232.140 234.366,228.513 221.935 C 227.083 217.035,224.179 215.130,220.858 216.911 M166.216 251.150 C 164.912 251.545,163.986 252.301,163.288 253.543 C 162.559 254.841,160.063 264.266,159.755 266.883 C 158.963 273.627,168.063 275.011,169.974 268.437 C 171.681 262.563,173.179 256.067,173.014 255.245 C 172.419 252.267,169.109 250.273,166.216 251.150 M230.002 251.281 C 227.353 252.435,226.530 254.722,227.307 258.768 C 229.614 270.779,232.040 274.194,236.935 272.324 C 240.398 271.002,240.735 268.813,238.702 260.840 C 236.411 251.855,234.217 249.444,230.002 251.281 M320.471 281.095 L 318.530 283.121 320.555 281.179 C 322.437 279.375,322.718 279.070,322.497 279.070 C 322.451 279.070,321.539 279.981,320.471 281.095 M315.370 286.197 L 313.428 288.222 315.454 286.280 C 317.335 284.477,317.617 284.171,317.396 284.171 C 317.350 284.171,316.438 285.083,315.370 286.197 M156.449 285.947 C 153.459 287.770,151.368 294.879,152.883 298.072 C 154.119 300.676,161.333 303.452,164.312 302.469 C 168.233 301.175,168.732 295.353,165.118 293.072 C 164.020 292.378,163.972 292.280,163.948 290.663 C 163.892 286.728,159.597 284.027,156.449 285.947 M239.010 285.780 C 236.917 286.753,235.778 288.756,235.894 291.259 C 235.963 292.763,235.920 292.853,234.433 294.301 C 229.647 298.963,234.239 305.258,240.553 302.693 C 246.986 300.078,248.398 297.414,246.674 291.140 C 245.348 286.314,242.358 284.223,239.010 285.780 M178.989 297.492 C 175.168 299.158,174.855 304.926,178.485 306.794 C 180.510 307.836,189.823 309.011,192.064 308.507 C 197.041 307.389,196.812 300.226,191.748 298.626 C 188.328 297.545,180.470 296.847,178.989 297.492 M212.453 298.742 C 205.427 299.529,202.886 302.145,205.026 306.388 C 206.431 309.173,210.353 309.997,217.236 308.952 C 222.542 308.146,224.307 306.751,224.286 303.377 C 224.256 298.726,221.664 297.710,212.453 298.742 M252.730 348.832 C 226.039 375.483,204.336 397.291,204.501 397.294 C 204.667 397.297,226.610 375.491,253.263 348.837 C 279.917 322.183,301.620 300.375,301.492 300.375 C 301.363 300.375,279.421 322.181,252.730 348.832 " stroke="none" fill="#fbfbfb" fill-rule="evenodd"></path><path id="path1" d="M197.183 1.365 C 195.867 1.936,187.153 10.575,103.521 94.213 C 16.129 181.613,1.879 195.988,1.331 197.299 C 0.759 198.669,0.781 201.450,1.374 202.597 C 2.392 204.566,105.791 308.493,169.842 371.926 C 197.472 399.289,196.701 398.579,198.962 398.742 C 202.672 399.011,199.688 401.683,235.205 366.296 C 318.300 283.508,398.119 203.412,398.481 202.456 C 398.656 201.991,398.800 200.739,398.800 199.673 L 398.800 197.734 396.940 195.716 C 382.984 180.568,204.986 2.455,202.739 1.389 C 201.458 0.781,198.557 0.768,197.183 1.365 M196.085 69.950 C 201.666 71.500,200.747 78.607,194.749 80.278 C 193.841 80.531,191.478 81.359,189.497 82.119 C 184.132 84.176,181.674 83.952,180.288 81.281 C 179.497 79.755,179.500 77.137,180.295 75.850 C 182.262 72.667,192.326 68.907,196.085 69.950 M217.514 73.974 C 220.677 75.446,226.388 80.483,227.671 82.932 C 229.324 86.088,227.067 89.956,223.395 90.261 C 221.405 90.426,220.544 89.969,217.299 87.023 C 216.037 85.877,214.130 84.294,213.063 83.505 C 206.809 78.883,210.604 70.757,217.514 73.974 M174.326 89.959 C 176.535 91.595,176.906 93.614,175.871 98.353 C 175.556 99.795,175.142 102.191,174.951 103.676 C 174.343 108.403,172.904 109.956,169.321 109.755 C 164.427 109.480,163.054 103.610,165.822 94.797 C 167.401 89.770,171.173 87.625,174.326 89.959 M231.708 99.634 C 234.306 100.355,235.398 102.793,235.185 107.393 C 234.773 116.277,231.473 121.257,226.821 120.017 C 223.462 119.122,222.565 116.630,223.801 111.628 C 224.148 110.225,224.567 107.808,224.734 106.257 C 225.328 100.709,227.648 98.506,231.708 99.634 M179.170 119.593 C 179.645 119.838,180.879 120.822,181.914 121.780 C 182.949 122.737,184.779 124.297,185.980 125.246 C 191.358 129.494,191.129 135.210,185.545 136.103 C 182.588 136.576,174.184 130.492,172.237 126.468 C 169.966 121.778,174.569 117.214,179.170 119.593 M217.578 126.344 C 222.158 128.680,220.896 133.819,215.037 136.688 C 206.161 141.033,200.021 140.183,200.021 134.610 C 200.021 131.515,201.211 130.409,206.490 128.593 C 208.532 127.891,211.013 126.963,212.003 126.531 C 214.182 125.581,215.965 125.521,217.578 126.344 M208.244 154.229 C 210.662 154.686,212.593 158.391,212.976 163.308 C 213.486 169.858,206.114 171.811,203.137 165.914 L 202.242 164.141 199.881 164.141 L 197.520 164.141 196.705 165.807 C 194.864 169.569,190.732 170.485,188.092 167.717 C 184.735 164.198,187.775 154.523,192.435 153.891 C 194.380 153.627,206.422 153.885,208.244 154.229 M186.952 182.042 C 188.346 182.320,190.411 184.403,190.824 185.948 C 191.143 187.143,189.977 192.616,187.830 200.000 C 186.255 205.415,178.160 204.765,177.721 199.187 C 177.599 197.632,178.935 191.700,180.614 186.339 C 181.658 183.009,183.965 181.444,186.952 182.042 M216.882 182.794 C 219.430 184.369,223.033 198.290,221.606 201.050 C 219.781 204.578,214.248 204.568,212.444 201.033 C 211.163 198.521,208.661 187.612,208.978 185.920 C 209.602 182.596,213.846 180.917,216.882 182.794 M179.173 217.052 C 182.499 218.806,182.531 222.025,179.332 232.835 C 177.861 237.808,174.992 239.505,171.331 237.569 C 168.300 235.966,168.117 234.174,170.142 225.980 C 172.345 217.070,174.732 214.709,179.173 217.052 M225.343 216.947 C 225.983 217.274,226.782 217.929,227.120 218.403 C 228.212 219.936,231.058 230.725,231.058 233.331 C 231.058 238.646,223.861 240.130,221.406 235.321 C 220.283 233.121,217.752 222.593,217.940 220.908 C 218.323 217.491,222.270 215.380,225.343 216.947 M170.014 251.473 C 173.724 253.269,173.719 255.555,169.974 268.437 C 168.063 275.011,158.963 273.627,159.755 266.883 C 160.063 264.266,162.559 254.841,163.288 253.543 C 164.664 251.095,167.457 250.235,170.014 251.473 M234.370 251.538 C 236.200 252.461,237.008 254.195,238.702 260.840 C 240.735 268.813,240.398 271.002,236.935 272.324 C 232.040 274.194,229.614 270.779,227.307 258.768 C 226.162 252.808,229.702 249.184,234.370 251.538 M161.152 285.977 C 162.898 286.868,163.918 288.578,163.948 290.663 C 163.972 292.280,164.020 292.378,165.118 293.072 C 170.199 296.279,167.308 303.437,161.319 302.480 C 154.867 301.449,152.245 299.091,152.509 294.554 C 152.908 287.669,156.833 283.774,161.152 285.977 M243.898 286.175 C 246.654 288.216,248.447 296.073,246.713 298.505 C 244.995 300.913,239.777 303.526,237.126 303.306 C 232.491 302.922,230.932 297.711,234.433 294.301 C 235.920 292.853,235.963 292.763,235.894 291.259 C 235.685 286.766,240.537 283.685,243.898 286.175 M186.542 297.684 C 193.837 298.755,195.649 299.978,195.649 303.829 C 195.649 308.535,191.576 309.662,181.695 307.689 C 176.147 306.582,174.017 302.518,177.129 298.975 C 178.953 296.897,180.104 296.739,186.542 297.684 M222.285 299.123 C 225.300 301.274,224.937 306.264,221.650 307.855 C 218.317 309.469,209.546 309.837,207.052 308.468 C 203.452 306.493,203.470 301.851,207.084 299.994 C 210.272 298.355,220.396 297.776,222.285 299.123 " stroke="none" fill="#040404" fill-rule="evenodd"></path></g></svg>