<svg height="580" viewBox="0 0 580 580" width="580" xmlns="http://www.w3.org/2000/svg" xmlns:xlink="http://www.w3.org/1999/xlink"><clipPath id="a"><path d="m-10-10h600v600h-600z"/></clipPath><g clip-path="url(#a)"><path d="m290 574.35c-3.92 0-7.6-1.52-10.37-4.29l-269.69-269.69c-5.71-5.71-5.71-15.03 0-20.73l269.69-269.7c2.77-2.77 6.45-4.29 10.37-4.29s7.6 1.52 10.37 4.29l269.69 269.7c5.71 5.7 5.71 15.02 0 20.73l-269.69 269.69c-2.77 2.77-6.45 4.29-10.37 4.29z" fill="#161616"/><g fill="#fff"><path d="m303.91 6.43 269.66 269.66c7.7 7.7 7.7 20.16 0 27.82l-269.66 269.66c-3.85 3.85-8.88 5.78-13.91 5.78s-10.06-1.93-13.91-5.78l-269.66-269.66c-7.7-7.66-7.7-20.12 0-27.82l269.66-269.66c3.85-3.85 8.88-5.78 13.91-5.78s10.06 1.93 13.91 5.78zm-20.77 7.05-269.66 269.66c-1.82 1.83-2.83 4.29-2.83 6.86 0 2.6 1.01 5.03 2.83 6.86l269.66 269.66c1.83 1.82 4.26 2.83 6.86 2.83s5.03-1.01 6.86-2.83l269.66-269.66c1.82-1.83 2.83-4.26 2.83-6.86 0-2.57-1.01-5.03-2.83-6.86l-269.66-269.66c-1.83-1.82-4.26-2.83-6.86-2.83s-5.03 1.01-6.86 2.83z" fill-rule="evenodd"/><path d="m294.89 207.67c-4.83 0-8.92-3.74-9.22-8.64-.31-5.1 3.54-9.49 8.64-9.8 12.02-.77 22.83-7.9 28.2-18.67l.07-.14c2.26-4.55 7.8-6.41 12.36-4.12 4.56 2.27 6.42 7.81 4.15 12.4l-8.27-4.16 8.24 4.16-.04.1c-8.3 16.65-24.99 27.69-43.56 28.87-.2 0-.37 0-.57 0zm-38.54-19.18c-2.97 0-5.91-1.45-7.7-4.12-5.7-8.61-8.71-18.61-8.71-28.94 0-8.11 1.83-15.91 5.47-23.2 2.26-4.59 7.8-6.45 12.36-4.19 4.6 2.26 6.45 7.84 4.19 12.4-2.36 4.72-3.55 9.76-3.55 14.99 0 6.69 1.96 13.17 5.64 18.74 2.84 4.26 1.66 10-2.6 12.8-1.55 1.05-3.34 1.52-5.1 1.52zm71.73-47.65c-2.97 0-5.91-1.45-7.7-4.12-3.24-4.9-7.76-8.88-13.07-11.51-5.37-2.71-11.21-3.89-17.22-3.48-5.06.3-9.45-3.55-9.79-8.65s3.54-9.49 8.61-9.79c1.11-.07 2.26-.1 3.34-.1 8.14 0 15.98 1.82 23.3 5.5 8.21 4.05 15.17 10.23 20.23 17.8 2.81 4.25 1.66 9.99-2.6 12.8-1.55 1.04-3.34 1.55-5.1 1.55z"/><path d="m290.53 466.76c-.17 0-.34 0-.51 0-.2 0-.37 0-.54 0h-9.25v-.41c-5.51-.47-10.78-1.25-15.77-2.43-4.97-1.15-8.04-6.11-6.89-11.08 1.14-4.96 6.14-8.07 11.07-6.89 6.39 1.46 13.41 2.27 20.91 2.33h.5.41c7.5-.06 14.52-.87 20.87-2.33 4.96-1.18 9.93 1.93 11.08 6.89 1.18 4.97-1.93 9.93-6.89 11.08-4.97 1.18-10.27 1.96-15.77 2.43v.37z"/><path d="m229.22 441.87c-2.7 0-5.37-1.18-7.19-3.44-7.16-8.92-9.56-16.62-9.79-17.46l-.75-2.53 8.21-29.32c1.35-4.93 6.45-7.8 11.38-6.41 4.9 1.35 7.77 6.45 6.38 11.38l-6.65 23.81c.95 2.06 2.67 5.33 5.61 8.98 3.17 3.95 2.56 9.76-1.42 12.97-1.72 1.38-3.75 2.02-5.78 2.02zm11.28-83.71c-.81 0-1.65-.11-2.5-.34-4.89-1.39-7.76-6.49-6.41-11.38l11.92-42.69c1.38-4.9 6.48-7.77 11.38-6.38 4.93 1.35 7.8 6.45 6.41 11.35l-11.92 42.68c-1.14 4.09-4.83 6.76-8.88 6.76z"/><path d="m264.32 272.82c-.81 0-1.65-.1-2.5-.33-4.9-1.39-7.77-6.49-6.41-11.38l8.57-30.7 8.58 1.92c11.42 2.6 23.57 2.6 34.85 0l8.58-1.96 8.58 30.74c1.38 4.89-1.49 9.99-6.42 11.38-4.9 1.35-10-1.52-11.38-6.42l-3.95-14.15c-8.44 1.11-17.16 1.11-25.67 0l-3.95 14.15c-1.15 4.09-4.83 6.75-8.88 6.75z"/><path d="m350.78 441.89c-2.06 0-4.09-.64-5.81-2.03-3.95-3.21-4.59-9.02-1.38-12.97 2.9-3.64 4.66-6.92 5.6-8.98l-6.65-23.81c-1.38-4.93 1.49-10.03 6.38-11.38 4.93-1.38 10.03 1.49 11.38 6.42l8.21 29.31-.74 2.5c-.24.88-2.64 8.58-9.8 17.49-1.82 2.3-4.49 3.45-7.19 3.45zm-11.28-83.72c-4.05 0-7.73-2.67-8.88-6.75l-11.92-42.69c-1.39-4.9 1.48-10 6.41-11.38 4.9-1.35 10 1.52 11.39 6.41l11.92 42.69c1.35 4.9-1.52 10-6.42 11.38-.84.24-1.69.34-2.5.34z"/></g></g></svg>