<svg height="400" viewBox="0 0 400 400" width="400" xmlns="http://www.w3.org/2000/svg"><path d="m282.667 71.32c0 20.542-.01 20.68-1.396 20.68-2.318 0-13.891 2.511-20.994 4.555-65.235 18.775-111.77 73.878-120.595 142.798l-.386 3.02-6.107 1.859c-53.116 16.17-33.736 57.128 28.478 60.185 65.486 3.218 96.463-40.994 41.666-59.468l-6.333-2.135.196-2.907c.108-1.599.805-5.307 1.548-8.24 10.226-40.352 40.786-70.968 81.423-81.574l2.5-.652v18.279c0 10.054.15 18.28.334 18.28.421 0 115.829-66.61 116.468-67.222.353-.338-63.669-37.706-113.578-66.291l-3.224-1.847zm-241.105 166.413c-32.179 27.89-41.229 36.069-41.229 37.263 0 1.196 9.047 9.354 41.324 37.267l41.325 35.737 84.342-.049 84.343-.048 41.648-36.118c22.906-19.865 41.648-36.418 41.647-36.785 0-.367-18.742-16.931-41.648-36.81l-41.647-36.143-13.12-.023-13.119-.024-3.011 4.833c-2.566 4.119-6.417 11.832-6.417 12.853 0 .173 3.422.314 7.604.314h7.604l31.347 27.167c17.242 14.941 31.35 27.466 31.352 27.833s-14.147 12.892-31.441 27.833l-31.445 27.167h-63.871-63.871l-31.704-27.42-31.705-27.42 1.565-1.549c.861-.852 15.065-13.256 31.565-27.564l30-26.015 13.833-.016c11.022-.013 13.834-.195 13.834-.898 0-.485.999-4.535 2.221-9l2.222-8.118h-26.16-26.159zm146.105 3.907c8.069 1.463 8.45 1.601 8.048 2.914-.188.612-.51 5.123-.716 10.023-.821 19.525-10.755 30.791-27.332 31.001-19.414.246-30.548-15.023-28.038-38.452l.466-4.355 4.786-.821c2.632-.452 6.586-1.054 8.786-1.337 6.38-.822 27.286-.19 34 1.027" fill-rule="evenodd"/></svg>