<svg id="svg" version="1.1" xmlns="http://www.w3.org/2000/svg" xmlns:xlink="http://www.w3.org/1999/xlink" width="400" height="400" viewBox="0, 0, 400,400"><g id="svgg"><path id="path0" d="M270.368 91.030 L 270.368 108.600 269.392 108.756 C 242.405 113.066,221.299 122.357,201.294 138.736 C 173.646 161.373,154.556 195.841,149.592 232.086 C 148.977 236.576,148.993 236.549,146.527 237.202 C 122.121 243.666,111.236 258.727,121.559 271.747 C 138.688 293.351,201.095 294.456,221.605 273.518 C 234.315 260.543,226.451 246.548,201.800 238.271 C 196.689 236.555,196.874 237.045,198.650 229.904 C 205.190 203.617,218.147 184.949,240.060 170.240 C 248.823 164.359,264.853 157.546,269.944 157.540 C 270.172 157.540,270.328 162.155,270.463 172.887 C 270.569 181.328,270.715 188.295,270.789 188.368 C 270.862 188.441,273.194 187.184,275.971 185.573 C 294.416 174.880,307.793 167.142,330.683 153.928 C 338.192 149.593,345.889 145.139,347.787 144.029 C 352.614 141.207,361.949 135.829,366.306 133.360 C 370.662 130.892,370.533 131.296,367.510 129.590 C 364.746 128.030,355.223 122.547,350.638 119.875 C 348.987 118.913,346.894 117.698,345.986 117.175 C 345.079 116.653,342.986 115.440,341.335 114.480 C 339.685 113.521,336.647 111.765,334.584 110.579 C 332.521 109.392,326.984 106.193,322.281 103.470 C 317.577 100.746,312.108 97.601,310.128 96.481 C 308.147 95.362,304.974 93.537,303.076 92.427 C 301.178 91.317,293.548 86.895,286.122 82.600 C 278.695 78.306,272.112 74.492,271.493 74.126 L 270.368 73.459 270.368 91.030 M100.187 202.923 C 99.754 203.296,96.115 206.437,92.101 209.902 C 88.087 213.368,82.162 218.482,78.935 221.267 C 70.086 228.903,54.311 242.579,43.786 251.738 C 33.408 260.771,30.138 263.849,30.427 264.316 C 30.880 265.049,47.984 280.071,71.118 300.053 C 77.307 305.399,83.237 310.528,84.296 311.451 C 85.356 312.373,89.532 315.998,93.577 319.505 L 100.931 325.881 172.521 325.880 L 244.111 325.879 261.815 310.539 C 271.553 302.102,282.404 292.684,285.930 289.610 C 289.455 286.536,292.971 283.481,293.742 282.821 C 303.153 274.765,314.002 264.957,314.471 264.081 C 314.759 263.542,311.600 260.678,292.404 244.078 C 289.753 241.786,285.641 238.222,283.266 236.159 C 278.215 231.772,276.604 230.378,266.618 221.755 C 262.508 218.207,258.194 214.477,257.030 213.467 C 255.866 212.456,252.483 209.524,249.512 206.952 L 244.111 202.275 233.101 202.263 L 222.092 202.251 220.474 204.876 C 218.427 208.198,216.139 212.379,215.096 214.704 L 214.288 216.504 220.538 216.804 L 226.789 217.104 233.949 223.290 C 246.632 234.245,250.646 237.716,254.014 240.638 C 280.554 263.664,281.004 264.069,280.516 264.513 C 280.298 264.711,277.086 267.493,273.378 270.696 C 269.670 273.899,264.998 277.937,262.996 279.670 C 242.725 297.212,237.326 301.891,232.408 306.179 L 226.707 311.150 172.543 311.156 L 118.380 311.161 111.778 305.436 C 97.513 293.066,94.915 290.823,91.703 288.102 C 89.871 286.551,86.358 283.512,83.896 281.350 C 81.434 279.188,78.721 276.812,77.867 276.069 C 70.945 270.050,64.516 264.197,64.516 263.913 C 64.516 263.865,66.643 261.956,69.242 259.670 C 71.842 257.385,74.441 255.093,75.019 254.577 C 75.596 254.062,77.294 252.576,78.791 251.276 C 80.289 249.976,84.880 245.988,88.994 242.415 C 93.108 238.841,101.380 231.662,107.375 226.461 L 118.277 217.004 129.491 216.904 C 137.258 216.835,140.809 216.701,141.042 216.467 C 141.589 215.920,144.904 203.042,144.586 202.701 C 144.406 202.507,136.596 202.373,122.641 202.323 L 100.975 202.245 100.187 202.923 " stroke="none" fill="#000000" fill-rule="evenodd"></path></g></svg>