<svg height="600" viewBox="0 0 600 600" width="600" xmlns="http://www.w3.org/2000/svg" xmlns:xlink="http://www.w3.org/1999/xlink"><clipPath id="a"><path d="m0 0h600v600h-600z"/></clipPath><g clip-path="url(#a)"><path d="m259 351.41c-45.45 0-82.29 18.42-82.29 41.14 0 22.73 36.84 41.15 82.29 41.15 45.44 0 82.29-18.42 82.29-41.15 0-22.72-36.85-41.14-82.29-41.14zm74.79-47.75c-4.78 6.92-8.88 14.32-12.21 22.09h19.02l81.61 70.67-81.61 70.68h-163.21l-81.61-70.68 81.61-70.67h34.41c1.62-7.47 3.62-14.84 5.97-22.09h-65.89l-107.12 92.76 107.12 92.77h214.23l107.12-92.77-107.12-92.76zm-74.79 106.94c-19.79 0-35.9-16.11-35.9-35.9 0-53.4 19.88-104.56 55.97-144.05 33.57-36.73 78.4-60.46 127.14-67.49v-52.35l149.02 86.05-149.02 86.06v-46.83c-64.27 14.15-111.31 71.66-111.31 138.61 0 19.79-16.11 35.9-35.9 35.9z" fill="#2c2e35"/></g></svg>