<svg id="svg" xmlns="http://www.w3.org/2000/svg" xmlns:xlink="http://www.w3.org/1999/xlink" width="400" height="400" viewBox="0, 0, 400,400"><g id="svgg"><path id="path0" d="M188.211 1.432 C 45.330 10.341,-41.831 162.204,22.608 289.965 C 26.745 298.166,32.693 308.229,33.115 307.737 C 33.222 307.611,34.519 304.856,35.996 301.614 C 38.558 295.992,54.053 262.152,90.943 181.614 C 126.258 104.515,141.546 71.135,145.389 62.737 C 158.157 34.837,158.765 33.539,159.046 33.591 C 159.507 33.676,189.597 47.168,189.789 47.376 C 189.892 47.487,189.236 48.877,188.330 50.463 C 187.424 52.049,184.604 57.228,182.064 61.972 C 179.523 66.715,176.809 71.733,176.033 73.121 C 175.257 74.510,174.711 75.729,174.820 75.830 C 174.928 75.931,194.344 84.980,217.965 95.938 C 241.586 106.897,273.080 121.511,287.951 128.414 C 302.822 135.316,315.025 140.921,315.068 140.868 C 315.111 140.815,317.962 133.743,321.404 125.153 L 327.660 109.534 329.374 110.304 C 335.701 113.145,358.358 123.620,358.547 123.790 C 358.673 123.905,355.372 131.436,351.210 140.525 C 347.049 149.615,330.542 185.663,314.528 220.632 C 298.514 255.600,277.576 301.326,267.999 322.246 C 258.422 343.165,246.893 368.333,242.380 378.175 C 235.753 392.626,234.271 396.070,234.682 396.070 C 235.446 396.070,244.442 394.191,248.281 393.229 C 353.522 366.863,418.456 260.933,394.092 155.361 C 372.282 60.852,284.754 -4.588,188.211 1.432 M160.704 110.664 C 150.653 132.774,133.110 172.238,133.265 172.389 C 133.380 172.500,143.200 177.133,155.088 182.684 C 166.975 188.235,194.070 200.891,215.298 210.809 C 236.526 220.727,257.407 230.482,261.700 232.486 C 265.993 234.491,269.543 236.086,269.589 236.031 C 269.635 235.975,275.571 222.886,282.781 206.943 C 289.991 191.000,296.377 176.895,296.973 175.598 L 298.057 173.241 283.695 166.509 C 268.396 159.337,206.569 130.335,180.211 117.966 C 171.488 113.873,163.681 110.223,162.863 109.856 L 161.375 109.187 160.704 110.664 M117.134 207.509 C 115.474 211.355,102.531 239.597,94.745 256.364 C 90.458 265.596,87.005 273.204,87.072 273.271 C 87.299 273.497,223.140 336.573,223.571 336.652 C 223.722 336.679,225.124 333.544,226.687 329.684 C 228.251 325.825,235.046 310.549,241.787 295.738 C 248.528 280.927,253.947 268.724,253.829 268.620 C 253.492 268.324,118.578 205.474,118.279 205.474 C 118.133 205.474,117.617 206.389,117.134 207.509 M63.023 320.632 C 59.188 329.161,55.998 336.396,55.935 336.708 C 55.755 337.586,65.193 346.679,73.177 353.323 C 105.647 380.337,148.251 397.038,189.077 398.755 L 193.263 398.932 199.860 384.287 C 203.488 376.233,206.491 369.494,206.533 369.313 C 206.578 369.121,186.948 359.762,159.796 347.030 C 134.049 334.956,103.411 320.588,91.713 315.100 C 80.015 309.613,70.343 305.123,70.220 305.123 C 70.097 305.123,66.858 312.102,63.023 320.632 " stroke="none" fill="currentColor" fill-rule="evenodd"></path></g></svg>