<svg height="600" viewBox="0 0 600 600" width="600" xmlns="http://www.w3.org/2000/svg" xmlns:xlink="http://www.w3.org/1999/xlink"><clipPath id="a"><path d="m0 0h600v600h-600z"/></clipPath><g clip-path="url(#a)"><path d="m528 468.8v5.08c0 57.44-102.08 104-228 104s-228-46.56-228-104c0-.48.02-.96.04-1.44v-3.58c13.3 15.66 33 29.66 58.44 41.26 45.62 20.8 105.82 32.26 169.52 32.26s123.9-11.46 169.52-32.26c25.48-11.62 45.18-25.64 58.48-41.32zm0-50.42c0 57.44-102.08 104-228 104s-228-46.56-228-104c0-43.38 58.24-80.56 141-96.14v116.14h174v-116.14c82.76 15.58 141 52.76 141 96.14zm-75.42-132.02h-85.58v132.02h-134v-132.02h-85.58l152.58-264.24z" fill="#2c2e35"/></g></svg>