<svg id="svg" version="1.1" xmlns="http://www.w3.org/2000/svg" xmlns:xlink="http://www.w3.org/1999/xlink" width="400" height="400" viewBox="0, 0, 400,400"><g id="svgg"><path id="path0" d="M190.654 17.956 C 179.161 37.391,158.261 73.450,120.275 139.385 L 91.231 189.797 93.853 189.991 C 95.294 190.097,108.998 190.198,124.306 190.216 L 152.138 190.248 152.138 237.209 L 152.138 284.171 200.000 284.171 L 247.862 284.171 247.862 237.209 L 247.862 190.248 278.020 190.248 C 294.606 190.248,308.177 190.176,308.177 190.088 C 308.177 189.462,304.580 183.156,271.721 126.182 C 253.147 93.975,200.436 2.817,200.032 2.202 C 200.014 2.175,195.794 9.264,190.654 17.956 M132.933 216.392 C 52.462 233.209,15.353 277.271,50.993 313.687 C 103.391 367.225,263.234 373.749,334.584 325.261 C 383.039 292.331,366.338 248.681,296.024 224.476 C 284.795 220.611,266.055 215.754,262.369 215.754 L 261.665 215.754 261.665 256.864 L 261.665 297.974 230.957 297.974 C 214.068 297.974,186.251 298.064,169.142 298.174 L 138.035 298.374 138.035 257.064 L 138.035 215.754 136.909 215.775 C 136.290 215.787,134.501 216.065,132.933 216.392 M37.331 322.904 C 37.680 328.721,38.666 333.268,40.514 337.584 C 61.361 386.286,178.044 412.009,274.765 389.226 C 328.062 376.671,361.890 351.368,361.890 324.057 L 361.890 320.243 357.764 324.356 C 331.647 350.388,283.887 367.000,222.056 371.556 C 214.929 372.081,184.833 372.079,177.344 371.552 C 114.774 367.155,69.286 350.994,40.401 322.901 L 37.141 319.730 37.331 322.904 " stroke="none" fill="#000000" fill-rule="evenodd"></path></g></svg>