<svg height="400" viewBox="0 0 400 400" width="400" xmlns="http://www.w3.org/2000/svg" fill="currentColor"><path d="m145.853 96.171-54.378 94.162 30.262.174 30.263.173v46.993 46.994h48.333 48.334v-46.994-46.993l30.256-.173 30.257-.174-54.231-93.919c-29.827-51.655-54.341-94.028-54.474-94.162-.134-.133-24.714 42.13-54.622 93.919m-17.628 121.797c-89.241 20.377-117.98 71.32-61.528 109.066 54.609 36.515 171.575 42.56 243.162 12.568 84.191-35.274 64.876-98.231-37.285-121.529-5-1.14-9.425-2.073-9.833-2.073-.536 0-.741 11.459-.741 41.333v41.334h-61.667-61.666v-41.334c0-38.942-.068-41.33-1.167-41.275-.642.032-4.815.892-9.275 1.91m-90.55 107.199c5.379 54.081 117.659 87.647 225.658 67.46 59.477-11.117 96.455-36.261 99.702-67.794.54-5.239.621-5.256-6.321 1.334-65.938 62.593-252.952 61.545-314.691-1.764-4.622-4.739-4.891-4.691-4.348.764" fill-rule="evenodd"/></svg>