<svg xmlns="http://www.w3.org/2000/svg" width="1000" height="px" viewBox="0 0 1000 1000">
    <defs>
        <clipPath id="a">
            <path d="M0 6.36h708v987.28H0zm0 0" />
        </clipPath>
    </defs>
    <g clip-path="url(#a)">
        <path style="stroke:none;fill-rule:nonzero;fill:#000;fill-opacity:1"
            d="m697.832 799.926-74.797-85.266C510.098 838.816 482.422 864.25 473.45 876.215a134.617 134.617 0 0 1-89.008 33.656c-56.253-4.285-106.707-36.238-134.628-85.266l-30.665-48.613 39.641-41.137 118.922-131.64 81.527-89.004-149.59-177.262-41.136-50.86 44.875-44.878a381.453 381.453 0 0 1 215.41-100.223 108.452 108.452 0 0 1 83.77 34.407l74.792 86.011c6.485-7.976 13.215-15.457 20.196-22.437V54.973a48.613 48.613 0 0 0-14.766-34.914 48.594 48.594 0 0 0-35.348-13.7H48.617C21.766 6.36 0 28.125 0 54.973v890.8c.41 26.559 22.055 47.872 48.617 47.868h608.824c26.438 0 47.868-21.43 47.868-47.868V807.406l-7.477-7.48" />
    </g>
    <path style="stroke:none;fill-rule:nonzero;fill:#e26969;fill-opacity:1"
        d="M1000 190.352c-17.203-23.934-65.07-79.282-115.93-35.903-17.953 14.961-101.722 106.957-201.199 216.906l-123.41-149.59c-34.406-37.398-158.563 31.415-194.465 67.313 0 4.488 94.988 112.942 187.734 224.387l-243.082 272.25c15.707 23.933 65.07 79.281 115.93 35.152 17.953-14.957 102.469-106.957 201.2-216.156l123.41 149.59c35.152 38.144 158.562-30.664 194.464-67.317L758.414 459.61C879.582 324.98 989.527 201.57 1000.746 190.352" />
</svg>