<svg height="752" viewBox="0 0 1084 752" width="1084" xmlns="http://www.w3.org/2000/svg" xmlns:xlink="http://www.w3.org/1999/xlink"><clipPath id="a"><path d="m304.24 690.13-398.29-229.96 229.95-398.3 398.3 229.96z"/></clipPath><clipPath id="b"><path d="m948.1 690.13-398.3-229.96 229.96-398.3 398.29 229.96z"/></clipPath><clipPath id="c"><path d="m626.01 505.49-398.3-229.96 229.96-398.29 398.3 229.95z"/></clipPath><clipPath id="d"><path d="m626.01 874.76-398.3-229.95 229.96-398.3 398.3 229.96z"/></clipPath><path d="m113.47 191.36 213.2.01 106.6 184.63-106.6 184.64h-213.2l-106.6-184.64z" fill="#f5f7f7"/><g clip-path="url(#a)"><path d="m113.47 191.36 213.2.01 106.6 184.63-106.6 184.64h-213.2l-106.6-184.64z" fill="none" stroke="#2c2e35" stroke-linejoin="round" stroke-width="12.264"/></g><path d="m135.44 229.41 169.26.01 84.64 146.58-84.64 146.59h-169.26l-84.63-146.59z" fill="#d92a1a"/><path d="m152.76 297.85-10.84 10.84 67.31 67.31-67.31 67.31 10.84 10.84 67.31-67.31 67.32 67.31 10.84-10.84-67.32-67.31 67.32-67.31-10.84-10.84-67.32 67.31z" fill="#fff"/><path d="m757.33 191.36 213.2.01 106.6 184.63-106.6 184.64h-213.2l-106.6-184.64z" fill="#f5f7f7"/><g clip-path="url(#b)"><path d="m757.33 191.36 213.2.01 106.6 184.63-106.6 184.64h-213.2l-106.6-184.64z" fill="none" stroke="#2c2e35" stroke-linejoin="round" stroke-width="12.264"/></g><path d="m779.3 229.41 169.26.01 84.63 146.58-84.63 146.59h-169.26l-84.63-146.59z" fill="#d92a1a"/><path d="m796.61 297.85-10.84 10.84 67.32 67.31-67.32 67.31 10.84 10.84 67.32-67.31 67.31 67.31 10.84-10.84-67.31-67.31 67.31-67.31-10.84-10.84-67.31 67.31z" fill="#fff"/><path d="m435.24 6.73h213.2l106.6 184.63-106.6 184.64h-213.2l-106.6-184.64z" fill="#f5f7f7"/><g clip-path="url(#c)"><path d="m435.24 6.73h213.2l106.6 184.63-106.6 184.64h-213.2l-106.6-184.64z" fill="none" stroke="#2c2e35" stroke-linejoin="round" stroke-width="12.264"/></g><path d="m457.21 44.78h169.26l84.63 146.58-84.63 146.59h-169.26l-84.63-146.59z" fill="#d92a1a"/><path d="m474.53 113.21-10.84 10.84 67.31 67.31-67.31 67.32 10.84 10.84 67.31-67.32 67.32 67.32 10.84-10.84-67.32-67.32 67.32-67.31-10.84-10.84-67.32 67.31z" fill="#fff"/><path d="m435.24 376h213.2l106.6 184.64-106.6 184.63h-213.2l-106.6-184.63z" fill="#f5f7f7"/><g clip-path="url(#d)"><path d="m435.24 376h213.2l106.6 184.64-106.6 184.63h-213.2l-106.6-184.63z" fill="none" stroke="#2c2e35" stroke-linejoin="round" stroke-width="12.264"/></g><path d="m457.21 414.05h169.26l84.63 146.58-84.63 146.59h-169.26l-84.63-146.58z" fill="#525a5a"/><path d="m541.84 499.31c33.81 0 61.3 27.52 61.3 61.33 0 33.8-27.49 61.32-61.3 61.32s-61.3-27.52-61.3-61.32c0-33.81 27.49-61.33 61.3-61.33z" fill="#fff"/></svg>