<svg height="400" viewBox="0 0 400 400" width="400" xmlns="http://www.w3.org/2000/svg"><path d="m3.736 37.026c-1.166 1.166-1.067 2.049 1.333 11.841 8.891 36.281 40.426 76.18 80.727 102.14 15.548 10.014-19.32 3.668-41.615-7.574-10.116-5.102-11.067-2.994-4.758 10.552 10.067 21.614 35.805 43.963 62.176 53.989 1.998.76 2.36 3.074.568 3.635-4.71 1.476-18.456 3.202-26.737 3.357-10.509.198-11.396.544-9.718 3.789 4.299 8.312 28.271 18.954 49.455 21.953 3.025.428 5.517.969 5.539 1.202s.097 2.697.167 5.476c.157 6.211 2.318 10.223 7.654 14.208l3.473 2.593v21.796 21.797l-10.667 26.199c-10.728 26.351-11.547 28.874-9.612 29.616 2.561.983 100.089.437 100.921-.565.63-.76.5-7.207-.599-29.765-1.344-27.565-1.354-28.854-.224-30.152.65-.746 14.606-15.423 31.014-32.616l29.834-31.261v-64.57c0-57.812-.11-64.68-1.048-65.618-1.305-1.305-.496-1.483-7.027 1.543-44.618 20.676-80.271 37.568-99.403 47.1-4.843 2.412-4.85 2.439-2.805 10.527 4.906 19.404 14.229 43.896 26.044 68.421 6.52 13.533 6.586 12.029-.765 17.287-7.197 5.148-7.117 5.169-11.426-2.926-23.874-44.853-39.534-98.936-43.284-149.489-.543-7.315-.436-7.201-7.623-8.151-38.684-5.112-82.175-25.2-113.999-52.655-5.929-5.115-6.084-5.19-7.595-3.679m278.999 230.044c-1.233 1.428-11.453 12.047-22.712 23.597s-20.776 21.6-21.149 22.333c-1.24 2.435 2.026 49.034 3.512 50.121.978.715 15.329.879 77.059.879h75.858l.925-1.5c1.165-1.888.442-11.796-1.545-21.177-10-47.2-45.267-74.064-100.362-76.446l-9.346-.405z" fill-rule="evenodd"/></svg>