<svg height="600" viewBox="0 0 600 600" width="600" xmlns="http://www.w3.org/2000/svg" fill="currentColor">
    <path
        d="m557.089844 516c17.371094 21.046875 29.351562 46.007812 34.910156 72.726562.488281 1.378907.257812 2.910157-.621094 4.082032-.878906 1.167968-2.28125 1.820312-3.742187 1.738281h-209.453125l-86.546875-78.546875c-16-32-7.273438-64-36.363281-85.089844-10.117188-5.835937-22.058594-7.652344-33.457032-5.09375-18.421875-26.667968-34.484375-54.898437-48-84.363281-.726562-1.871094-.726562-3.945313 0-5.816406 5.847656-11.855469 12.917969-23.066407 21.09375-33.453125 13.816406-16.730469 96-88.730469 99.636719-93.820313 23.78125-41.53125 44.914063-84.527343 63.269531-128.726562 0-4.363281 5.09375-49.453125 5.820313-64.726563-.019531-1.296875.539062-2.53125 1.523437-3.375s2.289063-1.207031 3.566406-.988281c22.191407 1.984375 43.988282 7.128906 64.726563 15.269531 1.226563-6.894531 2.925781-13.699218 5.09375-20.363281 1.65625-1.480469 4.160156-1.480469 5.816406 0 62.335938 24.222656 116.195313 66.199219 154.910157 120.730469 1.820312 2.355468 1.820312 5.640625 0 8-17.535157 11.949218-33.855469 25.59375-48.726563 40.726562l-56.730469-42.183594c-3.308594-1.058593-6.867187-1.058593-10.179687 0-5.34375.046876-10.398438 2.441407-13.820313 6.546876-3.265625 8.25.175782 17.636718 8 21.816406l53.09375 39.273437c-13.164062 14.355469-25.546875 29.40625-37.09375 45.089844l-48-34.90625c-3.316406-1.011719-6.863281-1.011719-10.179687 0-5.4375.320313-10.476563 2.96875-13.820313 7.269531-3.242187 3.152344-5.070312 7.480469-5.070312 12 0 4.523438 1.828125 8.851563 5.070312 12l56 36.367188c-5.125 38.617187-5.125 77.742187 0 116.363281-1.796875 25.640625-5.199218 51.144531-10.179687 76.363281 28.363281 16.726563 66.179687 18.179688 93.089843 45.089844" />
    <path d="m332.363281 38.910156v37.089844l-290.910156-25.453125-5.089844-5.820313zm0 0" />
    <path
        d="m297.453125 140c-5.816406 10.910156-10.90625 22.546875-16 31.273438l-181.089844-18.910157v-6.546875zm0 0" />
    <path d="m222.546875 237.453125-35.636719 32.730469-184-25.457032v-6.542968zm0 0" />
</svg>