<svg id="svg" xmlns="http://www.w3.org/2000/svg" xmlns:xlink="http://www.w3.org/1999/xlink" width="400" height="400" viewBox="0, 0, 400,400"><g id="svgg"><path id="path0" d="M3.174 36.583 C 0.907 39.088,8.486 63.688,15.569 76.819 C 29.241 102.163,50.933 125.675,79.903 146.554 C 90.640 154.292,91.800 156.039,86.201 156.039 C 78.353 156.039,61.239 151.067,45.582 144.239 C 37.692 140.797,37.535 140.735,36.729 140.735 C 34.720 140.735,34.721 142.822,36.735 148.204 C 45.054 170.445,63.817 188.771,93.925 204.063 C 103.622 208.989,104.642 209.936,101.654 211.242 C 97.287 213.151,87.614 214.495,75.469 214.882 C 63.325 215.268,63.520 215.195,65.739 218.545 C 71.995 227.990,90.107 235.854,116.379 240.533 C 120.641 241.292,120.800 241.493,120.683 245.972 C 120.500 253.031,122.748 257.323,128.982 261.815 C 131.708 263.779,131.490 261.774,131.644 286.360 L 131.778 307.905 123.158 329.116 C 111.407 358.034,110.084 361.701,110.921 363.032 C 111.396 363.786,118.461 363.909,163.091 363.942 C 214.961 363.980,213.349 364.132,212.944 359.225 C 212.308 351.515,211.023 323.718,210.779 312.378 L 210.594 303.826 215.334 298.725 C 221.761 291.806,239.827 272.838,257.569 254.379 L 272.227 239.130 272.067 178.455 C 271.861 100.275,272.466 106.296,265.180 109.909 C 262.999 110.991,252.506 115.925,241.860 120.874 C 207.897 136.666,175.733 152.054,166.627 156.870 L 161.762 159.444 161.554 160.817 C 160.300 169.095,175.829 211.270,192.077 243.719 C 193.382 246.324,194.449 248.512,194.449 248.582 C 194.449 249.507,181.732 258.065,180.357 258.065 C 179.712 258.065,175.479 250.260,170.590 240.056 C 148.567 194.090,137.146 153.275,132.638 104.426 C 131.601 93.191,132.306 94.113,123.785 92.846 C 84.427 86.993,46.531 69.614,12.303 41.721 C 4.810 35.615,4.307 35.332,3.174 36.583 M270.479 280.181 C 262.234 288.729,251.679 299.687,247.023 304.532 L 238.560 313.340 238.561 316.385 C 238.564 323.926,240.457 350.149,241.609 358.635 L 242.248 363.331 247.230 363.586 C 255.282 363.998,380.541 363.897,388.897 363.471 C 398.110 363.002,397.808 363.479,396.405 351.654 C 390.199 299.312,352.860 267.272,295.574 265.130 C 293.016 265.034,289.696 264.884,288.197 264.797 L 285.472 264.637 270.479 280.181 " stroke="none" fill="#000000" fill-rule="evenodd"></path></g></svg>