<svg height="600" viewBox="0 0 600 600" width="600" xmlns="http://www.w3.org/2000/svg" xmlns:xlink="http://www.w3.org/1999/xlink"><clipPath id="a"><path d="m0 0h600v600h-600z"/></clipPath><g clip-path="url(#a)"><path d="m64.2 101.21c16.54 15.18 72.27 60.98 150.94 69.89 1.19.13 2.13 1.09 2.22 2.29 3.13 42.74 10.49 107.81 57.38 196.63.7 1.33 2.41 1.75 3.65.9 5.57-3.85 11.22-7.91 13.99-9.92 1.01-.73 1.33-2.09.74-3.19-5.31-10.06-29.96-58.18-40.49-104.23-.25-1.1.27-2.23 1.27-2.76 24.59-13.11 111.85-53.46 130.56-62.09 1.66-.76 3.55.45 3.55 2.28v155.88c0 .64-.25 1.26-.7 1.73l-73.96 77.36c-.47.49-.72 1.16-.69 1.85l3.29 69c.06 1.43-1.08 2.63-2.51 2.63h-119.83c-1.77 0-2.98-1.8-2.32-3.45l25.74-63.42c.12-.3.18-.62.18-.94v-52.91c0-.95-.54-1.82-1.39-2.24-3.94-1.99-14.74-8.87-11.62-23.62.3-1.43-.7-2.81-2.15-2.97-22.34-2.55-52.76-11.08-65.81-27.43-1.41-1.78-.01-4.34 2.24-4.08 15.34 1.78 32.78-1.56 42.44-3.9 2.35-.56 2.6-3.8.38-4.73-18.69-7.81-68.88-32.66-81.62-78.61-.59-2.14 1.64-3.93 3.6-2.9 25.8 13.59 48.13 17.79 60.39 19.07 2.63.28 3.82-3.18 1.6-4.6-24.37-15.62-93.72-65.92-105.24-139.28-.36-2.34 2.43-3.84 4.17-2.24zm289.32 398.25h183.48c1.67 0 3.01-1.37 3-3.04-.14-18.61-6.93-116.68-134.5-117.36-.84-.01-1.65.34-2.22.96-9.16 9.87-48.85 50.67-55.41 57.42-.59.61-.9 1.43-.85 2.27l3.5 56.93c.1 1.58 1.41 2.82 3 2.82z" fill="#2c2e35"/></g></svg>