<svg viewBox="0 0 8.25 8.18" xmlns="http://www.w3.org/2000/svg" xmlns:xlink="http://www.w3.org/1999/xlink"><clipPath id="a" transform="translate(-.43 -.42)"><path d="m.41.41h8.28v8.19h-8.28z"/></clipPath><g clip-path="url(#a)" fill="#000"><path d="m8.09 7.48a2.31 2.31 0 0 1 .48 1 .06.06 0 0 1 -.06.08h-2.88l-1.19-1.08c-.22-.44-.1-.88-.5-1.17a.64.64 0 0 0 -.46-.07 7.66 7.66 0 0 1 -.66-1.16.11.11 0 0 1 0-.08 2.61 2.61 0 0 1 .29-.46c.19-.23 1.32-1.22 1.37-1.29a15.61 15.61 0 0 0 .87-1.77c0-.06.07-.68.08-.89a.06.06 0 0 1 .07-.06 3.22 3.22 0 0 1 .89.21 2.08 2.08 0 0 1 .07-.28.06.06 0 0 1 .08 0 4.7 4.7 0 0 1 2.13 1.66.09.09 0 0 1 0 .11 4.47 4.47 0 0 0 -.67.56l-.78-.58a.23.23 0 0 0 -.14 0 .25.25 0 0 0 -.19.09.24.24 0 0 0 .11.3l.73.54a7.47 7.47 0 0 0 -.51.62l-.66-.48a.24.24 0 0 0 -.14 0 .26.26 0 0 0 -.19.1.23.23 0 0 0 0 .33l.77.5a6.08 6.08 0 0 0 0 1.6 8.48 8.48 0 0 1 -.14 1.05c.39.23.91.25 1.28.62" transform="translate(-.43 -.42)"/><path d="m5 .92v.45.06l-4-.35a0 0 0 0 1 -.07-.08z" transform="translate(-.43 -.42)"/><path d="m4.52 2.31c-.08.15-.15.31-.22.43l-2.49-.26a0 0 0 0 1 0-.09z" transform="translate(-.43 -.42)"/><path d="m3.49 3.65-.49.45-2.53-.35a0 0 0 0 1 0-.09z" transform="translate(-.43 -.42)"/></g></svg>