<svg height="580" viewBox="0 0 580 580" width="580" xmlns="http://www.w3.org/2000/svg" xmlns:xlink="http://www.w3.org/1999/xlink"><clipPath id="a"><path d="m-10-10h600v600h-600z"/></clipPath><g clip-path="url(#a)"><path d="m290 574.35c-3.93 0-7.6-1.52-10.38-4.31l-269.66-269.66c-5.74-5.74-5.74-15.02 0-20.76l269.66-269.66c2.78-2.79 6.45-4.31 10.38-4.31s7.6 1.52 10.38 4.31l269.66 269.66c5.74 5.74 5.74 15.02 0 20.76l-269.66 269.66c-2.78 2.79-6.45 4.31-10.38 4.31z" fill="#6e5541"/><g fill="#fff"><path d="m303.93 6.44 269.66 269.65c7.68 7.68 7.68 20.14 0 27.82l-269.66 269.66c-3.84 3.84-8.91 5.78-13.93 5.78s-10.09-1.94-13.93-5.78l-269.66-269.66c-7.68-7.68-7.68-20.14 0-27.82l269.66-269.65c3.84-3.85 8.91-5.79 13.93-5.79s10.09 1.94 13.93 5.79zm-20.77 7.04-269.65 269.66c-1.86 1.86-2.88 4.26-2.88 6.84 0 2.62 1.02 5.02 2.88 6.88l269.65 269.66c1.82 1.81 4.26 2.82 6.84 2.82 2.57 0 5.02-1.01 6.84-2.82l269.65-269.66c1.86-1.86 2.87-4.26 2.87-6.88 0-2.58-1.01-4.98-2.87-6.84l-269.65-269.66c-1.82-1.81-4.27-2.82-6.84-2.82-2.58 0-5.02 1.01-6.84 2.82z" fill-rule="evenodd"/><path d="m274.11 165.35 3.38 32.04c.59 6.04 0 10.3-1.86 12.83-1.81 2.58-4.35 4.81-7.6 6.76l-38.62 23.76-6.04-4.9c6.25-8.56 8.91-17.26 7.98-26.12l-4.64-44.58c-.17-1.56 12.91-9.37 39.21-23.43 26.34-14.06 41.92-21.36 46.73-21.87 4.81-.5 11.99 4.65 21.57 15.37 9.54 10.72 14.65 19.21 15.28 25.45l7.05 67.63c.72 6.8-4.68 16.55-16.12 29.34s-23.01 23.85-34.66 33.26l-17.52 14.06 1.14 10.93c.85 8.11 2.87 14.27 6.08 18.53 3.25 4.31 6.29 6.55 9.2 6.76l4.01.38.89 8.61c-23.72 17.47-36.51 26.3-38.33 26.51-1.81.17-6.25-2.24-13.21-7.35-6.97-5.06-10.77-10.3-11.32-15.79l-5.48-52.76c-.3-2.87 7.51-10.34 23.51-22.42 16-12.07 27.56-21.82 34.7-29.29 7.13-7.47 10.47-13.55 9.96-18.24l-4.73-45.33c-1.18-11.49-3.12-19.38-5.82-23.69-2.7-4.34-6.59-6.24-11.65-5.7-5.07.51-9.46 3.59-13.09 9.25zm-19.16 271.09-2.49-23.85c-.09-.76 5.06-3.76 15.49-8.91 10.38-5.19 16.42-7.85 18.11-8.02s4.39 1.78 8.1 5.87c3.76 4.1 5.83 8.49 6.33 13.17l2.96 28.54c.08.8-4.86 3.71-14.86 8.86-10 5.11-16.17 7.81-18.53 8.06-2.37.26-5.28-1.77-8.74-5.99-3.46-4.26-5.57-10.17-6.37-17.73z"/></g></g></svg>