<svg id="svg" version="1.1" xmlns="http://www.w3.org/2000/svg" xmlns:xlink="http://www.w3.org/1999/xlink" width="400" height="400" viewBox="0, 0, 400,400"><g id="svgg"><path id="path0" d="M210.953 80.413 C 199.512 85.058,165.001 103.443,156.984 109.163 L 155.055 110.540 155.255 113.827 C 155.365 115.636,155.651 118.885,155.890 121.048 C 158.875 148.009,158.717 151.314,154.082 158.949 C 152.452 161.633,152.391 161.130,154.566 162.939 L 156.393 164.460 158.992 163.054 C 168.387 157.970,186.365 146.713,188.356 144.668 C 191.168 141.779,191.406 137.029,189.577 120.360 L 188.575 111.237 189.424 109.955 C 192.753 104.930,199.630 102.976,203.675 105.906 C 208.238 109.211,209.526 115.169,212.603 147.187 C 213.729 158.898,213.724 160.207,212.551 162.692 C 209.741 168.647,202.121 175.943,184.096 189.939 C 173.090 198.485,167.902 203.023,166.162 205.627 L 165.109 207.202 166.412 219.505 C 169.563 249.261,169.390 248.284,172.108 251.637 C 174.840 255.008,183.647 261.287,185.815 261.410 C 187.395 261.499,190.166 259.765,202.091 251.224 C 207.047 247.674,211.690 244.351,212.407 243.840 L 213.711 242.911 213.509 240.060 C 213.282 236.867,213.030 236.461,211.270 236.456 C 205.210 236.440,199.827 226.928,198.967 214.718 C 198.654 210.268,198.287 210.966,202.953 207.147 C 233.438 182.194,247.254 166.279,247.062 156.339 C 246.986 152.406,243.575 119.536,242.147 108.980 C 241.212 102.068,237.844 96.507,228.998 87.267 C 220.825 78.730,217.867 77.606,210.953 80.413 M192.498 276.992 C 187.657 279.183,178.596 283.740,175.952 285.313 L 173.655 286.680 173.840 291.202 C 174.047 296.252,174.973 304.818,175.677 308.193 C 176.901 314.062,182.125 321.080,185.270 321.080 C 187.924 321.080,209.452 310.232,209.452 308.895 C 209.452 307.371,207.270 289.021,206.869 287.172 C 206.123 283.730,204.523 281.042,201.306 277.825 C 198.453 274.972,197.217 274.856,192.498 276.992 " stroke="none" fill="#fbfbfb" fill-rule="evenodd"></path><path id="path1" d="M196.999 1.471 C 194.746 2.517,1.958 195.907,1.212 197.869 C 0.798 198.958,0.839 201.304,1.289 202.301 C 2.110 204.120,169.965 372.564,191.269 392.948 L 197.228 398.650 199.851 398.650 L 202.474 398.650 216.241 385.153 C 248.977 353.057,385.416 216.277,396.530 204.412 L 398.862 201.923 398.755 199.575 L 398.649 197.226 392.048 190.375 C 368.200 165.624,204.092 2.073,202.318 1.289 C 201.075 0.739,198.376 0.832,196.999 1.471 M220.555 80.111 C 226.703 83.760,236.264 94.417,240.162 101.964 C 241.798 105.131,241.893 105.693,243.934 124.231 C 247.252 154.363,247.485 157.808,246.414 160.911 C 242.944 170.956,228.854 185.946,202.953 207.147 C 198.287 210.966,198.654 210.268,198.967 214.718 C 199.827 226.928,205.210 236.440,211.270 236.456 C 213.030 236.461,213.282 236.867,213.509 240.060 L 213.711 242.911 212.407 243.840 C 211.690 244.351,207.047 247.674,202.091 251.224 C 190.166 259.765,187.395 261.499,185.815 261.410 C 183.647 261.287,174.840 255.008,172.108 251.637 C 169.390 248.284,169.563 249.261,166.412 219.505 L 165.109 207.202 166.162 205.627 C 167.902 203.023,173.090 198.485,184.096 189.939 C 202.121 175.943,209.741 168.647,212.551 162.692 C 213.724 160.207,213.729 158.898,212.603 147.187 C 209.526 115.169,208.238 109.211,203.675 105.906 C 199.630 102.976,192.753 104.930,189.424 109.955 L 188.575 111.237 189.577 120.360 C 191.406 137.029,191.168 141.779,188.356 144.668 C 186.365 146.713,168.387 157.970,158.992 163.054 L 156.393 164.460 154.566 162.939 C 152.391 161.130,152.452 161.633,154.082 158.949 C 158.717 151.314,158.875 148.009,155.890 121.048 C 155.651 118.885,155.365 115.636,155.255 113.827 L 155.055 110.540 156.984 109.163 C 165.001 103.443,199.512 85.058,210.953 80.413 C 215.640 78.510,217.746 78.444,220.555 80.111 M199.164 276.059 C 202.551 278.124,205.979 283.069,206.869 287.172 C 207.270 289.021,209.452 307.371,209.452 308.895 C 209.452 310.232,187.924 321.080,185.270 321.080 C 182.125 321.080,176.901 314.062,175.677 308.193 C 174.973 304.818,174.047 296.252,173.840 291.202 L 173.655 286.680 175.952 285.313 C 178.596 283.740,187.657 279.183,192.498 276.992 C 196.181 275.325,197.627 275.122,199.164 276.059 " stroke="none" fill="#6c5444" fill-rule="evenodd"></path></g></svg>