<svg height="560" width="560" xmlns="http://www.w3.org/2000/svg"><path d="m280 555.6c-37.2 0-73.3-7.3-107.3-21.7-32.8-13.9-62.3-33.7-87.6-59s-45.1-54.8-59-87.6c-14.4-34-21.7-70.1-21.7-107.3s7.3-73.3 21.7-107.3c13.9-32.8 33.7-62.3 59-87.6s54.8-45.1 87.6-59c34-14.4 70.1-21.7 107.3-21.7s73.3 7.3 107.3 21.7c32.8 13.9 62.3 33.7 87.6 59s45.1 54.8 59 87.6c14.4 34 21.7 70.1 21.7 107.3s-7.3 73.3-21.7 107.3c-13.9 32.8-33.7 62.3-59 87.6s-54.8 45.1-87.6 59c-34 14.4-70.1 21.7-107.3 21.7zm0-529.6c-140.1 0-254 113.9-254 254s113.9 254 254 254 254-113.9 254-254-113.9-254-254-254z" fill="#fff" fill-rule="evenodd"/><path d="m445.3 72.2c2.1-2 4.9-3.1 8-3.1 12.1 0 30.5 16.9 35.9 30.1 3.6 8.6.6 13.4-1.4 15.5l-373.1 373.1c-.9.9-2.6 1.9-5.2 1.9-9.4 0-33.5-18-39-31.3-2.9-7-.1-11.2 1.7-13.1z" fill="#e26969"/><g fill-rule="evenodd"><path d="m441.8 68.7c.7-.7 4.2 1.7 9 5.8q-1.1.4-1.9 1.3l-168.9 168.8-35.4 35.4-168.8 168.9q-.7.6-1 1.4c-4.1-4.7-6.6-8-6.1-8.5zm49.5 49.5-373.1 373.1c-.5.5-4.1-2.2-9.1-6.6h.4q1.1 0 1.7-.5l168.8-168.9 35.4-35.3 168.8-168.9q.8-.7 1.2-1.6c4 4.7 6.5 8.1 5.9 8.7zm-37.9-44.1q-1.4 0-2.6.4c10.1 8.7 26 24.9 34.6 35 4.5-10.1-19.7-35.4-32-35.4zm-344.3 410.6c-10-8.9-25.7-24.6-34.3-34.4-4.8 10 25.3 33.7 34.3 34.4z" fill="#fff"/><path d="m389 22c33.3 14.1 63.3 34.3 89 60s45.9 55.7 60 89c14.6 34.5 22 71.2 22 109s-7.4 74.5-22 109c-14.1 33.3-34.3 63.3-60 89s-55.7 45.9-89 60c-34.5 14.6-71.2 22-109 22s-74.5-7.4-109-22c-33.3-14.1-63.3-34.3-89-60s-45.9-55.7-60-89c-14.6-34.5-22-71.2-22-109s7.4-74.5 22-109c14.1-33.3 34.3-63.3 60-89s55.7-45.9 89-60c34.5-14.6 71.2-22 109-22s74.5 7.4 109 22zm-373 258c0 145.8 118.2 264 264 264s264-118.2 264-264-118.2-264-264-264-264 118.2-264 264z" fill="#e26969"/></g></svg>