<svg version="1.2" xmlns="http://www.w3.org/2000/svg" viewBox="0 0 400 400" width="400" height="400"><style></style><path  d="m129.6 394.9c-2 1.6-4.5 2.5-7 2.5-2.5 0.1-5-0.6-7.1-2.1-2.2-1.4-3.7-3.5-4.6-5.9-0.9-2.4-0.9-5-0.2-7.4q6.9-22.1 12.2-44.6 5.2-22.6 8.7-45.4 3.5-22.9 5.3-46 1.8-23.1 1.8-46.2 0-23.1-1.8-46.1-1.7-23-5.3-45.9-3.5-22.8-8.7-45.3-5.3-22.5-12.2-44.5c-0.9-2.5-0.9-5.1-0.1-7.6 0.8-2.5 2.4-4.7 4.5-6.2 2.2-1.5 4.7-2.3 7.3-2.2 2.7 0.1 5.2 1 7.2 2.7l155.5 185.6c1.5 1.1 2.8 2.6 3.6 4.3 0.9 1.7 1.3 3.5 1.3 5.4 0 1.9-0.4 3.7-1.3 5.4-0.8 1.7-2.1 3.2-3.6 4.3z"/></svg>