<svg xmlns="http://www.w3.org/2000/svg" width="1000" height="1000" viewBox="0 0 1000 1000"><path d="M427.1 408.3c-45.1 49.8-118.3 62.6-177.5 30.9-59.3-31.7-89.4-99.6-73.1-164.8 16.4-65.2 75-110.9 142.1-110.9 10.2-.1 20.4.9 30.4 3s19.7 5.3 29.1 9.4c9.3 4.1 18.1 9.3 26.4 15.3 8.2 6 15.8 12.8 22.6 20.4h211.5V95.7c0-24.4-19.7-44.1-44-44.1H42.7C18.9 52.3 0 71.8 0 95.7v807.7c0 24 19.4 43.4 43.4 43.4h551.2c24.1 0 43.7-19.3 44-43.4V408.3z"/><path d="M764.1 446.3v-81.4H406.8c-19.7 32-55.5 50.3-92.9 47.5-48.3-2.9-88-39.3-95.1-87.3-7.1-47.9 20.4-94.2 65.8-111 45.5-16.8 96.4.6 122.2 41.6h357.9v-82L1000 309.3z" style="fill:#e26969"/><path d="M444.7 811.2c-8.9 1-18 1.1-27 .3-9-.9-17.9-2.7-26.6-5.5-8.6-2.7-16.9-6.4-24.7-10.8-7.9-4.5-15.3-9.8-22-15.9l33.9-52.2c21.9 19.7 54.1 22.9 79.5 8.1 25.4-14.9 38.4-44.5 32-73.3s-30.6-50.1-60-52.8c-39.3 0-73.2 61.7-86.1 83.4-50.8 90.2-89.5 114.6-140.3 114.6-68.7-2.9-124.4-56.8-129.5-125.5-2.5-69.2 49.1-128.5 118-135.6 8.9-1.1 17.9-1.2 26.9-.3 8.9.9 17.8 2.7 26.4 5.4 8.5 2.8 16.8 6.4 24.6 10.9s15.1 9.8 21.7 15.9l-33.9 52.2c-21.9-19.7-54-22.9-79.5-8.1-25.4 14.9-38.3 44.5-31.9 73.3 6.3 28.7 30.6 50.1 59.9 52.8 40 0 73.9-61.7 86.8-83.4 50.8-90.2 89.5-112.6 135.6-114.6 61.9 11.5 107.7 64.1 110.6 127.1 2.9 62.9-37.9 119.5-98.4 136.7" style="fill:#fff"/></svg>