<svg xmlns="http://www.w3.org/2000/svg" width="1000" height="px" viewBox="0 0 1000 867">
    <defs>
        <clipPath id="a">
            <path d="M226 118h758.547v265H226zm0 0" />
        </clipPath>
    </defs>
    <path style="stroke:none;fill-rule:nonzero;fill:#000;fill-opacity:1"
        d="M429.746 345.488c-43.676 48.242-114.57 60.563-171.953 29.887-57.387-30.68-86.543-96.488-70.723-159.625 15.825-63.137 72.563-107.402 137.625-107.375a139.823 139.823 0 0 1 105.051 46.633h204.852V42.69c0-23.578-19.11-42.691-42.68-42.691H57.477C34.418.71 16.102 19.617 16.109 42.691v782.274C16.11 848.18 34.926 867 58.133 867h533.785c23.316.004 42.32-18.715 42.68-42.035V345.488zm0 0" />
    <g clip-path="url(#a)">
        <path style="stroke:none;fill-rule:nonzero;fill:#e26969;fill-opacity:1"
            d="M756.063 382.27v-78.82H410.05c-19.04 30.937-53.735 48.671-89.95 45.976-46.816-2.828-85.246-38.09-92.101-84.508-6.852-46.418 19.75-91.29 63.754-107.535 44-16.246 93.363.578 118.297 40.32h346.668v-79.476L984.547 249.59zm0 0" />
    </g>
    <path style="stroke:none;fill-rule:nonzero;fill:#fff;fill-opacity:1"
        d="M446.816 735.637a124.068 124.068 0 0 1-97.171-30.871l32.832-50.575c21.234 19.063 52.343 22.227 76.976 7.825 24.633-14.403 37.152-43.07 30.973-70.934-6.18-27.867-29.64-48.547-58.051-51.176-38.082 0-70.91 59.77-83.387 80.785-49.242 87.36-86.664 111.004-135.906 111.004-66.562-2.816-120.469-55.047-125.406-121.511-2.426-67.047 47.531-124.493 114.242-131.364a122.086 122.086 0 0 1 96.516 30.871l-32.829 50.575c-21.234-19.063-52.343-22.227-76.98-7.825-24.633 14.403-37.148 43.07-30.969 70.934 6.18 27.867 29.64 48.547 58.051 51.176 38.738 0 71.566-59.77 84.04-80.79 49.241-87.355 86.667-109.03 131.315-111 59.93 11.176 104.29 62.145 107.106 123.067 2.816 60.922-36.648 115.77-95.29 132.434" />
</svg>