<svg height="580" viewBox="0 0 580 580" width="580" xmlns="http://www.w3.org/2000/svg"
    xmlns:xlink="http://www.w3.org/1999/xlink">
    <clipPath id="a">
        <path d="m-10-10h600v600h-600z" />
    </clipPath>
    <g clip-path="url(#a)">
        <path
            d="m290 576.22c-3.95 0-7.65-1.53-10.45-4.33l-271.44-271.44c-5.77-5.78-5.77-15.12 0-20.9l271.44-271.44c2.8-2.8 6.5-4.33 10.45-4.33s7.65 1.53 10.45 4.33l271.44 271.44c5.77 5.78 5.77 15.12 0 20.9l-271.44 271.44c-2.8 2.8-6.5 4.33-10.45 4.33z"
            fill="#d28c4d" />
        <g fill="#fff">
            <path
                d="m303.93 6.44 269.66 269.65c7.68 7.68 7.68 20.14 0 27.82l-269.66 269.66c-3.84 3.84-8.91 5.78-13.93 5.78s-10.09-1.94-13.93-5.78l-269.66-269.66c-7.68-7.68-7.68-20.14 0-27.82l269.66-269.65c3.84-3.85 8.91-5.79 13.93-5.79s10.09 1.94 13.93 5.79zm-20.77 7.04-269.65 269.66c-3.8 3.8-3.8 9.92 0 13.72l269.65 269.66c1.82 1.81 4.26 2.82 6.84 2.82 2.57 0 5.02-1.01 6.84-2.82l269.65-269.66c1.86-1.86 2.87-4.26 2.87-6.88 0-2.58-1.01-4.98-2.87-6.84l-269.65-269.66c-1.82-1.81-4.27-2.82-6.84-2.82-2.58 0-5.02 1.01-6.84 2.82z"
                fill-rule="evenodd" />
            <path
                d="m433.65 262.95-15.12 15.24h-347.32l-7.22 11.81 7.22 11.82h347.32l15.12 15.24c1.77 1.78 4.43 2.37 6.79 1.48l72.61-27.44c1.01-.38 1.01-1.81 0-2.23l-72.61-27.4c-2.36-.89-5.02-.3-6.79 1.48z" />
            <path
                d="m255.27 242.12-19.5-37.61 27.52 5.02 4.98-55.09 22.59 35.12 51.37-89.15-7.09 91.18 41.66-22.12-22.5 48.84 30.23 2.49-43.1 30.01c-1.56 1.1-3.76.68-4.77-.92-4.05-6.42-15.45-20.69-37.28-21.28-16.54-.42-32.54 9.88-39.13 14.69-1.64 1.22-4.01.68-4.98-1.18z" />
            <path
                d="m325.57 339.04 19.98 38.53-28.19-5.14-5.1 56.43-23.14-35.98-52.62 91.32 7.26-93.4-42.68 22.66 23.05-50.03-30.96-2.55 44.15-30.74c1.6-1.13 3.85-.7 4.89.95 4.15 6.57 15.82 21.19 38.18 21.79 16.95.43 33.34-10.12 40.08-15.05 1.69-1.25 4.11-.69 5.1 1.21z" />
        </g>
    </g>
</svg>