<svg id="svg" version="1.1" xmlns="http://www.w3.org/2000/svg" xmlns:xlink="http://www.w3.org/1999/xlink" width="400" height="400" viewBox="0, 0, 400,400"><g id="svgg"><path id="path0" d="M230.886 68.915 C 225.897 82.142,205.689 134.431,205.569 134.426 C 205.477 134.421,201.823 127.404,197.449 118.833 L 189.497 103.248 189.307 105.112 C 189.203 106.138,189.102 113.695,189.082 121.905 C 189.063 130.116,188.936 136.834,188.799 136.834 C 188.663 136.834,186.873 136.214,184.823 135.456 C 178.270 133.035,171.840 130.817,171.614 130.901 C 171.388 130.985,177.439 141.537,184.546 153.452 C 189.311 161.440,188.824 161.108,192.834 159.101 C 205.809 152.607,218.331 154.825,228.807 165.473 C 231.885 168.602,232.745 169.705,235.956 174.644 C 238.763 178.961,238.320 179.131,252.028 168.492 L 261.307 161.290 258.861 161.095 C 257.515 160.988,253.553 160.886,250.055 160.870 C 246.558 160.854,243.620 160.717,243.527 160.567 C 243.390 160.344,254.179 141.152,260.213 130.885 C 261.021 129.511,261.509 128.487,261.298 128.610 C 260.910 128.837,239.962 144.827,234.584 149.003 L 231.658 151.274 231.618 120.273 C 231.569 82.981,231.351 67.682,230.886 68.915 M297.946 185.025 L 291.529 191.447 167.764 191.523 L 44.000 191.598 41.475 195.790 C 39.011 199.881,38.962 199.999,39.428 200.741 C 39.690 201.159,40.818 203.015,41.933 204.866 L 43.961 208.233 167.595 208.242 L 291.228 208.252 297.674 214.704 C 301.220 218.252,304.241 221.155,304.387 221.155 C 304.944 221.155,352.603 203.052,358.100 200.752 L 360.461 199.765 352.999 196.934 C 342.124 192.809,306.711 179.447,305.445 178.991 L 304.363 178.602 297.946 185.025 M237.126 225.131 C 236.492 225.998,235.104 227.987,234.041 229.551 C 223.445 245.146,209.519 249.623,193.597 242.553 C 191.150 241.466,189.674 240.969,189.246 241.088 C 188.496 241.295,179.129 256.637,172.421 268.646 L 171.287 270.674 176.792 268.756 C 179.819 267.700,183.815 266.285,185.671 265.610 L 189.047 264.384 189.047 279.787 C 189.047 288.259,189.134 295.825,189.241 296.600 L 189.434 298.010 190.917 295.217 C 191.733 293.680,195.109 287.157,198.420 280.720 C 201.730 274.284,204.740 268.572,205.108 268.027 L 205.778 267.036 206.852 269.827 C 207.442 271.362,210.371 278.965,213.359 286.722 C 216.348 294.479,221.587 308.085,225.001 316.959 L 231.208 333.092 231.361 322.210 C 231.445 316.225,231.547 297.632,231.589 280.892 C 231.630 264.153,231.696 250.425,231.736 250.386 C 231.775 250.347,238.471 255.445,246.615 261.713 C 254.759 267.982,261.463 273.068,261.513 273.015 C 261.580 272.943,248.293 249.675,243.509 241.485 L 243.027 240.660 246.420 240.620 C 248.286 240.598,252.436 240.497,255.642 240.395 L 261.472 240.210 251.741 232.683 C 238.024 222.073,238.996 222.575,237.126 225.131 " stroke="none" fill="#fbfbfb" fill-rule="evenodd"></path><path id="path1" d="M197.449 1.266 C 196.391 1.610,2.922 194.661,1.647 196.646 C 1.248 197.268,1.095 198.119,1.076 199.833 L 1.050 202.173 16.650 218.041 C 50.965 252.945,196.126 397.879,197.233 398.341 C 198.592 398.909,201.345 398.935,202.643 398.393 C 203.961 397.842,397.413 204.392,398.212 202.826 C 398.930 201.419,398.991 198.788,398.341 197.233 C 397.879 196.127,252.997 51.017,218.083 16.691 L 202.257 1.132 200.378 1.029 C 199.345 0.972,198.027 1.079,197.449 1.266 M231.618 120.273 L 231.658 151.274 234.584 149.003 C 239.962 144.827,260.910 128.837,261.298 128.610 C 261.509 128.487,261.021 129.511,260.213 130.885 C 254.179 141.152,243.390 160.344,243.527 160.567 C 243.620 160.717,246.558 160.854,250.055 160.870 C 253.553 160.886,257.515 160.988,258.861 161.095 L 261.307 161.290 252.028 168.492 C 238.320 179.131,238.763 178.961,235.956 174.644 C 232.745 169.705,231.885 168.602,228.807 165.473 C 218.331 154.825,205.809 152.607,192.834 159.101 C 188.824 161.108,189.311 161.440,184.546 153.452 C 177.439 141.537,171.388 130.985,171.614 130.901 C 171.840 130.817,178.270 133.035,184.823 135.456 C 186.873 136.214,188.663 136.834,188.799 136.834 C 188.936 136.834,189.063 130.116,189.082 121.905 C 189.102 113.695,189.203 106.138,189.307 105.112 L 189.497 103.248 197.449 118.833 C 201.823 127.404,205.477 134.421,205.569 134.426 C 205.689 134.431,225.897 82.142,230.886 68.915 C 231.351 67.682,231.569 82.981,231.618 120.273 M326.032 186.742 C 336.759 190.791,348.894 195.377,352.999 196.934 L 360.461 199.765 358.100 200.752 C 352.603 203.052,304.944 221.155,304.387 221.155 C 304.241 221.155,301.220 218.252,297.674 214.704 L 291.228 208.252 167.595 208.242 L 43.961 208.233 41.933 204.866 C 40.818 203.015,39.690 201.159,39.428 200.741 C 38.962 199.999,39.011 199.881,41.475 195.790 L 44.000 191.598 167.764 191.523 L 291.529 191.447 297.946 185.025 L 304.363 178.602 305.445 178.991 C 306.040 179.206,315.304 182.693,326.032 186.742 M240.816 224.356 C 241.473 224.796,246.389 228.543,251.741 232.683 L 261.472 240.210 255.642 240.395 C 252.436 240.497,248.286 240.598,246.420 240.620 L 243.027 240.660 243.509 241.485 C 248.293 249.675,261.580 272.943,261.513 273.015 C 261.463 273.068,254.759 267.982,246.615 261.713 C 238.471 255.445,231.775 250.347,231.736 250.386 C 231.696 250.425,231.630 264.153,231.589 280.892 C 231.547 297.632,231.445 316.225,231.361 322.210 L 231.208 333.092 225.001 316.959 C 221.587 308.085,216.348 294.479,213.359 286.722 C 210.371 278.965,207.442 271.362,206.852 269.827 L 205.778 267.036 205.108 268.027 C 204.740 268.572,201.730 274.284,198.420 280.720 C 195.109 287.157,191.733 293.680,190.917 295.217 L 189.434 298.010 189.241 296.600 C 189.134 295.825,189.047 288.259,189.047 279.787 L 189.047 264.384 185.671 265.610 C 183.815 266.285,179.819 267.700,176.792 268.756 L 171.287 270.674 172.421 268.646 C 179.129 256.637,188.496 241.295,189.246 241.088 C 189.674 240.969,191.150 241.466,193.597 242.553 C 209.519 249.623,223.445 245.146,234.041 229.551 C 238.565 222.892,238.595 222.869,240.816 224.356 " stroke="none" fill="#cc945c" fill-rule="evenodd"></path></g></svg>