<svg height="580" viewBox="0 0 580 580" width="580" xmlns="http://www.w3.org/2000/svg" xmlns:xlink="http://www.w3.org/1999/xlink"><clipPath id="a"><path d="m-10-10h600v600h-600z"/></clipPath><g clip-path="url(#a)"><path d="m290 574.35c-3.93 0-7.6-1.52-10.38-4.31l-269.66-269.66c-5.74-5.74-5.74-15.02 0-20.76l269.66-269.66c2.78-2.79 6.45-4.31 10.38-4.31s7.6 1.52 10.38 4.31l269.66 269.66c5.74 5.74 5.74 15.02 0 20.76l-269.66 269.66c-2.78 2.79-6.45 4.31-10.38 4.31z" fill="#758166"/><g fill="#fff" fill-rule="evenodd"><path d="m303.93 6.44 269.66 269.65c7.68 7.68 7.68 20.14 0 27.82l-269.66 269.66c-3.84 3.84-8.91 5.78-13.93 5.78s-10.09-1.94-13.93-5.78l-269.66-269.66c-7.68-7.68-7.68-20.14 0-27.82l269.66-269.65c3.84-3.85 8.91-5.79 13.93-5.79s10.09 1.94 13.93 5.79zm-20.77 7.04-269.65 269.66c-3.8 3.8-3.8 9.92 0 13.72l269.65 269.66c1.82 1.81 4.27 2.82 6.84 2.82s5.02-1.01 6.84-2.82l269.65-269.66c3.8-3.8 3.8-9.92 0-13.72l-269.65-269.66c-1.82-1.81-4.27-2.82-6.84-2.82s-5.02 1.01-6.84 2.82z"/><path d="m431.55 358.98c-12.24 8.58-32.97 13.6-62.18 15.07 4.42 27.66 4.42 43.52 0 47.57-17.27 15.96-145.76 14.94-158.72 0-3.94-4.53-3.94-20.39 0-47.57-29.21-1.47-49.95-6.49-62.22-15.07-14.95-10.47-40.99-38.38-27.65-96.88 7.51-32.89 24.95-95.11 169.23-95.11 144.24 0 161.72 62.22 169.19 95.11 13.38 58.5-12.71 86.41-27.65 96.88zm-205.62-78.52 27.78-24.27.08-.09c1.98-1.9 3.04-4.47 3.04-7.17s-1.06-5.24-3.04-7.14c-3.97-3.88-10.47-3.88-14.44 0l-24.27 27.82-24.74-27.73c-1.81-1.94-4.26-3-6.83-3-2.62 0-5.03 1.06-6.84 3-3.68 3.88-3.68 10.21 0 14.1l27.56 24.48-27.86 24.27-.08.09c-1.99 1.9-3.13 4.43-3.13 7.17 0 2.71 1.14 5.24 3.13 7.14 1.94 1.9 4.56 2.91 7.34 2.91 2.75 0 5.36-1.01 7.35-2.91l24.14-27.82 24.57 27.56.09.09c1.85 1.86 4.26 2.91 6.88 2.91 2.61 0 5.06-1.05 6.88-2.91 3.75-3.84 3.75-10.05 0-13.89zm80.29 52.6c-2.83-13.43-8.36-17.69-17.27-16-8.86 1.69-23.38 36.81-19.58 44.2 3.37 6.62 9.03-2.54 22.24 0 8.78 1.73 12.33 8.69 17.61 5.78 5.31-2.96.76-16.17-3-33.98zm69.69-52.6 27.78-24.27.08-.09c1.99-1.9 3.04-4.47 3.04-7.17s-1.05-5.24-3.04-7.14c-3.97-3.88-10.47-3.88-14.43 0l-24.28 27.82-24.73-27.73c-1.82-1.94-4.27-3-6.84-3-2.62 0-5.03 1.06-6.84 3-3.67 3.88-3.67 10.21 0 14.1l27.56 24.48-27.86 24.27-.08.09c-1.98 1.9-3.08 4.43-3.08 7.17 0 2.71 1.1 5.24 3.08 7.14s4.56 2.91 7.34 2.91c2.75 0 5.37-1.01 7.35-2.91l24.15-27.82 24.56 27.56.09.09c1.85 1.86 4.26 2.91 6.88 2.91s5.06-1.05 6.88-2.91c3.76-3.84 3.76-10.05 0-13.89z"/></g></g></svg>