<svg id="svg" version="1.1" xmlns="http://www.w3.org/2000/svg" xmlns:xlink="http://www.w3.org/1999/xlink" width="400" height="400" viewBox="0, 0, 400,400"><g id="svgg"><path id="path0" d="M186.947 115.964 C 127.795 119.807,96.430 138.173,85.860 175.156 C 76.528 207.808,81.679 234.318,100.375 249.848 C 108.405 256.518,123.110 260.913,143.047 262.602 C 148.064 263.027,147.728 262.616,147.010 267.464 C 145.370 278.534,145.741 286.228,148.030 288.623 C 158.541 299.619,248.368 299.572,260.696 288.565 C 263.274 286.262,263.387 271.971,260.893 263.435 C 260.773 263.024,261.220 262.925,263.985 262.748 C 273.778 262.120,288.061 259.439,295.453 256.841 C 319.788 248.290,331.802 220.796,325.712 187.594 C 317.853 144.745,291.593 123.972,236.909 117.348 C 224.174 115.805,199.788 115.129,186.947 115.964 M126.872 167.563 C 128.299 168.476,131.529 171.837,139.660 180.870 C 143.262 184.872,146.318 188.147,146.451 188.147 C 146.782 188.147,150.979 183.558,157.976 175.544 C 165.215 167.254,165.547 166.992,168.816 166.992 C 173.225 166.992,175.904 169.463,176.097 173.706 C 176.248 177.033,175.786 177.550,161.294 190.261 C 153.663 196.954,154.225 196.119,156.120 197.940 C 156.983 198.769,160.255 201.731,163.391 204.522 C 174.971 214.828,175.850 215.837,175.837 218.820 C 175.821 222.786,172.769 225.650,168.552 225.655 C 166.016 225.658,165.666 225.338,153.346 211.772 L 146.603 204.347 145.728 205.222 C 145.246 205.703,141.327 210.120,137.017 215.037 C 127.889 225.453,127.472 225.810,124.430 225.798 C 120.027 225.782,117.173 223.370,116.809 219.358 C 116.501 215.963,116.727 215.705,131.129 202.944 C 135.005 199.509,138.205 196.497,138.239 196.249 C 138.274 195.994,134.990 192.874,130.660 189.047 C 117.691 177.587,117.323 177.168,117.336 173.828 C 117.356 168.552,122.812 164.967,126.872 167.563 M233.243 167.251 C 234.392 167.739,237.907 171.347,246.763 181.131 L 253.315 188.368 255.171 186.382 C 256.192 185.290,259.871 181.155,263.347 177.194 C 272.243 167.058,272.683 166.701,276.075 166.893 C 280.647 167.151,283.703 171.099,282.850 175.644 C 282.544 177.273,281.281 178.582,272.185 186.690 C 267.490 190.875,263.119 194.774,262.472 195.354 L 261.295 196.410 269.657 203.936 C 281.900 214.955,282.671 215.815,282.671 218.452 C 282.671 222.450,280.226 225.284,276.521 225.582 C 272.974 225.867,272.779 225.706,261.293 212.978 C 257.011 208.233,253.458 204.351,253.398 204.351 C 253.338 204.351,249.945 208.166,245.859 212.828 C 235.906 224.185,234.918 225.165,232.963 225.633 C 226.905 227.081,221.833 221.521,224.197 216.025 C 224.813 214.592,230.582 209.243,243.461 198.163 L 245.512 196.399 244.340 195.349 C 223.193 176.397,223.898 177.166,224.235 173.453 C 224.673 168.623,229.174 165.525,233.243 167.251 M206.514 219.823 C 209.346 221.803,211.320 228.077,213.779 242.911 C 215.736 254.713,215.126 256.264,209.544 253.679 C 202.329 250.338,197.960 249.801,191.366 251.444 C 187.517 252.404,186.684 252.420,185.696 251.553 C 182.506 248.756,190.002 227.715,196.472 221.305 C 199.245 218.558,203.752 217.893,206.514 219.823 " stroke="none" fill="#fbfbfb" fill-rule="evenodd"></path><path id="path1" d="M197.449 1.246 C 196.418 1.532,21.853 175.743,6.760 191.549 L 1.075 197.502 0.957 199.362 C 0.760 202.447,-0.441 201.123,33.665 235.409 C 51.232 253.068,65.934 267.907,66.336 268.383 C 67.527 269.793,187.000 388.613,192.479 393.836 L 197.502 398.625 199.397 398.745 C 200.439 398.812,201.780 398.704,202.377 398.507 C 203.833 398.027,397.649 204.423,398.348 202.752 C 398.912 201.400,398.932 198.641,398.387 197.365 C 397.372 194.991,204.324 2.069,202.186 1.292 C 201.008 0.864,198.899 0.844,197.449 1.246 M225.656 116.279 C 290.825 121.049,321.591 145.288,326.923 196.062 C 329.951 224.893,317.402 249.129,295.453 256.841 C 288.061 259.439,273.778 262.120,263.985 262.748 C 261.220 262.925,260.773 263.024,260.893 263.435 C 263.387 271.971,263.274 286.262,260.696 288.565 C 248.368 299.572,158.541 299.619,148.030 288.623 C 145.741 286.228,145.370 278.534,147.010 267.464 C 147.728 262.616,148.064 263.027,143.047 262.602 C 110.475 259.843,94.785 251.021,86.140 230.608 C 76.264 207.285,82.348 169.303,99.190 149.137 C 120.307 123.853,166.203 111.928,225.656 116.279 M122.729 166.809 C 119.315 167.907,117.349 170.466,117.336 173.828 C 117.323 177.168,117.691 177.587,130.660 189.047 C 134.990 192.874,138.274 195.994,138.239 196.249 C 138.205 196.497,135.005 199.509,131.129 202.944 C 116.727 215.705,116.501 215.963,116.809 219.358 C 117.173 223.370,120.027 225.782,124.430 225.798 C 127.472 225.810,127.889 225.453,137.017 215.037 C 141.327 210.120,145.246 205.703,145.728 205.222 L 146.603 204.347 153.346 211.772 C 165.666 225.338,166.016 225.658,168.552 225.655 C 172.769 225.650,175.821 222.786,175.837 218.820 C 175.850 215.837,174.971 214.828,163.391 204.522 C 160.255 201.731,156.983 198.769,156.120 197.940 C 154.225 196.119,153.663 196.954,161.294 190.261 C 175.786 177.550,176.248 177.033,176.097 173.706 C 175.904 169.463,173.225 166.992,168.816 166.992 C 165.547 166.992,165.215 167.254,157.976 175.544 C 150.979 183.558,146.782 188.147,146.451 188.147 C 146.318 188.147,143.262 184.872,139.660 180.870 C 127.105 166.922,125.785 165.826,122.729 166.809 M228.207 167.339 C 225.895 168.556,224.482 170.731,224.235 173.453 C 223.898 177.166,223.193 176.397,244.340 195.349 L 245.512 196.399 243.461 198.163 C 230.582 209.243,224.813 214.592,224.197 216.025 C 221.833 221.521,226.905 227.081,232.963 225.633 C 234.918 225.165,235.906 224.185,245.859 212.828 C 249.945 208.166,253.338 204.351,253.398 204.351 C 253.458 204.351,257.011 208.233,261.293 212.978 C 272.779 225.706,272.974 225.867,276.521 225.582 C 280.226 225.284,282.671 222.450,282.671 218.452 C 282.671 215.815,281.900 214.955,269.657 203.936 L 261.295 196.410 262.472 195.354 C 263.119 194.774,267.490 190.875,272.185 186.690 C 281.281 178.582,282.544 177.273,282.850 175.644 C 283.703 171.099,280.647 167.151,276.075 166.893 C 272.683 166.701,272.243 167.058,263.347 177.194 C 259.871 181.155,256.192 185.290,255.171 186.382 L 253.315 188.368 246.763 181.131 C 237.907 171.347,234.392 167.739,233.243 167.251 C 231.956 166.706,229.324 166.752,228.207 167.339 M200.300 219.033 C 197.752 219.730,195.981 221.312,193.392 225.203 C 188.976 231.839,184.407 245.200,185.009 249.713 C 185.367 252.396,186.409 252.680,191.366 251.444 C 197.960 249.801,202.329 250.338,209.544 253.679 C 215.126 256.264,215.736 254.713,213.779 242.911 C 210.281 221.807,207.588 217.037,200.300 219.033 " stroke="none" fill="#7c8464" fill-rule="evenodd"></path></g></svg>