<svg id="svg" xmlns="http://www.w3.org/2000/svg" xmlns:xlink="http://www.w3.org/1999/xlink" width="400" height="400" viewBox="0, 0, 400,400"><g id="svgg"><path id="path0" d="M186.047 10.747 L 186.047 20.895 182.090 21.265 C 98.359 29.108,29.851 97.152,21.321 180.945 C 21.145 182.678,20.928 184.535,20.839 185.071 L 20.678 186.047 10.639 186.047 L 0.600 186.047 0.600 200.000 L 0.600 213.953 10.632 213.953 C 19.931 213.953,20.675 213.992,20.811 214.479 C 20.891 214.767,21.043 215.949,21.147 217.104 C 27.936 292.087,82.964 356.005,156.489 374.310 C 164.601 376.329,181.180 378.995,185.628 378.995 C 185.978 378.995,186.047 380.676,186.047 389.197 L 186.047 399.400 200.000 399.400 L 213.953 399.400 213.953 389.251 L 213.953 379.103 217.629 378.726 C 303.467 369.936,371.837 301.121,378.875 216.429 L 379.081 213.953 389.240 213.953 L 399.400 213.953 399.400 200.000 L 399.400 186.047 389.236 186.047 L 379.072 186.047 378.867 183.271 C 378.305 175.642,375.799 161.901,373.318 152.834 C 353.617 80.863,291.782 28.557,217.779 21.263 L 213.953 20.886 213.953 10.743 L 213.953 0.600 200.000 0.600 L 186.047 0.600 186.047 10.747 M186.047 72.318 L 186.047 95.724 200.000 95.724 L 213.953 95.724 213.953 72.279 L 213.953 48.835 215.829 49.037 C 287.349 56.764,344.377 113.673,350.945 183.871 L 351.149 186.047 327.712 186.047 L 304.276 186.047 304.276 200.000 L 304.276 213.953 327.717 213.953 L 351.158 213.953 350.954 215.979 C 343.892 286.131,287.243 343.501,218.005 350.620 C 217.014 350.722,215.698 350.881,215.079 350.973 L 213.953 351.141 213.953 327.708 L 213.953 304.276 200.000 304.276 L 186.047 304.276 186.047 327.692 L 186.047 351.108 184.471 350.922 C 151.963 347.067,125.047 335.516,100.975 315.089 C 74.847 292.917,56.465 260.557,50.600 226.407 C 49.962 222.693,48.912 215.091,48.912 214.188 C 48.912 214.059,59.445 213.953,72.318 213.953 L 95.724 213.953 95.724 200.000 L 95.724 186.047 72.283 186.047 L 48.842 186.047 49.046 184.021 C 55.315 121.598,100.088 69.241,160.840 53.288 C 168.276 51.335,180.410 49.177,185.221 48.951 L 186.047 48.912 186.047 72.318 M186.047 176.144 L 186.047 186.047 176.144 186.047 L 166.242 186.047 166.242 200.000 L 166.242 213.953 176.144 213.953 L 186.047 213.953 186.047 223.856 L 186.047 233.758 200.000 233.758 L 213.953 233.758 213.953 223.856 L 213.953 213.953 223.856 213.953 L 233.758 213.953 233.758 200.000 L 233.758 186.047 223.856 186.047 L 213.953 186.047 213.953 176.144 L 213.953 166.242 200.000 166.242 L 186.047 166.242 186.047 176.144 " stroke="none" fill="#000000" fill-rule="evenodd"></path></g></svg>