<svg xmlns="http://www.w3.org/2000/svg" width="800" height="800" viewBox="0 0 600 600"><path d="M288.5 72.6c-12.3 3.3-27.4 8.4-28 9.4-1 1.6-4.4 25.4-3.7 26.1.4.3 3.9 1.8 7.7 3.3 3.9 1.5 13.2 5.5 20.8 8.8l13.7 6.1 8.8-3.8c4.8-2.1 14.3-6.2 21.2-9.1 7.6-3.2 12.6-5.9 12.8-6.9.4-1.6-2.6-21.7-3.5-24.1-.7-1.9-35.2-12.6-39.8-12.3-.5 0-5 1.1-10 2.5M224.3 82c-5.8.9-19.5 7.8-32.5 16.5-7.6 5-8.7 6.2-13 13.7-7.3 13-7.6 11.8 5.6 16.6 6.3 2.3 11.9 4.2 12.6 4.2.6 0 7.1-3.5 14.3-7.8 7.3-4.3 16.9-9.9 21.5-12.3 5.4-2.9 8.4-5.1 8.6-6.4 2.1-9.9 4.1-23.7 3.7-23.9-1.5-.9-16.2-1.3-20.8-.6M353.6 82.8c-.2.4.5 6.5 1.7 13.5l2.1 12.7 9.5 5.2c5.3 2.8 15.2 8.5 22 12.6l12.4 7.5 4.6-1.8c2.5-.9 8.1-2.9 12.4-4.3 4.6-1.6 7.7-3.2 7.7-4 0-2.7-8.5-17.7-12-21.2-3.6-3.6-20.7-14.1-30.3-18.5-4.6-2.2-6.6-2.5-17.4-2.5-6.7 0-12.4.3-12.7.8M237.4 126.2c-8.3 4.6-31.2 17.9-33.2 19.3-.6.5-4.3 32.5-4.5 39.7l-.2 8.1 20.5 11.8c11.3 6.5 21.1 11.8 21.8 11.9.7 0 7.6-3.7 15.5-8.3 7.8-4.6 18.8-10.9 24.5-14.1l10.2-5.8v-49.5l-9-4.2c-9.7-4.5-22.6-10.1-30.1-13.1l-4.6-1.9zM338 125.9c-6.3 2.6-15.9 6.9-21.3 9.4l-9.7 4.6.2 24.8.3 24.7 8 4.7c4.4 2.5 15.6 9 24.8 14.4l16.8 9.7 21.7-12.4 21.7-12.4-.3-3.9c-.8-12.3-4.5-42.2-5.3-43.1-2-2.5-42-25.4-44.1-25.4-.7.1-6.5 2.2-12.8 4.9M155.3 144.8c-18.2 16.5-19.9 18.7-22.8 28.7-1.4 4.9-3.6 13.7-4.9 19.5l-2.4 10.5 3.1 2.9c1.8 1.5 6.5 5.5 10.6 8.7l7.3 5.9 10.2-7.8c5.5-4.3 14-10.6 18.9-14.1 4.8-3.4 8.7-6.5 8.7-6.9s.9-8.6 2.1-18.2c1.1-9.6 2.3-19.8 2.6-22.6l.6-5.1-10.4-4.1c-5.7-2.2-11.4-4.3-12.6-4.6-1.8-.6-3.9.8-11 7.2M424 142.1c-5.8 2.3-11.3 4.3-12.3 4.6-1.5.5-1.8 1.3-1.4 3.7.3 1.7 1.6 12.3 2.8 23.5l2.3 20.3 5.1 3.7c2.7 2.1 11.2 8.4 18.7 14 8.8 6.5 14.2 10 15 9.5.7-.4 5.5-4.1 10.6-8.2 6-4.8 9.2-8.1 9.2-9.3 0-2.7-4.5-22.4-7.1-31.3-1.7-5.8-3-8.1-7.2-12.5-6.3-6.5-23.6-22.1-24.5-22.1-.4 0-5.4 1.9-11.2 4.1M274.5 217.9l-24 13.9-.3 29-.2 29 4.2 2.4c2.4 1.4 13.4 7.7 24.5 14.1S299.4 318 300 318s12.1-6.4 25.6-14.1l24.4-14.2-.2-28.9-.3-29-24-13.9c-13.2-7.6-24.7-13.9-25.5-13.9s-12.3 6.3-25.5 13.9M179 215.2c-6.4 4.6-14.7 10.7-18.6 13.7l-7.1 5.3-.7 13.5c-.4 7.4-.4 19.2 0 26.2l.7 12.6 8.6 6.5c4.7 3.5 13.2 9.8 18.9 13.8l10.2 7.5 10.8-6.3c5.9-3.4 15.5-9 21.4-12.4l10.7-6.1.1-29.1v-29.1l-21-12.1c-11.5-6.7-21.3-12.2-21.7-12.2-.5 0-6 3.7-12.3 8.2M386.7 220.4l-20.8 12.2v28.9l-.1 28.9 21.3 12.3c18.7 10.9 21.6 12.3 23.5 11.3 1.2-.7 9.7-6.9 19-13.8l16.9-12.7.7-11c.3-6.1.4-17.8.1-26.2l-.6-15.1-14.1-10.4c-16.9-12.5-23.2-16.8-24.3-16.7-.4 0-10.1 5.6-21.6 12.3M114.4 224.3c-9.2 13.8-8.9 12.7-8.9 36.2 0 20.4.1 21.1 2.4 25 5.4 9 10.4 16.5 11 16.5.4 0 5.1-3.7 10.5-8.3l9.8-8.2.2-25.3c0-14-.1-25.7-.4-26-1.2-1.6-19-16.2-19.7-16.2-.5 0-2.7 2.8-4.9 6.3M478.5 221.1c-1.5 1.6-14 12.1-17.4 14.5-.2.2-.4 11.9-.5 26l-.1 25.7 10 8.4 10 8.4 2.6-3.1c1.4-1.6 4.5-6.5 7-10.7l4.4-7.8v-42l-4.3-7.5c-2.4-4.1-5.5-9-7-10.8l-2.8-3.3zM141.5 303.2c-2.2 1.8-6.6 5.5-9.9 8.2l-5.8 5 .6 4.5c.3 2.5 2.2 11.3 4.2 19.6l3.7 15 11.6 11.5c6.4 6.3 13.3 12.8 15.3 14.4l3.8 2.8 12.1-4.6c6.7-2.5 12.4-4.8 12.6-5 .3-.2-.5-7.5-1.6-16.2-1.1-8.8-2.3-19.3-2.7-23.4l-.6-7.6-7.1-4.9c-3.9-2.8-12.2-8.9-18.5-13.8-6.4-4.8-12-8.7-12.6-8.7-.6.1-2.9 1.5-5.1 3.2M444.9 307.6c-4.6 3.7-12.8 9.8-18.1 13.6-5.4 3.9-10 7.3-10.3 7.7-.3.6-2.4 17.1-5.2 41.7-.5 4.9-.4 5.2 2.3 6.2 1.6.6 7.2 2.6 12.5 4.6l9.7 3.5 9.8-8.8c17.7-15.9 19-17.4 21.9-27.6 1.4-5 3.6-13.7 4.9-19.5 2.2-9.7 2.2-10.6.7-12.4-1.7-2-18.6-15.6-19.3-15.6-.3 0-4.3 3-8.9 6.6M220.5 316.4l-21 12.2.3 3.5c1.2 15.4 4.6 42.6 5.4 43.6 1.9 2.4 42 25.3 44.3 25.3 1.5 0 29.6-12 37.7-16.1l5.8-2.9-.2-24.8-.3-24.7-7-4.1c-23.9-14.1-42.3-24.4-43.1-24.3-.5.1-10.3 5.6-21.9 12.3M349.3 309.4c-4.8 2.8-16.1 9.4-25 14.5l-16.3 9.2v49.6l11.3 5.1c6.1 2.8 16 7.1 21.8 9.5l10.7 4.5 12.8-7.2c19.9-11 30.5-17.8 31.5-20.1.9-2.2 4.9-37.1 4.9-42.6-.1-3.4-.1-3.4-21.5-15.6l-21.4-12.1z"/><path d="M107.1 405.4c-24.4 11.6-44.4 21.5-44.4 22s19.3 23.7 42.9 51.7l42.9 50.8h303l42.9-50.8c23.6-28 42.9-51.2 42.9-51.7-.1-.7-67.3-33.3-84-40.8l-4.2-1.8-5.1 4.3c-4.4 3.7-9.9 11.4-8.8 12.4.2.1 8.6 4.4 18.8 9.5s18.7 9.4 18.8 9.5c.2.2-13.9 16.3-31.2 35.9L410 492H190l-31.6-35.6c-17.3-19.6-31.4-35.7-31.2-35.9.1-.1 9-4.6 19.6-9.9L166 401l-1.9-3.8c-1-2-4.3-5.8-7.3-8.3l-5.4-4.7z"/><path d="M192.4 390c-2.2 1-7.3 2.8-11.2 4.1-4 1.3-7.2 2.8-7.2 3.3 0 1.8 4.6 11.1 8.3 16.9 2.9 4.4 5.3 6.6 12.9 11.3 5.1 3.1 13 7.7 17.6 10.1l8.2 4.3h12.6c9.4 0 12.6-.3 13-1.3.3-.8-.4-6.5-1.6-12.7-1.1-6.2-2-11.7-2-12.1s-3.9-2.9-8.7-5.5c-4.9-2.6-14.7-8.3-22-12.6-7.2-4.3-13.8-7.8-14.5-7.7-.7 0-3.1.9-5.4 1.9M394.8 393c-4.2 2.7-13.9 8.3-21.5 12.6-7.6 4.2-13.9 7.8-14 7.9-.6.4-4.9 25.6-4.4 26 .2.3 5.7.5 12.1.5h11.7l9.5-4.9c14.3-7.2 26.3-15.4 29.8-20.2 4.4-6.2 9.5-16.8 8.4-17.8-.7-.6-12.2-4.9-23.4-8.8-.3-.1-4 2-8.2 4.7M289.6 400.6c-5.5 2.5-14.5 6.3-20 8.6-5.6 2.3-10.5 4.5-11 4.9-.7.6 1.4 17.6 3 24.5.4 1.7 3 2.9 13.7 6.2 7.3 2.3 16.1 4.9 19.7 5.8l6.5 1.5 15.6-4.5c24.1-6.9 22.4-5.7 24.3-16.8.9-5.1 1.8-11.1 1.9-13.2.2-3.9.2-3.9-5.8-6.3-3.3-1.4-12.6-5.3-20.7-8.9-8.1-3.5-15.3-6.4-16-6.4s-5.8 2.1-11.2 4.6"/></svg>