<svg viewBox="0 0 578.7 578.7" xmlns="http://www.w3.org/2000/svg" xmlns:xlink="http://www.w3.org/1999/xlink"><clipPath id="a" transform="translate(-10.65 -10.65)"><path d="m0 0h600v600h-600z"/></clipPath><g clip-path="url(#a)"><path d="m300 584.35a14.59 14.59 0 0 1 -10.38-4.3l-269.62-269.67a14.68 14.68 0 0 1 0-20.76l269.62-269.62a14.68 14.68 0 0 1 20.76 0l269.67 269.62a14.68 14.68 0 0 1 0 20.76l-269.67 269.67a14.59 14.59 0 0 1 -10.38 4.3" fill="#b62025" transform="translate(-10.65 -10.65)"/><g fill="#fff"><path d="m300 20.65a9.62 9.62 0 0 1 6.85 2.84l269.66 269.66a9.69 9.69 0 0 1 0 13.7l-269.66 269.66a9.68 9.68 0 0 1 -13.7 0l-269.66-269.66a9.69 9.69 0 0 1 0-13.7l269.66-269.66a9.62 9.62 0 0 1 6.85-2.84m0-10a19.61 19.61 0 0 0 -13.92 5.77l-269.66 269.66a19.68 19.68 0 0 0 0 27.84l269.66 269.66a19.68 19.68 0 0 0 27.84 0l269.66-269.66a19.68 19.68 0 0 0 0-27.84l-269.66-269.66a19.61 19.61 0 0 0 -13.92-5.77" transform="translate(-10.65 -10.65)"/><path d="m244.64 152.78 27.92-14.57c7.36 12.77 13.87 25.35 21.56 37.17 21.54 33.09 43.37 37.64 76.59 15.93 10.67-7 20.45-15.3 32-24 6.75 7.8 13.64 15.76 20.48 23.68-73.64 72.77-137.19 61.01-178.55-38.21z" transform="translate(-10.65 -10.65)"/><path d="m447.11 244.64 14.66 27.63c-13.67 8-27 15-39.48 23.3-30.23 20.31-34.65 41.31-15.16 72.31 7.49 11.92 16.6 22.82 25.62 35.06l-23.59 19.85c-74.37-74.01-59.52-138.31 37.95-178.15z" transform="translate(-10.65 -10.65)"/><path d="m197.6 433.13-20.09-23.7c76.86-79.43 138.49-56.11 178.39 37.3l-28.33 15.06c-4.75-8.55-9.24-16.63-13.75-24.7-27.55-49.3-52.81-54.31-97.51-19.29-5.95 4.66-11.69 9.57-18.71 15.33z" transform="translate(-10.65 -10.65)"/><path d="m153.18 355.69c-4.93-9.41-9.51-18.16-15-28.52 5.59-3.07 10.82-5.9 16-8.81 6.19-3.48 12.5-6.79 18.5-10.58 36.67-23.14 41.4-45.56 16.84-81.5-6.64-9.72-14.33-18.73-22.26-29l23.58-20.15c68.62 67.67 67.09 133.79-37.66 178.56z" transform="translate(-10.65 -10.65)"/></g></g></svg>