<svg id="svg" xmlns="http://www.w3.org/2000/svg" xmlns:xlink="http://www.w3.org/1999/xlink" width="400" height="400" viewBox="0, 0, 400,400" version="1.1"><g id="svgg"><path id="path0" d="M196.256 1.362 C 195.353 1.616,194.002 2.171,193.256 2.596 C 191.335 3.690,4.021 190.963,2.758 193.051 C 0.160 197.350,0.377 203.320,3.292 207.684 C 5.437 210.894,191.781 396.569,193.848 397.556 C 197.910 399.494,202.186 399.459,206.115 397.455 C 209.099 395.932,396.127 208.851,397.567 205.948 C 399.460 202.131,399.455 197.853,397.553 193.848 C 395.986 190.550,209.156 3.877,205.785 2.242 C 202.998 0.890,199.195 0.539,196.256 1.362 M202.851 8.593 C 204.487 9.252,390.462 195.363,391.274 197.154 C 392.004 198.761,392.071 200.951,391.438 202.485 C 390.795 204.044,204.423 390.513,202.701 391.321 C 201.195 392.028,198.649 392.063,197.195 391.396 C 196.041 390.867,10.530 205.745,9.157 203.752 C 8.001 202.075,7.689 200.099,8.262 198.086 C 8.968 195.605,195.057 9.326,197.780 8.374 C 199.516 7.767,200.956 7.829,202.851 8.593 M171.427 93.714 C 166.275 96.388,162.055 98.698,162.050 98.849 C 162.033 99.352,165.719 107.465,167.979 111.900 C 195.341 165.585,235.245 171.636,280.420 128.951 L 284.621 124.981 277.606 116.843 L 270.592 108.706 263.870 113.904 C 243.225 129.871,234.877 134.122,224.156 134.124 C 210.325 134.127,202.527 126.683,186.364 98.050 C 183.499 92.974,181.074 88.829,180.975 88.838 C 180.876 88.847,176.580 91.041,171.427 93.714 M117.029 122.139 C 112.821 125.753,109.257 128.896,109.109 129.123 C 108.915 129.422,110.392 131.506,114.459 136.672 C 130.844 157.480,136.035 168.804,134.150 179.629 C 131.980 192.086,122.616 200.408,92.841 216.342 L 88.659 218.580 93.720 228.195 C 96.504 233.483,98.870 237.898,98.978 238.006 C 99.403 238.431,110.954 232.866,117.664 229.003 C 161.358 203.853,168.930 171.064,139.954 132.483 C 136.081 127.326,125.544 115.486,124.883 115.548 C 124.772 115.558,121.238 118.524,117.029 122.139 M297.224 163.548 C 239.545 188.627,227.229 226.457,262.436 270.402 C 266.324 275.256,274.736 284.418,275.125 284.224 C 275.509 284.032,291.073 270.871,291.073 270.737 C 291.073 270.662,288.117 266.666,284.504 261.857 C 269.687 242.132,265.736 234.164,265.735 224.006 C 265.733 210.168,272.660 202.970,302.402 185.909 L 311.180 180.873 309.016 176.783 C 307.827 174.534,305.564 170.254,303.989 167.273 L 301.125 161.852 297.224 163.548 M168.792 242.612 C 153.523 244.794,137.363 254.225,119.582 271.331 L 115.682 275.083 117.049 276.701 C 123.746 284.631,128.884 290.692,129.191 291.027 C 129.496 291.359,130.601 290.579,135.374 286.661 C 155.041 270.516,164.227 265.750,175.694 265.742 C 183.872 265.737,188.662 267.942,195.732 274.968 C 201.180 280.380,204.395 285.202,213.878 302.176 C 216.598 307.044,218.846 311.055,218.875 311.089 C 218.903 311.122,223.319 308.827,228.687 305.988 L 238.447 300.825 236.310 296.174 C 218.351 257.106,195.305 238.823,168.792 242.612 " stroke="none" fill="#fbfbfb" fill-rule="evenodd"></path><path id="path1" d="M197.780 8.374 C 195.057 9.326,8.968 195.605,8.262 198.086 C 7.689 200.099,8.001 202.075,9.157 203.752 C 10.530 205.745,196.041 390.867,197.195 391.396 C 198.649 392.063,201.195 392.028,202.701 391.321 C 204.423 390.513,390.795 204.044,391.438 202.485 C 392.071 200.951,392.004 198.761,391.274 197.154 C 390.462 195.363,204.487 9.252,202.851 8.593 C 200.956 7.829,199.516 7.767,197.780 8.374 M186.364 98.050 C 202.527 126.683,210.325 134.127,224.156 134.124 C 234.877 134.122,243.225 129.871,263.870 113.904 L 270.592 108.706 277.606 116.843 L 284.621 124.981 280.420 128.951 C 235.245 171.636,195.341 165.585,167.979 111.900 C 165.719 107.465,162.033 99.352,162.050 98.849 C 162.058 98.616,180.457 88.884,180.975 88.838 C 181.074 88.829,183.499 92.974,186.364 98.050 M128.972 119.655 C 170.165 163.370,166.271 201.025,117.664 229.003 C 110.954 232.866,99.403 238.431,98.978 238.006 C 98.870 237.898,96.504 233.483,93.720 228.195 L 88.659 218.580 92.841 216.342 C 122.616 200.408,131.980 192.086,134.150 179.629 C 136.035 168.804,130.844 157.480,114.459 136.672 C 110.392 131.506,108.915 129.422,109.109 129.123 C 109.433 128.625,124.596 115.575,124.883 115.548 C 124.993 115.537,126.834 117.386,128.972 119.655 M309.016 176.783 L 311.180 180.873 302.402 185.909 C 272.660 202.970,265.733 210.168,265.735 224.006 C 265.736 234.164,269.687 242.132,284.504 261.857 C 288.117 266.666,291.073 270.662,291.073 270.737 C 291.073 270.871,275.509 284.032,275.125 284.224 C 274.736 284.418,266.324 275.256,262.436 270.402 C 242.690 245.755,237.806 223.195,247.865 203.089 C 255.545 187.736,272.107 174.469,297.224 163.548 L 301.125 161.852 303.989 167.273 C 305.564 170.254,307.827 174.534,309.016 176.783 M184.696 243.013 C 205.136 247.702,222.025 265.097,236.310 296.174 L 238.447 300.825 228.687 305.988 C 223.319 308.827,218.903 311.122,218.875 311.089 C 218.846 311.055,216.598 307.044,213.878 302.176 C 207.885 291.449,206.285 288.718,203.966 285.256 C 191.557 266.729,179.337 261.683,162.838 268.274 C 155.782 271.093,147.955 276.332,135.374 286.661 C 130.601 290.579,129.496 291.359,129.191 291.027 C 128.884 290.692,123.746 284.631,117.049 276.701 L 115.682 275.083 119.582 271.331 C 143.369 248.447,165.820 238.683,184.696 243.013 " stroke="none" fill="#b41c24" fill-rule="evenodd"></path></g></svg>