<svg height="580" viewBox="0 0 580 580" width="580" xmlns="http://www.w3.org/2000/svg" xmlns:xlink="http://www.w3.org/1999/xlink"><clipPath id="a"><path d="m-10-10h600v600h-600z"/></clipPath><g clip-path="url(#a)"><path d="m290 574.35c-3.92 0-7.61-1.53-10.38-4.3l-269.67-269.67c-2.77-2.77-4.3-6.46-4.3-10.38s1.53-7.61 4.3-10.38l269.67-269.67c2.77-2.77 6.46-4.3 10.38-4.3s7.61 1.53 10.38 4.3l269.67 269.67c2.77 2.77 4.3 6.46 4.3 10.38s-1.53 7.61-4.3 10.38l-269.67 269.67c-2.77 2.77-6.46 4.3-10.38 4.3z" fill="#c6271a"/><g fill="#fff"><path d="m303.92 6.42 269.66 269.66c7.69 7.69 7.69 20.15 0 27.84l-269.66 269.66c-3.85 3.85-8.88 5.77-13.92 5.77s-10.07-1.92-13.92-5.77l-269.66-269.66c-7.69-7.69-7.69-20.15 0-27.84l269.66-269.66c3.85-3.85 8.88-5.77 13.92-5.77s10.07 1.92 13.92 5.77zm-20.77 7.07-269.66 269.66c-3.78 3.78-3.78 9.92 0 13.7l269.66 269.66c1.83 1.83 4.26 2.84 6.85 2.84s5.02-1.01 6.85-2.84l269.66-269.66c3.78-3.78 3.78-9.92 0-13.7l-269.66-269.66c-1.83-1.83-4.26-2.84-6.85-2.84s-5.02 1.01-6.85 2.84z" fill-rule="evenodd"/><path d="m234.64 142.78c9.62-5.02 18.37-9.59 27.92-14.57 7.35 12.77 13.87 25.35 21.56 37.17 21.54 33.09 43.37 37.64 76.59 15.93 10.67-6.97 20.45-15.3 31.97-24.03 6.75 7.8 13.64 15.76 20.48 23.68-73.61 72.8-137.19 60.99-178.52-38.18z"/><path d="m437.11 234.64c4.74 8.94 9.53 17.97 14.66 27.63-13.67 8.01-27.05 14.95-39.48 23.3-30.23 20.31-34.65 41.31-15.16 72.31 7.49 11.92 16.6 22.82 25.62 35.06-7.97 6.71-15.81 13.3-23.59 19.85-74.37-74.01-59.52-138.31 37.95-178.15z"/><path d="m187.6 423.13c-7.36-8.68-13.74-16.21-20.09-23.7 76.86-79.47 138.49-56.11 178.39 37.3-8.85 4.7-17.85 9.48-28.33 15.06-4.75-8.55-9.24-16.63-13.75-24.7-27.55-49.3-52.81-54.31-97.51-19.29-5.95 4.66-11.69 9.57-18.71 15.33z"/><path d="m143.18 345.69c-4.93-9.41-9.51-18.16-14.95-28.52 5.59-3.07 10.82-5.9 16.01-8.81 6.19-3.48 12.5-6.79 18.5-10.58 36.67-23.14 41.4-45.56 16.84-81.5-6.64-9.72-14.33-18.73-22.26-29.01 8.09-6.91 15.86-13.56 23.58-20.15 68.56 67.68 67.03 133.8-37.72 178.57z"/></g></g></svg>