<svg height="580" viewBox="0 0 580 580" width="580" xmlns="http://www.w3.org/2000/svg" xmlns:xlink="http://www.w3.org/1999/xlink"><clipPath id="a"><path d="m-10-10h600v600h-600z"/></clipPath><g clip-path="url(#a)"><path d="m574.35 290c0 3.93-1.52 7.6-4.31 10.38l-269.66 269.66c-5.74 5.74-15.02 5.74-20.76 0l-269.66-269.66c-2.79-2.78-4.31-6.45-4.31-10.38s1.52-7.6 4.31-10.38l269.66-269.66c5.74-5.74 15.02-5.74 20.76 0l269.66 269.66c2.79 2.78 4.31 6.45 4.31 10.38z" fill="#474e4e"/><g fill="#fff"><path d="m6.44 276.07 269.65-269.66c7.68-7.68 20.14-7.68 27.82 0l269.66 269.66c3.84 3.84 5.78 8.91 5.78 13.93s-1.94 10.09-5.78 13.93l-269.66 269.66c-7.68 7.68-20.14 7.68-27.82 0l-269.65-269.66c-3.85-3.84-5.79-8.91-5.79-13.93s1.94-10.09 5.79-13.93zm7.04 20.77 269.66 269.65c1.86 1.86 4.26 2.87 6.84 2.87 2.62 0 5.02-1.01 6.88-2.87l269.66-269.65c1.81-1.82 2.82-4.27 2.82-6.84 0-2.58-1.01-5.02-2.82-6.84l-269.66-269.65c-1.86-1.86-4.26-2.88-6.88-2.88-2.58 0-4.98 1.02-6.84 2.88l-269.66 269.65c-1.81 1.82-2.82 4.26-2.82 6.84 0 2.57 1.01 5.02 2.82 6.84z" fill-rule="evenodd"/><path d="m246.74 201.87-7.42 115.07h-59.23c-3.84 0-6.71 4.35-4.9 7.52l109.21 140.65c2.83 3.63 8.36 3.63 11.19 0l109.24-140.65c1.77-3.17-1.1-7.52-4.94-7.52h-59.22l-7.43-115.07c-.17-3-4.26-4.73-7.01-3-7.09 4.52-19.8 10.6-36.22 10.6s-29.12-6.08-36.26-10.6c-2.74-1.73-6.79 0-7.01 3z"/><path d="m251.54 127.36-2.32 35.88c-.17 2.95 1.14 5.78 3.63 7.89 5.41 4.52 17.01 11.32 37.15 11.32s31.7-6.8 37.15-11.32c2.49-2.11 3.8-4.94 3.63-7.89l-2.32-35.88c-.17-2.37-3.76-3.76-6.21-2.37-6.37 3.55-17.69 8.36-32.25 8.36s-25.88-4.81-32.25-8.36c-2.45-1.39-6.04 0-6.21 2.37z"/><path d="m290 91.49c-13.55 0-24.11-4.18-30.02-7.26-2.32-1.18-5.65 0-5.78 2.07l-.42 6.25c-.13 2.32 1.05 4.56 3.29 6.25 4.81 3.54 15.07 8.9 32.93 8.9 17.85 0 28.11-5.36 32.92-8.9 2.24-1.69 3.42-3.93 3.29-6.25l-.42-6.25c-.12-2.07-3.46-3.25-5.78-2.07-5.91 3.08-16.46 7.26-30.01 7.26z"/><path d="m174.64 343.6 5.86 31.24c.68 3.59 2.2 6.92 4.39 9.79l99.5 129.01c2.83 3.67 8.4 3.67 11.23 0l99.49-129.01c2.2-2.87 3.72-6.2 4.39-9.79l5.87-31.24-109.79 139.52c-2.83 3.58-8.32 3.58-11.15 0z"/></g></g></svg>