<svg id="svg" version="1.1" xmlns="http://www.w3.org/2000/svg" xmlns:xlink="http://www.w3.org/1999/xlink" width="400" height="400" viewBox="0, 0, 400,400"><g id="svgg"><path id="path0" d="M98.875 99.100 L 2.551 195.499 98.950 99.175 C 151.969 46.197,195.349 2.817,195.349 2.776 C 195.349 2.566,188.434 9.471,98.875 99.100 M143.244 132.583 C 138.623 135.625,60.524 191.471,54.515 196.030 C 49.300 199.987,49.369 200.153,59.208 207.289 C 79.344 221.892,98.962 235.964,120.887 251.533 C 147.050 270.110,146.305 269.649,147.979 268.294 L 148.687 267.721 148.875 252.015 C 148.978 243.377,149.080 234.992,149.100 233.383 L 149.137 230.458 189.272 230.445 C 211.347 230.437,230.010 230.315,230.747 230.173 C 233.925 229.560,233.876 227.635,230.551 222.437 C 221.783 208.731,221.993 191.560,231.109 176.647 C 233.144 173.319,233.538 171.594,232.501 170.557 C 231.642 169.697,226.019 169.575,186.620 169.558 L 149.234 169.542 149.035 161.842 C 148.926 157.606,148.836 149.606,148.836 144.062 C 148.834 133.387,148.699 132.104,147.492 131.314 C 146.401 130.599,146.138 130.677,143.244 132.583 M264.066 169.822 C 259.529 170.067,257.143 171.571,253.956 176.195 C 243.467 191.409,244.838 214.628,256.979 227.407 C 259.823 230.400,260.314 230.458,282.776 230.458 L 300.922 230.458 301.699 229.534 C 302.900 228.106,302.734 227.071,300.808 223.981 C 291.285 208.705,290.989 193.050,299.930 177.599 C 303.717 171.054,303.485 170.169,297.885 169.803 C 294.039 169.553,268.801 169.567,264.066 169.822 M336.785 169.843 C 333.722 170.269,331.475 171.791,328.730 175.299 C 318.387 188.518,318.560 211.941,329.096 225.051 C 332.910 229.796,333.695 230.132,341.514 230.370 L 347.094 230.539 347.891 229.495 C 349.025 228.008,348.910 227.048,347.288 224.448 C 341.762 215.593,339.836 209.266,339.844 200.000 C 339.852 190.761,341.399 185.573,347.001 175.994 C 349.051 172.489,349.173 171.271,347.578 170.226 C 346.654 169.621,340.067 169.387,336.785 169.843 " stroke="none" fill="#fbfbfb" fill-rule="evenodd"></path><path id="path1" d="M197.749 1.285 C 195.883 1.860,1.672 196.281,1.197 198.050 C 0.997 198.792,0.908 200.117,0.997 200.993 L 1.161 202.587 6.803 208.495 C 14.370 216.418,175.546 377.607,187.594 389.300 C 200.919 402.233,199.291 402.120,210.653 390.894 C 279.153 323.208,397.955 204.077,398.692 202.335 C 399.192 201.152,399.216 199.380,398.751 198.019 C 397.745 195.074,204.688 1.956,202.004 1.210 C 200.644 0.832,199.132 0.859,197.749 1.285 M147.492 131.314 C 148.699 132.104,148.834 133.387,148.836 144.062 C 148.836 149.606,148.926 157.606,149.035 161.842 L 149.234 169.542 186.620 169.558 C 226.019 169.575,231.642 169.697,232.501 170.557 C 233.538 171.594,233.144 173.319,231.109 176.647 C 221.993 191.560,221.783 208.731,230.551 222.437 C 233.876 227.635,233.925 229.560,230.747 230.173 C 230.010 230.315,211.347 230.437,189.272 230.445 L 149.137 230.458 149.100 233.383 C 149.080 234.992,148.978 243.377,148.875 252.015 L 148.687 267.721 147.979 268.294 C 146.305 269.649,147.050 270.110,120.887 251.533 C 98.962 235.964,79.344 221.892,59.208 207.289 C 50.626 201.065,50.363 200.769,51.591 198.756 C 52.375 197.469,52.501 197.377,89.872 170.578 C 149.487 127.829,145.902 130.272,147.492 131.314 M297.885 169.803 C 303.485 170.169,303.717 171.054,299.930 177.599 C 290.989 193.050,291.285 208.705,300.808 223.981 C 302.734 227.071,302.900 228.106,301.699 229.534 L 300.922 230.458 282.776 230.458 C 260.314 230.458,259.823 230.400,256.979 227.407 C 244.838 214.628,243.467 191.409,253.956 176.195 C 257.143 171.571,259.529 170.067,264.066 169.822 C 268.801 169.567,294.039 169.553,297.885 169.803 M347.578 170.226 C 349.173 171.271,349.051 172.489,347.001 175.994 C 341.399 185.573,339.852 190.761,339.844 200.000 C 339.836 209.266,341.762 215.593,347.288 224.448 C 348.910 227.048,349.025 228.008,347.891 229.495 L 347.094 230.539 341.514 230.370 C 333.695 230.132,332.910 229.796,329.096 225.051 C 318.560 211.941,318.387 188.518,328.730 175.299 C 331.475 171.791,333.722 170.269,336.785 169.843 C 340.067 169.387,346.654 169.621,347.578 170.226 " stroke="none" fill="#4c4c4c" fill-rule="evenodd"></path></g></svg>