<svg viewBox="0 0 26.99 26.99" xmlns="http://www.w3.org/2000/svg"><path d="m13.5 26.76a.68.68 0 0 1 -.49-.2l-12.58-12.56a.7.7 0 0 1 0-1l12.57-12.57a.69.69 0 0 1 1 0l12.56 12.57a.68.68 0 0 1 0 1l-12.56 12.56a.67.67 0 0 1 -.48.2" fill="#4f504f"/><g fill="#fff"><path d="m13.5 0a.91.91 0 0 0 -.65.27l-12.58 12.58a.92.92 0 0 0 0 1.3l12.58 12.58a.94.94 0 0 0 .65.26 1 1 0 0 0 .65-.26l12.58-12.58a.94.94 0 0 0 0-1.3l-12.58-12.58a.92.92 0 0 0 -.65-.27m0 .47a.44.44 0 0 1 .32.13l12.58 12.58a.46.46 0 0 1 .13.32.48.48 0 0 1 -.13.32l-12.58 12.58a.48.48 0 0 1 -.32.13.46.46 0 0 1 -.32-.13l-12.58-12.58a.44.44 0 0 1 -.13-.32.42.42 0 0 1 .13-.32l12.58-12.58a.42.42 0 0 1 .32-.13"/><path d="m11.42 8.05-.42 4.58h-2.93c-.19 0-.33.18-.25.31l5.39 6a.38.38 0 0 0 .57 0l5.39-6c.09-.13-.06-.31-.25-.31h-2.92l-.43-4.58c0-.12-.2-.19-.34-.12a3.82 3.82 0 0 1 -1.73.41 3.91 3.91 0 0 1 -1.74-.41c-.13-.07-.33 0-.34.12"/><path d="m11.69 5.21-.13 1.35a.33.33 0 0 0 .17.3 3.14 3.14 0 0 0 1.77.44 3.16 3.16 0 0 0 1.77-.44.32.32 0 0 0 .16-.3l-.12-1.35c0-.09-.18-.14-.29-.09a3.88 3.88 0 0 1 -3 0c-.12 0-.29 0-.29.09"/><path d="m13.5 3.88a3.72 3.72 0 0 1 -1.4-.27c-.11 0-.27 0-.27.08v.23a.29.29 0 0 0 .16.23 3 3 0 0 0 1.54.33 3.09 3.09 0 0 0 1.47-.33c.1-.07.16-.15.15-.23v-.23c0-.08-.17-.12-.27-.08a3.81 3.81 0 0 1 -1.4.27"/><path d="m7.77 14.2.47 3.92a1 1 0 0 0 .22.41l4.54 4.88a.74.74 0 0 0 1.09 0l4.49-4.88a.87.87 0 0 0 .22-.41l.48-3.92-5.46 6.13a.38.38 0 0 1 -.54 0z"/></g></svg>