<svg height="580" viewBox="0 0 580 580" width="580" xmlns="http://www.w3.org/2000/svg" xmlns:xlink="http://www.w3.org/1999/xlink"><clipPath id="a"><path d="m-10-10h600v600h-600z"/></clipPath><g clip-path="url(#a)"><path d="m574.35 290c0 3.93-1.52 7.6-4.31 10.38l-269.66 269.66c-5.74 5.74-15.02 5.74-20.76 0l-269.66-269.66c-2.79-2.78-4.31-6.45-4.31-10.38s1.52-7.6 4.31-10.38l269.66-269.66c5.74-5.74 15.02-5.74 20.76 0l269.66 269.66c2.79 2.78 4.31 6.45 4.31 10.38z" fill="#474e4e"/><g fill="#fff"><path d="m6.43 276.07 269.66-269.66c7.68-7.68 20.14-7.68 27.82 0l269.65 269.66c3.85 3.84 5.79 8.91 5.79 13.93s-1.94 10.09-5.79 13.93l-269.65 269.66c-7.68 7.68-20.14 7.68-27.82 0l-269.66-269.66c-3.84-3.84-5.78-8.91-5.78-13.93s1.94-10.09 5.78-13.93zm7.05 20.77 269.66 269.65c1.86 1.86 4.26 2.87 6.84 2.87 2.62 0 5.02-1.01 6.88-2.87l269.66-269.65c1.81-1.82 2.82-4.27 2.82-6.84 0-2.58-1.01-5.02-2.82-6.84l-269.66-269.65c-1.86-1.86-4.26-2.88-6.88-2.88-2.58 0-4.98 1.02-6.84 2.88l-269.66 269.65c-1.81 1.82-2.82 4.26-2.82 6.84 0 2.57 1.01 5.02 2.82 6.84z" fill-rule="evenodd"/><path d="m242.39 305.61-4.22 65.73c-.29 5.02 4.31 8.02 7.94 5.02 9.2-7.56 24.73-17.43 43.9-17.43 19.12 0 34.7 9.87 43.86 17.43 3.63 3 8.27 0 7.93-5.02l-4.22-65.73c-.29-4.64-2.23-9.03-5.44-12.2-6.71-6.63-20.18-16.29-42.13-16.29s-35.42 9.66-42.13 16.29c-3.21 3.17-5.19 7.56-5.49 12.2z"/><path d="m233.37 446.73-1.18 18.44c-.38 6.29 4.73 10.01 8.82 6.25 10.26-9.41 27.65-21.65 49.01-21.65 21.32 0 38.71 12.24 48.97 21.65 4.09 3.76 9.2.04 8.82-6.25l-1.18-18.44c-.42-6.55-2.83-12.71-6.67-17.18-8.02-9.33-24.02-22.88-49.94-22.88-25.96 0-41.96 13.55-49.98 22.88-3.84 4.47-6.25 10.63-6.67 17.18z"/><path d="m287.07 62.93-81 82.95c-1.94 1.94-.68 4.73 2.15 4.73h44.07l-6.5 101.86c-.25 3.67 3.72 5.87 6.8 3.67 7.76-5.49 21.02-12.71 37.4-12.71s29.63 7.22 37.44 12.71c3.04 2.2 7.01 0 6.8-3.67l-6.55-101.86h44.07c2.87 0 4.14-2.79 2.2-4.73l-81.01-82.95c-1.48-1.47-4.43-1.47-5.87 0z"/><path d="m206.25 159.93 8.57 17.18c1.43 2.95 4.43 4.81 7.68 4.81h22.04l1.35-21.99z"/><path d="m374.62 159.93-8.57 17.18c-1.44 2.95-4.44 4.81-7.69 4.81h-22.03l-1.35-21.99z"/></g></g></svg>