<svg id="svg" version="1.1" xmlns="http://www.w3.org/2000/svg" xmlns:xlink="http://www.w3.org/1999/xlink" width="400" height="400" viewBox="0, 0, 400,400"><g id="svgg"><path id="path0" d="M252.175 131.539 C 250.980 132.567,250.917 133.602,250.888 152.513 L 250.863 169.242 217.329 169.268 C 174.337 169.301,168.192 169.441,167.411 170.407 C 166.352 171.714,166.653 172.967,168.931 176.737 C 178.350 192.322,178.234 207.221,168.566 223.556 C 166.793 226.553,166.466 228.127,167.384 229.261 L 167.989 230.008 209.391 230.089 L 250.794 230.170 250.931 248.393 C 251.095 270.205,251.043 269.940,254.810 268.194 C 258.882 266.306,346.218 203.808,348.064 201.462 C 348.930 200.360,348.858 199.143,347.862 198.070 C 346.683 196.799,257.090 132.378,254.790 131.147 C 253.868 130.653,253.065 130.774,252.175 131.539 M53.639 169.529 C 50.753 170.090,50.564 172.179,53.036 176.224 C 62.767 192.149,62.735 207.285,52.933 223.757 C 51.176 226.711,50.937 228.167,52.019 229.332 L 52.785 230.158 58.742 230.158 L 64.699 230.158 66.080 229.281 C 74.434 223.984,79.879 209.755,78.684 196.348 C 77.428 182.257,70.441 170.396,62.992 169.710 C 59.763 169.412,54.740 169.315,53.639 169.529 M101.680 169.517 C 96.780 169.814,96.295 171.296,99.393 176.505 C 109.146 192.902,108.913 207.179,98.607 224.672 C 97.051 227.313,96.984 227.923,98.094 229.294 L 98.671 230.008 118.520 230.091 L 138.369 230.174 140.159 229.221 C 152.226 222.789,156.740 197.652,148.819 180.987 C 144.422 171.733,141.525 169.774,131.883 169.527 C 123.127 169.304,105.311 169.298,101.680 169.517 " stroke="none" fill="#fbfbfb" fill-rule="evenodd"></path><path id="path1" d="M197.149 1.377 C 195.645 2.026,1.966 195.779,1.352 197.248 C 0.815 198.534,0.782 201.172,1.289 202.319 C 2.076 204.100,149.876 352.425,186.160 387.847 L 197.226 398.650 199.850 398.650 L 202.474 398.650 213.540 387.852 C 228.394 373.358,368.164 233.601,385.167 216.241 L 398.650 202.474 398.650 199.850 L 398.650 197.226 389.351 187.660 C 358.434 155.854,204.121 2.088,202.317 1.289 C 201.182 0.786,198.408 0.834,197.149 1.377 M254.790 131.147 C 257.090 132.378,346.683 196.799,347.862 198.070 C 350.294 200.691,351.567 199.589,319.730 222.413 C 256.300 267.885,254.145 269.365,252.478 268.606 C 251.102 267.979,251.075 267.624,250.931 248.393 L 250.794 230.170 209.391 230.089 L 167.989 230.008 167.384 229.261 C 166.466 228.127,166.793 226.553,168.566 223.556 C 178.234 207.221,178.350 192.322,168.931 176.737 C 166.653 172.967,166.352 171.714,167.411 170.407 C 168.192 169.441,174.337 169.301,217.329 169.268 L 250.863 169.242 250.888 152.513 C 250.902 143.312,251.013 134.988,251.134 134.015 C 251.452 131.458,253.042 130.211,254.790 131.147 M62.992 169.710 C 70.441 170.396,77.428 182.257,78.684 196.348 C 79.879 209.755,74.434 223.984,66.080 229.281 L 64.699 230.158 58.742 230.158 L 52.785 230.158 52.019 229.332 C 50.937 228.167,51.176 226.711,52.933 223.757 C 62.735 207.285,62.767 192.149,53.036 176.224 C 49.208 169.960,51.245 168.627,62.992 169.710 M131.883 169.527 C 141.525 169.774,144.422 171.733,148.819 180.987 C 156.740 197.652,152.226 222.789,140.159 229.221 L 138.369 230.174 118.520 230.091 L 98.671 230.008 98.094 229.294 C 96.984 227.923,97.051 227.313,98.607 224.672 C 108.913 207.179,109.146 192.902,99.393 176.505 C 96.295 171.296,96.780 169.814,101.680 169.517 C 105.311 169.298,123.127 169.304,131.883 169.527 " stroke="none" fill="#4c4c4c" fill-rule="evenodd"></path></g></svg>