<svg id="svg" version="1.1" xmlns="http://www.w3.org/2000/svg" xmlns:xlink="http://www.w3.org/1999/xlink" width="400" height="400" viewBox="0, 0, 400,400"><g id="svgg"><path id="path0" d="M48.462 3.890 C 45.288 5.217,44.309 11.029,46.336 16.504 C 49.022 23.758,74.699 215.390,74.718 228.322 C 74.719 229.582,72.329 231.485,58.665 241.103 C 50.772 246.658,46.322 249.936,43.858 252.009 L 42.254 253.358 46.896 256.387 C 49.449 258.052,57.530 263.193,64.854 267.810 L 78.170 276.205 81.602 290.916 C 85.116 305.977,87.911 317.553,88.075 317.727 C 88.258 317.921,94.265 313.972,104.930 306.644 C 110.911 302.535,117.041 298.378,118.552 297.408 L 121.300 295.643 126.291 297.957 C 151.558 309.671,289.019 378.700,307.877 389.144 C 310.435 390.560,313.336 392.388,314.323 393.204 C 318.994 397.067,323.626 397.803,326.403 395.125 C 328.643 392.964,328.172 390.650,322.971 378.284 C 314.262 357.576,313.672 351.045,318.226 325.731 C 328.060 271.076,321.139 246.446,277.647 181.319 C 268.904 168.227,265.866 163.462,265.866 162.842 C 265.866 162.044,309.095 131.598,309.525 132.092 C 309.759 132.361,310.781 136.550,312.840 145.686 C 314.104 151.298,315.295 156.272,315.486 156.741 C 315.828 157.579,315.904 157.485,320.355 150.739 C 327.787 139.476,371.265 69.415,371.030 69.081 C 370.877 68.862,269.283 91.607,268.957 91.933 C 268.789 92.101,273.716 95.306,282.896 101.003 C 291.746 106.494,291.524 106.290,290.098 107.615 C 288.179 109.396,265.319 125.918,251.053 135.833 L 247.492 138.308 243.138 132.245 C 214.451 92.304,188.165 64.514,167.142 51.900 C 151.692 42.630,139.026 38.795,107.727 33.909 C 84.801 30.330,79.536 27.823,62.507 12.370 C 53.340 4.052,51.185 2.751,48.462 3.890 M70.967 45.186 C 77.131 49.087,83.766 51.384,102.476 56.092 C 147.192 67.344,167.459 82.057,207.084 132.033 C 213.797 140.500,220.169 148.881,222.259 151.992 L 224.076 154.697 219.540 157.978 C 195.989 175.009,127.948 223.415,127.106 223.738 C 126.481 223.978,123.663 222.446,115.867 217.629 C 111.968 215.220,107.518 212.592,105.979 211.790 L 103.180 210.332 102.078 211.002 C 101.471 211.370,99.287 212.837,97.224 214.262 C 92.609 217.449,89.766 219.198,89.550 218.982 C 89.027 218.459,88.150 211.761,77.273 125.164 C 67.243 45.314,67.520 47.602,67.518 44.730 L 67.517 42.498 68.342 43.273 C 68.796 43.698,69.977 44.559,70.967 45.186 M243.140 181.320 C 255.690 198.993,272.185 226.023,279.811 241.410 C 294.728 271.513,298.404 292.318,295.081 327.832 C 293.682 342.791,293.785 355.744,295.352 361.807 C 295.703 363.164,295.913 364.352,295.819 364.446 C 295.456 364.809,135.842 285.762,136.099 285.346 C 136.268 285.074,141.862 280.878,145.386 278.379 C 146.707 277.444,148.227 276.305,148.765 275.848 L 149.743 275.019 147.205 263.464 C 145.809 257.109,144.577 251.350,144.468 250.666 L 144.269 249.423 150.907 244.434 C 163.838 234.716,240.839 179.643,241.759 179.455 C 241.786 179.449,242.407 180.289,243.140 181.320 " stroke="none" fill="#000000" fill-rule="evenodd"></path></g></svg>