<svg height="400" viewBox="0 0 400 400" width="400" xmlns="http://www.w3.org/2000/svg"><path d="m108.998 69.044c-11.242 6.05-35.306 19.718-61.198 34.759-6.38 3.706-14.93 8.665-19 11.018-4.07 2.354-10.73 6.211-14.8 8.571s-8.908 5.127-10.752 6.149l-3.351 1.859.251 50.6c.138 27.83.252 58.611.252 68.402v17.803l22.5 12.974c12.375 7.136 38.315 22.119 57.645 33.297 19.329 11.178 35.515 20.324 35.969 20.324.554 0 111.563-63.699 115.399-66.218.326-.214.418-3.447.688-24.282l.295-22.7h30.352 30.352l.023 14.9c.022 13.867.381 23.637.888 24.144.217.217 4.884-2.058 7.489-3.649.77-.47 2.75-1.585 4.4-2.477 8.137-4.397 44.899-25.778 59-34.314 3.74-2.264 8.33-5.008 10.2-6.098 5.455-3.179 20.366-12.412 22.082-13.674l1.572-1.156-1.727-1.167c-.95-.641-3.977-2.49-6.727-4.109-11.36-6.686-19.394-11.375-24-14.006-1.65-.943-4.26-2.469-5.8-3.392-8.623-5.166-57.592-32.972-62.875-35.701-4.234-2.188-4.126-2.667-4.402 19.599l-.212 17.1h-30.355-30.356l-.012-23.1-.011-23.1-6.089-3.468c-3.348-1.907-11.758-6.743-18.688-10.746-20.116-11.621-64.056-36.786-64.228-36.786-.087 0-1.286-.686-2.665-1.524-5.28-3.211-24.177-13.276-24.925-13.276-.432 0-3.665 1.55-7.184 3.444m8.677 42.542c1.586.702 4.951 2.501 10.325 5.521.99.556 4.32 2.399 7.4 4.096 5.241 2.887 24.777 14.049 48.8 27.885l10.4 5.989.106 11.261.106 11.262h-31.313c-62.445 0-68.351 1.734-68.999 20.254-.607 17.348 4.22 21.262 28.3 22.949 3.19.224 20.701.524 38.914.667l33.113.26-.26 7.835c-.144 4.309-.375 9.537-.514 11.617l-.253 3.781-2.2 1.272c-1.21.7-7.33 4.232-13.6 7.849s-22.667 13.091-36.439 21.053l-25.038 14.476-24.362-14.04c-37.871-21.827-42.806-24.676-48.214-27.84l-5.053-2.956-.24-18.488c-.132-10.169-.288-30.362-.347-44.872l-.107-26.384 4.6-2.654c10.284-5.934 36.098-20.876 40.4-23.385 7.416-4.324 32.19-18.125 32.649-18.187.027-.004.849.347 1.826.779" fill-rule="evenodd"/></svg>