<svg height="400" viewBox="0 0 400 400" width="400" xmlns="http://www.w3.org/2000/svg"><path d="m35.564 3.709c-2.305 2.304-2.035 8.682.618 14.624 2.184 4.891 28.536 210.538 27.159 211.938-.395.401-7.827 5.679-16.518 11.729-8.69 6.05-15.806 11.285-15.812 11.632-.006.348 8.127 5.748 18.074 12l18.085 11.368 4.911 21.167c2.701 11.641 5.122 21.166 5.382 21.166.259 0 7.549-4.964 16.199-11.031 8.65-6.068 16.112-11.179 16.581-11.36 1.789-.686 189.003 92.845 192.816 96.33 6.18 5.647 11.426 6.97 14.692 3.704 2.312-2.311 1.8-4.953-3.108-16.06-8.948-20.253-9.923-30.45-5.185-54.249 3.864-19.409 4.182-22.119 4.145-35.334-.089-32.423-11.24-59.445-46.019-111.517l-11.477-17.183 7.446-5.253c4.096-2.889 14.035-9.919 22.087-15.621 8.052-5.703 14.727-10.281 14.834-10.174.106.106 1.395 5.719 2.863 12.471 1.468 6.753 2.895 12.813 3.17 13.469.38.902 7.258-9.731 28.389-43.886 15.339-24.792 27.754-45.212 27.589-45.376-.447-.448-103.773 22.604-103.476 23.085.14.227 5.371 3.511 11.623 7.298 6.252 3.786 11.368 7.102 11.368 7.368 0 .542-43.148 31.328-43.872 31.303-.254-.008-3.911-4.731-8.128-10.493-47.663-65.138-75.707-86.012-124.667-92.794-29.553-4.094-36.742-7.174-53.085-22.742-10.043-9.567-13.243-11.021-16.684-7.579m24.613 40.591c5.629 3.711 12.972 6.237 31.34 10.783 39.17 9.695 58.067 21.62 88.075 55.584 10.615 12.015 34.431 42.349 34.395 43.809-.014.569-95.821 68.58-97.533 69.236-.647.249-5.307-2.281-12.335-6.695l-11.295-7.096-6.782 4.781c-3.73 2.629-6.955 4.608-7.166 4.396-.211-.211-5.274-39.17-11.25-86.574-5.976-47.405-11.018-87.166-11.204-88.357-.416-2.667-.499-2.67 3.755.133m179.037 145.533c41.319 61.859 51.45 91.472 46.847 136.935-1.654 16.329-1.784 28.496-.37 34.495.553 2.345.892 4.376.754 4.514-.137.138-32.619-15.798-72.181-35.413-39.562-19.614-75.772-37.552-80.467-39.862l-8.536-4.199 7.203-4.927c3.961-2.71 7.264-4.964 7.34-5.01.075-.046-1.218-5.923-2.874-13.058-1.745-7.518-2.784-13.338-2.471-13.838.593-.947 96.905-69.41 97.697-69.447.269-.013 3.445 4.402 7.058 9.81" fill-rule="evenodd"/></svg>