<svg height="600" viewBox="0 0 600 600" width="600" xmlns="http://www.w3.org/2000/svg" xmlns:xlink="http://www.w3.org/1999/xlink"><clipPath id="a"><path d="m0 0h600v600h-600z"/></clipPath><g clip-path="url(#a)"><path d="m434.43 533.51c-4.75 3.37-12.06-.15-19.14-8.38l-217.83-107.95-38.29 26.67-11.29-48.68-42.28-26.66 38.8-27.03-30.28-239.88c-5.45-9.4-6.37-17.46-1.62-20.83 8.44-6.01 20.49 19.88 44.98 28.97 24.48 9.09 51.77 3.47 89.78 24.14 33.89 18.43 68.09 62.75 96.39 102.08l51.97-36.89-27.84-17.11 118.92-26.45-64.04 103.64-7.01-31.92-51.97 36.89c27.87 39.67 58.55 86.56 64.83 124.65 7.04 42.7-7.22 66.62-6.68 92.73.55 26.12 21.05 46 12.6 52.01zm-33.97-35.01c-.02-.06-.03-.11-.05-.17-9.04-25.38 4.82-54.78-1.18-89.81-5-29.14-17.11-60.65-62.03-125.61l-113.66 80.69 7.07 30.48-16.97 11.83zm-181.47-343.45c-31.11-17.17-63.44-13.73-84.44-30.6-.05-.04-.1-.07-.14-.11l26 205.99 16.63-11.59 26.47 16.69 113.66-80.68c-46.54-63.65-72.31-85.42-98.18-99.7z" fill="#2c2e35" fill-rule="evenodd"/></g></svg>