<svg xmlns="http://www.w3.org/2000/svg" width="600" height="600" viewBox="0 0 600 600"><defs><clipPath id="a" clipPathUnits="userSpaceOnUse"><path d="M600 0v600H0V0z"/></clipPath><clipPath id="b" clipPathUnits="userSpaceOnUse"><path d="M600 24.48v551.04H288.45V24.48z"/></clipPath></defs><g clip-path="url(#a)"><path d="m360.3 488.7-15.1 25-22.9-18.1c-32.6-25.8-85.2-66.6-116.6-90.9-13-10.1-22.4-17.4-25.2-19.6L158 367.3l20.2-20.4c21.4-21.6 44.8-31.8 75.9-33l7.9-.3 6.6 4.1c1.1.6 1.1.6 8.5 6.1 8.8 6.3 26 19 45.9 33.2 8.6-14.8 17.9-30.9 26.9-46.6 9.3-16.2 17.8-30.8 25.3-43.8.1-102.8.5-208.2.5-208.2 0-14.2-11.5-25.7-25.6-25.7H25.7C11.5 32.7 0 44.2 0 58.4v474.7c0 14.1 11.5 25.6 25.7 25.6h324.4c14.1 0 25.6-11.5 25.6-25.6v-70.4c-6.3 10.7-11.6 19.6-15.4 26M247.7 365.9q-3.5.5-6.7 1.2c24.9 19.3 60.6 47 90.1 70.1q2.3-3.8 4.7-8l-19.6-13.9c-28.3-20.1-55.9-40.3-68.5-49.4" style="fill:#fff"/><path d="M486 224.3c-6.9-10.9-28.4-16.7-48.2-12.8-9.5 13.1-70.6 120.9-106.8 182.8-38.5-27.3-75.1-54.3-75.9-54.8-25.6 1-42.7 9.3-58.7 25.5 9.5 7.5 95.6 73.9 141.9 110.5 28.3-47.3 143.1-244.3 147.7-251.2" style="fill:#f26466"/><g clip-path="url(#b)"><path d="M528.4 90.8c0-12.2-9.9-22.1-22.1-22.1H226.2c-12.2 0-22.1 9.9-22.1 22.1v409.8c0 12.3 9.9 22.2 22.1 22.2h280.1c12.2 0 22.1-9.9 22.1-22.2v-63.5c-1.2-1.1 0-346.3 0-346.3z" style="fill:none;stroke:#fff;stroke-width:24;stroke-dasharray:24,24"/></g></g></svg>