<svg xmlns="http://www.w3.org/2000/svg" width="600" height="600" viewBox="0 0 600 600"><defs><clipPath id="a" clipPathUnits="userSpaceOnUse"><path d="M0 0h600v600H0z"/></clipPath><clipPath id="b" clipPathUnits="userSpaceOnUse"><path d="M600 24v551.05H288.45V24z"/></clipPath></defs><g clip-path="url(#a)"><path d="m360.3 488.2-15.1 25-22.9-18.1c-32.6-25.8-85.2-66.5-116.6-90.9-13-10.1-22.4-17.3-25.2-19.5L158 366.9l20.2-20.5c21.4-21.6 44.8-31.8 75.9-33l7.9-.3 6.6 4.1c1.1.7 1.1.7 8.5 6.1 8.8 6.4 26 19 45.9 33.3 8.6-14.9 17.9-31 26.9-46.7 9.3-16.2 17.8-30.8 25.3-43.8.1-102.7.5-208.2.5-208.2 0-14.2-11.5-25.7-25.6-25.7H25.7C11.5 32.2 0 43.7 0 57.9v474.7c0 14.2 11.5 25.6 25.7 25.6h324.4c14.1 0 25.6-11.4 25.6-25.6v-70.4c-6.3 10.7-11.6 19.7-15.4 26M247.7 365.4q-3.5.5-6.7 1.3c24.9 19.2 60.6 46.9 90.1 70q2.3-3.8 4.7-7.9l-19.6-14c-28.3-20.1-55.9-40.3-68.5-49.4"/><path d="M486 223.8c-6.9-10.8-28.4-16.7-48.2-12.8-9.5 13.1-70.6 120.9-106.8 182.9-38.5-27.4-75.1-54.4-75.9-54.8-25.6 1-42.7 9.3-58.7 25.4 9.5 7.5 95.6 73.9 141.9 110.5 28.3-47.3 143.1-244.2 147.7-251.2" style="fill:#f26466"/><g clip-path="url(#b)"><path d="M528.4 90.3c0-12.2-9.9-22.1-22.1-22.1H226.2c-12.2 0-22.1 9.9-22.1 22.1v409.9c0 12.2 9.9 22.1 22.1 22.1h280.1c12.2 0 22.1-9.9 22.1-22.1v-63.5c-1.2-1.2 0-346.4 0-346.4z" style="fill:none;stroke:#000;stroke-width:24;stroke-dasharray:24,24"/></g></g></svg>