<svg height="600" viewBox="0 0 600 600" width="600" xmlns="http://www.w3.org/2000/svg"
    xmlns:xlink="http://www.w3.org/1999/xlink">
    <clipPath id="a">
        <path d="m0 0h600v600h-600z" />
    </clipPath>
    <clipPath id="b">
        <path d="m291 514.67h242.74v-429.34h-242.74z" />
    </clipPath>
    <g clip-path="url(#a)">
        <path
            d="m346.95 447-11.71 19.51-17.85-14.13c-25.41-20.11-66.37-51.84-90.85-70.8-10.16-7.87-17.46-13.53-19.63-15.24l-17.58-13.87 15.75-15.91c16.69-16.85 34.95-24.79 59.18-25.75l6.1-.24 5.2 3.21c.8.5.8.5 6.61 4.74 6.81 4.97 20.28 14.8 35.75 25.92 6.69-11.56 13.91-24.1 20.97-36.36 7.26-12.59 13.82-23.98 19.67-34.1.14-80.07.44-162.23.44-162.23 0-11.04-8.96-20-20-20h-252.74c-11.05 0-20 8.96-20 20v369.83c0 11.05 8.95 20 20 20h252.74c11.04 0 20-8.95 20-20v-54.84c-4.95 8.37-9.08 15.32-12.05 20.26zm-87.67-95.67c-1.82.25-3.55.57-5.21.98 19.33 14.97 47.21 36.57 70.19 54.58 1.17-1.99 2.4-4.06 3.66-6.2l-15.33-10.89c-22.03-15.65-43.55-31.35-53.31-38.47z"
            fill="#000" />
        <path
            d="m444.91 241.01c-5.38-8.45-22.1-13.01-37.54-10-7.42 10.25-55.04 94.24-83.19 142.49-30.03-21.33-58.54-42.34-59.13-42.7-19.94.78-33.29 7.25-45.76 19.84 7.37 5.81 74.5 57.55 110.52 86.06 22.1-36.8 111.56-190.28 115.1-195.69z"
            fill="#f26466" />
        <g clip-path="url(#b)">
            <path
                d="m477.99 137.02c0-9.54-7.73-17.27-17.26-17.27h-218.21c-9.53 0-17.26 7.73-17.26 17.27v319.3c0 9.53 7.73 17.26 17.26 17.26h218.21c9.53 0 17.26-7.73 17.26-17.26v-49.47c-.98-.87 0-269.83 0-269.83z"
                fill="none" stroke="#000" stroke-dasharray="24 24" stroke-width="24" />
        </g>
    </g>
</svg>