<svg height="600" viewBox="0 0 600 600" width="600" xmlns="http://www.w3.org/2000/svg"
    xmlns:xlink="http://www.w3.org/1999/xlink">
    <clipPath id="a">
        <path d="m0 0h600v600h-600z" />
    </clipPath>
    <g clip-path="url(#a)">
        <path
            d="m516.24 192.18h-96.74c8.81 9.04 16.66 19.06 23.5 30h73.24v252.74h-399.83c0 16.54 13.46 30 30 30h369.83c16.54 0 30-13.46 30-30v-252.74c0-16.54-13.46-30-30-30zm-223.65-48.19c19.13 1.3 37.15 4.42 53.9 9.27v-38.18c0-11.04-8.95-20-20-20h-36.39zm4.61 90.8 2.48 48.79-172.64-88.33 154.77-100.17h-208.05c-11.05 0-20 8.96-20 20v369.83c0 11.05 8.95 20 20 20h252.73c11.05 0 20-8.95 20-20v-234.79c-13.52-7.85-29.99-12.98-49.29-15.33z"
            fill="#0c0c0c" />
        <path
            d="m273.54 163.3c63.23.39 113.88 20.34 147.2 58.24 37.28 42.41 44.93 98.78 41.89 148.45 15.16 10.06 23.72 28.5 20.27 47.54-4.62 25.54-29.08 42.49-54.62 37.87-25.53-4.62-42.49-29.08-37.87-54.62 2.52-13.94 10.96-25.31 22.26-32.02 3.4-49.1-6.59-88.16-29.48-114.2-28-31.85-70.89-40.56-107.11-41.22l1.87 36.66-110.97-56.77 104.64-67.73z"
            fill="#f26466" />
        <path
            d="m126.89 220.89c0 5.79-4.69 10.48-10.48 10.48s-10.48-4.69-10.48-10.48c3.32 0 6.61-2.42 10.48-2.42 3.18 0 6.85 2.42 10.48 2.42zm-18.02 60.48h15.08l-2.43-52.69h-10.22zm41.12 6.35v-4.64l-33.58-2.79-33.58 2.79v4.64l33.58 2.78zm-2-2.32c0-2.97 2.41-5.38 5.38-5.38s5.37 2.41 5.37 5.38c0 2.96-2.4 5.37-5.37 5.37s-5.38-2.41-5.38-5.37zm-73.91 0c0-2.97 2.4-5.38 5.37-5.38s5.38 2.41 5.38 5.38c0 2.96-2.41 5.37-5.38 5.37s-5.37-2.41-5.37-5.37zm28.76 180.89 13.57 12.9 13.57-12.9v-179.55l-13.57 1.61-13.57-1.61z"
            fill="#fff" />
    </g>
</svg>