<svg xmlns="http://www.w3.org/2000/svg" width="600" height="600" viewBox="0 0 600 600"><defs><clipPath id="a" clipPathUnits="userSpaceOnUse"><path d="M0 0h600v600H0z"/></clipPath></defs><g clip-path="url(#a)"><path d="M563.5 168.3H445.6c10.7 11 20.3 23.2 28.6 36.5h89.3v308H76.3c0 20.1 16.4 36.5 36.6 36.5h450.6c20.1 0 36.5-16.4 36.5-36.5v-308c0-20.1-16.4-36.5-36.5-36.5M291 109.6c23.3 1.6 45.2 5.4 65.6 11.3V74.4c0-13.5-10.9-24.4-24.3-24.4h-44.4zm5.7 110.6 3 59.5L89.3 172.1 277.9 50H24.4C11 50 .1 60.9.1 74.4V525c0 13.4 10.9 24.3 24.3 24.3h307.9c13.5 0 24.4-10.9 24.4-24.3V238.9c-16.5-9.6-36.5-15.8-60-18.7" style="fill:#0c0c0c"/><path d="M267.8 133.1c77 .5 138.7 24.8 179.3 71 45.4 51.6 54.7 120.3 51 180.8 18.5 12.3 28.9 34.8 24.7 57.9-5.6 31.2-35.4 51.8-66.5 46.2s-51.8-35.4-46.2-66.6c3.1-16.9 13.4-30.8 27.2-39 4.1-59.8-8.1-107.4-35.9-139.1-34.2-38.8-86.4-49.4-130.5-50.2l2.2 44.6-135.2-69.1 127.5-82.5z" style="fill:#f26466"/><path d="M89.1 203.3c0 7-5.7 12.7-12.8 12.7-7 0-12.7-5.7-12.7-12.7 4 0 8-3 12.7-3 3.9 0 8.4 3 12.8 3m-22 73.7h18.4l-2.9-64.2H70.1zm50.1 7.7v-5.6l-40.9-3.4-40.9 3.4v5.6l40.9 3.4zm-2.4-2.8c0-3.7 2.9-6.6 6.5-6.6s6.5 2.9 6.5 6.6c0 3.6-2.9 6.5-6.5 6.5s-6.5-2.9-6.5-6.5m-90.1 0c0-3.7 2.9-6.6 6.5-6.6 3.7 0 6.6 2.9 6.6 6.6 0 3.6-2.9 6.5-6.6 6.5-3.6 0-6.5-2.9-6.5-6.5m35 220.3L76.3 518l16.5-15.8V283.5l-16.5 2-16.6-2z" style="fill:#fff"/></g></svg>