<svg xmlns="http://www.w3.org/2000/svg" width="261.863" height="261.863" viewBox="0 -5.814 69.285 69.285">
    <path
        d="M47.139 27.932c-5.874 0-10.635 4.761-10.635 10.634v196.645c0 5.874 4.761 10.635 10.635 10.635h235.277c8.796 0 15.951-7.155 15.951-15.951V95.51c0-8.796-7.155-15.951-15.951-15.951h-51.44c4.688 4.807 8.859 10.136 12.497 15.95h38.943v134.386l-90.258.027V110.367c-7.193-4.174-15.948-6.903-26.21-8.152l1.318 25.943L75.47 81.195l82.295-53.263Zm115.035 0 1.32 26.006c10.176.689 19.754 2.347 28.664 4.927V38.566c0-5.874-4.761-10.634-10.635-10.634z"
        style="fill:#000;fill-opacity:1;fill-rule:nonzero;stroke:none;stroke-width:1.06343"
        transform="translate(-9.658 -7.39)scale(.26458)" />
    <path
        d="M-42.812 23.165c.448 0 .963.34 1.475.34 0 .55-.302 1.03-.748 1.283l.331 7.162 3.467.288a.756.756 0 1 1 0 .686l-2.616.217v24.888l-1.91 1.815-1.909-1.815V33.141l-2.616-.217a.756.756 0 1 1 0-.686l3.468-.288.33-7.162a1.47 1.47 0 0 1-.747-1.283c.468 0 .93-.34 1.475-.34"
        style="fill:#fff;fill-opacity:1;fill-rule:nonzero;stroke:none;stroke-width:.281366"
        transform="translate(51.627 -5.807)" />
    <path
        d="M0 0c31.615-.191 56.937-10.168 73.598-29.119 18.642-21.204 22.467-49.389 20.947-74.222 7.58-5.033 11.858-14.251 10.135-23.772-2.313-12.769-14.542-21.247-27.311-18.936-12.767 2.313-21.247 14.542-18.934 27.311 1.261 6.968 5.481 12.654 11.128 16.01 1.702 24.548-3.293 44.081-14.74 57.101C40.822-29.703 19.38-25.35 1.271-25.019l.931-18.329-55.481 28.387L-.96 18.901z"
        style="fill:#e34e61;fill-opacity:1;fill-rule:nonzero;stroke:none"
        transform="matrix(.28137 0 0 -.28137 30.92 9.598)" />
</svg>