<svg xmlns="http://www.w3.org/2000/svg" width="600" height="600" viewBox="0 0 600 600"><defs><clipPath id="a" clipPathUnits="userSpaceOnUse"><path d="M0 0h600v600H0z"/></clipPath></defs><g clip-path="url(#a)"><path d="M563.5 168.6H445.6c10.7 11.1 20.3 23.3 28.6 36.6h89.3v307.9H76.3c0 20.2 16.4 36.6 36.6 36.6h450.6c20.1 0 36.5-16.4 36.5-36.6V205.2c0-20.2-16.4-36.6-36.5-36.6M291 109.9c23.3 1.6 45.2 5.4 65.6 11.3V74.7c0-13.4-10.9-24.4-24.3-24.4h-44.4zm5.7 110.7 3 59.4L89.3 172.4l188.6-122H24.4C11 50.4.1 61.3.1 74.7v450.6c0 13.5 10.9 24.4 24.3 24.4h307.9c13.5 0 24.4-10.9 24.4-24.4V239.2c-16.5-9.5-36.5-15.8-60-18.6" style="fill:#fff"/><path d="M267.8 133.5c77 .4 138.7 24.7 179.3 70.9 45.4 51.7 54.7 120.4 51 180.9 18.5 12.2 28.9 34.7 24.7 57.9-5.6 31.1-35.4 51.8-66.5 46.1-31.1-5.6-51.8-35.4-46.2-66.5 3.1-17 13.4-30.9 27.2-39 4.1-59.8-8.1-107.4-35.9-139.2-34.2-38.8-86.4-49.4-130.5-50.2l2.2 44.7-135.2-69.2 127.5-82.5z" style="fill:#f26466"/><path d="M89.1 203.6c0 7.1-5.7 12.8-12.8 12.8-7 0-12.7-5.7-12.7-12.8 4 0 8-2.9 12.7-2.9 3.9 0 8.4 2.9 12.8 2.9m-22 73.7h18.4l-2.9-64.2H70.1zm50.1 7.7v-5.6L76.3 276l-40.9 3.4v5.6l40.9 3.4zm-2.4-2.8c0-3.6 2.9-6.5 6.5-6.5s6.5 2.9 6.5 6.5-2.9 6.5-6.5 6.5-6.5-2.9-6.5-6.5m-90.1 0c0-3.6 2.9-6.5 6.5-6.5 3.7 0 6.6 2.9 6.6 6.5s-2.9 6.5-6.6 6.5c-3.6 0-6.5-2.9-6.5-6.5m35 220.4 16.6 15.7 16.5-15.7V283.8l-16.5 2-16.6-2z" style="fill:#0c0c0c"/></g></svg>