<svg height="580" viewBox="0 0 580 580" width="580" xmlns="http://www.w3.org/2000/svg"><path d="m290 574.35c-3.92 0-7.61-1.53-10.38-4.3l-269.67-269.67c-5.72-5.72-5.72-15.04 0-20.76l269.67-269.67c2.77-2.77 6.46-4.3 10.38-4.3 3.92 0 7.61 1.53 10.38 4.3l269.67 269.67c5.72 5.72 5.72 15.04 0 20.76l-269.67 269.67c-2.77 2.77-6.46 4.3-10.38 4.3z" fill="#ce41a1"/><g fill="#fff"><path d="m303.92 6.42 269.66 269.66c7.69 7.69 7.69 20.15 0 27.84l-269.66 269.66c-3.85 3.85-8.88 5.77-13.92 5.77s-10.07-1.92-13.92-5.77l-269.66-269.66c-7.69-7.69-7.69-20.15 0-27.84l269.66-269.66c3.85-3.85 8.88-5.77 13.92-5.77s10.07 1.92 13.92 5.77zm-20.77 7.07-269.66 269.66c-1.83 1.83-2.84 4.26-2.84 6.85s1.01 5.02 2.84 6.85l269.66 269.66c1.83 1.83 4.26 2.84 6.85 2.84s5.02-1.01 6.85-2.84l269.66-269.66c1.83-1.83 2.84-4.26 2.84-6.85s-1.01-5.02-2.84-6.85l-269.66-269.66c-1.83-1.83-4.26-2.84-6.85-2.84s-5.02 1.01-6.85 2.84z" fill-rule="evenodd"/><path d="m172.3 211.73h-26.5c1.42-2.85 3.65-5.15 6.49-7.14h12.27c2.5 1.74 5.12 4.24 7.74 7.14z"/><path d="m190.73 237.2h-41.65c-1.47-3.11-2.6-5.94-3.4-8.54h39.53c2.11 3.14 4 6.08 5.52 8.54z"/><path d="m208.61 262.65h-44.1c-1.74-2.71-3.65-5.63-5.73-8.76-.26-.39-.51-.77-.76-1.16h42.81c2.6 3.71 5.28 7.21 7.78 9.92z"/><path d="m221.7 160.83h-31.12c.31-1.62.84-3.09 1.6-4.39h27.62c.56 1.24 1.2 2.72 1.9 4.39z"/><path d="m231.44 186.28h-36.65c-.69-1.89-1.33-3.83-1.9-5.77h36.41c.7 1.91 1.42 3.84 2.14 5.77z"/><path d="m241.29 211.72v.01h-36.19c-.77-1.97-1.4-3.55-1.82-4.62-.28-.71-.62-1.56-1.03-2.52h36.14c1.03 2.62 2 5.03 2.9 7.13z"/><path d="m251.96 237.2h-37.63c-.92-2.88-1.9-5.75-2.87-8.54h36.7c1.28 3.1 2.53 6.01 3.8 8.54z"/><path d="m279.97 109.92h-16.74c5.29-2.46 11.96-1.88 16.74 0z"/><path d="m290.78 135.37h-36.21c-.07-1.02-.12-2.02-.14-3h35.88c.17.99.32 2 .47 3z"/><path d="m293.68 160.83h-36c-.23-1.46-.45-2.91-.68-4.39h36.29c.07.84.13 1.5.18 1.98.04.54.12 1.35.21 2.41z"/><path d="m295.88 186.28h-34.86c-.12-1.8-.3-3.73-.54-5.77h34.92c.15 1.88.31 3.81.48 5.77z"/><path d="m297.83 211.73h-33.9c-.32-2.39-.64-4.78-.96-7.14h34.36c.18 2.47.35 4.88.5 7.14z"/><path d="m265.82 237.2c.16-2.51.11-5.4-.08-8.54h33.31c.78 6.01 2.08 7.89 3.64 8.54z"/><path d="m351.59 252.73c-.96 4.85-1.5 8.28-1.39 9.51.02.14.03.27.04.41h-130.71c.17-2.64-.23-6.07-1.01-9.92z"/><path d="m316.79 228.66h40.08c-.67 2.93-1.33 5.8-1.95 8.54h-42.37c1.02-.64 1.9-1.69 2.56-3.29.35-.84.94-2.72 1.68-5.25z"/><path d="m323.42 204.59h39.09c-.55 2.35-1.11 4.74-1.67 7.14h-39.33c.64-2.39 1.28-4.8 1.91-7.14z"/><path d="m329.35 180.51h38.67c-.37 1.77-.8 3.7-1.27 5.77h-38.61c.31-1.39.7-3.36 1.21-5.77z"/><path d="m370.57 135.37h-24.49c.91-1.12 1.85-2.12 2.83-3h18.86c1.12.89 2.05 1.9 2.8 3z"/><path d="m372.72 156.44c-.25 1.5-.55 2.97-.84 4.39h-37.59c.44-1.46.9-2.93 1.4-4.39z"/><path d="m360.29 288.1h-180.85c-1.55-3.13-3.55-6.82-6.19-11.3h178.26c.97 5.44 3.1 9.48 8.78 11.3z"/><path d="m241.38 440.82c-.15-7.43-.7-14.73-2.05-19.58h100.94c.03 4.94.23 12.26.48 19.58z"/><path d="m341.59 462.48c.1 2.44-1.42 4.66-3.74 5.45-8.3 2.83-28.45 9.03-47.68 9.73-18.97.68-37.67-4.84-45.62-7.55-2.35-.8-3.86-3.06-3.72-5.53.26-4.34.6-11.62.59-19.27h99.49c.25 6.83.51 13.22.68 17.17z"/><path d="m340.45 415.37h-105.98c-5.51-3.97-11.23-10.62-16.75-18.2h139.2c-8.16 9.14-15.82 16.7-16.43 18.04-.01.04-.03.09-.04.16z"/><path d="m374.68 373.09c-1.64 3.19-3.31 6.09-5.03 8.49-1.95 2.73-4.17 5.55-6.47 8.33h-150.54c-2.88-4.28-5.67-8.66-8.31-12.89-.8-1.28-1.56-2.59-2.28-3.93z"/><path d="m385.09 349.02c-1.98 4.95-4.11 10.32-6.36 15.44h-180.71c-2.02-5.03-3.65-10.25-4.96-15.44z"/><path d="m399.92 324.95c-2.54 2.17-4.39 3.74-5.25 4.45-1.56 1.29-3.4 4.84-5.46 9.61h-198.35c-.95-4.93-1.67-9.68-2.24-14.06z"/><path d="m427.64 300.88c-4.79 4.21-9.83 8.61-14.5 12.67h-225.93c-.55-4.49-1.04-7.97-1.65-9.98-.28-.89-.55-1.78-.84-2.69z"/><path d="m436.74 262.65h-21.41c4.55-1.79 9.15-2.76 13.48-2.26 3 .35 5.64 1.16 7.93 2.26z"/><path d="m449.01 281.16c-.39.7-3.08 3.29-7.06 6.94h-68.37c4.54-1.38 8.4-4 12.21-6.33 1.5-.91 3.8-2.74 6.68-4.97h56.42c.55 1.98.56 3.57.12 4.36z"/></g></svg>