<?xml version="1.0" encoding="UTF-8"?>
<svg xmlns="http://www.w3.org/2000/svg" xmlns:xlink="http://www.w3.org/1999/xlink" width="1000pt" height="1000pt" viewBox="0 0 1000 1000" version="1.1">
<g id="surface1">
<path style=" stroke:none;fill-rule:evenodd;fill:rgb(98.039216%,94.901961%,96.862745%);fill-opacity:1;" d="M 490 0.878906 C 488.625 1.328125 485.699219 2.636719 483.5 3.78125 C 480.984375 5.09375 391.421875 94.007812 241.859375 243.683594 C -25.003906 510.738281 0 484.238281 0 500 C 0 515.761719 -25.003906 489.261719 241.859375 756.316406 C 506.78125 1021.441406 483.492188 999.5 500 999.5 C 509.480469 999.5 510.984375 999.238281 515.5 996.816406 C 525.253906 991.589844 995.277344 519.890625 997.890625 512.710938 C 1000.703125 504.984375 1000.703125 495.015625 997.890625 487.289062 C 995.246094 480.011719 525.109375 8.273438 515.5 3.246094 C 510.164062 0.460938 495.453125 -0.90625 490 0.878906 M 505.683594 18.046875 C 510.074219 19.675781 980.742188 490.695312 982.105469 494.824219 C 982.734375 496.71875 982.917969 500.164062 982.535156 502.824219 C 981.613281 509.269531 510.460938 981.34375 503.75 982.550781 C 494.066406 984.289062 513.84375 1003.222656 255.3125 744.6875 C -3.226562 486.152344 15.710938 505.929688 17.449219 496.25 C 18.203125 492.070312 487.261719 21.273438 493.5 18.441406 C 497.132812 16.789062 501.886719 16.636719 505.683594 18.046875 M 460.199219 186.921875 C 453.914062 188.53125 455.722656 189 468.082031 188.96875 C 477.085938 188.949219 480.015625 188.65625 478.734375 187.910156 C 476.34375 186.519531 464.289062 185.878906 460.199219 186.921875 M 439 230.484375 L 439 233 L 501.140625 233 L 500.5 228.5 L 439 227.96875 L 439 230.484375 M 599.65625 229.828125 C 598.746094 230.835938 598 231.960938 598 232.328125 C 598 232.699219 607 233 618 233 C 638.054688 233 639.558594 232.722656 636.171875 229.65625 C 633.292969 227.050781 602.035156 227.199219 599.65625 229.828125 M 330.160156 271.546875 C 327.59375 277.175781 326.789062 277 355 277 C 372.488281 277 381 276.65625 381 275.949219 C 381 275.371094 380.3125 273.574219 379.476562 271.949219 L 377.949219 269 L 331.320312 269 L 330.160156 271.546875 M 443.558594 271.734375 C 443.894531 273.253906 444.339844 275.0625 444.550781 275.75 C 444.851562 276.714844 451.925781 277 475.53125 277 L 506.121094 277 L 505.808594 273.25 L 505.5 269.5 L 474.226562 269.234375 L 442.953125 268.972656 L 443.558594 271.734375 M 578.101562 272.136719 C 577.496094 273.875 577 275.683594 577 276.148438 C 577 277.195312 640.699219 277.296875 641.339844 276.25 C 641.59375 275.835938 641.957031 274.148438 642.148438 272.5 L 642.5 269.5 L 610.851562 269.234375 L 579.203125 268.972656 L 578.101562 272.136719 M 333.398438 313.453125 C 333.738281 314.808594 334.449219 317.058594 334.984375 318.453125 L 335.949219 321 L 398.21875 321 L 397.601562 318.546875 C 397.261719 317.191406 396.550781 314.941406 396.015625 313.546875 L 395.050781 311 L 332.78125 311 L 333.398438 313.453125 M 449.371094 313.25 C 449.703125 314.488281 449.980469 316.738281 449.988281 318.25 L 450 321 L 510.261719 321 L 509.640625 317.25 C 509.300781 315.1875 509.015625 312.9375 509.011719 312.25 C 509.003906 311.277344 502.304688 311 478.882812 311 L 448.765625 311 L 449.371094 313.25 M 567.503906 314.25 C 567.144531 316.039062 566.628906 318.289062 566.359375 319.25 C 565.820312 321.164062 631.226562 322.058594 632.40625 320.15625 C 632.691406 319.691406 633.226562 317.441406 633.59375 315.15625 L 634.253906 311 L 568.160156 311 L 567.503906 314.25 M 256.460938 357.59375 C 249.164062 365.105469 248.921875 365.003906 274.25 364.964844 L 296.5 364.929688 L 290.222656 358.964844 L 283.949219 353 L 260.925781 353 L 256.460938 357.59375 M 349 353.472656 C 349 353.730469 350.101562 356.429688 351.445312 359.472656 L 353.890625 365 L 384.445312 365 C 401.25 365 415 364.609375 415 364.132812 C 415 363.65625 414.039062 360.957031 412.867188 358.132812 L 410.734375 353 L 379.867188 353 C 362.890625 353 349 353.210938 349 353.472656 M 454.011719 355.25 C 454.015625 356.488281 454.300781 359.1875 454.640625 361.25 L 455.261719 365 L 513 365 L 513 353 L 454 353 L 454.011719 355.25 M 557.523438 354.25 C 556.753906 356.574219 555.011719 363.496094 555.003906 364.25 C 555.003906 364.664062 570.058594 365 588.460938 365 L 621.921875 365 L 623.019531 360.75 C 623.625 358.414062 624.347656 355.710938 624.628906 354.75 C 625.285156 352.484375 558.273438 351.984375 557.523438 354.25 M 251.566406 396.25 C 251.953125 397.488281 253.308594 400.863281 254.578125 403.75 L 256.890625 409 L 328.070312 409 L 326.871094 406.75 C 326.210938 405.511719 324.109375 402.136719 322.195312 399.25 L 318.71875 394 L 250.863281 394 L 251.566406 396.25 M 365.058594 395.25 C 365.09375 395.9375 366.109375 399.199219 367.3125 402.5 L 369.507812 408.5 L 401.695312 408.765625 L 433.886719 409.027344 L 430.746094 401.515625 L 427.613281 394 L 396.304688 394 C 371.894531 394 365.011719 394.273438 365.058594 395.25 M 458.324219 401.234375 L 458.523438 408.5 L 489.261719 408.765625 C 518.757812 409.015625 521.398438 408.796875 518.871094 406.273438 C 518.253906 405.652344 517.207031 402.75 516.546875 399.824219 L 515.351562 394.5 L 486.738281 394.234375 L 458.128906 393.96875 L 458.324219 401.234375 M 545.148438 398.328125 C 544.546875 400.710938 543.144531 403.816406 542.03125 405.238281 C 540.914062 406.65625 540 408.082031 540 408.40625 C 540 408.734375 556.144531 409 575.878906 409 L 611.757812 409 L 613.378906 402.546875 C 614.269531 398.996094 615 395.621094 615 395.046875 C 615 394.339844 603.851562 394 580.617188 394 L 546.238281 394 L 545.148438 398.328125 M 273.167969 436.851562 C 273.351562 437.320312 275.75 441.140625 278.5 445.339844 L 283.5 452.976562 L 320.75 452.988281 C 341.238281 452.996094 357.992188 452.664062 357.980469 452.25 C 357.96875 451.835938 355.238281 448.011719 351.90625 443.75 L 345.855469 436 L 309.34375 436 C 289.261719 436 272.984375 436.382812 273.167969 436.851562 M 377.640625 443.25 C 377.929688 447.238281 378.339844 451.0625 378.550781 451.75 C 378.859375 452.738281 402.289062 453 491.324219 453 L 603.714844 453 L 604.34375 446.976562 C 604.691406 443.660156 605.253906 439.835938 605.59375 438.476562 L 606.21875 436 L 377.117188 436 L 377.640625 443.25 M 724.734375 450.417969 C 716.59375 452.609375 718.140625 453 734.890625 453 C 751.421875 453 754.449219 452.121094 744.941406 450.078125 C 738.414062 448.679688 730.710938 448.808594 724.734375 450.417969 M 299 477.425781 C 299 477.660156 301.324219 482.160156 304.164062 487.425781 L 309.328125 497 L 464.414062 496.949219 C 610.613281 496.898438 619.359375 496.796875 617 495.199219 C 612.253906 491.976562 608.921875 487.484375 607.390625 482.25 L 605.859375 477 L 452.429688 477 C 368.042969 477 299 477.191406 299 477.425781 M 673.039062 480.558594 C 667.921875 484.632812 660.15625 489.433594 651.5 493.878906 L 645.5 496.957031 L 703.835938 496.980469 L 762.171875 497 L 768.636719 490.796875 C 774.484375 485.179688 775.066406 484.253906 774.796875 481.046875 L 774.5 477.5 L 677.5 477.007812 L 673.039062 480.558594 M 319.359375 521.75 C 319.6875 523.261719 320.472656 527.648438 321.101562 531.5 C 321.734375 535.351562 322.40625 539.0625 322.59375 539.75 C 322.867188 540.746094 362.71875 541 517.582031 541 L 712.230469 541 L 723.863281 530.828125 C 730.265625 525.234375 735.925781 520.285156 736.449219 519.828125 C 736.972656 519.371094 643.207031 519 528.082031 519 L 318.765625 519 L 319.359375 521.75 M 325.363281 563.75 C 325.65625 565.261719 326.398438 569.875 327.019531 574 C 327.640625 578.125 328.371094 582.289062 328.640625 583.25 C 329.109375 584.90625 338.128906 585 500.054688 585 L 670.976562 585 L 674.601562 577.796875 C 676.886719 573.257812 680.132812 568.824219 683.363281 565.8125 L 688.5 561.035156 L 506.671875 561.015625 L 324.839844 561 L 325.363281 563.75 M 333 603.042969 C 333 603.613281 334.824219 609.691406 337.054688 616.546875 L 341.109375 629.003906 L 497.15625 628.753906 L 653.203125 628.5 L 656.921875 619.5 C 658.964844 614.550781 661.390625 608.585938 662.3125 606.25 L 663.984375 602 L 498.492188 602 C 384.324219 602 333 602.324219 333 603.042969 M 349 644.652344 C 349 645.460938 363.796875 668.839844 365.832031 671.25 C 367.226562 672.898438 374.699219 673 496.613281 673 L 625.914062 673 L 631.363281 666.25 C 634.359375 662.539062 638.871094 656.011719 641.386719 651.75 L 645.964844 644 L 497.484375 644 C 415.816406 644 349 644.296875 349 644.652344 M 376 685.761719 C 376 687.359375 390.007812 703.796875 396.863281 710.25 L 404.039062 717 L 495.265625 716.90625 L 586.5 716.8125 L 598.5 703.855469 C 605.101562 696.726562 611.570312 689.570312 612.878906 687.949219 L 615.257812 685 L 495.628906 685 C 429.832031 685 376 685.34375 376 685.761719 M 413.355469 729.28125 C 414.320312 733.125 415.984375 749.191406 415.992188 754.75 L 416 760 L 587 760 L 587 727 L 412.78125 727 L 413.355469 729.28125 M 415.753906 786.75 C 415.082031 808.960938 415.046875 808.867188 425.730469 812.371094 C 472.914062 827.835938 514.710938 827.558594 569.398438 811.414062 C 589.871094 805.367188 589.292969 806.191406 588.355469 784.410156 L 587.691406 769 L 416.289062 769 L 415.753906 786.75 "/>
<path style=" stroke:none;fill-rule:evenodd;fill:rgb(89.411765%,61.176471%,80%);fill-opacity:1;" d="M 449.5 227.707031 C 477.191406 228.414062 500.769531 228.433594 500.347656 227.75 C 500.089844 227.335938 486.070312 227.09375 469.191406 227.214844 C 452.308594 227.332031 443.449219 227.554688 449.5 227.707031 M 609.75 227.746094 C 614.289062 227.929688 621.710938 227.929688 626.25 227.746094 C 630.789062 227.558594 627.074219 227.40625 618 227.40625 C 608.925781 227.40625 605.210938 227.558594 609.75 227.746094 M 267.289062 352.738281 C 270.46875 352.941406 275.421875 352.9375 278.289062 352.734375 C 281.15625 352.535156 278.550781 352.371094 272.5 352.375 C 266.449219 352.378906 264.105469 352.539062 267.289062 352.738281 M 364.25 352.746094 C 372.914062 352.914062 387.085938 352.914062 395.75 352.746094 C 404.414062 352.582031 397.324219 352.445312 380 352.445312 C 362.675781 352.445312 355.585938 352.582031 364.25 352.746094 M 453.652344 352.75 C 453.398438 353.164062 461.808594 353.386719 472.34375 353.246094 C 508.835938 352.753906 512.363281 352.425781 483.308594 352.210938 C 467.253906 352.09375 453.910156 352.335938 453.652344 352.75 M 557.652344 352.75 C 557.398438 353.164062 567.15625 353.386719 579.34375 353.246094 C 621.394531 352.761719 625.390625 352.433594 591.808594 352.214844 C 573.28125 352.097656 557.910156 352.335938 557.652344 352.75 M 284.5 435.714844 C 317.332031 436.414062 346.769531 436.433594 346.347656 435.75 C 346.089844 435.335938 329.144531 435.097656 308.691406 435.21875 C 288.234375 435.335938 277.351562 435.5625 284.5 435.714844 M 433.671875 435.75 C 465.117188 435.898438 516.867188 435.898438 548.671875 435.75 C 580.476562 435.601562 554.75 435.484375 491.5 435.484375 C 428.25 435.484375 402.226562 435.601562 433.671875 435.75 M 506.308594 560.75 C 643.175781 560.941406 687.9375 561.289062 687.402344 562.15625 C 686.960938 562.871094 687.128906 563.039062 687.84375 562.59375 C 688.480469 562.203125 689 561.457031 689 560.941406 C 689 560.355469 620.136719 560.09375 506.75 560.246094 L 324.5 560.496094 L 506.308594 560.75 M 423.328125 643.75 C 464.484375 643.894531 531.535156 643.894531 572.328125 643.75 C 613.121094 643.605469 579.449219 643.488281 497.5 643.488281 C 415.550781 643.488281 382.171875 643.605469 423.328125 643.75 M 587.113281 757.246094 L 587 759.988281 L 415.5 760.511719 L 501.28125 760.753906 C 593.183594 761.015625 588.976562 761.234375 587.699219 756.308594 C 587.390625 755.121094 587.191406 755.445312 587.113281 757.246094 M 458.75 768.75 C 482.539062 768.898438 521.460938 768.898438 545.25 768.75 C 569.039062 768.601562 549.574219 768.476562 502 768.476562 C 454.425781 768.476562 434.960938 768.601562 458.75 768.75 M 588.253906 785.5 C 588.261719 787.699219 588.46875 788.484375 588.707031 787.238281 C 588.949219 785.996094 588.9375 784.195312 588.6875 783.238281 C 588.4375 782.28125 588.238281 783.300781 588.253906 785.5 "/>
<path style=" stroke:none;fill-rule:evenodd;fill:rgb(83.137255%,38.823529%,67.058824%);fill-opacity:1;" d="M 347.8125 310.746094 C 356.785156 310.914062 371.183594 310.914062 379.8125 310.746094 C 388.441406 310.582031 381.101562 310.445312 363.5 310.445312 C 345.898438 310.449219 338.839844 310.582031 347.8125 310.746094 M 463.75 310.746094 C 472.136719 310.914062 485.863281 310.914062 494.25 310.746094 C 502.636719 310.578125 495.773438 310.445312 479 310.445312 C 462.226562 310.445312 455.363281 310.578125 463.75 310.746094 M 567.652344 310.75 C 567.398438 311.164062 577.15625 311.386719 589.34375 311.246094 C 631.394531 310.761719 635.390625 310.433594 601.808594 310.214844 C 583.28125 310.097656 567.910156 310.335938 567.652344 310.75 M 734.75 448.703125 C 735.988281 448.945312 738.011719 448.945312 739.25 448.703125 C 740.488281 448.46875 739.476562 448.273438 737 448.273438 C 734.523438 448.273438 733.511719 448.46875 734.75 448.703125 M 767.945312 491.75 L 764.5 495.5 L 768.25 492.054688 C 771.738281 488.84375 772.460938 488 771.695312 488 C 771.53125 488 769.84375 489.6875 767.945312 491.75 M 393.5 518.742188 C 596.078125 519.425781 738 519.425781 738 518.75 C 738 518.335938 643.386719 518.109375 527.75 518.242188 C 412.113281 518.378906 351.699219 518.601562 393.5 518.742188 M 455.824219 726.75 C 480.203125 726.898438 519.804688 726.898438 543.824219 726.75 C 567.847656 726.601562 547.898438 726.476562 499.5 726.476562 C 451.101562 726.476562 431.449219 726.601562 455.824219 726.75 M 587.273438 746 C 587.273438 748.476562 587.46875 749.488281 587.703125 748.25 C 587.945312 747.011719 587.945312 744.988281 587.703125 743.75 C 587.46875 742.511719 587.273438 743.523438 587.273438 746 M 415.234375 756 C 415.234375 757.925781 415.4375 758.710938 415.691406 757.75 C 415.941406 756.789062 415.941406 755.210938 415.691406 754.25 C 415.4375 753.289062 415.234375 754.074219 415.234375 756 M 415.253906 783.5 C 415.261719 785.699219 415.46875 786.484375 415.707031 785.238281 C 415.949219 783.996094 415.9375 782.195312 415.6875 781.238281 C 415.4375 780.28125 415.238281 781.300781 415.253906 783.5 M 498.761719 824.707031 C 500.003906 824.949219 501.804688 824.9375 502.761719 824.6875 C 503.71875 824.4375 502.699219 824.238281 500.5 824.253906 C 498.300781 824.261719 497.515625 824.46875 498.761719 824.707031 "/>
<path style=" stroke:none;fill-rule:evenodd;fill:rgb(87.843137%,54.901961%,74.901961%);fill-opacity:1;" d="M 292 360.5 C 293.863281 362.425781 295.617188 364 295.890625 364 C 296.167969 364 294.863281 362.425781 293 360.5 C 291.136719 358.574219 289.382812 357 289.109375 357 C 288.832031 357 290.136719 358.574219 292 360.5 "/>
<path style=" stroke:none;fill-rule:evenodd;fill:rgb(76.862745%,23.529412%,58.039216%);fill-opacity:1;" d="M 493 19.105469 C 489.695312 20.398438 24.628906 485.199219 20.890625 490.945312 C 16.933594 497.03125 16.933594 502.96875 20.890625 509.054688 C 24.726562 514.949219 488.574219 978.34375 492.699219 980.402344 C 496.796875 982.445312 503.207031 982.445312 507.300781 980.402344 C 511.308594 978.398438 975.007812 515.117188 979.042969 509.078125 C 983.113281 502.988281 983.113281 497.011719 979.042969 490.921875 C 974.761719 484.515625 510.078125 20.3125 506.683594 19.046875 C 503.226562 17.761719 496.363281 17.789062 493 19.105469 M 480.5 187.761719 C 482.097656 188.703125 479.582031 188.929688 468 188.886719 C 454.671875 188.84375 453.742188 188.722656 456.5 187.40625 C 460.117188 185.679688 477.40625 185.933594 480.5 187.761719 M 501 228.417969 C 501 229.199219 501.273438 230.546875 501.609375 231.417969 C 502.152344 232.839844 498.972656 233 470.109375 233 L 438 233 L 438 227 L 469.5 227 C 496.023438 227 501 227.226562 501 228.417969 M 636.683594 229.175781 C 640.566406 232.824219 639.699219 233 618 233 C 606.449219 233 597 232.691406 597 232.316406 C 597 226.613281 631.085938 223.914062 636.683594 229.175781 M 380.550781 272.46875 C 381.347656 274.375 382 276.175781 382 276.46875 C 382 276.761719 369.851562 277 355 277 C 340.148438 277 328 276.695312 328 276.320312 C 328 275.949219 328.539062 274.148438 329.199219 272.320312 L 330.402344 269 L 379.101562 269 L 380.550781 272.46875 M 506.011719 270.75 C 506.019531 271.710938 506.296875 273.511719 506.628906 274.75 L 507.234375 277 L 475.722656 277 C 441.441406 277 443 277.265625 443 271.417969 L 443 269 L 474.5 269 C 503.828125 269 506 269.121094 506.011719 270.75 M 642.988281 270.75 C 642.980469 271.710938 642.703125 273.511719 642.371094 274.75 L 641.765625 277 L 576.210938 277 L 578.242188 269 L 610.621094 269 C 640.796875 269 643 269.121094 642.988281 270.75 M 396.429688 313.25 C 397.164062 315.039062 398.070312 317.511719 398.449219 318.75 L 399.136719 321 L 335.1875 321 L 333.59375 316.324219 C 332.71875 313.75 332 311.273438 332 310.824219 C 332 310.371094 346.199219 310 363.550781 310 L 395.101562 310 L 396.429688 313.25 M 509.800781 315.75 L 510.105469 321 L 449 321 L 449 309.96875 L 509.5 310.5 L 509.800781 315.75 M 635 311.058594 C 635 311.636719 634.496094 314.113281 633.882812 316.558594 L 632.761719 321 L 565.773438 321 L 566.484375 316.25 C 566.875 313.636719 567.402344 311.164062 567.65625 310.75 C 568.414062 309.523438 635 309.824219 635 311.058594 M 290.546875 358.453125 L 297.5 364.90625 L 274.25 364.953125 C 247.988281 365.003906 248.707031 365.304688 256.144531 357.441406 L 261.289062 352 L 283.59375 352 L 290.546875 358.453125 M 413.59375 358.421875 C 414.917969 361.675781 416 364.496094 416 364.683594 C 416 364.871094 401.78125 364.910156 384.40625 364.765625 L 352.816406 364.5 L 350.40625 358.578125 C 349.082031 355.324219 348 352.503906 348 352.316406 C 348 352.128906 362.21875 352.089844 379.59375 352.234375 L 411.183594 352.5 L 413.59375 358.421875 M 513 353.859375 C 513 354.882812 513.285156 357.808594 513.636719 360.359375 L 514.273438 365 L 484.695312 365 C 468.425781 365 454.921875 364.664062 454.683594 364.25 C 454.445312 363.835938 453.933594 360.914062 453.550781 357.75 L 452.855469 352 L 482.925781 352 C 511.582031 352 513 352.085938 513 353.859375 M 624.445312 357.75 C 623.691406 360.914062 623.054688 363.835938 623.035156 364.25 C 623.015625 364.664062 607.425781 365 588.390625 365 C 555.84375 365 553.828125 364.894531 554.460938 363.25 C 554.835938 362.289062 555.636719 359.363281 556.242188 356.75 L 557.34375 352 L 625.820312 352 L 624.445312 357.75 M 320.613281 395.75 C 321.210938 396.710938 323.359375 400.085938 325.382812 403.25 L 329.0625 409 L 255.949219 409 L 255.078125 406.75 C 254.597656 405.511719 253.265625 402.136719 252.117188 399.25 L 250.03125 394 L 284.773438 394 C 316.78125 394 319.605469 394.136719 320.613281 395.75 M 430.988281 400.636719 C 432.644531 404.289062 434 407.671875 434 408.152344 C 434 408.640625 419.550781 408.910156 401.34375 408.761719 L 368.691406 408.5 L 366.992188 403.5 C 366.058594 400.75 364.972656 397.488281 364.578125 396.25 L 363.863281 394 L 427.980469 394 L 430.988281 400.636719 M 516.953125 399.226562 C 517.574219 402.101562 519.039062 405.476562 520.210938 406.726562 L 522.347656 409 L 458 409 L 458 394 L 515.835938 394 L 516.953125 399.226562 M 615.65625 395.453125 C 615.347656 396.257812 614.535156 399.632812 613.847656 402.953125 L 612.601562 409 L 538.855469 409 L 540.871094 406.4375 C 541.980469 405.027344 543.394531 402.214844 544.019531 400.1875 C 544.640625 398.160156 545.328125 395.9375 545.546875 395.25 C 545.851562 394.28125 553.839844 394 581.074219 394 C 611.425781 394 616.136719 394.199219 615.65625 395.453125 M 352.417969 443.429688 C 356.039062 448.066406 359 452.117188 359 452.429688 C 359 452.742188 341.914062 453 321.03125 453 L 283.058594 453 L 277.996094 445.496094 C 275.210938 441.371094 272.675781 437.320312 272.359375 436.496094 C 271.859375 435.183594 276.34375 435 308.808594 435 L 345.835938 435 L 352.417969 443.429688 M 606.605469 436.75 C 606.085938 438.46875 604.023438 450.777344 604.007812 452.25 C 604.003906 452.664062 553.214844 453 491.140625 453 L 378.289062 453 L 377.636719 446.25 C 377.28125 442.539062 376.714844 438.488281 376.378906 437.25 L 375.765625 435 L 491.449219 435 C 601.160156 435 607.109375 435.089844 606.605469 436.75 M 744.613281 449.386719 C 755.859375 452.378906 754.316406 452.941406 735 452.886719 C 718.078125 452.839844 716.78125 452.714844 719.769531 451.40625 C 726.90625 448.289062 737.308594 447.441406 744.613281 449.386719 M 607.722656 481.25 C 609.3125 487.191406 612.871094 492.078125 617.53125 494.71875 L 621.5 496.96875 L 465 496.960938 L 308.5 496.960938 L 303.238281 486.980469 L 297.972656 477 L 606.585938 477 L 607.722656 481.25 M 775.488281 479.941406 C 776.332031 483.789062 775.210938 485.691406 768.453125 491.867188 L 762.839844 497 L 703.671875 496.980469 L 644.5 496.960938 L 654 491.921875 C 659.226562 489.148438 666.425781 484.691406 670 482.015625 L 676.5 477.15625 L 725.671875 477.078125 L 774.839844 477 L 775.488281 479.941406 M 737.921875 518.75 C 737.878906 519.164062 732.261719 524.335938 725.4375 530.25 L 713.03125 541 L 322.121094 541 L 321.46875 536.25 C 321.105469 533.636719 320.175781 528.660156 319.40625 525.1875 C 318.632812 521.71875 318 518.679688 318 518.4375 C 318 518.199219 412.5 518 528 518 C 643.5 518 737.964844 518.335938 737.921875 518.75 M 683.96875 566.25 C 679.613281 570.457031 676.539062 574.542969 674.566406 578.75 L 671.632812 585 L 328.203125 585 L 327.109375 578.699219 C 326.503906 575.234375 325.71875 569.609375 325.363281 566.199219 L 324.714844 560 L 690.441406 560 L 683.96875 566.25 M 659.226562 615.503906 L 653.726562 629.003906 L 497.113281 628.753906 L 340.5 628.5 L 336.296875 616 C 333.988281 609.125 332.074219 603.164062 332.046875 602.75 C 332.023438 602.335938 406.863281 602 498.363281 602 L 664.726562 602 L 659.226562 615.503906 M 646 644.074219 C 646 645.878906 638.441406 658.078125 632.726562 665.5 L 627.335938 672.5 L 365.605469 672.5 L 356.800781 658.578125 C 351.960938 650.925781 348 644.289062 348 643.828125 C 348 643.371094 415.050781 643 497 643 C 602.640625 643 646 643.3125 646 644.074219 M 608.605469 693.25 C 604.394531 697.789062 597.925781 704.949219 594.226562 709.164062 L 587.5 716.832031 L 495.265625 716.914062 L 403.039062 717 L 396.113281 710.46875 C 390.09375 704.792969 378.070312 690.621094 375.699219 686.421875 C 375.011719 685.199219 391.65625 685 495.578125 685 L 616.257812 685 L 608.605469 693.25 M 587.347656 738.15625 C 587.703125 744.84375 588 752.71875 588 755.65625 L 588 761 L 502.109375 761 C 424.707031 761 416.15625 760.84375 415.609375 759.417969 C 415.273438 758.546875 414.988281 754.609375 414.980469 750.667969 C 414.960938 743.839844 413.578125 731.492188 412.410156 727.75 C 411.894531 726.09375 416.488281 726 499.28125 726 L 586.691406 726 L 587.347656 738.15625 M 588.34375 771.75 C 589.179688 776.984375 589.296875 801.136719 588.492188 803.191406 C 587.375 806.050781 583.75 807.738281 569.871094 811.863281 C 515.207031 828.109375 477.460938 828.667969 428.960938 813.941406 C 413.949219 809.382812 413.457031 808.027344 415.648438 777.152344 L 416.300781 768 L 587.746094 768 L 588.34375 771.75 "/>
</g>
</svg>
