<svg height="600" viewBox="0 0 600 600" width="600" xmlns="http://www.w3.org/2000/svg"
    xmlns:xlink="http://www.w3.org/1999/xlink">
    <clipPath id="a">
        <path d="m0 0h600v600h-600z" />
    </clipPath>
    <g clip-path="url(#a)">
        <path
            d="m151.94 391.69s-67.91-100.3-67.64-105.63c.59-11.87 96.13-113.34 113.93-122.24 17.8-8.91 60.53-8.91 89.01-16.03 28.49-7.12 49.85-16.02 58.75-3.56s-7.12 72.99-28.48 83.67c-36.35 18.18-65.87 16.03-65.87 16.03l-8.9 10.68s54.62 55.76 44.5 97.91c-10.68 44.51-39.17 90.79-106.81 108.6-22.38 5.89-28.49-69.43-28.49-69.43zm152.33-132.51c-3.69-.87-6.82 2.8-5.35 6.29 9.89 23.34 31.84 91.26-11.68 158.26-37.38 57.56-97.91 58.75-97.91 58.75l14.83 70.02h122.84l10.81-62.37c.79-4.57 7.03-5.41 8.94-1.17 5.15 11.43 11.64 31.75 13.21 63.54h83.04s-14.49-84.26-9.18-119.87c4.15-27.89 56.96-84.86 56.96-84.86l-20.17-49.25zm-172.46-70.62-11.91-81.71s48.38-46.93 69.43-53.41c15.43-4.75 33.82 8.9 33.82 8.9l3.56 70.02s-30.26 3.56-40.35 8.91c-15.62 8.27-54.55 47.29-54.55 47.29zm126.95-60.94 1.19-60.53s40.35-19 56.37-19.58c16.02-.59 39.76 28.48 39.76 28.48s-4.81 35.61-13.06 37.39c-8.24 1.78-84.26 14.24-84.26 14.24zm126.4-32.64s-33.84 101-37.39 141.83c-1.19 13.64 56.97 24.92 60.53 16.02s39.76-126.4 37.98-140.64-43.92-25.52-61.12-17.21zm77.14 59.34s-37.98 105.04-32.64 110.97c10.73 11.92 49.25 18.4 59.93-1.19 10.69-19.58 26.12-64.09 26.12-74.77s-8.31-30.26-15.43-33.82c-7.96-3.98-27.3-5.94-37.98-1.19z"
            fill="#2c2e35" />
    </g>
</svg>