<svg id="svg" xmlns="http://www.w3.org/2000/svg" xmlns:xlink="http://www.w3.org/1999/xlink" width="400" height="400" viewBox="0, 0, 400,400"><g id="svgg"><path id="path0" d="M208.284 2.739 C 202.698 3.667,187.374 9.127,175.094 14.565 C 172.618 15.661,170.086 16.769,169.467 17.027 L 168.342 17.495 168.340 20.076 C 168.339 21.495,168.130 31.365,167.877 42.011 C 167.389 62.519,167.436 64.816,168.345 64.816 C 169.325 64.816,201.154 59.503,217.688 56.580 L 233.876 53.718 234.892 52.740 C 238.176 49.583,242.426 36.026,243.448 25.447 L 243.584 24.038 237.246 17.783 C 223.881 4.593,217.399 1.226,208.284 2.739 M115.379 6.601 C 109.520 7.421,100.286 13.082,85.856 24.703 C 73.897 34.334,59.726 47.416,59.266 49.251 C 59.075 50.012,62.825 76.705,66.396 100.009 L 68.271 112.246 72.470 108.443 C 74.780 106.350,79.032 102.393,81.920 99.648 C 105.789 76.967,111.235 73.842,133.202 70.230 C 138.218 69.405,142.382 68.671,142.455 68.598 C 142.906 68.147,139.745 15.437,139.182 14.014 C 137.680 10.216,122.758 5.570,115.379 6.601 M272.329 37.526 C 266.261 38.469,266.505 38.063,260.470 57.314 C 246.209 102.805,235.651 145.584,237.180 151.679 C 238.678 157.645,257.154 164.461,273.818 165.196 C 283.981 165.645,283.867 165.765,289.109 148.987 C 306.042 94.786,315.793 56.058,313.742 51.150 C 310.374 43.089,286.680 35.294,272.329 37.526 M216.954 73.798 C 215.386 74.100,208.770 75.706,202.251 77.368 C 182.866 82.310,182.116 82.451,160.697 85.237 C 132.058 88.961,125.102 90.436,118.789 94.125 C 104.231 102.630,39.354 171.867,31.480 187.302 C 30.512 189.200,31.664 191.594,39.613 204.194 C 46.900 215.746,62.527 239.640,74.844 258.065 C 81.178 267.538,83.630 271.447,83.788 272.318 C 83.908 272.978,84.490 277.029,85.081 281.320 C 89.068 310.231,95.826 325.881,104.322 325.881 C 108.619 325.881,122.707 320.858,132.845 315.712 C 160.626 301.610,181.110 275.627,188.863 244.658 C 194.399 222.547,185.248 199.097,159.291 168.874 C 157.172 166.407,155.440 164.299,155.442 164.190 C 155.444 164.081,156.831 162.303,158.525 160.240 L 161.603 156.489 163.397 156.296 C 164.384 156.191,167.284 155.941,169.842 155.742 C 186.509 154.446,207.497 147.962,216.268 141.399 C 229.661 131.377,242.309 91.353,236.011 78.924 C 233.420 73.811,226.525 71.957,216.954 73.798 M332.889 84.166 C 330.373 84.551,326.860 85.343,326.626 85.577 C 326.330 85.873,317.305 111.927,314.224 121.380 C 305.011 149.653,300.415 166.471,300.890 170.173 C 302.279 181.011,332.169 185.414,343.963 176.518 C 351.528 170.813,369.539 121.726,368.158 110.578 C 367.041 101.562,361.637 90.343,357.003 87.417 C 352.261 84.424,341.060 82.913,332.889 84.166 M199.531 168.968 C 198.497 170.420,198.848 172.604,201.149 179.050 C 228.033 254.366,188.583 332.212,118.681 341.784 C 116.042 342.145,113.780 342.504,113.655 342.581 C 113.254 342.829,113.389 343.601,115.847 355.165 C 118.120 365.856,124.531 396.663,124.531 396.895 C 124.531 396.953,146.235 396.967,172.761 396.925 L 220.991 396.849 221.506 393.998 C 221.790 392.431,223.389 383.255,225.059 373.608 C 229.075 350.411,229.742 347.292,230.980 345.911 C 235.711 340.637,243.371 362.862,245.898 389.197 C 246.160 391.920,246.451 394.790,246.546 395.574 L 246.718 396.999 279.239 396.999 C 305.127 396.999,311.732 396.923,311.625 396.624 C 311.316 395.764,309.590 385.310,308.765 379.307 C 304.364 347.263,302.635 311.139,305.054 301.762 C 308.489 288.442,320.335 270.380,342.961 243.961 C 349.064 236.834,348.855 237.409,347.110 232.558 C 345.934 229.290,333.428 198.910,333.125 198.585 C 333.015 198.467,318.073 194.864,299.921 190.578 C 281.769 186.291,258.612 180.808,248.462 178.393 C 205.421 168.150,200.754 167.252,199.531 168.968 " stroke="none" fill="#000000" fill-rule="evenodd"></path></g></svg>