<svg height="400" viewBox="0 0 400 400" width="400" xmlns="http://www.w3.org/2000/svg">
    <path
        d="m201.608 4.006c-6.478 1.854-19.85 6.996-28.999 11.151l-4.39 1.994-.455 23.857c-.25 13.122-.374 23.925-.276 24.008.201.17 17.869-2.723 47.157-7.72 13.906-2.373 20.021-3.685 20.93-4.491 2.791-2.475 7.044-15.742 8.134-25.379l.426-3.767-6.567-6.562c-14.945-14.931-21.366-17.268-35.96-13.091m-89.152 2.688c-9.397 3.277-36.099 23.57-50.747 38.568l-3.29 3.369 4.51 31.184c2.48 17.152 4.641 31.598 4.802 32.102.188.593 2.353-1.06 6.114-4.669 31.618-30.342 36.961-33.65 60.006-37.151 4.501-.683 8.361-1.42 8.577-1.636.455-.455-2.231-54.269-2.75-55.109-3.021-4.889-20.228-9.097-27.222-6.658m161.211 30.256c-.367.151-1.74.453-3.051.671-3.977.661-4.326 1.338-9.967 19.379-18.286 58.473-25.895 92.208-21.934 97.244 6.002 7.63 39.412 14.93 45.201 9.877 3.371-2.943 26.647-82.942 30.409-104.511 1.584-9.086-.522-12.599-10.325-17.224-8.16-3.85-26.287-7.098-30.333-5.436m-59 37c-3.117.695-10.119 2.484-15.56 3.976-12.624 3.461-20.717 4.965-38.107 7.081-24.04 2.924-35.232 5.079-40.646 7.826-14.994 7.609-89.687 87.385-89.687 95.792 0 2.994 12.275 22.759 39.54 63.665l13.302 19.957.582 5.376c3.223 29.772 10.989 49.061 19.742 49.034 9.036-.028 34.807-11.698 46.643-21.122 24.86-19.793 43.323-55.992 40.198-78.813-2.313-16.896-14.691-39.814-31.546-58.412l-3.646-4.023 3.425-4.039 3.426-4.039 8.334-.406c19.597-.956 43.032-9.432 50.242-18.174 12.204-14.794 21.651-51.657 15.387-60.037-3.424-4.579-11.396-5.922-21.629-3.642m115.822 10.286c-3.964 1.119-2.65-1.476-10.006 19.764-14.545 41.997-20.928 64.697-19.235 68.412 4.554 9.996 34.481 12.479 44.288 3.674 6.649-5.969 23.797-51.426 23.797-63.082 0-11.411-7.687-25.357-15.403-27.946-4.77-1.6-18.928-2.097-23.441-.822m-129.822 83.973c-2.37 1.203-2.098 3.727 1.524 14.149 25.454 73.233-14.889 150.579-83.331 159.764-5.755.772-6.126.916-5.794 2.239.196.777 2.831 13.089 5.856 27.359l5.501 25.947 48.409.171c45.68.161 48.428.105 48.757-1 .192-.644 2.186-11.819 4.432-24.832 4.355-25.234 4.439-25.514 7.587-25.207 4.806.47 13.059 32.057 13.059 49.983 0 1.163 1.48 1.218 32.666 1.218 27.743 0 32.667-.142 32.667-.945 0-.519-.74-5.994-1.645-12.166-6.402-43.675-7.594-76.89-3.152-87.773 5.226-12.799 18.393-31.656 36.912-52.861l5.89-6.745-7.851-19.192c-4.318-10.555-8.294-19.435-8.836-19.733-.541-.298-29.785-7.315-64.985-15.592-35.2-8.278-64.45-15.181-65-15.34-.55-.16-1.75.09-2.666.556"
        fill-rule="evenodd" />
</svg>