<svg id="svg" xmlns="http://www.w3.org/2000/svg" xmlns:xlink="http://www.w3.org/1999/xlink" width="400" height="400" viewBox="0, 0, 400,400" version="1.1"><g id="svgg"><path id="path0" d="M196.099 101.914 C 172.141 102.405,157.871 104.333,144.186 108.928 L 142.386 109.532 153.788 109.347 C 176.169 108.984,188.613 110.969,200.227 116.757 C 216.388 124.810,227.222 142.642,229.998 165.759 C 231.018 174.251,231.131 177.658,231.274 203.976 L 231.419 230.758 218.110 230.790 C 210.790 230.808,204.009 230.909,203.041 231.015 L 201.280 231.208 217.294 245.173 C 226.102 252.854,241.140 265.870,250.713 274.097 C 260.285 282.324,268.387 289.298,268.717 289.596 C 269.370 290.184,282.438 279.176,322.359 244.411 L 337.520 231.208 335.527 231.020 C 334.430 230.917,327.558 230.815,320.255 230.795 L 306.977 230.758 306.970 209.827 C 306.953 160.112,305.835 149.270,299.326 135.702 C 286.744 109.474,259.665 100.611,196.099 101.914 M131.749 119.941 L 127.714 120.048 126.065 121.314 C 114.556 130.152,107.389 144.223,105.169 162.341 C 104.331 169.181,104.165 179.127,103.975 233.983 L 103.786 288.372 134.532 288.372 L 165.278 288.372 167.471 287.439 C 172.607 285.254,176.039 282.019,178.145 277.381 L 178.945 275.619 179.169 256.864 C 179.292 246.549,179.414 229.332,179.440 218.605 C 179.499 194.044,179.837 180.953,180.486 178.107 C 184.110 162.217,193.537 153.065,210.953 148.528 C 215.610 147.314,215.455 147.486,214.113 145.032 C 206.327 130.787,195.161 123.502,176.444 120.455 C 173.344 119.951,144.099 119.614,131.749 119.941 " stroke="none" fill="#fbfbfb" fill-rule="evenodd"></path><path id="path1" d="M197.533 1.592 C 195.553 2.692,52.600 145.237,14.856 183.746 L 1.376 197.500 1.257 199.361 C 1.179 200.580,1.292 201.580,1.584 202.261 C 2.381 204.121,111.847 313.922,188.297 389.545 C 201.104 402.213,198.225 402.652,215.836 385.350 C 278.660 323.627,397.870 203.770,398.467 201.729 C 399.486 198.242,399.934 198.842,384.787 183.393 C 345.983 143.815,203.970 2.318,202.319 1.589 C 201.252 1.118,198.383 1.119,197.533 1.592 M229.557 102.352 C 274.210 104.553,296.022 117.928,303.655 147.787 C 306.279 158.049,306.956 170.732,306.970 209.827 L 306.977 230.758 320.255 230.795 C 327.558 230.815,334.430 230.917,335.527 231.020 L 337.520 231.208 322.359 244.411 C 282.438 279.176,269.370 290.184,268.717 289.596 C 268.387 289.298,260.285 282.324,250.713 274.097 C 241.140 265.870,226.102 252.854,217.294 245.173 L 201.280 231.208 203.041 231.015 C 204.009 230.909,210.790 230.808,218.110 230.790 L 231.419 230.758 231.274 203.976 C 231.131 177.658,231.018 174.251,229.998 165.759 C 227.222 142.642,216.388 124.810,200.227 116.757 C 188.613 110.969,176.169 108.984,153.788 109.347 L 142.386 109.532 144.186 108.928 C 162.495 102.780,192.058 100.503,229.557 102.352 M176.444 120.455 C 195.161 123.502,206.327 130.787,214.113 145.032 C 215.455 147.486,215.610 147.314,210.953 148.528 C 193.537 153.065,184.110 162.217,180.486 178.107 C 179.837 180.953,179.499 194.044,179.440 218.605 C 179.414 229.332,179.292 246.549,179.169 256.864 L 178.945 275.619 178.145 277.381 C 176.039 282.019,172.607 285.254,167.471 287.439 L 165.278 288.372 134.532 288.372 L 103.786 288.372 103.975 233.983 C 104.165 179.127,104.331 169.181,105.169 162.341 C 107.389 144.223,114.556 130.152,126.065 121.314 L 127.714 120.048 131.749 119.941 C 144.099 119.614,173.344 119.951,176.444 120.455 " stroke="none" fill="#3c8444" fill-rule="evenodd"></path></g></svg>