<svg height="580" viewBox="0 0 580 580" width="580" xmlns="http://www.w3.org/2000/svg" xmlns:xlink="http://www.w3.org/1999/xlink"><clipPath id="a"><path d="m-10-10h600v600h-600z"/></clipPath><clipPath id="b"><path d="m290 574.35c-3.92 0-7.61-1.53-10.38-4.3l-269.67-269.67c-2.77-2.77-4.3-6.46-4.3-10.38s1.53-7.61 4.3-10.38l269.67-269.67c2.77-2.77 6.46-4.3 10.38-4.3s7.61 1.53 10.38 4.3l269.67 269.67c2.77 2.77 4.3 6.46 4.3 10.38s-1.53 7.61-4.3 10.38l-269.67 269.67c-2.77 2.77-6.46 4.3-10.38 4.3z"/></clipPath><g clip-path="url(#a)"><path d="m290 574.35c-3.92 0-7.61-1.53-10.38-4.3l-269.67-269.67c-2.77-2.77-4.3-6.46-4.3-10.38s1.53-7.61 4.3-10.38l269.67-269.67c2.77-2.77 6.46-4.3 10.38-4.3s7.61 1.53 10.38 4.3l269.67 269.67c2.77 2.77 4.3 6.46 4.3 10.38s-1.53 7.61-4.3 10.38l-269.67 269.67c-2.77 2.77-6.46 4.3-10.38 4.3z" fill="#843628"/><g fill="#fff"><path d="m303.92 6.42 269.66 269.66c7.69 7.69 7.69 20.15 0 27.84l-269.66 269.66c-3.85 3.85-8.88 5.77-13.92 5.77s-10.07-1.92-13.92-5.77l-269.66-269.66c-7.69-7.69-7.69-20.15 0-27.84l269.66-269.66c3.85-3.85 8.88-5.77 13.92-5.77s10.07 1.92 13.92 5.77zm-20.77 7.07-269.66 269.66c-3.78 3.78-3.78 9.92 0 13.7l269.66 269.66c1.83 1.83 4.26 2.84 6.85 2.84s5.02-1.01 6.85-2.84l269.66-269.66c3.78-3.78 3.78-9.92 0-13.7l-269.66-269.66c-1.83-1.83-4.26-2.84-6.85-2.84s-5.02 1.01-6.85 2.84z" fill-rule="evenodd"/><path d="m323.49 272.52c-1.99 20.45 6.27 54.7 7.06 57.59.64 2.47.48 15.48.15 27.61-.11 3.77-.24 7.45-.36 10.7 14.98 6.44 33.65 4.6 48.63 15.86 12.07 9.08 19.86 28.19 22.42 35.23.14.4.17.82.09 1.22-.19.3-.4.62-.61.92-.74.36-1.6.73-2.55 1.12-1.23.52-2.62 1.04-4.18 1.59-17.4 6.2-54.62 14.85-97.92 11.96-29.74-21.3-45.73-32.87-47.96-34.69-9.91-14.61-7.7-31.02-23.12-39.43-4.05-2.22-9.97-2.12-16.88-.29-6.8-6.05-17.11-20.46-23.72-30.16-2.52-3.7-4.5-6.71-5.55-8.33-.52-.83-.65-1.86-.37-2.75 1.07-3.17 3.9-10.93 8.34-18.04 1.81-2.92 6.67-9.02 12.49-16.07 12.46-15.08 29.34-34.49 30.43-36.33 6.12-10.49 22.26-65.23 22.77-67.83.33-1.83-.64-18.51-1.24-27.98-.1-1.64-.19-3.05-.27-4.14-.08-1.34.95-2.48 2.3-2.57 9.96-.63 20.86.47 32.71 3.31.28-4 .66-7.39 1.13-10.2.19-1.25 1.51-1.97 2.72-1.63 35.17 10.22 67.29 28.86 84.41 50.4.98 1.22.8 3.01-.37 4.07-4.92 4.51-12.25 13.08-19.76 22.99l-26.09-14.46-4.34-2.41c-1.67-.91-3.52-1.25-5.3-1.01-2.63.35-5.09 1.89-6.48 4.39-2.29 4.15-.78 9.47 3.38 11.77l5.31 2.94 23.32 12.95c-5.99 8.76-11.47 17.59-15.21 24.88"/><g clip-path="url(#b)"><path d="m5.56 450.93 140.07-76.83c8.2-4.5 11.76 1.85 5.12 9.11l-113.47 124.14c-4.54 4.97-10.97 6.76-12.78 3.55l-26.6-47.31c-1.81-3.21 2.05-9.58 7.66-12.66z"/><path d="m-27.01 281.56 163.56 11.66c9.57.68 9.82 5.91.36 7.5l-161.69 27.31c-6.48 1.09-13.17-.48-13.29-3.12l-1.88-38.97c-.12-2.64 6.38-4.84 12.94-4.38z"/><path d="m70.43 145.92 111 87.58c6.5 5.12 3.75 9.15-3.95 5.79l-131.47-57.52c-5.27-2.31-9.2-6.71-7.81-8.75l20.48-30.06c1.39-2.04 7.31-.55 11.75 2.96z"/><path d="m590.35 290-204.21-2.89c-11.95-.16-12.54-6.43-.85-9l200.2-26.2c8-1.75 16.41-.32 16.71 2.86l4.01 29.07c.3 3.18-7.68 6.27-15.86 6.16z"/><path d="m506.73 157.66-98.16 54.91c-5.75 3.22-8.72-.54-4.27-5.39l76-82.91c3.05-3.32 7.65-4.76 9.16-2.86l22.15 28c1.51 1.9-.95 6.05-4.88 8.25z"/><path d="m526.58 416.21-118.67-59.39c-6.95-3.47-5.2-7.24 2.51-5.41l131.69 31.32c5.28 1.25 9.73 4.45 8.85 6.36l-13.03 28.08c-.88 1.9-6.6 1.42-11.35-.96z"/></g></g><path d="m308.94 312.62-31.88-31.86-44.78 55.47-21.78-34.9-33.63 19.56-2.17-29.65 36.16-21.18 21.47 33.26 42.67-57.23 32.87 25.24 34.95-36.59 5.2 52.85z" fill="#843628"/></g></svg>