<svg viewBox="0 0 578.7 578.7" xmlns="http://www.w3.org/2000/svg" xmlns:xlink="http://www.w3.org/1999/xlink"><clipPath id="a" transform="translate(-10.65 -10.65)"><path d="m0 0h600v600h-600z"/></clipPath><g clip-path="url(#a)"><path d="m300 584.35a14.59 14.59 0 0 1 -10.38-4.3l-269.62-269.67a14.7 14.7 0 0 1 0-20.76l269.62-269.62a14.68 14.68 0 0 1 20.76 0l269.67 269.62a14.68 14.68 0 0 1 0 20.76l-269.67 269.67a14.59 14.59 0 0 1 -10.38 4.3" fill="#5b9977" transform="translate(-10.65 -10.65)"/><path d="m300 20.65a9.62 9.62 0 0 1 6.85 2.84l269.66 269.66a9.69 9.69 0 0 1 0 13.7l-269.66 269.66a9.68 9.68 0 0 1 -13.7 0l-269.66-269.66a9.69 9.69 0 0 1 0-13.7l269.66-269.66a9.62 9.62 0 0 1 6.85-2.84m0-10a19.61 19.61 0 0 0 -13.92 5.77l-269.66 269.66a19.68 19.68 0 0 0 0 27.84l269.66 269.66a19.68 19.68 0 0 0 27.84 0l269.66-269.66a19.68 19.68 0 0 0 0-27.84l-269.66-269.66a19.61 19.61 0 0 0 -13.92-5.77" fill="#fff" transform="translate(-10.65 -10.65)"/><path d="m300 455.11a40.56 40.56 0 0 1 -21.94-6.43c-47.12-30.17-79.88-58.23-103.08-88.3-20.65-26.76-25-52.88-25-70.08a103.49 103.49 0 0 1 150-92.37 103.49 103.49 0 0 1 150.02 92.37c0 17.2-4.33 43.32-25 70.07-23.21 30.07-56 58.12-103.06 88.29a40.61 40.61 0 0 1 -21.94 6.45z" style="fill:none;stroke:#fff;stroke-linecap:round;stroke-miterlimit:10;stroke-width:21.05;stroke-dasharray:66.32 52.63" transform="translate(-10.65 -10.65)"/><path d="m344.26 228.59a63 63 0 0 0 -44.26 18.08 63.23 63.23 0 0 0 -107.5 45.16c0 11.27 2.94 27.7 16.44 45.2 22.5 29.15 54.62 53.72 89.09 75.8a3.65 3.65 0 0 0 3.94 0c34.48-22.08 66.6-46.65 89.1-75.8 13.5-17.5 16.43-33.93 16.43-45.2a63.24 63.24 0 0 0 -63.24-63.24" fill="#fff" transform="translate(-10.65 -10.65)"/></g></svg>