<svg height="580" viewBox="0 0 580 580" width="580" xmlns="http://www.w3.org/2000/svg" xmlns:xlink="http://www.w3.org/1999/xlink"><clipPath id="a"><path d="m-10-10h600v600h-600z"/></clipPath><g clip-path="url(#a)"><path d="m290 574.35c-3.92 0-7.61-1.53-10.38-4.3l-269.67-269.67c-5.72-5.72-5.72-15.04 0-20.76l269.67-269.67c2.77-2.77 6.46-4.3 10.38-4.3s7.61 1.53 10.38 4.3l269.67 269.67c2.77 2.77 4.3 6.46 4.3 10.38s-1.53 7.61-4.3 10.38l-269.67 269.67c-2.77 2.77-6.46 4.3-10.38 4.3z" fill="#539f77"/><path d="m303.92 6.42 269.66 269.66c7.69 7.69 7.69 20.15 0 27.84l-269.66 269.66c-3.85 3.85-8.88 5.77-13.92 5.77s-10.07-1.92-13.92-5.77l-269.66-269.66c-7.69-7.69-7.69-20.15 0-27.84l269.66-269.66c3.85-3.85 8.88-5.77 13.92-5.77s10.07 1.92 13.92 5.77zm-20.77 7.07-269.66 269.66c-3.78 3.78-3.78 9.92 0 13.7l269.66 269.66c1.83 1.83 4.26 2.84 6.85 2.84s5.02-1.01 6.85-2.84l269.66-269.66c3.78-3.78 3.78-9.92 0-13.7l-269.66-269.66c-1.83-1.83-4.26-2.84-6.85-2.84s-5.02 1.01-6.85 2.84z" fill="#fff" fill-rule="evenodd"/><path d="m290 445.11c-7.63 0-15.26-2.14-21.94-6.43-47.12-30.17-79.88-58.23-103.08-88.3-20.65-26.76-24.98-52.88-24.98-70.08 0-57.02 46.39-103.41 103.42-103.41 16.43 0 32.3 3.82 46.58 11.04 14.28-7.22 30.16-11.04 46.59-11.04 57.02 0 103.41 46.39 103.41 103.41 0 17.2-4.33 43.32-24.96 70.07-23.21 30.07-55.96 58.12-103.06 88.29-6.69 4.3-14.33 6.45-21.98 6.45z" fill="none" stroke="#fff" stroke-dasharray="63 63" stroke-linecap="round" stroke-width="21.053"/><path d="m334.26 218.59c-17.24 0-32.83 6.88-44.26 18.08-11.42-11.2-27.02-18.08-44.26-18.08-34.93 0-63.24 28.31-63.24 63.24 0 11.27 2.94 27.7 16.44 45.2 22.5 29.15 54.62 53.72 89.09 75.8 1.2.77 2.75.77 3.94 0 34.48-22.08 66.6-46.65 89.1-75.8 13.5-17.5 16.43-33.93 16.43-45.2 0-34.93-28.31-63.24-63.24-63.24z" fill="#fff"/></g></svg>