<svg height="300" viewBox="0 0 300 300" width="300" xmlns="http://www.w3.org/2000/svg"><path d="m125.9 11.3c34.1 19.7 62 46.4 84.7 78.3 25.9 36.4 36.8 76.6 28.9 121.1-5.2 29.3-17.8 54.2-42.9 71.6-30.3 21-74.1 20.9-102.1-1.1-25.9-20.5-36.1-48.7-36.5-80.9-.3-26.6 11.5-48.2 28.1-68.1 9.4-11.3 18.7-23.3 24.9-36.5 14.2-30.4 16.9-61.4-2-92.7 5.7 2.7 11.5 5.2 16.9 8.3zm-21.5 132.5c-9.7 10.3-17.1 22.2-19.6 36.6q-.6 3-.5 6c.1 8 4.9 12.2 12.4 10.2 4.5-1.1 8.6-3.2 12.1-6.2 18.9-17 27.4-60.3 16.3-85-2.2 16.4-10.6 27.8-20.7 38.4z" fill="#da2128" fill-rule="evenodd"/></svg>