<svg height="1000" viewBox="0 0 1000 1642" width="1000" xmlns="http://www.w3.org/2000/svg"><path d="m277.578125 20.351562c92.925781 153.78125 96.992187 345.355469 10.679687 502.9375-36.835937 71.582032-82.503906 138.257813-135.945312 198.472657-94.386719 100.5-148.585938 232.128906-152.3125 369.914062-7.1875 169.5 66.496094 332.359375 198.578125 438.917969 164.878906 119.058594 386.859375 121.625 554.445313 6.402344 128.636718-91.128906 213.078124-232.050782 232.742187-388.410156 42.351563-231.578126-14.453125-470.292969-156.585937-658.019532-120.78125-173.90625-277.898438-319.535156-460.496094-426.824218-29.183594-15.648438-60.5-28.453126-91.105469-43.390626zm86.835937 555.582032c55.140626 158.835937 21.515626 335-88.257812 462.390625-19.101562 15.820312-41.457031 27.238281-65.480469 33.433593-41.28125 10.671876-66.902343-12.09375-71.175781-55.484374-1.40625-10.863282-1.40625-21.863282 0-32.726563 14.902344-75.195313 51.8125-144.273437 106.050781-198.472656 62.175781-54.25 104.082031-127.984375 118.863281-209.140625zm0 0"/></svg>