<svg xmlns="http://www.w3.org/2000/svg" width="828" height="828" viewBox="0 0 828 828">
    <path
        d="M743 36.6C743 16.4 726.6 0 706.4 0H179.2c-51.5 0-93.1 41.8-93.1 93.3v667.6c0 37 29.9 67.1 67 67.1h522.8c37 0 67.1-30.1 67.1-67.1V230.7c0-37-30.1-67.1-67.1-67.1H435.8c-1.1 0-1.4 1.5-.4 1.9 17.1 7.3 18.6 27.3 18.6 27.3v291.6c0 3.2-3.7 4.8-6 2.5l-89.3-89.3c-3.1-3.2-8.1-3.2-11.3 0l-88.6 88.6c-2.2 2.2-6.1.6-6.1-2.6v-288c0-13.2-6.1-21.2-12.9-25.9-5.8-4.1-13-6.1-20.2-6.1h-18.1c-24.9 0-45.2-20.2-45.2-45.3 0-24.9 20.3-45.1 45.2-45.1h504.9c20.2 0 36.6-16.4 36.6-36.6"
        style="fill:#000000" />
</svg>