<svg viewBox="0 0 10.52 10.52" xmlns="http://www.w3.org/2000/svg">
    <g fill="#000">
        <path
            d="m1.63 1.76 7.13 7.14a.23.23 0 0 0 .32 0l.1-.1a.67.67 0 0 0 0-.93l-6.52-6.5a.68.68 0 0 0 -.93 0l-.1.1a.21.21 0 0 0 0 .31" />
        <path
            d="m9.66 2.9a.14.14 0 0 0 .23-.17 5.12 5.12 0 0 0 -.89-1.2 5.38 5.38 0 0 0 -1.2-.9.15.15 0 0 0 -.18.24z" />
        <path
            d="m2.9.55a.25.25 0 0 0 -.06.39l6.74 6.75a.24.24 0 0 0 .42-.06.87.87 0 0 0 -.16-1l-5.94-5.92a.87.87 0 0 0 -1-.16" />
        <path d="m1.65 2.38a.56.56 0 0 0 -.86.1 5.27 5.27 0 0 0 7.26 7.25.54.54 0 0 0 .1-.85z" />
        <path
            d="m5.67 0a.11.11 0 0 0 -.09.19l4.76 4.75a.1.1 0 0 0 .18-.08 1.37 1.37 0 0 0 -.41-.86l-3.54-3.59a1.45 1.45 0 0 0 -.9-.41" />
        <path
            d="m4.22.09a.15.15 0 0 0 -.07.26l6 6a.15.15 0 0 0 .25-.08 1.05 1.05 0 0 0 -.29-1l-5-5a1.06 1.06 0 0 0 -1-.29" />
    </g>
</svg>