<svg id="svg" version="1.1" xmlns="http://www.w3.org/2000/svg" xmlns:xlink="http://www.w3.org/1999/xlink" width="400" height="400" viewBox="0, 0, 400,400"><g id="svgg"><path id="path0" d="M194.247 6.585 C 182.996 11.506,157.507 16.190,102.000 23.539 C 30.492 33.006,15.747 36.006,13.632 41.516 C 13.294 42.396,14.096 48.153,15.414 54.308 C 23.288 91.081,22.373 115.282,10.960 172.167 C -5.608 254.750,-3.201 276.979,25.412 305.584 C 44.464 324.630,63.227 335.186,111.500 354.020 C 160.707 373.218,165.529 375.184,175.065 379.940 C 180.326 382.563,187.746 386.800,191.555 389.355 C 200.052 395.056,199.516 395.063,208.295 389.138 C 220.841 380.673,233.583 374.875,269.344 361.360 C 397.288 313.007,413.119 288.582,389.492 176.000 C 377.522 118.962,376.352 94.936,383.685 56.754 C 386.755 40.767,386.414 38.781,380.299 37.039 C 369.134 33.859,342.653 29.465,301.866 24.026 C 239.994 15.775,223.573 12.911,209.350 7.891 C 200.211 4.665,198.899 4.551,194.247 6.585 " stroke="none" fill="#000000" fill-rule="evenodd"></path></g></svg>