<svg height="400" viewBox="0 0 400 400" width="400" xmlns="http://www.w3.org/2000/svg"><path d="m194.69 8.132c-14.418 5.766-37.583 9.982-92.69 16.871-57.927 7.242-82.261 11.738-85.709 15.836-2.02 2.4-2.046 1.932.898 16.161 7.813 37.77 6.482 64.993-5.918 121-23.85 107.728-5.801 136.1 114.929 180.651 39.773 14.677 57.537 22.926 69.996 32.503l3.863 2.969 1.79-1.79c7.204-7.204 30.916-18.711 62.484-30.322 130.831-48.123 148.618-74.203 124.587-182.678-12.577-56.775-13.989-85.123-6.092-122.333 2.598-12.243 2.662-14.49.472-16.641-3.692-3.629-32.555-8.774-87.967-15.679-50.55-6.299-73.805-10.49-88.525-15.954-2.828-1.05-5.591-2.06-6.141-2.246s-3.24.558-5.977 1.652" fill-rule="evenodd"/></svg>