<svg id="svg" xmlns="http://www.w3.org/2000/svg" xmlns:xlink="http://www.w3.org/1999/xlink" width="400" height="400" viewBox="0, 0, 400,400" version="1.1"><g id="svgg"><path id="path0" d="M197.749 1.702 C 170.050 5.293,151.976 34.949,161.662 60.915 C 173.016 91.352,211.273 100.326,234.243 77.941 C 260.281 52.564,248.094 10.224,212.453 2.238 C 210.242 1.742,200.248 1.378,197.749 1.702 M189.497 117.622 C 147.001 119.416,125.556 128.076,111.986 148.921 C 103.175 162.455,94.045 194.716,89.121 229.707 C 87.511 241.148,83.783 246.199,72.957 251.602 C 52.001 262.060,41.527 270.156,36.839 279.520 C 26.959 299.254,38.847 314.917,58.898 308.583 C 61.025 307.911,127.833 281.527,131.389 279.954 C 135.640 278.074,135.320 279.611,141.181 233.008 C 144.516 206.492,145.119 202.971,146.806 200.157 C 149.850 195.080,155.811 195.530,158.643 201.050 C 160.297 204.275,160.207 205.288,154.270 250.263 C 152.319 265.034,150.775 277.179,150.838 277.251 C 151.001 277.441,155.504 278.048,163.091 278.904 C 195.679 282.579,223.777 282.262,258.890 277.824 L 261.665 277.473 261.665 276.587 C 261.665 276.101,259.697 260.762,257.291 242.502 C 252.405 205.415,252.392 205.262,254.000 201.741 C 256.668 195.899,263.350 195.133,266.072 200.358 C 267.753 203.584,269.056 211.924,274.868 256.683 C 277.713 278.589,277.639 278.319,281.283 280.174 C 283.447 281.275,347.549 306.594,352.288 308.219 C 370.811 314.571,383.361 305.492,378.271 289.422 C 375.665 281.196,373.350 279.158,345.871 260.915 C 334.513 253.375,324.699 246.734,324.062 246.159 C 320.873 243.278,319.578 239.773,318.687 231.620 C 316.000 207.021,310.415 184.291,301.617 162.152 C 294.137 143.330,285.529 133.531,270.900 127.186 C 256.571 120.972,217.867 116.424,189.497 117.622 M262.566 292.448 C 242.613 295.953,210.435 297.410,186.797 295.879 C 177.813 295.297,166.710 294.339,158.740 293.457 C 142.699 291.682,143.954 291.421,117.629 302.011 C 91.506 312.519,62.842 323.747,60.172 324.518 C 51.824 326.928,44.694 326.511,37.631 323.201 C 35.495 322.200,34.703 321.980,33.232 321.980 L 31.439 321.980 29.040 324.306 C 9.924 342.841,10.616 374.016,30.458 388.153 C 44.709 398.308,72.141 401.415,95.540 395.525 C 105.869 392.925,190.406 364.687,196.983 361.640 L 198.768 360.814 194.883 358.384 C 191.274 356.127,174.221 345.671,170.410 343.379 C 163.333 339.121,162.633 331.161,169.092 328.401 C 173.150 326.668,171.680 325.935,212.753 350.183 C 269.345 383.592,277.034 387.170,305.626 393.393 C 365.361 406.396,398.804 376.698,378.778 328.432 C 376.655 323.316,375.905 322.820,372.215 324.092 C 366.820 325.951,360.181 326.040,354.239 324.333 C 353.083 324.001,334.183 316.706,312.239 308.122 C 290.294 299.538,271.457 292.328,270.378 292.099 C 267.884 291.570,267.455 291.589,262.566 292.448 " stroke="none" fill="#000000" fill-rule="evenodd"></path></g></svg>