<svg xmlns="http://www.w3.org/2000/svg" width="369.548" height="319.083" viewBox="0 0 97.776 84.424">
    <defs>
        <clipPath id="a" clipPathUnits="userSpaceOnUse">
            <path d="M0 300h300V0H0Z" />
        </clipPath>
    </defs>
    <g clip-path="url(#a)" style="fill:#000;fill-opacity:1" transform="matrix(.35278 0 0 -.35278 -4.029 95.129)">
        <g style="fill:#000;fill-opacity:1">
            <path
                d="M0 0c-1.537 29.632-13.804 57.273-34.94 78.411-22.642 22.641-52.748 35.113-84.767 35.113s-62.121-12.472-84.762-35.113c-12.552-12.553-21.97-27.399-27.876-43.593l34.786 35.466 9.642-34.622c14.131 22.859 39.419 38.124 68.21 38.124 38.353 0 70.493-27.083 78.314-63.128l-16.708 4.302 21.265-76.343L18.655-4.804z"
                style="fill:currentColor;fill-opacity:1;fill-rule:nonzero;stroke:none"
                transform="translate(269.926 156.132)" />
        </g>
        <g style="fill:#000;fill-opacity:1">
            <path
                d="m0 0-9.642 34.621C-23.769 11.757-49.062-3.508-77.857-3.508c-38.353 0-70.493 27.083-78.314 63.128l16.706-4.303-21.26 76.345-55.494-56.576 18.655-4.805c1.536-29.634 13.802-57.275 34.94-78.413 22.641-22.645 52.748-35.113 84.767-35.113S-15.736-30.777 6.904-8.132C19.461 4.426 28.89 19.272 34.79 35.471Z"
                style="fill:currentColor;fill-opacity:1;fill-rule:nonzero;stroke:none"
                transform="translate(227.639 73.59)" />
        </g>
    </g>
</svg>