<svg id="svg" version="1.1"
    xmlns="http://www.w3.org/2000/svg"
    xmlns:xlink="http://www.w3.org/1999/xlink" width="400" height="400" viewBox="0, 0, 400,400">
    <g id="svgg">
        <path id="path0" d="M189.663 40.764 C 136.173 44.499,89.261 73.626,61.933 120.068 C 57.791 127.107,49.845 144.061,50.441 144.587 C 50.528 144.664,60.834 134.279,73.343 121.510 C 85.852 108.740,96.241 98.461,96.431 98.667 C 96.620 98.872,99.544 109.023,102.928 121.223 C 106.312 133.423,109.228 143.405,109.407 143.405 C 109.586 143.405,110.456 142.273,111.341 140.889 C 116.187 133.307,125.287 123.402,133.333 116.949 C 186.677 74.169,265.810 91.830,295.926 153.237 C 299.843 161.225,305.201 176.493,304.377 177.318 C 304.289 177.405,299.384 176.220,293.476 174.685 C 287.568 173.149,282.671 172.039,282.594 172.218 C 282.497 172.442,308.440 266.336,310.454 273.051 C 310.596 273.522,383.972 198.676,383.842 198.194 C 383.791 198.008,382.604 197.571,381.204 197.224 C 379.803 196.877,374.403 195.497,369.205 194.157 L 359.752 191.721 359.514 189.746 C 359.383 188.659,359.035 185.396,358.741 182.494 C 350.246 98.634,274.169 34.863,189.663 40.764 M52.338 163.797 C 32.257 184.267,15.827 201.184,15.827 201.390 C 15.827 201.596,21.273 203.156,27.929 204.858 L 40.032 207.951 40.634 214.647 C 46.626 281.199,94.907 337.673,159.952 354.210 C 232.617 372.685,308.066 338.486,341.975 271.703 C 345.509 264.743,349.397 255.712,349.021 255.336 C 348.920 255.235,338.605 265.610,326.099 278.392 C 308.747 296.128,303.291 301.439,303.063 300.816 C 302.899 300.367,299.998 290.038,296.617 277.861 L 290.470 255.723 288.173 259.056 C 242.100 325.937,143.416 320.731,105.136 249.400 C 101.172 242.014,95.444 226.438,95.444 223.045 C 95.444 222.358,96.965 222.635,106.322 225.025 C 112.306 226.553,117.238 227.752,117.283 227.690 C 117.419 227.503,89.352 127.082,89.091 126.821 C 88.958 126.688,72.419 143.327,52.338 163.797 " stroke="none" fill="#ffffff" fill-rule="evenodd"></path>
    </g>
</svg>