<svg xmlns="http://www.w3.org/2000/svg" width="555" height="555" viewBox="0 0 555 555">
    <defs>
        <clipPath id="a" clipPathUnits="userSpaceOnUse">
            <path d="M-23-23h600v600H-23z" />
        </clipPath>
    </defs>
    <g clip-path="url(#a)">
        <path
            d="M516.9 264.7c-3.1-59.2-27.7-114.5-69.9-156.8-45.3-45.3-105.5-70.2-169.6-70.2-64 0-124.2 24.9-169.5 70.2C82.8 133 64 162.7 52.2 195.1l69.5-70.9 19.3 69.2c28.3-45.7 78.9-76.2 136.4-76.2 76.7 0 141 54.1 156.7 126.2l-33.4-8.6 42.5 152.7 111-113.2zm-84.6 165.1L413 360.6c-28.2 45.7-78.8 76.2-136.4 76.2-76.7 0-141-54.1-156.6-126.2l33.4 8.6-42.6-152.7L-.1 279.7l37.3 9.6c3 59.2 27.6 114.5 69.8 156.8 45.3 45.3 105.5 70.2 169.6 70.2 64 0 124.2-24.9 169.5-70.2 25.1-25.1 44-54.8 55.8-87.2z"
            style="fill:#000" />
    </g>
</svg>