<svg height="600" viewBox="0 0 600 600" width="600" xmlns="http://www.w3.org/2000/svg"
    xmlns:xlink="http://www.w3.org/1999/xlink">
    <clipPath id="a">
        <path d="m0 0h600v600h-600z" />
    </clipPath>
    <g clip-path="url(#a)">
        <path
            d="m539.85 287.74c-3.07-59.27-27.61-114.55-69.88-156.83-45.28-45.28-105.49-70.22-169.53-70.22s-124.24 24.94-169.53 70.22c-25.1 25.11-43.94 54.8-55.75 87.19l69.57-70.93 19.29 69.24c28.26-45.72 78.84-76.25 136.42-76.25 76.7 0 140.98 54.17 156.63 126.26l-33.42-8.6 42.53 152.68 110.98-113.16zm-84.57 165.08-19.29-69.24c-28.25 45.73-78.84 76.26-136.43 76.26-76.7 0-140.98-54.17-156.62-126.26l33.41 8.61-42.52-152.69-110.99 113.15 37.31 9.61c3.07 59.27 27.6 114.55 69.88 156.83 45.28 45.29 105.49 70.22 169.53 70.22s124.25-24.93 169.53-70.22c25.11-25.12 43.97-54.81 55.77-87.21z"
            fill="#2c2e35" />
    </g>
</svg>