<svg xmlns="http://www.w3.org/2000/svg" width="1000" height="1000" viewBox="0 0 1000 1000"><style>.a{fill:#fff}</style><path d="M447.2 351.4q-17.9-.1-37.2 1.6c-21.4 27.3-52.4 45.4-86.7 50.5-34.3 5.2-69.3-2.9-97.8-22.7-28.5-19.7-48.4-49.6-55.6-83.5-7.2-34-1.1-69.3 16.9-99 6.1-9.7 13.4-18.7 21.7-26.7 8.4-7.9 17.7-14.7 27.7-20.4 10.1-5.6 20.8-9.9 31.9-12.8 11.2-2.9 22.7-4.4 34.2-4.4 8.5 0 17 .8 25.4 2.5 8.4 1.6 16.7 4 24.6 7.1q12 4.8 22.8 11.7c7.2 4.6 14 9.8 20.2 15.7 17.8-1.5 35.2-2.2 52.1-2.2q18.6-.2 37.2 1 18.7 1.3 37.1 4 18.5 2.7 36.7 6.8 18.2 4.2 36 9.7v-65.6c0-5.3-1-10.6-3.1-15.5-2-5-5-9.4-8.8-13.2-3.7-3.8-8.2-6.8-13.1-8.8-5-2.1-10.3-3.1-15.6-3.1H40.6c-5.3 0-10.6 1-15.5 3.1-5 2-9.4 5-13.2 8.8s-6.8 8.2-8.8 13.2c-2 4.9-3.1 10.2-3.1 15.5v751c0 5.3 1.1 10.6 3.1 15.5s5 9.4 8.8 13.2 8.2 6.8 13.2 8.8c4.9 2 10.2 3.1 15.5 3.1h513.2c5.3 0 10.6-1.1 15.6-3.1 4.9-2 9.4-5 13.1-8.8 3.8-3.8 6.8-8.3 8.8-13.2 2.1-4.9 3.1-10.2 3.1-15.5V393.2c-35.9-27.8-85.3-41.8-147.2-41.8" class="a"/><path d="M939.1 281.3H742.6q6.8 6.9 13.2 14.2t12.3 14.9q6 7.7 11.6 15.6 5.5 7.9 10.7 16.2h148.7v513.2H127.2c0 8 1.6 15.9 4.7 23.3 3 7.4 7.5 14.1 13.2 19.7 5.6 5.7 12.3 10.2 19.7 13.3 7.4 3 15.4 4.6 23.3 4.6h751c8 0 15.9-1.6 23.3-4.6 7.4-3.1 14.1-7.6 19.8-13.3 5.6-5.6 10.1-12.3 13.2-19.7 3-7.4 4.6-15.3 4.6-23.3V342.2c0-8-1.6-15.9-4.6-23.3-3.1-7.4-7.6-14.1-13.2-19.8-5.7-5.7-12.4-10.1-19.8-13.2s-15.3-4.6-23.3-4.6" class="a"/><path d="M817.6 575.5c-7.3-128.2-52.8-228.9-133.3-292.4-89.8-71.3-205.1-81-305.4-69.7-25.2-34.3-70.1-47.6-110-32.8-39.8 14.8-65.1 54.2-61.9 96.6s34.1 77.6 75.7 86.3c41.7 8.6 84-11.3 103.9-48.9 99.2-12.2 179.4 4 234.6 48 67.5 53.4 89.5 139.5 94.6 212.9h-74.5l126.6 219.3 126.5-219.3z" style="fill:#e26969"/><path d="M148.5 339.5c0 5.7-2.2 11.1-6.2 15.1s-9.4 6.2-15.1 6.2c-5.6 0-11-2.2-15-6.2s-6.2-9.4-6.2-15.1c6.7 0 13.4-4.9 21.2-4.9 6.5 0 13.9 4.9 21.3 4.9"/><path d="M111.9 462.3h30.6l-4.9-106.9h-20.8z"/><path d="M195.4 475.3v-9.5l-68.2-5.6-68.2 5.6v9.5l68.2 5.6z"/><path d="M191.4 470.5c-.1-4.4 2.6-8.4 6.7-10.1s8.8-.8 11.9 2.4c3.1 3.1 4.1 7.8 2.4 11.9s-5.7 6.7-10.1 6.7c-1.5 0-2.9-.2-4.2-.8-1.3-.5-2.5-1.3-3.5-2.3q-1.65-1.65-2.4-3.6c-.6-1.3-.8-2.7-.8-4.2M41.3 470.5c-.1-4.4 2.6-8.4 6.7-10.1s8.8-.8 11.9 2.4c3.1 3.1 4.1 7.8 2.4 11.9s-5.7 6.7-10.1 6.7c-1.4 0-2.9-.2-4.2-.8-1.3-.5-2.5-1.3-3.5-2.3q-1.65-1.65-2.4-3.6c-.6-1.3-.8-2.7-.8-4.2M99.7 837.8l27.5 26.2 27.6-26.2V473.3l-27.6 3.3-27.5-3.3z"/></svg>