<svg viewBox="0 0 246.24 204.92" xmlns="http://www.w3.org/2000/svg"><path d="m110.13 65.81c-2.94 0-6 .13-9.17.4a33.49 33.49 0 0 1 -54.96-38.08 33.58 33.58 0 0 1 28.43-15.84 33.6 33.6 0 0 1 22.92 9.1c4.36-.36 8.65-.54 12.81-.54a117.92 117.92 0 0 1 36.21 5.3v-16.15a10 10 0 0 0 -10-10h-126.37a10 10 0 0 0 -10 10v184.92a10 10 0 0 0 10 10h126.37a10 10 0 0 0 10-10v-118.8c-8.84-6.84-21-10.31-36.24-10.31"/><path d="m231.24 48.55h-48.37a88.9 88.9 0 0 1 11.75 15h36.62v126.37h-199.91a15 15 0 0 0 15 15h184.91a15 15 0 0 0 15-15v-126.37a15 15 0 0 0 -15-15"/><path d="m201.32 121c-1.8-31.57-13-56.35-32.82-72-22.12-17.56-50.5-19.95-75.19-17.17a23.5 23.5 0 1 0 1.88 24.92c24.43-3 44.19 1 57.78 11.82 16.61 13.17 22.03 34.37 23.29 52.43h-18.35l31.17 54 31.16-54z" fill="#e26969"/><path d="m36.57 62.9a5.24 5.24 0 0 1 -10.48 0c1.66 0 3.3-1.21 5.24-1.21 1.59 0 3.42 1.21 5.24 1.21"/><path d="m27.55 93.14h7.55l-1.22-26.34h-5.11z"/><path d="m48.12 96.32v-2.32l-16.79-1.4-16.79 1.4v2.32l16.79 1.39z"/><path d="m47.12 95.16a2.69 2.69 0 1 1 2.69 2.68 2.68 2.68 0 0 1 -2.69-2.68"/><path d="m10.16 95.16a2.69 2.69 0 1 1 2.69 2.68 2.68 2.68 0 0 1 -2.69-2.68"/><path d="m24.54 185.6 6.79 6.45 6.78-6.45v-89.77l-6.78.81-6.79-.81z"/></svg>