<svg id="svg" xmlns="http://www.w3.org/2000/svg" xmlns:xlink="http://www.w3.org/1999/xlink" width="400" height="400" viewBox="0, 0, 400,400" version="1.1"><g id="svgg"><path id="path0" d="M193.848 90.773 C 170.212 93.700,149.695 102.299,140.060 113.317 C 134.842 119.283,132.552 124.354,130.534 134.412 C 128.899 142.554,128.560 143.474,118.126 168.075 C 109.562 188.267,107.992 192.729,106.095 202.251 C 102.989 217.843,103.563 235.095,107.588 247.124 C 110.136 254.740,108.410 253.954,143.886 263.659 C 185.717 275.103,189.590 275.893,203.901 275.910 C 216.950 275.925,225.130 274.156,239.230 268.269 L 243.398 266.529 247.360 268.266 C 254.600 271.441,261.745 273.613,270.238 275.222 C 275.420 276.204,286.980 276.251,288.822 275.298 C 293.031 273.120,295.434 262.873,295.788 245.596 C 296.023 234.129,295.707 229.490,292.744 200.981 C 292.337 197.065,291.909 191.832,291.794 189.353 L 291.584 184.846 290.203 184.851 C 271.662 184.909,256.380 189.063,244.016 197.406 C 240.719 199.630,241.392 199.805,236.603 195.486 C 228.959 188.594,224.407 186.470,215.695 185.730 C 202.797 184.635,187.127 188.415,176.602 195.161 C 174.157 196.728,174.183 196.733,173.919 194.680 C 173.525 191.627,172.172 186.185,169.801 178.126 C 164.443 159.916,164.324 154.279,168.998 140.313 C 171.667 132.339,171.806 132.300,183.729 136.203 C 195.202 139.958,198.530 140.238,209.002 138.331 C 216.671 136.934,219.777 136.546,223.337 136.540 L 226.570 136.534 227.474 135.109 C 231.555 128.677,231.000 109.590,226.472 100.655 C 222.612 93.038,208.958 88.902,193.848 90.773 " stroke="none" fill="#fbfbfb" fill-rule="evenodd"></path><path id="path1" d="M197.449 1.288 C 196.404 1.613,17.619 179.988,5.836 192.463 L 1.050 197.529 1.050 199.851 L 1.050 202.174 11.540 212.940 C 34.689 236.697,196.116 397.874,197.227 398.339 C 198.591 398.909,201.343 398.936,202.643 398.393 C 203.961 397.842,397.413 204.392,398.212 202.826 C 398.933 201.413,398.990 198.786,398.334 197.215 C 397.542 195.316,203.623 1.660,202.087 1.233 C 200.638 0.831,198.852 0.852,197.449 1.288 M210.082 91.093 C 218.087 92.388,224.044 95.863,226.472 100.655 C 231.000 109.590,231.555 128.677,227.474 135.109 L 226.570 136.534 223.337 136.540 C 219.777 136.546,216.671 136.934,209.002 138.331 C 198.530 140.238,195.202 139.958,183.729 136.203 C 171.806 132.300,171.667 132.339,168.998 140.313 C 164.324 154.279,164.443 159.916,169.801 178.126 C 172.172 186.185,173.525 191.627,173.919 194.680 C 174.183 196.733,174.157 196.728,176.602 195.161 C 187.127 188.415,202.797 184.635,215.695 185.730 C 224.407 186.470,228.959 188.594,236.603 195.486 C 241.392 199.805,240.719 199.630,244.016 197.406 C 256.380 189.063,271.662 184.909,290.203 184.851 L 291.584 184.846 291.794 189.353 C 291.909 191.832,292.337 197.065,292.744 200.981 C 295.707 229.490,296.023 234.129,295.788 245.596 C 295.434 262.873,293.031 273.120,288.822 275.298 C 286.980 276.251,275.420 276.204,270.238 275.222 C 261.745 273.613,254.600 271.441,247.360 268.266 L 243.398 266.529 239.230 268.269 C 225.130 274.156,216.950 275.925,203.901 275.910 C 189.590 275.893,185.717 275.103,143.886 263.659 C 108.410 253.954,110.136 254.740,107.588 247.124 C 103.563 235.095,102.989 217.843,106.095 202.251 C 107.992 192.729,109.562 188.267,118.126 168.075 C 128.560 143.474,128.899 142.554,130.534 134.412 C 132.907 122.588,136.480 115.930,143.925 109.465 C 158.332 96.952,190.711 87.960,210.082 91.093 " stroke="none" fill="#5c94d4" fill-rule="evenodd"></path></g></svg>