<svg height="580" viewBox="0 0 580 580" width="580" xmlns="http://www.w3.org/2000/svg" xmlns:xlink="http://www.w3.org/1999/xlink"><clipPath id="a"><path d="m-10-10h600v600h-600z"/></clipPath><g clip-path="url(#a)"><path d="m290 574.35c-3.92 0-7.6-1.52-10.37-4.29l-269.69-269.69c-5.71-5.71-5.71-15.03 0-20.73l269.69-269.7c2.77-2.77 6.45-4.29 10.37-4.29s7.6 1.52 10.37 4.29l269.69 269.7c5.71 5.7 5.71 15.02 0 20.73l-269.69 269.69c-2.77 2.77-6.45 4.29-10.37 4.29z" fill="#449fd7"/><g fill="#fff"><path d="m303.91 6.43 269.66 269.66c7.7 7.7 7.7 20.16 0 27.82l-269.66 269.66c-3.85 3.85-8.88 5.78-13.91 5.78s-10.06-1.93-13.91-5.78l-269.66-269.66c-7.7-7.66-7.7-20.12 0-27.82l269.66-269.66c3.85-3.85 8.88-5.78 13.91-5.78s10.06 1.93 13.91 5.78zm-20.77 7.05-269.66 269.66c-1.82 1.83-2.83 4.29-2.83 6.86 0 2.6 1.01 5.03 2.83 6.86l269.66 269.66c1.83 1.82 4.26 2.83 6.86 2.83s5.03-1.01 6.86-2.83l269.66-269.66c1.82-1.83 2.83-4.26 2.83-6.86 0-2.57-1.01-5.03-2.83-6.86l-269.66-269.66c-1.83-1.82-4.26-2.83-6.86-2.83s-5.03 1.01-6.86 2.83z" fill-rule="evenodd"/><path d="m427.3 340.46c0 31.97-3.24 49.1-9.73 51.4-17.18 4.48-39.49.16-66.93-12.97-27.22 12.36-52.01 17.12-79.9 12.36-19.29-3.31-37.79-9.22-56.67-14.42-28.6-7.87-54.71-13.57-57.92-18.47-5.3-8.14-17.96-51.1 3.92-103.61 12.73-30.56 26.24-56.36 32.56-83.79 1.01-4.35 5.09-25.29 55.65-37.95 30.73-7.7 48.12-12.6 59.57-12.6 9.12 0 12.53.61 14.08 11.38 2.54 17.09 10 38.2 9.97 46.23-.07 8.04-3.69 11.18-9.56 11.42-3.99.16-7.45-1.26-10.4-4.26-2.86 5.16-6.66 7.5-11.38 7.03-4.73-.48-8.4-3.03-11.01-7.67-2.07 3.56-5.65 5.36-10.74 5.4-5.09.05-8.55-1.95-10.37-6.01-3.96 3.63-7.63 5.18-11.01 4.66-5.87-.87-8.41-8.17-8.44-8.27-8.58 1.87-14.33-2.18-17.26-12.16-3.11 14.02 5.24 18.81 11.11 19.69-2.4 7.4-3.75 19.15-5.33 27.46-3.21 16.78 11.31 42.34 12.36 62.24 6.72-5.81 25.73-17.02 50.92-16.79 21.99.24 30.4 4.59 46.34 20.53 5.3-4.32 30.8-22.96 73.92-21.2.27 28.13 6.25 49.44 6.25 80.37zm-88.45-5c-1.55.71-9.55 6.05-23.87 7.33-23.06 2.09-44.49-4.68-64.3-20.33 4.35 9.76 21.17 27.66 50.11 29.41 24.59 1.49 36.64-10.26 38.06-16.41z" fill-rule="evenodd"/><path d="m315.66 206.88c-8.62 2.7-17.02-3.38-21.11-8.75 1.59.65 3.38 1.12 5.27 1.29.57.06 1.11.1 1.65.1 5.1 0 9.05-2.3 11.86-4.76 2.16 1.01 4.76 1.79 7.7 1.92.06.04.54.17.81.58.27.37 2.97 6.75-6.18 9.62z"/></g></g></svg>