<svg height="580" viewBox="0 0 580 580" width="580" xmlns="http://www.w3.org/2000/svg" xmlns:xlink="http://www.w3.org/1999/xlink"><clipPath id="a"><path d="m-10-10h600v600h-600z"/></clipPath><g clip-path="url(#a)"><path d="m290 574.35c-3.92 0-7.6-1.52-10.37-4.29l-269.69-269.69c-5.71-5.71-5.71-15.03 0-20.73l269.69-269.7c2.77-2.77 6.45-4.29 10.37-4.29s7.6 1.52 10.37 4.29l269.69 269.7c5.71 5.7 5.71 15.02 0 20.73l-269.69 269.69c-2.77 2.77-6.45 4.29-10.37 4.29z" fill="#224169"/><path d="m303.91 6.43 269.66 269.66c7.7 7.7 7.7 20.16 0 27.82l-269.66 269.66c-3.85 3.85-8.88 5.78-13.91 5.78s-10.06-1.93-13.91-5.78l-269.66-269.66c-7.7-7.66-7.7-20.12 0-27.82l269.66-269.66c3.85-3.85 8.88-5.78 13.91-5.78s10.06 1.93 13.91 5.78zm-20.77 7.05-269.66 269.66c-3.78 3.79-3.78 9.93 0 13.72l269.66 269.66c1.83 1.82 4.26 2.83 6.86 2.83s5.03-1.01 6.86-2.83l269.66-269.66c1.82-1.83 2.83-4.26 2.83-6.86 0-2.57-1.01-5.03-2.83-6.86l-269.66-269.66c-1.83-1.82-4.26-2.83-6.86-2.83s-5.03 1.01-6.86 2.83z" fill="#fff" fill-rule="evenodd"/><path d="m370.9 331.86 118.7-45.97-120.49-41.03 30.53-69.09-67.78 33.33-45.96-118.71-41.03 120.5-69.1-30.53 33.33 67.78-118.7 45.96 120.49 41.03-30.53 69.1 67.78-33.34 45.96 118.71 41.03-120.5 69.1 30.53z" fill="#fff"/><path d="m267.73 338.11-31.47 7.9 9.32-32.32-67.41-21.37 66.16-24.62-10.33-31.44 32.52 7.53 21.17-65.62 24.59 64.23 31.47-8.41-9.35 32.32 67.44 21.38-66.16 24.62 10.34 31.44-32.53-7.02-21.2 65.11z" fill="#224169"/><path d="m290 244.89 12.02 33.09 33.1 12.03-33.1 12.02-12.02 33.09-12.02-33.09-33.1-12.02 33.1-12.03z" fill="#fff"/></g></svg>