<svg id="svg" xmlns="http://www.w3.org/2000/svg" xmlns:xlink="http://www.w3.org/1999/xlink" width="400" height="400" viewBox="0, 0, 400,400" version="1.1"><g id="svgg"><path id="path0" d="M189.354 80.345 C 186.796 86.251,178.731 105.300,177.029 109.456 C 170.523 125.341,162.774 142.925,162.155 143.206 C 161.711 143.409,153.564 143.397,137.386 143.169 C 124.127 142.983,109.927 142.832,105.831 142.833 L 98.384 142.836 98.996 143.661 C 99.655 144.550,109.728 157.263,122.281 173.047 C 133.448 187.090,135.369 189.694,134.940 190.211 C 134.748 190.442,133.036 191.908,131.136 193.468 C 120.942 201.837,118.184 204.107,112.930 208.450 C 109.767 211.064,100.855 218.415,93.125 224.785 C 85.395 231.154,78.900 236.571,78.692 236.821 C 78.193 237.423,78.835 237.548,96.924 240.365 C 100.143 240.866,105.679 241.746,109.227 242.319 C 112.776 242.892,119.460 243.962,124.081 244.695 C 142.888 247.681,151.991 249.139,152.036 249.175 C 152.081 249.210,152.315 256.563,153.506 295.417 C 153.764 303.831,154.018 310.757,154.070 310.809 C 154.213 310.952,162.124 304.566,174.622 294.219 C 196.270 276.296,198.076 274.827,198.345 274.923 C 198.495 274.976,203.039 279.002,208.444 283.871 C 213.849 288.740,221.789 295.872,226.090 299.720 L 233.908 306.717 233.991 301.371 C 234.036 298.430,234.171 286.279,234.291 274.368 C 234.411 262.458,234.593 252.628,234.697 252.525 C 234.801 252.421,238.649 252.885,243.249 253.555 C 257.707 255.662,281.066 258.975,290.998 260.328 C 291.798 260.437,292.273 260.385,292.273 260.187 C 292.273 259.534,286.520 246.389,280.115 232.408 C 278.679 229.272,275.748 222.791,273.603 218.005 C 271.458 213.218,269.650 209.214,269.585 209.106 C 269.387 208.776,271.289 207.787,292.873 197.005 C 316.478 185.213,321.802 182.442,321.466 182.125 C 321.336 182.003,316.032 179.669,309.677 176.939 C 303.323 174.209,293.736 170.074,288.372 167.750 C 283.008 165.425,275.750 162.289,272.243 160.780 C 268.736 159.271,265.866 157.924,265.866 157.787 C 265.866 157.650,270.870 147.531,276.986 135.300 C 283.102 123.069,288.065 113.023,288.014 112.975 C 287.963 112.928,281.575 114.628,273.818 116.754 C 266.062 118.880,256.677 121.440,252.963 122.444 C 249.250 123.448,244.321 124.800,242.011 125.447 C 233.387 127.864,231.240 128.432,230.728 128.432 C 229.961 128.432,226.479 123.997,194.859 82.746 C 192.614 79.816,190.742 77.419,190.699 77.419 C 190.656 77.419,190.051 78.736,189.354 80.345 M200.190 122.506 C 204.832 129.051,209.151 135.194,215.588 144.411 C 219.363 149.816,222.568 154.239,222.710 154.239 C 223.044 154.239,232.287 150.663,242.761 146.483 C 247.299 144.671,251.026 143.211,251.041 143.237 C 251.057 143.264,248.584 149.007,245.546 155.999 C 242.508 162.992,240.098 168.909,240.190 169.149 C 240.360 169.591,247.336 173.049,254.764 176.373 C 260.428 178.908,271.042 183.946,271.493 184.314 C 272.230 184.915,273.161 184.208,259.415 193.486 C 249.149 200.416,244.261 203.773,244.261 203.892 C 244.261 204.057,250.324 216.724,254.885 226.088 C 257.892 232.263,258.868 234.534,258.591 234.710 C 258.384 234.842,252.813 234.952,246.212 234.955 C 239.610 234.958,232.304 235.048,229.976 235.155 L 225.743 235.348 223.901 243.931 C 222.888 248.651,221.310 256.092,220.395 260.465 C 219.480 264.839,218.671 268.592,218.597 268.805 C 218.395 269.393,217.893 269.029,212.603 264.458 C 209.962 262.176,204.859 257.776,201.263 254.681 L 194.724 249.053 191.660 251.523 C 189.976 252.882,187.112 255.223,185.296 256.724 C 175.543 264.792,172.394 267.190,172.321 266.601 C 172.257 266.080,170.486 249.377,169.052 235.779 C 168.760 233.012,168.433 230.605,168.324 230.429 C 168.216 230.254,165.036 229.509,161.258 228.774 C 150.175 226.617,134.064 223.520,133.008 223.342 C 132.472 223.251,132.033 223.069,132.033 222.936 C 132.033 222.653,137.632 216.769,146.719 207.502 C 150.279 203.871,154.510 199.544,156.122 197.887 L 159.053 194.875 156.167 189.185 C 148.986 175.032,142.836 162.684,142.836 162.420 C 142.836 162.261,144.085 162.045,145.611 161.939 C 162.451 160.776,166.330 160.500,169.692 160.226 C 171.838 160.051,173.820 159.841,174.098 159.760 C 174.560 159.625,178.648 152.839,186.194 139.685 C 192.308 129.027,197.815 119.730,198.014 119.730 C 198.128 119.730,199.107 120.979,200.190 122.506 M196.911 160.765 C 195.286 163.530,192.824 167.749,191.441 170.143 C 190.058 172.536,188.495 175.174,187.968 176.005 L 187.011 177.515 179.102 178.050 C 174.752 178.345,170.887 178.659,170.513 178.749 C 169.866 178.904,170.051 179.335,174.362 187.743 L 178.890 196.573 171.516 204.082 C 167.460 208.213,164.141 211.690,164.141 211.810 C 164.141 211.931,166.065 212.393,168.417 212.837 C 181.108 215.233,183.739 215.747,183.836 215.844 C 183.895 215.903,184.418 220.387,184.999 225.809 C 185.579 231.231,186.094 235.706,186.143 235.755 C 186.192 235.804,188.904 233.687,192.170 231.050 C 195.436 228.414,198.174 226.257,198.255 226.257 C 198.335 226.257,199.808 227.472,201.526 228.957 C 203.245 230.443,206.057 232.873,207.776 234.359 C 209.495 235.844,210.969 237.059,211.052 237.059 C 211.219 237.059,211.364 236.426,213.046 228.357 C 213.682 225.304,214.424 221.841,214.695 220.663 L 215.187 218.520 223.998 218.412 C 228.844 218.352,232.889 218.223,232.988 218.125 C 233.086 218.027,231.807 215.141,230.147 211.711 C 228.486 208.281,226.721 204.580,226.224 203.487 L 225.320 201.500 226.221 200.800 C 226.716 200.415,229.738 198.322,232.936 196.149 C 236.134 193.976,239.142 191.908,239.622 191.553 L 240.494 190.907 236.901 189.198 C 234.925 188.258,232.296 187.048,231.058 186.509 C 229.187 185.696,223.281 182.828,223.033 182.613 C 222.931 182.525,224.692 178.209,226.713 173.593 C 229.263 167.771,229.151 168.253,227.825 168.809 C 224.451 170.222,213.915 174.344,213.674 174.344 C 213.519 174.344,212.228 172.689,210.806 170.668 C 201.829 157.909,200.278 155.750,200.083 155.745 C 199.964 155.741,198.536 158.001,196.911 160.765 M350.619 250.884 C 308.068 293.461,304.024 297.522,304.404 297.299 C 304.838 297.045,397.013 204.865,396.923 204.775 C 396.862 204.714,376.025 225.463,350.619 250.884 M252.963 348.566 C 226.144 375.367,204.336 397.296,204.501 397.297 C 204.873 397.300,302.054 300.151,301.863 299.968 C 301.787 299.895,279.782 321.764,252.963 348.566 " stroke="none" fill="#fbfbfb" fill-rule="evenodd"></path><path id="path1" d="M196.872 1.516 C 194.630 2.533,2.190 195.242,1.308 197.354 C 0.783 198.612,0.785 201.095,1.314 202.360 C 2.411 204.985,194.394 397.280,197.009 398.373 C 197.570 398.608,198.982 398.800,200.146 398.800 L 202.261 398.800 207.132 394.088 C 217.539 384.022,376.791 224.823,392.226 209.055 C 399.000 202.136,398.897 202.287,398.751 199.394 L 398.641 197.218 390.844 189.172 C 365.262 162.775,203.970 1.987,202.424 1.341 C 200.934 0.718,198.457 0.796,196.872 1.516 M194.859 82.746 C 226.479 123.997,229.961 128.432,230.728 128.432 C 231.240 128.432,233.387 127.864,242.011 125.447 C 244.321 124.800,249.250 123.448,252.963 122.444 C 256.677 121.440,266.062 118.880,273.818 116.754 C 281.575 114.628,287.963 112.928,288.014 112.975 C 288.065 113.023,283.102 123.069,276.986 135.300 C 270.870 147.531,265.866 157.650,265.866 157.787 C 265.866 157.924,268.736 159.271,272.243 160.780 C 275.750 162.289,283.008 165.425,288.372 167.750 C 293.736 170.074,303.323 174.209,309.677 176.939 C 316.032 179.669,321.336 182.003,321.466 182.125 C 321.802 182.442,316.478 185.213,292.873 197.005 C 271.289 207.787,269.387 208.776,269.585 209.106 C 269.650 209.214,271.458 213.218,273.603 218.005 C 275.748 222.791,278.679 229.272,280.115 232.408 C 286.520 246.389,292.273 259.534,292.273 260.187 C 292.273 260.385,291.798 260.437,290.998 260.328 C 281.066 258.975,257.707 255.662,243.249 253.555 C 238.649 252.885,234.801 252.421,234.697 252.525 C 234.593 252.628,234.411 262.458,234.291 274.368 C 234.171 286.279,234.036 298.430,233.991 301.371 L 233.908 306.717 226.090 299.720 C 221.789 295.872,213.849 288.740,208.444 283.871 C 203.039 279.002,198.495 274.976,198.345 274.923 C 198.076 274.827,196.270 276.296,174.622 294.219 C 162.124 304.566,154.213 310.952,154.070 310.809 C 154.018 310.757,153.764 303.831,153.506 295.417 C 152.315 256.563,152.081 249.210,152.036 249.175 C 151.991 249.139,142.888 247.681,124.081 244.695 C 119.460 243.962,112.776 242.892,109.227 242.319 C 105.679 241.746,100.143 240.866,96.924 240.365 C 78.835 237.548,78.193 237.423,78.692 236.821 C 78.900 236.571,85.395 231.154,93.125 224.785 C 100.855 218.415,109.767 211.064,112.930 208.450 C 118.184 204.107,120.942 201.837,131.136 193.468 C 133.036 191.908,134.748 190.442,134.940 190.211 C 135.369 189.694,133.448 187.090,122.281 173.047 C 109.728 157.263,99.655 144.550,98.996 143.661 L 98.384 142.836 105.831 142.833 C 109.927 142.832,124.127 142.983,137.386 143.169 C 153.564 143.397,161.711 143.409,162.155 143.206 C 162.774 142.925,170.523 125.341,177.029 109.456 C 180.391 101.247,190.559 77.419,190.699 77.419 C 190.742 77.419,192.614 79.816,194.859 82.746 M193.464 127.157 C 191.075 131.242,187.804 136.879,186.194 139.685 C 178.648 152.839,174.560 159.625,174.098 159.760 C 173.820 159.841,171.838 160.051,169.692 160.226 C 166.330 160.500,162.451 160.776,145.611 161.939 C 144.085 162.045,142.836 162.261,142.836 162.420 C 142.836 162.684,148.986 175.032,156.167 189.185 L 159.053 194.875 156.122 197.887 C 154.510 199.544,150.279 203.871,146.719 207.502 C 137.632 216.769,132.033 222.653,132.033 222.936 C 132.033 223.069,132.472 223.251,133.008 223.342 C 134.064 223.520,150.175 226.617,161.258 228.774 C 165.036 229.509,168.216 230.254,168.324 230.429 C 168.433 230.605,168.760 233.012,169.052 235.779 C 170.486 249.377,172.257 266.080,172.321 266.601 C 172.394 267.190,175.543 264.792,185.296 256.724 C 187.112 255.223,189.976 252.882,191.660 251.523 L 194.724 249.053 201.263 254.681 C 204.859 257.776,209.962 262.176,212.603 264.458 C 217.893 269.029,218.395 269.393,218.597 268.805 C 218.671 268.592,219.480 264.839,220.395 260.465 C 221.310 256.092,222.888 248.651,223.901 243.931 L 225.743 235.348 229.976 235.155 C 232.304 235.048,239.610 234.958,246.212 234.955 C 252.813 234.952,258.384 234.842,258.591 234.710 C 258.868 234.534,257.892 232.263,254.885 226.088 C 250.324 216.724,244.261 204.057,244.261 203.892 C 244.261 203.773,249.149 200.416,259.415 193.486 C 273.161 184.208,272.230 184.915,271.493 184.314 C 271.042 183.946,260.428 178.908,254.764 176.373 C 247.336 173.049,240.360 169.591,240.190 169.149 C 240.098 168.909,242.508 162.992,245.546 155.999 C 248.584 149.007,251.057 143.264,251.041 143.237 C 251.026 143.211,247.299 144.671,242.761 146.483 C 232.287 150.663,223.044 154.239,222.710 154.239 C 222.568 154.239,219.363 149.816,215.588 144.411 C 209.151 135.194,204.832 129.051,200.190 122.506 C 199.107 120.979,198.128 119.730,198.014 119.730 C 197.900 119.730,195.853 123.072,193.464 127.157 M204.260 161.371 C 206.438 164.462,209.383 168.646,210.806 170.668 C 212.228 172.689,213.519 174.344,213.674 174.344 C 213.915 174.344,224.451 170.222,227.825 168.809 C 229.151 168.253,229.263 167.771,226.713 173.593 C 224.692 178.209,222.931 182.525,223.033 182.613 C 223.281 182.828,229.187 185.696,231.058 186.509 C 232.296 187.048,234.925 188.258,236.901 189.198 L 240.494 190.907 239.622 191.553 C 239.142 191.908,236.134 193.976,232.936 196.149 C 229.738 198.322,226.716 200.415,226.221 200.800 L 225.320 201.500 226.224 203.487 C 226.721 204.580,228.486 208.281,230.147 211.711 C 231.807 215.141,233.086 218.027,232.988 218.125 C 232.889 218.223,228.844 218.352,223.998 218.412 L 215.187 218.520 214.695 220.663 C 214.424 221.841,213.682 225.304,213.046 228.357 C 211.364 236.426,211.219 237.059,211.052 237.059 C 210.969 237.059,209.495 235.844,207.776 234.359 C 206.057 232.873,203.245 230.443,201.526 228.957 C 199.808 227.472,198.335 226.257,198.255 226.257 C 198.174 226.257,195.436 228.414,192.170 231.050 C 188.904 233.687,186.192 235.804,186.143 235.755 C 186.094 235.706,185.579 231.231,184.999 225.809 C 184.418 220.387,183.895 215.903,183.836 215.844 C 183.739 215.747,181.108 215.233,168.417 212.837 C 166.065 212.393,164.141 211.931,164.141 211.810 C 164.141 211.690,167.460 208.213,171.516 204.082 L 178.890 196.573 174.362 187.743 C 170.051 179.335,169.866 178.904,170.513 178.749 C 170.887 178.659,174.752 178.345,179.102 178.050 L 187.011 177.515 187.968 176.005 C 188.495 175.174,190.058 172.536,191.441 170.143 C 196.920 160.664,199.876 155.739,200.083 155.745 C 200.202 155.748,202.082 158.280,204.260 161.371 " stroke="none" fill="#34446c" fill-rule="evenodd"></path></g></svg>