<svg height="580" viewBox="0 0 580 580" width="580" xmlns="http://www.w3.org/2000/svg" xmlns:xlink="http://www.w3.org/1999/xlink"><clipPath id="a"><path d="m590 590h-600v-600h600z"/></clipPath><g clip-path="url(#a)"><path d="m290 574.34c-3.92 0-7.6-1.51-10.38-4.29l-269.65-269.65c-5.74-5.74-5.74-15.06 0-20.77l269.65-269.68c2.78-2.75 6.46-4.3 10.38-4.3s7.6 1.55 10.38 4.3l269.65 269.68c5.74 5.71 5.74 15.03 0 20.77l-269.65 269.65c-2.78 2.78-6.46 4.29-10.38 4.29z" fill="#474e4e"/><g fill="#fff"><path d="m303.93 6.45 269.64 269.64c7.7 7.7 7.7 20.15 0 27.82l-269.64 269.68c-3.86 3.82-8.91 5.74-13.93 5.74s-10.07-1.92-13.93-5.74l-269.64-269.68c-7.7-7.67-7.7-20.12 0-27.82l269.64-269.64c3.86-3.86 8.91-5.78 13.93-5.78s10.07 1.92 13.93 5.78zm-20.77 7.04-269.65 269.68c-1.86 1.83-2.85 4.27-2.85 6.85s.99 5.02 2.85 6.84l269.65 269.65c1.82 1.82 4.26 2.85 6.84 2.85s5.02-1.03 6.84-2.85l269.65-269.65c1.86-1.82 2.85-4.26 2.85-6.84s-.99-5.02-2.85-6.85l-269.65-269.68c-1.82-1.82-4.26-2.82-6.84-2.82s-5.02 1-6.84 2.82z" fill-rule="evenodd"/><path d="m226 202.27 49.56-48.42c1.17-1.15 2.84-.41 2.84 1.3v26.34 45.05 26.34c0 1.7-1.67 2.44-2.84 1.29l-49.56-48.41c-.89-.86-.89-2.63 0-3.49z"/><path d="m297.09 163.68v11.44c-2.36-.05-4.72-.07-7.09-.07-2.02 0-4.03.02-6.04.05v-21.14l10.27 5.12c1.75.87 2.86 2.65 2.86 4.6z"/><path d="m297.09 233.22v11.64c0 1.95-1.11 3.74-2.86 4.61l-10.27 5.11v-21.37c2.01-.03 4.02-.04 6.04-.04 2.37 0 4.74.01 7.09.05z"/><path d="m290 178.95c14.08 0 30.92.91 44.26 2.21 1.56.15 2.74 1.47 2.74 3.03l-1.66 7.19c-2.25 9.74-2.26 19.87-.02 29.61l1.68 7.36c0 1.8-1.54 3.19-3.32 3.03-13.1-1.22-29.73-2.11-43.68-2.11-3.9 0-7.77.05-11.6.15-.67.02-1.34.04-2.01.06v-50.32c.67-.02 1.34-.04 2.01-.05 3.85-.11 7.71-.16 11.6-.16z"/><path d="m362.27 185.15c15.43 2.64 29.95 6.76 43.22 11.15 1.47.49 2.34 2.01 2.01 3.52l-1.71 8.08c-1.85 8.75-1.91 17.79-.16 26.56l1.44 7.24c.45 2.25-1.66 4.17-3.86 3.5-12.86-3.91-26.86-7.66-41.74-10.06-1.25-.2-2.26-1.16-2.51-2.41l-2.06-10.39c-1.71-8.66-1.67-17.57.11-26.22l1.78-8.57c.33-1.61 1.87-2.67 3.48-2.4z"/><path d="m461.67 236.53c0 4.73-6.14 14.05-21.48 23.91-6.25-3.4-8.71-4.81-15.54-7.5-.97-.38-1.68-1.23-1.88-2.25l-2.04-10.17c-1.78-8.93-1.7-18.13.24-27.02.52-2.39 1.02-4.7 1.4-6.51.4-1.9 2.46-2.95 4.23-2.15 28.41 12.82 35.07 25.44 35.07 31.69z"/><path d="m480.44 236.54v73.68c0 22.29-21.2 42.48-55.5 57.11v-73.68c5.42-2.31 10.51-4.76 15.25-7.34 7.4-4.02 13.9-8.35 19.43-12.93 13.32-11.05 20.82-23.57 20.82-36.84z"/><path d="m280.63 322.65v-37.11c0-2.41 2.74-4.2 4.72-3.08l88.13 68.44c2.31 1.77 2.31 5.23 0 7.02l-88.13 68.44c-1.98 1.12-4.72-.69-4.72-3.08v-37.13z"/><path d="m297.35 282.12 19.59 3.68c2.24.41 4.33 1.36 6.14 2.76l80.82 62.34c2.29 1.76 2.29 5.25 0 7.02l-80.82 62.34c-1.81 1.4-3.9 2.35-6.14 2.76l-19.59 3.68 87.42-68.8c2.26-1.77 2.26-5.21 0-6.98z"/><path d="m283.65 317.43v73.68c-23.86-.33-51.27-3.44-72.53-7.26-1.62-.29-2.72-1.81-2.49-3.44l1.7-12c1.97-13.83 2.03-27.86.17-41.7l-1.73-12.9c-.27-2.05 1.52-3.77 3.55-3.41 21.1 3.72 47.91 6.71 71.33 7.03z"/><path d="m203.39 188.12v49.99c-24.85 5.4-46.54 13.07-63.58 22.35-.01 0-.01 0-.01 0-15.33-9.87-21.47-19.2-21.47-23.92 0-6.51 11.69-21.8 43.07-35.14 12.57-5.34 26.7-9.79 41.99-13.28z"/><path d="m139.8 286.31c2.45 1.33 1.8 1.07 3.13 1.69.94.44 1.6 1.34 1.73 2.37l2.17 16.81c1.79 13.88 1.65 27.94-.4 41.79l-1.38 9.32c-.3 2.04-2.51 3.2-4.37 2.29-28.38-13.99-41.12-30.16-41.12-50.36v-73.69c0 13.28 7.51 25.8 20.82 36.85 5.52 4.57 12.03 8.9 19.42 12.93z"/><path d="m165.24 297.59c7.56 2.74 15.6 5.53 24.06 7.68 1.21.31 2.11 1.31 2.28 2.55l2.03 15.3c1.84 13.83 1.77 27.85-.21 41.66l-1.62 11.32c-.26 1.81-2.04 2.98-3.8 2.52-8.86-2.34-17.27-5.34-25.13-8.22-1.35-.5-2.17-1.87-1.96-3.3l1.68-11.48c2.02-13.85 2.13-27.91.32-41.79l-1.7-12.98c-.3-2.26 1.9-4.04 4.05-3.26z"/></g></g></svg>