<svg height="1200" viewBox="0 0 1200 1200" width="1200" xmlns="http://www.w3.org/2000/svg" xmlns:xlink="http://www.w3.org/1999/xlink"><clipPath id="a"><path d="m0 0h1200v1200h-1200z"/></clipPath><g clip-path="url(#a)"><path d="m600 1168.7c-7.84 0-15.22-3.06-20.76-8.6l-539.34-539.34c-11.44-11.44-11.44-30.07 0-41.52l539.34-539.34c5.54-5.54 12.92-8.59 20.76-8.59s15.22 3.05 20.76 8.59l539.34 539.34c11.44 11.45 11.44 30.08 0 41.52l-539.34 539.34c-5.54 5.54-12.92 8.6-20.76 8.6z" fill="#b7251a"/><g fill="#fff" fill-rule="evenodd"><path d="m627.83 32.84 539.34 539.33c15.37 15.37 15.37 40.29 0 55.67l-539.34 539.33c-7.68 7.68-17.76 11.53-27.83 11.53s-20.15-3.85-27.83-11.53l-539.34-539.33c-15.37-15.38-15.37-40.3 0-55.67l539.34-539.33c7.68-7.69 17.76-11.53 27.83-11.53s20.15 3.84 27.83 11.53zm-41.52 14.13-539.34 539.34c-3.65 3.65-5.67 8.52-5.67 13.69s2.02 10.03 5.67 13.69l539.34 539.33c3.66 3.66 8.52 5.68 13.69 5.68s10.03-2.02 13.69-5.68l539.34-539.33c7.54-7.55 7.54-19.83 0-27.38l-539.34-539.34c-3.66-3.65-8.52-5.66-13.69-5.66s-10.03 2.01-13.69 5.66z"/><path d="m914.38 600c0 173.63-140.75 314.38-314.38 314.38s-314.38-140.75-314.38-314.38 140.75-314.38 314.38-314.38 314.38 140.75 314.38 314.38zm-77.78 0c0-130.67-105.93-236.6-236.6-236.6s-236.6 105.93-236.6 236.6 105.93 236.6 236.6 236.6 236.6-105.93 236.6-236.6z"/><path d="m769.33 600c0 93.52-75.81 169.33-169.33 169.33s-169.33-75.81-169.33-169.33 75.81-169.33 169.33-169.33 169.33 75.81 169.33 169.33zm-74.84 0c0-52.19-42.3-94.49-94.49-94.49s-94.49 42.3-94.49 94.49 42.3 94.49 94.49 94.49 94.49-42.3 94.49-94.49z"/></g></g></svg>