<svg id="svg" xmlns="http://www.w3.org/2000/svg" xmlns:xlink="http://www.w3.org/1999/xlink" width="400" height="400" viewBox="0, 0, 400,400" version="1.1"><g id="svgg"><path id="path0" d="M189.047 88.369 C 103.874 96.919,59.049 194.942,108.446 264.625 C 156.310 332.147,259.403 325.883,298.657 253.069 C 340.859 174.785,277.443 79.496,189.047 88.369 M207.952 116.135 C 262.279 121.770,297.494 177.410,278.978 228.357 C 260.535 279.105,199.185 299.826,154.389 270.437 C 114.597 244.332,104.063 192.471,130.542 153.038 C 147.619 127.607,178.165 113.045,207.952 116.135 M191.448 140.146 C 139.358 147.890,121.140 214.033,162.035 246.928 C 199.798 277.304,256.563 252.835,260.156 204.632 C 263.017 166.252,229.218 134.530,191.448 140.146 M208.030 167.420 C 237.555 175.500,242.305 215.523,215.389 229.425 C 188.856 243.128,159.001 217.983,168.231 189.707 C 173.605 173.243,191.891 163.003,208.030 167.420 " stroke="none" fill="#fbfbfb" fill-rule="evenodd"></path><path id="path1" d="M197.681 1.589 C 195.871 2.388,56.781 140.971,14.856 183.746 L 1.376 197.500 1.257 199.361 C 1.179 200.580,1.292 201.580,1.584 202.261 C 2.381 204.121,111.847 313.922,188.297 389.545 C 198.402 399.541,198.107 399.344,201.715 398.489 C 204.022 397.942,395.484 206.634,398.228 202.135 C 399.842 199.488,399.073 198.187,390.718 189.432 C 371.467 169.258,204.089 2.337,202.406 1.633 C 201.160 1.113,198.809 1.091,197.681 1.589 M210.125 88.388 C 304.106 97.946,345.743 210.789,280.136 278.131 C 215.701 344.271,102.854 307.680,89.151 216.204 C 78.491 145.042,138.962 81.150,210.125 88.388 M191.298 116.309 C 121.055 124.314,90.836 209.389,140.564 259.137 C 193.406 312.000,283.871 274.515,283.871 199.758 C 283.871 150.502,239.807 110.780,191.298 116.309 M205.160 139.853 C 252.077 143.742,276.612 198.551,248.275 236.169 C 225.758 266.062,181.989 268.583,156.163 241.475 C 118.046 201.466,149.959 135.278,205.160 139.853 M193.496 167.116 C 168.938 172.456,158.364 201.358,173.876 220.743 C 193.407 245.152,233.161 231.411,233.158 200.253 C 233.155 179.099,213.585 162.748,193.496 167.116 " stroke="none" fill="#ac1c24" fill-rule="evenodd"></path></g></svg>