<svg height="400" viewBox="0 0 400 400" width="400" xmlns="http://www.w3.org/2000/svg"><path d="m163.2 15.735v12.935l-6.7.69c-47.222 4.86-72.044 16.825-58.855 28.368 22.219 19.445 134.615 24.53 188.755 8.54 41.456-12.244 21.376-30.544-40.5-36.909l-6.7-.689v-12.935-12.935h-38-38zm0 35.865c0 9.014-.111 11.6-.5 11.599-.275 0-3.38-.371-6.9-.823-42.837-5.507-43.514-15.944-1.4-21.565 2.97-.397 6.165-.741 7.1-.766l1.7-.045zm84.4-10.81c44.425 5.663 41.391 16.705-6.1 22.201l-2.3.267v-11.629-11.629h1.1c.605 0 3.89.356 7.3.79m-84.4 51.133v3.213l-2.5.222c-1.375.123-6.01.503-10.3.846-57.764 4.615-96.928 17.612-95.476 31.683 1.563 15.139 43.597 27.26 110.076 31.742 10.09.68 49.992.94 62.4.406 57.063-2.456 102.418-12.157 115.929-24.795 17.59-16.453-22.351-33.525-91.329-39.036-4.29-.343-8.925-.723-10.3-.846l-2.5-.222v-3.213-3.214l-1.7.235c-12.197 1.684-60.403 1.684-72.6 0l-1.7-.235zm0 35.477v17l-1.1-.004c-2.33-.009-18.994-1.611-24.9-2.394-31.939-4.234-48.038-11.143-41.175-17.671 5.879-5.593 26.756-10.609 54.575-13.112 2.64-.237 5.34-.492 6-.565.66-.074 2.415-.161 3.9-.194l2.7-.06zm90.992-15.975c49.966 5.184 68.002 15.799 41.327 24.321-9.152 2.924-16.599 4.41-33.319 6.649-3.094.414-20.752 2.005-22.258 2.005-.711 0-.742-.713-.742-17.059v-17.058l4.692.28c2.581.154 7.216.542 10.3.862m-90.992 68.321v4.654h-24.433c-14.701 0-24.381.147-24.3.368.306.847 86.55 150.019 86.733 150.019s86.427-149.172 86.733-150.019c.081-.221-9.599-.368-24.3-.368h-24.433v-4.654-4.654l-5.1.299c-14.312.841-51.488.841-65.8 0l-5.1-.299zm-91.8 74.229c-32.12 6.553-59.435 12.133-60.7 12.399l-2.3.483.002 45.871.002 45.872 95.498 20.389c52.524 11.214 96.308 20.389 97.298 20.389s44.774-9.175 97.298-20.389l95.498-20.389.002-45.867.002-45.867-2.1-.451c-18.384-3.951-120.122-24.347-120.328-24.123-.156.169-15.999 27.533-35.206 60.808s-35.032 60.5-35.166 60.5-16.017-27.315-35.296-60.7c-19.278-33.385-35.288-60.732-35.577-60.771-.29-.039-26.807 5.292-58.927 11.846" fill-rule="evenodd"/></svg>