<svg height="250" viewBox="0 0 466 480" width="250" xmlns="http://www.w3.org/2000/svg"
    xmlns:xlink="http://www.w3.org/1999/xlink">
    <clipPath id="a">
        <path d="m-67 540h600v-600h-600z" />
    </clipPath>
    <g clip-path="url(#a)">
        <path
            d="m278.6 31.97v12.94c29.2 2.8 48.98 8.2 48.98 14.38 0 6.17-19.78 11.58-48.98 14.38v12.93c48.84-4.15 83.53-14.82 83.53-27.31 0-12.5-34.69-23.17-83.53-27.32zm-174.73 27.32c0 12.49 34.74 23.16 83.53 27.31v-12.93c-29.2-2.8-48.98-8.21-48.98-14.38 0-6.18 19.78-11.58 48.98-14.38v-12.94c-48.79 4.15-83.53 14.82-83.53 27.32z" />
        <path
            d="m278.6 112.33v17.52c48.89 3.18 83.63 11.39 83.63 20.99s-34.74 17.81-83.63 20.99v17.57c75.38-4.54 130.87-20.08 130.87-38.56 0-18.43-55.49-33.97-130.87-38.51zm-222.07 38.51c0 18.48 55.49 34.02 130.87 38.56v-17.57c-48.89-3.18-83.63-11.39-83.63-20.99s34.74-17.81 83.63-20.99v-17.52c-75.38 4.54-130.87 20.08-130.87 38.51z" />
        <path d="m465.5 319.48v110.32l-232.5 49.6-232.5-49.6v-110.32l147.23-30.01 85.27 147.66 85.27-147.66z" />
        <path
            d="m278.59 104.6v84.79c-14.52.87-29.82 1.35-45.6 1.35-15.73 0-31.03-.48-45.55-1.35v-84.79c.96.1 1.97.15 2.99.25 15.1 1.15 29.92 1.64 42.56 1.64s27.46-.49 42.61-1.64c.97-.1 1.98-.15 2.99-.25z" />
        <path d="m278.59.6v85.99c-14.18 1.21-29.53 1.88-45.6 1.88-16.02 0-31.41-.67-45.55-1.88v-85.99z" />
        <path
            d="m337.57 219.98-104.57 181.11-104.57-181.11h58.97v-11.24c14.72.87 30.01 1.3 45.6 1.3s30.88-.43 45.6-1.3v11.24z" />
    </g>
</svg>