<svg id="svg" version="1.1" xmlns="http://www.w3.org/2000/svg" xmlns:xlink="http://www.w3.org/1999/xlink" width="400" height="400" viewBox="0, 0, 400,400"><g id="svgg"><path id="path0" d="M162.902 22.263 L 162.902 27.004 158.453 27.343 C 93.527 32.279,70.099 47.216,111.020 57.585 C 123.349 60.709,152.800 64.887,162.491 64.887 L 163.176 64.887 163.176 74.059 L 163.176 83.231 162.149 83.233 C 159.305 83.241,142.947 84.369,134.155 85.165 C 35.724 94.067,19.864 117.698,103.765 130.446 C 118.084 132.622,141.106 134.863,157.290 135.657 C 159.097 135.746,161.160 135.887,161.875 135.971 L 163.176 136.123 163.176 144.857 L 163.176 153.591 137.739 153.660 L 112.302 153.730 157.735 232.029 C 182.723 275.093,203.260 310.419,203.372 310.531 C 203.484 310.644,223.859 275.471,248.649 232.370 L 293.723 154.004 286.560 153.834 C 282.621 153.741,271.297 153.649,261.396 153.629 L 243.395 153.593 243.395 144.736 L 243.395 135.878 247.844 135.691 C 291.636 133.850,335.448 126.165,350.034 117.768 C 375.546 103.080,330.047 87.956,246.475 83.345 L 243.121 83.160 243.121 74.024 L 243.121 64.887 243.737 64.886 C 246.171 64.879,261.010 63.394,268.583 62.398 C 339.324 53.096,327.529 33.419,247.570 27.342 L 243.121 27.004 243.121 22.263 L 243.121 17.522 203.012 17.522 L 162.902 17.522 162.902 22.263 M247.091 33.412 C 290.968 38.197,299.574 49.118,264.750 55.821 C 258.056 57.110,245.831 58.864,243.545 58.864 C 242.757 58.864,242.942 54.260,243.737 54.081 C 244.076 54.005,246.140 53.560,248.323 53.093 C 267.953 48.892,267.339 42.645,246.886 38.462 L 243.121 37.692 243.121 35.268 C 243.121 32.897,243.135 32.847,243.737 32.978 C 244.076 33.052,245.585 33.247,247.091 33.412 M162.902 35.313 C 162.902 37.357,162.862 37.507,162.286 37.630 C 161.947 37.703,160.623 37.962,159.343 38.205 C 136.676 42.521,136.557 49.241,159.069 53.653 C 160.650 53.963,162.221 54.279,162.560 54.355 C 163.343 54.531,163.540 58.864,162.764 58.864 C 161.684 58.864,152.211 57.683,148.544 57.091 C 117.368 52.059,110.653 44.590,131.691 38.342 C 138.099 36.440,156.298 33.300,161.739 33.158 L 162.902 33.128 162.902 35.313 M163.103 95.989 C 163.052 96.040,160.984 96.331,158.507 96.636 C 107.217 102.953,106.586 116.219,157.290 122.225 C 159.247 122.457,161.372 122.718,162.012 122.805 L 163.176 122.963 163.176 125.821 C 163.176 127.926,163.086 128.678,162.834 128.677 C 156.200 128.637,128.089 125.262,118.138 123.310 C 63.211 112.538,84.942 96.341,162.081 90.558 L 163.039 90.486 163.117 93.191 C 163.161 94.679,163.154 95.938,163.103 95.989 M251.882 91.175 C 297.245 95.042,322.985 103.021,318.106 111.703 C 314.936 117.343,296.771 122.814,269.952 126.206 C 264.676 126.873,245.236 128.679,243.329 128.679 C 243.215 128.679,243.121 127.385,243.121 125.804 C 243.121 124.223,243.214 122.928,243.326 122.926 C 243.772 122.919,252.515 121.806,256.263 121.279 C 258.446 120.972,262.943 120.160,266.256 119.475 C 299.811 112.533,290.954 101.594,247.775 96.650 C 246.345 96.486,244.713 96.285,244.148 96.201 L 243.121 96.050 243.121 93.337 L 243.121 90.623 244.285 90.625 C 244.925 90.626,248.344 90.873,251.882 91.175 M163.176 109.514 C 163.176 113.674,163.406 113.506,159.991 111.845 C 156.153 109.977,156.150 109.060,159.978 107.187 C 163.401 105.511,163.176 105.347,163.176 109.514 M245.319 106.642 C 250.597 108.711,250.505 110.423,245.003 112.514 C 244.194 112.821,243.439 113.073,243.326 113.073 C 243.214 113.073,243.121 111.472,243.121 109.514 C 243.121 107.556,243.221 105.955,243.343 105.955 C 243.465 105.955,244.354 106.264,245.319 106.642 M237.387 280.287 C 218.217 316.239,202.455 345.738,202.361 345.841 C 202.267 345.943,186.983 316.621,168.397 280.680 C 149.810 244.738,134.584 215.300,134.560 215.262 C 134.524 215.204,2.703 242.757,0.616 243.258 L 0.000 243.405 0.000 291.568 C 0.000 337.200,0.025 339.738,0.479 339.873 C 0.743 339.951,46.421 349.569,101.985 361.246 L 203.013 382.477 300.890 362.222 C 354.723 351.082,399.045 341.901,399.384 341.820 L 400.000 341.673 400.000 291.581 L 400.000 241.489 399.384 241.342 C 398.193 241.059,272.585 214.921,272.414 214.921 C 272.319 214.921,256.557 244.336,237.387 280.287 " stroke="none" fill="#000000" fill-rule="evenodd"></path></g></svg>