<svg viewBox="0 0 10.16 10.16" xmlns="http://www.w3.org/2000/svg" xmlns:xlink="http://www.w3.org/1999/xlink">
    <clipPath id="a" transform="translate(-.13 -.2)">
        <path d="m0 5.25a5.25 5.25 0 0 0 5.15 5.25h.19a5.25 5.25 0 1 0 -5.34-5.25" />
    </clipPath>
    <clipPath id="b" transform="translate(-.13 -.2)">
        <path
            d="m3 .53a5.24 5.24 0 0 0 -2.46 2.39v4.65a5.34 5.34 0 0 0 2.38 2.43h4.65a5.26 5.26 0 0 0 2.43-2.46v-4.54a5.21 5.21 0 0 0 -2.46-2.47z" />
    </clipPath>
    <g clip-path="url(#a)">
        <circle cx="5.08" cy="5.08" fill="none" r="4.78" stroke="#000" stroke-miterlimit="10" stroke-width=".6" />
    </g>
    <g clip-path="url(#b)">
        <path
            d="m7.08 8.59-.3-.08h.15-.16a2.57 2.57 0 0 0 -.31-1.73 5.28 5.28 0 0 0 -1.14-1.27l-.17-.15-.15-.16a5.56 5.56 0 0 1 -1.2-1.35 3 3 0 0 1 -.35-2l.29.15a2.64 2.64 0 0 0 .31 1.7 5.74 5.74 0 0 0 1.14 1.3l.17.15.17.16a5.6 5.6 0 0 1 1.21 1.32 2.91 2.91 0 0 1 .34 2"
            fill="#000" transform="translate(-.13 -.2)" />
        <path
            d="m5 5.66a4.89 4.89 0 0 0 -1 1.12 2.65 2.65 0 0 0 -.31 1.73l-.31.08a3 3 0 0 1 .35-2 4.72 4.72 0 0 1 1-1.18l.15.14z"
            fill="#000" transform="translate(-.13 -.2)" />
        <path
            d="m6.74 3.85a5 5 0 0 1 -1.02 1.15 1.85 1.85 0 0 1 -.14-.14l-.09-.07a4.65 4.65 0 0 0 1-1.12 2.69 2.69 0 0 0 .29-1.67l.3-.08a2.91 2.91 0 0 1 -.34 2"
            fill="#000" transform="translate(-.13 -.2)" />
        <path d="m3.39 8.49s.42.38 1.86.38a3.09 3.09 0 0 0 1.88-.38" fill="none" stroke="#000" stroke-linecap="round"
            stroke-miterlimit="10" stroke-width=".31" transform="translate(-.13 -.2)" />
        <path d="m7.13 2a3 3 0 0 0 -1.87-.38 3 3 0 0 0 -1.87.38" fill="none" stroke="#000" stroke-linecap="round"
            stroke-miterlimit="10" stroke-width=".31" transform="translate(-.13 -.2)" />
        <g fill="#000">
            <path
                d="m3.58 7.83a1.84 1.84 0 0 1 1.42-.5c1 0 1.28-.45 1.37-.74a1 1 0 0 1 .52.74v1.29a4.35 4.35 0 0 1 -1.65.32 4.55 4.55 0 0 1 -1.68-.32z"
                transform="translate(-.13 -.2)" />
            <path
                d="m6.91 2.64a1.79 1.79 0 0 1 -1.39.51c-1 0-1.28.45-1.37.74a1 1 0 0 1 -.52-.74v-1.29a4.37 4.37 0 0 1 3.33 0z"
                transform="translate(-.13 -.2)" />
            <path d="m5.25 3.34a.16.16 0 0 1 -.16-.15.16.16 0 1 1 .32 0 .16.16 0 0 1 -.16.15"
                transform="translate(-.13 -.2)" />
            <path d="m5.25 4.53a.16.16 0 0 1 -.16-.15.16.16 0 1 1 .32 0 .16.16 0 0 1 -.16.15"
                transform="translate(-.13 -.2)" />
            <path d="m5.25 3.94a.16.16 0 0 1 -.16-.16.16.16 0 1 1 .32 0 .16.16 0 0 1 -.16.16"
                transform="translate(-.13 -.2)" />
            <path d="m5.25 6.86a.16.16 0 0 1 -.16-.15.16.16 0 0 1 .32 0 .16.16 0 0 1 -.16.15"
                transform="translate(-.13 -.2)" />
            <path d="m5.25 6.27a.16.16 0 0 1 -.16-.16.16.16 0 0 1 .32 0 .16.16 0 0 1 -.16.16"
                transform="translate(-.13 -.2)" />
            <path d="m5.25 7.45a.16.16 0 0 1 -.16-.15.16.16 0 1 1 .32 0 .16.16 0 0 1 -.16.15"
                transform="translate(-.13 -.2)" />
        </g>
    </g>
</svg>