<svg viewBox="0 0 200 100" xmlns="http://www.w3.org/2000/svg"><path d="m50 0a50.000001 50.000001 0 0 0 -50 50 50.000001 50.000001 0 0 0 50 50 50.000001 50.000001 0 0 0 40.212891-20.564453c9.023805 12.170348 23.491139 20.070312 39.787109 20.070312 27.31731 0 49.50586-22.18854 49.50586-49.505859 0-27.31732-22.18855-49.50585937-49.50586-49.50585938-16.29597 0-30.763304 7.89996518-39.787109 20.07031238a50.000001 50.000001 0 0 0 -40.212891-20.564453zm80 4.4550781c25.17695 0 45.54492 20.3679559 45.54492 45.5449219 0 25.176965-20.36797 45.544922-45.54492 45.544922-25.17696 0-45.544922-20.367957-45.544922-45.544922 0-25.176966 20.367962-45.5449219 45.544922-45.5449219zm-63 14.0449219c5.477847 0 10.094915 3.889931 11.230469 9.041016.436692.02862.847304.070579 1.220703.132812.352835.058806.665022.11975 1.048828.271484.191903.07587.408722.162049.707031.40625.298314.244207.792969.808765.792969 1.648438s-.494655 1.404232-.792969 1.648438c-.298309.244202-.515128.33038-.707031.40625-.383806.151735-.695993.212674-1.048828.271484-.373399.062231-.784011.104192-1.220703.132812-1.135554 5.151085-5.752622 9.041016-11.230469 9.041016-5.463221 0-10.069646-3.869413-11.220703-9h-32.779297c-.920445 0-1.745506-.056216-2.451172-.173828-.352835-.058806-.665022-.119749-1.048828-.271484-.191903-.075869-.408722-.162048-.707031-.40625-.298314-.244206-.792969-.808765-.792969-1.648438s.494655-1.404231.792969-1.648438c.298309-.244201.515128-.33038.707031-.40625.383806-.151734.695993-.212674 1.048828-.271484.705666-.117608 1.530727-.173828 2.451172-.173828h32.779297c1.151057-5.130587 5.757482-9 11.220703-9zm46 0c-5.47785 0-10.09491 3.889921-11.23047 9.041016-.43669.02862-.8473.070582-1.2207.132812-.35284.058806-.66502.119748-1.04883.271484-.1919.07587-.408722.162047-.707031.40625-.29831.244207-.792969.808763-.792969 1.648438s.494659 1.404232.792969 1.648438c.298309.244204.515131.33038.707031.40625.38381.151737.69599.212674 1.04883.271484.3734.062232.78401.104192 1.2207.132812 1.13556 5.151095 5.75262 9.041016 11.23047 9.041016 5.46323 0 10.06964-3.869403 11.2207-9h32.7793c.92045 0 1.7455-.056216 2.45117-.173828.35284-.058806.66502-.119747 1.04883-.271484.1919-.075869.40872-.162046.70703-.40625.29831-.244206.79297-.808763.79297-1.648438s-.49466-1.404231-.79297-1.648438c-.29831-.244203-.51513-.33038-.70703-.40625-.38381-.151736-.69599-.212674-1.04883-.271484-.70567-.117608-1.53072-.173828-2.45117-.173828h-32.7793c-1.15106-5.130597-5.75747-9-11.2207-9zm-46 5c-3.619443 0-6.5 2.880557-6.5 6.5s2.880557 6.5 6.5 6.5 6.5-2.880557 6.5-6.5-2.880557-6.5-6.5-6.5zm46 0c3.61946 0 6.5 2.880549 6.5 6.5s-2.88054 6.5-6.5 6.5c-3.61945 0-6.5-2.880549-6.5-6.5s2.88055-6.5 6.5-6.5zm-80 15c5.463221 0 10.069646 3.869413 11.220703 9h32.779297c.920445 0 1.745506.056216 2.451172.173828.352835.058806.665022.11975 1.048828.271484.013644.005395.031006.01398.044922.019532-.027447.675991-.050781 1.352492-.050781 2.035156s.023334 1.359165.050781 2.035156c-.013916.005552-.031278.014137-.044922.019532-.383806.151735-.695993.212674-1.048828.271484-.705666.117608-1.530727.173828-2.451172.173828h-32.779297c-1.151057 5.130587-5.757482 9-11.220703 9-5.477847 0-10.094915-3.889931-11.230469-9.041016-.436692-.02862-.847304-.070579-1.220703-.132812-.352835-.058806-.665022-.119749-1.048828-.271484-.191903-.075869-.408722-.162048-.707031-.40625-.298314-.244206-.792969-.808765-.792969-1.648438s.494655-1.404231.792969-1.648438c.298309-.244201.515128-.33038.707031-.40625.383806-.151734.695993-.212674 1.048828-.271484.373399-.062231.784011-.104192 1.220703-.132812 1.135554-5.151085 5.752622-9.041016 11.230469-9.041016zm114 0c-5.46323 0-10.06964 3.869403-11.2207 9h-32.7793c-.92045 0-1.7455.056216-2.45117.173828-.35284.058806-.66502.119748-1.04883.271484-.1919.07587-.408722.162047-.707031.40625-.29831.244207-.792969.808763-.792969 1.648438s.494659 1.404232.792969 1.648438c.298309.244204.515131.33038.707031.40625.38381.151737.69599.212674 1.04883.271484.70567.117608 1.53072.173828 2.45117.173828h32.7793c1.15106 5.130597 5.75747 9 11.2207 9 5.47785 0 10.09491-3.889921 11.23047-9.041016.43669-.02862.8473-.070582 1.2207-.132812.35284-.058806.66502-.119747 1.04883-.271484.1919-.075869.40872-.162046.70703-.40625.29831-.244206.79297-.808763.79297-1.648438s-.49466-1.404231-.79297-1.648438c-.29831-.244203-.51513-.33038-.70703-.40625-.38381-.151736-.69599-.212674-1.04883-.271484-.3734-.062232-.78401-.104192-1.2207-.132812-1.13556-5.151095-5.75262-9.041016-11.23047-9.041016zm-114 5c-3.619443 0-6.5 2.880557-6.5 6.5s2.880557 6.5 6.5 6.5 6.5-2.880557 6.5-6.5-2.880557-6.5-6.5-6.5zm114 0c3.61945 0 6.5 2.880549 6.5 6.5s-2.88055 6.5-6.5 6.5c-3.61946 0-6.5-2.880549-6.5-6.5s2.88054-6.5 6.5-6.5zm-80 15c5.477847 0 10.094915 3.889931 11.230469 9.041016.436692.02862.847304.070579 1.220703.132812.352835.058806.665022.11975 1.048828.271484.191903.07587.408722.162049.707031.40625.298314.244207.792969.808765.792969 1.648438s-.494655 1.404232-.792969 1.648438c-.298309.244202-.515128.33038-.707031.40625-.383806.151735-.695993.212674-1.048828.271484-.373399.062231-.784011.104192-1.220703.132812-1.135554 5.151085-5.752622 9.041016-11.230469 9.041016-5.463221 0-10.069646-3.869413-11.220703-9h-32.779297c-.920445 0-1.745506-.056216-2.451172-.173828-.352835-.058806-.665022-.119749-1.048828-.271484-.191903-.075869-.408722-.162048-.707031-.40625-.298314-.244206-.792969-.808765-.792969-1.648438s.494655-1.404231.792969-1.648438c.298309-.244201.515128-.33038.707031-.40625.383806-.151734.695993-.212674 1.048828-.271484.705666-.117608 1.530727-.173828 2.451172-.173828h32.779297c1.151057-5.130587 5.757482-9 11.220703-9zm46 0c-5.47785 0-10.09491 3.889921-11.23047 9.041016-.43669.02862-.8473.070582-1.2207.132812-.35284.058806-.66502.119748-1.04883.271484-.1919.07587-.408722.162047-.707031.40625-.29831.244207-.792969.808763-.792969 1.648438s.494659 1.404232.792969 1.648438c.298309.244204.515131.33038.707031.40625.38381.151737.69599.212674 1.04883.271484.3734.062232.78401.104192 1.2207.132812 1.13556 5.151095 5.75262 9.041016 11.23047 9.041016 5.46323 0 10.06964-3.869403 11.2207-9h32.7793c.92045 0 1.7455-.056216 2.45117-.173828.35284-.058806.66502-.119747 1.04883-.271484.1919-.075869.40872-.162046.70703-.40625.29831-.244206.79297-.808763.79297-1.648438s-.49466-1.404231-.79297-1.648438c-.29831-.244203-.51513-.33038-.70703-.40625-.38381-.151736-.69599-.212674-1.04883-.271484-.70567-.117608-1.53072-.173828-2.45117-.173828h-32.7793c-1.15106-5.130597-5.75747-9-11.2207-9zm-46 5c-3.619443 0-6.5 2.880557-6.5 6.5s2.880557 6.5 6.5 6.5 6.5-2.880557 6.5-6.5-2.880557-6.5-6.5-6.5zm46 0c3.61946 0 6.5 2.880549 6.5 6.5s-2.88054 6.5-6.5 6.5c-3.61945 0-6.5-2.880549-6.5-6.5s2.88055-6.5 6.5-6.5z" fill="#e8cb7c"/></svg>