<svg height="808" viewBox="0 0 1167 808" width="1167" xmlns="http://www.w3.org/2000/svg"><path d="m1161.07 389.42c7.35 11.47 7.37 26.16.06 37.66-76.63 120.47-165.93 214.77-265.42 280.26-99.54 65.52-204.44 99.22-311.81 100.16h-.3-.3c-107.37-.94-212.27-34.64-311.81-100.16-99.49-65.49-188.79-159.79-265.42-280.26-7.31-11.5-7.29-26.19.06-37.66 81.12-126.65 172.23-224.42 270.78-290.61 97.38-65.4 199.6-98.55 303.85-98.55.95 0 1.89 0 2.84.01.95-.01 1.9-.01 2.84-.01 104.26 0 206.46 33.14 303.85 98.55 98.55 66.19 189.66 163.96 270.78 290.61zm-708.44-229.33c-10.75 6.48-13.24 20.98-5.15 30.58l129.52 153.64c3.45 4.09 9.75 4.09 13.2 0l129.52-153.64c8.09-9.6 5.6-24.1-5.15-30.58-38.66-23.34-83.37-36.69-130.97-36.69s-92.31 13.35-130.97 36.69zm82.71 238.17-134.6-159.66c-8.69-10.3-24.8-9.45-32.38 1.69-31.39 46.07-49.91 102.58-49.91 163.59 0 60.98 18.5 117.46 49.86 163.53 7.59 11.14 23.7 11.99 32.39 1.69l134.64-159.71c2.71-3.22 2.71-7.92 0-11.13zm41.66 65.08-129.58 153.71c-8.09 9.6-5.6 24.09 5.14 30.58 38.68 23.36 83.41 36.73 131.04 36.73s92.36-13.37 131.04-36.73c10.74-6.49 13.24-20.98 5.14-30.58l-129.58-153.71c-3.45-4.09-9.75-4.09-13.2 0zm-192.2 227.99c.89.41 1.79.83 2.68 1.23-.76-.56-1.51-1.15-2.27-1.73zm394.92 1.24c.89-.41 1.79-.83 2.68-1.24l-.41-.5c-.76.58-1.51 1.17-2.27 1.74zm-147.86-283.18 134.64 159.71c8.69 10.3 24.8 9.45 32.39-1.69 31.36-46.07 49.86-102.55 49.86-163.53 0-61.01-18.52-117.52-49.91-163.59-7.58-11.14-23.69-11.99-32.38-1.69l-134.6 159.66c-2.71 3.21-2.71 7.91 0 11.13zm-533.98 28.79c66.5 93.35 141.09 166.31 220.68 216.83 3.63 2.3 8.42 1.53 11.19-1.76l1.66-1.96c2.7-3.21 2.74-7.94 0-11.13-53.85-62.72-86.66-145.57-86.66-236.28 0-90.74 32.83-173.6 86.7-236.34 2.74-3.19 2.71-7.91 0-11.13-2.81-3.33-7.68-4.08-11.32-1.67-78.75 52.01-153.86 127.3-222.28 223.79-12.68 17.88-12.68 41.8.03 59.65zm750.76 216.83c79.59-50.52 154.18-123.48 220.68-216.83 12.71-17.85 12.71-41.77.03-59.65-68.42-96.49-143.53-171.77-222.28-223.79-3.64-2.4-8.51-1.66-11.32 1.67-2.71 3.22-2.74 7.94-.01 11.13 53.88 62.74 86.71 145.6 86.71 236.34 0 90.71-32.81 173.56-86.66 236.28-2.73 3.19-2.7 7.91.01 11.13l1.65 1.96c2.77 3.29 7.56 4.06 11.19 1.76z" fill-rule="evenodd"/></svg>