<svg height="400" viewBox="0 0 400 400" width="400" xmlns="http://www.w3.org/2000/svg"><path d="m185.989 62.407c-65.028 5.008-127.779 48.894-178.568 124.887-9.541 14.274-9.539 14.387.382 29.198 108.709 162.277 276.416 161.761 385.246-1.187 9.383-14.049 9.414-13.775-3.752-32.902-57.8-83.976-128.581-125.751-203.308-119.996m25.493 42.274c16.188 2.23 35.212 10.533 36.687 16.012.958 3.558.688 4.022-8.973 15.447-8.355 9.88-13.318 15.757-22.926 27.151-15.621 18.524-15.379 18.28-17.26 17.423-.865-.394-3.192-2.967-9.685-10.705-8.634-10.291-14.108-16.796-24.629-29.266-14.027-16.625-13.852-16.354-12.849-19.938 1.634-5.836 22.13-14.586 38.042-16.24 1.979-.206 4.061-.438 4.627-.516 2.034-.278 13.443.146 16.966.632m-98.141 10.278c1.684 1.449 1.375 2.956-1.271 6.212-37.221 45.797-37.466 111.299-.588 157.209 2.988 3.72 3.357 4.722 2.343 6.351-1.678 2.692-3.046 2.627-7.69-.37-19.976-12.887-41.772-33.056-59.46-55.024-21.567-26.784-21.628-27.907-2.859-51.959 19.482-24.967 41.481-46.172 63.233-60.953 3.737-2.539 4.765-2.779 6.292-1.466m179.994 1.665c21.371 14.537 43.238 35.676 62.847 60.754 18.338 23.453 18.356 25.127.523 47.785-19.011 24.152-38.59 42.75-61.075 58.011-6.417 4.355-7.797 4.536-9.505 1.243-.867-1.671-.731-2.002 2.54-6.172 36.408-46.403 36.531-110.347.299-155.865-3.469-4.358-3.743-4.958-2.959-6.473 1.306-2.527 2.773-2.383 7.33.717m-157.575 25.427c1.171.775 3.599 3.554 15.77 18.048 2.151 2.562 8.307 9.877 13.68 16.257s11.804 14.017 14.291 16.971c6.247 7.421 6.43 6.034-2.123 16.148-3.393 4.012-11.319 13.394-17.612 20.847-26.726 31.651-24.055 28.881-27.879 28.915-3.072.027-4.379-.918-7.175-5.187-16.01-24.437-20.066-57.768-10.455-85.927 2.99-8.757 8.099-19.02 12.168-24.441 2.077-2.768 6.46-3.533 9.335-1.631m134.466-.755c2.042.61 3.789 2.577 6.8 7.659 18.931 31.947 18.553 72.078-.979 103.914-3.371 5.495-5.329 6.906-8.853 6.377-2.856-.428-3.65-1.202-14.536-14.164-5.774-6.875-11.427-13.585-12.563-14.91-1.135-1.324-4.072-4.799-6.526-7.721s-7.347-8.733-10.873-12.914c-3.527-4.18-6.572-8.021-6.768-8.535-.58-1.526.529-3.096 10.448-14.79 14.206-16.747 19.566-23.08 28.582-33.766 4.571-5.417 8.651-10.044 9.067-10.282 2.286-1.308 3.951-1.541 6.201-.868m-68.887 78.276c.296.114 3.921 4.24 8.055 9.169s14.411 17.137 22.837 27.129c8.427 9.991 15.471 18.552 15.654 19.023 2.2 5.662-1.112 9.048-14.391 14.712-23.631 10.08-49.886 8.949-73.597-3.171-5.81-2.97-7.45-4.421-8.056-7.13-.833-3.723-.949-3.541 12.008-18.86 4.99-5.9 12.469-14.741 16.619-19.647 4.151-4.906 9.515-11.265 11.922-14.132 6.388-7.609 6.785-7.923 8.949-7.093" fill-rule="evenodd"/></svg>