<svg id="svg" xmlns="http://www.w3.org/2000/svg" xmlns:xlink="http://www.w3.org/1999/xlink" width="400" height="400" viewBox="0, 0, 400,400" version="1.1"><g id="svgg"><path id="path0" d="M189.028 11.630 C 189.535 11.707,190.364 11.707,190.871 11.630 C 191.378 11.553,190.963 11.491,189.950 11.491 C 188.936 11.491,188.522 11.553,189.028 11.630 M209.129 11.630 C 209.636 11.707,210.465 11.707,210.972 11.630 C 211.478 11.553,211.064 11.491,210.050 11.491 C 209.037 11.491,208.622 11.553,209.129 11.630 M184.003 11.956 C 184.326 12.040,184.853 12.040,185.176 11.956 C 185.498 11.872,185.235 11.803,184.590 11.803 C 183.945 11.803,183.681 11.872,184.003 11.956 M214.824 11.956 C 215.147 12.040,215.674 12.040,215.997 11.956 C 216.319 11.872,216.055 11.803,215.410 11.803 C 214.765 11.803,214.502 11.872,214.824 11.956 M180.318 12.291 C 180.641 12.375,181.168 12.375,181.491 12.291 C 181.813 12.207,181.549 12.138,180.905 12.138 C 180.260 12.138,179.996 12.207,180.318 12.291 M214.740 22.638 C 213.911 22.704,212.102 22.923,210.720 23.124 C 209.338 23.325,207.529 23.541,206.700 23.604 C 200.653 24.062,186.072 28.331,177.754 32.078 C 146.573 46.124,124.121 74.587,120.740 104.355 C 120.635 105.276,120.471 106.407,120.376 106.868 C 120.069 108.352,120.024 123.103,120.325 123.493 C 120.485 123.700,120.666 124.846,120.726 126.038 C 120.786 127.231,120.920 128.343,121.024 128.511 C 121.127 128.679,121.313 129.418,121.436 130.153 C 121.827 132.490,122.664 136.157,122.965 136.851 C 123.124 137.219,123.428 138.199,123.638 139.028 C 128.776 159.234,147.323 180.505,169.514 191.644 C 178.260 196.033,194.290 201.420,195.050 200.225 C 195.488 199.536,195.371 199.435,191.876 197.472 C 171.876 186.238,156.842 167.815,152.072 148.692 C 151.688 147.155,151.222 145.293,151.036 144.556 C 150.850 143.819,150.649 142.764,150.589 142.211 C 150.529 141.658,150.317 140.404,150.119 139.424 C 145.530 116.795,156.184 87.612,175.622 69.563 C 190.508 55.742,212.264 45.562,229.518 44.345 C 231.064 44.236,232.518 43.993,232.750 43.805 C 233.261 43.392,249.127 43.265,253.229 43.642 C 273.052 45.463,291.663 53.358,306.305 66.159 C 309.848 69.257,309.910 69.260,307.971 66.248 C 289.084 36.899,252.214 19.652,214.740 22.638 M114.489 31.512 C 113.061 32.242,111.893 32.914,111.893 33.006 C 111.893 33.156,117.220 30.593,117.560 30.279 C 118.035 29.842,116.733 30.365,114.489 31.512 M282.440 30.279 C 282.781 30.593,288.107 33.156,288.107 33.006 C 288.107 32.819,282.895 30.151,282.531 30.151 C 282.404 30.151,282.363 30.209,282.440 30.279 M86.677 34.685 C 85.990 35.153,85.427 35.607,85.427 35.695 C 85.427 35.783,86.030 35.456,86.767 34.969 C 87.937 34.194,88.333 33.836,88.017 33.836 C 87.968 33.836,87.365 34.218,86.677 34.685 M312.563 34.293 C 312.563 34.385,313.015 34.782,313.568 35.176 C 314.121 35.569,314.573 35.816,314.573 35.724 C 314.573 35.632,314.121 35.234,313.568 34.841 C 313.015 34.447,312.563 34.201,312.563 34.293 M134.171 40.230 C 101.176 42.893,70.604 64.554,54.148 96.928 C 52.947 99.292,51.806 101.417,51.613 101.649 C 51.420 101.882,51.338 102.148,51.431 102.241 C 51.599 102.408,50.324 105.593,49.446 107.203 C 49.194 107.663,48.878 108.568,48.744 109.213 C 48.609 109.858,48.301 110.762,48.060 111.223 C 47.819 111.683,47.011 114.322,46.265 117.085 C 37.356 150.111,43.371 183.483,62.537 207.370 C 68.681 215.028,84.137 228.141,87.019 228.141 C 87.199 228.141,87.772 228.475,88.292 228.884 C 88.811 229.293,89.461 229.660,89.736 229.700 C 90.465 229.807,92.462 230.930,92.462 231.232 C 92.462 231.374,92.761 231.491,93.126 231.491 C 93.968 231.491,96.485 232.459,97.179 233.050 C 97.470 233.298,98.063 233.501,98.497 233.501 C 98.931 233.501,99.899 233.787,100.648 234.136 C 101.397 234.485,102.387 234.853,102.848 234.954 C 103.308 235.054,104.966 235.460,106.533 235.856 C 133.024 242.559,162.647 235.185,185.726 216.142 C 189.323 213.175,196.985 205.723,196.985 205.193 C 196.985 203.997,196.160 204.112,193.676 205.658 C 176.114 216.583,153.806 221.226,136.476 217.563 C 135.208 217.295,133.730 216.995,133.191 216.898 C 132.651 216.800,131.144 216.413,129.841 216.037 C 128.537 215.661,126.871 215.207,126.139 215.028 C 125.406 214.849,124.728 214.594,124.631 214.461 C 124.535 214.328,123.551 213.944,122.446 213.608 C 121.340 213.271,119.757 212.657,118.928 212.243 C 118.099 211.829,116.441 211.010,115.243 210.423 C 86.959 196.546,69.392 163.531,71.704 128.593 C 72.405 118.005,75.182 105.420,78.237 98.995 C 79.505 96.327,80.173 94.666,80.124 94.305 C 80.076 93.955,83.145 87.720,85.071 84.255 C 96.137 64.342,120.954 44.138,138.610 40.666 C 139.209 40.549,139.698 40.320,139.698 40.159 C 139.698 39.832,138.997 39.841,134.171 40.230 M89.615 46.763 L 88.610 47.627 89.698 46.906 C 90.297 46.510,90.787 46.120,90.787 46.041 C 90.787 45.790,90.645 45.877,89.615 46.763 M309.213 46.018 C 309.213 46.110,309.665 46.508,310.218 46.901 C 310.771 47.295,311.223 47.541,311.223 47.449 C 311.223 47.357,310.771 46.960,310.218 46.566 C 309.665 46.173,309.213 45.926,309.213 46.018 M328.643 46.671 C 328.643 46.729,329.133 47.219,329.732 47.760 L 330.821 48.744 329.837 47.655 C 328.920 46.640,328.643 46.412,328.643 46.671 M68.823 48.660 L 67.839 49.749 68.928 48.765 C 69.943 47.848,70.171 47.571,69.912 47.571 C 69.854 47.571,69.364 48.061,68.823 48.660 M65.813 51.340 L 64.489 52.764 65.913 51.440 C 66.696 50.711,67.337 50.070,67.337 50.016 C 67.337 49.762,67.045 50.016,65.813 51.340 M57.119 59.631 C 54.914 61.843,53.185 63.652,53.277 63.652 C 53.369 63.652,55.249 61.843,57.454 59.631 C 59.659 57.420,61.388 55.611,61.296 55.611 C 61.204 55.611,59.324 57.420,57.119 59.631 M341.206 58.291 C 342.671 59.765,343.946 60.972,344.038 60.972 C 344.130 60.972,343.006 59.765,341.541 58.291 C 340.076 56.817,338.801 55.611,338.709 55.611 C 338.617 55.611,339.741 56.817,341.206 58.291 M75.523 58.040 L 74.539 59.129 75.628 58.145 C 76.643 57.228,76.871 56.951,76.612 56.951 C 76.554 56.951,76.064 57.441,75.523 58.040 M323.283 57.056 C 323.283 57.114,323.773 57.604,324.372 58.145 L 325.461 59.129 324.477 58.040 C 323.560 57.025,323.283 56.797,323.283 57.056 M71.847 61.390 L 70.184 63.149 71.943 61.487 C 73.577 59.942,73.855 59.631,73.605 59.631 C 73.553 59.631,72.761 60.423,71.847 61.390 M327.806 61.307 C 328.713 62.228,329.531 62.982,329.623 62.982 C 329.715 62.982,329.048 62.228,328.141 61.307 C 327.233 60.385,326.415 59.631,326.323 59.631 C 326.231 59.631,326.898 60.385,327.806 61.307 M66.332 66.499 C 64.959 67.881,63.911 69.012,64.003 69.012 C 64.095 69.012,65.294 67.881,66.667 66.499 C 68.039 65.117,69.087 63.987,68.995 63.987 C 68.903 63.987,67.704 65.117,66.332 66.499 M330.988 64.079 C 330.988 64.129,332.157 65.298,333.585 66.675 L 336.181 69.179 333.677 66.583 C 331.351 64.172,330.988 63.834,330.988 64.079 M51.073 66.080 L 49.749 67.504 51.173 66.180 C 51.956 65.452,52.596 64.811,52.596 64.756 C 52.596 64.503,52.305 64.756,51.073 66.080 M48.388 69.095 L 47.404 70.184 48.492 69.200 C 49.507 68.283,49.735 68.007,49.476 68.007 C 49.419 68.007,48.929 68.497,48.388 69.095 M61.126 72.111 L 59.464 73.869 61.223 72.207 C 62.857 70.662,63.135 70.352,62.885 70.352 C 62.832 70.352,62.041 71.143,61.126 72.111 M338.526 72.027 C 339.433 72.948,340.251 73.702,340.343 73.702 C 340.435 73.702,339.768 72.948,338.861 72.027 C 337.954 71.106,337.136 70.352,337.044 70.352 C 336.951 70.352,337.619 71.106,338.526 72.027 M57.768 75.796 L 56.784 76.884 57.873 75.900 C 58.888 74.983,59.115 74.707,58.857 74.707 C 58.799 74.707,58.309 75.197,57.768 75.796 M341.039 74.812 C 341.039 74.869,341.528 75.359,342.127 75.900 L 343.216 76.884 342.232 75.796 C 341.315 74.781,341.039 74.553,341.039 74.812 M267.002 76.090 C 257.530 77.053,246.110 80.397,237.856 84.624 C 235.160 86.005,234.161 86.573,230.279 88.935 C 228.612 89.949,226.043 91.745,225.112 92.547 C 224.829 92.791,223.547 93.836,222.265 94.868 C 197.889 114.491,186.876 150.816,194.983 184.859 C 196.841 192.665,198.003 196.026,198.802 195.912 C 199.481 195.815,199.499 195.632,199.552 188.107 C 199.688 168.732,204.810 152.736,215.427 138.526 C 217.914 135.197,224.331 128.308,224.945 128.308 C 225.159 128.308,225.652 127.878,226.041 127.353 C 226.907 126.182,234.684 120.268,235.358 120.268 C 235.467 120.268,236.035 119.905,236.622 119.462 C 242.037 115.367,256.153 110.493,266.834 109.029 C 295.588 105.091,331.853 120.227,348.964 143.309 C 349.958 144.649,351.352 146.344,352.061 147.075 C 352.770 147.806,353.538 148.857,353.768 149.411 C 353.997 149.965,354.292 150.419,354.423 150.419 C 354.554 150.419,355.165 151.210,355.781 152.178 C 356.396 153.145,357.378 154.690,357.963 155.611 C 370.190 174.876,375.116 199.421,371.173 221.426 C 370.828 223.352,370.590 224.973,370.645 225.028 C 370.700 225.083,371.589 223.356,372.620 221.190 C 386.421 192.208,382.533 152.680,363.103 124.432 C 362.207 123.130,361.474 121.971,361.474 121.857 C 361.474 121.743,361.030 121.163,360.487 120.569 C 359.944 119.974,359.323 119.060,359.106 118.538 C 358.890 118.015,358.589 117.588,358.438 117.588 C 358.164 117.588,355.109 113.781,355.109 113.440 C 355.109 112.874,343.511 101.751,340.011 98.960 C 318.348 81.686,292.281 73.521,267.002 76.090 M34.919 86.348 C 34.051 87.601,33.769 88.107,33.939 88.107 C 34.018 88.107,34.481 87.504,34.969 86.767 C 35.960 85.269,35.917 84.907,34.919 86.348 M364.979 86.683 C 365.496 87.466,365.982 88.107,366.060 88.107 C 366.302 88.107,365.019 86.068,364.516 85.653 C 364.254 85.436,364.463 85.900,364.979 86.683 M46.566 89.782 C 46.173 90.335,45.926 90.787,46.018 90.787 C 46.110 90.787,46.508 90.335,46.901 89.782 C 47.295 89.229,47.541 88.777,47.449 88.777 C 47.357 88.777,46.960 89.229,46.566 89.782 M353.099 89.782 C 353.492 90.335,353.890 90.787,353.982 90.787 C 354.074 90.787,353.827 90.335,353.434 89.782 C 353.040 89.229,352.643 88.777,352.551 88.777 C 352.459 88.777,352.705 89.229,353.099 89.782 M31.473 114.608 C 30.723 116.101,30.163 117.376,30.229 117.443 C 30.295 117.509,30.982 116.287,31.755 114.728 C 32.528 113.169,33.088 111.893,33.000 111.893 C 32.911 111.893,32.224 113.114,31.473 114.608 M368.245 114.728 C 369.018 116.287,369.705 117.509,369.771 117.443 C 369.920 117.294,367.224 111.893,367.000 111.893 C 366.912 111.893,367.472 113.169,368.245 114.728 M268.174 161.359 C 245.133 164.098,226.669 173.045,210.204 189.447 C 203.892 195.735,203.037 196.815,203.779 197.558 C 204.271 198.050,204.637 197.883,208.188 195.554 C 225.699 184.069,246.730 179.382,265.747 182.728 C 269.110 183.319,274.251 184.532,274.998 184.910 C 275.298 185.062,276.449 185.447,277.554 185.764 C 278.660 186.082,280.158 186.626,280.884 186.973 C 281.609 187.320,282.348 187.605,282.525 187.605 C 283.302 187.605,291.774 192.145,294.996 194.288 C 324.857 214.149,338.659 254.700,328.296 292.127 C 327.914 293.509,327.370 295.469,327.088 296.482 C 326.806 297.496,326.338 298.589,326.050 298.911 C 325.761 299.234,325.618 299.497,325.732 299.497 C 325.846 299.497,325.643 300.188,325.281 301.033 C 324.919 301.877,324.623 302.790,324.623 303.062 C 324.623 304.321,319.747 314.447,316.822 319.263 C 306.278 336.619,289.277 351.271,272.027 357.869 C 270.829 358.327,269.246 358.941,268.509 359.233 L 267.169 359.764 268.342 359.779 C 270.417 359.805,275.432 359.131,279.732 358.249 C 307.034 352.647,331.391 334.158,346.317 307.705 C 348.648 303.574,352.724 294.785,353.463 292.295 C 353.682 291.558,354.132 290.352,354.463 289.615 C 355.947 286.308,358.693 274.329,359.645 267.002 C 364.753 227.716,346.536 188.212,315.601 171.489 C 311.118 169.066,305.954 166.622,304.737 166.349 C 304.210 166.230,303.155 165.852,302.392 165.508 C 301.629 165.165,300.214 164.705,299.246 164.486 C 298.279 164.266,297.487 163.968,297.487 163.821 C 297.487 163.675,297.148 163.565,296.734 163.578 C 296.319 163.590,294.095 163.206,291.792 162.723 C 285.089 161.318,273.937 160.674,268.174 161.359 M28.048 181.487 C 14.160 211.020,17.994 248.811,37.906 278.650 C 38.800 279.989,39.531 281.233,39.531 281.413 C 39.531 281.594,39.665 281.742,39.829 281.742 C 39.993 281.742,40.709 282.645,41.420 283.749 C 42.132 284.853,42.804 285.758,42.915 285.759 C 43.127 285.762,46.231 289.616,46.231 289.875 C 46.231 290.682,58.663 302.207,63.339 305.735 C 93.440 328.450,131.363 333.326,161.977 318.419 C 165.129 316.884,168.892 314.877,169.179 314.578 C 169.672 314.065,172.120 312.563,172.464 312.563 C 172.684 312.563,172.864 312.407,172.864 312.217 C 172.864 311.917,175.075 310.401,175.544 310.378 C 175.637 310.374,176.527 309.582,177.523 308.619 C 178.519 307.656,179.441 306.868,179.572 306.868 C 180.329 306.868,187.489 299.167,190.941 294.640 C 207.014 273.561,212.426 244.578,205.499 216.671 C 203.548 208.810,202.391 205.695,201.423 205.695 C 200.724 205.695,200.640 205.818,200.793 206.616 C 202.446 215.234,200.212 233.088,196.088 244.221 C 193.897 250.137,187.253 262.469,185.620 263.652 C 185.492 263.744,185.171 264.137,184.905 264.525 C 183.282 266.896,176.624 274.037,176.035 274.037 C 175.835 274.037,175.349 274.471,174.956 275.003 C 174.233 275.981,167.795 280.974,166.197 281.796 C 165.718 282.042,165.251 282.321,165.159 282.415 C 161.419 286.237,144.619 292.220,133.721 293.610 C 103.984 297.404,66.884 281.600,50.921 258.340 C 50.276 257.400,49.598 256.628,49.414 256.623 C 49.229 256.619,48.557 255.824,47.919 254.857 C 47.282 253.890,46.590 252.948,46.383 252.764 C 45.243 251.753,40.596 244.046,38.053 238.950 C 28.986 220.778,25.569 197.227,29.519 180.133 C 30.106 177.593,29.705 177.963,28.048 181.487 M12.138 180.905 C 12.138 181.549,12.207 181.813,12.291 181.491 C 12.375 181.168,12.375 180.641,12.291 180.318 C 12.207 179.996,12.138 180.260,12.138 180.905 M387.682 180.905 C 387.682 181.549,387.751 181.813,387.836 181.491 C 387.920 181.168,387.920 180.641,387.836 180.318 C 387.751 179.996,387.682 180.260,387.682 180.905 M11.803 184.590 C 11.803 185.235,11.872 185.498,11.956 185.176 C 12.040 184.853,12.040 184.326,11.956 184.003 C 11.872 183.681,11.803 183.945,11.803 184.590 M388.017 184.590 C 388.017 185.235,388.086 185.498,388.171 185.176 C 388.255 184.853,388.255 184.326,388.171 184.003 C 388.086 183.681,388.017 183.945,388.017 184.590 M11.491 189.950 C 11.491 190.963,11.553 191.378,11.630 190.871 C 11.707 190.364,11.707 189.535,11.630 189.028 C 11.553 188.522,11.491 188.936,11.491 189.950 M388.375 189.950 C 388.375 190.963,388.438 191.378,388.515 190.871 C 388.591 190.364,388.591 189.535,388.515 189.028 C 388.438 188.522,388.375 188.936,388.375 189.950 M204.817 202.498 C 204.556 203.177,204.355 203.020,207.538 204.619 C 227.923 214.866,246.192 236.375,249.710 254.271 C 249.801 254.732,250.116 256.004,250.410 257.097 C 250.704 258.191,250.871 259.279,250.780 259.516 C 250.690 259.752,250.746 260.026,250.906 260.124 C 252.917 261.367,252.941 281.055,250.944 290.620 C 244.217 322.840,213.198 352.322,180.067 357.986 C 179.698 358.049,178.794 358.249,178.057 358.431 C 177.320 358.613,175.511 358.864,174.037 358.988 C 172.563 359.112,171.198 359.339,171.005 359.492 C 169.813 360.434,154.996 360.732,147.691 359.962 C 128.180 357.903,108.240 349.450,96.058 338.073 C 90.476 332.859,98.874 344.563,105.612 351.387 C 122.033 368.018,146.129 378.981,169.347 380.385 C 171.189 380.497,173.903 380.665,175.377 380.759 C 178.508 380.959,192.641 380.271,193.132 379.895 C 193.317 379.754,194.447 379.541,195.645 379.420 C 199.358 379.047,206.978 377.239,212.884 375.330 C 250.261 363.249,276.850 333.107,281.549 297.487 C 282.029 293.852,282.141 277.387,281.686 277.387 C 281.559 277.387,281.368 276.520,281.262 275.461 C 281.155 274.401,280.835 272.575,280.550 271.403 C 280.265 270.230,280.109 269.193,280.203 269.099 C 280.298 269.004,280.175 268.531,279.931 268.048 C 279.687 267.565,279.378 266.566,279.244 265.829 C 279.111 265.092,278.886 264.338,278.743 264.154 C 278.601 263.970,278.381 263.367,278.254 262.814 C 274.057 244.479,254.841 222.481,233.501 211.582 C 223.139 206.291,205.505 200.705,204.817 202.498 M11.491 210.050 C 11.491 211.064,11.553 211.478,11.630 210.972 C 11.707 210.465,11.707 209.636,11.630 209.129 C 11.553 208.622,11.491 209.037,11.491 210.050 M388.375 210.050 C 388.375 211.064,388.438 211.478,388.515 210.972 C 388.591 210.465,388.591 209.636,388.515 209.129 C 388.438 208.622,388.375 209.037,388.375 210.050 M11.803 215.410 C 11.803 216.055,11.872 216.319,11.956 215.997 C 12.040 215.674,12.040 215.147,11.956 214.824 C 11.872 214.502,11.803 214.765,11.803 215.410 M388.017 215.410 C 388.017 216.055,388.086 216.319,388.171 215.997 C 388.255 215.674,388.255 215.147,388.171 214.824 C 388.086 214.502,388.017 214.765,388.017 215.410 M30.151 282.531 C 30.151 282.895,32.819 288.107,33.006 288.107 C 33.156 288.107,30.593 282.781,30.279 282.440 C 30.209 282.363,30.151 282.404,30.151 282.531 M368.245 285.272 C 367.472 286.831,366.912 288.107,367.000 288.107 C 367.224 288.107,369.920 282.706,369.771 282.557 C 369.705 282.491,369.018 283.713,368.245 285.272 M46.566 310.218 C 46.960 310.771,47.357 311.223,47.449 311.223 C 47.541 311.223,47.295 310.771,46.901 310.218 C 46.508 309.665,46.110 309.213,46.018 309.213 C 45.926 309.213,46.173 309.665,46.566 310.218 M34.403 312.924 C 34.736 313.491,35.222 314.131,35.484 314.347 C 35.746 314.564,35.537 314.100,35.021 313.317 C 33.936 311.672,33.509 311.400,34.403 312.924 M56.951 323.388 C 56.951 323.446,57.441 323.936,58.040 324.477 L 59.129 325.461 58.145 324.372 C 57.228 323.357,56.951 323.129,56.951 323.388 M341.855 324.372 L 340.871 325.461 341.960 324.477 C 342.559 323.936,343.049 323.446,343.049 323.388 C 343.049 323.129,342.772 323.357,341.855 324.372 M61.139 327.973 C 62.046 328.894,62.864 329.648,62.956 329.648 C 63.049 329.648,62.381 328.894,61.474 327.973 C 60.567 327.052,59.749 326.298,59.657 326.298 C 59.565 326.298,60.232 327.052,61.139 327.973 M338.513 328.057 L 336.851 329.816 338.610 328.153 C 340.244 326.609,340.522 326.298,340.272 326.298 C 340.219 326.298,339.428 327.090,338.513 328.057 M63.987 331.080 C 63.987 331.131,65.155 332.299,66.583 333.677 L 69.179 336.181 66.675 333.585 C 64.349 331.173,63.987 330.835,63.987 331.080 M333.333 333.501 C 331.961 334.883,330.913 336.013,331.005 336.013 C 331.097 336.013,332.296 334.883,333.668 333.501 C 335.041 332.119,336.089 330.988,335.997 330.988 C 335.905 330.988,334.706 332.119,333.333 333.501 M71.859 338.693 C 72.767 339.615,73.585 340.369,73.677 340.369 C 73.769 340.369,73.102 339.615,72.194 338.693 C 71.287 337.772,70.469 337.018,70.377 337.018 C 70.285 337.018,70.952 337.772,71.859 338.693 M327.793 338.777 L 326.131 340.536 327.889 338.874 C 329.524 337.329,329.802 337.018,329.552 337.018 C 329.499 337.018,328.707 337.810,327.793 338.777 M74.707 341.143 C 74.707 341.201,75.197 341.691,75.796 342.232 L 76.884 343.216 75.900 342.127 C 74.983 341.112,74.707 340.885,74.707 341.143 M324.100 342.127 L 323.116 343.216 324.204 342.232 C 324.803 341.691,325.293 341.201,325.293 341.143 C 325.293 340.885,325.017 341.112,324.100 342.127 M333.480 349.162 L 332.496 350.251 333.585 349.267 C 334.183 348.726,334.673 348.236,334.673 348.179 C 334.673 347.920,334.397 348.148,333.480 349.162 M330.800 351.508 L 329.816 352.596 330.905 351.612 C 331.503 351.071,331.993 350.581,331.993 350.524 C 331.993 350.265,331.717 350.493,330.800 351.508 M312.945 365.165 C 310.959 366.471,310.749 366.773,312.498 365.809 C 313.292 365.372,314.102 364.821,314.298 364.584 C 314.790 363.991,314.623 364.063,312.945 365.165 M111.893 367.000 C 111.893 367.224,117.294 369.920,117.443 369.771 C 117.509 369.705,116.287 369.018,114.728 368.245 C 113.169 367.472,111.893 366.912,111.893 367.000 M285.092 368.342 C 283.526 369.152,282.361 369.823,282.503 369.832 C 282.859 369.856,288.107 367.201,288.107 366.998 C 288.107 366.771,288.249 366.708,285.092 368.342 M180.318 387.836 C 180.641 387.920,181.168 387.920,181.491 387.836 C 181.813 387.751,181.549 387.682,180.905 387.682 C 180.260 387.682,179.996 387.751,180.318 387.836 M184.003 388.171 C 184.326 388.255,184.853 388.255,185.176 388.171 C 185.498 388.086,185.235 388.017,184.590 388.017 C 183.945 388.017,183.681 388.086,184.003 388.171 M214.824 388.171 C 215.147 388.255,215.674 388.255,215.997 388.171 C 216.319 388.086,216.055 388.017,215.410 388.017 C 214.765 388.017,214.502 388.086,214.824 388.171 M189.028 388.515 C 189.535 388.591,190.364 388.591,190.871 388.515 C 191.378 388.438,190.963 388.375,189.950 388.375 C 188.936 388.375,188.522 388.438,189.028 388.515 M209.129 388.515 C 209.636 388.591,210.465 388.591,210.972 388.515 C 211.478 388.438,211.064 388.375,210.050 388.375 C 209.037 388.375,208.622 388.438,209.129 388.515 " stroke="none" fill="#93449b" fill-rule="evenodd"></path><path id="path1" d="M182.915 0.518 C 165.949 1.950,142.512 6.995,133.179 11.224 C 132.251 11.644,129.757 12.664,127.638 13.489 C 106.878 21.571,87.805 32.794,71.910 46.280 C 70.096 47.819,68.389 49.229,68.117 49.414 C 66.786 50.317,49.581 67.479,49.581 67.903 C 49.581 67.984,48.323 69.510,46.784 71.294 C 33.684 86.493,22.028 106.020,14.251 125.796 C 13.020 128.928,11.586 132.471,11.065 133.668 C 8.735 139.028,4.502 154.964,2.878 164.489 C -7.479 225.247,8.325 282.743,48.714 331.255 C 57.097 341.323,73.260 355.931,84.171 363.300 C 85.230 364.015,86.097 364.735,86.097 364.900 C 86.097 365.064,86.249 365.105,86.435 364.990 C 86.620 364.875,86.862 365.017,86.973 365.305 C 87.083 365.593,87.313 365.829,87.483 365.829 C 87.654 365.829,89.560 366.995,91.719 368.419 C 93.878 369.844,95.720 371.016,95.812 371.024 C 95.905 371.032,97.035 371.656,98.325 372.410 C 108.014 378.075,116.052 381.960,126.801 386.176 C 129.380 387.187,132.251 388.359,133.179 388.778 C 142.770 393.113,166.057 398.076,183.503 399.504 C 210.729 401.733,248.900 396.822,266.821 388.784 C 267.749 388.368,271.072 387.010,274.204 385.767 C 293.723 378.022,312.720 366.721,328.090 353.713 C 329.904 352.178,331.605 350.771,331.869 350.586 C 335.764 347.866,349.883 333.314,355.006 326.739 C 358.368 322.424,361.919 317.737,363.146 315.997 C 363.957 314.845,364.751 313.903,364.910 313.903 C 365.069 313.903,365.105 313.751,364.990 313.565 C 364.875 313.380,365.017 313.138,365.305 313.027 C 365.593 312.917,365.829 312.652,365.829 312.440 C 365.829 312.227,366.521 311.022,367.367 309.761 C 374.010 299.858,380.912 286.507,385.748 274.204 C 386.979 271.072,388.337 267.755,388.765 266.834 C 389.873 264.448,393.714 251.526,395.110 245.484 C 401.735 216.828,401.732 183.159,395.102 154.481 C 393.434 147.267,390.077 136.102,388.591 132.831 C 388.257 132.094,386.977 128.928,385.747 125.796 C 369.285 83.858,338.300 48.314,298.558 25.777 C 296.587 24.660,294.749 23.609,294.472 23.443 C 291.815 21.847,278.931 16.046,272.362 13.489 C 270.243 12.664,267.749 11.644,266.821 11.224 C 249.096 3.193,210.131 -1.779,182.915 0.518 M214.422 11.739 C 307.392 18.936,381.064 92.608,388.261 185.578 C 396.293 289.335,318.345 380.216,214.422 388.261 C 137.963 394.180,64.594 352.479,30.841 283.920 C -13.020 194.830,18.815 87.791,104.188 37.299 C 136.937 17.930,176.348 8.792,214.422 11.739 " stroke="none" fill="#fbfbfb" fill-rule="evenodd"></path><path id="path2" d="M187.696 11.750 C 88.754 18.056,11.387 100.666,11.393 200.000 C 11.399 304.182,95.831 388.613,200.000 388.607 C 304.186 388.601,388.601 304.186,388.607 200.000 C 388.613 91.049,296.575 4.810,187.696 11.750 M238.259 23.417 C 268.250 27.846,293.073 43.097,307.971 66.248 C 309.910 69.260,309.848 69.257,306.305 66.159 C 291.663 53.358,273.052 45.463,253.229 43.642 C 249.127 43.265,233.261 43.392,232.750 43.805 C 232.518 43.993,231.064 44.236,229.518 44.345 C 212.264 45.562,190.508 55.742,175.622 69.563 C 156.184 87.612,145.530 116.795,150.119 139.424 C 150.317 140.404,150.529 141.658,150.589 142.211 C 150.649 142.764,150.850 143.819,151.036 144.556 C 151.222 145.293,151.688 147.155,152.072 148.692 C 156.842 167.815,171.876 186.238,191.876 197.472 C 193.765 198.533,195.308 199.498,195.305 199.617 C 195.238 202.423,174.041 194.802,162.638 187.872 C 143.902 176.487,128.145 156.753,123.638 139.028 C 123.428 138.199,123.124 137.219,122.965 136.851 C 122.664 136.157,121.827 132.490,121.436 130.153 C 121.313 129.418,121.127 128.679,121.024 128.511 C 120.920 128.343,120.786 127.231,120.726 126.038 C 120.666 124.846,120.485 123.700,120.325 123.493 C 120.024 123.103,120.069 108.352,120.376 106.868 C 120.471 106.407,120.635 105.276,120.740 104.355 C 124.121 74.587,146.573 46.124,177.754 32.078 C 186.072 28.331,200.653 24.062,206.700 23.604 C 207.529 23.541,209.338 23.325,210.720 23.124 C 216.758 22.245,231.372 22.400,238.259 23.417 M139.698 40.159 C 139.698 40.320,139.209 40.549,138.610 40.666 C 120.954 44.138,96.137 64.342,85.071 84.255 C 83.145 87.720,80.076 93.955,80.124 94.305 C 80.173 94.666,79.505 96.327,78.237 98.995 C 75.182 105.420,72.405 118.005,71.704 128.593 C 69.392 163.531,86.959 196.546,115.243 210.423 C 116.441 211.010,118.099 211.829,118.928 212.243 C 119.757 212.657,121.340 213.271,122.446 213.608 C 123.551 213.944,124.535 214.328,124.631 214.461 C 124.728 214.594,125.406 214.849,126.139 215.028 C 126.871 215.207,128.537 215.661,129.841 216.037 C 131.144 216.413,132.651 216.800,133.191 216.898 C 133.730 216.995,135.208 217.295,136.476 217.563 C 153.806 221.226,176.114 216.583,193.676 205.658 C 196.160 204.112,196.985 203.997,196.985 205.193 C 196.985 205.723,189.323 213.175,185.726 216.142 C 162.647 235.185,133.024 242.559,106.533 235.856 C 104.966 235.460,103.308 235.054,102.848 234.954 C 102.387 234.853,101.397 234.485,100.648 234.136 C 99.899 233.787,98.931 233.501,98.497 233.501 C 98.063 233.501,97.470 233.298,97.179 233.050 C 96.485 232.459,93.968 231.491,93.126 231.491 C 92.761 231.491,92.462 231.374,92.462 231.232 C 92.462 230.930,90.465 229.807,89.736 229.700 C 89.461 229.660,88.811 229.293,88.292 228.884 C 87.772 228.475,87.199 228.141,87.019 228.141 C 86.270 228.141,76.772 221.524,73.605 218.796 C 46.150 195.144,35.698 156.259,46.265 117.085 C 47.011 114.322,47.819 111.683,48.060 111.223 C 48.301 110.762,48.609 109.858,48.744 109.213 C 48.878 108.568,49.194 107.663,49.446 107.203 C 50.324 105.593,51.599 102.408,51.431 102.241 C 51.338 102.148,51.420 101.882,51.613 101.649 C 51.806 101.417,52.947 99.292,54.148 96.928 C 70.604 64.554,101.176 42.893,134.171 40.230 C 138.997 39.841,139.698 39.832,139.698 40.159 M337.186 54.271 C 337.906 55.008,338.570 55.611,338.662 55.611 C 338.754 55.611,338.241 55.008,337.521 54.271 C 336.801 53.534,336.137 52.931,336.045 52.931 C 335.953 52.931,336.466 53.534,337.186 54.271 M62.123 54.690 L 61.139 55.779 62.228 54.795 C 63.243 53.878,63.471 53.601,63.212 53.601 C 63.154 53.601,62.664 54.091,62.123 54.690 M285.260 76.050 C 304.317 77.797,323.579 85.857,340.011 98.960 C 343.511 101.751,355.109 112.874,355.109 113.440 C 355.109 113.781,358.164 117.588,358.438 117.588 C 358.589 117.588,358.890 118.015,359.106 118.538 C 359.323 119.060,359.944 119.974,360.487 120.569 C 361.030 121.163,361.474 121.743,361.474 121.857 C 361.474 121.971,362.207 123.130,363.103 124.432 C 380.671 149.973,385.675 184.756,375.878 213.233 C 374.635 216.847,370.895 225.278,370.645 225.028 C 370.590 224.973,370.828 223.352,371.173 221.426 C 375.116 199.421,370.190 174.876,357.963 155.611 C 357.378 154.690,356.396 153.145,355.781 152.178 C 355.165 151.210,354.554 150.419,354.423 150.419 C 354.292 150.419,353.997 149.965,353.768 149.411 C 353.538 148.857,352.770 147.806,352.061 147.075 C 351.352 146.344,349.958 144.649,348.964 143.309 C 331.853 120.227,295.588 105.091,266.834 109.029 C 256.153 110.493,242.037 115.367,236.622 119.462 C 236.035 119.905,235.467 120.268,235.358 120.268 C 234.684 120.268,226.907 126.182,226.041 127.353 C 225.652 127.878,225.159 128.308,224.945 128.308 C 224.331 128.308,217.914 135.197,215.427 138.526 C 204.810 152.736,199.688 168.732,199.552 188.107 C 199.470 199.730,198.331 198.921,194.983 184.859 C 186.876 150.816,197.889 114.491,222.265 94.868 C 223.547 93.836,224.829 92.791,225.112 92.547 C 226.043 91.745,228.612 89.949,230.279 88.935 C 234.161 86.573,235.160 86.005,237.856 84.624 C 251.505 77.634,268.669 74.529,285.260 76.050 M284.352 161.492 C 286.141 161.686,289.489 162.240,291.792 162.723 C 294.095 163.206,296.319 163.590,296.734 163.578 C 297.148 163.565,297.487 163.675,297.487 163.821 C 297.487 163.968,298.279 164.266,299.246 164.486 C 300.214 164.705,301.629 165.165,302.392 165.508 C 303.155 165.852,304.210 166.230,304.737 166.349 C 305.954 166.622,311.118 169.066,315.601 171.489 C 350.858 190.548,368.153 236.401,356.934 281.072 C 355.502 286.774,355.073 288.254,354.463 289.615 C 354.132 290.352,353.682 291.558,353.463 292.295 C 352.724 294.785,348.648 303.574,346.317 307.705 C 331.391 334.158,307.034 352.647,279.732 358.249 C 275.432 359.131,270.417 359.805,268.342 359.779 L 267.169 359.764 268.509 359.233 C 269.246 358.941,270.829 358.327,272.027 357.869 C 289.277 351.271,306.278 336.619,316.822 319.263 C 319.747 314.447,324.623 304.321,324.623 303.062 C 324.623 302.790,324.919 301.877,325.281 301.033 C 325.643 300.188,325.846 299.497,325.732 299.497 C 325.618 299.497,325.761 299.234,326.050 298.911 C 326.338 298.589,326.806 297.496,327.088 296.482 C 327.370 295.469,327.914 293.509,328.296 292.127 C 338.659 254.700,324.857 214.149,294.996 194.288 C 291.774 192.145,283.302 187.605,282.525 187.605 C 282.348 187.605,281.609 187.320,280.884 186.973 C 280.158 186.626,278.660 186.082,277.554 185.764 C 276.449 185.447,275.298 185.062,274.998 184.910 C 274.251 184.532,269.110 183.319,265.747 182.728 C 246.730 179.382,225.699 184.069,208.188 195.554 C 204.637 197.883,204.271 198.050,203.779 197.558 C 203.037 196.815,203.892 195.735,210.204 189.447 C 226.669 173.045,245.133 164.098,268.174 161.359 C 270.533 161.079,281.362 161.168,284.352 161.492 M29.519 180.133 C 25.569 197.227,28.986 220.778,38.053 238.950 C 40.596 244.046,45.243 251.753,46.383 252.764 C 46.590 252.948,47.282 253.890,47.919 254.857 C 48.557 255.824,49.229 256.619,49.414 256.623 C 49.598 256.628,50.276 257.400,50.921 258.340 C 66.884 281.600,103.984 297.404,133.721 293.610 C 144.619 292.220,161.419 286.237,165.159 282.415 C 165.251 282.321,165.718 282.042,166.197 281.796 C 167.795 280.974,174.233 275.981,174.956 275.003 C 175.349 274.471,175.835 274.037,176.035 274.037 C 176.624 274.037,183.282 266.896,184.905 264.525 C 185.171 264.137,185.492 263.744,185.620 263.652 C 187.253 262.469,193.897 250.137,196.088 244.221 C 200.212 233.088,202.446 215.234,200.793 206.616 C 200.640 205.818,200.724 205.695,201.423 205.695 C 202.391 205.695,203.548 208.810,205.499 216.671 C 212.426 244.578,207.014 273.561,190.941 294.640 C 187.489 299.167,180.329 306.868,179.572 306.868 C 179.441 306.868,178.519 307.656,177.523 308.619 C 176.527 309.582,175.637 310.374,175.544 310.378 C 175.075 310.401,172.864 311.917,172.864 312.217 C 172.864 312.407,172.684 312.563,172.464 312.563 C 172.120 312.563,169.672 314.065,169.179 314.578 C 168.892 314.877,165.129 316.884,161.977 318.419 C 131.363 333.326,93.440 328.450,63.339 305.735 C 58.663 302.207,46.231 290.682,46.231 289.875 C 46.231 289.616,43.127 285.762,42.915 285.759 C 42.804 285.758,42.132 284.853,41.420 283.749 C 40.709 282.645,39.993 281.742,39.829 281.742 C 39.665 281.742,39.531 281.594,39.531 281.413 C 39.531 281.233,38.800 279.989,37.906 278.650 C 17.994 248.811,14.160 211.020,28.048 181.487 C 29.705 177.963,30.106 177.593,29.519 180.133 M212.228 203.534 C 239.666 210.708,260.899 227.080,273.250 250.586 C 274.884 253.695,277.796 260.811,278.254 262.814 C 278.381 263.367,278.601 263.970,278.743 264.154 C 278.886 264.338,279.111 265.092,279.244 265.829 C 279.378 266.566,279.687 267.565,279.931 268.048 C 280.175 268.531,280.298 269.004,280.203 269.099 C 280.109 269.193,280.265 270.230,280.550 271.403 C 280.835 272.575,281.155 274.401,281.262 275.461 C 281.368 276.520,281.559 277.387,281.686 277.387 C 282.141 277.387,282.029 293.852,281.549 297.487 C 276.850 333.107,250.261 363.249,212.884 375.330 C 206.978 377.239,199.358 379.047,195.645 379.420 C 194.447 379.541,193.317 379.754,193.132 379.895 C 192.641 380.271,178.508 380.959,175.377 380.759 C 173.903 380.665,171.189 380.497,169.347 380.385 C 146.129 378.981,122.033 368.018,105.612 351.387 C 98.874 344.563,90.476 332.859,96.058 338.073 C 108.240 349.450,128.180 357.903,147.691 359.962 C 154.996 360.732,169.813 360.434,171.005 359.492 C 171.198 359.339,172.563 359.112,174.037 358.988 C 175.511 358.864,177.320 358.613,178.057 358.431 C 178.794 358.249,179.698 358.049,180.067 357.986 C 213.198 352.322,244.217 322.840,250.944 290.620 C 252.941 281.055,252.917 261.367,250.906 260.124 C 250.746 260.026,250.690 259.752,250.780 259.516 C 250.871 259.279,250.704 258.191,250.410 257.097 C 250.116 256.004,249.801 254.732,249.710 254.271 C 246.192 236.375,227.923 214.866,207.538 204.619 C 204.355 203.020,204.556 203.177,204.817 202.498 C 205.082 201.808,206.255 201.972,212.228 203.534 " stroke="none" fill="#040404" fill-rule="evenodd"></path></g></svg>