<svg height="580" viewBox="0 0 580 580" width="580" xmlns="http://www.w3.org/2000/svg" xmlns:xlink="http://www.w3.org/1999/xlink"><clipPath id="a"><path d="m-10-10h600v600h-600z"/></clipPath><g clip-path="url(#a)"><path d="m290 574.34c-3.92 0-7.6-1.51-10.38-4.29l-269.65-269.65c-2.79-2.78-4.3-6.46-4.3-10.38s1.51-7.64 4.3-10.39l269.65-269.68c2.78-2.75 6.46-4.3 10.38-4.3s7.6 1.55 10.38 4.3l269.65 269.68c2.79 2.75 4.3 6.47 4.3 10.39s-1.51 7.6-4.3 10.38l-269.65 269.65c-2.78 2.78-6.46 4.29-10.38 4.29z" fill="#d28cbf"/><path d="m303.93 6.45 269.64 269.64c7.7 7.7 7.7 20.15 0 27.82l-269.64 269.68c-3.86 3.82-8.91 5.74-13.93 5.74s-10.07-1.92-13.93-5.74l-269.64-269.68c-7.7-7.67-7.7-20.12 0-27.82l269.64-269.64c3.86-3.86 8.91-5.78 13.93-5.78s10.07 1.92 13.93 5.78zm-20.77 7.04-269.65 269.68c-3.78 3.75-3.78 9.91 0 13.69l269.65 269.65c1.82 1.82 4.26 2.85 6.84 2.85s5.02-1.03 6.84-2.85l269.65-269.65c3.78-3.78 3.78-9.94 0-13.69l-269.65-269.68c-1.82-1.82-4.26-2.82-6.84-2.82s-5.02 1-6.84 2.82z" fill="#fff" fill-rule="evenodd"/><path d="m292.66 509.87c-9.03-22.33-28.18-42.9-57.45-61.72-43.77-28.16-131.08-130.35-98.38-230.14 23.35 29.4 53.88-4.57 60.69-32.59 6.84-28.03 12.48-59.94 40.51-71.56-2.07 20.49 25.13 22.8 36.07 15.99 13.54-8.49 26.2-31.22 15.2-65.19 59.52 34.55 31.7 86.75 58.07 96.38 21.97 7.97 22.56-21.22 21.87-27.37 46.56 27.74 68.32 82.04 64.33 150.09-4.26 72.48-35.62 115.98-87.26 158.2-27.49 22.49-45.37 45.12-53.65 67.91z" fill="#fff"/><path d="m366.22 237.18c-7.88-7.88-12.15-16.21-12.79-24.96-13.87.43-26.14-1.37-36.83-5.4-10.7-4.04-19.57-8.76-26.61-14.17-7.04 5.41-15.9 10.13-26.58 14.17-10.68 4.03-22.96 5.83-36.83 5.4-.64 8.75-4.9 17.08-12.79 24.96-7.91 7.89-15.38 14.08-22.42 18.57 3.01 59.07 14.1 99.92 33.29 122.55 19.21 22.6 40.99 38.92 65.33 48.96 24.37-10.04 46.16-26.36 65.37-48.96 19.18-22.63 30.27-63.48 33.25-122.55-7.04-4.49-14.5-10.68-22.39-18.57z" fill="#d28cbf"/></g></svg>