<svg viewBox="0 0 578.7 578.7" xmlns="http://www.w3.org/2000/svg" xmlns:xlink="http://www.w3.org/1999/xlink"><clipPath id="a" transform="translate(-10.65 -10.65)"><path d="m0 0h600v600h-600z"/></clipPath><g clip-path="url(#a)"><path d="m300 584.35a14.56 14.56 0 0 1 -10.37-4.29l-269.69-269.69a14.68 14.68 0 0 1 0-20.74l269.69-269.69a14.68 14.68 0 0 1 20.74 0l269.69 269.69a14.68 14.68 0 0 1 0 20.74l-269.69 269.69a14.56 14.56 0 0 1 -10.37 4.29" fill="#e46225" transform="translate(-10.65 -10.65)"/><g fill="#fff"><path d="m300 20.65a9.66 9.66 0 0 1 6.86 2.83l269.66 269.66a9.72 9.72 0 0 1 0 13.72l-269.66 269.66a9.73 9.73 0 0 1 -13.72 0l-269.66-269.66a9.72 9.72 0 0 1 0-13.72l269.66-269.66a9.66 9.66 0 0 1 6.86-2.83m0-10a19.61 19.61 0 0 0 -13.91 5.78l-269.66 269.66a19.64 19.64 0 0 0 0 27.82l269.66 269.66a19.63 19.63 0 0 0 27.82 0l269.66-269.66a19.64 19.64 0 0 0 0-27.82l-269.66-269.66a19.61 19.61 0 0 0 -13.91-5.78" transform="translate(-10.65 -10.65)"/><path d="m470.05 226.21c-127.62-40.32-230.22 55.31-353.48 25.36 4.19 8.14 32.45 26.41 58.05 31.34 6.76 1.28 12.26 5 13.14 12.12 2.7 22-5.74 32.76-8.88 46.1-3.89 16.38 2.23 31.1 15.46 28 19.46-4.56 12.6-34.13 7.66-56.13-2.43-10.9-.43-25 9.09-25.22 7.8-.17 16.85 0 22.66 0 28.74 0 47.08 14.72 50.11 28.84 5.21 24.14-5.6 39.14-8.24 42.75-16.07 22.22-24.18 33-24.18 51.67a47.27 47.27 0 1 0 94.56-.04c0-18.67-8.11-29.45-24.18-51.67-2.8-3.88-9.66-14.05-10.87-25.9-2.54-24.48 13.27-74.19 66.42-75.31.75 0 14.19-.07 19.42 2 12 4.76 4.59 23.58 3.61 31.88-2.36 19.62 17.23 22.33 20.37 4.26 2.87-16.79-5.74-22.8-4.26-33.47 1.18-8.54 6.69-11.45 14.49-14 21.11-6.86 33.7-15 39-22.56m-144.79 158.84c22.12 37.41-8.41 58.79-21.75 51.56a1.52 1.52 0 0 1 0-2.66c6.35-3.38 23.24-11.39 21-48.7a.36.36 0 0 1 .68-.2" transform="translate(-10.65 -10.65)"/></g></g></svg>