<svg id="svg"
    xmlns="http://www.w3.org/2000/svg"
    xmlns:xlink="http://www.w3.org/1999/xlink" width="400" height="400" viewBox="0, 0, 400,400" version="1.1">
    <g id="svgg">
        <path id="path0" d="M186.318 73.258 C 175.427 80.284,169.418 91.463,169.403 104.726 C 169.396 111.163,169.820 112.838,173.881 122.424 C 179.653 136.048,179.828 138.788,175.233 143.573 C 169.987 149.037,163.444 147.400,157.647 139.175 C 151.246 130.092,143.246 126.617,134.479 129.110 C 131.472 129.966,131.485 130.067,135.086 133.770 C 146.006 144.998,148.861 157.665,143.862 172.705 C 142.952 175.442,140.912 179.736,137.452 186.197 C 123.447 212.346,124.227 235.059,139.477 245.160 C 141.239 246.327,141.113 246.382,142.083 244.036 C 144.894 237.238,149.974 229.059,161.698 212.453 C 176.939 190.867,182.494 181.017,189.945 162.364 C 193.927 152.394,195.999 150.468,202.701 150.503 C 208.743 150.535,210.932 152.797,215.018 163.234 C 217.632 169.911,220.667 176.470,224.394 183.496 C 229.225 192.605,232.307 197.425,242.909 212.453 C 252.228 225.664,253.303 227.248,256.074 231.874 C 258.395 235.746,258.373 235.725,259.485 235.150 C 265.349 232.118,267.646 222.278,265.590 209.002 C 264.581 202.484,265.151 197.168,267.796 188.447 C 271.620 175.838,272.258 172.608,272.238 165.941 C 272.209 156.476,268.376 147.931,261.841 142.766 L 260.344 141.582 259.677 144.299 C 256.978 155.305,245.642 160.273,238.420 153.616 C 236.061 151.442,235.420 149.446,235.437 144.336 C 235.453 139.823,235.623 138.649,237.349 131.149 C 241.226 114.293,238.783 106.105,227.349 97.628 C 225.267 96.085,224.984 96.026,225.402 97.225 C 226.540 100.491,222.957 105.097,217.089 107.908 C 200.725 115.748,182.609 94.990,188.125 74.719 C 189.020 71.428,189.080 71.476,186.318 73.258 M201.404 160.325 C 201.228 160.537,200.188 162.934,199.092 165.652 C 196.201 172.821,194.446 176.725,191.006 183.646 C 184.590 196.551,182.049 200.639,169.089 218.905 C 150.365 245.296,146.403 254.458,146.381 271.418 C 146.332 310.199,183.085 337.140,219.805 325.240 C 245.312 316.973,261.102 291.811,257.909 264.519 C 256.296 250.730,251.368 240.904,233.752 216.354 C 220.284 197.585,213.089 184.714,205.682 166.141 C 203.207 159.935,202.512 158.990,201.404 160.325 " stroke="none" fill="#fbfbfb" fill-rule="evenodd"></path>
        <path id="path1" d="M196.979 1.505 C 194.631 2.667,1.945 195.941,1.212 197.869 C 0.798 198.958,0.839 201.304,1.289 202.301 C 2.110 204.120,169.965 372.564,191.269 392.948 L 197.227 398.649 199.575 398.755 L 201.923 398.862 204.412 396.526 C 215.804 385.836,348.498 253.584,379.698 221.824 C 400.497 200.652,399.534 201.830,398.757 198.500 C 398.289 196.492,390.429 188.480,306.088 104.030 C 237.997 35.852,203.709 1.903,202.319 1.289 C 201.011 0.711,198.366 0.818,196.979 1.505 M188.742 72.243 C 188.739 72.367,188.461 73.481,188.125 74.719 C 182.609 94.990,200.725 115.748,217.089 107.908 C 222.957 105.097,226.540 100.491,225.402 97.225 C 224.984 96.026,225.267 96.085,227.349 97.628 C 238.783 106.105,241.226 114.293,237.349 131.149 C 235.623 138.649,235.453 139.823,235.437 144.336 C 235.420 149.446,236.061 151.442,238.420 153.616 C 245.642 160.273,256.978 155.305,259.677 144.299 L 260.344 141.582 261.841 142.766 C 268.376 147.931,272.209 156.476,272.238 165.941 C 272.258 172.608,271.620 175.838,267.796 188.447 C 265.151 197.168,264.581 202.484,265.590 209.002 C 267.646 222.278,265.349 232.118,259.485 235.150 C 258.373 235.725,258.395 235.746,256.074 231.874 C 253.303 227.248,252.228 225.664,242.909 212.453 C 232.307 197.425,229.225 192.605,224.394 183.496 C 220.667 176.470,217.632 169.911,215.018 163.234 C 210.932 152.797,208.743 150.535,202.701 150.503 C 195.999 150.468,193.927 152.394,189.945 162.364 C 182.494 181.017,176.939 190.867,161.698 212.453 C 149.974 229.059,144.894 237.238,142.083 244.036 C 141.113 246.382,141.239 246.327,139.477 245.160 C 124.227 235.059,123.447 212.346,137.452 186.197 C 140.912 179.736,142.952 175.442,143.862 172.705 C 148.861 157.665,146.006 144.998,135.086 133.770 C 131.485 130.067,131.472 129.966,134.479 129.110 C 143.246 126.617,151.246 130.092,157.647 139.175 C 163.444 147.400,169.987 149.037,175.233 143.573 C 179.828 138.788,179.653 136.048,173.881 122.424 C 169.820 112.838,169.396 111.163,169.403 104.726 C 169.414 95.051,172.051 87.751,178.245 80.255 C 181.111 76.787,188.772 70.939,188.742 72.243 M203.312 160.665 C 203.573 161.064,204.640 163.528,205.682 166.141 C 213.089 184.714,220.284 197.585,233.752 216.354 C 251.368 240.904,256.296 250.730,257.909 264.519 C 262.938 307.513,221.544 339.717,181.380 324.058 C 160.225 315.810,146.351 294.943,146.381 271.418 C 146.403 254.458,150.365 245.296,169.089 218.905 C 182.049 200.639,184.590 196.551,191.006 183.646 C 194.446 176.725,196.201 172.821,199.092 165.652 C 201.581 159.479,202.119 158.844,203.312 160.665 " stroke="none" fill="#e45424" fill-rule="evenodd"></path>
    </g>
</svg>