<svg height="580" viewBox="0 0 580 580" width="580" xmlns="http://www.w3.org/2000/svg" xmlns:xlink="http://www.w3.org/1999/xlink"><clipPath id="a"><path d="m-10-10h600v600h-600z"/></clipPath><g clip-path="url(#a)"><path d="m290 574.35c-3.92 0-7.6-1.52-10.37-4.29l-269.69-269.69c-2.77-2.77-4.29-6.45-4.29-10.37s1.52-7.6 4.29-10.37l269.69-269.69c2.77-2.77 6.45-4.29 10.37-4.29s7.6 1.52 10.37 4.29l269.69 269.69c2.77 2.77 4.29 6.45 4.29 10.37s-1.52 7.6-4.29 10.37l-269.69 269.69c-2.77 2.77-6.45 4.29-10.37 4.29z" fill="#fa5d1f"/><g fill="#fff" fill-rule="evenodd"><path d="m303.91 6.43 269.66 269.66c7.7 7.7 7.7 20.16 0 27.82l-269.66 269.66c-3.85 3.85-8.88 5.78-13.91 5.78s-10.06-1.93-13.91-5.78l-269.66-269.66c-7.7-7.66-7.7-20.12 0-27.82l269.66-269.66c3.85-3.85 8.88-5.78 13.91-5.78s10.06 1.93 13.91 5.78zm-20.77 7.05-269.66 269.66c-3.78 3.79-3.78 9.93 0 13.72l269.66 269.66c1.83 1.82 4.26 2.83 6.86 2.83s5.03-1.01 6.86-2.83l269.66-269.66c3.78-3.79 3.78-9.93 0-13.72l-269.66-269.66c-1.83-1.82-4.26-2.83-6.86-2.83s-5.03 1.01-6.86 2.83z"/><path d="m421.01 238.77c-7.8 2.56-13.31 5.47-14.49 14.01-1.48 10.67 7.13 16.68 4.26 33.47-3.14 18.07-22.73 15.36-20.37-4.26.98-8.3 8.38-27.12-3.61-31.88-5.23-2.06-18.67-2.02-19.42-1.99-53.15 1.12-68.96 50.83-66.42 75.31 1.21 11.85 8.07 22.02 10.87 25.9 16.07 22.22 24.18 33 24.18 51.67 0 26.11-21.14 47.28-47.28 47.28-26.1 0-47.25-21.17-47.25-47.28 0-18.67 8.11-29.45 24.18-51.67 2.64-3.61 13.45-18.61 8.24-42.75-3.03-14.12-21.37-28.84-50.11-28.84-5.81 0-14.86-.17-22.66 0-9.52.17-11.52 14.32-9.09 25.22 4.9 21.99 11.76 51.61-7.7 56.17-13.23 3.1-19.35-11.62-15.46-28 3.14-13.34 11.58-24.15 8.88-46.1-.88-7.16-6.38-10.84-13.14-12.12-25.6-4.93-53.86-23.2-58.05-31.34 123.26 29.95 225.86-65.68 353.48-25.36-5.34 7.53-17.93 15.7-39.04 22.56zm-106.48 136.5c2.2 37.31-14.69 45.32-21.04 48.7-1.05.57-1.08 2.09-.03 2.66 13.34 7.23 43.87-14.15 21.75-51.56-.21-.34-.71-.17-.68.2z"/></g></g></svg>