<svg id="svg" xmlns="http://www.w3.org/2000/svg" xmlns:xlink="http://www.w3.org/1999/xlink" width="400" height="400" viewBox="0, 0, 400,400" version="1.1"><g id="svgg"><path id="path0" d="M195.917 4.276 C 192.007 9.254,170.942 37.283,156.960 56.114 C 151.629 63.293,147.042 69.404,146.767 69.694 C 146.101 70.395,143.447 70.061,102.026 64.060 C 62.977 58.403,58.270 57.759,57.998 58.031 C 57.881 58.148,60.185 75.082,63.118 95.663 C 70.448 147.107,70.327 146.167,69.685 146.775 C 69.400 147.045,62.011 152.574,53.263 159.061 C 40.931 168.207,0.686 198.281,0.025 198.844 C -0.888 199.621,5.380 204.647,34.209 226.254 C 58.161 244.207,67.410 251.361,69.386 253.462 L 70.204 254.332 66.925 277.429 C 65.122 290.132,62.754 306.669,61.663 314.179 C 59.478 329.221,57.882 341.253,58.050 341.421 C 58.207 341.578,86.841 337.592,118.288 333.035 C 143.717 329.350,145.550 329.122,146.226 329.565 C 146.624 329.826,150.041 334.182,153.820 339.246 C 193.367 392.241,199.276 400.038,199.825 399.945 C 200.176 399.886,207.077 390.898,217.870 376.444 C 257.007 324.030,252.547 329.829,253.802 329.725 C 255.718 329.566,263.239 330.546,296.774 335.328 C 328.196 339.808,341.197 341.573,341.385 341.385 C 341.573 341.197,339.808 328.196,335.328 296.774 C 330.546 263.238,329.566 255.718,329.725 253.801 C 329.818 252.682,345.240 240.906,393.461 205.133 C 398.145 201.658,399.977 200.131,399.980 199.700 C 399.983 199.254,395.433 195.710,382.259 185.896 C 335.023 150.710,330.210 147.046,329.511 145.740 C 329.208 145.174,329.726 141.098,332.609 121.367 C 336.546 94.416,341.585 58.214,341.422 58.051 C 341.253 57.882,329.244 59.474,314.179 61.663 C 306.669 62.754,290.132 65.122,277.429 66.925 L 254.332 70.204 253.463 69.386 C 251.278 67.328,244.683 58.779,222.851 29.707 C 202.011 1.955,200.495 -0.000,199.827 0.000 C 199.476 0.000,198.059 1.550,195.917 4.276 " stroke="none" fill="#000000" fill-rule="evenodd"></path></g></svg>