<svg height="1200" viewBox="0 0 1200 1200" width="1200" xmlns="http://www.w3.org/2000/svg" xmlns:xlink="http://www.w3.org/1999/xlink"><clipPath id="a"><path d="m0 0h1200v1200h-1200z"/></clipPath><g clip-path="url(#a)"><path d="m600 1168.7c-7.84 0-15.22-3.06-20.76-8.6l-539.34-539.34c-11.44-11.44-11.44-30.07 0-41.52l539.34-539.34c5.54-5.54 12.92-8.59 20.76-8.59s15.22 3.05 20.76 8.59l539.34 539.34c11.44 11.45 11.44 30.08 0 41.52l-539.34 539.34c-5.54 5.54-12.92 8.6-20.76 8.6z" fill="#3c863a"/><path d="m627.83 32.84 539.34 539.33c15.37 15.37 15.37 40.29 0 55.67l-539.34 539.33c-7.68 7.68-17.76 11.53-27.83 11.53s-20.15-3.85-27.83-11.53l-539.34-539.33c-15.37-15.38-15.37-40.3 0-55.67l539.34-539.33c7.68-7.69 17.76-11.53 27.83-11.53s20.15 3.84 27.83 11.53zm-41.52 14.13-539.33 539.34c-3.66 3.65-5.68 8.52-5.68 13.69s2.02 10.03 5.68 13.69l539.33 539.33c3.66 3.66 8.52 5.68 13.69 5.68s10.04-2.02 13.69-5.68l539.34-539.33c3.65-3.66 5.67-8.52 5.67-13.69s-2.02-10.04-5.67-13.69l-539.34-539.34c-3.65-3.65-8.52-5.66-13.69-5.66s-10.03 2.01-13.69 5.66zm-151.74 329.14c6.62 0 14.02-.34 22.6-.72 10.24-.47 21.84-.99 34.09-.99 56.9 0 119.73 11.04 151.49 78.07-84.04 14.06-100.4 71.75-100.4 113.8v231.81c0 27.53-22.33 49.85-49.86 49.85h-161.4v-288.25c0-67.43 4.69-139.84 66.46-183.57zm253.81 384.51-85.05-73.67h85.05v-130.68c0-190.54-112.45-211.65-192.12-211.65-22.67 0-42.67 1.71-56.69 1.71 45.66-18.57 112.81-21.27 166.25-21.27 21.82 0 41.35.45 56.2.45 226.21 0 237.63 118.27 237.63 224.18v137.26h86.97l-86.97 75.35-8.85 7.67-95.82 82.96-95.82-82.96z" fill="#fff" fill-rule="evenodd"/></g></svg>