<svg viewBox="0 0 7.02 6.95" xmlns="http://www.w3.org/2000/svg" xmlns:xlink="http://www.w3.org/1999/xlink">
    <clipPath id="a" transform="translate(-.05 -.04)">
        <path d="m0 0h7.22v7.04h-7.22z" />
    </clipPath>
    <g clip-path="url(#a)">
        <path
            d="m6.92 2.19a1.66 1.66 0 0 0 -.55-.93 3.38 3.38 0 0 0 -1.48-.79 7 7 0 0 0 -2.39-.42c-.23 0-.47.52-1 .93a6 6 0 0 0 -.64.62 3.18 3.18 0 0 0 -.83 2 3.68 3.68 0 0 0 .59 1.67 1.93 1.93 0 0 0 1.09 1.06 16.27 16.27 0 0 1 1.52.61 2.47 2.47 0 0 0 1.2-.05 3.34 3.34 0 0 0 1.26-.68 4.48 4.48 0 0 0 1.08-1.51 3.62 3.62 0 0 0 .15-2.51m-1.61 2v.83a6.24 6.24 0 0 1 -1.73 1.23 6.05 6.05 0 0 1 -1.72-1.25s0-.63 0-.83a.93.93 0 0 1 -.43-.64.82.82 0 0 0 .48-.4 4.28 4.28 0 0 0 -.22-.77c-.06-.24.22-.5.22-.5a.38.38 0 0 0 .57.08.48.48 0 0 0 .1-.63l1-.49 1 .49a.48.48 0 0 0 .1.63.37.37 0 0 0 .56-.08s.28.26.23.5-.26.64-.22.77a.83.83 0 0 0 .47.4.87.87 0 0 1 -.43.64"
            transform="translate(-.05 -.04)" />
    </g>
    <path
        d="m3.28 1.81v.78l-.66.18-.39.37v.14l1.05-.28v.41l-.66.18-.39.37v.14l1.05-.28v.41l-.4.37v.14l.4-.1v.31l.26.53h.11v-.94l.39-.36v-.15l-.39.1v-.41l.55-.15.39-.36v-.16l-.94.26v-.41l.55-.15.39-.36v-.16l-.94.26v-.15l-.26-.53z" />
</svg>