<svg height="400" viewBox="0 0 400 400" width="400" xmlns="http://www.w3.org/2000/svg"><path d="m197.54 3.466c-.374.477-1.961 4.317-3.528 8.534-15.463 41.617-36.259 79.264-68.13 123.333-31.159 43.086-43.975 64.786-50.871 86.14-23.147 71.664 14.187 147.406 83.883 170.18 85.405 27.907 173.459-35.793 173.234-125.32-.105-41.609-10.426-65.559-55.017-127.666-6.977-9.717-14.818-20.69-17.426-24.385-19.03-26.961-38.193-63.819-53.179-102.282l-3.506-9-2.39-.2c-1.39-.117-2.675.162-3.07.666" fill="currentColor" fill-rule="evenodd"/></svg>