<svg viewBox="0 0 8.11 5.8" xmlns="http://www.w3.org/2000/svg" xmlns:xlink="http://www.w3.org/1999/xlink"><clipPath id="a"><path d="m0 0h8.11v5.79h-8.11z"/></clipPath><g clip-path="url(#a)"><rect height="5.8" rx=".4" width="8.11"/><path d="m6.48 2.9a2.42 2.42 0 1 1 -2.42-2.42 2.43 2.43 0 0 1 2.42 2.42" fill="#fff"/><path d="m3.87 2.89v.12l-.28.26h-1.24v-.11l.29-.27z"/><path d="m4.86 1.43v2.57a.3.3 0 0 0 0 .18.16.16 0 0 0 .14.06v.13l-1 .42v-.19a.16.16 0 0 0 .1 0l.09-.07a.56.56 0 0 0 .1-.35v-2.37a.26.26 0 0 0 -.07-.17.42.42 0 0 0 -.12-.08l-.1-.03v-.11l.62-.31a.49.49 0 0 1 .19.14.26.26 0 0 1 .09.18"/></g></svg>