<svg id="svg" version="1.1" xmlns="http://www.w3.org/2000/svg" xmlns:xlink="http://www.w3.org/1999/xlink" width="400" height="400" viewBox="0, 0, 400,400"><g id="svgg"><path id="path0" d="M194.822 65.668 C 152.793 121.002,109.213 163.061,78.082 178.334 C 72.285 181.178,70.264 181.178,61.652 178.334 C 46.441 173.310,27.798 160.010,5.908 138.563 C 2.658 135.380,-0.000 133.008,0.000 133.293 C 0.000 133.577,0.390 135.719,0.866 138.052 C 11.465 189.991,18.677 248.311,20.747 298.818 L 20.972 304.315 26.496 306.659 C 64.710 322.874,115.357 335.269,160.103 339.358 C 175.942 340.805,178.925 340.922,200.000 340.922 C 221.075 340.922,224.058 340.805,239.897 339.358 C 284.643 335.269,335.290 322.874,373.504 306.659 L 379.028 304.315 379.253 298.818 C 381.275 249.484,387.870 195.256,398.273 142.432 C 399.223 137.610,400.000 133.465,400.000 133.220 C 400.000 132.976,397.342 135.380,394.092 138.563 C 372.202 160.010,353.559 173.310,338.348 178.334 C 329.736 181.178,327.715 181.178,321.918 178.334 C 290.787 163.061,247.207 121.002,205.178 65.668 C 202.496 62.136,200.165 59.247,200.000 59.247 C 199.835 59.247,197.504 62.136,194.822 65.668 M229.927 119.688 C 246.265 137.674,260.432 153.269,261.409 154.343 C 262.386 155.418,262.954 156.158,262.671 155.988 C 262.389 155.818,248.235 146.695,231.219 135.716 C 214.203 124.737,200.154 115.753,200.000 115.753 C 199.846 115.753,185.797 124.737,168.781 135.716 C 151.765 146.695,137.611 155.818,137.329 155.988 C 137.046 156.158,137.610 155.423,138.582 154.354 C 139.553 153.285,153.721 137.690,170.065 119.699 C 186.409 101.707,199.881 86.986,200.002 86.986 C 200.123 86.986,213.589 101.702,229.927 119.688 M378.819 183.650 C 376.155 201.480,376.611 199.877,374.445 199.028 C 367.830 196.437,353.632 195.140,343.493 196.202 C 342.080 196.349,340.894 196.451,340.857 196.426 C 340.819 196.402,344.595 193.651,349.247 190.313 C 353.899 186.975,362.945 180.423,369.349 175.753 C 375.753 171.082,381.031 167.422,381.077 167.620 C 381.123 167.818,380.107 175.031,378.819 183.650 M36.610 181.662 C 45.199 187.906,54.036 194.305,56.248 195.881 C 58.460 197.458,60.222 198.797,60.162 198.856 C 60.103 198.915,57.446 198.794,54.257 198.588 C 43.590 197.898,32.561 199.291,25.641 202.204 C 25.209 202.386,25.037 202.183,24.877 201.305 C 24.649 200.058,20.205 170.274,20.205 169.996 C 20.205 169.733,19.953 169.553,36.610 181.662 " stroke="none" fill="currentColor" fill-rule="evenodd"></path></g></svg>