<svg id="svg" version="1.1" xmlns="http://www.w3.org/2000/svg" xmlns:xlink="http://www.w3.org/1999/xlink" width="400"
    height="400" viewBox="0, 0, 400,400">
    <g id="svgg">
        <path id="path0"
            d="M238.710 64.816 C 238.215 65.144,237.597 65.413,237.337 65.414 C 237.077 65.415,236.547 65.754,236.159 66.167 C 235.771 66.579,235.157 66.917,234.793 66.917 C 234.430 66.917,233.964 67.119,233.758 67.367 C 233.553 67.614,233.124 67.817,232.806 67.817 C 232.487 67.817,231.729 68.155,231.122 68.567 C 230.515 68.980,229.868 69.317,229.684 69.317 C 229.501 69.317,229.106 69.587,228.807 69.917 C 228.508 70.248,228.041 70.518,227.768 70.518 C 227.495 70.518,227.009 70.716,226.689 70.958 C 226.369 71.201,225.829 71.403,225.490 71.408 C 225.150 71.414,224.415 71.755,223.856 72.168 C 223.297 72.581,222.602 72.918,222.312 72.918 C 222.022 72.918,221.665 73.133,221.519 73.395 C 221.283 73.815,218.114 75.314,217.452 75.317 C 217.313 75.318,216.856 75.589,216.436 75.919 C 216.016 76.249,215.445 76.519,215.166 76.519 C 214.887 76.519,214.341 76.857,213.953 77.269 C 213.566 77.682,213.013 78.020,212.725 78.020 C 212.258 78.020,211.747 78.234,209.602 79.327 C 209.272 79.496,208.519 79.870,207.929 80.159 C 207.338 80.448,206.680 80.895,206.467 81.152 C 206.253 81.410,205.774 81.620,205.401 81.620 C 205.029 81.620,204.557 81.823,204.351 82.071 C 204.146 82.318,203.683 82.521,203.322 82.521 C 202.962 82.521,202.210 82.858,201.650 83.271 C 201.091 83.683,200.514 84.021,200.367 84.021 C 200.221 84.021,199.524 84.494,198.819 85.071 C 198.114 85.649,197.414 86.122,197.263 86.122 C 197.112 86.122,196.492 86.459,195.885 86.872 C 195.277 87.284,194.576 87.622,194.325 87.622 C 193.500 87.622,193.248 88.736,193.248 92.379 L 193.248 95.976 195.274 96.188 C 196.388 96.304,197.664 96.585,198.110 96.812 C 198.555 97.039,199.651 97.224,200.545 97.224 C 201.720 97.224,202.383 97.392,202.939 97.830 C 203.362 98.162,204.331 98.551,205.091 98.693 C 205.851 98.835,206.715 99.170,207.011 99.438 C 207.307 99.706,207.770 99.925,208.040 99.925 C 208.309 99.925,209.396 100.735,210.455 101.725 C 211.513 102.716,212.526 103.526,212.706 103.526 C 213.247 103.526,215.154 105.353,215.154 105.871 C 215.154 106.137,215.714 106.925,216.399 107.623 C 217.882 109.134,218.077 109.928,218.450 115.979 C 218.823 122.007,218.801 296.671,218.428 302.476 C 217.943 310.011,217.746 311.569,217.179 312.370 C 216.890 312.778,216.654 313.386,216.654 313.720 C 216.653 316.222,208.539 327.082,206.670 327.082 C 206.461 327.082,205.637 327.622,204.838 328.282 C 204.039 328.942,203.147 329.482,202.855 329.482 C 202.563 329.482,202.161 329.679,201.962 329.918 C 201.763 330.158,200.883 330.563,200.007 330.818 C 198.080 331.378,197.788 331.936,198.798 333.136 C 199.211 333.627,199.554 334.255,199.559 334.532 C 199.565 334.808,199.767 335.296,200.010 335.616 C 200.252 335.937,200.450 336.417,200.450 336.683 C 200.450 336.950,200.788 337.625,201.200 338.185 C 201.613 338.744,201.950 339.435,201.950 339.721 C 201.950 341.060,204.525 341.964,205.591 341.000 C 205.886 340.733,206.738 340.445,207.485 340.361 C 208.232 340.277,208.996 340.023,209.184 339.796 C 209.372 339.570,209.826 339.385,210.193 339.385 C 210.560 339.385,211.104 339.115,211.403 338.785 C 211.702 338.455,212.161 338.184,212.425 338.183 C 212.688 338.182,213.443 337.849,214.104 337.442 C 214.764 337.036,215.709 336.694,216.204 336.684 C 216.699 336.674,217.366 336.467,217.687 336.225 C 218.007 335.982,218.487 335.784,218.754 335.784 C 219.020 335.784,219.696 335.446,220.255 335.034 C 220.814 334.621,221.486 334.284,221.747 334.284 C 222.008 334.284,222.453 334.014,222.736 333.683 C 223.054 333.312,223.623 333.083,224.228 333.081 C 224.766 333.080,225.553 332.899,225.976 332.678 C 226.400 332.457,227.137 332.178,227.613 332.058 C 228.090 331.939,228.663 331.580,228.886 331.262 C 229.109 330.943,229.536 330.683,229.834 330.683 C 230.132 330.683,230.699 330.434,231.092 330.130 C 231.486 329.825,232.753 329.269,233.908 328.893 C 235.064 328.517,236.508 327.956,237.119 327.646 C 237.729 327.336,238.412 327.082,238.636 327.082 C 238.860 327.082,239.501 326.744,240.060 326.332 C 240.619 325.919,241.304 325.581,241.582 325.581 C 241.860 325.581,242.255 325.379,242.461 325.131 C 242.671 324.878,243.325 324.681,243.957 324.681 C 244.596 324.681,245.389 324.440,245.796 324.122 C 246.190 323.815,246.849 323.461,247.262 323.335 C 247.674 323.209,248.254 322.853,248.549 322.543 C 248.844 322.234,249.296 321.980,249.553 321.980 C 250.023 321.980,250.329 321.845,253.158 320.380 C 254.007 319.940,255.035 319.580,255.443 319.580 C 255.850 319.580,256.526 319.310,256.946 318.980 C 257.366 318.650,257.890 318.375,258.112 318.369 C 258.333 318.364,259.055 318.098,259.715 317.779 C 260.375 317.461,261.063 317.195,261.244 317.189 C 261.425 317.184,261.801 316.926,262.081 316.617 C 262.372 316.296,263.156 315.990,263.906 315.906 C 264.630 315.824,265.587 315.470,266.035 315.118 C 266.482 314.766,267.083 314.479,267.371 314.479 C 267.658 314.479,268.062 314.276,268.267 314.029 C 268.473 313.781,268.876 313.578,269.164 313.578 C 269.451 313.578,270.030 313.308,270.449 312.978 C 270.869 312.648,271.370 312.378,271.562 312.378 C 271.754 312.378,272.475 312.056,273.165 311.661 C 273.854 311.267,274.925 310.856,275.544 310.748 L 276.669 310.550 276.669 305.356 L 276.669 300.161 274.325 300.000 C 270.010 299.704,266.395 297.606,264.802 294.471 C 264.481 293.840,263.991 292.979,263.714 292.557 C 263.436 292.136,263.126 290.920,263.024 289.856 C 262.922 288.792,262.697 286.818,262.524 285.469 C 262.314 283.830,262.144 249.824,262.013 183.099 C 261.831 91.302,261.776 83.138,261.326 82.627 C 261.057 82.321,260.745 81.770,260.633 81.402 C 260.521 81.034,259.998 80.200,259.472 79.548 C 258.945 78.896,258.178 77.803,257.766 77.119 C 256.828 75.562,249.858 68.688,248.514 67.993 C 247.965 67.710,246.908 67.014,246.165 66.447 C 245.423 65.880,244.644 65.416,244.435 65.416 C 244.225 65.416,243.810 65.146,243.511 64.816 C 242.753 63.979,239.975 63.979,238.710 64.816 M131.010 162.676 C 128.228 165.545,125.413 168.635,124.753 169.542 C 124.094 170.450,121.818 172.948,119.696 175.094 L 115.837 178.995 115.758 189.648 L 115.679 200.300 103.857 200.379 L 92.036 200.457 87.879 204.500 C 85.593 206.724,83.149 208.905,82.447 209.347 C 81.745 209.789,78.760 212.530,75.813 215.439 L 70.456 220.728 70.673 224.656 L 70.891 228.584 93.360 228.808 L 115.829 229.031 115.829 250.864 L 115.829 272.698 116.504 272.879 C 116.875 272.979,118.941 273.062,121.094 273.064 L 125.009 273.068 126.086 271.943 C 126.678 271.324,127.496 270.278,127.905 269.617 C 128.314 268.957,131.375 265.596,134.707 262.148 C 138.040 258.700,141.017 255.392,141.325 254.796 C 141.632 254.201,142.367 253.248,142.959 252.679 L 144.036 251.645 144.036 240.301 L 144.036 228.957 154.182 228.957 L 164.329 228.957 165.210 228.026 C 165.695 227.514,166.767 226.654,167.592 226.116 C 168.417 225.578,171.970 222.351,175.488 218.946 C 179.006 215.540,182.058 212.753,182.272 212.753 C 182.485 212.753,183.345 212.068,184.183 211.230 L 185.705 209.708 185.535 205.304 C 185.441 202.882,185.331 200.860,185.291 200.810 C 185.250 200.761,176.031 200.638,164.804 200.537 L 144.392 200.354 144.214 199.464 C 144.116 198.975,144.036 189.409,144.036 178.207 L 144.036 157.839 142.461 157.838 C 141.594 157.837,139.801 157.751,138.476 157.648 L 136.067 157.461 131.010 162.676 "
            stroke="none" fill="#fff" fill-rule="evenodd"></path>
        <path id="path1"
            d="M179.145 3.516 C 178.732 3.594,178.207 3.812,177.978 4.001 C 177.742 4.195,175.895 4.417,173.716 4.513 C 170.498 4.655,169.766 4.777,169.234 5.259 C 168.725 5.719,167.956 5.872,165.394 6.021 C 163.632 6.124,161.810 6.364,161.346 6.555 C 160.881 6.746,159.868 6.905,159.095 6.908 C 158.322 6.912,157.142 7.163,156.474 7.467 C 155.805 7.771,154.363 8.115,153.269 8.232 C 151.977 8.371,151.046 8.648,150.613 9.024 C 150.228 9.357,149.489 9.607,148.866 9.613 C 148.273 9.619,147.449 9.817,147.037 10.053 C 146.624 10.288,145.679 10.488,144.936 10.496 C 143.176 10.515,142.236 10.780,142.236 11.256 C 142.236 11.761,141.549 12.003,140.121 12.003 C 139.293 12.003,138.870 12.164,138.658 12.560 C 138.452 12.945,137.884 13.173,136.815 13.300 C 135.965 13.400,135.116 13.610,134.927 13.765 C 134.738 13.920,133.950 14.142,133.176 14.257 C 132.398 14.373,131.539 14.720,131.254 15.035 C 130.971 15.348,130.434 15.604,130.061 15.604 C 129.092 15.604,128.432 15.907,128.432 16.351 C 128.432 16.783,127.522 17.089,126.182 17.110 C 125.686 17.117,125.019 17.322,124.699 17.564 C 124.378 17.806,123.809 18.005,123.434 18.005 C 123.059 18.005,122.617 18.255,122.453 18.562 C 122.260 18.924,121.679 19.185,120.799 19.306 C 120.044 19.409,119.174 19.760,118.836 20.098 C 118.503 20.432,117.909 20.705,117.516 20.705 C 117.124 20.705,116.635 20.908,116.429 21.155 C 116.224 21.403,115.761 21.605,115.400 21.605 C 115.040 21.605,114.288 21.943,113.728 22.356 C 113.169 22.768,112.473 23.106,112.180 23.106 C 111.888 23.106,111.504 23.376,111.328 23.706 C 111.147 24.044,110.700 24.306,110.304 24.306 C 109.917 24.306,109.433 24.509,109.227 24.756 C 109.022 25.004,108.543 25.206,108.163 25.206 C 107.784 25.206,107.072 25.544,106.581 25.956 C 106.091 26.369,105.526 26.707,105.326 26.707 C 105.012 26.707,104.426 27.112,102.707 28.518 C 102.504 28.684,101.934 28.901,101.440 28.999 C 100.933 29.101,100.465 29.424,100.364 29.743 C 100.261 30.066,99.905 30.310,99.530 30.312 C 98.722 30.318,98.289 30.599,98.037 31.283 C 97.930 31.572,97.653 31.808,97.421 31.808 C 97.188 31.808,96.830 32.011,96.624 32.258 C 96.419 32.506,95.937 32.708,95.554 32.708 C 95.171 32.708,94.681 32.959,94.466 33.265 C 94.250 33.572,93.736 33.926,93.323 34.052 C 92.911 34.178,92.033 34.719,91.373 35.252 C 90.713 35.786,89.868 36.319,89.496 36.437 C 88.564 36.731,87.022 38.071,87.022 38.586 C 87.022 38.819,86.829 39.010,86.593 39.010 C 86.357 39.010,85.978 39.196,85.751 39.423 C 85.523 39.651,84.906 39.932,84.379 40.047 C 83.841 40.166,83.421 40.448,83.421 40.691 C 83.421 40.930,83.083 41.253,82.671 41.410 C 82.258 41.567,81.919 41.868,81.918 42.078 C 81.916 42.509,79.795 43.811,79.096 43.811 C 78.846 43.811,78.496 44.081,78.320 44.411 C 78.143 44.741,77.796 45.011,77.549 45.011 C 77.302 45.011,77.017 45.248,76.915 45.536 C 76.648 46.292,75.581 47.412,75.127 47.412 C 74.914 47.412,74.600 47.673,74.429 47.992 C 74.259 48.311,73.823 48.666,73.460 48.781 C 72.658 49.035,70.409 51.022,68.525 53.141 C 67.757 54.004,67.251 54.413,66.373 54.884 C 66.012 55.077,65.716 55.433,65.716 55.674 C 65.716 55.916,65.578 56.114,65.409 56.114 C 65.240 56.114,64.973 56.452,64.816 56.864 C 64.659 57.277,64.325 57.614,64.073 57.614 C 63.822 57.614,63.616 57.753,63.616 57.922 C 63.616 58.091,63.278 58.358,62.866 58.515 C 62.453 58.672,62.116 58.991,62.116 59.225 C 62.116 59.459,61.913 59.728,61.665 59.823 C 61.418 59.918,61.215 60.206,61.215 60.463 C 61.215 60.720,60.878 61.058,60.465 61.215 C 60.053 61.372,59.715 61.639,59.715 61.808 C 59.715 61.977,59.509 62.116,59.257 62.116 C 59.006 62.116,58.672 62.453,58.515 62.866 C 58.358 63.278,58.091 63.616,57.922 63.616 C 57.753 63.616,57.614 63.822,57.614 64.073 C 57.614 64.325,57.277 64.659,56.864 64.816 C 56.452 64.973,56.114 65.240,56.114 65.409 C 56.114 65.578,55.916 65.716,55.674 65.716 C 55.433 65.716,55.077 66.012,54.884 66.373 C 54.413 67.251,54.004 67.757,53.141 68.525 C 50.924 70.496,48.612 73.131,48.612 73.686 C 48.612 73.912,48.342 74.242,48.012 74.419 C 47.682 74.595,47.412 74.914,47.412 75.127 C 47.412 75.581,46.292 76.648,45.536 76.915 C 45.248 77.017,45.011 77.302,45.011 77.549 C 45.011 77.796,44.741 78.143,44.411 78.320 C 44.081 78.496,43.811 78.846,43.811 79.096 C 43.811 79.795,42.509 81.916,42.078 81.918 C 41.868 81.919,41.567 82.258,41.410 82.671 C 41.253 83.083,40.930 83.421,40.691 83.421 C 40.448 83.421,40.166 83.841,40.047 84.379 C 39.932 84.906,39.651 85.523,39.423 85.751 C 39.196 85.978,39.010 86.357,39.010 86.593 C 39.010 86.829,38.819 87.022,38.586 87.022 C 38.071 87.022,36.731 88.564,36.437 89.496 C 36.319 89.868,35.781 90.713,35.240 91.374 C 34.699 92.035,34.165 92.942,34.053 93.389 C 33.941 93.836,33.592 94.284,33.278 94.383 C 32.896 94.504,32.708 94.842,32.708 95.407 C 32.708 95.871,32.506 96.419,32.258 96.624 C 32.011 96.830,31.808 97.188,31.808 97.421 C 31.808 97.653,31.572 97.930,31.283 98.037 C 30.599 98.289,30.318 98.722,30.312 99.530 C 30.310 99.905,30.066 100.261,29.743 100.364 C 29.424 100.465,29.101 100.933,28.999 101.440 C 28.901 101.934,28.684 102.504,28.518 102.707 C 27.112 104.426,26.707 105.012,26.707 105.326 C 26.707 105.526,26.369 106.091,25.956 106.581 C 25.544 107.072,25.206 107.784,25.206 108.163 C 25.206 108.543,25.004 109.022,24.756 109.227 C 24.509 109.433,24.306 109.917,24.306 110.304 C 24.306 110.700,24.044 111.147,23.706 111.328 C 23.376 111.504,23.106 111.888,23.106 112.180 C 23.106 112.473,22.768 113.169,22.356 113.728 C 21.943 114.288,21.605 115.040,21.605 115.400 C 21.605 115.761,21.403 116.224,21.155 116.429 C 20.908 116.635,20.705 117.124,20.705 117.516 C 20.705 117.909,20.432 118.503,20.098 118.836 C 19.760 119.174,19.409 120.044,19.306 120.799 C 19.185 121.679,18.924 122.260,18.562 122.453 C 18.255 122.617,18.005 123.059,18.005 123.434 C 18.005 123.809,17.806 124.378,17.564 124.699 C 17.322 125.019,17.117 125.686,17.110 126.182 C 17.089 127.522,16.783 128.432,16.351 128.432 C 15.907 128.432,15.604 129.092,15.604 130.061 C 15.604 130.434,15.348 130.971,15.035 131.254 C 14.720 131.539,14.373 132.398,14.257 133.176 C 14.142 133.950,13.920 134.738,13.765 134.927 C 13.610 135.116,13.400 135.965,13.300 136.815 C 13.173 137.884,12.945 138.452,12.560 138.658 C 12.164 138.870,12.003 139.293,12.003 140.121 C 12.003 141.549,11.761 142.236,11.256 142.236 C 10.780 142.236,10.515 143.176,10.496 144.936 C 10.488 145.679,10.288 146.624,10.053 147.037 C 9.817 147.449,9.619 148.273,9.613 148.866 C 9.607 149.489,9.357 150.228,9.024 150.613 C 8.648 151.046,8.371 151.977,8.232 153.269 C 8.115 154.363,7.771 155.805,7.467 156.474 C 7.163 157.142,6.912 158.322,6.908 159.095 C 6.905 159.868,6.746 160.881,6.555 161.346 C 6.364 161.810,6.124 163.632,6.021 165.394 C 5.872 167.956,5.719 168.725,5.259 169.234 C 4.779 169.764,4.653 170.505,4.505 173.682 C 4.401 175.920,4.166 177.786,3.936 178.202 C 2.848 180.172,2.849 221.031,3.937 223.001 C 4.166 223.415,4.401 225.299,4.507 227.569 C 4.664 230.919,4.765 231.489,5.268 231.857 C 5.758 232.215,5.875 232.784,6.018 235.496 C 6.111 237.263,6.348 239.090,6.544 239.554 C 6.741 240.019,6.905 241.099,6.908 241.955 C 6.912 242.845,7.166 244.064,7.502 244.804 C 7.825 245.516,8.179 246.973,8.288 248.043 C 8.437 249.496,8.628 250.062,9.045 250.285 C 9.454 250.504,9.602 250.923,9.602 251.857 C 9.602 252.557,9.788 253.396,10.014 253.722 C 10.241 254.047,10.485 255.241,10.556 256.375 C 10.654 257.928,10.822 258.537,11.237 258.841 C 11.602 259.107,11.839 259.760,11.935 260.765 C 12.039 261.843,12.245 262.374,12.642 262.587 C 13.035 262.797,13.204 263.221,13.205 264.002 C 13.206 264.615,13.400 265.487,13.637 265.940 C 13.873 266.393,14.156 267.364,14.266 268.097 C 14.376 268.831,14.722 269.663,15.035 269.946 C 15.348 270.229,15.604 270.770,15.604 271.147 C 15.604 271.525,15.889 272.034,16.238 272.278 C 16.683 272.589,16.920 273.157,17.031 274.171 C 17.118 274.967,17.373 275.885,17.597 276.211 C 17.821 276.536,18.005 277.089,18.005 277.440 C 18.005 277.790,18.258 278.306,18.567 278.586 C 18.877 278.866,19.207 279.564,19.300 280.138 C 19.393 280.711,19.747 281.533,20.087 281.966 C 20.427 282.398,20.705 283.122,20.705 283.575 C 20.705 284.027,20.908 284.566,21.155 284.771 C 21.403 284.977,21.605 285.441,21.605 285.804 C 21.605 286.167,21.943 286.757,22.356 287.116 C 22.841 287.538,23.106 288.083,23.106 288.660 C 23.106 289.244,23.312 289.662,23.706 289.872 C 24.044 290.053,24.306 290.501,24.306 290.897 C 24.306 291.283,24.509 291.768,24.756 291.973 C 25.004 292.178,25.206 292.668,25.206 293.062 C 25.206 293.455,25.544 294.071,25.956 294.430 C 26.369 294.788,26.708 295.294,26.710 295.553 C 26.711 295.812,27.175 296.605,27.740 297.316 C 28.305 298.027,28.851 298.992,28.954 299.461 C 29.057 299.929,29.404 300.550,29.724 300.841 C 30.045 301.131,30.308 301.669,30.308 302.038 C 30.308 302.420,30.629 302.917,31.058 303.198 C 31.470 303.469,31.808 303.875,31.808 304.101 C 31.808 304.327,32.011 304.590,32.258 304.685 C 32.525 304.787,32.708 305.238,32.708 305.795 C 32.708 306.465,32.872 306.776,33.280 306.882 C 33.642 306.977,33.921 307.401,34.041 308.038 C 34.148 308.607,34.454 309.115,34.747 309.208 C 35.248 309.367,35.474 309.695,36.425 311.652 C 36.672 312.160,37.085 312.750,37.342 312.964 C 37.599 313.177,37.809 313.538,37.809 313.765 C 37.809 313.993,38.015 314.179,38.267 314.179 C 38.519 314.179,38.853 314.516,39.010 314.929 C 39.167 315.341,39.433 315.679,39.602 315.679 C 39.772 315.679,39.910 316.007,39.910 316.408 C 39.910 317.133,40.601 318.080,41.132 318.080 C 41.285 318.080,41.410 318.279,41.410 318.522 C 41.410 318.765,41.796 319.164,42.268 319.408 C 42.743 319.654,43.293 320.293,43.499 320.841 C 44.213 322.737,44.489 323.128,45.497 323.671 C 46.055 323.972,46.512 324.442,46.512 324.717 C 46.512 324.992,46.700 325.289,46.930 325.378 C 47.160 325.466,47.704 326.290,48.139 327.210 C 48.574 328.130,49.125 328.882,49.363 328.882 C 49.602 328.882,50.005 329.285,50.260 329.777 C 50.515 330.270,51.108 330.872,51.580 331.116 C 52.051 331.359,52.509 331.834,52.597 332.171 C 52.685 332.508,52.938 332.784,53.160 332.785 C 53.382 332.786,53.794 333.192,54.076 333.688 C 54.358 334.184,54.932 334.720,55.351 334.879 C 55.771 335.038,56.114 335.378,56.114 335.634 C 56.114 335.890,56.433 336.220,56.823 336.369 C 57.213 336.517,57.605 336.917,57.695 337.259 C 57.784 337.600,58.275 338.117,58.787 338.407 C 59.298 338.697,59.793 339.171,59.886 339.460 C 59.979 339.749,60.245 339.985,60.478 339.985 C 60.710 339.985,61.108 340.388,61.363 340.880 C 61.617 341.372,62.228 341.984,62.721 342.238 C 63.213 342.493,63.616 342.891,63.616 343.123 C 63.616 343.355,63.852 343.622,64.141 343.715 C 64.430 343.808,64.897 344.291,65.179 344.788 C 65.461 345.285,66.035 345.822,66.454 345.982 C 66.874 346.141,67.217 346.482,67.217 346.739 C 67.217 346.996,67.494 347.309,67.833 347.434 C 68.172 347.560,68.614 347.991,68.814 348.394 C 69.015 348.796,69.508 349.290,69.911 349.490 C 70.313 349.691,70.745 350.132,70.870 350.471 C 70.996 350.810,71.309 351.088,71.566 351.088 C 71.823 351.088,72.155 351.408,72.304 351.800 C 72.496 352.306,72.901 352.574,73.697 352.724 C 74.545 352.883,75.218 353.365,76.440 354.687 C 77.340 355.661,78.578 356.647,79.225 356.906 C 79.866 357.163,80.537 357.646,80.716 357.981 C 80.895 358.316,81.239 358.590,81.481 358.590 C 81.723 358.590,81.920 358.796,81.920 359.047 C 81.920 359.299,82.258 359.633,82.671 359.790 C 83.083 359.947,83.421 360.214,83.421 360.383 C 83.421 360.552,83.749 360.690,84.150 360.690 C 84.875 360.690,85.821 361.382,85.821 361.912 C 85.821 362.065,86.037 362.191,86.300 362.191 C 86.563 362.191,86.844 362.442,86.924 362.750 C 87.074 363.324,89.267 364.591,90.110 364.591 C 90.370 364.591,90.667 364.858,90.770 365.184 C 90.996 365.896,92.309 366.876,93.404 367.151 C 93.841 367.261,94.356 367.540,94.548 367.771 C 94.740 368.003,95.171 368.192,95.506 368.192 C 95.840 368.192,96.688 368.800,97.390 369.542 C 98.091 370.285,98.932 370.893,99.258 370.893 C 99.585 370.893,100.020 371.095,100.225 371.343 C 100.431 371.590,101.000 371.793,101.490 371.793 C 102.084 371.793,102.430 371.968,102.527 372.318 C 102.670 372.837,104.975 374.494,105.554 374.494 C 105.718 374.494,106.021 374.696,106.227 374.944 C 106.432 375.191,106.995 375.394,107.478 375.394 C 108.029 375.394,108.615 375.673,109.051 376.144 C 109.433 376.557,109.985 376.894,110.278 376.894 C 110.570 376.894,111.122 377.232,111.504 377.644 C 111.895 378.066,112.534 378.395,112.964 378.395 C 113.384 378.395,113.728 378.528,113.728 378.691 C 113.728 378.854,114.273 379.075,114.940 379.181 C 115.670 379.298,116.270 379.597,116.451 379.935 C 116.615 380.243,116.982 380.496,117.265 380.498 C 117.548 380.500,118.502 380.837,119.385 381.248 C 120.267 381.659,121.230 381.995,121.523 381.995 C 121.817 381.995,122.225 382.198,122.431 382.446 C 122.636 382.693,123.107 382.896,123.477 382.896 C 123.847 382.896,124.488 383.161,124.900 383.486 C 125.313 383.810,126.203 384.164,126.878 384.272 C 127.552 384.380,128.334 384.722,128.615 385.032 C 128.896 385.343,129.493 385.596,129.942 385.596 C 130.392 385.596,130.927 385.799,131.133 386.047 C 131.359 386.320,132.017 386.497,132.804 386.497 C 133.773 386.497,134.308 386.687,134.912 387.247 C 135.516 387.806,136.051 387.997,137.018 387.997 C 137.973 387.997,138.392 388.143,138.611 388.554 C 138.818 388.939,139.385 389.167,140.454 389.294 C 141.304 389.394,142.154 389.599,142.342 389.748 C 142.531 389.897,143.558 390.114,144.623 390.230 C 146.034 390.384,146.671 390.599,146.966 391.020 C 147.242 391.414,147.725 391.598,148.484 391.598 C 149.096 391.598,150.115 391.876,150.750 392.216 C 151.384 392.556,152.597 392.908,153.446 392.999 C 154.294 393.090,155.567 393.352,156.275 393.581 C 156.982 393.811,158.345 393.998,159.304 393.998 C 160.573 393.998,161.224 394.150,161.691 394.555 C 162.198 394.995,163.008 395.147,165.545 395.276 C 168.203 395.412,168.827 395.536,169.163 395.995 C 169.503 396.460,170.178 396.584,173.381 396.769 C 175.478 396.890,178.410 397.115,179.895 397.268 C 183.536 397.644,217.600 397.635,221.005 397.257 C 222.491 397.092,225.439 396.865,227.557 396.753 C 230.871 396.578,231.467 396.469,231.829 395.972 C 232.189 395.478,232.735 395.374,235.566 395.257 C 238.324 395.144,238.927 395.033,239.161 394.597 C 239.387 394.175,239.963 394.048,242.125 393.945 C 243.600 393.874,244.989 393.671,245.210 393.493 C 245.431 393.315,246.434 393.113,247.439 393.043 C 248.728 392.954,249.514 392.722,250.105 392.257 C 250.670 391.813,251.360 391.598,252.217 391.598 C 253.151 391.598,253.600 391.439,253.902 391.000 C 254.226 390.530,254.795 390.360,256.564 390.204 C 257.802 390.096,258.895 389.885,258.993 389.735 C 259.091 389.586,259.924 389.386,260.844 389.291 C 262.138 389.157,262.549 388.992,262.663 388.558 C 262.779 388.114,263.094 387.997,264.173 387.997 C 265.210 387.997,265.729 387.818,266.345 387.247 C 266.943 386.692,267.486 386.497,268.424 386.497 C 269.187 386.497,269.843 386.317,270.068 386.047 C 270.273 385.799,270.821 385.596,271.284 385.596 C 271.843 385.596,272.187 385.408,272.305 385.037 C 272.437 384.621,272.884 384.431,274.051 384.296 C 275.154 384.168,275.741 383.933,276.031 383.505 C 276.303 383.102,276.773 382.896,277.419 382.896 C 277.957 382.896,278.550 382.710,278.739 382.483 C 278.927 382.256,279.601 381.987,280.237 381.886 C 280.872 381.784,281.563 381.496,281.770 381.245 C 281.978 380.995,282.676 380.705,283.321 380.602 C 283.981 380.497,284.616 380.186,284.774 379.890 C 284.929 379.601,285.531 379.275,286.113 379.166 C 286.696 379.057,287.172 378.856,287.172 378.719 C 287.172 378.582,287.588 378.386,288.096 378.285 C 288.605 378.183,289.366 377.829,289.787 377.497 C 290.209 377.165,290.781 376.894,291.059 376.894 C 291.337 376.894,291.858 376.557,292.217 376.144 C 292.576 375.731,293.150 375.394,293.493 375.394 C 293.836 375.394,294.319 375.191,294.566 374.944 C 294.814 374.696,295.282 374.494,295.607 374.494 C 295.931 374.494,296.787 373.886,297.509 373.143 C 298.483 372.141,299.051 371.793,299.711 371.793 C 300.201 371.793,300.770 371.590,300.975 371.343 C 301.181 371.095,301.581 370.893,301.866 370.893 C 302.150 370.893,302.624 370.626,302.919 370.300 C 303.214 369.974,303.693 369.632,303.983 369.540 C 304.274 369.448,304.581 369.107,304.666 368.782 C 304.766 368.399,305.077 368.192,305.552 368.192 C 305.955 368.192,306.596 367.922,306.977 367.592 C 307.357 367.262,307.852 366.992,308.076 366.992 C 308.300 366.992,308.714 366.722,308.997 366.392 C 309.279 366.062,309.679 365.791,309.884 365.791 C 310.089 365.791,310.401 365.521,310.578 365.191 C 310.754 364.861,311.048 364.591,311.231 364.591 C 311.904 364.591,314.179 363.271,314.179 362.880 C 314.179 362.658,314.516 362.347,314.929 362.191 C 315.341 362.034,315.679 361.710,315.679 361.471 C 315.679 361.232,316.155 360.880,316.737 360.688 C 318.052 360.254,319.460 359.091,320.048 357.954 C 320.355 357.361,320.725 357.089,321.224 357.089 C 322.347 357.089,323.288 356.545,323.845 355.573 C 324.125 355.087,324.562 354.689,324.817 354.689 C 325.072 354.689,325.281 354.483,325.281 354.232 C 325.281 353.981,325.619 353.622,326.032 353.434 C 326.444 353.246,326.782 352.979,326.782 352.840 C 326.782 352.702,327.058 352.588,327.396 352.588 C 327.734 352.588,328.324 352.251,328.706 351.838 C 329.088 351.425,329.551 351.088,329.734 351.088 C 329.917 351.088,330.275 350.685,330.530 350.193 C 330.785 349.700,331.396 349.089,331.888 348.835 C 332.380 348.580,332.783 348.173,332.783 347.929 C 332.783 347.686,332.982 347.487,333.226 347.487 C 333.469 347.487,333.876 347.084,334.131 346.592 C 334.386 346.099,334.997 345.488,335.489 345.234 C 335.981 344.979,336.384 344.581,336.384 344.349 C 336.384 344.116,336.656 343.840,336.988 343.735 C 337.319 343.630,337.791 343.157,338.035 342.686 C 338.278 342.214,338.757 341.739,339.099 341.631 C 339.440 341.523,339.843 341.108,339.995 340.710 C 340.146 340.311,340.473 339.985,340.720 339.985 C 340.967 339.985,341.374 339.589,341.624 339.106 C 341.874 338.623,342.359 338.138,342.701 338.030 C 343.043 337.921,343.471 337.507,343.652 337.108 C 343.834 336.710,344.160 336.384,344.377 336.384 C 344.593 336.384,344.979 335.981,345.234 335.489 C 345.488 334.997,346.099 334.386,346.592 334.131 C 347.084 333.876,347.487 333.469,347.487 333.226 C 347.487 332.982,347.686 332.783,347.929 332.783 C 348.173 332.783,348.580 332.380,348.835 331.888 C 349.089 331.396,349.700 330.785,350.193 330.530 C 350.685 330.275,351.088 329.917,351.088 329.734 C 351.088 329.551,351.425 329.088,351.838 328.706 C 352.251 328.324,352.588 327.734,352.588 327.396 C 352.588 327.058,352.702 326.782,352.840 326.782 C 352.979 326.782,353.246 326.444,353.434 326.032 C 353.622 325.619,353.981 325.281,354.232 325.281 C 354.483 325.281,354.689 325.072,354.689 324.817 C 354.689 324.562,355.087 324.125,355.573 323.845 C 356.545 323.288,357.089 322.347,357.089 321.224 C 357.089 320.725,357.361 320.355,357.954 320.048 C 359.091 319.460,360.254 318.052,360.688 316.737 C 360.880 316.155,361.232 315.679,361.471 315.679 C 361.710 315.679,362.034 315.341,362.191 314.929 C 362.347 314.516,362.658 314.179,362.880 314.179 C 363.271 314.179,364.591 311.904,364.591 311.231 C 364.591 311.048,364.861 310.754,365.191 310.578 C 365.521 310.401,365.791 310.089,365.791 309.884 C 365.791 309.679,366.062 309.279,366.392 308.997 C 366.722 308.714,366.992 308.300,366.992 308.076 C 366.992 307.852,367.262 307.357,367.592 306.977 C 367.922 306.596,368.192 305.955,368.192 305.552 C 368.192 305.077,368.399 304.766,368.782 304.666 C 369.107 304.581,369.448 304.274,369.540 303.983 C 369.632 303.693,369.974 303.214,370.300 302.919 C 370.626 302.624,370.893 302.150,370.893 301.866 C 370.893 301.581,371.095 301.181,371.343 300.975 C 371.590 300.770,371.793 300.201,371.793 299.711 C 371.793 299.051,372.141 298.483,373.143 297.509 C 373.886 296.787,374.494 295.931,374.494 295.607 C 374.494 295.282,374.696 294.814,374.944 294.566 C 375.191 294.319,375.394 293.836,375.394 293.493 C 375.394 293.150,375.731 292.576,376.144 292.217 C 376.557 291.858,376.894 291.272,376.894 290.915 C 376.894 290.558,377.162 290.024,377.489 289.728 C 377.815 289.432,378.168 288.736,378.272 288.181 C 378.376 287.626,378.575 287.172,378.714 287.172 C 378.854 287.172,379.057 286.696,379.166 286.113 C 379.275 285.531,379.601 284.929,379.890 284.774 C 380.186 284.616,380.497 283.981,380.602 283.321 C 380.705 282.676,380.995 281.978,381.245 281.770 C 381.496 281.563,381.784 280.872,381.886 280.237 C 381.987 279.601,382.256 278.927,382.483 278.739 C 382.710 278.550,382.896 277.957,382.896 277.419 C 382.896 276.773,383.102 276.303,383.505 276.031 C 383.933 275.741,384.168 275.154,384.296 274.051 C 384.431 272.884,384.621 272.437,385.037 272.305 C 385.408 272.187,385.596 271.843,385.596 271.284 C 385.596 270.821,385.799 270.273,386.047 270.068 C 386.317 269.843,386.497 269.187,386.497 268.424 C 386.497 267.486,386.692 266.943,387.247 266.345 C 387.818 265.729,387.997 265.210,387.997 264.173 C 387.997 263.094,388.114 262.779,388.558 262.663 C 388.992 262.549,389.157 262.138,389.291 260.844 C 389.386 259.924,389.586 259.091,389.735 258.993 C 389.885 258.895,390.096 257.802,390.204 256.564 C 390.360 254.795,390.530 254.226,391.000 253.902 C 391.439 253.600,391.598 253.151,391.598 252.217 C 391.598 251.360,391.813 250.670,392.257 250.105 C 392.722 249.514,392.954 248.728,393.043 247.439 C 393.113 246.434,393.315 245.431,393.493 245.210 C 393.671 244.989,393.874 243.600,393.945 242.125 C 394.048 239.963,394.175 239.387,394.597 239.161 C 395.033 238.927,395.144 238.324,395.257 235.566 C 395.374 232.735,395.478 232.189,395.972 231.829 C 396.469 231.467,396.578 230.871,396.753 227.557 C 396.865 225.439,397.092 222.491,397.257 221.005 C 397.635 217.600,397.644 183.536,397.268 179.895 C 397.115 178.410,396.890 175.478,396.769 173.381 C 396.584 170.178,396.460 169.503,395.995 169.163 C 395.536 168.827,395.412 168.203,395.276 165.545 C 395.147 163.008,394.995 162.198,394.555 161.691 C 394.150 161.224,393.998 160.573,393.998 159.304 C 393.998 158.345,393.811 156.982,393.581 156.275 C 393.352 155.567,393.090 154.294,392.999 153.446 C 392.908 152.597,392.556 151.384,392.216 150.750 C 391.876 150.115,391.598 149.096,391.598 148.484 C 391.598 147.725,391.414 147.242,391.020 146.966 C 390.599 146.671,390.384 146.034,390.230 144.623 C 390.114 143.558,389.897 142.531,389.748 142.342 C 389.599 142.154,389.394 141.304,389.294 140.454 C 389.167 139.385,388.939 138.818,388.554 138.611 C 388.143 138.392,387.997 137.973,387.997 137.018 C 387.997 136.051,387.806 135.516,387.247 134.912 C 386.687 134.308,386.497 133.773,386.497 132.804 C 386.497 132.017,386.320 131.359,386.047 131.133 C 385.799 130.927,385.596 130.392,385.596 129.942 C 385.596 129.493,385.343 128.896,385.032 128.615 C 384.722 128.334,384.380 127.552,384.272 126.878 C 384.164 126.203,383.810 125.313,383.486 124.900 C 383.161 124.488,382.896 123.847,382.896 123.477 C 382.896 123.107,382.693 122.636,382.446 122.431 C 382.198 122.225,381.995 121.817,381.995 121.523 C 381.995 121.230,381.659 120.267,381.248 119.385 C 380.837 118.502,380.500 117.548,380.498 117.265 C 380.496 116.982,380.243 116.615,379.935 116.451 C 379.597 116.270,379.298 115.670,379.181 114.940 C 379.075 114.273,378.854 113.728,378.691 113.728 C 378.528 113.728,378.395 113.384,378.395 112.964 C 378.395 112.534,378.066 111.895,377.644 111.504 C 377.232 111.122,376.894 110.570,376.894 110.278 C 376.894 109.985,376.557 109.433,376.144 109.051 C 375.673 108.615,375.394 108.029,375.394 107.478 C 375.394 106.995,375.191 106.432,374.944 106.227 C 374.696 106.021,374.494 105.718,374.494 105.554 C 374.494 104.975,372.837 102.670,372.318 102.527 C 371.968 102.430,371.793 102.084,371.793 101.490 C 371.793 101.000,371.590 100.431,371.343 100.225 C 371.095 100.020,370.893 99.585,370.893 99.258 C 370.893 98.932,370.285 98.091,369.542 97.390 C 368.800 96.688,368.192 95.840,368.192 95.506 C 368.192 95.171,368.003 94.740,367.771 94.548 C 367.540 94.356,367.261 93.841,367.151 93.404 C 366.876 92.309,365.896 90.996,365.184 90.770 C 364.858 90.667,364.591 90.370,364.591 90.110 C 364.591 89.267,363.324 87.074,362.750 86.924 C 362.442 86.844,362.191 86.563,362.191 86.300 C 362.191 86.037,362.065 85.821,361.912 85.821 C 361.382 85.821,360.690 84.875,360.690 84.150 C 360.690 83.749,360.552 83.421,360.383 83.421 C 360.214 83.421,359.947 83.083,359.790 82.671 C 359.633 82.258,359.299 81.920,359.047 81.920 C 358.796 81.920,358.590 81.723,358.590 81.481 C 358.590 81.239,358.316 80.895,357.981 80.716 C 357.646 80.537,357.163 79.866,356.906 79.225 C 356.647 78.578,355.661 77.340,354.687 76.440 C 353.365 75.218,352.883 74.545,352.724 73.697 C 352.574 72.901,352.306 72.496,351.800 72.304 C 351.408 72.155,351.088 71.823,351.088 71.566 C 351.088 71.309,350.810 70.996,350.471 70.870 C 350.132 70.745,349.691 70.313,349.490 69.911 C 349.290 69.508,348.796 69.015,348.394 68.814 C 347.991 68.614,347.560 68.172,347.434 67.833 C 347.309 67.494,346.996 67.217,346.739 67.217 C 346.482 67.217,346.141 66.874,345.982 66.454 C 345.822 66.035,345.285 65.461,344.788 65.179 C 344.291 64.897,343.808 64.430,343.715 64.141 C 343.622 63.852,343.355 63.616,343.123 63.616 C 342.891 63.616,342.493 63.213,342.238 62.721 C 341.984 62.228,341.372 61.617,340.880 61.363 C 340.388 61.108,339.985 60.710,339.985 60.478 C 339.985 60.245,339.749 59.979,339.460 59.886 C 339.171 59.793,338.697 59.298,338.407 58.787 C 338.117 58.275,337.600 57.784,337.259 57.695 C 336.917 57.605,336.517 57.213,336.369 56.823 C 336.220 56.433,335.890 56.114,335.634 56.114 C 335.378 56.114,335.038 55.771,334.879 55.351 C 334.720 54.932,334.190 54.360,333.703 54.080 C 333.215 53.800,332.754 53.333,332.678 53.042 C 332.602 52.751,332.328 52.513,332.069 52.513 C 331.810 52.513,331.390 52.110,331.135 51.618 C 330.881 51.126,330.270 50.515,329.777 50.260 C 329.285 50.005,328.882 49.613,328.882 49.388 C 328.882 49.158,328.422 48.893,327.832 48.782 C 327.194 48.662,326.782 48.411,326.782 48.141 C 326.782 47.897,326.444 47.569,326.032 47.412 C 325.619 47.255,325.281 46.988,325.281 46.819 C 325.281 46.650,325.042 46.512,324.749 46.512 C 324.453 46.512,323.976 46.063,323.671 45.497 C 323.128 44.489,322.737 44.213,320.841 43.499 C 320.293 43.293,319.654 42.743,319.408 42.268 C 319.164 41.796,318.765 41.410,318.522 41.410 C 318.279 41.410,318.080 41.285,318.080 41.132 C 318.080 40.601,317.133 39.910,316.408 39.910 C 316.007 39.910,315.679 39.772,315.679 39.602 C 315.679 39.433,315.341 39.167,314.929 39.010 C 314.516 38.853,314.179 38.519,314.179 38.267 C 314.179 38.015,313.993 37.809,313.765 37.809 C 313.538 37.809,313.177 37.599,312.964 37.342 C 312.750 37.085,312.160 36.672,311.652 36.425 C 309.695 35.474,309.367 35.248,309.208 34.747 C 309.115 34.454,308.607 34.148,308.038 34.041 C 307.401 33.921,306.977 33.642,306.882 33.280 C 306.776 32.872,306.465 32.708,305.795 32.708 C 305.238 32.708,304.787 32.525,304.685 32.258 C 304.590 32.011,304.327 31.808,304.101 31.808 C 303.875 31.808,303.469 31.470,303.198 31.058 C 302.917 30.629,302.420 30.308,302.038 30.308 C 301.669 30.308,301.131 30.045,300.841 29.724 C 300.550 29.404,299.929 29.057,299.461 28.954 C 298.992 28.851,298.027 28.305,297.316 27.740 C 296.605 27.175,295.812 26.711,295.553 26.710 C 295.294 26.708,294.788 26.369,294.430 25.956 C 294.071 25.544,293.455 25.206,293.062 25.206 C 292.668 25.206,292.178 25.004,291.973 24.756 C 291.768 24.509,291.283 24.306,290.897 24.306 C 290.501 24.306,290.053 24.044,289.872 23.706 C 289.662 23.312,289.244 23.106,288.660 23.106 C 288.083 23.106,287.538 22.841,287.116 22.356 C 286.757 21.943,286.167 21.605,285.804 21.605 C 285.441 21.605,284.977 21.403,284.771 21.155 C 284.566 20.908,284.027 20.705,283.575 20.705 C 283.122 20.705,282.398 20.427,281.966 20.087 C 281.533 19.747,280.711 19.393,280.138 19.300 C 279.564 19.207,278.866 18.877,278.586 18.567 C 278.306 18.258,277.790 18.005,277.440 18.005 C 277.089 18.005,276.536 17.821,276.211 17.597 C 275.885 17.373,274.967 17.118,274.171 17.031 C 273.157 16.920,272.589 16.683,272.278 16.238 C 272.034 15.889,271.525 15.604,271.147 15.604 C 270.770 15.604,270.229 15.348,269.946 15.035 C 269.663 14.722,268.831 14.376,268.097 14.266 C 267.364 14.156,266.393 13.873,265.940 13.637 C 265.487 13.400,264.615 13.206,264.002 13.205 C 263.221 13.204,262.797 13.035,262.587 12.642 C 262.374 12.245,261.843 12.039,260.765 11.935 C 259.760 11.839,259.107 11.602,258.841 11.237 C 258.537 10.822,257.928 10.654,256.375 10.556 C 255.241 10.485,254.047 10.241,253.722 10.014 C 253.396 9.788,252.557 9.602,251.857 9.602 C 250.923 9.602,250.504 9.454,250.285 9.045 C 250.062 8.628,249.496 8.437,248.043 8.288 C 246.973 8.179,245.516 7.825,244.804 7.502 C 244.064 7.166,242.845 6.912,241.955 6.908 C 241.099 6.905,240.019 6.741,239.554 6.544 C 239.090 6.348,237.263 6.111,235.496 6.018 C 232.784 5.875,232.215 5.758,231.857 5.268 C 231.488 4.763,230.925 4.665,227.536 4.515 C 224.733 4.391,223.488 4.218,223.101 3.897 C 222.575 3.460,181.317 3.103,179.145 3.516 M243.511 64.816 C 243.810 65.146,244.225 65.416,244.435 65.416 C 244.644 65.416,245.423 65.880,246.165 66.447 C 246.908 67.014,247.965 67.710,248.514 67.993 C 249.858 68.688,256.828 75.562,257.766 77.119 C 258.178 77.803,258.945 78.896,259.472 79.548 C 259.998 80.200,260.521 81.034,260.633 81.402 C 260.745 81.770,261.057 82.321,261.326 82.627 C 261.776 83.138,261.831 91.302,262.013 183.099 C 262.144 249.824,262.314 283.830,262.524 285.469 C 262.697 286.818,262.922 288.792,263.024 289.856 C 263.126 290.920,263.436 292.136,263.714 292.557 C 263.991 292.979,264.481 293.840,264.802 294.471 C 266.395 297.606,270.010 299.704,274.325 300.000 L 276.669 300.161 276.669 305.356 L 276.669 310.550 275.544 310.748 C 274.925 310.856,273.854 311.267,273.165 311.661 C 272.475 312.056,271.754 312.378,271.562 312.378 C 271.370 312.378,270.869 312.648,270.449 312.978 C 270.030 313.308,269.451 313.578,269.164 313.578 C 268.876 313.578,268.473 313.781,268.267 314.029 C 268.062 314.276,267.658 314.479,267.371 314.479 C 267.083 314.479,266.482 314.766,266.035 315.118 C 265.587 315.470,264.630 315.824,263.906 315.906 C 263.156 315.990,262.372 316.296,262.081 316.617 C 261.801 316.926,261.425 317.184,261.244 317.189 C 261.063 317.195,260.375 317.461,259.715 317.779 C 259.055 318.098,258.333 318.364,258.112 318.369 C 257.890 318.375,257.366 318.650,256.946 318.980 C 256.526 319.310,255.850 319.580,255.443 319.580 C 255.035 319.580,254.007 319.940,253.158 320.380 C 250.329 321.845,250.023 321.980,249.553 321.980 C 249.296 321.980,248.844 322.234,248.549 322.543 C 248.254 322.853,247.674 323.209,247.262 323.335 C 246.849 323.461,246.190 323.815,245.796 324.122 C 245.389 324.440,244.596 324.681,243.957 324.681 C 243.325 324.681,242.671 324.878,242.461 325.131 C 242.255 325.379,241.860 325.581,241.582 325.581 C 241.304 325.581,240.619 325.919,240.060 326.332 C 239.501 326.744,238.860 327.082,238.636 327.082 C 238.412 327.082,237.729 327.336,237.119 327.646 C 236.508 327.956,235.064 328.517,233.908 328.893 C 232.753 329.269,231.486 329.825,231.092 330.130 C 230.699 330.434,230.132 330.683,229.834 330.683 C 229.536 330.683,229.109 330.943,228.886 331.262 C 228.663 331.580,228.090 331.939,227.613 332.058 C 227.137 332.178,226.400 332.457,225.976 332.678 C 225.553 332.899,224.766 333.080,224.228 333.081 C 223.623 333.083,223.054 333.312,222.736 333.683 C 222.453 334.014,222.008 334.284,221.747 334.284 C 221.486 334.284,220.814 334.621,220.255 335.034 C 219.696 335.446,219.020 335.784,218.754 335.784 C 218.487 335.784,218.007 335.982,217.687 336.225 C 217.366 336.467,216.699 336.674,216.204 336.684 C 215.709 336.694,214.764 337.036,214.104 337.442 C 213.443 337.849,212.688 338.182,212.425 338.183 C 212.161 338.184,211.702 338.455,211.403 338.785 C 211.104 339.115,210.560 339.385,210.193 339.385 C 209.826 339.385,209.372 339.570,209.184 339.796 C 208.996 340.023,208.232 340.277,207.485 340.361 C 206.738 340.445,205.886 340.733,205.591 341.000 C 204.525 341.964,201.950 341.060,201.950 339.721 C 201.950 339.435,201.613 338.744,201.200 338.185 C 200.788 337.625,200.450 336.950,200.450 336.683 C 200.450 336.417,200.252 335.937,200.010 335.616 C 199.767 335.296,199.565 334.808,199.559 334.532 C 199.554 334.255,199.211 333.627,198.798 333.136 C 197.788 331.936,198.080 331.378,200.007 330.818 C 200.883 330.563,201.763 330.158,201.962 329.918 C 202.161 329.679,202.563 329.482,202.855 329.482 C 203.147 329.482,204.039 328.942,204.838 328.282 C 205.637 327.622,206.461 327.082,206.670 327.082 C 208.539 327.082,216.653 316.222,216.654 313.720 C 216.654 313.386,216.890 312.778,217.179 312.370 C 217.746 311.569,217.943 310.011,218.428 302.476 C 218.801 296.671,218.823 122.007,218.450 115.979 C 218.077 109.928,217.882 109.134,216.399 107.623 C 215.714 106.925,215.154 106.137,215.154 105.871 C 215.154 105.353,213.247 103.526,212.706 103.526 C 212.526 103.526,211.513 102.716,210.455 101.725 C 209.396 100.735,208.309 99.925,208.040 99.925 C 207.770 99.925,207.307 99.706,207.011 99.438 C 206.715 99.170,205.851 98.835,205.091 98.693 C 204.331 98.551,203.362 98.162,202.939 97.830 C 202.383 97.392,201.720 97.224,200.545 97.224 C 199.651 97.224,198.555 97.039,198.110 96.812 C 197.664 96.585,196.388 96.304,195.274 96.188 L 193.248 95.976 193.248 92.379 C 193.248 88.736,193.500 87.622,194.325 87.622 C 194.576 87.622,195.277 87.284,195.885 86.872 C 196.492 86.459,197.112 86.122,197.263 86.122 C 197.414 86.122,198.114 85.649,198.819 85.071 C 199.524 84.494,200.221 84.021,200.367 84.021 C 200.514 84.021,201.091 83.683,201.650 83.271 C 202.210 82.858,202.962 82.521,203.322 82.521 C 203.683 82.521,204.146 82.318,204.351 82.071 C 204.557 81.823,205.029 81.620,205.401 81.620 C 205.774 81.620,206.253 81.410,206.467 81.152 C 206.680 80.895,207.338 80.448,207.929 80.159 C 208.519 79.870,209.272 79.496,209.602 79.327 C 211.747 78.234,212.258 78.020,212.725 78.020 C 213.013 78.020,213.566 77.682,213.953 77.269 C 214.341 76.857,214.887 76.519,215.166 76.519 C 215.445 76.519,216.016 76.249,216.436 75.919 C 216.856 75.589,217.313 75.318,217.452 75.317 C 218.114 75.314,221.283 73.815,221.519 73.395 C 221.665 73.133,222.022 72.918,222.312 72.918 C 222.602 72.918,223.297 72.581,223.856 72.168 C 224.415 71.755,225.150 71.414,225.490 71.408 C 225.829 71.403,226.369 71.201,226.689 70.958 C 227.009 70.716,227.495 70.518,227.768 70.518 C 228.041 70.518,228.508 70.248,228.807 69.917 C 229.106 69.587,229.501 69.317,229.684 69.317 C 229.868 69.317,230.515 68.980,231.122 68.567 C 231.729 68.155,232.487 67.817,232.806 67.817 C 233.124 67.817,233.553 67.614,233.758 67.367 C 233.964 67.119,234.430 66.917,234.793 66.917 C 235.157 66.917,235.771 66.579,236.159 66.167 C 236.547 65.754,237.077 65.415,237.337 65.414 C 237.597 65.413,238.215 65.144,238.710 64.816 C 239.975 63.979,242.753 63.979,243.511 64.816 M142.461 157.838 L 144.036 157.839 144.036 178.207 C 144.036 189.409,144.116 198.975,144.214 199.464 L 144.392 200.354 164.804 200.537 C 176.031 200.638,185.250 200.761,185.291 200.810 C 185.331 200.860,185.441 202.882,185.535 205.304 L 185.705 209.708 184.183 211.230 C 183.345 212.068,182.485 212.753,182.272 212.753 C 182.058 212.753,179.006 215.540,175.488 218.946 C 171.970 222.351,168.417 225.578,167.592 226.116 C 166.767 226.654,165.695 227.514,165.210 228.026 L 164.329 228.957 154.182 228.957 L 144.036 228.957 144.036 240.301 L 144.036 251.645 142.959 252.679 C 142.367 253.248,141.632 254.201,141.325 254.796 C 141.017 255.392,138.040 258.700,134.707 262.148 C 131.375 265.596,128.314 268.957,127.905 269.617 C 127.496 270.278,126.678 271.324,126.086 271.943 L 125.009 273.068 121.094 273.064 C 118.941 273.062,116.875 272.979,116.504 272.879 L 115.829 272.698 115.829 250.864 L 115.829 229.031 93.360 228.808 L 70.891 228.584 70.673 224.656 L 70.456 220.728 75.813 215.439 C 78.760 212.530,81.745 209.789,82.447 209.347 C 83.149 208.905,85.593 206.724,87.879 204.500 L 92.036 200.457 103.857 200.379 L 115.679 200.300 115.758 189.648 L 115.837 178.995 119.696 175.094 C 121.818 172.948,124.094 170.450,124.753 169.542 C 125.413 168.635,128.228 165.545,131.010 162.676 L 136.067 157.461 138.476 157.648 C 139.801 157.751,141.594 157.837,142.461 157.838 "
            stroke="none" fill="#000" fill-rule="evenodd"></path>
        <circle cx="200" cy="200" r="190" stroke="#fff" stroke-width="19" fill="none" />
    </g>
</svg>