<svg version="1.2" xmlns="http://www.w3.org/2000/svg" viewBox="0 0 1000 1000" width="1000" height="1000">
    <style>
        .a {
            fill: #000000
        }

        .b {
            fill: #ffffff
        }
    </style>
    <path class="a"
        d="m500.1 0l-133.2 178.3-220.4-31.9 32 220.4-178.5 133.1 178.5 133.2-32 220.4 220.4-32 133.2 178.5 133.1-178.5 220.4 32-31.9-220.4 178.3-133.2-178.3-133.1 31.9-220.4-220.4 31.9z" />
    <path class="b"
        d="m469.9 262.2v71.1c0 6.7-0.4 11.6-0.9 15-0.5 3.4-2.4 7.1-5.7 11.2-3.4 4.1-8.6 7.5-15.9 10.1l-80.3 30.9-10.8-10.9c13.9-15.4 20.8-31.9 20.8-49.4v-88.1c0-3 27.2-15.7 81.5-37.8 54.3-22.2 86.3-33.3 95.8-33.3q14.3 0.1 39 34.4c16.6 23 24.7 40.6 24.7 52.9v105.9c0 27.3-14.9 68.3-45.1 122.9-30.1 54.5-60.2 102.2-90 142.9l-44.9 61.8c57.2-1 90.4-1.6 99.8-1.6 28.3 0 45.6-8.4 51.7-25.5 5.7 0.6 9.8 0.8 12.4 0.8h4.6l43.3 62.6c-1.6 2.6-3.8 6.1-6.6 10.5-2.8 4.3-9.2 10-19.3 16.9-10.1 7-21.1 10.5-32.9 10.5h-217c-10.9-27.9-16.3-51.8-16.3-71.9 0-6.7 13.9-31 41.7-73 27.8-42 55.8-86 83.9-132.1q42.1-69.2 42.1-93.9v-97.4c0-22.6-2.2-38.5-6.6-47.5-4.4-9-11.6-13.5-21.6-13.5-10 0-19.3 5.2-27.4 15.5z" />
</svg>