<svg viewBox="0 0 578.7 578.66" xmlns="http://www.w3.org/2000/svg" xmlns:xlink="http://www.w3.org/1999/xlink"><clipPath id="a"><path d="m289.34 0a19.54 19.54 0 0 0 -13.89 5.78l-269.68 269.64a19.73 19.73 0 0 0 0 27.85l269.68 269.65a19.64 19.64 0 0 0 27.82 0l269.73-269.65a19.76 19.76 0 0 0 0-27.85l-269.73-269.64a19.61 19.61 0 0 0 -13.93-5.78z"/></clipPath><path d="m289.35 573.68a14.57 14.57 0 0 1 -10.39-4.3l-269.64-269.64a14.69 14.69 0 0 1 0-20.77l269.68-269.68a14.69 14.69 0 0 1 20.77 0l269.61 269.71a14.69 14.69 0 0 1 0 20.77l-269.65 269.61a14.53 14.53 0 0 1 -10.38 4.3" fill="#2595a0"/><path d="m289.35 10a9.62 9.62 0 0 1 6.84 2.82l269.65 269.69a9.67 9.67 0 0 1 0 13.68l-269.65 269.65a9.63 9.63 0 0 1 -13.68 0l-269.65-269.65a9.67 9.67 0 0 1 0-13.68l269.65-269.68a9.62 9.62 0 0 1 6.84-2.83m0-10a19.68 19.68 0 0 0 -13.93 5.78l-269.64 269.65a19.61 19.61 0 0 0 0 27.81l269.64 269.68a19.74 19.74 0 0 0 27.85 0l269.65-269.68a19.63 19.63 0 0 0 0-27.81l-269.65-269.65a19.65 19.65 0 0 0 -13.92-5.78" fill="#fff"/><g clip-path="url(#a)"><path d="m290.28 190.14-10.28 7.29-24.55-15.43-13.68-55.2 27.57 7 17.3 18.91zm91.14 166.79h28.95l3-40.34-46.94-12.75-14.92 20 3.49 24.16zm-98.19 87.48 22.56-13.89-5.23-21.66-18.7-26.41-16.86 10.7-17.77 42.15zm17.31-385.73 10.73 51.32-4.13 32.8 21.66 26.6 49.2-22.08 20.07-36.43-64.75-64.76zm-99.22 31.53 59.57 13.59 24.87 20.28-4.13-62.89 23.57-43.19-2.41-2.42a19 19 0 0 0 -26.86 0zm300.33 124.23-28.41-28.44-22.76 14.4 6.6 11.83zm-264 247.3-14.42 48.65 52.7 52.7a19 19 0 0 0 26.86 0l38.55-38.55c-12-18.45-35.78-55.75-35.78-55.75zm155-286 1.58 35.76-26.88 25.54 5 6.36 48.75-30.53 33.85-45.19-32.19-32.19zm-20.29-6.38-44.67 40.33 1.62 19.6 16.12 8.71 29.85-34.28zm48.3 216.44-71.76-9.56-18-14.82-17.53 34.18 14.34 20.05-7.29 42.6 39 48.27 84.44-84.52zm-212.39 51.53 31.22-66.74-36-50.82h-38.27l-9.56 53.09-39.47 30.51 89.11 89.1zm-24.14-258.58 26.2 28 31.22 10 15.45-16.58-19.36-16-14.82-69.94-38.19-7.41-28 28zm343.78 61.94-75.86-12.69-37.14 11.17-47.62 34.63 2.51 14.34 50.58 15.71 40.62-19.39 60.14 3.65 46.29-5.59a19.18 19.18 0 0 0 -4.27-6.62zm-42.82 75.9-55.09-1.13 2.27 49.68 27.93 40.58 93-93zm-351.31 39.18 5.47-29.36-40.33 14.09-34.42-18.91-24.5 5.62 57.3 57.27zm46.47-147.86-38.25 26.65-44.22 8.91v40.53l19.39 23.48 28.47-7.08 61.26-8.4 20.52-34.29-16.42-28.13-24.86-5.26zm-74.74 8.9 29.15-5 34-26.2-28.15-34.61-51.84 51.84zm-55.8 78.19 29.16.89-7.54-27.78s-3.14-26-5.1-42.8l-50.13 50.09z" fill="#fff"/></g><path d="m303.48 264.4a132.6 132.6 0 0 1 -16.71-32 1 1 0 0 0 -1.82 0 134.67 134.67 0 0 1 -16.75 32c-12.24 17-18.46 25.21-18.46 39.48a36.11 36.11 0 0 0 72.21 0c0-14.27-6.19-22.53-18.47-39.48" fill="#fff"/></svg>