<svg viewBox="0 0 578.7 578.7" xmlns="http://www.w3.org/2000/svg" xmlns:xlink="http://www.w3.org/1999/xlink"><clipPath id="a" transform="translate(-10.65 -8.7)"><path d="m0 0h600v596.1h-600z"/></clipPath><g clip-path="url(#a)"><path d="m300 582.4a14.59 14.59 0 0 1 -10.38-4.3l-269.62-269.67a14.68 14.68 0 0 1 0-20.76l269.62-269.67a14.68 14.68 0 0 1 20.76 0l269.62 269.67a14.68 14.68 0 0 1 0 20.76l-269.62 269.67a14.61 14.61 0 0 1 -10.38 4.3" fill="#119ac0" transform="translate(-10.65 -8.7)"/><path d="m300 18.7a9.62 9.62 0 0 1 6.85 2.84l269.66 269.67a9.68 9.68 0 0 1 0 13.69l-269.66 269.66a9.68 9.68 0 0 1 -13.7 0l-269.66-269.66a9.68 9.68 0 0 1 0-13.69l269.66-269.67a9.62 9.62 0 0 1 6.85-2.84m0-10a19.61 19.61 0 0 0 -13.92 5.77l-269.66 269.66a19.68 19.68 0 0 0 0 27.84l269.66 269.66a19.68 19.68 0 0 0 27.84 0l269.66-269.63a19.68 19.68 0 0 0 0-27.84l-269.66-269.69a19.61 19.61 0 0 0 -13.92-5.77" fill="#fff" transform="translate(-10.65 -8.7)"/><circle cx="289.51" cy="286.73" fill="#fff" r="107.31"/><circle cx="289.51" cy="286.73" fill="#119ac0" r="82.97"/><g fill="#fff"><path d="m230.47 376.35 55.09-79.97-12.16 96.45-57.46 85.1z"/><path d="m318.05 390.22-12.25-66.5 41.5 53.48 13.61 70.18z"/><path d="m393 258.2-66.5 12.25 53.48-41.5 70.19-13.61z"/><path d="m260.98 183.25 12.25 66.49-41.5-53.47-13.61-70.19z"/><path d="m186.03 315.27 66.5-12.25-53.48 41.49-70.19 13.62z"/><path d="m379.13 345.78-79.97-55.09 96.45 12.16 85.1 57.46z"/><path d="m348.56 197.11-55.09 79.98 12.16-96.46 57.46-85.1z"/><path d="m199.9 227.69 79.97 55.09-96.45-12.17-85.1-57.45z"/></g></g></svg>