<svg viewBox="0 0 578.7 578.7" xmlns="http://www.w3.org/2000/svg" xmlns:xlink="http://www.w3.org/1999/xlink"><clipPath id="a" transform="translate(-10.65 -10.65)"><path d="m0 0h600v600h-600z"/></clipPath><g clip-path="url(#a)"><path d="m300 584.35a14.52 14.52 0 0 1 -10.38-4.35l-269.62-269.62a14.67 14.67 0 0 1 0-20.76l269.62-269.62a14.65 14.65 0 0 1 20.76 0l269.62 269.62a14.67 14.67 0 0 1 0 20.76l-269.62 269.62a14.52 14.52 0 0 1 -10.38 4.35" fill="#7c7f67" transform="translate(-10.65 -10.65)"/><g fill="#fff"><path d="m300 20.66a9.68 9.68 0 0 1 6.84 2.82l269.65 269.66a9.68 9.68 0 0 1 0 13.72l-269.65 269.66a9.71 9.71 0 0 1 -13.68 0l-269.65-269.66a9.68 9.68 0 0 1 0-13.72l269.65-269.66a9.68 9.68 0 0 1 6.84-2.82m0-10a19.67 19.67 0 0 0 -13.93 5.79l-269.66 269.64a19.68 19.68 0 0 0 0 27.82l269.66 269.66a19.68 19.68 0 0 0 27.86 0l269.66-269.66a19.68 19.68 0 0 0 0-27.82l-269.66-269.65a19.67 19.67 0 0 0 -13.93-5.79" transform="translate(-10.65 -10.65)"/><path d="m469.2 272.1c-7.47-32.89-24.95-95.1-169.2-95.1s-161.71 62.21-169.22 95.1c-13.34 58.5 12.7 86.41 27.65 96.88 18.4 12.87 62.22 15.07 62.22 15.07s-5.91 40.77 0 47.57c13 14.94 141.45 16 158.72 0 6.63-6.08 0-47.57 0-47.57s43.82-2.2 62.18-15.07c14.94-10.47 41-38.38 27.65-96.88m-205.66 43a10 10 0 0 1 0 13.89 9.59 9.59 0 0 1 -13.76 0l-.09-.09-24.57-27.56-24.12 27.79a10.56 10.56 0 0 1 -7.35 2.91 10.4 10.4 0 0 1 -7.34-2.91 9.74 9.74 0 0 1 0-14.31l.08-.09 27.86-24.27-27.58-24.46a10.38 10.38 0 0 1 0-14.1 9.29 9.29 0 0 1 13.67 0l24.74 27.73 24.27-27.82a10.41 10.41 0 0 1 14.44 0 9.94 9.94 0 0 1 0 14.31l-.08.09-27.78 24.27zm55.68 62c-5.28 2.91-8.83-4.05-17.61-5.78-13.21-2.54-18.87 6.62-22.24 0-3.8-7.39 10.72-42.51 19.58-44.2s14.44 2.57 17.27 16c3.76 17.81 8.31 31 3 34m94.3-62a10 10 0 0 1 0 13.89 9.59 9.59 0 0 1 -13.76 0l-.09-.09-24.56-27.56-24.11 27.77a10.72 10.72 0 0 1 -14.69 0 9.85 9.85 0 0 1 0-14.31l.08-.09 27.86-24.27-27.6-24.46a10.4 10.4 0 0 1 0-14.1 9.24 9.24 0 0 1 6.84-3 9.34 9.34 0 0 1 6.84 3l24.73 27.73 24.28-27.82a10.4 10.4 0 0 1 14.43 0 9.94 9.94 0 0 1 0 14.31l-.08.09-27.78 24.27z" transform="translate(-10.65 -10.65)"/></g></g></svg>