<svg viewBox="0 0 578.7 578.7" xmlns="http://www.w3.org/2000/svg"><path d="m289.35 573.7a14.59 14.59 0 0 1 -10.35-4.3l-269.7-269.67a14.7 14.7 0 0 1 0-20.73l269.7-269.7a14.68 14.68 0 0 1 20.76 0l269.64 269.7a14.7 14.7 0 0 1 0 20.76l-269.67 269.64a14.59 14.59 0 0 1 -10.38 4.3z" fill="#c73c96"/><g fill="#fff"><path d="m289.35 10a9.62 9.62 0 0 1 6.84 2.84l269.67 269.66a9.7 9.7 0 0 1 0 13.69l-269.67 269.67a9.67 9.67 0 0 1 -13.69 0l-269.66-269.67a9.67 9.67 0 0 1 0-13.69l269.66-269.66a9.62 9.62 0 0 1 6.85-2.84m0-10a19.62 19.62 0 0 0 -13.92 5.76l-269.67 269.67a19.69 19.69 0 0 0 0 27.83l269.67 269.67a19.66 19.66 0 0 0 27.83 0l269.67-269.67a19.67 19.67 0 0 0 0-27.83l-269.67-269.67a19.62 19.62 0 0 0 -13.91-5.76z"/><path d="m171.65 211.08h-26.5a19.34 19.34 0 0 1 6.49-7.14h12.27a48.3 48.3 0 0 1 7.74 7.14z"/><path d="m190.08 236.54h-41.65a64.69 64.69 0 0 1 -3.43-8.54h39.53c2.14 3.14 4.02 6.09 5.55 8.54z"/><path d="m208 262h-44.14q-2.61-4-5.73-8.75c-.26-.39-.52-.78-.76-1.16h42.8a99.8 99.8 0 0 0 7.83 9.91z"/><path d="m221 160.18h-31.08a13.84 13.84 0 0 1 1.61-4.39h27.62c.56 1.21 1.2 2.72 1.85 4.39z"/><path d="m230.79 185.63h-36.66c-.68-1.89-1.32-3.84-1.89-5.77h36.4z"/><path d="m240.63 211.07h-36.18c-.77-2-1.4-3.56-1.82-4.62-.28-.71-.63-1.56-1-2.52h36.14c1 2.63 1.97 5.07 2.86 7.14z"/><path d="m251.31 236.54h-37.63c-.92-2.87-1.9-5.74-2.88-8.53h36.7c1.28 3.1 2.5 5.99 3.81 8.53z"/><path d="m279.32 109.27h-16.74c5.29-2.46 11.96-1.89 16.74 0z"/><path d="m290.13 134.72h-36.22c-.06-1-.11-2-.13-3h35.88c.17.99.34 2 .47 3z"/><path d="m293 160.18h-36c-.22-1.46-.45-2.92-.67-4.39h36.28c.08.83.14 1.5.18 2s.15 1.33.21 2.39z"/><path d="m295.23 185.63h-34.86c-.12-1.81-.3-3.74-.54-5.77h34.91c.16 1.88.32 3.81.49 5.77z"/><path d="m297.18 211.08h-33.9c-.32-2.39-.64-4.78-1-7.14h34.36c.22 2.47.36 4.87.54 7.14z"/><path d="m265.16 236.54a66.48 66.48 0 0 0 -.08-8.53h33.31c.79 6 2.09 7.88 3.65 8.53z"/><path d="m350.93 252.08c-.95 4.85-1.49 8.28-1.38 9.51v.4h-130.67a40.52 40.52 0 0 0 -1-9.91z"/><path d="m316.14 228h40.08c-.67 2.93-1.33 5.8-2 8.53h-42.32a6.7 6.7 0 0 0 2.56-3.28c.35-.84.94-2.71 1.68-5.25z"/><path d="m322.77 203.94h39.09c-.55 2.35-1.11 4.74-1.68 7.14h-39.32c.64-2.39 1.28-4.8 1.91-7.14z"/><path d="m328.69 179.86h38.68c-.37 1.76-.8 3.7-1.27 5.77h-38.61c.31-1.39.7-3.37 1.2-5.77z"/><path d="m369.92 134.72h-24.49a25.47 25.47 0 0 1 2.83-3h18.86a13.88 13.88 0 0 1 2.8 3z"/><path d="m372.07 155.79c-.26 1.5-.55 3-.84 4.39h-37.6c.45-1.46.91-2.93 1.41-4.39z"/><path d="m359.63 287.45h-180.84c-1.55-3.14-3.55-6.82-6.19-11.3h178.25c.98 5.44 3.15 9.48 8.78 11.3z"/><path d="m240.72 440.17c-.14-7.43-.69-14.73-2-19.58h100.9c0 4.94.23 12.26.48 19.58z"/><path d="m340.93 461.82a5.51 5.51 0 0 1 -3.73 5.46c-8.3 2.82-28.46 9-47.69 9.72-19 .68-37.67-4.83-45.61-7.54a5.5 5.5 0 0 1 -3.72-5.53c.25-4.34.59-11.62.59-19.27h99.49c.24 6.82.51 13.22.67 17.16z"/><path d="m339.8 414.72h-106c-5.51-4-11.23-10.62-16.75-18.2h139.2c-8.17 9.14-15.82 16.7-16.43 18a1.23 1.23 0 0 0 -.02.2z"/><path d="m374 372.44a70 70 0 0 1 -5 8.49c-2 2.73-4.17 5.54-6.47 8.33h-150.53c-2.87-4.28-5.67-8.66-8.3-12.89q-1.2-1.92-2.28-3.93z"/><path d="m384.43 348.37c-2 4.95-4.11 10.32-6.35 15.44h-180.71a122.73 122.73 0 0 1 -5-15.44z"/><path d="m399.26 324.3c-2.53 2.17-4.39 3.74-5.24 4.45-1.56 1.29-3.4 4.84-5.47 9.61h-198.35c-.94-4.93-1.66-9.68-2.23-14.06z"/><path d="m427 300.23c-4.79 4.21-9.83 8.61-14.5 12.67h-225.94a69.19 69.19 0 0 0 -1.66-10c-.28-.89-.55-1.78-.84-2.69z"/><path d="m436.09 262h-21.41c4.54-1.78 9.15-2.76 13.48-2.25a24.87 24.87 0 0 1 7.93 2.25z"/><path d="m448.36 280.51c-.4.69-3.08 3.29-7.06 6.94h-68.37c4.54-1.39 8.39-4 12.21-6.34 1.49-.91 3.79-2.74 6.68-5h56.41c.55 2.02.56 3.61.13 4.4z"/></g></svg>