<svg viewBox="0 0 587.11 578.7" xmlns="http://www.w3.org/2000/svg" xmlns:xlink="http://www.w3.org/1999/xlink"><clipPath id="a" transform="translate(-7.45 -10.65)"><path d="m0 0h600v600h-600z"/></clipPath><clipPath id="b" transform="translate(-7.45 -10.65)"><path d="m300 584.35a14.59 14.59 0 0 1 -10.38-4.3l-269.62-269.67a14.68 14.68 0 0 1 0-20.76l269.62-269.62a14.68 14.68 0 0 1 20.76 0l269.67 269.62a14.68 14.68 0 0 1 0 20.76l-269.67 269.67a14.59 14.59 0 0 1 -10.38 4.3"/></clipPath><g clip-path="url(#a)"><path d="m300 584.35a14.59 14.59 0 0 1 -10.38-4.3l-269.62-269.67a14.68 14.68 0 0 1 0-20.76l269.62-269.62a14.68 14.68 0 0 1 20.76 0l269.67 269.62a14.68 14.68 0 0 1 0 20.76l-269.67 269.67a14.59 14.59 0 0 1 -10.38 4.3" fill="#7f3b2a" transform="translate(-7.45 -10.65)"/><g fill="#fff"><path d="m300 20.65a9.62 9.62 0 0 1 6.85 2.84l269.66 269.66a9.69 9.69 0 0 1 0 13.7l-269.66 269.66a9.68 9.68 0 0 1 -13.7 0l-269.66-269.66a9.69 9.69 0 0 1 0-13.7l269.66-269.66a9.62 9.62 0 0 1 6.85-2.84m0-10a19.61 19.61 0 0 0 -13.92 5.77l-269.66 269.66a19.68 19.68 0 0 0 0 27.84l269.66 269.66a19.68 19.68 0 0 0 27.84 0l269.66-269.66a19.68 19.68 0 0 0 0-27.84l-269.66-269.66a19.61 19.61 0 0 0 -13.92-5.77" transform="translate(-7.45 -10.65)"/><path d="m333.49 282.52c-2 20.45 6.27 54.7 7.06 57.59.64 2.47.48 15.48.15 27.61-.11 3.77-.24 7.45-.36 10.7 15 6.44 33.65 4.6 48.63 15.86 12.07 9.08 19.86 28.19 22.42 35.23a2.31 2.31 0 0 1 .09 1.22c-.19.31-.4.62-.61.92-.74.36-1.6.73-2.55 1.12-1.23.52-2.62 1-4.18 1.6-17.4 6.19-54.62 14.84-97.92 11.95 0 0-44.61-32-48-34.69-9.91-14.61-7.7-31-23.12-39.43-4-2.22-10-2.12-16.88-.29-6.8-6.05-17.11-20.46-23.72-30.16-2.52-3.7-4.5-6.71-5.55-8.33a3.35 3.35 0 0 1 -.37-2.75 90.63 90.63 0 0 1 8.34-18c1.81-2.92 6.67-9 12.49-16.07 12.46-15.08 29.34-34.49 30.43-36.33 6.16-10.53 22.3-65.27 22.81-67.87.33-1.83-.64-18.51-1.24-28-.1-1.64-.19-3-.27-4.14a2.44 2.44 0 0 1 2.3-2.57c14.94-.94 32.71 3.31 32.71 3.31s.42-6 1.13-10.2a2.13 2.13 0 0 1 2.72-1.63c35.17 10.22 67.29 28.86 84.41 50.4a3 3 0 0 1 -.37 4.07c-4.92 4.51-12.25 13.08-19.76 23l-26.09-14.46-4.34-2.41a8.66 8.66 0 1 0 -8.4 15.15l5.31 2.94 23.32 12.95a245.11 245.11 0 0 0 -15.21 24.88" transform="translate(-7.45 -10.65)"/><g clip-path="url(#b)"><path d="m15.56 460.93 140.07-76.83c8.2-4.5 11.76 1.85 5.12 9.11l-113.47 124.14c-4.54 5-11 6.76-12.78 3.55l-26.6-47.31c-1.81-3.21 2-9.58 7.66-12.66" transform="translate(-7.45 -10.65)"/><path d="m11 293.56 135.54 9.66c9.57.68 9.82 5.91.36 7.5l-135.05 22.81" transform="translate(-7.45 -10.65)"/><path d="m80.43 155.92 111 87.58c6.5 5.12 3.75 9.15-4 5.79l-131.43-57.52c-5.27-2.31-9.2-6.71-7.81-8.75l20.49-30.02c1.39-2 7.31-.55 11.75 3" transform="translate(-7.45 -10.65)"/><path d="m594.55 299.92-198.41-2.81c-11.95-.16-12.54-6.43-.85-9l196-25.65" transform="translate(-7.45 -10.65)"/><path d="m516.73 167.66-98.16 54.91c-5.75 3.22-8.72-.54-4.27-5.39l76-82.91c3.05-3.32 7.65-4.76 9.16-2.86l22.15 28c1.51 1.9-1 6.05-4.88 8.25" transform="translate(-7.45 -10.65)"/><path d="m536.58 426.21-118.67-59.39c-7-3.47-5.2-7.24 2.51-5.41l131.69 31.32c5.28 1.25 9.73 4.45 8.85 6.36l-13 28.08c-.88 1.9-6.6 1.42-11.35-1" transform="translate(-7.45 -10.65)"/></g></g><path d="m311.49 311.97-31.88-31.86-44.77 55.47-21.79-34.9-33.63 19.56-2.17-29.65 36.17-21.18 21.47 33.26 42.66-57.23 32.88 25.24 34.94-36.59 5.2 52.85z" fill="#7f3b2a"/></g></svg>