<svg viewBox="0 0 578.7 578.7" xmlns="http://www.w3.org/2000/svg" xmlns:xlink="http://www.w3.org/1999/xlink"><clipPath id="a" transform="translate(-10.65 -10.65)"><path d="m0 0h600v600h-600z"/></clipPath><g clip-path="url(#a)"><path d="m300 584.35a14.56 14.56 0 0 1 -10.37-4.29l-269.69-269.69a14.68 14.68 0 0 1 0-20.73l269.69-269.7a14.68 14.68 0 0 1 20.74 0l269.69 269.7a14.68 14.68 0 0 1 0 20.73l-269.69 269.69a14.56 14.56 0 0 1 -10.37 4.29" fill="#2e4668" transform="translate(-10.65 -10.65)"/><path d="m300 20.65a9.66 9.66 0 0 1 6.86 2.83l269.66 269.66a9.73 9.73 0 0 1 0 13.72l-269.66 269.66a9.73 9.73 0 0 1 -13.72 0l-269.66-269.66a9.72 9.72 0 0 1 0-13.72l269.66-269.66a9.66 9.66 0 0 1 6.86-2.83m0-10a19.61 19.61 0 0 0 -13.91 5.78l-269.66 269.66a19.64 19.64 0 0 0 0 27.82l269.66 269.66a19.63 19.63 0 0 0 27.82 0l269.66-269.66a19.64 19.64 0 0 0 0-27.82l-269.66-269.66a19.61 19.61 0 0 0 -13.91-5.78" fill="#fff" transform="translate(-10.65 -10.65)"/><path d="m370.25 331.2 118.7-45.96-120.49-41.03 30.53-69.09-67.78 33.33-45.96-118.71-41.04 120.5-69.09-30.53 33.33 67.78-118.7 45.96 120.49 41.03-30.53 69.09 67.78-33.33 45.96 118.71 41.03-120.5 69.1 30.53z" fill="#fff"/><path d="m267.08 337.46-31.47 7.9 9.32-32.32-67.41-21.37 66.16-24.62-10.33-31.44 32.52 7.53 21.17-65.62 24.59 64.23 31.47-8.41-9.35 32.32 67.44 21.38-66.16 24.62 10.33 31.44-32.52-7.03-21.21 65.11z" fill="#2e4668"/><path d="m289.35 244.24 12.02 33.09 33.1 12.03-33.1 12.02-12.02 33.09-12.02-33.09-33.1-12.02 33.1-12.03z" fill="#fff"/></g></svg>