<svg viewBox="0 0 578.7 578.66" xmlns="http://www.w3.org/2000/svg" xmlns:xlink="http://www.w3.org/1999/xlink"><clipPath id="a" transform="translate(-10.65 -10.67)"><path d="m0 0h600v600h-600z"/></clipPath><g clip-path="url(#a)"><path d="m300 584.34a14.56 14.56 0 0 1 -10.38-4.29l-269.62-269.65a14.69 14.69 0 0 1 0-20.77l269.62-269.63a14.68 14.68 0 0 1 20.76 0l269.62 269.63a14.69 14.69 0 0 1 0 20.77l-269.62 269.65a14.56 14.56 0 0 1 -10.38 4.29" fill="#cf8ab5" transform="translate(-10.65 -10.67)"/><path d="m300 20.67a9.62 9.62 0 0 1 6.84 2.82l269.65 269.68a9.68 9.68 0 0 1 0 13.69l-269.65 269.65a9.63 9.63 0 0 1 -13.68 0l-269.65-269.65a9.68 9.68 0 0 1 0-13.69l269.65-269.68a9.62 9.62 0 0 1 6.84-2.82m0-10a19.65 19.65 0 0 0 -13.93 5.78l-269.64 269.64a19.64 19.64 0 0 0 0 27.82l269.64 269.68a19.77 19.77 0 0 0 27.86 0l269.64-269.68a19.64 19.64 0 0 0 0-27.82l-269.64-269.64a19.65 19.65 0 0 0 -13.93-5.78" fill="#fff" transform="translate(-10.65 -10.67)"/><path d="m302.66 519.87s-13.54-33.49-57.45-61.72-131.08-130.35-98.38-230.15c23.35 29.4 53.88-4.57 60.69-32.59s12.48-59.93 40.48-71.55c-2.07 20.49 25.13 22.8 36.07 16 13.54-8.49 26.2-31.22 15.2-65.19 59.52 34.55 31.7 86.75 58.07 96.38 22 8 22.56-21.22 21.87-27.37 46.56 27.74 68.32 82 64.33 150.09-4.26 72.48-35.62 116-87.26 158.2-41.23 33.73-53.65 67.91-53.65 67.91" fill="#fff" transform="translate(-10.65 -10.67)"/><path d="m376.22 247.18c-11.83-11.83-12.79-25-12.79-25s-20.8.65-36.83-5.4a113.45 113.45 0 0 1 -26.6-14.13 113.6 113.6 0 0 1 -26.58 14.17c-16 6.05-36.83 5.4-36.83 5.4s-1 13.13-12.79 25a149.47 149.47 0 0 1 -22.42 18.57s4.51 88.61 33.29 122.55 65.33 49 65.33 49 36.55-15.06 65.37-49 33.25-122.55 33.25-122.55a148.49 148.49 0 0 1 -22.39-18.57" fill="#cf8ab5" transform="translate(-10.65 -10.67)"/></g></svg>