<svg xmlns="http://www.w3.org/2000/svg" width="400" height="400" viewBox="0 0 400 400">
    <path fill="currentColor" fill-rule="evenodd"
        d="M184.4.4c0 .237-1.467.4-3.6.4-1.98 0-3.6.152-3.6.338s-2.565.461-5.7.61-5.76.447-5.833.662c-.074.214-.929.39-1.9.39-.972 0-1.767.18-1.767.4s-.81.4-1.8.4-1.8.157-1.8.348c0 .192-1.44.474-3.2.628-1.76.153-3.2.447-3.2.651s-.63.373-1.4.373-1.4.18-1.4.4-.63.4-1.4.4-1.4.18-1.4.4-.45.4-1 .4-1 .159-1 .354-.99.478-2.2.629-2.2.442-2.2.646-.63.371-1.4.371-1.4.18-1.4.4-.54.4-1.2.4-1.2.18-1.2.4-.45.4-1 .4-1 .16-1 .355-.81.476-1.8.624-1.8.439-1.8.646c0 .206-.45.375-1 .375s-1 .18-1 .4-.36.4-.8.4-.8.16-.8.355-.81.476-1.8.624-1.8.439-1.8.646c0 .206-.45.375-1 .375s-1 .18-1 .4-.36.4-.8.4-.8.18-.8.4-.27.4-.6.4-.6.164-.6.365-.764.494-1.698.652c-.934.157-1.99.623-2.347 1.035s-1.033.748-1.502.748-.853.18-.853.4-.36.4-.8.4-.8.177-.8.392-.45.506-1 .644-1 .411-1 .607c0 .197-.36.357-.8.357s-.8.18-.8.4-.27.4-.6.4-.6.16-.6.355c0 .196-.591.467-1.313.602-.722.136-1.572.606-1.888 1.045-.317.439-.896.798-1.287.798-.392 0-.712.18-.712.4s-.27.4-.6.4-.6.18-.6.4-.347.4-.771.4-1.042.27-1.372.6-.753.6-.94.6-.6.36-.917.8-.878.8-1.246.8c-.367 0-.772.27-.899.6-.126.33-.596.6-1.042.6s-.813.18-.813.4-.348.4-.773.4-.887.36-1.027.8-.594.8-1.009.8-1.205.45-1.755 1-1.148 1-1.33 1c-.181 0-.589.36-.906.8s-.799.8-1.07.8c-.272 0-.944.45-1.494 1s-1.266 1-1.591 1-.705.36-.845.799c-.139.44-.736.918-1.327 1.064-.59.146-1.385.641-1.766 1.101-1.244 1.502-2.493 2.636-2.903 2.636-.127 0-.845.585-1.596 1.3-1.763 1.68-2.519 2.3-2.804 2.3-.3 0-18.604 18.304-18.604 18.604 0 .548-3.489 4.196-4.013 4.196-.213 0-.387.353-.387.784s-.225.975-.5 1.208-.876.734-1.336 1.115-.955 1.176-1.101 1.766-.624 1.188-1.064 1.327c-.439.14-.799.52-.799.845s-.45 1.041-1 1.591-1 1.222-1 1.494c0 .271-.36.753-.8 1.07s-.8.725-.8.906-.45.78-1 1.33-1 1.34-1 1.755-.36.869-.8 1.009-.8.602-.8 1.027-.177.773-.392.773-.506.45-.644 1-.411 1-.607 1c-.197 0-.357.32-.357.712s-.36.971-.8 1.288-.8.73-.8.917-.27.61-.6.94-.6.947-.6 1.372c0 .424-.18.771-.4.771s-.4.27-.4.6-.18.6-.4.6-.4.32-.4.712-.359.97-.798 1.287-.909 1.166-1.045 1.888-.406 1.313-.602 1.313-.355.27-.355.6-.18.6-.4.6-.4.36-.4.8-.172.8-.382.8-.5.63-.644 1.4-.423 1.4-.619 1.4c-.195 0-.355.36-.355.8s-.18.8-.4.8-.4.27-.4.6-.18.6-.4.6-.4.36-.4.8-.172.8-.382.8-.5.63-.644 1.4-.423 1.4-.619 1.4c-.195 0-.355.27-.355.6s-.18.6-.4.6-.4.36-.4.8-.18.8-.4.8-.4.45-.4 1-.169 1-.375 1c-.207 0-.497.81-.646 1.8-.148.99-.429 1.8-.624 1.8s-.355.36-.355.8-.18.8-.4.8-.4.45-.4 1-.169 1-.375 1c-.207 0-.497.81-.646 1.8-.148.99-.429 1.8-.624 1.8s-.355.45-.355 1-.18 1-.4 1-.4.54-.4 1.2-.18 1.2-.4 1.2-.4.45-.4 1-.166 1-.368 1c-.203 0-.494 1.17-.647 2.6s-.437 2.6-.632 2.6c-.194 0-.353.63-.353 1.4s-.18 1.4-.4 1.4-.4.45-.4 1-.18 1-.4 1-.4.63-.4 1.4-.157 1.4-.348 1.4c-.192 0-.474 1.44-.628 3.2-.153 1.76-.447 3.2-.651 3.2s-.373.81-.373 1.8-.18 1.8-.4 1.8-.4.975-.4 2.167-.168 2.226-.373 2.3-.5 2.338-.656 5.033-.439 4.9-.628 4.9c-.188 0-.343 1.44-.343 3.2 0 1.867-.167 3.2-.4 3.2-.26 0-.4 5.867-.4 16.8s.14 16.8.4 16.8c.24 0 .4 1.6.4 4 0 2.2.153 4 .34 4s.462 2.025.612 4.5.447 4.56.66 4.633.388 1.109.388 2.3c0 1.192.18 2.167.4 2.167s.4.81.4 1.8.161 1.8.358 1.8.486 1.44.642 3.2.445 3.2.642 3.2.358.63.358 1.4.18 1.4.4 1.4.4.63.4 1.4.18 1.4.4 1.4.4.45.4 1 .159 1 .353 1c.195 0 .479 1.17.632 2.6s.444 2.6.647 2.6c.202 0 .368.45.368 1s.18 1 .4 1 .4.45.4 1 .18 1 .4 1 .4.54.4 1.2.16 1.2.355 1.2.476.81.624 1.8.439 1.8.646 1.8c.206 0 .375.45.375 1s.18 1 .4 1 .4.36.4.8.16.8.355.8.476.81.624 1.8.439 1.8.646 1.8c.206 0 .375.45.375 1s.18 1 .4 1 .4.36.4.8.18.8.4.8.4.27.4.6.16.6.355.6c.196 0 .474.63.619 1.4.144.77.434 1.4.644 1.4s.382.36.382.8.18.8.4.8.4.27.4.6.18.6.4.6.4.36.4.8.16.8.355.8c.196 0 .474.63.619 1.4.144.77.434 1.4.644 1.4s.382.36.382.8.18.8.4.8.4.27.4.6.16.6.355.6c.196 0 .467.591.602 1.313.136.722.606 1.572 1.045 1.888.439.317.798.896.798 1.287 0 .392.18.712.4.712s.4.27.4.6.18.6.4.6.4.347.4.771.27 1.042.6 1.372.6.753.6.94.36.6.8.917.8.897.8 1.288c0 .392.16.712.357.712s.469.45.607 1 .428 1 .644 1c.215 0 .392.348.392.773s.339.881.752 1.012c.418.132.856.753.984 1.395.136.682.566 1.262 1.048 1.415.449.142.816.567.816.944 0 .376.36.944.8 1.261s.8.799.8 1.07c0 .272.45.944 1 1.494s1 1.266 1 1.591.367.708.816.85c.485.154.912.734 1.05 1.427.129.642.383 1.168.566 1.168.647 0 2.368 2.048 2.368 2.818 0 .43.174.782.387.782.503 0 3.213 2.71 3.213 3.213 0 .401 19.011 19.587 19.408 19.587.281 0 1.044.627 2.8 2.3.751.715 1.543 1.3 1.76 1.3.438 0 1.923 1.44 2.793 2.707.309.45 1.059.917 1.668 1.039.637.127 1.217.567 1.366 1.038.142.449.525.816.85.816s1.041.45 1.591 1 1.222 1 1.494 1c.271 0 .753.36 1.07.8s.73.8.917.8.591.225.898.5c1.381 1.238 1.789 1.5 2.341 1.5.325 0 .704.36.844.8s.602.8 1.027.8.773.18.773.4.366.4.813.4.916.27 1.042.6c.127.33.532.6.899.6.368 0 .929.36 1.246.8s.73.8.917.8.61.27.94.6.947.6 1.372.6c.424 0 .771.18.771.4s.27.4.6.4.6.18.6.4.36.4.8.4.8.177.8.392.45.506 1 .644 1 .411 1 .607c0 .197.36.357.8.357s.8.18.8.4.27.4.6.4.6.18.6.4.36.4.8.4.8.16.8.357.45.469 1 .607 1 .428 1 .644c0 .215.36.392.8.392s.8.18.8.4.384.4.853.4 1.145.337 1.502.748c.357.412 1.413.878 2.347 1.035.934.158 1.698.451 1.698.652s.27.365.6.365.6.18.6.4.36.4.8.4.8.16.8.355.81.476 1.8.624 1.8.439 1.8.646c0 .206.45.375 1 .375s1 .18 1 .4.36.4.8.4.8.18.8.4.45.4 1 .4 1 .169 1 .375c0 .207.81.497 1.8.646.99.148 1.8.429 1.8.624s.45.355 1 .355 1 .18 1 .4.54.4 1.2.4 1.2.18 1.2.4.63.4 1.4.4 1.4.167 1.4.371.99.495 2.2.646 2.2.434 2.2.629.45.354 1 .354 1 .18 1 .4.63.4 1.4.4 1.4.162 1.4.359c0 .198 1.26.486 2.8.641s2.8.443 2.8.641c0 .197.81.359 1.8.359s1.8.18 1.8.4.81.4 1.8.4 1.8.18 1.8.4.795.4 1.767.4 1.826.176 1.9.39 2.698.513 5.833.662 5.7.423 5.7.61c0 .186 1.62.338 3.6.338 2.133 0 3.6.163 3.6.4 0 .26 5.467.4 15.6.4s15.6-.14 15.6-.4c0-.237 1.467-.4 3.6-.4 1.98 0 3.6-.152 3.6-.338s2.565-.461 5.7-.61 5.76-.447 5.833-.662c.074-.214.929-.39 1.9-.39.972 0 1.767-.18 1.767-.4s.81-.4 1.8-.4 1.8-.18 1.8-.4.72-.4 1.6-.4 1.6-.159 1.6-.353 1.35-.48 3-.634 3-.446 3-.647.63-.366 1.4-.366 1.4-.18 1.4-.4.45-.4 1-.4 1-.159 1-.354.99-.478 2.2-.629 2.2-.442 2.2-.646.63-.371 1.4-.371 1.4-.18 1.4-.4.45-.4 1-.4 1-.18 1-.4.54-.4 1.2-.4 1.2-.16 1.2-.355.81-.476 1.8-.624 1.8-.439 1.8-.646c0-.206.45-.375 1-.375s1-.18 1-.4.36-.4.8-.4.8-.18.8-.4.45-.4 1-.4 1-.169 1-.375c0-.207.81-.497 1.8-.646.99-.148 1.8-.429 1.8-.624s.36-.355.8-.355.8-.18.8-.4.27-.4.6-.4.6-.164.6-.365.764-.494 1.698-.652c.934-.157 1.99-.623 2.347-1.035s.967-.748 1.355-.748.997-.336 1.353-.746c.356-.411 1.233-.875 1.947-1.032.715-.157 1.3-.451 1.3-.654 0-.202.36-.368.8-.368s.8-.18.8-.4.27-.4.6-.4.6-.18.6-.4.36-.4.8-.4.8-.16.8-.357.45-.469 1-.607 1-.428 1-.644c0-.215.36-.392.8-.392s.8-.18.8-.4.193-.4.429-.4c.235 0 .698-.27 1.028-.6s.947-.6 1.372-.6c.424 0 .771-.18.771-.4s.23-.4.512-.4c.281 0 .771-.36 1.088-.8s.878-.8 1.246-.8c.367 0 .772-.27.899-.6.126-.33.596-.6 1.042-.6s.813-.18.813-.4.36-.4.8-.4.8-.152.8-.339c0-.636 1.493-2.061 2.159-2.061.367 0 .77-.27.896-.6.127-.33.532-.6.899-.6.368 0 .929-.36 1.246-.8s.799-.8 1.07-.8c.272 0 .944-.45 1.494-1s1.266-1 1.591-1 .702-.351.839-.78c.136-.428.598-.89 1.026-1.026.429-.137.78-.416.78-.621s.186-.373.413-.373c.228 0 1.044-.63 1.814-1.4s1.58-1.4 1.8-1.4 1.014-.585 1.765-1.3c1.736-1.654 2.519-2.3 2.787-2.3.278 0 18.621-18.343 18.621-18.621 0-.295.742-1.174 2.5-2.961.825-.838 1.5-1.743 1.5-2.011 0-.267.54-.99 1.2-1.607s1.2-1.319 1.2-1.56.168-.44.373-.44.484-.351.621-.78c.136-.428.598-.89 1.026-1.026.429-.137.78-.514.78-.839s.45-1.041 1-1.591 1-1.222 1-1.494c0-.271.36-.753.8-1.07s.8-.878.8-1.246c0-.367.27-.772.6-.899.33-.126.6-.529.6-.896 0-.666 1.425-2.159 2.061-2.159.187 0 .339-.36.339-.8s.18-.8.4-.8.4-.366.4-.813.27-.916.6-1.042c.33-.127.6-.532.6-.899 0-.368.36-.929.8-1.246s.8-.73.8-.917.27-.61.6-.94.6-.947.6-1.372c0-.424.18-.771.4-.771s.4-.27.4-.6.18-.6.4-.6.4-.36.4-.8.177-.8.392-.8.506-.45.644-1 .411-1 .607-1c.197 0 .357-.36.357-.8s.18-.8.4-.8.4-.27.4-.6.18-.6.4-.6.4-.36.4-.8.172-.8.382-.8.5-.63.644-1.4.423-1.4.619-1.4c.195 0 .355-.36.355-.8s.18-.8.4-.8.4-.27.4-.6.18-.6.4-.6.4-.36.4-.8.172-.8.382-.8.5-.63.644-1.4.423-1.4.619-1.4c.195 0 .355-.27.355-.6s.18-.6.4-.6.4-.36.4-.8.16-.8.355-.8.476-.81.624-1.8.439-1.8.646-1.8c.206 0 .375-.45.375-1s.18-1 .4-1 .4-.36.4-.8.18-.8.4-.8.4-.45.4-1 .169-1 .375-1c.207 0 .497-.81.646-1.8.148-.99.429-1.8.624-1.8s.355-.54.355-1.2.18-1.2.4-1.2.4-.45.4-1 .18-1 .4-1 .4-.45.4-1 .159-1 .353-1c.195 0 .479-1.17.632-2.6s.444-2.6.647-2.6c.202 0 .368-.63.368-1.4s.18-1.4.4-1.4.4-.45.4-1 .168-1 .373-1c.204 0 .498-1.44.651-3.2s.436-3.2.628-3.2c.191 0 .348-.63.348-1.4s.18-1.4.4-1.4.4-.81.4-1.8.18-1.8.4-1.8.4-.975.4-2.167.168-2.226.373-2.3.5-2.338.656-5.033.439-4.9.628-4.9c.188 0 .343-1.62.343-3.6 0-2.133.163-3.6.4-3.6.26 0 .4-5.6.4-16s-.14-16-.4-16c-.24 0-.4-1.6-.4-4 0-2.2-.155-4-.343-4s-.471-2.205-.628-4.9c-.156-2.695-.451-4.96-.656-5.033s-.373-1.109-.373-2.3c0-1.192-.18-2.167-.4-2.167s-.4-.81-.4-1.8-.18-1.8-.4-1.8-.4-.63-.4-1.4-.157-1.4-.348-1.4c-.192 0-.474-1.44-.628-3.2-.153-1.76-.447-3.2-.651-3.2s-.373-.45-.373-1-.18-1-.4-1-.4-.63-.4-1.4-.159-1.4-.353-1.4c-.195 0-.479-1.17-.632-2.6s-.444-2.6-.647-2.6c-.202 0-.368-.45-.368-1s-.18-1-.4-1-.4-.54-.4-1.2-.18-1.2-.4-1.2-.4-.45-.4-1-.16-1-.355-1-.476-.81-.624-1.8-.439-1.8-.646-1.8c-.206 0-.375-.45-.375-1s-.18-1-.4-1-.4-.36-.4-.8-.18-.8-.4-.8-.4-.45-.4-1-.169-1-.375-1c-.207 0-.497-.81-.646-1.8-.148-.99-.429-1.8-.624-1.8s-.355-.36-.355-.8-.18-.8-.4-.8-.4-.27-.4-.6-.16-.6-.355-.6c-.196 0-.474-.63-.619-1.4-.144-.77-.434-1.4-.644-1.4s-.382-.36-.382-.8-.18-.8-.4-.8-.4-.27-.4-.6-.18-.6-.4-.6-.4-.36-.4-.8-.16-.8-.355-.8c-.196 0-.474-.63-.619-1.4-.144-.77-.434-1.4-.644-1.4s-.382-.36-.382-.8-.18-.8-.4-.8-.4-.27-.4-.6-.18-.6-.4-.6-.4-.36-.4-.8-.16-.8-.357-.8-.469-.45-.607-1-.428-1-.644-1c-.215 0-.392-.36-.392-.8s-.18-.8-.4-.8-.4-.27-.4-.6-.18-.6-.4-.6-.4-.347-.4-.771-.27-1.042-.6-1.372-.6-.753-.6-.94-.36-.6-.8-.917-.8-.878-.8-1.246c0-.367-.27-.772-.6-.899-.33-.126-.6-.596-.6-1.042s-.18-.813-.4-.813-.4-.36-.4-.8-.152-.8-.339-.8c-.68 0-1.94-1.428-2.205-2.5-.149-.605-.448-1.1-.664-1.1-.215 0-.392-.23-.392-.512 0-.281-.36-.771-.8-1.088s-.8-.799-.8-1.07c0-.272-.45-.944-1-1.494s-1-1.266-1-1.591-.351-.702-.78-.839c-.428-.136-.89-.598-1.026-1.026-.137-.429-.416-.78-.621-.78s-.373-.36-.373-.8-.152-.8-.339-.8c-.557 0-2.061-1.455-2.061-1.994 0-.275-.675-1.186-1.5-2.024-1.779-1.809-2.5-2.666-2.5-2.974 0-.289-18.328-18.608-18.617-18.608-.272 0-1.048-.64-2.791-2.3-.751-.715-1.469-1.3-1.596-1.3-.257 0-.967-.563-2.397-1.9-.529-.495-1.151-.9-1.381-.9s-.418-.168-.418-.373-.351-.484-.78-.621c-.428-.136-.89-.598-1.026-1.026-.137-.429-.514-.78-.839-.78s-1.041-.45-1.591-1-1.222-1-1.494-1c-.271 0-.753-.36-1.07-.8s-.885-.8-1.261-.8c-.377 0-.793-.339-.924-.752-.132-.418-.753-.856-1.395-.984-.682-.136-1.262-.566-1.415-1.048-.143-.45-.605-.816-1.032-.816-.425 0-.773-.18-.773-.4s-.366-.4-.813-.4-.916-.27-1.042-.6c-.127-.33-.532-.6-.899-.6-.368 0-.929-.36-1.246-.8s-.73-.8-.917-.8-.61-.27-.94-.6-.947-.6-1.372-.6c-.424 0-.771-.18-.771-.4s-.27-.4-.6-.4-.6-.18-.6-.4-.32-.4-.712-.4-.97-.359-1.287-.798-1.166-.909-1.888-1.045-1.313-.406-1.313-.602-.27-.355-.6-.355-.6-.18-.6-.4-.36-.4-.8-.4-.8-.16-.8-.357-.45-.469-1-.607-1-.428-1-.644c0-.215-.36-.392-.8-.392s-.8-.18-.8-.4-.384-.4-.853-.4-1.145-.337-1.502-.748c-.357-.412-1.413-.878-2.347-1.035-.934-.158-1.698-.451-1.698-.652s-.27-.365-.6-.365-.6-.18-.6-.4-.36-.4-.8-.4-.8-.18-.8-.4-.45-.4-1-.4-1-.169-1-.375c0-.207-.81-.497-1.8-.646-.99-.148-1.8-.429-1.8-.624s-.36-.355-.8-.355-.8-.18-.8-.4-.45-.4-1-.4-1-.169-1-.375c0-.207-.81-.497-1.8-.646-.99-.148-1.8-.429-1.8-.624s-.54-.355-1.2-.355-1.2-.18-1.2-.4-.45-.4-1-.4-1-.18-1-.4-.63-.4-1.4-.4-1.4-.167-1.4-.371-.99-.495-2.2-.646-2.2-.434-2.2-.629-.45-.354-1-.354-1-.18-1-.4-.63-.4-1.4-.4-1.4-.18-1.4-.4-.63-.4-1.4-.4-1.4-.161-1.4-.358-1.44-.486-3.2-.642-3.2-.445-3.2-.642-.81-.358-1.8-.358-1.8-.18-1.8-.4-.795-.4-1.767-.4-1.826-.176-1.9-.39-2.698-.513-5.833-.662-5.7-.423-5.7-.61c0-.186-1.62-.338-3.6-.338-2.133 0-3.6-.163-3.6-.4 0-.26-5.467-.4-15.6-.4s-15.6.14-15.6.4m31.933 12.049c.074.193 1.559.351 3.3.351 1.845 0 3.167.167 3.167.4 0 .229 1.2.4 2.8.4 1.54 0 2.8.157 2.8.348 0 .192 1.8.477 4 .633s4 .449 4 .651.81.368 1.8.368 1.8.18 1.8.4.63.4 1.4.4 1.4.18 1.4.4.795.4 1.767.4 1.826.178 1.9.396 1.258.514 2.633.657 2.5.415 2.5.604.45.343 1 .343 1 .18 1 .4.63.4 1.4.4 1.4.18 1.4.4.45.4 1 .4 1 .159 1 .354.99.478 2.2.629 2.2.442 2.2.646.36.371.8.371.8.18.8.4.45.4 1 .4 1 .169 1 .375c0 .207.81.497 1.8.646.99.148 1.8.429 1.8.624s.45.355 1 .355 1 .18 1 .4.36.4.8.4.8.18.8.4.27.4.6.4.6.169.6.375c0 .207.81.497 1.8.646.99.148 1.8.429 1.8.624s.36.355.8.355.8.18.8.4.36.4.8.4.8.18.8.4.27.4.6.4.6.16.6.355c0 .196.63.474 1.4.619.77.144 1.4.434 1.4.644s.36.382.8.382.8.18.8.4.27.4.6.4.6.164.6.365.712.485 1.583.632c1.061.179 1.664.521 1.827 1.035.134.423.592.768 1.017.768s.773.18.773.4.193.4.429.4c.235 0 .698.27 1.028.6s.947.6 1.372.6c.424 0 .771.18.771.4s.23.4.512.4c.281 0 .771.36 1.088.8s.897.8 1.288.8c.392 0 .712.177.712.392s.45.506 1 .644 1 .411 1 .607c0 .197.348.357.773.357s.887.36 1.027.8.594.8 1.009.8 1.205.45 1.755 1 1.106 1 1.236 1 .686.45 1.236 1 1.19 1 1.422 1 .925.54 1.542 1.2 1.236 1.2 1.377 1.2c.245 0 .787.404 2.008 1.5.307.275.829.5 1.159.5s.713.351.85.78c.136.428.598.89 1.026 1.026.429.137.78.416.78.621s.36.373.8.373.8.172.8.382c0 .481 1.915 2.418 2.391 2.418.195 0 .469.36.609.8s.521.8.847.8c.488 0 2.468 1.734 5.839 5.115 5.523 5.539 7.914 8.157 7.914 8.663 0 .342.172.622.382.622.431 0 1.92 1.457 2.807 2.746.324.471.909.958 1.3 1.082s.711.566.711.981c0 .779 1.743 2.791 2.418 2.791.21 0 .382.294.382.653s.63 1.247 1.4 1.973 1.4 1.56 1.4 1.852.45.87 1 1.283 1 1.046 1 1.407c0 .36.36.915.8 1.232s.8.73.8.917.27.61.6.94.6.935.6 1.345.36.858.8.998.8.536.8.88.334.917.743 1.273c.408.356.87 1.052 1.027 1.547s.452.9.657.9.373.32.373.712.36.971.8 1.288.8.807.8 1.088.18.512.4.512.4.366.4.813.27.916.6 1.042c.33.127.6.571.6.988 0 .416.18.757.4.757s.4.36.4.8.16.8.357.8.469.45.607 1 .428 1 .644 1c.215 0 .392.36.392.8s.18.8.4.8.4.27.4.6.18.6.4.6.4.36.4.8.172.8.382.8.5.63.644 1.4.423 1.4.619 1.4c.195 0 .355.27.355.6s.18.6.4.6.4.36.4.8.18.8.4.8.4.36.4.8.157.8.349.8.464.72.605 1.6.433 1.6.651 1.6c.217 0 .395.36.395.8s.18.8.4.8.4.45.4 1 .169 1 .375 1c.207 0 .497.81.646 1.8.148.99.429 1.8.624 1.8s.355.36.355.8.18.8.4.8.4.45.4 1 .18 1 .4 1 .4.54.4 1.2.163 1.2.362 1.2c.2 0 .487.9.638 2s.438 2 .638 2c.199 0 .362.54.362 1.2s.18 1.2.4 1.2.4.45.4 1 .18 1 .4 1 .4.45.4 1 .159 1 .353 1 .48 1.35.634 3 .446 3 .647 3 .366.63.366 1.4.18 1.4.4 1.4.4.63.4 1.4.166 1.4.368 1.4.495 1.8.651 4 .441 4 .633 4c.191 0 .348.81.348 1.8s.18 1.8.4 1.8c.229 0 .4 1.2.4 2.8s.171 2.8.4 2.8c.237 0 .4 1.456.4 3.567 0 2.095.17 3.623.413 3.704.274.091.412 5.309.412 15.529s-.138 15.438-.412 15.529c-.243.081-.413 1.609-.413 3.704 0 2.111-.163 3.567-.4 3.567-.229 0-.4 1.2-.4 2.8s-.171 2.8-.4 2.8c-.22 0-.4.81-.4 1.8s-.157 1.8-.348 1.8c-.192 0-.477 1.8-.633 4s-.449 4-.651 4-.368.63-.368 1.4-.18 1.4-.4 1.4-.4.63-.4 1.4-.165 1.4-.366 1.4-.492 1.35-.647 3c-.154 1.65-.44 3-.634 3s-.353.45-.353 1-.18 1-.4 1-.4.63-.4 1.4-.18 1.4-.4 1.4-.4.36-.4.8-.163.8-.362.8c-.2 0-.487.9-.638 2s-.438 2-.638 2c-.199 0-.362.63-.362 1.4s-.18 1.4-.4 1.4-.4.36-.4.8-.18.8-.4.8-.4.36-.4.8-.16.8-.355.8-.476.81-.624 1.8-.439 1.8-.646 1.8c-.206 0-.375.45-.375 1s-.18 1-.4 1-.4.27-.4.6-.169.6-.375.6c-.207 0-.497.81-.646 1.8-.148.99-.429 1.8-.624 1.8s-.355.36-.355.8-.18.8-.4.8-.4.36-.4.8-.18.8-.4.8-.4.27-.4.6-.16.6-.355.6c-.196 0-.474.63-.619 1.4-.144.77-.434 1.4-.644 1.4s-.382.36-.382.8-.18.8-.4.8-.4.27-.4.6-.18.6-.4.6-.4.36-.4.8-.177.8-.392.8-.506.45-.644 1-.411 1-.607 1c-.197 0-.357.36-.357.8s-.18.8-.4.8-.4.27-.4.6-.18.6-.4.6-.4.347-.4.771-.27 1.042-.6 1.372-.6.753-.6.94-.36.6-.8.917-.8.897-.8 1.288c0 .392-.168.712-.373.712s-.501.405-.657.9-.619 1.191-1.027 1.547c-.409.356-.743.785-.743.953s-.331.597-.736.953-.858 1.142-1.008 1.747c-.149.605-.448 1.1-.664 1.1-.215 0-.392.23-.392.512 0 .281-.36.771-.8 1.088s-.8.872-.8 1.232c0 .361-.45.994-1 1.407s-1 1.056-1 1.429-.351.789-.78.926c-.428.136-.89.598-1.026 1.026-.137.429-.416.78-.621.78s-.373.36-.373.8-.172.8-.382.8c-.687 0-2.418 2.018-2.418 2.818 0 .43-.172.782-.382.782-.338 0-1.309.904-2.664 2.481-.246.285-.831.784-1.3 1.107-.47.324-.854.827-.854 1.117 0 .726-13.031 13.695-13.76 13.695-.322 0-.7.36-.84.8s-.414.8-.609.8c-.476 0-2.391 1.937-2.391 2.418 0 .21-.352.382-.782.382-.8 0-2.818 1.731-2.818 2.418 0 .21-.278.382-.617.382-.577 0-.981.256-2.368 1.5-.307.275-.678.5-.826.5s-.772.54-1.389 1.2-1.311 1.2-1.542 1.2-.872.45-1.422 1-1.105 1-1.235 1c-.225 0-.785.423-1.986 1.5-.307.275-.829.5-1.159.5s-.716.36-.856.8-.602.8-1.027.8-.773.16-.773.357-.45.469-1 .607-1 .428-1 .644c0 .215-.32.392-.712.392s-.971.36-1.288.8-.807.8-1.088.8-.512.18-.512.4-.347.4-.771.4-1.042.27-1.372.6-.793.6-1.028.6c-.236 0-.429.18-.429.4s-.341.4-.757.4c-.417 0-.861.27-.988.6-.126.33-.596.6-1.042.6s-.813.18-.813.4-.36.4-.8.4-.8.18-.8.4-.27.4-.6.4-.6.18-.6.4-.36.4-.8.4-.8.172-.8.382-.63.5-1.4.644-1.4.423-1.4.619c0 .195-.27.355-.6.355s-.6.18-.6.4-.36.4-.8.4-.8.18-.8.4-.36.4-.8.4-.8.16-.8.355-.81.476-1.8.624-1.8.439-1.8.646c0 .206-.27.375-.6.375s-.6.18-.6.4-.36.4-.8.4-.8.163-.8.362c0 .2-.9.487-2 .638s-2 .438-2 .638c0 .199-.36.362-.8.362s-.8.18-.8.4-.45.4-1 .4-1 .18-1 .4-.36.4-.8.4-.8.167-.8.371-.99.495-2.2.646-2.2.434-2.2.629-.45.354-1 .354-1 .18-1 .4-.45.4-1 .4-1 .18-1 .4-.63.4-1.4.4-1.4.154-1.4.343-1.125.46-2.5.604-2.56.439-2.633.657c-.074.218-.929.396-1.9.396-.972 0-1.767.18-1.767.4s-.615.4-1.367.4c-.751 0-1.426.176-1.5.391-.073.215-1.708.511-3.633.659-1.925.147-3.5.421-3.5.609s-.99.341-2.2.341-2.2.18-2.2.4c0 .229-1.2.4-2.8.4s-2.8.171-2.8.4c0 .228-1.189.4-2.767.4-1.579 0-2.827.181-2.907.421-.195.587-34.057.587-34.252 0-.08-.24-1.328-.421-2.907-.421s-2.767-.172-2.767-.4-1.2-.4-2.8-.4-2.8-.171-2.8-.4c0-.22-.99-.4-2.2-.4s-2.2-.153-2.2-.341-1.575-.462-3.5-.609c-1.925-.148-3.56-.444-3.633-.659-.074-.215-.749-.391-1.5-.391-.752 0-1.367-.18-1.367-.4s-.795-.4-1.767-.4-1.826-.178-1.9-.396-1.258-.514-2.633-.657-2.5-.415-2.5-.604-.63-.343-1.4-.343-1.4-.18-1.4-.4-.45-.4-1-.4-1-.18-1-.4-.45-.4-1-.4-1-.159-1-.354-.99-.478-2.2-.629-2.2-.442-2.2-.646-.36-.371-.8-.371-.8-.18-.8-.4-.45-.4-1-.4-1-.18-1-.4-.36-.4-.8-.4-.8-.163-.8-.362c0-.2-.9-.487-2-.638s-2-.438-2-.638c0-.199-.36-.362-.8-.362s-.8-.18-.8-.4-.36-.4-.8-.4-.8-.178-.8-.395-.72-.511-1.6-.651-1.6-.413-1.6-.605-.36-.349-.8-.349-.8-.18-.8-.4-.36-.4-.8-.4-.8-.18-.8-.4-.27-.4-.6-.4-.6-.16-.6-.355c0-.196-.63-.474-1.4-.619-.77-.144-1.4-.434-1.4-.644s-.36-.382-.8-.382-.8-.18-.8-.4-.27-.4-.6-.4-.6-.18-.6-.4-.36-.4-.8-.4-.8-.18-.8-.4-.366-.4-.813-.4-.916-.27-1.042-.6c-.127-.33-.571-.6-.988-.6-.416 0-.757-.18-.757-.4s-.341-.4-.757-.4c-.417 0-.861-.27-.988-.6-.126-.33-.596-.6-1.042-.6s-.813-.18-.813-.4-.23-.4-.512-.4c-.281 0-.771-.36-1.088-.8s-.897-.8-1.288-.8c-.392 0-.712-.177-.712-.392s-.45-.506-1-.644-1-.411-1-.607c0-.197-.32-.357-.712-.357s-.971-.36-1.288-.8-.724-.8-.905-.8c-.311 0-.803-.355-2.08-1.5-.307-.275-.669-.5-.805-.5-.135 0-.696-.45-1.246-1s-1.19-1-1.422-1-.925-.54-1.542-1.2-1.327-1.2-1.58-1.2c-.252 0-.875-.45-1.385-1s-1.221-1-1.581-1-.654-.172-.654-.382c0-.675-2.012-2.418-2.791-2.418-.415 0-.857-.32-.981-.711s-.611-.976-1.082-1.3-1.273-.994-1.783-1.489-1.032-.9-1.161-.9-2.111-1.845-4.404-4.1c-7.647-7.52-8.998-8.959-8.998-9.582 0-.298-.384-.806-.854-1.13-.469-.323-1.054-.822-1.3-1.107-1.355-1.577-2.326-2.481-2.664-2.481-.21 0-.382-.36-.382-.8s-.168-.8-.373-.8-.484-.351-.621-.78c-.136-.428-.598-.89-1.026-1.026-.429-.137-.78-.596-.78-1.021s-.168-.773-.373-.773-.484-.351-.621-.78c-.136-.428-.598-.89-1.026-1.026-.429-.137-.78-.553-.78-.926s-.45-1.016-1-1.429-1-1.046-1-1.407c0-.36-.36-.915-.8-1.232s-.8-.741-.8-.941c0-.201-.331-.656-.736-1.012s-.858-1.142-1.008-1.747c-.149-.605-.448-1.1-.664-1.1-.215 0-.392-.204-.392-.453s-.334-.744-.743-1.1c-.408-.356-.87-1.052-1.027-1.547s-.452-.9-.657-.9-.373-.32-.373-.712-.36-.971-.8-1.288-.8-.73-.8-.917-.27-.61-.6-.94-.6-.947-.6-1.372c0-.424-.18-.771-.4-.771s-.4-.27-.4-.6-.18-.6-.4-.6-.4-.36-.4-.8-.18-.8-.4-.8-.4-.193-.4-.429c0-.235-.27-.698-.6-1.028s-.6-.947-.6-1.372c0-.424-.18-.771-.4-.771s-.4-.27-.4-.6-.18-.6-.4-.6-.4-.36-.4-.8-.172-.8-.382-.8-.5-.63-.644-1.4-.423-1.4-.619-1.4c-.195 0-.355-.27-.355-.6s-.18-.6-.4-.6-.4-.36-.4-.8-.18-.8-.4-.8-.4-.36-.4-.8-.16-.8-.355-.8-.476-.81-.624-1.8-.439-1.8-.646-1.8c-.206 0-.375-.27-.375-.6s-.18-.6-.4-.6-.4-.45-.4-1-.18-1-.4-1-.4-.36-.4-.8-.16-.8-.355-.8-.476-.81-.624-1.8-.439-1.8-.646-1.8c-.206 0-.375-.36-.375-.8s-.18-.8-.4-.8-.4-.63-.4-1.4-.163-1.4-.362-1.4c-.2 0-.487-.9-.638-2s-.438-2-.638-2c-.199 0-.362-.36-.362-.8s-.18-.8-.4-.8-.4-.63-.4-1.4-.18-1.4-.4-1.4-.4-.45-.4-1-.159-1-.353-1-.48-1.35-.634-3-.446-3-.647-3-.366-.63-.366-1.4-.18-1.4-.4-1.4-.4-.63-.4-1.4-.18-1.4-.4-1.4-.4-.81-.4-1.8-.157-1.8-.348-1.8c-.192 0-.477-1.8-.633-4s-.449-4-.651-4-.368-1.26-.368-2.8c0-1.6-.171-2.8-.4-2.8-.237 0-.4-1.456-.4-3.567 0-2.095-.17-3.623-.413-3.704-.572-.191-.572-30.867 0-31.058.243-.081.413-1.609.413-3.704 0-2.111.163-3.567.4-3.567.229 0 .4-1.2.4-2.8 0-1.54.166-2.8.368-2.8s.495-1.8.651-4 .441-4 .633-4c.191 0 .348-.81.348-1.8s.18-1.8.4-1.8.4-.63.4-1.4.18-1.4.4-1.4.4-.63.4-1.4.165-1.4.366-1.4.492-1.35.647-3c.154-1.65.44-3 .634-3s.353-.45.353-1 .18-1 .4-1 .4-.45.4-1 .18-1 .4-1 .4-.54.4-1.2.163-1.2.362-1.2c.2 0 .487-.9.638-2s.438-2 .638-2c.199 0 .362-.54.362-1.2s.18-1.2.4-1.2.4-.45.4-1 .169-1 .375-1c.207 0 .497-.81.646-1.8.148-.99.429-1.8.624-1.8s.355-.36.355-.8.18-.8.4-.8.4-.45.4-1 .18-1 .4-1 .4-.36.4-.8.178-.8.395-.8.511-.72.651-1.6.413-1.6.605-1.6.349-.36.349-.8.18-.8.4-.8.4-.36.4-.8.18-.8.4-.8.4-.27.4-.6.16-.6.355-.6c.196 0 .474-.63.619-1.4.144-.77.434-1.4.644-1.4s.382-.36.382-.8.18-.8.4-.8.4-.27.4-.6.18-.6.4-.6.4-.347.4-.771.27-1.042.6-1.372.6-.793.6-1.028c0-.236.18-.429.4-.429s.4-.36.4-.8.18-.8.4-.8.4-.36.4-.8.16-.8.357-.8.469-.45.607-1 .428-1 .644-1c.215 0 .392-.23.392-.512 0-.281.36-.771.8-1.088s.8-.897.8-1.288c0-.392.168-.712.373-.712s.501-.405.657-.9.619-1.191 1.027-1.547c.409-.356.743-.921.743-1.257s.27-.714.6-.841c.33-.126.6-.556.6-.954s.36-.984.8-1.301.8-.767.8-1 .36-.683.8-1 .8-.872.8-1.232c0-.361.45-.994 1-1.407s1-.99 1-1.283.63-1.126 1.4-1.852 1.4-1.602 1.4-1.946.351-.737.78-.874c.428-.136.89-.598 1.026-1.026.137-.429.416-.78.621-.78s.373-.36.373-.8.172-.8.382-.8c.431 0 1.92-1.457 2.807-2.746.324-.471.909-.958 1.3-1.082s.711-.497.711-.828c0-.504 1.167-1.866 4.257-4.972.41-.412 2.529-2.532 3.713-3.715C71.43 62.4 74.006 60 74.198 60c.131 0 .655-.405 1.165-.9s1.312-1.165 1.783-1.489.958-.909 1.082-1.3.574-.711.999-.711.773-.168.773-.373.351-.484.78-.621c.428-.136.89-.598 1.026-1.026.137-.429.53-.78.875-.78s1.044-.45 1.554-1 1.133-1 1.385-1c.253 0 .963-.54 1.58-1.2s1.311-1.2 1.542-1.2.872-.45 1.422-1 1.106-1 1.236-1 .686-.45 1.236-1 1.222-1 1.494-1c.271 0 .753-.36 1.07-.8s.897-.8 1.288-.8c.392 0 .712-.16.712-.357s.45-.469 1-.607 1-.428 1-.644c0-.215.32-.392.712-.392s.971-.36 1.288-.8.807-.8 1.088-.8.512-.18.512-.4.366-.4.813-.4.916-.27 1.042-.6c.127-.33.571-.6.988-.6.416 0 .757-.18.757-.4s.348-.4.773-.4.883-.345 1.017-.768c.163-.514.766-.856 1.827-1.035.871-.147 1.583-.431 1.583-.632s.27-.365.6-.365.6-.18.6-.4.36-.4.8-.4.8-.172.8-.382.63-.5 1.4-.644 1.4-.423 1.4-.619c0-.195.27-.355.6-.355s.6-.18.6-.4.36-.4.8-.4.8-.18.8-.4.36-.4.8-.4.8-.157.8-.349.72-.464 1.6-.605 1.6-.433 1.6-.651c0-.217.36-.395.8-.395s.8-.18.8-.4.36-.4.8-.4.8-.18.8-.4.45-.4 1-.4 1-.16 1-.355.81-.476 1.8-.624 1.8-.439 1.8-.646c0-.206.45-.375 1-.375s1-.18 1-.4.36-.4.8-.4.8-.167.8-.371.99-.495 2.2-.646 2.2-.434 2.2-.629.45-.354 1-.354 1-.18 1-.4.63-.4 1.4-.4 1.4-.18 1.4-.4.45-.4 1-.4 1-.154 1-.343 1.125-.46 2.5-.604 2.56-.439 2.633-.657c.074-.218.929-.396 1.9-.396.972 0 1.767-.18 1.767-.4s.63-.4 1.4-.4 1.4-.18 1.4-.4.81-.4 1.8-.4 1.8-.166 1.8-.368 1.8-.495 4-.651 4-.441 4-.633c0-.191 1.26-.348 2.8-.348 1.6 0 2.8-.171 2.8-.4 0-.233 1.333-.4 3.2-.4 1.819 0 3.2-.169 3.2-.391 0-.745 32.45-.705 32.733.04m-27.371 22.257c-.242.162-.56.789-.708 1.394s-.446 1.1-.662 1.1c-.215 0-.392.27-.392.6s-.18.6-.4.6-.4.36-.4.8-.18.8-.4.8-.4.341-.4.757c0 .417-.27.861-.6.988-.33.126-.6.556-.6.954s-.36.984-.8 1.301-.8.73-.8.917-.27.61-.6.94-.6.935-.6 1.345-.36.858-.8.998-.8.562-.8.939-.36.944-.8 1.261-.8.974-.8 1.46c0 .485-.27 1.153-.6 1.483s-.6.72-.6.868c0 .147-.54.772-1.2 1.389s-1.2 1.414-1.2 1.773-.27.756-.6.882c-.33.127-.6.532-.6.899 0 .368-.353.924-.785 1.235s-.906 1.116-1.054 1.788-.604 1.514-1.015 1.87-.746.851-.746 1.1-.18.453-.4.453-.4.36-.4.8-.168.8-.373.8-.5.401-.656.892-.798 1.373-1.427 1.96c-.629.588-1.144 1.19-1.144 1.337s-.27.538-.6.868-.6 1.037-.6 1.572c0 .534-.18.971-.4.971s-.4.278-.4.618-.45 1.068-1 1.618-1 1.222-1 1.494c0 .271-.36.753-.8 1.07s-.8.885-.8 1.261c0 .377-.36.799-.8.939s-.8.589-.8.998-.27 1.015-.6 1.345-.6.793-.6 1.028c0 .236-.18.429-.4.429s-.4.294-.4.653-.334.944-.743 1.3c-.408.356-.87 1.052-1.027 1.547s-.452.9-.657.9-.373.348-.373.773-.36.887-.8 1.027-.8.589-.8.998-.27 1.015-.6 1.345-.6.793-.6 1.028c0 .236-.18.429-.4.429s-.4.36-.4.8-.18.8-.4.8a.41.41 0 0 0-.4.417c0 .392-.313.845-1.5 2.168-.275.307-.5.829-.5 1.159s-.36.716-.8.856-.8.602-.8 1.027-.16.773-.357.773-.469.45-.607 1-.428 1-.644 1c-.215 0-.392.32-.392.712s-.353.966-.785 1.277c-.432.312-.906 1.116-1.054 1.788s-.604 1.514-1.015 1.87-.746.769-.746.918-.45.721-1 1.271-1 1.262-1 1.582-.18.582-.4.582-.4.32-.4.712-.36.971-.8 1.288-.8.807-.8 1.088-.18.512-.4.512-.4.347-.4.771-.27 1.042-.6 1.372-.6.727-.6.882c0 .154-.334.572-.743.928-.408.356-.87 1.052-1.027 1.547s-.452.9-.657.9-.373.32-.373.712-.36.971-.8 1.288-.8.73-.8.917-.27.61-.6.94-.6.998-.6 1.483-.36 1.143-.8 1.46-.8.885-.8 1.261c0 .377-.36.799-.799.939s-.918.736-1.064 1.327c-.146.59-.596 1.364-1.001 1.72s-.736.774-.736.928-.27.552-.6.882-.6.947-.6 1.372c0 .424-.18.771-.4.771s-.4.27-.4.6-.18.6-.4.6-.4.348-.4.773-.36.887-.8 1.027-.8.589-.8.998-.27 1.015-.6 1.345-.6.753-.6.94-.36.6-.8.917-.8.897-.8 1.288c0 .392-.177.712-.392.712s-.506.45-.644 1-.411 1-.607 1c-.197 0-.357.36-.357.8s-.18.8-.4.8-.4.27-.4.6-.18.6-.4.6-.4.36-.4.8q0 .8.8.8c.44 0 .8.172.8.382s.63.5 1.4.644 1.4.423 1.4.619c0 .195.36.355.8.355s.8.18.8.4.45.4 1 .4 1 .18 1 .4.36.4.8.4.8.172.8.382.63.5 1.4.644 1.4.423 1.4.619c0 .195.27.355.6.355s.6.18.6.4.63.4 1.4.4 1.4.164 1.4.365.72.486 1.6.635 1.6.434 1.6.635.45.365 1 .365 1 .18 1 .4.27.4.6.4.6.18.6.4.36.4.8.4.8.16.8.355c0 .196.63.474 1.4.619.77.144 1.4.434 1.4.644s.54.382 1.2.382 1.2.18 1.2.4.27.4.6.4.6.18.6.4.45.4 1 .4 1 .156 1 .347.761.45 1.691.575c.931.124 1.756.418 1.834.652s.487.426.908.426.767.18.767.4.36.4.8.4.8.172.8.382.63.5 1.4.644 1.4.423 1.4.619c0 .195.45.355 1 .355s1 .18 1 .4.36.4.8.4.8.18.8.4.27.4.6.4.6.159.6.354.99.478 2.2.629 2.2.442 2.2.646.27.371.6.371.6.18.6.4.36.4.8.4.8.18.8.4.36.4.8.4.8.16.8.355.81.476 1.8.624 1.8.439 1.8.646c0 .206.27.375.6.375s.6.18.6.4.345.4.767.4c.421 0 .83.192.908.426s.903.528 1.834.652c.93.125 1.691.384 1.691.575s.45.347 1 .347 1 .18 1 .4.36.4.8.4.8.18.8.4.45.4 1 .4 1 .172 1 .382.63.5 1.4.644 1.4.423 1.4.619c0 .195.36.355.8.355s.8.18.8.4.27.4.6.4.6.18.6.4c0 .594 1.173.484 1.829-.171.491-.492.571-11.456.571-78.2V34.4l-1.1.006c-.605.003-1.297.138-1.538.3M207.2 112.6c0 51.867.135 78.2.4 78.2.22 0 .4-.18.4-.4s.45-.4 1-.4 1-.18 1-.4.36-.4.8-.4.8-.172.8-.382.63-.5 1.4-.644 1.4-.423 1.4-.619c0-.195.27-.355.6-.355s.6-.18.6-.4.54-.4 1.2-.4 1.2-.18 1.2-.4.27-.4.6-.4.6-.156.6-.347.761-.45 1.691-.575c.931-.124 1.756-.418 1.834-.652s.577-.426 1.108-.426.967-.18.967-.4.36-.4.8-.4.8-.16.8-.355c0-.196.63-.474 1.4-.619.77-.144 1.4-.434 1.4-.644s.54-.382 1.2-.382 1.2-.18 1.2-.4.27-.4.6-.4.6-.18.6-.4.345-.4.767-.4c.421 0 .832-.198.913-.439.08-.242.995-.535 2.033-.652s1.887-.37 1.887-.561.36-.348.8-.348.8-.18.8-.4.36-.4.8-.4.8-.18.8-.4.27-.4.6-.4.6-.169.6-.375c0-.207.81-.497 1.8-.646.99-.148 1.8-.429 1.8-.624s.36-.355.8-.355.8-.18.8-.4.193-.4.429-.4c.235 0 .698-.27 1.028-.6s1.037-.6 1.572-.6c.534 0 .971-.18.971-.4s.63-.4 1.4-.4 1.4-.18 1.4-.4.36-.4.8-.4.8-.18.8-.4.345-.4.767-.4c.421 0 .83-.192.908-.426s.903-.528 1.834-.652c.93-.125 1.691-.384 1.691-.575s.27-.347.6-.347.6-.18.6-.4.36-.4.8-.4.8-.18.8-.4.27-.4.6-.4.6-.169.6-.375c0-.207.81-.497 1.8-.646.99-.148 1.8-.429 1.8-.624s.54-.355 1.2-.355 1.2-.18 1.2-.4.27-.4.6-.4.6-.16.6-.355.81-.476 1.8-.624 1.8-.439 1.8-.646c0-.206.36-.375.8-.375s.8-.18.8-.4.27-.4.6-.4.6-.18.6-.4.345-.4.767-.4c.421 0 .83-.192.908-.426s.903-.528 1.834-.652c.93-.125 1.691-.384 1.691-.575s.27-.347.6-.347c.395 0 .6-.395.6-1.157 0-.66-.258-1.256-.6-1.388-.33-.126-.6-.556-.6-.954s-.36-.984-.8-1.301-.8-.73-.8-.917-.225-.591-.5-.898c-1.145-1.277-1.5-1.769-1.5-2.08 0-.181-.36-.588-.8-.905-.457-.329-.8-1.035-.8-1.646 0-.587-.27-1.172-.6-1.299-.33-.126-.6-.556-.6-.954s-.36-.984-.8-1.301-.8-.767-.8-1-.36-.683-.8-1-.8-.903-.8-1.301-.27-.828-.6-.954c-.33-.127-.6-.532-.6-.899 0-.368-.359-.928-.798-1.245-.439-.316-.909-1.166-1.045-1.888s-.406-1.313-.602-1.313-.355-.23-.355-.512c0-.281-.36-.771-.8-1.088s-.8-.831-.8-1.142c0-.312-.45-.983-1-1.493s-1-1.166-1-1.458-.36-.79-.8-1.107-.8-.807-.8-1.088-.157-.512-.35-.512-.461-.557-.597-1.237c-.137-.681-.766-1.721-1.4-2.313s-1.271-1.62-1.417-2.285-.619-1.464-1.051-1.776c-.432-.311-.785-.874-.785-1.25 0-.377-.367-.802-.816-.944-.485-.154-.912-.734-1.05-1.427-.129-.642-.391-1.168-.584-1.168s-.35-.27-.35-.6-.18-.6-.4-.6-.4-.36-.4-.8-.18-.8-.4-.8a.41.41 0 0 1-.4-.417c0-.436-.4-.979-1.9-2.584-.495-.529-.9-1.151-.9-1.381a.41.41 0 0 0-.4-.418c-.22 0-.4-.347-.4-.771s-.27-1.042-.6-1.372-.6-.793-.6-1.028c0-.236-.18-.429-.4-.429s-.4-.294-.4-.653-.334-.944-.743-1.3c-.408-.356-.87-1.052-1.027-1.547s-.452-.9-.657-.9-.373-.36-.373-.8-.18-.8-.4-.8a.41.41 0 0 1-.4-.418c0-.23-.45-.868-1-1.418s-1-1.222-1-1.494c0-.271-.36-.753-.8-1.07s-.8-.987-.8-1.488c0-.502-.177-.912-.392-.912s-.515-.495-.664-1.1c-.265-1.072-1.525-2.5-2.205-2.5-.187 0-.339-.36-.339-.8s-.168-.8-.373-.8-.501-.405-.657-.9-.619-1.191-1.027-1.547c-.409-.356-.743-.941-.743-1.3s-.18-.653-.4-.653-.4-.27-.4-.6-.18-.6-.4-.6-.4-.347-.4-.771-.27-1.042-.6-1.372-.6-.753-.6-.94-.36-.6-.8-.917-.8-.799-.8-1.07c0-.272-.45-.944-1-1.494s-1-1.266-1-1.591-.337-.698-.749-.829c-.51-.162-.817-.745-.962-1.831-.147-1.09-.605-1.959-1.452-2.75-.68-.636-1.237-1.354-1.237-1.595 0-.242-.177-.44-.392-.44s-.515-.495-.664-1.1-.603-1.391-1.008-1.747-.736-.774-.736-.928-.27-.552-.6-.882-.6-.947-.6-1.372c0-.424-.18-.771-.4-.771s-.4-.27-.4-.6-.18-.6-.4-.6-.4-.348-.4-.773-.36-.887-.8-1.027-.8-.594-.8-1.009-.45-1.205-1-1.755-1-1.122-1-1.271-.336-.562-.746-.918c-.411-.356-.875-1.233-1.032-1.947-.157-.715-.451-1.3-.654-1.3-.202 0-.368-.348-.368-.773s-.36-.887-.8-1.027-.8-.589-.8-.998-.27-1.015-.6-1.345-.6-.753-.6-.94-.36-.6-.8-.917-.8-.805-.8-1.084c0-.582-1.224-2.116-1.689-2.116-.171 0-.311 35.19-.311 78.2M170 36c0 .22-.348.4-.773.4s-.887.36-1.027.8-.594.8-1.009.8c-.755 0-2.074 1.139-3.179 2.745-.324.47-.986.855-1.472.855-.485 0-1.153.27-1.483.6s-.805.6-1.055.6c-.251 0-1.05.63-1.776 1.4s-1.548 1.4-1.826 1.4c-.518 0-2 1.491-2 2.011 0 .159-.557.4-1.237.536-.681.137-1.743.789-2.361 1.45-.617.662-1.329 1.203-1.582 1.203-.252 0-.875.45-1.385 1s-1.178 1-1.486 1c-.307 0-.897.45-1.31 1s-1.046 1-1.407 1c-.36 0-.915.36-1.232.8s-.767.8-1 .8-.683.36-1 .8-.872.8-1.232.8c-.361 0-.994.45-1.407 1s-.99 1-1.283 1-1.126.63-1.852 1.4-1.614 1.4-1.973 1.4-.653.18-.653.4-.27.4-.6.4-.6.18-.6.4-.353.4-.784.4-.971.225-1.199.5c-1.705 2.057-2.823 3.1-3.321 3.1-.321 0-.922.45-1.335 1s-1.068 1-1.456 1-.705.18-.705.4-.188.4-.417.4c-.392 0-.845.313-2.168 1.5-.307.275-.711.5-.898.5s-.6.36-.917.8-.884.8-1.26.8c-.714 0-1.34.525-2.328 1.951-.324.467-.909.849-1.3.849-.392 0-.712.16-.712.357s-.45.469-1 .607-1 .428-1 .644c0 .215-.36.392-.8.392s-.8.172-.8.382c0 .526-2.874 3.218-3.436 3.218-.149 0-.561.331-.917.736s-1.165.864-1.798 1.02-1.811.972-2.618 1.811c-.806.84-1.863 1.653-2.349 1.807-.485.154-.882.448-.882.653s-.36.373-.8.373-.8.152-.8.339c0 .695-1.439 1.943-2.561 2.22-.638.158-1.632.791-2.208 1.408s-1.448 1.248-1.939 1.404-.892.451-.892.656-.32.373-.712.373-.976.382-1.3.849c-1.079 1.558-2.559 2.751-3.411 2.751-.361 0-1.16.54-1.777 1.2s-1.311 1.2-1.542 1.2-.872.45-1.422 1-1.196 1-1.437 1c-.24 0-.854.45-1.364 1s-1.209 1-1.554 1-.741.36-.881.8-.602.8-1.027.8-.773.168-.773.373-.401.5-.892.656-1.373.798-1.96 1.427c-.588.629-1.27 1.144-1.516 1.144-.245 0-1.058.63-1.806 1.4-.747.77-1.554 1.4-1.793 1.4s-.433.18-.433.4-.347.4-.771.4-1.042.27-1.372.6-.709.6-.842.6-.856.585-1.607 1.3c-1.888 1.798-2.521 2.3-2.903 2.3-.181 0-.588.36-.905.8s-.807.8-1.088.8-.512.18-.512.4-.352.4-.782.4-1.232.45-1.782 1-1.111 1-1.246 1c-.136 0-.498.225-.805.5-1.221 1.096-1.763 1.5-2.008 1.5-.141 0-.76.54-1.377 1.2s-1.319 1.2-1.56 1.2c-.479 0-.584 1.159-.197 2.167.133.348.583.633 1 .633.416 0 .757.16.757.355s.81.476 1.8.624 1.8.439 1.8.646c0 .206.27.375.6.375s.6.18.6.4.36.4.8.4.8.167.8.371.99.495 2.2.646 2.2.434 2.2.629.27.354.6.354.6.18.6.4.36.4.8.4.8.18.8.4.45.4 1 .4 1 .16 1 .355c0 .196.63.474 1.4.619.77.144 1.4.434 1.4.644s.36.382.8.382.8.18.8.4.27.4.6.4.6.18.6.4.345.4.767.4c.421 0 .826.178.9.396.073.218 1.258.514 2.633.657s2.5.415 2.5.604.27.343.6.343.6.18.6.4.345.4.767.4c.421 0 .83.192.908.426s.899.527 1.823.651c1.165.156 1.754.455 1.918.974.131.412.586.749 1.011.749s.773.18.773.4.36.4.8.4.8.157.8.349.72.464 1.6.605 1.6.433 1.6.651c0 .217.72.395 1.6.395s1.6.18 1.6.4.27.4.6.4.6.18.6.4.36.4.8.4.8.172.8.382.63.5 1.4.644 1.4.423 1.4.619c0 .195.27.355.6.355s.6.18.6.4.54.4 1.2.4c.933 0 1.2-.178 1.2-.8 0-.44.166-.8.368-.8.203 0 .497-.585.654-1.3.157-.714.621-1.591 1.032-1.947.41-.356.746-.811.746-1.012s.36-.624.8-.941.8-.903.8-1.301.27-.828.6-.954c.33-.127.6-.571.6-.988 0-.416.18-.757.4-.757s.4-.193.4-.429c0-.235.225-.679.5-.986 1.264-1.409 1.5-1.799 1.5-2.48 0-.401.36-.988.8-1.305s.8-.831.8-1.142c0-.312.45-.983 1-1.493s1-1.166 1-1.458.36-.79.8-1.107.8-.73.8-.917.27-.61.6-.94.6-.947.6-1.372c0-.424.18-.771.4-.771s.4-.27.4-.6.18-.6.4-.6.4-.36.4-.8.168-.8.373-.8.501-.405.657-.9.619-1.191 1.027-1.547c.409-.356.743-.769.743-.918s.45-.721 1-1.271 1-1.34 1-1.755.36-.869.8-1.009c.56-.178.8-.605.8-1.427 0-.645.18-1.173.4-1.173s.4-.193.4-.429c0-.235.225-.679.5-.986 1.106-1.233 1.5-1.764 1.5-2.021 0-.149.331-.561.736-.917s.858-1.142 1.008-1.747c.149-.605.448-1.1.664-1.1.215 0 .392-.23.392-.512 0-.281.36-.771.8-1.088s.8-.897.8-1.288c0-.392.16-.712.357-.712s.469-.45.607-1 .428-1 .644-1c.215 0 .392-.27.392-.6s.18-.6.4-.6.4-.278.4-.618.45-1.068 1-1.618 1-1.222 1-1.494c0-.271.36-.753.8-1.07s.8-.897.8-1.288c0-.392.172-.712.382-.712s.5-.63.644-1.4.395-1.4.557-1.4c.595 0 2.017-1.514 2.017-2.147 0-.359.177-.653.392-.653s.506-.45.644-1 .411-1 .607-1c.197 0 .357-.32.357-.712s.36-.971.8-1.288.8-.807.8-1.088.177-.512.392-.512.506-.45.644-1 .411-1 .607-1c.197 0 .357-.294.357-.653s.334-.944.743-1.3c.408-.356.87-1.052 1.027-1.547s.452-.9.657-.9.373-.32.373-.712.36-.971.8-1.288.8-.807.8-1.088.177-.512.392-.512.506-.45.644-1 .411-1 .607-1c.197 0 .357-.36.357-.8s.18-.8.4-.8.4-.348.4-.773.36-.887.799-1.027.918-.736 1.064-1.327c.146-.59.596-1.364 1.001-1.72s.736-.851.736-1.1.168-.453.373-.453.501-.405.657-.9.619-1.191 1.027-1.547c.409-.356.743-1.109.743-1.673 0-.675.274-1.113.8-1.28.44-.14.8-.594.8-1.009s.45-1.205 1-1.755 1-1.122 1-1.271.334-.562.743-.918c.408-.356.87-1.052 1.027-1.547s.452-.9.657-.9.373-.36.373-.8.18-.8.4-.8.4-.27.4-.6.18-.6.4-.6.4-.347.4-.771.27-1.042.6-1.372.6-.753.6-.94.36-.6.8-.917.8-.878.8-1.246c0-.367.27-.772.6-.899.33-.126.6-.556.6-.954s.36-.984.8-1.301.8-.807.8-1.088.18-.512.4-.512.4-.54.4-1.2-.18-1.2-.4-1.2-.4.18-.4.4m57.2.8c0 .66.16 1.2.357 1.2s.469.45.607 1 .428 1 .644 1c.215 0 .392.36.392.8s.18.8.4.8.4.27.4.6.18.6.4.6.4.341.4.757c0 .417.27.861.6.988.33.126.6.523.6.882s.515 1.133 1.144 1.721c.629.587 1.271 1.469 1.427 1.96s.451.892.656.892.373.36.373.8.18.8.4.8.4.27.4.6.18.6.4.6.4.341.4.757c0 .417.27.861.6.988.33.126.6.556.6.954s.36.984.8 1.301.8.741.8.941c0 .201.331.656.736 1.012s.855 1.13 1.001 1.72.624 1.188 1.064 1.327c.55.175.799.606.799 1.384 0 .636.263 1.231.6 1.361.33.126.6.596.6 1.042s.18.813.4.813.4.36.4.8.172.8.382.8c.687 0 2.418 2.018 2.418 2.818 0 .43.18.782.4.782s.4.23.4.512c0 .281.36.771.8 1.088s.8.807.8 1.088.18.512.4.512.4.347.4.771.27 1.042.6 1.372.6.793.6 1.028c0 .236.18.429.4.429s.4.36.4.8.168.8.373.8.5.401.656.892.798 1.373 1.427 1.96c.629.588 1.144 1.267 1.144 1.508s.164.44.365.44.485.712.632 1.583c.179 1.061.521 1.664 1.035 1.827.423.134.768.51.768.835s.45 1.041 1 1.591 1 1.262 1 1.582.18.582.4.582.4.348.4.773.345.883.768 1.017q.767.243 1.032 1.81t1.032 1.81c.423.134.768.552.768.929 0 .376.359.943.798 1.26.439.316.904 1.137 1.033 1.823s.596 1.502 1.039 1.813c1.754 1.232 2.234 1.818 2.508 3.065.157.715.451 1.3.654 1.3.202 0 .368.36.368.8s.18.8.4.8.4.279.4.619c0 .341.45 1.036 1 1.546s1 1.209 1 1.554.36.741.8.881.8.602.8 1.027.18.773.4.773.4.366.4.813.27.916.6 1.042c.33.127.6.571.6.988 0 .416.18.757.4.757s.4.348.4.773.36.887.8 1.027.8.589.8.998.27 1.015.6 1.345.6.711.6.847c0 .135.45.696 1 1.246s1 1.222 1 1.494c0 .271.36.753.8 1.07s.8.897.8 1.288c0 .392.18.712.4.712s.4.27.4.6.18.6.4.6.4.347.4.771.27 1.042.6 1.372.6.753.6.94.36.6.8.917.8.878.8 1.246c0 .367.27.772.6.899.33.126.6.556.6.954s.36.984.8 1.301.8.807.8 1.088.16.512.355.512c.196 0 .467.591.602 1.313.136.722.606 1.572 1.045 1.888.439.317.798.853.798 1.192 0 .34.45.955 1 1.368s1 1.046 1 1.407c0 .36.36.915.8 1.232s.8.725.8.906.45.78 1 1.33 1 .812 1 .582.36-.418.8-.418.8-.16.8-.355.774-.47 1.721-.612c1.028-.154 1.949-.575 2.288-1.046.312-.433.798-.787 1.079-.787.282 0 .512-.18.512-.4s.63-.4 1.4-.4 1.4-.156 1.4-.347.761-.45 1.691-.575c.931-.124 1.756-.418 1.834-.652s.487-.426.908-.426.767-.18.767-.4.27-.4.6-.4.6-.18.6-.4.54-.4 1.2-.4 1.2-.172 1.2-.382.63-.5 1.4-.644 1.4-.423 1.4-.619c0-.195.27-.355.6-.355s.6-.18.6-.4.36-.4.8-.4.8-.155.8-.344c0-.19.944-.456 2.098-.593s2.158-.432 2.233-.656.391-.407.702-.407c.312 0 .567-.18.567-.4s.54-.4 1.2-.4 1.2-.18 1.2-.4.193-.4.429-.4c.235 0 .698-.27 1.028-.6s1.037-.6 1.572-.6c.534 0 .971-.18.971-.4s.36-.4.8-.4.8-.18.8-.4.36-.4.8-.4.8-.18.8-.4.45-.4 1-.4 1-.16 1-.355.81-.476 1.8-.624 1.8-.439 1.8-.646c0-.206.45-.375 1-.375s1-.18 1-.4.283-.4.629-.4c.345 0 .898-.27 1.228-.6s1.037-.6 1.572-.6c.534 0 .971-.18.971-.4s.27-.4.6-.4.6-.18.6-.4.36-.4.8-.4c.587 0 .8-.267.8-1s-.213-1-.8-1c-.44 0-.8-.18-.8-.4s-.192-.4-.427-.4-1.204-.81-2.152-1.8-1.951-1.8-2.226-1.8c-.276 0-.792-.334-1.148-.743-.356-.408-1.052-.87-1.547-1.027s-.9-.452-.9-.657-.36-.373-.8-.373-.8-.152-.8-.339c0-.636-1.493-2.061-2.159-2.061-.367 0-.77-.27-.896-.6-.127-.33-.499-.6-.827-.6-.329 0-1.078-.515-1.666-1.144s-1.469-1.271-1.96-1.427-.892-.451-.892-.656-.348-.373-.773-.373-.881-.339-1.012-.752c-.132-.418-.753-.856-1.395-.984-.682-.136-1.262-.566-1.415-1.048-.142-.449-.532-.816-.865-.816-.334 0-1.219-.63-1.966-1.4-.748-.77-1.633-1.4-1.967-1.4s-.607-.18-.607-.4-.348-.4-.773-.4-.887-.36-1.027-.8-.589-.8-.998-.8c-.772 0-1.385-.5-2.39-1.951-.324-.467-.896-.849-1.272-.849-.375 0-.953-.27-1.283-.6s-.753-.6-.94-.6-.6-.36-.917-.8-.815-.8-1.107-.8-.948-.45-1.458-1-1.221-1-1.581-1-.654-.152-.654-.339c0-.674-1.424-1.939-2.473-2.198-.591-.146-1.188-.624-1.327-1.064-.14-.439-.602-.799-1.027-.799s-.773-.18-.773-.4-.335-.4-.744-.4-1.082-.45-1.495-1-1.056-1-1.429-1-.792-.36-.932-.799c-.139-.44-.736-.918-1.327-1.064-1.049-.259-2.473-1.524-2.473-2.198 0-.187-.36-.339-.8-.339s-.8-.168-.8-.373-.401-.5-.892-.656-1.349-.773-1.908-1.371-1.417-1.215-1.908-1.371-.892-.451-.892-.656-.294-.373-.653-.373c-.657 0-2.147-1.43-2.147-2.061 0-.187-.347-.339-.771-.339s-1.042-.27-1.372-.6-.753-.6-.94-.6-.6-.36-.917-.8-.815-.8-1.107-.8-.948-.45-1.458-1-1.178-1-1.486-1c-.307 0-.897-.45-1.31-1s-1.046-1-1.407-1c-.36 0-.915-.36-1.232-.8s-.807-.8-1.088-.8-.512-.18-.512-.4-.289-.4-.643-.4-1.58-.967-2.725-2.149-2.475-2.274-2.957-2.427-.875-.446-.875-.651-.36-.373-.8-.373-.8-.18-.8-.4a.41.41 0 0 0-.417-.4c-.392 0-.845-.313-2.168-1.5-.307-.275-.678-.5-.826-.5s-.772-.54-1.389-1.2-1.384-1.2-1.704-1.2-.922-.45-1.335-1-1.068-1-1.456-1-.705-.18-.705-.4-.193-.4-.429-.4c-.235 0-.698-.27-1.028-.6s-.947-.6-1.372-.6c-.424 0-.771-.172-.771-.382 0-.563-2.883-3.218-3.495-3.218-.181 0-.588-.36-.905-.8s-.897-.8-1.288-.8c-.392 0-.712-.18-.712-.4s-.264-.4-.587-.4-1.216-.63-1.986-1.4-1.509-1.4-1.642-1.4-.512-.27-.842-.6-.947-.6-1.372-.6c-.424 0-.771-.152-.771-.339 0-.695-1.439-1.943-2.561-2.22-.638-.158-1.656-.817-2.26-1.464-.605-.647-1.221-1.177-1.368-1.177s-.519-.225-.826-.5c-1.381-1.238-1.789-1.5-2.341-1.5-.325 0-.704-.36-.844-.8-.383-1.207-1-.96-1 .4M43.6 148.549c0 .358.18.651.4.651s.4.347.4.771.27 1.042.6 1.372.6.753.6.94.36.6.8.917.8.73.8.917.27.61.6.94.6.947.6 1.372c0 .424.18.771.4.771s.4.27.4.6.18.6.4.6.4.32.4.712.36.971.8 1.288.8.799.8 1.07c0 .272.45.944 1 1.494s1 1.111 1 1.246c0 .136.27.517.6.847s.6.947.6 1.372c0 .424.18.771.4.771s.4.27.4.6.18.6.4.6.4.294.4.653.334.944.743 1.3c.408.356.87 1.052 1.027 1.547s.452.9.657.9.373.348.373.773.36.887.8 1.027.8.519.8.844c0 .552.262.96 1.5 2.341.275.307.5.931.5 1.386 0 .456.18.829.4.829s.4.341.4.757c0 .417.27.861.6.988.33.126.6.529.6.896 0 .666 1.425 2.159 2.061 2.159.187 0 .339.36.339.8s.177.8.392.8.506.45.644 1 .411 1 .607 1c.197 0 .357.36.357.8s.18.8.4.8.4.348.4.773.36.887.8 1.027.8.589.8.998.27 1.015.6 1.345.6.793.6 1.028c0 .236.18.429.4.429s.4.36.4.8.168.8.373.8.5.401.656.892.798 1.373 1.427 1.96c.629.588 1.144 1.267 1.144 1.508s.16.44.355.44c.196 0 .467.591.602 1.313.136.722.606 1.572 1.045 1.888.439.317.798.83.798 1.14 0 .311.334.856.743 1.212.408.356.87 1.052 1.027 1.547s.452.9.657.9.373.348.373.773.341.881.758 1.014c.456.144.855.758 1.002 1.54.134.714.603 1.558 1.042 1.874s.798.896.798 1.287c0 .392.18.712.4.712s.4.27.4.6.177.6.392.6.515.495.664 1.1c.265 1.072 1.525 2.5 2.205 2.5.187 0 .339.283.339.629 0 .345.27.898.6 1.228s.6.998.6 1.483.36 1.143.8 1.46.8.807.8 1.088.177.512.392.512.515.495.664 1.1.603 1.391 1.008 1.747.736.785.736.953.334.597.743.953c.408.356.87 1.052 1.027 1.547s.452.9.657.9.373.528.373 1.173c0 .822.24 1.249.8 1.427.44.14.8.602.8 1.027s.168.773.373.773.5.401.656.892.773 1.349 1.371 1.908 1.215 1.417 1.371 1.908.451.892.656.892.373.36.373.8.18.8.4.8.4.27.4.6.18.6.4.6.4.36.4.8.168.8.373.8.501.405.657.9.619 1.191 1.027 1.547c.409.356.743.941.743 1.3s.18.653.4.653.4.188.4.417c0 .436.4.979 1.9 2.584.495.529.9 1.331.9 1.781s.18.818.4.818.4.366.4.813.27.916.6 1.042c.33.127.6.505.6.841 0 .605 1.443 2.104 2.026 2.104.167 0 .424.712.571 1.583.179 1.061.521 1.664 1.035 1.827.423.134.768.592.768 1.017s.18.773.4.773.4.341.4.757c0 .417.27.861.6.988.33.126.6.596.6 1.042s.18.813.4.813.4.204.4.453.331.744.736 1.1.858 1.142 1.008 1.747c.149.605.448 1.1.664 1.1.215 0 .392.198.392.44 0 .241.54.943 1.2 1.56s1.2 1.486 1.2 1.932.27 1.081.6 1.411.6.72.6.868c0 .147.517.751 1.149 1.341.632.591 1.269 1.618 1.415 2.283s.619 1.464 1.051 1.776c.432.311.785.867.785 1.235 0 .367.27.772.6.899.33.126.6.596.6 1.042s.18.813.4.813.4.27.4.6.18.6.4.6.4.294.4.653.334.944.743 1.3c.408.356.87 1.052 1.027 1.547s.452.9.657.9.373.294.373.653c0 .633 1.422 2.147 2.017 2.147.162 0 .412.63.557 1.4.144.77.434 1.4.644 1.4s.382.294.382.653.334.944.743 1.3c.408.356.87 1.052 1.027 1.547s.452.9.657.9.373.32.373.712.36.971.8 1.288.8.807.8 1.088.168.512.373.512.501.405.657.9.619 1.191 1.027 1.547c.409.356.743 1.109.743 1.673 0 .675.274 1.113.8 1.28.44.14.8.589.8.998s.27 1.015.6 1.345.6.711.6.847c0 .135.45.696 1 1.246s1 1.262 1 1.582.18.582.4.582.4.32.4.712.36.971.8 1.288.8.807.8 1.088.18.512.4.512.4.347.4.771.27 1.042.6 1.372.6.793.6 1.028c0 .236.18.429.4.429s.4.276.4.613c0 .545 2.137 2.987 2.614 2.987.102 0 .186-.63.186-1.4s-.172-1.4-.382-1.4-.5-.63-.644-1.4-.423-1.4-.619-1.4c-.195 0-.355-.45-.355-1s-.18-1-.4-1-.4-.36-.4-.8-.18-.8-.4-.8-.4-.36-.4-.8-.178-.8-.395-.8-.511-.72-.651-1.6-.413-1.6-.605-1.6-.349-.36-.349-.8-.18-.8-.4-.8-.4-.63-.4-1.4-.18-1.4-.4-1.4-.4-.345-.4-.767c0-.421-.192-.83-.426-.908s-.528-.903-.652-1.834c-.125-.93-.384-1.691-.575-1.691s-.347-.27-.347-.6-.18-.6-.4-.6-.4-.345-.4-.767c0-.421-.192-.83-.426-.908s-.528-.903-.652-1.834c-.125-.93-.384-1.691-.575-1.691s-.347-.27-.347-.6-.18-.6-.4-.6-.4-.54-.4-1.2-.18-1.2-.4-1.2-.4-.45-.4-1-.16-1-.355-1-.476-.81-.624-1.8-.439-1.8-.646-1.8c-.206 0-.375-.36-.375-.8s-.18-.8-.4-.8-.4-.27-.4-.6-.18-.6-.4-.6-.4-.45-.4-1-.164-1-.365-1-.486-.72-.635-1.6-.434-1.6-.635-1.6-.365-.27-.365-.6-.18-.6-.4-.6-.4-.54-.4-1.2-.163-1.2-.362-1.2c-.2 0-.487-.9-.638-2s-.438-2-.638-2c-.199 0-.362-.36-.362-.8s-.18-.8-.4-.8-.4-.27-.4-.6-.18-.6-.4-.6-.4-.54-.4-1.2-.172-1.2-.382-1.2-.5-.63-.644-1.4-.423-1.4-.619-1.4c-.195 0-.355-.27-.355-.6s-.18-.6-.4-.6-.4-.54-.4-1.2-.18-1.2-.4-1.2-.4-.27-.4-.6-.159-.6-.354-.6-.478-.99-.629-2.2-.442-2.2-.646-2.2-.371-.36-.371-.8-.18-.8-.4-.8-.4-.45-.4-1-.16-1-.355-1c-.196 0-.474-.63-.619-1.4-.144-.77-.434-1.4-.644-1.4s-.382-.36-.382-.8-.18-.8-.4-.8-.4-.45-.4-1-.18-1-.4-1-.4-.345-.4-.767c0-.421-.198-.832-.439-.913-.242-.08-.535-.995-.652-2.033s-.37-1.887-.561-1.887-.348-.36-.348-.8-.18-.8-.4-.8-.4-.45-.4-1-.18-1-.4-1-.4-.345-.4-.767c0-.421-.192-.83-.426-.908s-.528-.903-.652-1.834c-.125-.93-.384-1.691-.575-1.691s-.347-.27-.347-.6-.18-.6-.4-.6-.4-.36-.4-.8-.16-.8-.355-.8c-.196 0-.474-.63-.619-1.4-.144-.77-.434-1.4-.644-1.4s-.382-.63-.382-1.4-.18-1.4-.4-1.4-.4-.36-.4-.8-.18-.8-.4-.8-.4-.45-.4-1-.169-1-.375-1c-.207 0-.497-.81-.646-1.8-.148-.99-.429-1.8-.624-1.8s-.355-.36-.355-.8-.18-.8-.4-.8-.4-.27-.4-.6-.18-.6-.4-.6-.4-.345-.4-.767c0-.421-.192-.83-.426-.908s-.528-.903-.652-1.834c-.125-.93-.384-1.691-.575-1.691s-.347-.27-.347-.6-.18-.6-.4-.6-.4-.63-.4-1.4-.164-1.4-.365-1.4-.486-.72-.635-1.6-.434-1.6-.635-1.6-.365-.45-.365-1-.18-1-.4-1-.4-.36-.4-.8-.18-.8-.4-.8-.4-.27-.4-.6-.16-.6-.355-.6-.476-.81-.624-1.8-.439-1.8-.646-1.8c-.206 0-.375-.36-.375-.8s-.18-.8-.4-.8-.4-.27-.4-.6-.18-.6-.4-.6-.4-.63-.4-1.4-.169-1.4-.375-1.4c-.207 0-.497-.81-.646-1.8-.148-.99-.429-1.8-.624-1.8s-.355-.36-.355-.8-.18-.8-.4-.8-.4-.373-.4-.829-.27-1.098-.6-1.428-.6-1.037-.6-1.572c0-.534-.18-.971-.4-.971s-.4-.36-.4-.8-.18-.8-.4-.8-.4-.27-.4-.6-.18-.6-.4-.6-.4-.54-.4-1.2-.167-1.2-.371-1.2-.495-.99-.646-2.2-.434-2.2-.629-2.2-.354-.27-.354-.6-.18-.6-.4-.6-.4-.36-.4-.8-.18-.8-.4-.8-.4-.27-.4-.6-.158-.6-.35-.6-.453-.515-.579-1.145c-.197-.986-.456-1.174-1.873-1.364-.954-.129-1.947-.571-2.368-1.056-.398-.459-1.108-.835-1.577-.835S88 166.22 88 166s-.36-.4-.8-.4-.8-.167-.8-.371-.99-.495-2.2-.646-2.2-.434-2.2-.629-.27-.354-.6-.354-.6-.18-.6-.4-.36-.4-.8-.4-.8-.18-.8-.4-.437-.4-.971-.4c-.535 0-1.242-.27-1.572-.6s-.973-.6-1.428-.6c-.456 0-.829-.18-.829-.4s-.36-.4-.8-.4-.8-.18-.8-.4-.27-.4-.6-.4-.6-.156-.6-.347-.761-.45-1.691-.575c-.931-.124-1.756-.418-1.834-.652s-.667-.426-1.308-.426c-.642 0-1.167-.18-1.167-.4s-.45-.4-1-.4-1-.18-1-.4-.341-.4-.757-.4c-.417 0-.861-.27-.988-.6-.134-.351-.734-.6-1.442-.6-.667 0-1.213-.18-1.213-.4s-.27-.4-.6-.4-.6-.18-.6-.4-.36-.4-.8-.4-.8-.16-.8-.355-.81-.476-1.8-.624-1.8-.439-1.8-.646c0-.206-.27-.375-.6-.375s-.6-.18-.6-.4-.54-.4-1.2-.4-1.2-.18-1.2-.4-.435-.4-.967-.4c-.531 0-1.026-.172-1.1-.381-.261-.748-3.533-.998-3.533-.27m307.9-.273c-.385.1-.7.349-.7.553s-.63.371-1.4.371-1.4.18-1.4.4-.474.4-1.053.4-1.344.333-1.7.74-1.322.864-2.147 1.018c-.825.153-1.5.45-1.5.66s-.36.382-.8.382-.8.18-.8.4-.36.4-.8.4-.8.16-.8.355-.81.476-1.8.624-1.8.439-1.8.646c0 .206-.27.375-.6.375s-.6.18-.6.4-.45.4-1 .4-1 .18-1 .4-.36.4-.8.4-.8.16-.8.355-.81.476-1.8.624-1.8.439-1.8.646c0 .206-.45.375-1 .375s-1 .18-1 .4-.36.4-.8.4-.8.18-.8.4-.27.4-.6.4-.6.164-.6.365-.72.486-1.6.635-1.6.434-1.6.635-.27.365-.6.365-.6.18-.6.4-.36.4-.8.4-.8.157-.8.348-.849.444-1.887.561-1.953.41-2.033.652c-.081.241-.492.439-.913.439s-.767.18-.767.4-.45.4-1 .4-1 .18-1 .4-.36.4-.8.4-.8.16-.8.355c0 .196-.63.474-1.4.619-.77.144-1.4.434-1.4.644s-.339.382-.754.382c-.614 0-.805.409-1.029 2.2-.151 1.21-.442 2.2-.646 2.2s-.371.45-.371 1-.18 1-.4 1-.4.36-.4.8-.18.8-.4.8-.4.27-.4.6-.164.6-.365.6-.486.72-.635 1.6-.434 1.6-.635 1.6-.365.45-.365 1-.18 1-.4 1-.4.27-.4.6-.18.6-.4.6-.4.345-.4.767c0 .421-.178.826-.396.9-.218.073-.514 1.258-.657 2.633s-.415 2.5-.604 2.5-.343.27-.343.6-.18.6-.4.6-.4.345-.4.767c0 .421-.192.83-.426.908s-.528.903-.652 1.834c-.125.93-.384 1.691-.575 1.691s-.347.27-.347.6-.18.6-.4.6-.4.36-.4.8-.18.8-.4.8-.4.27-.4.6-.169.6-.375.6c-.207 0-.497.81-.646 1.8-.148.99-.429 1.8-.624 1.8s-.355.54-.355 1.2-.18 1.2-.4 1.2-.4.45-.4 1-.18 1-.4 1-.4.36-.4.8-.157.8-.349.8-.464.72-.605 1.6-.433 1.6-.651 1.6c-.217 0-.395.36-.395.8s-.18.8-.4.8-.4.36-.4.8-.16.8-.355.8-.476.81-.624 1.8-.439 1.8-.646 1.8c-.206 0-.375.27-.375.6s-.18.6-.4.6-.4.45-.4 1-.18 1-.4 1-.4.54-.4 1.2-.16 1.2-.355 1.2-.476.81-.624 1.8-.439 1.8-.646 1.8c-.206 0-.375.27-.375.6s-.18.6-.4.6-.4.36-.4.8-.18.8-.4.8-.4.45-.4 1-.16 1-.355 1c-.196 0-.474.63-.619 1.4-.144.77-.434 1.4-.644 1.4s-.382.36-.382.8-.18.8-.4.8-.4.45-.4 1-.159 1-.354 1-.478.99-.629 2.2-.442 2.2-.646 2.2-.371.36-.371.8-.18.8-.4.8-.4.45-.4 1-.18 1-.4 1-.4.36-.4.8-.172.8-.382.8-.5.63-.644 1.4-.423 1.4-.619 1.4c-.195 0-.355.27-.355.6s-.18.6-.4.6-.4.54-.4 1.2-.18 1.2-.4 1.2-.4.45-.4 1-.16 1-.355 1-.476.81-.624 1.8-.439 1.8-.646 1.8c-.206 0-.375.384-.375.853s-.337 1.145-.748 1.502c-.412.357-.878 1.413-1.035 2.347-.158.934-.451 1.698-.652 1.698s-.365.45-.365 1-.18 1-.4 1-.4.36-.4.8-.18.8-.4.8-.4.27-.4.6-.162.6-.361.6-.491 1.124-.65 2.497c-.194 1.673-.537 2.711-1.04 3.147-.412.357-.749 1.034-.749 1.503s-.18.853-.4.853-.4.36-.4.8-.172.8-.382.8-.5.63-.644 1.4-.423 1.4-.619 1.4c-.195 0-.355.45-.355 1s-.18 1-.4 1-.4.345-.4.767c0 .421-.192.83-.426.908s-.528.903-.652 1.834c-.125.93-.384 1.691-.575 1.691s-.347.45-.347 1-.18 1-.4 1-.4.45-.4 1-.18 1-.4 1-.4.36-.4.8-.16.8-.355.8c-.196 0-.474.63-.619 1.4-.144.77-.434 1.4-.644 1.4s-.382.45-.382 1-.18 1-.4 1-.4.36-.4.8-.18.8-.4.8-.4.36-.4.8-.16.8-.355.8-.476.81-.624 1.8-.439 1.8-.646 1.8c-.206 0-.375.63-.375 1.4s-.18 1.4-.4 1.4-.4.27-.4.6-.16.6-.355.6c-.196 0-.474.63-.619 1.4-.144.77-.434 1.4-.644 1.4s-.382.54-.382 1.2-.18 1.2-.4 1.2-.4.27-.4.6-.18.6-.4.6-.4.345-.4.767c0 .421-.192.83-.426.908s-.528.903-.652 1.834c-.125.93-.384 1.691-.575 1.691s-.347.27-.347.6-.18.6-.4.6-.4.72-.4 1.6-.18 1.6-.4 1.6-.4.27-.4.6-.18.6-.4.6-.4.63-.4 1.4.18 1.4.4 1.4.4-.23.4-.512c0-.281.36-.771.8-1.088s.8-.878.8-1.246c0-.367.27-.772.6-.899.33-.126.6-.523.6-.882s.54-1.156 1.2-1.773 1.2-1.242 1.2-1.389.27-.538.6-.868.6-.947.6-1.372c0-.424.18-.771.4-.771s.4-.27.4-.6.18-.6.4-.6.4-.341.4-.757c0-.417.27-.861.6-.988.33-.126.6-.556.6-.954s.36-.984.8-1.301.8-.741.8-.941c0-.201.331-.656.736-1.012s.858-1.142 1.008-1.747c.149-.605.448-1.1.664-1.1.215 0 .392-.27.392-.6s.18-.6.4-.6.4-.36.4-.8.18-.8.4-.8.4-.193.4-.429c0-.235.27-.698.6-1.028s.6-.947.6-1.372c0-.424.152-.771.339-.771.68 0 1.94-1.428 2.205-2.5.149-.605.448-1.1.664-1.1.215 0 .392-.27.392-.6s.18-.6.4-.6.4-.36.4-.8.18-.8.4-.8.4-.193.4-.429c0-.235.27-.698.6-1.028s.6-.935.6-1.345.36-.858.8-.998.8-.536.8-.88.334-.917.743-1.273c.408-.356.87-1.052 1.027-1.547s.452-.9.657-.9.373-.348.373-.773.345-.883.768-1.017c.523-.166.857-.774 1.049-1.913.182-1.076.691-2.051 1.433-2.743.632-.591 1.15-1.281 1.15-1.534 0-.252.45-.875 1-1.385s1-1.221 1-1.581.18-.654.4-.654.4-.204.4-.453.336-.744.746-1.1c.411-.356.867-1.198 1.015-1.87s.622-1.476 1.054-1.788c.432-.311.785-.886.785-1.277 0-.392.16-.712.357-.712s.469-.45.607-1 .428-1 .644-1c.215 0 .392-.198.392-.44 0-.241.517-.922 1.149-1.512.632-.591 1.276-1.653 1.432-2.361s.448-1.287.651-1.287c.202 0 .368-.32.368-.712s.36-.971.8-1.288.8-.807.8-1.088.168-.512.373-.512.501-.405.657-.9.619-1.191 1.027-1.547c.409-.356.743-.941.743-1.3s.168-.653.373-.653.501-.405.657-.9.619-1.191 1.027-1.547c.409-.356.743-.941.743-1.3s.18-.653.4-.653.4-.27.4-.6.18-.6.4-.6.4-.366.4-.813.27-.916.6-1.042c.33-.127.6-.499.6-.827 0-.329.515-1.078 1.144-1.666s1.271-1.469 1.427-1.96.451-.892.656-.892.373-.36.373-.8.18-.8.4-.8.4-.384.4-.854.45-1.271 1-1.781 1-1.166 1-1.458.36-.79.8-1.107.8-.807.8-1.088.177-.512.392-.512.515-.495.664-1.1.603-1.391 1.008-1.747.736-.851.736-1.1.18-.453.4-.453.4-.36.4-.8.16-.8.357-.8.469-.45.607-1 .428-1 .644-1c.215 0 .392-.348.392-.773 0-.427.366-.889.816-1.032.485-.154.912-.734 1.05-1.427.129-.642.392-1.168.584-1.168.193 0 .35-.23.35-.512 0-.281.36-.771.8-1.088s.8-.897.8-1.288c0-.392.16-.712.357-.712s.469-.45.607-1 .428-1 .644-1c.215 0 .392-.348.392-.773s.36-.887.8-1.027.8-.602.8-1.027.18-.773.4-.773.4-.335.4-.744.45-1.082 1-1.495 1-1.049 1-1.413.27-.766.6-.893c.33-.126.6-.596.6-1.042s.18-.813.4-.813.4-.366.4-.813c0-.448.63-1.444 1.4-2.214s1.4-1.664 1.4-1.986.18-.587.4-.587.4-.32.4-.712.36-.971.8-1.288.8-.73.8-.917.27-.61.6-.94.6-.947.6-1.372c0-.424.18-.771.4-.771s.4-.27.4-.6.18-.6.4-.6.4-.36.4-.8.168-.8.373-.8.5-.401.656-.892.798-1.373 1.427-1.96c.629-.588 1.144-1.19 1.144-1.337s.27-.538.6-.868.6-.947.6-1.372c0-.424.18-.771.4-.771s.4-.27.4-.6.18-.6.4-.6.4-.294.4-.653.334-.944.743-1.3c.408-.356.87-1.052 1.027-1.547s.452-.9.657-.9.373-.204.373-.453.331-.744.736-1.1.858-1.142 1.008-1.747c.149-.605.448-1.1.664-1.1.215 0 .392-.27.392-.6s.18-.6.4-.6.4-.36.4-.8.18-.8.4-.8.4-.193.4-.429c0-.235.27-.698.6-1.028s.6-.947.6-1.372c0-.424.18-.771.4-.771s.4-.186.4-.413c0-.228.63-1.044 1.4-1.814s1.4-1.664 1.4-1.986.18-.587.4-.587.4-.32.4-.712.359-.97.798-1.287.908-1.16 1.042-1.874c.147-.782.546-1.396 1.002-1.54.417-.133.758-.549.758-.926 0-.376.353-.939.785-1.25s.905-1.111 1.051-1.776.783-1.692 1.415-2.283c.632-.59 1.149-1.271 1.149-1.512s.16-.44.355-.44c.196 0 .474-.63.619-1.4.144-.77.434-1.4.644-1.4s.382-.294.382-.653.388-.989.861-1.4l.861-.747-1.161.046c-.638.026-1.476.129-1.861.23m-237.456 26.443c-.538.179-.599 1.681-.069 1.681.207 0 .497.81.646 1.8.148.99.429 1.8.624 1.8s.355.36.355.8.18.8.4.8.4.27.4.6.18.6.4.6.4.45.4 1 .164 1 .365 1 .486.72.635 1.6.434 1.6.635 1.6.365.27.365.6.18.6.4.6.4.54.4 1.2.18 1.2.4 1.2.4.45.4 1 .16 1 .355 1 .476.81.624 1.8.439 1.8.646 1.8c.206 0 .375.27.375.6s.18.6.4.6.4.36.4.8.16.8.355.8.476.81.624 1.8.439 1.8.646 1.8c.206 0 .375.27.375.6s.18.6.4.6.4.36.4.8.18.8.4.8.4.36.4.8.157.8.348.8c.192 0 .471 1.08.62 2.4s.443 2.4.652 2.4.38.36.38.8.18.8.4.8.4.27.4.6.18.6.4.6.4.54.4 1.2.172 1.2.382 1.2.5.63.644 1.4.423 1.4.619 1.4c.195 0 .355.27.355.6s.18.6.4.6.4.525.4 1.167c0 .641.192 1.23.426 1.308s.528.903.652 1.834c.125.93.384 1.691.575 1.691s.347.45.347 1 .18 1 .4 1 .4.45.4 1 .18 1 .4 1 .4.36.4.8.172.8.382.8.5.63.644 1.4.423 1.4.619 1.4c.195 0 .355.45.355 1s.18 1 .4 1 .4.36.4.8.18.8.4.8.4.345.4.767c0 .421.198.832.439.913.242.08.535.995.652 2.033s.37 1.887.561 1.887.348.36.348.8.18.8.4.8.4.45.4 1 .16 1 .355 1c.196 0 .474.63.619 1.4.144.77.434 1.4.644 1.4s.382.54.382 1.2.18 1.2.4 1.2.4.27.4.6.18.6.4.6.4.36.4.8.172.8.382.8.5.63.644 1.4.423 1.4.619 1.4c.195 0 .355.63.355 1.4s.18 1.4.4 1.4.4.45.4 1 .18 1 .4 1 .4.36.4.8.169.8.375.8c.207 0 .497.81.646 1.8.148.99.429 1.8.624 1.8s.355.36.355.8.18.8.4.8.4.27.4.6.169.6.375.6c.207 0 .497.81.646 1.8.148.99.429 1.8.624 1.8s.355.36.355.8.18.8.4.8.4.27.4.6.18.6.4.6.4.63.4 1.4.169 1.4.375 1.4c.207 0 .497.81.646 1.8.148.99.429 1.8.624 1.8s.355.36.355.8.18.8.4.8.4.27.4.6.18.6.4.6.4.54.4 1.2.172 1.2.382 1.2.5.63.644 1.4.423 1.4.619 1.4c.195 0 .355.27.355.6s.18.6.4.6.4.36.4.8.159.8.353.8c.195 0 .479 1.17.632 2.6s.444 2.6.647 2.6c.202 0 .368.27.368.6s.18.6.4.6.4.36.4.8.18.8.4.8.4.45.4 1 .16 1 .355 1c.196 0 .474.63.619 1.4.144.77.434 1.4.644 1.4s.382.36.382.8.18.8.4.8.4.45.4 1 .18 1 .4 1 .4.36.4.8.157.8.348.8.444.849.561 1.887.41 1.953.652 2.033c.241.081.439.492.439.913s.18.767.4.767.4.45.4 1 .16 1 .355 1c.196 0 .474.63.619 1.4.144.77.434 1.4.644 1.4s.382.36.382.8.18.8.4.8.4.45.4 1 .18 1 .4 1 .4.345.4.767c0 .421.183.827.407.902s.519 1.08.656 2.233.403 2.098.593 2.098.344.27.344.6.18.6.4.6.4.36.4.8.18.8.4.8.4.45.4 1 .16 1 .355 1c.196 0 .474.63.619 1.4.144.77.434 1.4.644 1.4s.382.36.382.8.18.8.4.8.4.45.4 1 .16 1 .355 1c.196 0 .474.63.619 1.4.144.77.434 1.4.644 1.4s.382.72.382 1.6.18 1.6.4 1.6.4.27.4.6.18.6.4.6.4.45.4 1 .164 1 .365 1 .486.72.635 1.6.434 1.6.635 1.6.365.193.365.429c0 .637 1.053 1.571 1.771 1.571.57 0 .629-7.16.629-75.829 0-80.767.087-76.971-1.771-76.971-.346 0-.629-.18-.629-.4s-.27-.4-.6-.4-.6-.18-.6-.4-.36-.4-.8-.4-.8-.16-.8-.355c0-.196-.63-.474-1.4-.619-.77-.144-1.4-.434-1.4-.644s-.45-.382-1-.382-1-.18-1-.4-.36-.4-.8-.4-.8-.16-.8-.355c0-.196-.63-.474-1.4-.619-.77-.144-1.4-.434-1.4-.644s-.54-.382-1.2-.382-1.2-.18-1.2-.4-.45-.4-1-.4-1-.18-1-.4-.373-.4-.829-.4-1.098-.27-1.428-.6-1.037-.6-1.572-.6c-.534 0-.971-.18-.971-.4s-.36-.4-.8-.4-.8-.18-.8-.4-.36-.4-.8-.4-.8-.18-.8-.4-.27-.4-.6-.4-.6-.169-.6-.375c0-.207-.81-.497-1.8-.646-.99-.148-1.8-.429-1.8-.624s-.36-.355-.8-.355-.8-.18-.8-.4-.45-.4-1-.4-1-.169-1-.375c0-.207-.81-.497-1.8-.646-.99-.148-1.8-.429-1.8-.624s-.27-.355-.6-.355-.6-.18-.6-.4-.36-.4-.8-.4-.8-.18-.8-.4-.36-.4-.8-.4-.8-.172-.8-.382-.63-.5-1.4-.644-1.4-.423-1.4-.619c0-.195-.45-.355-1-.355s-1-.18-1-.4-.36-.4-.8-.4-.8-.18-.8-.4-.63-.4-1.4-.4-1.4-.172-1.4-.382-.63-.5-1.4-.644-1.4-.423-1.4-.619c0-.195-.36-.355-.8-.355s-.8-.18-.8-.4-.27-.4-.6-.4-.6-.169-.6-.375c0-.207-.81-.497-1.8-.646-.99-.148-1.8-.429-1.8-.624s-.36-.355-.8-.355-.8-.18-.8-.4-.27-.4-.6-.4-.6-.18-.6-.4-.36-.4-.8-.4-.8-.157-.8-.348-.849-.444-1.887-.561-1.953-.41-2.033-.652c-.081-.241-.492-.439-.913-.439s-.767-.18-.767-.4-.36-.4-.8-.4-.8-.18-.8-.4-.27-.4-.6-.4-.6-.16-.6-.356c0-.377-2.403-.776-3.156-.525m167.456-.043c-.385.1-.7.349-.7.553s-.36.371-.8.371-.8.18-.8.4-.27.4-.6.4-.6.18-.6.4-.345.4-.767.4c-.421 0-.827.183-.902.407s-1.08.519-2.233.656-2.098.403-2.098.593-.45.344-1 .344-1 .18-1 .4-.36.4-.8.4-.8.18-.8.4-.27.4-.6.4-.6.16-.6.355c0 .196-.63.474-1.4.619-.77.144-1.4.434-1.4.644s-.36.382-.8.382-.8.18-.8.4-.45.4-1 .4-1 .16-1 .355c0 .196-.63.474-1.4.619-.77.144-1.4.434-1.4.644s-.54.382-1.2.382-1.2.18-1.2.4-.45.4-1 .4-1 .18-1 .4-.36.4-.8.4-.8.172-.8.382-.63.5-1.4.644-1.4.423-1.4.619c0 .195-.45.355-1 .355s-1 .18-1 .4-.36.4-.8.4-.8.18-.8.4-.27.4-.6.4-.6.16-.6.355c0 .196-.63.474-1.4.619-.77.144-1.4.434-1.4.644s-.54.382-1.2.382-1.2.18-1.2.4-.45.4-1 .4-1 .16-1 .355c0 .196-.63.474-1.4.619-.77.144-1.4.434-1.4.644s-.54.382-1.2.382-1.2.18-1.2.4-.27.4-.6.4-.6.18-.6.4-.283.4-.629.4c-.345 0-.898.27-1.228.6s-1.037.6-1.572.6c-.534 0-.971.18-.971.4s-.36.4-.8.4-.8.18-.8.4-.45.4-1 .4-1 .18-1 .4-.45.4-1 .4-1 .169-1 .375c0 .207-.81.497-1.8.646-.99.148-1.8.429-1.8.624s-.36.355-.8.355-.8.18-.8.4-.27.4-.6.4-.6.16-.6.355c0 .196-.63.474-1.4.619-.77.144-1.4.434-1.4.644s-.36.382-.8.382-.8.18-.8.4-.36.4-.8.4-.8.18-.8.4-.27.4-.6.4c-.531 0-.6 8.756-.6 76.4 0 44.288.149 76.4.355 76.4.196 0 .474-.63.619-1.4.144-.77.434-1.4.644-1.4s.382-.36.382-.8.18-.8.4-.8.4-.45.4-1 .18-1 .4-1 .4-.36.4-.8.172-.8.382-.8.5-.63.644-1.4.423-1.4.619-1.4c.195 0 .355-.45.355-1s.18-1 .4-1 .4-.36.4-.8.157-.8.348-.8.444-.849.561-1.887.41-1.953.652-2.033c.241-.081.439-.672.439-1.313 0-.642.18-1.167.4-1.167s.4-.27.4-.6.18-.6.4-.6.4-.36.4-.8.16-.8.355-.8c.196 0 .474-.63.619-1.4.144-.77.434-1.4.644-1.4s.382-.45.382-1 .18-1 .4-1 .4-.36.4-.8.18-.8.4-.8.4-.36.4-.8.157-.8.348-.8c.192 0 .471-1.08.62-2.4s.443-2.4.652-2.4.38-.36.38-.8.18-.8.4-.8.4-.27.4-.6.16-.6.355-.6c.196 0 .474-.63.619-1.4.144-.77.434-1.4.644-1.4s.382-.54.382-1.2.18-1.2.4-1.2.4-.27.4-.6.18-.6.4-.6.4-.36.4-.8.171-.8.38-.8.502-1.08.652-2.4c.149-1.32.428-2.4.62-2.4.191 0 .348-.36.348-.8s.18-.8.4-.8.4-.36.4-.8.18-.8.4-.8.4-.27.4-.6.16-.6.355-.6.476-.81.624-1.8.439-1.8.646-1.8c.206 0 .375-.36.375-.8s.18-.8.4-.8.4-.27.4-.6.156-.6.347-.6.45-.761.575-1.691c.124-.931.418-1.756.652-1.834s.426-.757.426-1.508c0-.752.18-1.367.4-1.367s.4-.36.4-.8.18-.8.4-.8.4-.27.4-.6.156-.6.347-.6.45-.761.575-1.691c.124-.931.418-1.756.652-1.834s.426-.487.426-.908.18-.767.4-.767.4-.27.4-.6.18-.6.4-.6.4-.54.4-1.2.172-1.2.382-1.2.5-.63.644-1.4.423-1.4.619-1.4c.195 0 .355-.63.355-1.4s.18-1.4.4-1.4.4-.345.4-.767c0-.421.192-.83.426-.908s.528-.903.652-1.834c.125-.93.384-1.691.575-1.691s.347-.27.347-.6.18-.6.4-.6.4-.54.4-1.2.18-1.2.4-1.2.4-.27.4-.6.16-.6.355-.6c.196 0 .474-.63.619-1.4.144-.77.434-1.4.644-1.4s.382-.36.382-.8.18-.8.4-.8.4-.63.4-1.4.18-1.4.4-1.4.4-.45.4-1 .16-1 .355-1c.196 0 .474-.63.619-1.4.144-.77.434-1.4.644-1.4s.382-.36.382-.8.18-.8.4-.8.4-.36.4-.8.16-.8.355-.8.476-.81.624-1.8.439-1.8.646-1.8c.206 0 .375-.45.375-1s.18-1 .4-1 .4-.27.4-.6.18-.6.4-.6.4-.54.4-1.2.16-1.2.355-1.2.476-.81.624-1.8.439-1.8.646-1.8c.206 0 .375-.27.375-.6s.18-.6.4-.6.4-.54.4-1.2.18-1.2.4-1.2.4-.27.4-.6.16-.6.355-.6c.196 0 .474-.63.619-1.4.144-.77.434-1.4.644-1.4s.382-.54.382-1.2.18-1.2.4-1.2.4-.27.4-.6.159-.6.354-.6.478-.99.629-2.2.442-2.2.646-2.2.371-.36.371-.8.18-.8.4-.8.4-.45.4-1 .18-1 .4-1 .4-.36.4-.8.172-.8.382-.8.5-.63.644-1.4.423-1.4.619-1.4c.195 0 .355-.45.355-1s.18-1 .4-1 .4-.36.4-.8.18-.8.4-.8.4-.27.4-.6.159-.6.354-.6.478-.99.629-2.2.442-2.2.646-2.2.371-.45.371-1 .18-1 .4-1 .4-.36.4-.8.172-.8.382-.8.5-.63.644-1.4.423-1.4.619-1.4c.195 0 .355-.45.355-1s.18-1 .4-1 .4-.36.4-.8.18-.8.4-.8.4-.27.4-.6.156-.6.347-.6.45-.761.575-1.691c.124-.931.418-1.756.652-1.834s.426-.847.426-1.708c0-.862.18-1.567.4-1.567s.4-.27.4-.6.18-.6.4-.6.4-.36.4-.8.16-.8.355-.8.476-.81.624-1.8.439-1.8.646-1.8c.206 0 .375-.27.375-.6s.18-.6.4-.6.4-.63.4-1.4c0-1.438-.296-1.596-2.1-1.124" />
</svg>