<svg xmlns="http://www.w3.org/2000/svg" width="800" height="800" viewBox="0 0 800 800" fill="currentColor"><path d="M380.6 16.2c-20.7 5.6-46.2 14.2-47.2 15.9-1.7 2.7-7.4 42.8-6.2 44 .7.5 6.6 3 13 5.5 6.5 2.5 22.2 9.3 35 14.9l23.1 10.2 14.8-6.4c8.1-3.5 24.2-10.4 35.8-15.3 12.8-5.4 21.2-10 21.6-11.6.6-2.7-4.4-36.6-5.9-40.7-1.2-3.2-59.4-21.2-67.1-20.7-.9 0-8.5 1.9-16.9 4.2M272.4 32.1c-9.8 1.5-32.9 13.1-54.8 27.8-12.8 8.4-14.7 10.4-21.9 23.1-12.3 21.9-12.8 19.9 9.4 27.9 10.7 3.9 20.1 7.1 21.3 7.1 1 0 11.9-5.9 24.1-13.1 12.3-7.3 28.5-16.7 36.2-20.8 9.1-4.8 14.2-8.5 14.5-10.7 3.6-16.7 6.9-40 6.3-40.3-2.6-1.5-27.3-2.2-35.1-1m217.9 1.3c-.3.7.9 11 2.9 22.8l3.6 21.4 16 8.7c8.9 4.8 25.6 14.4 37.1 21.3l20.9 12.6 7.7-3c4.2-1.5 13.7-4.9 20.9-7.3 7.8-2.7 13-5.4 13-6.7 0-4.6-14.3-29.8-20.2-35.7-6.1-6.1-34.9-23.8-51.1-31.2-7.8-3.7-11.1-4.2-29.3-4.2-11.3 0-20.9.5-21.5 1.3m-195.8 73.2c-14 7.7-52.6 30.1-56 32.5-1 .8-7.2 54.8-7.6 66.9l-.3 13.7 34.5 19.9c19.1 10.9 35.6 19.9 36.8 20 1.2 0 12.8-6.2 26.1-14 13.2-7.7 31.7-18.3 41.3-23.7l17.2-9.8v-83.5l-15.2-7c-16.3-7.6-38.1-17.1-50.7-22.1l-7.7-3.2zm169.5-.5c-10.6 4.4-26.8 11.6-35.9 15.8l-16.3 7.8.3 41.8.5 41.6 13.5 7.9c7.4 4.3 26.3 15.2 41.8 24.3l28.3 16.4 36.6-20.9 36.6-20.9-.5-6.6c-1.4-20.7-7.6-71.1-9-72.7-3.3-4.2-70.8-42.8-74.3-42.8-1.2.2-11 3.7-21.6 8.3m-307.9 31.8c-30.7 27.9-33.6 31.6-38.5 48.4-2.3 8.3-6 23.1-8.2 32.9l-4.1 17.7 5.3 4.9c3 2.5 10.9 9.2 17.8 14.6l12.3 10 17.2-13.2c9.3-7.2 23.6-17.8 31.9-23.7 8.1-5.8 14.6-11 14.6-11.7 0-.6 1.6-14.5 3.6-30.6 1.8-16.2 3.9-33.4 4.4-38.1l1-8.6-17.6-6.9c-9.6-3.8-19.2-7.3-21.2-7.8-3-1-6.6 1.3-18.5 12.1m452.9-4.5c-9.8 3.9-19.1 7.2-20.7 7.7-2.6.9-3.1 2.2-2.4 6.3.5 2.8 2.7 20.7 4.7 39.6l3.9 34.2 8.6 6.2c4.5 3.6 18.9 14.2 31.5 23.6 14.8 11 23.9 16.9 25.3 16.1 1.2-.7 9.3-7 17.9-13.9 10.1-8.1 15.5-13.6 15.5-15.6 0-4.6-7.6-37.8-12-52.8-2.9-9.8-5.1-13.7-12.1-21.1-10.7-10.9-39.8-37.2-41.3-37.2-.7 0-9.1 3.2-18.9 6.9M357 261.2l-40.5 23.4-.5 48.9-.3 48.9 7.1 4c4 2.4 22.6 13 41.3 23.8s34.9 19.7 35.9 19.7 20.4-10.8 43.1-23.8l41.2-23.9-.4-48.7-.5-48.9-40.4-23.4c-22.3-12.9-41.7-23.5-43-23.5-1.4 0-20.8 10.6-43 23.5m-161-4.6c-10.8 7.8-24.8 18-31.3 23.1l-12 8.9-1.2 22.8c-.7 12.5-.7 32.4 0 44.2l1.2 21.2 14.5 10.9c7.9 5.9 22.2 16.6 31.8 23.3l17.2 12.7 18.2-10.7c10-5.7 26.2-15.1 36.1-20.9l18.1-10.3.1-49v-49.1l-35.4-20.4c-19.4-11.2-35.9-20.5-36.6-20.5-.8 0-10.1 6.2-20.7 13.8m350.1 8.8-35 20.5v48.8l-.2 48.7 35.9 20.7c31.5 18.4 36.4 20.7 39.6 19 2-1.1 16.4-11.6 32-23.2l28.5-21.4 1.2-18.6c.5-10.2.7-30 .2-44.1l-1-25.5-23.8-17.5c-28.5-21.1-39.1-28.3-41-28.2-.6 0-17 9.5-36.4 20.8m-459 6.5c-15.5 23.3-15 21.5-15 61.1 0 34.4.2 35.5 4.1 42.1 9.1 15.2 17.5 27.8 18.5 27.8.7 0 8.6-6.2 17.7-14l16.5-13.8.4-42.6c0-23.6-.2-43.4-.7-43.9-2-2.7-32-27.3-33.2-27.3-.9 0-4.6 4.7-8.3 10.6m613.8-5.3c-2.6 2.6-23.6 20.3-29.4 24.4-.3.3-.6 20.1-.8 43.8l-.2 43.3 16.9 14.2 16.8 14.2 4.4-5.3c2.4-2.7 7.6-10.9 11.8-18l7.4-13.2v-70.7l-7.2-12.7c-4.1-6.9-9.3-15.2-11.8-18.2l-4.7-5.6zM132.8 405c-3.7 3.1-11.1 9.3-16.7 13.9l-9.8 8.4 1.1 7.6c.5 4.2 3.7 19 7 33l6.3 25.3 19.5 19.4c10.8 10.6 22.4 21.6 25.8 24.2l6.4 4.8 20.4-7.8c11.3-4.2 20.9-8.1 21.3-8.4.5-.4-.9-12.7-2.7-27.3-1.9-14.9-3.9-32.6-4.6-39.5l-1-12.8-12-8.2c-6.6-4.8-20.5-15-31.2-23.3-10.7-8.1-20.2-14.7-21.2-14.7-1 .2-4.9 2.6-8.6 5.4m511.4 7.4c-7.7 6.3-21.6 16.6-30.5 23-9.1 6.5-16.8 12.3-17.3 13-.6 1-4.1 28.8-8.8 70.2-.9 8.3-.7 8.8 3.9 10.5 2.7 1 12.1 4.4 21 7.7l16.4 5.9 16.5-14.8c29.8-26.8 32-29.3 36.9-46.5 2.4-8.4 6.1-23.1 8.3-32.9 3.7-16.3 3.7-17.8 1.2-20.9-2.9-3.4-31.4-26.3-32.6-26.3-.5 0-7.2 5.1-15 11.1M266 427.3l-35.4 20.5.5 5.9c2 26 7.7 71.9 9.1 73.5 3.2 4.1 70.8 42.7 74.7 42.7 2.5 0 49.8-20.2 63.5-27.2l9.8-4.8-.4-41.8-.5-41.7-11.8-6.9c-40.3-23.8-71.3-41.1-72.6-41-.9.2-17.4 9.5-36.9 20.8m217.1-11.8c-8.1 4.7-27.2 15.8-42.2 24.4l-27.4 15.5V539l19 8.6c10.3 4.8 27 12 36.8 16.1l18 7.5 21.6-12.1c33.5-18.5 51.4-30 53.1-33.9 1.5-3.7 8.2-62.5 8.2-71.8-.1-5.7-.1-5.7-36.2-26.3l-36.1-20.4z"/><path d="M74.8 577.2C33.7 596.7 0 613.4 0 614.3c0 .8 32.5 39.9 72.3 87.1l72.3 85.7h510.8l72.3-85.7c39.8-47.2 72.3-86.3 72.3-87.1-.2-1.2-113.4-56.2-141.6-68.8l-7.1-3-8.6 7.2c-7.4 6.3-16.7 19.2-14.8 20.9.3.2 14.5 7.4 31.7 16s31.5 15.9 31.7 16c.3.4-23.5 27.5-52.6 60.6l-53.3 60H214.6l-53.3-60c-29.1-33.1-52.9-60.2-52.6-60.6.2-.1 15.2-7.7 33.1-16.6l32.3-16.2-3.2-6.4c-1.7-3.4-7.2-9.8-12.3-14l-9.1-7.9z"/><path d="M218.6 551.2c-3.7 1.7-12.3 4.8-18.9 6.9-6.7 2.2-12.1 4.8-12.1 5.6 0 3 7.8 18.7 14 28.5 4.9 7.4 8.9 11.1 21.7 19 8.6 5.3 22 13 29.7 17.1l13.8 7.2h21.3c15.8 0 21.2-.5 21.9-2.2.5-1.3-.7-10.9-2.7-21.4-1.9-10.4-3.4-19.7-3.4-20.4s-6.6-4.9-14.6-9.2c-8.3-4.4-24.8-14-37.1-21.3-12.2-7.2-23.3-13.1-24.5-13-1.2 0-5.2 1.6-9.1 3.2m341.2 5.1c-7.1 4.5-23.4 14-36.2 21.2-12.9 7.1-23.5 13.2-23.6 13.3-1.1.7-8.3 43.2-7.5 43.9.4.5 9.6.8 20.4.8h19.8l16-8.2c24.1-12.2 44.3-26 50.2-34.1 7.4-10.4 16-28.3 14.2-30-1.2-1-20.6-8.3-39.5-14.8-.5-.2-6.7 3.3-13.8 7.9m-177.3 12.8c-9.3 4.2-24.5 10.6-33.7 14.5-9.5 3.9-17.7 7.6-18.6 8.3-1.2 1 2.4 29.6 5.1 41.3.6 2.8 5 4.8 23.1 10.4 12.3 3.9 27.1 8.3 33.2 9.8l10.9 2.5 26.3-7.6c40.6-11.6 37.8-9.6 41-28.3 1.5-8.6 3-18.7 3.2-22.2.3-6.6.3-6.6-9.8-10.7-5.6-2.3-21.2-8.9-34.9-15-13.6-5.9-25.8-10.8-27-10.8-1.1 0-9.7 3.6-18.8 7.8"/></svg>