<svg xmlns="http://www.w3.org/2000/svg" width="400" height="400" viewBox="0 0 400 400">
    <path fill="currentColor" fill-rule="evenodd"
        d="M180.5.213c-2.974.073-3.643.167-3.643.51 0 .347-.619.42-3.571.42-2.191 0-3.572.11-3.572.286 0 .16-.802.285-1.836.285-1.252 0-1.974.137-2.266.429-.287.287-1.002.428-2.163.428-.966 0-1.735.127-1.735.286s-.762.286-1.714.286c-1.333 0-1.714.095-1.714.428s-.379.429-1.698.429c-.933 0-1.777.129-1.874.286s-.751.285-1.454.285c-.872 0-1.33.136-1.442.429-.116.3-.584.429-1.563.429-.769 0-1.398.128-1.398.285s-.441.286-.979.286c-.539 0-1.173.193-1.409.429-.235.235-.887.428-1.449.428-.561 0-1.02.129-1.02.286s-.454.286-1.009.286c-.633 0-1.07.159-1.173.428-.102.265-.536.429-1.134.429-.533 0-.97.128-.97.285 0 .158-.505.286-1.122.286s-1.315.193-1.551.429c-.236.235-.816.428-1.289.428-.474 0-.941.129-1.038.286s-.619.286-1.159.286c-.684 0-.984.13-.984.428 0 .31-.317.429-1.142.429-.629 0-1.143.128-1.143.286s-.322.285-.715.285c-.444 0-.714.162-.714.429 0 .299-.301.428-1 .428-.55 0-1 .129-1 .286s-.321.286-.714.286c-.445 0-.714.162-.714.428 0 .298-.3.429-.984.429-.54 0-1.062.129-1.159.286s-.43.285-.74.285-.638.193-.728.429c-.091.236-.465.429-.832.429s-.746.128-.843.285-.495.286-.883.286c-.389 0-.781.193-.871.429-.09.235-.472.428-.848.428s-.684.129-.684.286-.321.286-.714.286c-.445 0-.714.161-.714.428 0 .257-.264.429-.658.429-.894 0-2.195.634-2.197 1.071-.002.197-.326.357-.721.357-.794 0-1.871.519-2.224 1.072-.126.196-.48.357-.786.357s-.557.128-.557.286-.322.285-.715.285c-.444 0-.714.162-.714.429s-.27.428-.714.428c-.393 0-.714.129-.714.286s-.322.286-.715.286c-.444 0-.714.162-.714.428 0 .267-.27.429-.714.429-.393 0-.715.115-.715.255s-.321.335-.714.434-.714.305-.714.459-.193.281-.429.281c-.235 0-.428.128-.428.285s-.261.286-.581.286-.654.193-.745.429c-.09.235-.394.428-.675.428s-.814.319-1.184.709c-.37.391-.897.712-1.172.715-.275.002-.5.133-.5.29 0 .158-.262.286-.581.286s-.654.193-.745.429c-.09.235-.343.428-.562.428s-.398.129-.398.286-.239.286-.532.286c-.292 0-.772.321-1.067.714-.296.393-.827.714-1.183.714s-.647.163-.647.361c0 .199-.514.584-1.143.857-.628.272-1.142.6-1.142.728s-.45.41-1 .626-1 .561-1 .767c0 .207-.193.376-.429.376s-.429.128-.429.285-.239.286-.531.286-.767.314-1.055.697-.82.772-1.183.863c-.362.091-.659.291-.659.445s-.138.281-.306.281c-.396 0-1.123.727-1.123 1.122 0 .169-.274.306-.609.306s-1.016.418-1.514.929c-.896.919-1.618 1.462-2.448 1.843-.603.276-1.143.847-1.143 1.208a.307.307 0 0 1-.306.306c-.396 0-1.123.727-1.123 1.122 0 .169-.274.307-.609.307s-1.033.45-1.552 1-1.08 1-1.248 1a.306.306 0 0 0-.305.306c0 .458-.754 1.122-1.274 1.122a.72.72 0 0 0-.623.429c-.09.235-.288.428-.44.428-.37 0-1.091.742-1.091 1.123a.307.307 0 0 1-.307.306c-.395 0-1.122.727-1.122 1.122a.307.307 0 0 1-.306.306c-.396 0-1.123.727-1.123 1.123a.307.307 0 0 1-.306.306c-.395 0-1.122.727-1.122 1.122a.307.307 0 0 1-.306.307c-.396 0-1.123.726-1.123 1.122a.307.307 0 0 1-.306.306c-.395 0-1.122.727-1.122 1.123a.307.307 0 0 1-.306.306c-.396 0-1.123.727-1.123 1.122a.307.307 0 0 1-.306.306c-.396 0-1.122.727-1.122 1.123a.307.307 0 0 1-.307.306c-.395 0-1.122.727-1.122 1.122a.307.307 0 0 1-.306.306c-.396 0-1.123.727-1.123 1.123a.307.307 0 0 1-.306.306c-.395 0-1.122.727-1.122 1.122 0 .169-.193.307-.429.307-.235 0-.428.096-.429.214 0 .118-.321.588-.714 1.044s-.714.948-.714 1.092c0 .36-.748 1.078-1.122 1.078-.169 0-.306.121-.306.269s-.643.939-1.429 1.759c-.786.819-1.429 1.663-1.429 1.874s-.128.384-.285.384-.286.193-.286.428c0 .236-.138.429-.306.429-.459 0-1.123.754-1.123 1.274a.72.72 0 0 1-.428.623c-.236.09-.429.288-.429.438s-.45.699-1 1.218-1 1.217-1 1.552-.137.609-.306.609c-.395 0-1.122.727-1.122 1.123 0 .168-.126.306-.281.306-.154 0-.354.297-.445.659s-.48.895-.863 1.183S36 83.748 36 84.04s-.129.531-.286.531-.285.193-.285.429-.169.429-.376.429c-.206 0-.551.45-.767 1s-.529 1.001-.696 1.002c-.327.002-1.019 1.301-1.019 1.912 0 .204-.192.371-.428.371s-.429.244-.429.542-.319.844-.709 1.214-.712.898-.714 1.173-.134.5-.291.5-.286.193-.286.428a.43.43 0 0 1-.428.429c-.241 0-.429.255-.429.584 0 .321-.321.93-.714 1.354s-.714.932-.714 1.131-.129.36-.286.36-.286.307-.286.683-.193.758-.428.848c-.236.091-.429.426-.429.745 0 .32-.129.581-.286.581s-.285.193-.285.428c0 .236-.127.429-.281.429s-.361.321-.459.714-.294.714-.434.714-.255.322-.255.715c0 .444-.162.714-.429.714-.266 0-.428.27-.428.714 0 .393-.129.715-.286.715s-.286.321-.286.714c0 .444-.161.714-.428.714s-.429.27-.429.714c0 .393-.128.715-.285.715-.158 0-.286.321-.286.714 0 .444-.162.714-.429.714-.266 0-.428.27-.428.715 0 .392-.129.714-.286.714s-.286.321-.286.714c0 .445-.162.714-.428.714-.267 0-.429.27-.429.715 0 .393-.128.714-.286.714s-.285.321-.285.714c0 .445-.162.715-.429.715s-.428.269-.428.714c0 .393-.129.714-.286.714s-.286.308-.286.684-.193.758-.428.848c-.236.09-.429.482-.429.871 0 .388-.129.786-.286.883s-.285.49-.285.874c0 .429-.165.697-.429.697q-.429 0-.429.857c0 .472-.128.858-.285.858s-.286.45-.286 1c0 .698-.129 1-.429 1-.266 0-.428.269-.428.714 0 .393-.129.714-.286.714s-.286.436-.286.97c0 .598-.164 1.032-.428 1.133-.236.091-.429.49-.429.888s-.128.723-.285.723c-.158 0-.286.395-.286.878s-.193 1.07-.429 1.306c-.235.236-.428.733-.428 1.106 0 .372-.129.756-.286.853s-.286.606-.286 1.129c0 .584-.166 1.017-.428 1.117-.248.096-.429.523-.429 1.014 0 .467-.128.929-.286 1.026s-.285.603-.285 1.125c0 .521-.193 1.108-.429 1.304-.246.204-.428.827-.428 1.463 0 .609-.129 1.108-.286 1.108s-.286.643-.286 1.429c0 1.079-.105 1.428-.428 1.428-.298 0-.429.3-.429.983 0 .541-.129 1.063-.286 1.16s-.285.732-.285 1.41c0 .749-.169 1.374-.429 1.59-.284.235-.429.875-.429 1.892 0 .845-.128 1.537-.285 1.537S4 156.071 4 156.857c0 1.08-.105 1.429-.429 1.429-.332 0-.428.379-.428 1.697 0 .934-.129 1.777-.286 1.874s-.286 1.055-.286 2.129c0 1.472-.105 1.993-.428 2.117-.325.125-.429.652-.429 2.174 0 1.149-.122 2.009-.285 2.009-.171 0-.286 1.108-.286 2.754 0 2.293-.084 2.815-.5 3.12-.774.566-.774 46.906 0 47.761.4.442.5 1.078.5 3.173 0 1.556.116 2.62.286 2.62.163 0 .285.86.285 2.009 0 1.522.104 2.049.429 2.174.327.125.428.662.428 2.276 0 1.218.121 2.113.286 2.113.159 0 .286.762.286 1.714 0 1.333.095 1.714.428 1.714.329 0 .429.363.429 1.555 0 .855.129 1.634.286 1.731s.285.732.285 1.41c0 .749.169 1.374.429 1.59s.429.841.429 1.59c0 .678.128 1.313.285 1.41s.286.605.286 1.129c0 .583.166 1.016.429 1.117.293.113.428.572.428 1.459 0 .712.129 1.295.286 1.295s.286.505.286 1.122.192 1.316.428 1.551c.236.236.429.888.429 1.449 0 .562.128 1.021.285 1.021.158 0 .286.39.286.866 0 .506.178.934.429 1.031.262.1.428.533.428 1.117 0 .523.129 1.032.286 1.129s.286.558.286 1.026c0 .491.18.918.428 1.013.263.101.429.534.429 1.117 0 .524.128 1.032.286 1.129.157.098.285.431.285.741 0 .309.193.637.429.728.264.101.428.535.428 1.133 0 .534.129.97.286.97s.286.321.286.714c0 .445.162.714.428.714.298 0 .429.3.429.984 0 .54.129 1.062.286 1.159s.285.491.285.874c0 .43.165.698.429.698.267 0 .429.27.429.714 0 .393.128.714.285.714s.286.313.286.694c0 .382.193.887.429 1.123.235.235.428.695.428 1.02s.129.592.286.592.286.321.286.714c0 .445.161.714.428.714s.429.27.429.715c0 .393.128.714.285.714.158 0 .286.321.286.714 0 .445.162.715.429.715.266 0 .428.269.428.714 0 .393.129.714.286.714s.286.322.286.714c0 .445.162.715.428.715.267 0 .429.27.429.714 0 .393.128.714.286.714s.285.322.285.715c0 .444.162.714.429.714s.428.27.428.714c0 .393.129.714.286.714s.286.322.286.715c0 .444.162.714.428.714.267 0 .429.27.429.714 0 .393.115.715.255.715s.335.321.434.714.305.714.459.714.281.193.281.429c0 .235.128.428.285.428s.286.261.286.581.193.654.429.745c.235.09.428.472.428.848s.129.683.286.683.286.162.286.36c0 .199.321.707.714 1.131s.714 1.033.714 1.354c0 .329.188.584.429.584a.43.43 0 0 1 .428.429c0 .235.129.428.286.428s.288.225.291.5c.002.275.324.803.714 1.173s.709.916.709 1.214.193.542.429.542c.267 0 .428.27.428.714 0 .393.129.714.286.714s.286.193.286.429.169.428.375.428.552.45.768 1 .561 1 .767 1c.207 0 .376.193.376.429s.128.429.285.429.286.239.286.531.314.767.697 1.055.772.82.863 1.183c.091.362.291.659.445.659s.281.138.281.306c0 .396.727 1.123 1.122 1.123.169 0 .306.274.306.609s.434 1.018.964 1.518 1.053 1.19 1.162 1.534c.109.343.318.624.465.624s.266.138.266.307c0 .395.727 1.122 1.123 1.122.168 0 .306.193.306.429 0 .235.129.428.286.428s.285.212.285.471c0 .26.643 1.088 1.429 1.842.786.753 1.429 1.505 1.429 1.671s.178.302.396.302c.217 0 .609.45.87 1s.597 1 .747 1 .272.138.272.306c0 .396.727 1.122 1.123 1.122.168 0 .306.138.306.307 0 .395.727 1.122 1.122 1.122.169 0 .306.138.306.306 0 .396.727 1.123 1.123 1.123.168 0 .306.137.306.306 0 .395.727 1.122 1.122 1.122.169 0 .307.138.307.306 0 .396.726 1.123 1.122 1.123.168 0 .306.137.306.306 0 .395.727 1.122 1.123 1.122.168 0 .306.138.306.306 0 .396.727 1.123 1.122 1.123.169 0 .306.138.306.306 0 .396.727 1.122 1.123 1.122.168 0 .306.138.306.307 0 .395.727 1.122 1.122 1.122.169 0 .306.138.306.306 0 .396.727 1.123 1.123 1.123.168 0 .306.137.306.306 0 .395.727 1.122 1.122 1.122.169 0 .307.138.307.306 0 .396.726 1.123 1.122 1.123.168 0 .306.12.306.266s.283.357.63.466c.735.234 1.37.812 1.37 1.247 0 .169.137.306.305.306s.729.45 1.248 1 1.217 1 1.552 1 .609.138.609.307c0 .395.727 1.122 1.123 1.122.168 0 .306.178.306.396s.45.61 1 .871 1 .597 1 .746.137.273.305.273.729.45 1.248 1 1.217 1 1.552 1 .609.137.609.306c0 .395.727 1.122 1.123 1.122.168 0 .306.126.306.281 0 .154.297.354.659.445s.895.48 1.183.863.763.697 1.055.697.531.129.531.286.193.285.429.285.429.162.429.359c0 .198.395.534.878.748s1.209.695 1.613 1.07c.404.374.973.681 1.265.681s.529.192.529.428c0 .255.263.429.647.429.356 0 .887.321 1.183.714.295.393.775.714 1.067.714.293 0 .532.129.532.286s.179.286.398.286.472.193.562.428c.091.236.426.429.745.429s.581.128.581.286.137.285.304.285c.168 0 .727.322 1.242.715s1.135.714 1.379.714c.243 0 .516.193.606.428.091.236.426.429.745.429.32 0 .581.129.581.286s.193.285.428.285c.236 0 .429.127.429.281s.321.361.714.459.714.294.714.434.322.255.715.255c.444 0 .714.162.714.429 0 .266.27.428.714.428.393 0 .715.129.715.286s.321.286.714.286c.444 0 .714.161.714.428s.27.429.714.429c.393 0 .715.098.715.218 0 .218.846.734 1.785 1.088.275.104.5.303.5.441 0 .139.45.253 1 .253.609 0 1.001.14 1.003.357.002.437 1.303 1.071 2.197 1.071.394 0 .658.172.658.429 0 .267.269.428.714.428.393 0 .714.129.714.286s.308.286.684.286.758.193.848.428c.09.236.418.429.728.429s.643.129.74.286.541.285.986.285c.457 0 .882.188.975.429.09.236.418.429.728.429s.643.128.74.285.619.286 1.159.286c.684 0 .984.131.984.429 0 .266.269.428.714.428.393 0 .714.129.714.286s.45.286 1 .286c.699 0 1 .129 1 .428 0 .264.268.429.698.429.383 0 .776.128.874.285.097.158.605.286 1.129.286.583 0 1.016.166 1.117.429.095.248.522.428 1.013.428.468 0 .929.129 1.026.286s.564.286 1.038.286c.473 0 1.053.193 1.289.428.236.236.933.429 1.551.429s1.122.128 1.122.286.437.285.97.285c.598 0 1.032.164 1.134.429.103.269.54.428 1.173.428.555 0 1.009.129 1.009.286s.459.286 1.02.286c.562 0 1.214.193 1.449.428.236.236.87.429 1.409.429.538 0 .979.129.979.286s.629.285 1.398.285c.979 0 1.447.129 1.563.429.116.302.587.429 1.602.429.79 0 1.437.128 1.437.285 0 .159.762.286 1.714.286 1.334 0 1.715.095 1.715.429s.381.428 1.714.428c.952 0 1.714.127 1.714.286s.769.286 1.735.286c1.161 0 1.876.141 2.163.428.292.292 1.014.429 2.266.429 1.034 0 1.836.125 1.836.285 0 .176 1.381.286 3.572.286 2.797 0 3.571.083 3.571.384 0 .523 7.164.757 23.143.757s23.143-.234 23.143-.757c0-.301.774-.384 3.571-.384 2.191 0 3.572-.11 3.572-.286 0-.16.798-.285 1.822-.285 1.271 0 1.93-.13 2.178-.429s.906-.428 2.178-.428c1.024 0 1.822-.126 1.822-.286s.762-.286 1.714-.286c1.333 0 1.714-.095 1.714-.428 0-.334.381-.429 1.715-.429.952 0 1.714-.127 1.714-.286 0-.157.647-.285 1.437-.285 1.015 0 1.486-.127 1.602-.429.116-.3.584-.429 1.563-.429.769 0 1.398-.128 1.398-.285s.441-.286.979-.286c.539 0 1.173-.193 1.409-.429.235-.235.887-.428 1.449-.428.561 0 1.02-.129 1.02-.286s.454-.286 1.009-.286c.633 0 1.07-.159 1.173-.428.102-.265.536-.429 1.134-.429.533 0 .97-.128.97-.285 0-.158.505-.286 1.122-.286s1.315-.193 1.551-.429c.236-.235.816-.428 1.289-.428.474 0 .941-.129 1.038-.286s.558-.286 1.026-.286c.491 0 .918-.18 1.013-.428.101-.263.534-.429 1.117-.429.524 0 1.032-.128 1.129-.286.098-.157.491-.285.874-.285.43 0 .698-.165.698-.429 0-.299.301-.428 1-.428.55 0 1-.129 1-.286s.321-.286.714-.286c.445 0 .714-.162.714-.428 0-.298.3-.429.984-.429.54 0 1.062-.129 1.159-.286s.43-.285.74-.285.638-.193.728-.429c.091-.236.465-.429.832-.429s.746-.128.843-.285.495-.286.883-.286c.389 0 .781-.193.871-.429.09-.235.472-.428.848-.428s.684-.129.684-.286.321-.286.714-.286c.445 0 .714-.161.714-.428 0-.264.268-.429.698-.429.383 0 .777-.128.874-.285.097-.158.426-.286.731-.286s.555-.193.555-.429c0-.264.268-.428.697-.428.384 0 .777-.129.874-.286s.426-.286.731-.286.555-.193.555-.428c0-.267.27-.429.714-.429.393 0 .714-.128.714-.286s.322-.285.715-.285c.444 0 .714-.162.714-.429s.27-.428.714-.428c.393 0 .714-.129.714-.286s.322-.286.715-.286c.444 0 .714-.162.714-.428 0-.267.27-.429.714-.429.393 0 .715-.114.715-.252 0-.139.225-.338.5-.441.939-.355 1.785-.871 1.785-1.089 0-.12.261-.218.581-.218s.654-.193.745-.429a.75.75 0 0 1 .633-.437c.593-.012 1.47-.665 1.47-1.094 0-.179.321-.326.714-.326s.714-.114.714-.254.322-.336.715-.434c.393-.099.714-.306.714-.46s.193-.28.429-.28c.235 0 .428-.129.428-.286s.239-.286.532-.286c.292 0 .772-.321 1.067-.714.296-.393.827-.714 1.183-.714.384 0 .647-.174.647-.429a.43.43 0 0 1 .428-.428c.236 0 .429-.129.429-.286s.239-.286.531-.286.773-.321 1.068-.714c.296-.394.827-.714 1.183-.714.384 0 .646-.174.646-.429a.43.43 0 0 1 .429-.429c.236 0 .429-.128.429-.285s.162-.286.36-.286.687-.289 1.086-.643c.785-.694 1.587-1.245 2.268-1.557.603-.277 1.143-.847 1.143-1.208 0-.169.246-.306.547-.306.3 0 1.01-.45 1.576-1s1.156-1 1.31-1 .281-.193.281-.429.225-.433.5-.438c.618-.011 1.5-.654 1.5-1.093 0-.179.138-.326.306-.326.396 0 1.123-.727 1.123-1.122 0-.169.274-.307.609-.307s1.033-.45 1.552-1 1.08-1 1.248-1a.306.306 0 0 0 .305-.306c0-.374.718-1.122 1.078-1.122.144 0 .635-.321 1.092-.714.456-.393.926-.714 1.044-.714.118-.001.214-.194.214-.429 0-.236.138-.429.307-.429.395 0 1.122-.727 1.122-1.122 0-.169.138-.306.306-.306.396 0 1.123-.727 1.123-1.123 0-.168.137-.306.306-.306.395 0 1.122-.727 1.122-1.122 0-.169.138-.307.306-.307.396 0 1.123-.726 1.123-1.122 0-.168.137-.306.306-.306.395 0 1.122-.727 1.122-1.123 0-.168.138-.306.306-.306.396 0 1.123-.727 1.123-1.122 0-.169.138-.306.306-.306.396 0 1.122-.727 1.122-1.123 0-.168.138-.306.307-.306.395 0 1.122-.727 1.122-1.122 0-.169.138-.306.306-.306.396 0 1.123-.727 1.123-1.123 0-.168.137-.306.306-.306.395 0 1.122-.727 1.122-1.122 0-.169.161-.308.357-.31.309-.003 1.556-1.589 1.903-2.42.191-.456.818-1.005 1.148-1.005a.306.306 0 0 0 .306-.305c0-.168.45-.729 1-1.248s1-1.034 1-1.144c0-.111.161-.38.358-.599.847-.946 1.071-1.269 1.071-1.549 0-.164.147-.298.326-.298.439 0 1.082-.882 1.093-1.5.005-.275.202-.5.438-.5s.429-.126.429-.281c0-.154.45-.743 1-1.31.55-.566 1-1.276 1-1.576s.137-.547.306-.547c.448 0 1.356-1.099 1.89-2.286.106-.236.491-.69.855-1.009.365-.319.663-.802.663-1.072s.129-.49.286-.49.285-.193.285-.429a.43.43 0 0 1 .429-.429c.237 0 .429-.253.429-.566 0-.311.45-1.029 1-1.596.55-.566 1-1.276 1-1.576s.192-.547.428-.547c.255 0 .429-.263.429-.647 0-.356.321-.887.714-1.183.393-.295.714-.775.714-1.067 0-.293.129-.532.286-.532s.286-.179.286-.398.193-.472.428-.562c.236-.091.429-.426.429-.745s.128-.581.286-.581.285-.137.285-.306.161-.485.357-.704c.908-1.012 1.072-1.288 1.072-1.804 0-.304.193-.627.428-.717.236-.091.429-.426.429-.745 0-.32.098-.581.218-.581.218 0 .734-.846 1.089-1.785.103-.275.302-.5.441-.5.138 0 .252-.322.252-.715 0-.444.162-.714.429-.714.266 0 .428-.27.428-.714 0-.393.129-.715.286-.715s.286-.321.286-.714c0-.444.161-.714.428-.714s.429-.27.429-.714c0-.393.128-.715.285-.715.158 0 .286-.321.286-.714 0-.444.162-.714.429-.714.266 0 .428-.27.428-.715 0-.392.129-.714.286-.714s.286-.321.286-.714c0-.445.162-.714.428-.714.267 0 .429-.27.429-.715 0-.393.128-.714.286-.714s.285-.321.285-.714c0-.445.162-.715.429-.715s.428-.269.428-.714c0-.393.129-.714.286-.714s.286-.266.286-.592.193-.785.428-1.02c.236-.236.429-.741.429-1.123 0-.381.129-.694.286-.694s.285-.307.285-.683.193-.758.429-.849.429-.49.429-.887c0-.398.128-.724.285-.724s.286-.45.286-1c0-.698.129-1 .429-1 .283 0 .428-.283.428-.84 0-.462.129-.92.286-1.017s.286-.476.286-.843.192-.741.428-.831c.248-.096.429-.523.429-1.014 0-.467.128-.929.285-1.026.158-.097.286-.559.286-1.026 0-.491.181-.918.429-1.014.241-.092.428-.518.428-.974 0-.445.129-.889.286-.986s.286-.539.286-.982.193-.965.428-1.161c.236-.195.429-.726.429-1.178s.128-.822.286-.822.285-.565.285-1.255c0-.852.138-1.308.429-1.42.269-.103.428-.54.428-1.173 0-.555.129-1.009.286-1.009s.286-.643.286-1.429c0-1.079.105-1.428.428-1.428.309 0 .429-.316.429-1.126 0-.619.129-1.206.286-1.303s.285-.732.285-1.41c0-.748.169-1.374.429-1.59.274-.227.429-.859.429-1.749 0-.766.128-1.394.285-1.394s.286-.629.286-1.398c0-.979.128-1.447.429-1.562.315-.121.428-.62.428-1.888 0-.958.127-1.723.286-1.723.163 0 .286-.845.286-1.965 0-1.398.123-2.068.428-2.321s.429-.922.429-2.32c0-1.12.123-1.965.285-1.965.17 0 .286-1.064.286-2.621 0-2.025.106-2.737.468-3.137.966-1.068.898-46.264-.072-47.234-.282-.283-.396-1.181-.396-3.131 0-1.633-.115-2.735-.286-2.735-.165 0-.285-.907-.285-2.151 0-1.65-.1-2.191-.429-2.317-.318-.122-.428-.629-.428-1.974 0-.995-.129-1.889-.286-1.986s-.286-.945-.286-1.883c0-1.253-.114-1.75-.428-1.871-.301-.115-.429-.583-.429-1.562 0-.769-.129-1.398-.286-1.398s-.285-.628-.285-1.394c0-.89-.155-1.522-.429-1.749s-.429-.859-.429-1.75c0-.766-.128-1.393-.285-1.393S394 148.629 394 148c0-.825-.119-1.143-.429-1.143-.323 0-.428-.349-.428-1.428 0-.786-.129-1.429-.286-1.429s-.286-.501-.286-1.112c0-.725-.149-1.17-.428-1.277-.282-.108-.429-.554-.429-1.299 0-.625-.128-1.215-.285-1.312-.158-.097-.286-.481-.286-.854 0-.372-.193-.869-.429-1.105-.235-.236-.428-.824-.428-1.306s-.129-.878-.286-.878-.286-.376-.286-.837-.193-1.029-.428-1.265c-.236-.236-.429-.751-.429-1.146s-.128-.798-.286-.895-.285-.494-.285-.883c0-.388-.193-.78-.429-.871-.241-.092-.428-.518-.428-.974 0-.445-.129-.889-.286-.986s-.286-.49-.286-.874c0-.429-.165-.697-.428-.697-.3 0-.429-.302-.429-1 0-.55-.129-1-.286-1s-.285-.326-.285-.724-.193-.797-.429-.887c-.236-.091-.429-.473-.429-.849s-.128-.683-.285-.683-.286-.313-.286-.694c0-.382-.193-.887-.429-1.123-.235-.235-.428-.695-.428-1.02s-.129-.592-.286-.592-.286-.321-.286-.714c0-.445-.161-.714-.428-.714s-.429-.27-.429-.715c0-.393-.128-.714-.285-.714-.158 0-.286-.321-.286-.714 0-.445-.162-.715-.429-.715-.266 0-.428-.269-.428-.714 0-.393-.129-.714-.286-.714s-.286-.322-.286-.714c0-.445-.162-.715-.428-.715-.267 0-.429-.27-.429-.714 0-.393-.128-.714-.286-.714s-.285-.322-.285-.715c0-.444-.162-.714-.429-.714s-.428-.27-.428-.714c0-.393-.129-.714-.286-.714s-.286-.322-.286-.715c0-.444-.162-.714-.428-.714-.267 0-.429-.27-.429-.714 0-.393-.129-.715-.286-.715s-.285-.179-.285-.398c0-.218-.193-.472-.429-.562s-.429-.426-.429-.745-.128-.58-.285-.58-.286-.261-.286-.581-.193-.654-.429-.745c-.235-.09-.428-.394-.428-.675s-.319-.814-.709-1.184c-.391-.37-.712-.897-.715-1.172-.002-.275-.133-.5-.29-.5-.158 0-.286-.262-.286-.581s-.193-.654-.429-.745c-.235-.09-.428-.343-.428-.562s-.129-.398-.286-.398-.286-.239-.286-.532c0-.292-.321-.772-.714-1.067-.393-.296-.714-.827-.714-1.183 0-.384-.174-.647-.429-.647a.43.43 0 0 1-.428-.428c0-.236-.129-.429-.286-.429s-.286-.239-.286-.531-.321-.773-.714-1.068c-.394-.296-.714-.827-.714-1.183 0-.384-.174-.646-.429-.646a.43.43 0 0 1-.429-.429c0-.236-.128-.429-.285-.429s-.286-.162-.286-.36-.321-.706-.714-1.13-.715-.891-.715-1.038-.192-.342-.428-.432a.72.72 0 0 1-.429-.622c0-.521-.664-1.275-1.122-1.275-.169 0-.306-.246-.306-.547 0-.3-.45-1.01-1-1.576s-1-1.156-1-1.31-.193-.281-.429-.281-.433-.225-.438-.5c-.011-.618-.654-1.5-1.093-1.5-.179 0-.326-.138-.326-.306s-.161-.485-.357-.704c-.79-.881-1.072-1.261-1.072-1.444 0-.106-.45-.617-1-1.136s-1-1.08-1-1.248a.306.306 0 0 0-.306-.305c-.33 0-.957-.549-1.148-1.005-.347-.831-1.594-2.417-1.903-2.42-.196-.002-.357-.141-.357-.31 0-.395-.727-1.122-1.122-1.122a.307.307 0 0 1-.306-.306c0-.396-.727-1.123-1.123-1.123a.307.307 0 0 1-.306-.306c0-.395-.727-1.122-1.122-1.122a.307.307 0 0 1-.307-.306c0-.396-.726-1.123-1.122-1.123a.307.307 0 0 1-.306-.306c0-.395-.727-1.122-1.123-1.122a.307.307 0 0 1-.306-.306c0-.396-.727-1.123-1.122-1.123a.307.307 0 0 1-.306-.306c0-.396-.727-1.122-1.123-1.122a.307.307 0 0 1-.306-.307c0-.395-.727-1.122-1.122-1.122a.307.307 0 0 1-.306-.306c0-.396-.727-1.123-1.123-1.123a.307.307 0 0 1-.306-.306c0-.395-.727-1.122-1.122-1.122-.169 0-.308-.161-.31-.357-.003-.309-1.589-1.556-2.42-1.903-.456-.191-1.005-.818-1.005-1.148a.306.306 0 0 0-.305-.306c-.168 0-.729-.45-1.248-1s-1.217-1-1.552-1-.609-.138-.609-.307c0-.395-.727-1.122-1.123-1.122-.168 0-.306-.147-.306-.326 0-.439-.882-1.082-1.5-1.093-.275-.005-.5-.202-.5-.438s-.126-.429-.281-.429c-.154 0-.743-.45-1.31-1-.566-.55-1.276-1-1.576-1s-.547-.137-.547-.306c0-.446-1.074-1.336-2.286-1.895-.236-.109-.749-.494-1.14-.855-.391-.362-.873-.658-1.071-.658s-.36-.129-.36-.286-.193-.285-.429-.285a.43.43 0 0 1-.429-.429c0-.255-.262-.429-.646-.429-.356 0-.887-.32-1.183-.714-.295-.393-.775-.714-1.068-.714-.292 0-.531-.129-.531-.286s-.193-.286-.429-.286a.43.43 0 0 1-.428-.428c0-.255-.263-.429-.647-.429-.356 0-.887-.321-1.183-.714-.295-.393-.775-.714-1.067-.714-.293 0-.532-.129-.532-.286s-.193-.286-.428-.286c-.236 0-.429-.126-.429-.28s-.321-.361-.714-.46c-.393-.098-.715-.293-.715-.434 0-.14-.225-.257-.5-.259s-.802-.324-1.172-.715-.903-.709-1.184-.709-.585-.193-.675-.428c-.091-.236-.426-.429-.745-.429-.32 0-.581-.098-.581-.218 0-.218-.846-.734-1.785-1.089-.275-.103-.5-.302-.5-.441 0-.138-.322-.252-.715-.252-.444 0-.714-.162-.714-.429 0-.266-.27-.428-.714-.428-.393 0-.715-.129-.715-.286s-.321-.286-.714-.286c-.444 0-.714-.161-.714-.428s-.27-.429-.714-.429c-.393 0-.715-.128-.715-.285 0-.158-.25-.286-.557-.286-.306 0-.66-.161-.786-.357-.353-.553-1.43-1.072-2.224-1.072-.448 0-.718-.161-.718-.428 0-.236-.25-.429-.555-.429s-.634-.128-.731-.286-.491-.285-.874-.285c-.43 0-.698-.165-.698-.429 0-.267-.269-.428-.714-.428-.393 0-.714-.129-.714-.286s-.308-.286-.684-.286-.758-.193-.848-.428c-.09-.236-.482-.429-.871-.429-.388 0-.786-.129-.883-.286s-.477-.285-.843-.285c-.367 0-.741-.193-.832-.429s-.418-.429-.728-.429-.643-.128-.74-.285-.619-.286-1.159-.286c-.684 0-.984-.131-.984-.429 0-.266-.269-.428-.714-.428-.393 0-.714-.129-.714-.286s-.45-.286-1-.286c-.699 0-1-.129-1-.428 0-.264-.268-.429-.698-.429-.383 0-.776-.128-.874-.285-.097-.158-.605-.286-1.129-.286-.583 0-1.016-.166-1.117-.429-.095-.248-.522-.428-1.013-.428-.468 0-.929-.129-1.026-.286s-.564-.286-1.038-.286c-.473 0-1.053-.193-1.289-.428-.236-.236-.933-.429-1.551-.429s-1.122-.128-1.122-.286-.437-.285-.97-.285c-.598 0-1.032-.164-1.134-.429-.103-.269-.54-.428-1.173-.428-.555 0-1.009-.129-1.009-.286s-.459-.286-1.02-.286c-.562 0-1.214-.193-1.449-.428-.236-.236-.87-.429-1.409-.429-.538 0-.979-.129-.979-.286s-.629-.285-1.398-.285c-.979 0-1.447-.129-1.563-.429-.116-.302-.587-.429-1.602-.429-.79 0-1.437-.128-1.437-.285 0-.159-.762-.286-1.714-.286-1.334 0-1.715-.095-1.715-.429s-.381-.428-1.714-.428c-.952 0-1.714-.127-1.714-.286s-.769-.286-1.735-.286c-1.161 0-1.876-.141-2.163-.428-.292-.292-1.014-.429-2.266-.429-1.034 0-1.836-.125-1.836-.285 0-.176-1.381-.286-3.572-.286-2.797 0-3.571-.083-3.571-.384 0-.663-24.856-.982-42.643-.546m20.746 11.93c.141.366 1.269.428 7.728.428 4.734 0 7.63.107 7.74.286.098.158 1.418.29 2.946.295 1.98.006 2.926.128 3.323.429.384.29 1.284.419 2.929.419 1.392 0 2.374.118 2.374.286 0 .165.904.285 2.143.285 1.714 0 2.142.086 2.142.429 0 .34.411.429 1.984.429 1.09 0 2.062.128 2.159.285s.798.286 1.558.286c.964 0 1.431.129 1.546.429.112.292.57.428 1.442.428.703 0 1.357.129 1.454.286s.863.286 1.701.286c1.091 0 1.571.121 1.688.428.103.267.539.429 1.157.429.546 0 1.071.128 1.169.285.097.158.747.286 1.445.286.937 0 1.269.112 1.269.429 0 .316.331.428 1.269.428.698 0 1.348.129 1.445.286s.605.286 1.129.286c.583 0 1.017.166 1.117.428.104.269.54.429 1.174.429.555 0 1.009.128 1.009.286s.436.285.969.285c.598 0 1.033.164 1.134.429.103.269.54.428 1.173.428.555 0 1.009.129 1.009.286s.306.286.68.286c.373 0 .839.193 1.035.428.195.236.661.429 1.035.429s.679.129.679.286.454.285 1.009.285c.633 0 1.07.16 1.173.429.091.236.473.429.849.429s.683.128.683.285.45.286 1 .286c.699 0 1 .129 1 .429 0 .266.27.428.715.428.392 0 .714.129.714.286s.308.286.684.286.757.192.848.428.482.429.871.429c.388 0 .785.128.883.285.097.158.554.286 1.016.286.557 0 .841.145.841.429 0 .266.27.428.714.428.393 0 .714.129.714.286s.322.286.715.286c.444 0 .714.162.714.428 0 .267.27.429.714.429.393 0 .714.128.714.286s.322.285.715.285c.444 0 .714.162.714.429s.27.428.714.428c.393 0 .715.129.715.286s.321.286.714.286c.444 0 .714.162.714.428 0 .267.27.429.714.429.393 0 .715.129.715.286s.321.285.714.285c.444 0 .714.162.714.429 0 .241.256.429.584.429.321 0 .931.321 1.354.714s.933.714 1.131.714.36.129.36.286.321.286.714.286.715.16.717.357c.002.369 1.256 1.071 1.912 1.071.204 0 .371.193.371.429 0 .241.255.428.584.428.321 0 .931.322 1.354.715s.933.714 1.131.714.36.113.36.252.225.338.5.441c.939.355 1.785.871 1.785 1.089 0 .12.322.218.715.218s.714.146.714.326c0 .439.882 1.082 1.5 1.093.275.005.5.202.5.438a.43.43 0 0 0 .429.429c.235 0 .428.128.428.285s.134.286.298.286c.28 0 .603.224 1.549 1.071.219.197.536.358.704.358.169 0 .306.192.306.428s.225.433.5.438c.618.011 1.5.655 1.5 1.094 0 .179.193.325.429.325s.428.129.428.286.24.286.532.286.773.321 1.068.714.698.714.897.714c.198 0 .361.193.361.429s.192.428.428.428.429.129.429.286.257.286.571.286c.318 0 .572.19.572.428 0 .236.126.429.28.429s.744.45 1.31 1 1.276 1 1.577 1 .547.138.547.306c0 .396.727 1.123 1.122 1.123.169 0 .306.137.306.306 0 .329.702 1.122.994 1.122.097 0 .474.322.839.714.364.393.872.715 1.129.715s.467.193.467.428c0 .236.138.429.306.429.396 0 1.123.727 1.123 1.122 0 .169.137.306.306.306.395 0 1.122.727 1.122 1.123 0 .168.138.306.306.306.396 0 1.123.727 1.123 1.122 0 .169.128.307.285.307.372 0 2.572 2.199 2.572 2.571 0 .157.138.286.306.286.396 0 1.122.727 1.122 1.122 0 .169.138.306.307.306.395 0 1.122.727 1.122 1.123 0 .168.138.306.306.306.396 0 1.123.727 1.123 1.122 0 .169.137.306.306.306.33 0 .957.55 1.148 1.006.347.831 1.594 2.416 1.903 2.419.196.002.357.142.357.31 0 .396.727 1.123 1.122 1.123.169 0 .306.137.306.306 0 .395.727 1.122 1.123 1.122.168 0 .306.246.306.547s.45 1.01 1 1.577c.55.566 1 1.156 1 1.31s.169.28.375.28c.207 0 .552.45.768 1s.561 1 .767 1c.207 0 .376.138.376.307 0 .395.727 1.122 1.122 1.122.169 0 .306.274.306.609s.45 1.034 1 1.552c.55.519 1 1.209 1 1.534 0 .335.186.591.429.591a.43.43 0 0 1 .428.428c0 .236.129.429.286.429s.286.221.286.491.298.752.662 1.071.75.774.856 1.009c.329.731 1.141 1.926 1.839 2.704.196.219.357.536.357.704 0 .169.114.307.253.307.138 0 .337.225.441.5.354.939.87 1.785 1.088 1.785.12 0 .218.162.218.36s.322.707.714 1.131c.393.423.715.973.715 1.22 0 .248.193.524.428.615.236.09.429.317.429.505 0 .631.711 1.879 1.071 1.881.197.002.357.324.357.717s.129.714.286.714.286.261.286.581.171.646.38.726.554.59.767 1.134c.214.543.557.988.763.988.21 0 .376.315.376.714 0 .393.128.714.285.714s.286.322.286.715c0 .444.162.714.429.714.266 0 .428.27.428.714 0 .393.129.714.286.714s.286.322.286.715c0 .444.161.714.428.714s.429.27.429.714c0 .393.128.715.285.715.158 0 .286.321.286.714 0 .444.162.714.429.714.266 0 .428.27.428.714 0 .393.129.715.286.715s.286.321.286.714c0 .444.162.714.428.714.3 0 .429.302.429 1 0 .55.128 1 .286 1s.285.308.285.684.193.758.429.848c.236.091.428.49.428.888s.129.723.286.723.286.308.286.684.193.758.428.848c.251.096.429.524.429 1.031 0 .476.129.866.286.866s.285.312.285.694.193.886.429 1.122.429.759.429 1.163.128.735.285.735.286.312.286.694.193.887.429 1.122c.235.236.428.688.428 1.004s.129.654.286.751c.157.098.286.606.286 1.13 0 .583.166 1.016.428 1.117.248.095.429.522.429 1.013 0 .467.128.929.285 1.026.158.097.286.605.286 1.129 0 .583.166 1.017.429 1.117.281.108.428.554.428 1.3 0 .624.129 1.214.286 1.311s.286.619.286 1.16c0 .683.13.983.428.983.324 0 .429.349.429 1.429 0 .785.128 1.428.286 1.428s.285.499.285 1.108c0 .636.183 1.259.429 1.464.274.227.428.859.428 1.749 0 .766.129 1.394.286 1.394s.286.642.286 1.428c0 1.08.105 1.429.428 1.429.333 0 .429.379.429 1.697 0 .934.129 1.777.286 1.874s.285.931.285 1.854c0 1.109.145 1.822.429 2.105.287.287.429 1.003.429 2.164 0 .966.126 1.734.285 1.734.171 0 .286 1.099.286 2.724 0 2.157.089 2.757.429 2.887.349.134.428.822.428 3.706 0 2.17.111 3.54.286 3.54.183 0 .286 2.588.286 7.192 0 6.291.059 7.257.472 7.715.44.486.44.558 0 1.044-.413.458-.472 1.424-.472 7.715 0 4.604-.103 7.192-.286 7.192-.175 0-.286 1.37-.286 3.54 0 2.884-.079 3.572-.428 3.706-.34.13-.429.73-.429 2.887 0 1.625-.115 2.724-.286 2.724-.159 0-.285.768-.285 1.734 0 1.161-.142 1.877-.429 2.164-.284.283-.429.996-.429 2.105 0 .923-.128 1.757-.285 1.854s-.286.94-.286 1.874c0 1.318-.096 1.697-.429 1.697-.323 0-.428.349-.428 1.429 0 .786-.129 1.428-.286 1.428s-.286.628-.286 1.394c0 .89-.154 1.522-.428 1.749-.246.205-.429.828-.429 1.464 0 .609-.128 1.108-.285 1.108-.158 0-.286.643-.286 1.428 0 1.08-.105 1.429-.429 1.429-.298 0-.428.3-.428.983 0 .541-.129 1.063-.286 1.16s-.286.747-.286 1.445c0 .938-.112 1.269-.428 1.269-.298 0-.429.3-.429.983 0 .541-.128 1.063-.286 1.16s-.285.559-.285 1.026c0 .491-.181.918-.429 1.013-.262.101-.428.534-.428 1.117 0 .524-.129 1.032-.286 1.13s-.286.619-.286 1.159c0 .684-.131.983-.428.983-.267 0-.429.27-.429.715 0 .393-.129.714-.286.714s-.285.454-.285 1.009c0 .633-.16 1.07-.429 1.173-.236.091-.429.473-.429.849s-.128.683-.285.683-.286.39-.286.866c0 .507-.178.935-.429 1.031-.235.09-.428.472-.428.848s-.129.684-.286.684-.286.306-.286.679-.192.84-.428 1.035c-.236.196-.429.597-.429.892s-.128.537-.285.537c-.158 0-.286.45-.286 1 0 .698-.129 1-.429 1-.266 0-.428.27-.428.714 0 .393-.129.714-.286.714s-.286.322-.286.715c0 .444-.162.714-.428.714-.267 0-.429.27-.429.714 0 .393-.128.714-.286.714s-.285.322-.285.715c0 .444-.162.714-.429.714s-.428.27-.428.714c0 .393-.129.715-.286.715s-.286.321-.286.714c0 .444-.162.714-.428.714-.267 0-.429.27-.429.714 0 .393-.129.715-.286.715s-.285.321-.285.714c0 .399-.166.714-.376.714-.206 0-.549.445-.763.988-.213.544-.558 1.054-.767 1.134s-.38.407-.38.726c0 .32-.129.581-.286.581s-.286.321-.286.714c0 .445-.161.714-.428.714s-.429.27-.429.715c0 .393-.128.714-.285.714-.158 0-.286.179-.286.398s-.193.472-.429.562a.72.72 0 0 0-.428.615c0 .247-.322.797-.715 1.22-.392.424-.714.933-.714 1.131s-.113.36-.252.36-.338.225-.441.5c-.355.939-.871 1.785-1.089 1.785-.12 0-.218.134-.218.298 0 .274-.17.525-1.016 1.498a4 4 0 0 0-.498.776 6.7 6.7 0 0 1-1.557 2.148c-.354.321-.643.805-.643 1.075s-.129.491-.286.491-.286.193-.286.429a.43.43 0 0 1-.428.428c-.243 0-.429.256-.429.591 0 .325-.45 1.015-1 1.534-.55.518-1 1.217-1 1.552s-.137.609-.306.609c-.395 0-1.122.727-1.122 1.122 0 .169-.169.307-.376.307-.206 0-.551.45-.767 1s-.561 1-.768 1-.375.126-.375.28-.45.744-1 1.31-1 1.276-1 1.577-.138.547-.306.547c-.396 0-1.123.727-1.123 1.122a.306.306 0 0 1-.306.306c-.395 0-1.122.727-1.122 1.123 0 .168-.193.306-.429.306-.235 0-.428.096-.429.214 0 .118-.321.588-.714 1.045s-.714.948-.714 1.092c0 .359-.748 1.078-1.122 1.078a.306.306 0 0 0-.306.306c0 .395-.727 1.122-1.123 1.122a.307.307 0 0 0-.306.306c0 .396-.727 1.123-1.122 1.123a.307.307 0 0 0-.307.306c0 .395-.726 1.122-1.122 1.122-.168 0-.306.129-.306.286s-.514.8-1.143 1.429c-.629.628-1.271 1.142-1.429 1.142-.157 0-.285.138-.285.307 0 .395-.727 1.122-1.123 1.122a.307.307 0 0 0-.306.306c0 .396-.727 1.123-1.122 1.123a.306.306 0 0 0-.306.306c0 .395-.727 1.122-1.123 1.122-.168 0-.306.193-.306.429 0 .235-.21.428-.467.428s-.765.322-1.129.715c-.365.392-.742.714-.839.714-.292 0-.994.793-.994 1.122a.306.306 0 0 1-.306.306c-.395 0-1.122.727-1.122 1.123 0 .168-.246.306-.547.306s-1.01.45-1.577 1c-.566.55-1.156 1-1.31 1s-.28.193-.28.429c0 .238-.254.428-.572.428-.314 0-.571.129-.571.286s-.193.286-.429.286a.43.43 0 0 0-.428.428c0 .236-.163.429-.361.429-.199 0-.602.321-.897.714s-.776.714-1.068.714-.532.129-.532.286-.192.286-.428.286-.429.146-.429.325c0 .439-.882 1.083-1.5 1.094-.275.005-.5.202-.5.438s-.134.428-.297.428c-.281 0-.604.224-1.549 1.072-.219.196-.536.357-.705.357s-.306.129-.306.286-.193.285-.428.285A.43.43 0 0 0 306 355c0 .236-.225.433-.5.438-.618.011-1.5.654-1.5 1.093 0 .18-.321.326-.714.326s-.715.114-.715.253c0 .138-.225.337-.5.441-.939.354-1.785.87-1.785 1.088 0 .12-.162.218-.36.218s-.707.322-1.131.714c-.423.393-1.033.715-1.354.715-.329 0-.584.187-.584.428 0 .236-.167.429-.371.429-.656 0-1.91.702-1.912 1.071-.002.197-.324.357-.717.357s-.715.097-.716.215-.323.363-.715.544c-.65.302-.712.273-.712-.34 0-.369-.128-.75-.285-.847-.158-.097-.286-.466-.286-.82s-.189-.892-.42-1.197-.431-.876-.445-1.269c-.032-.89-.959-4.49-1.225-4.756-.108-.108-.196-.617-.196-1.132s-.128-1.015-.286-1.112-.286-.458-.287-.802-.194-.995-.429-1.445-.426-1.117-.426-1.483-.129-.744-.286-.841-.286-.466-.286-.82-.189-.892-.419-1.197c-.231-.305-.424-.965-.429-1.466-.005-.502-.138-.992-.295-1.089s-.285-.481-.285-.853c0-.373-.193-.87-.429-1.106s-.429-.816-.429-1.289c0-.474-.128-.94-.285-1.037-.157-.098-.286-.482-.286-.854s-.193-.87-.429-1.106c-.235-.235-.428-.887-.428-1.449 0-.561-.129-1.02-.286-1.02s-.286-.37-.286-.822-.192-.982-.428-1.178-.429-.79-.429-1.321-.128-.965-.285-.965c-.158 0-.286-.37-.286-.822s-.193-.982-.429-1.178c-.235-.195-.428-.667-.428-1.047 0-.872-.808-4.359-1.163-5.02-.146-.273-.266-.876-.266-1.341s-.128-.923-.286-1.02-.285-.466-.285-.82-.189-.892-.42-1.197-.423-.973-.428-1.483-.138-.929-.295-.929-.286-.376-.286-.837-.193-1.029-.428-1.265c-.236-.236-.429-.816-.429-1.289 0-.474-.129-.94-.286-1.037-.157-.098-.285-.539-.285-.982s-.193-.966-.429-1.161-.429-.783-.429-1.304c0-.522-.128-1.028-.285-1.125s-.286-.545-.286-.996-.193-1.013-.429-1.249c-.235-.235-.428-.816-.428-1.289s-.129-.94-.286-1.037-.286-.482-.286-.854-.192-.87-.428-1.105c-.236-.236-.429-.816-.429-1.29 0-.473-.128-.94-.285-1.037-.158-.097-.286-.481-.286-.854 0-.372-.193-.869-.429-1.105-.235-.236-.436-.792-.445-1.235-.019-.938-.927-4.559-1.216-4.848-.108-.108-.196-.617-.196-1.132s-.128-1.015-.286-1.112-.286-.458-.287-.802-.194-.995-.429-1.445-.426-1.117-.426-1.483c0-.365-.112-.734-.249-.818-.136-.084-.33-.67-.432-1.303s-.31-1.149-.466-1.149c-.155 0-.282-.45-.282-1s-.129-1-.286-1-.285-.376-.285-.836c0-.461-.193-1.03-.429-1.266-.236-.235-.429-.823-.429-1.306s-.128-.877-.285-.877-.286-.435-.286-.965c0-.531-.193-1.126-.429-1.321-.235-.196-.428-.79-.428-1.321s-.129-.965-.286-.965-.286-.39-.286-.866c0-.506-.178-.934-.428-1.031-.263-.1-.429-.533-.429-1.117 0-.523-.128-1.032-.285-1.129-.158-.097-.286-.61-.286-1.139 0-.53-.177-1.14-.393-1.356s-.463-.9-.548-1.52c-.209-1.531-.868-4.032-1.131-4.294-.118-.118-.214-.636-.214-1.15 0-.515-.112-1.005-.248-1.089-.137-.084-.331-.668-.431-1.298-.299-1.869-2.477-2.796-2.705-1.151-.055.391-.28.814-.5.94-.221.126-.402.417-.402.647s-.114.641-.254.914c-.139.273-.48 1.011-.756 1.639a58 58 0 0 1-.746 1.639c-.134.273-.244.691-.244.929s-.118.432-.263.432c-.144 0-.347.386-.451.857-.103.472-.306.857-.451.857s-.263.243-.263.539-.192.907-.427 1.357-.428 1.036-.429 1.302c0 .266-.13.562-.287.66s-.286.474-.286.839c0 .364-.193.822-.428 1.018-.236.195-.429.589-.429.875s-.128.599-.286.696-.285.426-.285.731-.104.555-.231.555c-.28 0-1.198 2.017-1.198 2.632 0 .243-.193.601-.428.796-.236.196-.429.598-.429.893s-.129.536-.286.536-.285.321-.285.714-.127.715-.281.715-.361.321-.459.714c-.216.858-.689.95-.689.134 0-.319-.193-.655-.429-.745-.235-.091-.428-.472-.428-.848s-.115-.684-.255-.684-.335-.321-.434-.714-.305-.715-.459-.715-.281-.149-.281-.332c0-.533-.945-2.525-1.198-2.525-.126 0-.23-.321-.23-.714s-.129-.714-.286-.714-.286-.151-.286-.336c0-.272-1.571-3.767-2.546-5.664-.968-1.885-2.153-3.874-2.354-3.953-.133-.052-.243-.28-.243-.505 0-.226-.321-.92-.714-1.542-.393-.623-.714-1.252-.714-1.4 0-.372-.953-2.151-1.214-2.267-.118-.052-.215-.297-.215-.544s-.321-.871-.714-1.386-.714-1.13-.714-1.367-.119-.504-.264-.594-.348-.547-.451-1.017-.306-.854-.451-.854-.263-.15-.263-.332c0-.534-.945-2.525-1.198-2.525-.127 0-.23-.321-.23-.714s-.115-.715-.255-.715-.336-.321-.434-.714c-.099-.393-.306-.714-.46-.714s-.28-.183-.28-.406c0-.391-.835-2.158-1.158-2.451-.087-.079-.382-.625-.656-1.215-.274-.589-.621-1.071-.771-1.071s-.272-.25-.272-.555-.129-.634-.286-.731-.286-.43-.286-.74-.192-.637-.428-.728-.429-.4-.429-.688-.128-.604-.285-.701c-.432-.267-.343-.714.142-.714.236 0 .429.128.429.286s.193.285.429.285c.235 0 .429.097.43.215.002.287 1.654 1.214 2.164 1.214.223 0 .406.099.406.221 0 .121.482.475 1.071.785s1.392.855 1.783 1.208c.391.354.922.643 1.179.643s.617.179.798.398.744.567 1.249.773 1.089.542 1.297.746c.53.517 2.314.475 2.519-.06.091-.236.408-.428.706-.428.297 0 .54-.1.54-.221 0-.122.418-.446.929-.721s1.581-1.108 2.379-1.851a70 70 0 0 1 2.813-2.464c1.349-1.101 9.139-8.814 10.378-10.273.624-.737 1.787-1.043 1.787-.47 0 .157.37.285.822.285s.983.193 1.178.429c.196.236.59.428.875.428s.599.129.697.286.48.286.85.286c.371 0 1.103.214 1.626.477 1.766.885 1.943.951 2.52.951.316 0 .575.119.575.263s.384.348.854.451c.469.103.927.306 1.017.451s.455.264.813.264.744.096.86.214.738.347 1.383.509c1.694.425 1.627.719-.695 3.047-3.236 3.243-5.661 5.897-5.661 6.196 0 .15-.151.323-.337.384-.668.223.02 1.079.867 1.079.459 0 1.202.192 1.652.426.505.264 1.611.428 2.89.429 1.189.001 2.071.123 2.071.287 0 .165.897.286 2.119.286 1.367 0 2.159.119 2.231.335.063.188.888.391 1.881.463.973.07 1.769.241 1.769.379 0 .139 1.082.252 2.405.252 1.606 0 2.442.113 2.518.34.068.203.912.388 2.095.458 1.09.066 2.104.234 2.254.375s1.066.255 2.038.255c1.013 0 2.118.183 2.586.427.45.235 1.486.428 2.302.429.815.001 1.562.13 1.659.287.098.157.93.286 1.851.286.996 0 1.717.131 1.782.325.062.188 1.039.384 2.316.466 1.214.078 2.276.253 2.361.39.084.136 1.099.247 2.255.247 1.168 0 2.145.129 2.199.29s.996.363 2.095.451 2.256.275 2.57.413 1.343.314 2.286.391c2.362.191 5.922.628 8.143.999 1.021.17 2.839.31 4.04.311 1.677.002 2.222.102 2.349.431.124.323.645.429 2.116.429 1.073 0 2.091.139 2.262.31.639.639 1.661.185 1.661-.739 0-.74-.116-.87-.857-.953-.471-.053-.96-.278-1.086-.5-.125-.222-.471-.404-.768-.404s-.62-.129-.717-.286c-.098-.157-.491-.285-.874-.285-.384 0-.698-.127-.698-.281s-.321-.361-.714-.459-.714-.294-.714-.434-.174-.255-.386-.255-.991-.321-1.73-.714-1.529-.715-1.757-.715-.413-.111-.413-.246c0-.282-2.214-1.182-2.908-1.182a.72.72 0 0 1-.624-.429c-.09-.235-.426-.428-.745-.428s-.58-.129-.58-.286-.259-.286-.576-.286-.798-.122-1.071-.272c-.467-.256-1.451-.68-3.782-1.633a19 19 0 0 1-1.496-.68c-.273-.15-.7-.272-.949-.272s-.646-.193-.881-.428c-.236-.236-.741-.429-1.123-.429-.381 0-.694-.129-.694-.286s-.257-.285-.571-.285-.572-.104-.572-.231c0-.2-.502-.455-2.571-1.304a9 9 0 0 1-.857-.419c-1.133-.643-1.74-.904-2.104-.904-.219 0-.558-.192-.753-.428-.196-.236-.599-.429-.896-.429-.488 0-.925-.174-2.247-.893-.865-.471-5.206-2.469-6.143-2.828-1.711-.654-3.204-1.136-3.521-1.136-.198 0-.629-.25-.957-.556l-.596-.556 1.18-1.204c.649-.662 1.18-1.313 1.18-1.446s.854-1.081 1.899-2.105c2.042-2.002 2.236-3.08.61-3.381-3.408-.631-4.338-.753-5.812-.761-1.037-.005-1.913-.172-2.252-.429-.324-.245-1.178-.419-2.054-.419-.825 0-1.58-.129-1.677-.286s-.908-.29-1.803-.295c-.974-.005-1.848-.177-2.18-.428-.339-.256-1.195-.42-2.198-.42-.903 0-1.722-.128-1.819-.285s-1.014-.286-2.037-.286c-1.273 0-1.996-.135-2.29-.429-.235-.235-.926-.428-1.534-.428s-1.185-.129-1.282-.286-.861-.286-1.698-.286-1.891-.192-2.341-.426c-.45-.235-1.55-.428-2.444-.429s-1.705-.13-1.803-.287c-.097-.158-.994-.286-1.993-.286-1.03 0-1.86-.132-1.917-.304-.056-.168-.646-.377-1.31-.466-1.033-.139-1.762-.659-.922-.659.157 0 .285-.193.285-.428 0-.236.161-.43.357-.431.414-.003 1.129-1.388.904-1.752-.083-.135-2.683-.249-5.778-.252-5.345-.007-5.576-.029-4.626-.455.55-.246 1.193-.562 1.429-.702.236-.141.943-.516 1.571-.835a92 92 0 0 0 3.143-1.72c1.1-.627 2.225-1.22 2.5-1.316s.5-.289.5-.428.261-.252.581-.252.654-.193.745-.429c.09-.235.44-.432.776-.437 1.464-.022 2.322-4.825 1.083-6.064-.18-.18-.328-1.13-.328-2.11 0-.981-.128-1.863-.285-1.96s-.286-.53-.286-.962c0-.433-.189-1.036-.419-1.341-.231-.305-.424-.965-.429-1.466s-.138-.991-.295-1.088-.286-.546-.286-.997-.192-1.012-.428-1.248c-.769-.769-.529-1.327.571-1.327.55 0 1-.128 1-.285 0-.158.297-.286.66-.286s.909-.189 1.214-.42.844-.423 1.198-.428c.353-.005.643-.138.643-.295s.312-.286.693-.286c.382 0 .887-.193 1.123-.428.236-.236.687-.429 1.003-.429.317 0 .655-.128.752-.286s.559-.285 1.026-.285c.491 0 .918-.181 1.014-.429.09-.236.48-.428.865-.428.806 0 3.534-.821 3.938-1.185.149-.134.559-.244.912-.244.352 0 .71-.114.796-.253.087-.14.608-.338 1.16-.442s1.003-.311 1.003-.461.45-.273 1-.273 1-.128 1-.285.297-.286.66-.286.909-.189 1.214-.419c.305-.231.837-.424 1.181-.429s.705-.138.802-.295.417-.286.711-.286.727-.192.963-.428c.718-.718 1.999-.566 1.805.214-.773 3.112-1.093 4.522-1.248 5.496-.099.626-.353 1.31-.563 1.52s-.382.751-.382 1.202-.128.899-.286.996c-.157.098-.285.629-.285 1.181s-.193 1.196-.429 1.432c-.236.235-.428.797-.428 1.248s-.129.899-.286.997-.286.608-.286 1.135c0 .528-.135 1.005-.301 1.06-.366.122-.895 2.008-.947 3.376-.054 1.426 1.606 1.43 2.962.006.079-.082.497-.332.929-.555.432-.222.786-.576.786-.785 0-.212.306-.38.69-.38.38 0 .734-.097.786-.215.129-.29 2.447-1.785 2.768-1.785.142 0 .417-.193.613-.429.195-.236.597-.428.892-.428s.536-.129.536-.286.184-.286.409-.286.578-.161.785-.358.86-.611 1.449-.922c.59-.31 1.072-.663 1.072-.785 0-.121.148-.221.33-.221.181 0 .751-.321 1.267-.714s1.137-.714 1.384-.714.447-.099.447-.221c0-.121.482-.474 1.072-.783.589-.309 1.135-.628 1.214-.709.211-.216 3.527-2.411 3.844-2.545.274-.115.69-.435 1.431-1.099.219-.197.493-.357.609-.357.441 0 2.402-.978 2.402-1.198 0-.127.178-.231.396-.231.424 0 3.969-2.262 4.128-2.634.052-.123.322-.223.601-.223s.852-.322 1.276-.714c.424-.393.91-.715 1.081-.715s.607-.321.971-.714.817-.714 1.006-.714.765-.322 1.28-.715 1.074-.714 1.242-.714.304-.128.304-.286.184-.285.409-.285.583-.161.796-.357c.214-.197.641-.498.949-.669l2.275-1.261c2.159-1.194 3.971-2.363 4.095-2.642.053-.118.311-.214.575-.214s.799-.289 1.19-.643 1.194-.897 1.783-1.208 1.071-.664 1.071-.786c0-.121.174-.22.387-.22s.734-.322 1.158-.715.938-.714 1.143-.714c.204 0 .719-.321 1.142-.714.424-.393.884-.714 1.021-.714.375 0 4.057-1.957 4.589-2.439.254-.23.613-.419.797-.419s.335-.099.335-.22c0-.122.482-.474 1.071-.783s1.136-.628 1.214-.708c.218-.222 1.178-.79 2.241-1.326.525-.264 1.021-.654 1.102-.865s.371-.383.644-.383.741-.271 1.041-.602 1.026-.848 1.615-1.149c.59-.301 1.072-.673 1.072-.827s.31-.279.69-.279.734-.097.786-.215.609-.468 1.238-.778 1.541-.856 2.027-1.214 1.033-.651 1.214-.651.33-.113.33-.252.225-.328.5-.42c.718-.241 1.544-.802 2.27-1.542.348-.353.839-.643 1.092-.643.347 0 .438-.228.371-.928-.096-.992-1.614-1.519-2.326-.807-.169.169-.638.307-1.043.307s-.99.175-1.3.389-.949.463-1.421.554c-2.518.483-3.421.748-3.515 1.03-.057.172-.543.312-1.08.312s-.976.129-.976.286-.554.286-1.231.286-1.481.189-1.786.419c-.305.231-.965.424-1.466.429-.502.005-.991.138-1.089.295s-.623.285-1.168.285c-.619 0-1.054.162-1.157.429-.101.262-.534.429-1.117.429-.524 0-1.032.128-1.129.285s-.61.286-1.139.286c-.53 0-1.14.177-1.356.393s-.901.458-1.521.537c-2.205.28-4.849.817-5.337 1.084-.273.15-.941.272-1.483.272s-1.067.128-1.164.285c-.097.158-.458.287-.803.288-.344.001-.994.194-1.444.428-.45.235-1.246.427-1.769.427s-1.03.129-1.127.286-.481.286-.853.286c-.373 0-.87.193-1.106.428-.239.239-.937.429-1.575.429-.631 0-1.226.128-1.323.286s-.458.286-.803.287c-.344.001-.994.194-1.444.429s-1.246.426-1.769.426-1.03.129-1.127.286-.559.286-1.026.286c-.491 0-.918.18-1.013.428-.112.29-.566.429-1.403.429-.681 0-1.318.129-1.415.286s-.481.285-.854.285c-.372 0-.869.193-1.105.429-1.285 1.285-2.579-.219-1.46-1.697.232-.307.419-1.161.419-1.912 0-.747.129-1.437.286-1.534s.285-.797.285-1.555c0-.759.192-1.748.427-2.198s.428-1.357.429-2.016c.001-.658.13-1.277.287-1.374s.286-.797.286-1.555c0-.759.192-1.748.427-2.198s.427-1.357.428-2.016c.001-.658.131-1.276.288-1.374.157-.097.286-.85.286-1.674 0-.823.122-1.619.271-1.768.644-.646.672-2.614.046-3.24-.618-.619-1.46-.813-1.46-.337 0 .147-.254.347-.565.446-.31.098-1.02.621-1.576 1.162-.557.541-1.107.985-1.222.987s-.832.646-1.594 1.429-1.478 1.424-1.591 1.424-.711.45-1.329 1-1.22 1-1.338 1c-.117 0-.214.193-.214.429a.437.437 0 0 1-.442.428c-.508 0-3.844 2.281-3.844 2.628 0 .126-.132.229-.295.229s-.653.354-1.089.786c-1.082 1.071-2.296 2.071-2.514 2.071-.098 0-.477.322-.841.715s-.764.716-.89.719c-.213.004-1.419.976-2.839 2.287-.337.311-.748.565-.915.565-.166 0-.405.17-.531.377s-.846.796-1.6 1.309-1.755 1.308-2.224 1.766c-.469.459-.918.834-.998.834s-.3.131-.49.291-.616.513-.947.786c-.332.272-1.127.944-1.767 1.494s-1.581 1.322-2.091 1.715c-.509.392-1.087.875-1.284 1.071s-.437.357-.533.357-.331.131-.521.291c-2.165 1.826-2.208 1.773-1.042-1.291.557-1.465 1.126-3.602 1.126-4.233 0-.383.193-.857.428-1.053.236-.195.429-.653.429-1.018 0-.364.128-.742.286-.839s.285-.539.285-.982.193-.965.429-1.161c.236-.195.428-.589.428-.875s.129-.599.286-.696.286-.5.286-.894c0-.395.193-.911.428-1.147.824-.824.455-2.679-.53-2.664-.632.01-1.898.895-1.898 1.326 0 .134-.322.485-.714.78-.393.295-.715.775-.715 1.068 0 .292-.137.531-.306.531-.395 0-1.122.727-1.122 1.122a.307.307 0 0 1-.306.307c-.396 0-1.123.726-1.123 1.122 0 .168-.146.306-.325.306-.375 0-5.389 4.844-5.389 5.206 0 .132-2.133 2.39-4.739 5.017s-5.017 5.15-5.357 5.606-2.386 2.586-4.547 4.733-3.929 3.992-3.929 4.1-.482.7-1.071 1.318c-1.464 1.534-1.786 1.947-1.786 2.294a.3.3 0 0 1-.306.298c-.395 0-1.122.726-1.122 1.122a.303.303 0 0 1-.298.306c-.164 0-.646.323-1.071.716-.452.419-.817.584-.88.396-.059-.176.052-.419.245-.538s.419-.815.501-1.545.261-1.397.398-1.481c.136-.084.248-.788.248-1.565s.12-1.411.268-1.411c.147 0 .347-.611.443-1.358.096-.746.297-1.58.446-1.853s.271-1.069.271-1.769.129-1.352.286-1.449c1.524-.942-1.753-5.277-5.143-6.803a13 13 0 0 1-.857-.436c-1.209-.686-1.759-.904-2.282-.904-.321 0-.575-.189-.575-.428a.43.43 0 0 0-.429-.429c-.236 0-.428-.129-.428-.286s-.258-.285-.572-.285-.571-.104-.571-.231c0-.253-1.992-1.198-2.525-1.198-.407 0-.438-.472-.047-.714.157-.097.286-.491.286-.874 0-.384.123-.698.273-.698s.357-.451.461-1.003c.103-.552.302-1.073.441-1.16.14-.086.254-.395.254-.688s.214-.959.476-1.483c.88-1.755.952-1.942.952-2.462 0-.285.11-.64.245-.789.343-.382 1.184-3.112 1.184-3.846 0-.335.193-.802.428-1.038.236-.236.429-.741.429-1.123 0-.381.128-.693.286-.693s.285-.267.285-.592c0-.326.193-.785.429-1.021s.428-.669.428-.962c0-.294.129-.614.286-.711s.286-.555.286-1.017.118-.84.263-.84.42-.474.612-1.054l.348-1.054.66.768c.364.423.737.768.83.768s.516.322.939.715c.424.392.844.714.933.714s1.11.899 2.269 1.997 2.373 2.071 2.698 2.161.883.307 1.239.483c.964.474 1.261-.013 1.427-2.342.08-1.115.256-2.096.392-2.18s.247-.97.247-1.969c0-1.086.129-1.86.32-1.923.176-.059.385-1.031.467-2.174.081-1.137.259-2.136.395-2.22s.247-.955.247-1.936c0-.98.122-1.905.272-2.055.308-.309.851-3.632 1.047-6.414.072-1.021.24-2.114.373-2.428.298-.704.891-5.444 1.091-8.714.083-1.354.322-2.679.54-2.993.219-.316.391-1.279.391-2.197 0-.899.128-1.713.286-1.81.157-.098.285-1.014.285-2.038 0-1.273.136-1.996.429-2.289.292-.292.428-1.014.428-2.265 0-1.034.125-1.837.286-1.837.158 0 .286-.751.286-1.682 0-.936.189-2.044.427-2.5.234-.45.427-1.55.428-2.444s.131-1.705.288-1.803.29-.972.295-1.945c.005-1.1.167-1.978.428-2.323.242-.32.42-1.174.42-2.015 0-.803.135-1.595.3-1.76.704-.703.195-3.949-.634-4.045-.792-.091-.899.037-2.106 2.517-1.492 3.066-2.15 4.625-2.891 6.857-.287.864-.597 1.636-.689 1.714s-.382.561-.645 1.072l-.907 1.758c-.236.457-.428 1.035-.428 1.286s-.129.456-.286.456-.286.306-.286.679-.193.84-.428 1.035c-.236.196-.429.597-.429.892s-.129.537-.286.537-.285.249-.285.554-.126.632-.278.727-.49.648-.749 1.231c-.853 1.918-1.9 4.18-2.585 5.586-.371.76-.674 1.628-.674 1.928s-.099.545-.219.545c-.254 0-1.21 2.57-1.21 3.253 0 .254-.126.461-.28.461s-.361.322-.46.715c-.098.393-.293.714-.434.714-.14 0-.254.321-.254.714s-.111.715-.247.715c-.289 0-1.182 2.22-1.182 2.938 0 .269-.122.49-.272.49-.237 0-.596.645-1.272 2.286-.097.236-.423.814-.724 1.286-.301.471-.557 1.146-.568 1.5-.035 1.079-1.21.529-3.419-1.604-.656-.633-1.781-1.61-3.661-3.18-.561-.467-2.37-.36-2.37.141 0 .235-.128.428-.285.428-.158 0-.286.743-.286 1.657 0 .912-.144 1.802-.32 1.978-.319.319-.722 2.678-1.013 5.937-.084.943-.263 1.782-.398 1.866-.267.166-.805 3.413-1.017 6.134-.073.943-.242 1.971-.375 2.285-.317.748-1.178 7.62-1.169 9.334.003.733-.136 1.381-.31 1.439-.32.106-.742 2.566-1.016 5.917-.082 1.008-.33 2.014-.551 2.235s-.402.793-.402 1.272c0 .858-.009.863-.705.408-2.056-1.348-2.724-.425-2.724 3.76 0 2.067-.116 3.483-.289 3.541-.159.053-.371 1.345-.471 2.872-.15 2.279-.669 3.797-.669 1.955 0-.286-.171-.662-.381-.836s-.554-.865-.765-1.535-.554-1.422-.761-1.67c-.208-.248-.378-.629-.378-.847 0-.364-.585-2.172-1.151-3.559a69 69 0 0 1-.719-1.919c-.68-1.885-1.326-2.224-4.246-2.224-1.332 0-2.501.129-2.599.286-.097.157-.74.286-1.428.286-.689 0-1.321.111-1.406.248-.084.136-.67.331-1.302.432s-1.149.311-1.149.466-.314.282-.698.282-.777.129-.874.286c-.425.688-1.879.308-2.185-.571-.165-.472-.415-.858-.557-.858s-.258-.257-.258-.571-.128-.571-.285-.571c-.158 0-.286-.313-.286-.694 0-.382-.193-.887-.429-1.123-.235-.235-.428-.594-.428-.796 0-.34-.6-2.181-1.151-3.53-.986-2.414-1.274-3-1.476-3-.127 0-.23-.314-.23-.698s-.129-.777-.286-.874-.286-.417-.286-.71c0-.294-.193-.727-.428-.963-.236-.236-.429-.695-.429-1.021s-.129-.591-.286-.591-.285-.248-.285-.551-.193-.744-.429-.98-.429-.611-.429-.834c0-.507-.802-2.139-1.161-2.361-.147-.091-.267-.415-.267-.72s-.129-.554-.286-.554-.286-.313-.286-.694c0-.382-.192-.887-.428-1.123-.236-.235-.429-.695-.429-1.02s-.128-.592-.285-.592c-.158 0-.286-.261-.286-.58 0-.32-.193-.655-.429-.745-.245-.094-.428-.521-.428-.995 0-.457-.121-1.054-.268-1.327-.686-1.273-1.161-2.487-1.161-2.968 0-.29-.128-.528-.286-.528s-.285-.228-.285-.508c0-.279-.2-.793-.445-1.143-.516-.736-.114-.867 1.074-.348.606.265 2.844.521 9.942 1.141 1.493.13 3.1.306 3.572.391 2.502.449 10.377.8 10.959.489.696-.373.833-1.45.183-1.45-.235 0-.428-.162-.428-.36 0-.199-.322-.707-.714-1.131-.393-.424-.715-.857-.715-.963s-.422-.594-.937-1.084-1.214-1.343-1.553-1.895-.913-1.279-1.277-1.615c-1.112-1.028-1.947-2.019-1.947-2.31 0-.152-.321-.518-.714-.813s-.715-.645-.715-.777-.482-.731-1.071-1.331-1.35-1.458-1.69-1.906a34 34 0 0 0-1.246-1.53 81 81 0 0 1-1.667-2c-.572-.707-1.136-1.328-1.254-1.381s-.214-.219-.214-.371-.45-.739-1-1.306c-.55-.566-1-1.129-1-1.251s-.547-.803-1.215-1.513c-2.63-2.799-4.659-5.165-5.75-6.706-.629-.888-1.44-1.898-1.804-2.244-.363-.346-.66-.698-.66-.783 0-.233-1.082-1.472-5.116-5.861-.643-.7-1.17-1.366-1.17-1.479 0-.114-.16-.377-.357-.584-.196-.208-.738-.892-1.204-1.521-.933-1.258-1.964-2.406-4.653-5.184-.982-1.015-1.786-1.936-1.786-2.047s-.289-.523-.643-.914c-.353-.392-1.215-1.483-1.915-2.426-.699-.943-1.406-1.856-1.571-2.029A81 81 0 0 1 156 58.287a87 87 0 0 0-2.786-3.081c-.825-.862-1.5-1.68-1.5-1.816s-.096-.248-.214-.249-.536-.48-.929-1.063c-.392-.584-.907-1.263-1.142-1.51-.236-.247-.943-1.085-1.572-1.863a46 46 0 0 0-2.214-2.523c-.589-.609-1.072-1.162-1.072-1.229 0-.066-.131-.275-.291-.465s-.555-.667-.878-1.059c-.324-.393-.933-1.1-1.354-1.572a45 45 0 0 1-1.75-2.143 28 28 0 0 0-1.928-2.228c-.518-.518-.941-1.034-.941-1.146s-.322-.55-.715-.973c-.393-.424-.714-.825-.714-.892 0-.066-.482-.63-1.071-1.253a58 58 0 0 1-2.114-2.392l-1.041-1.259-.601.631c-.628.658-.778 1.491-.353 1.955.136.149.475.882.753 1.629.277.746.616 1.357.752 1.357.135 0 .246.15.246.332 0 .534.945 2.525 1.198 2.525.127 0 .231.321.231.714s.129.715.286.715.285.241.285.536.193.697.429.892.429.597.429.892.128.537.285.537.286.248.286.551.193.744.429.979c.235.236.428.547.428.691 0 .395.856 2.03 1.161 2.218.147.091.268.415.268.72s.128.555.285.555c.158 0 .286.241.286.536s.193.697.429.893c.235.195.428.598.428.896 0 .297.123.763.272 1.036s.481 1.01.736 1.639.889 2.043 1.41 3.143 1.033 2.289 1.14 2.643.315.643.462.643c.146 0 .266.321.266.714s.115.714.255.714.335.322.434.714c.098.393.305.715.459.715s.281.31.281.69.096.734.214.786c.31.138 1.214 1.927 1.214 2.404 0 .223.115.405.255.405s.335.322.434.715.305.714.459.714.281.321.281.714.114.715.254.715.336.321.434.714c.099.393.306.714.46.714s.28.314.28.698.114.767.254.854c.139.086.338.608.441 1.159.104.552.311 1.003.461 1.003s.273.26.273.578.321 1.086.714 1.708.714 1.251.714 1.397c0 .145.311.887.69 1.648s.918 1.93 1.197 2.598c.28.668.613 1.214.74 1.214s.24.225.251.5.265.886.563 1.357c.652 1.034 1.417 2.681 1.417 3.056 0 .289-2.981.165-7.858-.326a719 719 0 0 0-4.571-.446c-.943-.086-3.724-.347-6.179-.578s-5.647-.42-7.092-.42c-1.954 0-2.737-.11-3.056-.428-.589-.59-3.053-.575-3.548.021-.222.267-.265.529-.106.643.147.106.45.546.673.978.222.433.576.786.785.786s.38.138.38.306c0 .169.161.472.357.675 1.433 1.478 2.5 2.751 2.5 2.983 0 .151.097.317.215.369.117.053.985.994 1.928 2.091a92 92 0 0 0 3.357 3.672c.904.921 1.643 1.731 1.643 1.799 0 .069.354.482.786.919s1.364 1.49 2.071 2.339c.707.85 1.736 2.001 2.286 2.558.55.558 1.449 1.59 1.997 2.294.548.705 1.738 2.033 2.643 2.952s1.646 1.728 1.646 1.798c0 .147 1.659 1.996 3.214 3.581.589.601 1.071 1.174 1.071 1.274s.29.456.643.791 1.321 1.398 2.149 2.363 2.467 2.758 3.642 3.984c1.176 1.227 2.138 2.378 2.138 2.558 0 .181.321.57.714.865s.714.699.714.897c0 .428-.747.484-1 .075-.097-.157-.619-.286-1.159-.286-.541 0-.983-.118-.983-.262 0-.249-1.695-.754-3.572-1.064-.471-.078-1.114-.247-1.428-.377-.807-.332-5.008-1.154-5.901-1.154-.409 0-.904-.193-1.099-.428-.196-.236-.79-.429-1.321-.429s-.965-.129-.965-.286-.395-.285-.878-.285c-.482 0-1.07-.193-1.306-.429s-.933-.429-1.551-.429-1.122-.137-1.122-.304c0-.168-.354-.264-.786-.215-1.143.132-1.013 1.537.232 2.519.498.393 1.488 1.268 2.2 1.944a52 52 0 0 0 2.603 2.286c.72.581 1.584 1.345 1.92 1.699s.691.643.79.643c.217 0 1.431 1 2.513 2.071.437.432.863.786.947.786s.389.225.679.5a40 40 0 0 0 1.643 1.419 79 79 0 0 1 2.259 1.954 52 52 0 0 0 2.647 2.189c.827.636 1.988 1.621 2.58 2.19a27 27 0 0 0 2.026 1.748 29 29 0 0 1 2.074 1.786c.618.589 1.189 1.071 1.268 1.071s.491.322.914.714c.424.393.933.715 1.131.715s.36.193.36.428c0 .236.103.429.23.429.126 0 1 .739 1.942 1.643.941.903 2.22 2.024 2.841 2.491.621.466 1.45 1.141 1.841 1.5.391.358.938.652 1.214.652.277 0 .503.137.503.306 0 .314.697 1.122.968 1.122.084 0 .648.482 1.254 1.072 1.191 1.158 2.991 2.747 4.727 4.174a95 95 0 0 1 2.143 1.825l1.051.929-1.143-.009c-.628-.005-1.392-.198-1.697-.429-.34-.257-1.198-.419-2.215-.419-.916 0-1.659-.128-1.659-.286s-.588-.285-1.306-.285c-.78 0-1.479-.173-1.735-.429-.284-.284-.996-.429-2.106-.429-.922 0-1.756-.128-1.853-.285-.499-.807-5-.17-5 .707 0 .098-.322.475-.715.839s-.714.814-.714 1-.321.636-.714 1-.714.746-.714.849-.322.697-.715 1.319-.714 1.301-.714 1.509c0 .71-.61 1.064-1.059.615-.226-.225-.723-.41-1.104-.41s-.694-.128-.694-.285c0-.158-.238-.286-.529-.286s-1.133-.322-1.872-.714c-.739-.393-1.53-.715-1.757-.715-.228 0-.414-.118-.414-.263 0-.144-.384-.347-.853-.45-.47-.103-.928-.307-1.017-.452-.09-.145-.456-.263-.813-.263s-.733-.083-.835-.185c-.236-.236-3.079-1.222-3.559-1.235-.199-.005-.872-.33-1.494-.723s-1.44-.714-1.816-.714-.846-.193-1.041-.429c-.196-.236-.597-.429-.892-.429s-.537-.128-.537-.285-.246-.286-.548-.286-.977-.215-1.5-.477c-1.734-.869-1.941-.952-2.376-.952-.238 0-.433-.103-.433-.23s-.546-.459-1.214-.739c-1.384-.578-2.982-1.286-3.711-1.644a2.9 2.9 0 0 0-1.071-.244c-.316 0-.575-.118-.575-.263 0-.144-.414-.354-.919-.465-.911-.2-1.229-.321-2.401-.92-1.301-.665-2.892-.937-3.695-.632l-.784.298.162 3.883c.091 2.17.299 4.019.471 4.191.507.506.391 1.715-.144 1.51-.249-.095-1.565-.259-2.925-.364-1.443-.11-2.631-.348-2.853-.571-.21-.209-.879-.381-1.487-.381s-1.185-.129-1.282-.286c-.098-.157-.886-.285-1.752-.285-1.019 0-1.726-.152-2.004-.429-.25-.25-.948-.429-1.677-.429-.686 0-1.327-.128-1.425-.285-.097-.157-.801-.286-1.564-.286-.793 0-1.435-.141-1.498-.329-.06-.181-.844-.39-1.743-.464s-1.703-.248-1.788-.386c-.085-.137-.863-.25-1.73-.25-1.019 0-1.726-.151-2.003-.428-.264-.264-.964-.429-1.82-.429-.765 0-1.471-.128-1.568-.285-.097-.158-.786-.286-1.531-.286s-1.501-.147-1.681-.326c-.179-.18-1.201-.435-2.271-.567s-2.524-.314-3.231-.404-1.543-.286-1.857-.436c-.699-.331-2.849-.805-5.143-1.132-.943-.134-3.322-.506-5.286-.826-3.92-.639-4.37-.607-4.234.303.086.581.375.838 1.377 1.228.236.091.814.412 1.286.714.471.301 1.132.556 1.469.568s.686.214.777.449.426.429.745.429.58.128.58.286.322.285.714.285c.393 0 .715.104.715.231s.546.456 1.214.731c1.226.506 1.38.578 2.929 1.383 2.889 1.501 7.406 3.37 8.147 3.37.278 0 .58.192.67.428s.426.429.745.429.58.128.58.285c0 .158.308.286.684.286s.758.193.848.429c.091.235.426.428.745.428s.581.129.581.286.266.286.591.286c.326 0 .785.193 1.021.428.236.236.669.429.963.429s.613.128.71.286.491.285.874.285c.384 0 .698.119.698.265 0 .305 1.614 1.164 2.186 1.164.212 0 .385.104.385.231 0 .253 1.992 1.197 2.525 1.197.183 0 .332.119.332.263s.385.348.854.451c.47.103.927.306 1.017.451s.477.264.86.264c.384 0 .698.129.698.286s.188.285.419.285c.441 0 1.674.502 3.964 1.614.761.37 1.615.672 1.898.672s.589.193.679.429c.091.235.418.428.728.428s.643.129.74.286c.098.157.427.286.732.286s.554.104.554.232.611.514 1.357.858c.747.344 1.55.742 1.786.883s1.457.738 2.714 1.325c1.257.588 2.909 1.372 3.67 1.743.76.37 1.532.674 1.714.676.182.001.973.318 1.759.705s1.643.707 1.905.712.523.148.58.319c.125.377 2.628.881 3.229.65.502-.192.629-3.946.143-4.246-.16-.099-.285-1.442-.285-3.048v-2.872l.928.161c2.298.397 2.965.577 3.492.941.31.214 1.171.389 1.912.389s1.428.129 1.525.286.756.286 1.466.286c.765 0 1.463.174 1.717.428.236.236.934.429 1.551.429.618 0 1.123.128 1.123.286s.611.289 1.357.294 1.607.198 1.912.429.972.419 1.483.419 1.008.129 1.105.286.844.29 1.66.295c.848.005 1.72.189 2.037.429.306.23 1.037.419 1.626.419.59 0 1.151.129 1.248.286.098.157.669.285 1.27.285.602 0 1.462.192 1.912.427s1.244.428 1.764.429c.557.001.873.119.769.287-.097.157-.411.286-.696.286-.286 0-.68.193-.876.429-.195.235-.782.428-1.304.428-.521 0-1.018.114-1.104.253s-.736.34-1.445.446-1.29.314-1.29.462c0 .147-.323.268-.718.268s-.941.109-1.214.243c-1.459.717-2.558 1.163-3.068 1.244-.653.105-1.058 9.426-.435 10.048.161.162.293.837.293 1.501 0 .693.182 1.391.428 1.637.236.236.429.88.429 1.432s.128 1.083.285 1.18c.158.098.286.546.286.997s.171.991.381 1.2c.791.791.83 3.375.051 3.375-.376 0-.763.128-.86.286-.098.157-.411.285-.697.285-.285 0-.679.193-.875.429s-.726.428-1.178.428-.822.129-.822.286-.306.286-.679.286-.84.193-1.035.428c-.196.236-.654.429-1.018.429-.365 0-.742.129-.839.286s-.43.285-.74.285-.638.193-.728.429a.74.74 0 0 1-.634.433c-.684.006-2.576.702-2.965 1.09-.183.184-.75.334-1.259.334-.51 0-.999.118-1.087.261-.089.143-.675.348-1.302.453-.626.106-1.212.31-1.301.454-.088.143-.412.261-.719.261-.56 0-.74.068-2.503.951-.523.263-1.191.477-1.483.477s-.611.129-.708.286-.417.286-.711.286c-.293 0-.727.193-.962.428-.236.236-.599.431-.806.433-.611.007-2.511.729-2.873 1.091-.183.183-.622.333-.974.333s-.72.129-.817.286-.417.286-.71.286c-.294 0-.727.193-.963.428-.236.236-.734.429-1.106.429s-.832.154-1.021.343c-.266.267-.343.262-.343-.021 0-.199.193-.556.429-.791.236-.236.429-.669.429-.963s.128-.614.285-.711.286-.555.286-1.017.123-.84.273-.84.357-.451.461-1.003c.103-.552.302-1.074.441-1.16.14-.086.254-.535.254-.997s.122-.84.272-.84.358-.451.461-1.003.302-1.074.442-1.16c.139-.086.253-.445.253-.797s.115-.762.256-.911c.264-.281.819-2.383 1.09-4.129.085-.55.331-1.103.547-1.228.216-.126.393-.472.393-.769s.128-.62.286-.717c.598-.37.344-3.286-.286-3.286-.314 0-.572.098-.572.218s-.514.441-1.142.714c-.629.272-1.143.624-1.143.781s-.322.287-.715.287-.714.099-.714.221c0 .121-.482.473-1.071.783-.59.309-1.136.627-1.215.708-.289.294-1.321.874-2.642 1.483-.747.345-1.358.731-1.358.859 0 .127-.321.232-.714.232s-.714.126-.714.28-.322.361-.714.46c-.393.098-.716.261-.718.362s-.516.429-1.143.729c-.627.301-1.139.654-1.139.786s-.202.24-.448.24-.869.321-1.384.714-1.085.714-1.267.714-.33.114-.33.253-.225.337-.5.441c-.939.354-1.786.87-1.786 1.088 0 .12-.173.218-.384.218s-.758.322-1.214.714c-.457.393-.975.714-1.152.715-.178 0-.483.193-.678.429-.196.235-.587.428-.869.428s-.555.097-.607.214c-.084.189-2.627 1.605-4.451 2.479-.352.169-.641.404-.642.521-.002.118-.186.215-.411.215s-.578.165-.786.368c-.207.202-.827.593-1.377.869-1.352.678-3.538 1.951-3.714 2.162-.079.095-.625.417-1.215.717-.589.3-1.071.653-1.071.786 0 .132-.193.241-.429.241-.235 0-.428.128-.428.285s-.261.286-.581.286-.654.193-.745.429c-.09.235-.317.428-.504.428-.726 0-7.313 3.628-7.313 4.027 0 .143-.205.259-.456.259s-.861.289-1.356.643c-.495.353-1.351.884-1.901 1.178-.551.295-1.066.616-1.144.715-.079.098-.625.401-1.215.674-.589.272-1.071.626-1.071.785s-.213.291-.473.291-.871.295-1.357.656-2.009 1.22-3.384 1.91c-1.375.689-2.5 1.358-2.5 1.486s-.213.233-.473.233-.895.322-1.41.715-1.138.714-1.384.714-.449.096-.452.214c-.002.118-.772.664-1.71 1.214s-1.708 1.097-1.71 1.215-.197.214-.433.214c-.235 0-.428.129-.428.286s-.261.285-.581.285-.654.193-.745.429-.389.429-.663.429c-.275 0-.846.321-1.27.714s-.887.714-1.028.714c-.418 0-4.705 2.316-4.809 2.599-.052.142-.289.258-.527.258-.237 0-.836.29-1.329.643-.494.354-1.184.794-1.533.977-1.962 1.033-2.749 1.524-3.597 2.248-.191.163-.804.511-1.363.773-1.253.587-2.034 1.831-1.399 2.227.476.297 3.422.041 3.829-.333.15-.137.753-.249 1.341-.249s1.137-.112 1.222-.248.762-.316 1.507-.4 1.402-.294 1.459-.467c.058-.172.665-.314 1.35-.314s1.324-.128 1.421-.285c.098-.157.523-.287.946-.288s1.137-.194 1.587-.428c.45-.235 1.246-.427 1.769-.427s1.03-.129 1.127-.286.603-.286 1.125-.286c.521 0 1.108-.192 1.304-.428.217-.262.843-.429 1.606-.429.688 0 1.251-.112 1.251-.248 0-.137.606-.317 1.347-.401.742-.083 1.395-.293 1.453-.465.057-.173.6-.314 1.207-.314.606 0 1.181-.129 1.278-.286.098-.157.659-.286 1.248-.286.59 0 1.321-.188 1.626-.419s1.037-.424 1.626-.429c.59-.005 1.072-.137 1.072-.295s.505-.285 1.122-.285 1.297-.175 1.511-.388 1.09-.469 1.949-.567c1.722-.198 5.033-.846 5.704-1.118.235-.096.878-.238 1.428-.316 1.933-.276 4-.832 4-1.078 0-.136.571-.248 1.269-.248s1.338-.111 1.422-.247c.084-.137.763-.317 1.508-.401.744-.084 1.401-.294 1.458-.466.058-.173.665-.314 1.35-.314s1.325-.129 1.422-.286.539-.286.982-.286.965-.192 1.161-.428c1.37-1.651 2.161-.118 1.547 3-.554 2.814-1.238 7.842-1.249 9.179-.008 1.068-.157 1.728-.441 1.964-.273.226-.429.857-.429 1.732 0 .757-.128 1.456-.286 1.553-.157.098-.289.844-.294 1.66-.006.849-.189 1.721-.429 2.038-.512.677-.555 3.126-.062 3.511.455.355 1.905-.027 2.654-.701.311-.279 1.239-.958 2.062-1.508s1.497-1.096 1.497-1.214c.001-.118.163-.214.361-.214s.682-.299 1.076-.664 1.1-.912 1.569-1.214c.921-.595 1.872-1.359 2.823-2.268.33-.316 1.308-1.021 2.172-1.566s1.614-1.091 1.667-1.212a.4.4 0 0 1 .344-.219c.491 0 4.637-3.097 6.596-4.929.463-.432.983-.785 1.156-.785s.612-.322.976-.715.829-.715 1.033-.716.826-.435 1.383-.962c.556-.528 1.296-1.05 1.643-1.16s.631-.32.631-.467c0-.146.134-.266.297-.266.164 0 .49-.161.725-.357.887-.743 1.149-.95 2.173-1.714.579-.433 1.142-.786 1.253-.786s.498-.322.862-.714c.364-.393.738-.715.831-.715.161 0 .561-.301 1.42-1.071.219-.197.536-.357.704-.357s.309-.097.312-.215.644-.664 1.423-1.214c.778-.55 1.418-1.096 1.422-1.214.003-.118.136-.214.294-.214.194 0 .194.187 0 .571l-.574 1.139a3.1 3.1 0 0 0-.285 1.163c0 .328-.193.789-.429 1.025s-.428.805-.428 1.265-.129.837-.286.837-.286.436-.286.969c0 .598-.164 1.032-.428 1.134-.248.095-.429.522-.429 1.014 0 .467-.129.928-.286 1.025-.157.098-.285.436-.285.752s-.193.768-.429 1.004c-.236.235-.429.74-.429 1.122s-.128.694-.285.694-.286.326-.286.724c0 .399-.177 1.009-.394 1.357-1.086 1.746-.683 3.134.827 2.845.862-.165 2.735-2.048 5.348-5.376.65-.828 2.886-3.084 4.964-5.008 1.815-1.681 4.443-4.614 4.763-5.317.164-.359.406-.654.538-.654s.24-.193.24-.428c0-.236.137-.429.306-.429.395 0 1.122-.727 1.122-1.122 0-.169.164-.306.365-.306.629 0 7.764-7.568 8.181-8.678.065-.171.515-.635 1-1.031 1.122-.915 5.809-5.588 6.745-6.724 1.389-1.686 2.281-2.962 2.281-3.263 0-.167.134-.304.297-.304.348 0 .761-.322 2.295-1.786 1.175-1.122 1.844-.324.693.826-.235.236-.428.798-.428 1.249s-.129.899-.286.996-.286.684-.286 1.303-.111 1.126-.247 1.126c-.246 0-.806 2.081-1.076 4-.077.55-.257 1.257-.399 1.571-1.055 2.336-.822 4.471.609 5.572.511.393 1.076.861 1.256 1.041s.921.597 1.647.928c1.289.587 1.974 1.174 1.37 1.174-.166 0-.302.192-.302.428s-.1.429-.221.429c-.122 0-.474.482-.783 1.071s-.629 1.136-.711 1.214c-.346.334-1.714 2.581-1.714 2.816 0 .142-.193.417-.429.613-.235.196-.428.597-.428.892s-.12.537-.267.537c-.146 0-.347.289-.446.642-.206.736-.784 2.003-1.01 2.215-.084.078-.595.85-1.134 1.714-.54.864-1.051 1.636-1.137 1.714-.085.079-.407.625-.717 1.215-.309.589-.661 1.071-.783 1.071-.121 0-.22.201-.22.448 0 .246-.322.869-.715 1.384s-.714 1.085-.714 1.266-.12.331-.266.331-.357.289-.468.642c-.11.354-.279.708-.376.786-.282.23-.892 1.243-1.074 1.786-.093.275-.282.5-.421.5s-.252.195-.252.434-.322.944-.714 1.566c-.393.622-.715 1.311-.715 1.531s-.193.559-.428.755c-.236.195-.429.532-.429.749s-.128.393-.286.393-.285.193-.285.429-.126.429-.281.429c-.154 0-.361.321-.459.714s-.294.714-.434.714a.25.25 0 0 0-.255.247c0 .136-.64 1.196-1.422 2.357s-1.425 2.322-1.428 2.58a.74.74 0 0 1-.436.634c-.24.092-.426.513-.424.959.009 1.624.078 1.644 5.985 1.74 4.502.074 5.439.16 5.439.5 0 .227-.128.412-.285.412s-.29.418-.295.928c-.005.511-.198 1.178-.429 1.483s-.419.909-.419 1.341-.129.865-.286.962-.286.593-.286 1.103c0 .509-.121 1.048-.269 1.197-.273.275-.805 2.135-1.059 3.7-.077.471-.249 1.114-.384 1.429-.343.8-1.145 4.641-1.145 5.484 0 .384-.193.892-.428 1.128-.236.236-.429.862-.429 1.391 0 .53-.128 1.042-.286 1.139-.157.098-.285.564-.285 1.038 0 .473-.193 1.053-.429 1.289s-.428.797-.428 1.248-.129.9-.286.997-.286.667-.286 1.267c0 .622-.184 1.245-.428 1.447-.236.196-.429.718-.429 1.161s-.129.885-.286.982-.29.587-.295 1.088-.197 1.162-.428 1.467-.42.908-.42 1.34-.128.865-.285.962-.29.587-.295 1.088-.198 1.162-.429 1.467-.419.972-.419 1.483-.129 1.008-.286 1.105-.286.619-.286 1.16-.122.983-.272.983-.351.482-.447 1.071c-.096.59-.277 1.329-.403 1.643-.314.784.133 1.857.774 1.857.643 0 1.777-1.01 1.777-1.582 0-.23.129-.418.286-.418s.285-.193.285-.428c0-.236.127-.429.281-.429s.361-.321.459-.714.294-.714.434-.714.255-.202.255-.448.321-.869.714-1.384.715-1.085.715-1.267.104-.33.232-.33c.129 0 .804-1.125 1.5-2.5.697-1.375 1.335-2.564 1.417-2.643.335-.32 1.136-1.713 1.136-1.975 0-.155.322-.628.715-1.052s.714-.889.714-1.034c0-.144.321-.684.714-1.199s.714-1.085.714-1.267.1-.33.221-.33c.122 0 .475-.482.785-1.071.311-.59.726-1.242.922-1.449s.358-.562.358-.786c0-.225.114-.408.253-.408.138 0 .324-.225.412-.5.089-.275.569-1.207 1.068-2.072.5-.864 1.117-1.957 1.373-2.429.256-.473.755-1.264 1.108-1.759s.643-1.105.643-1.356.123-.456.273-.456c.149 0 .496-.482.77-1.071.275-.589.588-1.136.697-1.214s.47-.666.802-1.306c.333-.639.861-1.437 1.174-1.773.314-.337.57-.704.57-.816s.18-.406.4-.654c.727-.821 3.886-6.717 3.886-7.254 0-.19.321-.693.714-1.116s.714-.894.714-1.045.101-.317.224-.37c.362-.154 2.633-3.901 2.633-4.343a.64.64 0 0 1 .384-.552c.211-.081.6-.577.865-1.102.531-1.054 1.102-2.02 1.323-2.241 2.188-2.181 1.287-2.706-4.79-2.792-4.987-.07-6.09-.235-5.21-.779.157-.097.286-.476.286-.842 0-.365.192-1.033.426-1.483.235-.45.428-1.036.429-1.301.001-.266.13-.563.287-.66.158-.097.286-.492.286-.878s.123-.924.273-1.197c.383-.695 1.156-3.602 1.156-4.347 0-.34.193-.812.428-1.047.236-.236.429-.805.429-1.266s.128-.836.286-.836.285-.395.285-.878.193-1.07.429-1.306.428-.741.428-1.123c0-.381.129-.693.286-.693s.286-.311.286-.692.214-1.119.477-1.642c.896-1.789.951-1.945.951-2.683 0-.406.193-.931.429-1.167s.429-.733.429-1.106c0-.372.128-.756.285-.853s.286-.555.286-1.017.123-.84.273-.84.357-.452.461-1.004c.103-.551.302-1.073.441-1.159.14-.086.254-.48.254-.875 0-.638.047-.67.428-.289.31.31.429 1.064.429 2.718 0 1.259.128 2.369.285 2.466.158.097.286 1.124.286 2.282 0 1.491.125 2.231.429 2.534.235.236.429.856.431 1.378.005 2.291 6.858 3.399 16.212 2.621l2.929-.244-.001 26.334c0 14.483.078 26.537.174 26.786.233.607 1.255.586 1.255-.026 0-.263.166-.68.369-.929.203-.248.543-.96.755-1.583s.56-1.307.773-1.52c.214-.214.388-.629.388-.923 0-.293.129-.613.286-.71s.286-.491.286-.874c0-.384.104-.698.231-.698.28 0 1.197-2.017 1.197-2.632 0-.242.193-.601.429-.796s.429-.535.429-.753c0-.219.115-.621.256-.894.988-1.909 1.744-3.603 1.744-3.909 0-.197.321-.964.714-1.703.393-.738.714-1.514.714-1.724s.192-.749.427-1.199.428-1.036.429-1.301c0-.266.13-.563.287-.66s.29-.458.295-.803c.016-1.137.749-1.799.94-.849.632 3.151.841 3.97 1.073 4.209.145.149.263.817.263 1.483s.129 1.291.286 1.388c.157.098.286.659.286 1.248 0 .59.189 1.321.419 1.626.231.305.424 1.094.429 1.752.005.659.138 1.277.295 1.374s.285.659.285 1.248c0 .59.189 1.321.42 1.626s.423 1.094.428 1.752c.005.659.138 1.277.295 1.374s.286.659.286 1.248c0 .59.189 1.321.419 1.626.231.305.424 1.101.429 1.769s.138 1.215.295 1.215.286.633.286 1.408c0 .87.163 1.571.428 1.836.239.239.429.937.429 1.575 0 .631.128 1.226.285 1.323.158.098.286.659.286 1.248 0 .59.189 1.321.42 1.626s.423.994.428 1.53c.012 1.282.854 6.03 1.181 6.664.141.273.257 1.014.257 1.647s.122 1.374.271 1.646c.149.273.35 1.107.446 1.854.096.746.296 1.357.443 1.357s.268.571.268 1.269.129 1.348.286 1.445.287.651.288 1.231.193 1.423.428 1.873.427 1.311.427 1.912.112 1.162.249 1.247.326.542.421 1.017c.291 1.454 2.759.647 2.759-.901 0-.287.117-.522.26-.522s.882-1.231 1.643-2.737c.76-1.505 1.509-2.984 1.664-3.286.155-.301.38-.548.5-.548s.218-.137.218-.305.322-.726.715-1.241.714-1.15.714-1.41.12-.473.266-.473.357-.289.467-.643c.111-.353.28-.707.377-.785.248-.202.793-1.118 1.358-2.286.267-.55.644-1.193.839-1.429.406-.492 1.818-2.974 2.762-4.857.355-.707.742-1.328.859-1.381.118-.052.215-.392.215-.755s.193-.734.428-.824c.236-.091.429-.426.429-.745s.128-.58.286-.58.285-.138.285-.307c0-.951 1.3-1.407 1.572-.551.099.315.301.572.448.572.146 0 .266.148.266.33s.321.752.714 1.267.715 1.073.715 1.241.096.307.214.309.664.772 1.214 1.71 1.097 1.708 1.214 1.71c.118.002.215.197.215.433s.099.428.22.428c.122 0 .474.483.783 1.072s.631 1.136.715 1.214c.414.389 1.139 1.746 1.139 2.133 0 .241.099.439.221.439.121 0 .473.482.783 1.071.309.589.628 1.136.708 1.214.231.225 2.418 3.539 2.546 3.857.063.158.416.569.785.915s.671.829.671 1.072.114.442.253.442c.138 0 .327.225.42.5.176.523.781 1.541 1.063 1.786.09.078.412.593.714 1.143.303.55.614 1.064.693 1.142.079.079.393.658.698 1.286.305.629.852 1.552 1.214 2.053.363.5.659.987.659 1.083s.322.521.715.945.714.932.714 1.131.114.36.252.36c.139 0 .328.225.421.5.168.502.767 1.519 1.051 1.785.083.079.595.85 1.137 1.715.542.864 1.085 1.614 1.205 1.666.121.053.22.231.22.396s.321.599.714.963.714.835.714 1.047.113.507.251.656c.216.234.631.96 2.437 4.272.172.314.377.635.456.714.219.218 2.412 3.534 2.543 3.845.063.151.417.599.786.997.368.398.67.885.67 1.084 0 .198.129.36.286.36s.286.179.286.398c0 .218.192.472.428.562s.429.426.429.745.12.58.266.58.348.256.447.568.567.955 1.041 1.428c.786.786.809.861.268.861-.337 0-.594.186-.594.429 0 .267-.27.429-.714.429-.393 0-.714.128-.714.285s-.322.286-.715.286c-.444 0-.714.162-.714.429 0 .266-.27.428-.714.428-.393 0-.714.129-.714.286s-.322.286-.715.286c-.444 0-.714.161-.714.428s-.27.429-.714.429c-.393 0-.715.128-.715.285 0 .158-.321.286-.714.286-.444 0-.714.162-.714.429 0 .266-.27.428-.714.428-.393 0-.715.129-.715.286s-.321.286-.714.286c-.444 0-.714.162-.714.428 0 .284-.284.429-.841.429-.462 0-.919.128-1.016.286-.098.157-.495.285-.883.285-.389 0-.781.193-.871.429-.091.236-.472.428-.848.428s-.684.129-.684.286-.322.286-.714.286c-.445 0-.715.162-.715.428 0 .3-.301.429-1 .429-.55 0-1 .129-1 .286s-.307.285-.683.285-.758.193-.849.429c-.103.269-.54.429-1.173.429-.555 0-1.009.128-1.009.285s-.306.286-.679.286-.84.193-1.035.429c-.196.235-.662.428-1.035.428-.374 0-.68.129-.68.286s-.454.286-1.009.286c-.633 0-1.07.159-1.173.428-.101.265-.536.429-1.134.429-.533 0-.969.128-.969.285 0 .158-.454.286-1.009.286-.634 0-1.07.16-1.174.429-.101.264-.535.428-1.134.428-.533 0-.969.129-.969.286s-.643.286-1.429.286c-1.079 0-1.428.104-1.428.428 0 .317-.332.429-1.269.429-.698 0-1.348.128-1.445.286-.098.157-.623.285-1.169.285-.618 0-1.054.162-1.157.429-.117.307-.597.428-1.688.428-.838 0-1.604.129-1.701.286s-.751.286-1.454.286c-.872 0-1.33.136-1.442.428-.116.301-.584.429-1.563.429-.769 0-1.398.129-1.398.286 0 .165-.905.285-2.143.285-1.714 0-2.143.086-2.143.429s-.428.429-2.142.429c-1.239 0-2.143.12-2.143.285 0 .168-.982.286-2.374.286-1.645 0-2.545.129-2.929.419-.397.301-1.345.423-3.34.429-1.661.005-2.786.125-2.786.295 0 .183-2.765.286-7.723.286-6.602 0-7.747.062-7.888.428-.224.585-2.268.585-2.492 0-.141-.366-1.286-.428-7.888-.428-4.958 0-7.723-.103-7.723-.286 0-.172-1.179-.286-2.965-.286-2.287 0-3.047-.098-3.321-.428-.264-.319-.97-.429-2.749-.429-1.405 0-2.394-.118-2.394-.286 0-.165-.904-.285-2.143-.285-1.714 0-2.142-.086-2.142-.429s-.429-.429-2.143-.429c-1.238 0-2.143-.12-2.143-.285 0-.157-.629-.286-1.398-.286-.979 0-1.447-.128-1.563-.429s-.585-.428-1.585-.428c-.781 0-1.5-.129-1.597-.286s-.798-.286-1.558-.286c-.964 0-1.431-.129-1.545-.428-.103-.267-.539-.429-1.157-.429-.546 0-1.071-.128-1.169-.285-.097-.158-.747-.286-1.445-.286-.937 0-1.269-.112-1.269-.429 0-.324-.349-.428-1.428-.428-.786 0-1.429-.129-1.429-.286s-.436-.286-.969-.286c-.599 0-1.033-.164-1.134-.428-.104-.269-.54-.429-1.174-.429-.555 0-1.009-.128-1.009-.286s-.436-.285-.969-.285c-.598 0-1.033-.164-1.134-.429-.103-.269-.54-.428-1.173-.428-.555 0-1.009-.129-1.009-.286s-.306-.286-.68-.286c-.373 0-.839-.193-1.035-.428-.195-.236-.661-.429-1.035-.429s-.679-.129-.679-.286-.454-.285-1.009-.285c-.633 0-1.07-.16-1.173-.429-.091-.236-.473-.429-.849-.429s-.683-.128-.683-.285-.45-.286-1-.286c-.699 0-1-.129-1-.429 0-.266-.27-.428-.715-.428-.392 0-.714-.129-.714-.286s-.308-.286-.684-.286-.757-.192-.848-.428-.482-.429-.871-.429c-.388 0-.785-.128-.883-.285-.097-.158-.554-.286-1.016-.286-.557 0-.841-.145-.841-.429 0-.266-.27-.428-.714-.428-.393 0-.714-.129-.714-.286s-.322-.286-.715-.286c-.444 0-.714-.162-.714-.428 0-.267-.27-.429-.714-.429-.393 0-.714-.128-.714-.286s-.322-.285-.715-.285c-.444 0-.714-.162-.714-.429s-.27-.428-.714-.428c-.393 0-.715-.129-.715-.286s-.321-.286-.714-.286c-.444 0-.714-.162-.714-.428 0-.267-.27-.429-.714-.429-.393 0-.715-.129-.715-.286s-.321-.285-.714-.285c-.444 0-.714-.162-.714-.429 0-.241-.256-.429-.584-.429-.321 0-.931-.321-1.354-.714s-.933-.714-1.131-.714-.36-.129-.36-.286-.321-.286-.714-.286-.715-.16-.717-.357c-.002-.369-1.256-1.071-1.912-1.071-.204 0-.371-.193-.371-.429 0-.241-.255-.428-.584-.428-.321 0-.931-.322-1.354-.715s-.933-.714-1.131-.714-.36-.128-.36-.286-.261-.285-.58-.285-.655-.193-.745-.429-.344-.428-.562-.428-.398-.129-.398-.286-.322-.286-.715-.286-.714-.146-.714-.326c0-.439-.882-1.082-1.5-1.093-.275-.005-.5-.202-.5-.438a.43.43 0 0 0-.429-.429c-.235 0-.428-.128-.428-.285a.293.293 0 0 0-.298-.286c-.28 0-.603-.224-1.549-1.071-.219-.197-.536-.358-.704-.358-.169 0-.306-.192-.306-.428s-.225-.433-.5-.438c-.618-.011-1.5-.655-1.5-1.094 0-.179-.193-.325-.429-.325s-.428-.129-.428-.286-.24-.286-.532-.286-.773-.321-1.068-.714-.698-.714-.897-.714c-.198 0-.361-.193-.361-.429a.43.43 0 0 0-.428-.428c-.236 0-.429-.129-.429-.286s-.257-.286-.571-.286c-.318 0-.572-.19-.572-.428 0-.236-.126-.429-.28-.429s-.744-.45-1.31-1-1.276-1-1.577-1-.547-.138-.547-.306c0-.396-.727-1.123-1.122-1.123a.306.306 0 0 1-.306-.306c0-.329-.702-1.122-.994-1.122-.097 0-.474-.322-.839-.714-.364-.393-.872-.715-1.129-.715s-.467-.193-.467-.428c0-.236-.138-.429-.306-.429-.396 0-1.123-.727-1.123-1.122a.306.306 0 0 0-.306-.306c-.395 0-1.122-.727-1.122-1.123a.307.307 0 0 0-.306-.306c-.396 0-1.123-.727-1.123-1.122 0-.169-.128-.307-.285-.307-.372 0-2.572-2.199-2.572-2.571 0-.157-.138-.286-.306-.286-.396 0-1.122-.727-1.122-1.122a.307.307 0 0 0-.307-.306c-.395 0-1.122-.727-1.122-1.123a.307.307 0 0 0-.306-.306c-.396 0-1.123-.727-1.123-1.122a.306.306 0 0 0-.306-.306c-.33 0-.957-.55-1.148-1.006-.347-.831-1.594-2.416-1.903-2.419-.196-.002-.357-.142-.357-.31 0-.396-.727-1.123-1.122-1.123a.306.306 0 0 1-.306-.306c0-.395-.727-1.122-1.123-1.122-.168 0-.306-.246-.306-.547s-.45-1.01-1-1.577c-.55-.566-1-1.156-1-1.31s-.169-.28-.375-.28c-.207 0-.552-.45-.768-1s-.561-1-.767-1c-.207 0-.376-.138-.376-.307 0-.395-.727-1.122-1.122-1.122-.169 0-.306-.274-.306-.609s-.45-1.034-1-1.552c-.55-.519-1-1.209-1-1.534 0-.335-.186-.591-.429-.591a.43.43 0 0 1-.428-.428c0-.236-.129-.429-.286-.429s-.286-.221-.286-.491-.298-.752-.662-1.071-.75-.774-.856-1.009c-.334-.743-.898-1.569-1.839-2.693-.196-.234-.357-.56-.357-.724s-.114-.298-.253-.298c-.138 0-.337-.225-.441-.5-.354-.939-.87-1.785-1.088-1.785-.12 0-.218-.162-.218-.36s-.306-.69-.679-1.093c-.374-.402-.768-1.012-.877-1.354s-.317-.622-.463-.622-.267-.193-.267-.428c0-.236-.128-.429-.286-.429s-.285-.321-.285-.714c0-.445-.162-.715-.429-.715s-.428-.269-.428-.714c0-.393-.129-.714-.286-.714s-.286-.261-.286-.581-.171-.646-.38-.726-.554-.59-.767-1.134c-.214-.543-.557-.988-.763-.988-.21 0-.376-.315-.376-.714 0-.393-.128-.714-.285-.714s-.286-.322-.286-.715c0-.444-.162-.714-.429-.714-.266 0-.428-.27-.428-.714 0-.393-.129-.714-.286-.714s-.286-.322-.286-.715c0-.444-.161-.714-.428-.714s-.429-.27-.429-.714c0-.393-.128-.715-.285-.715-.158 0-.286-.321-.286-.714 0-.444-.162-.714-.429-.714-.266 0-.428-.27-.428-.714 0-.393-.129-.715-.286-.715s-.286-.321-.286-.714c0-.444-.162-.714-.428-.714-.3 0-.429-.302-.429-1 0-.55-.128-1-.286-1s-.285-.326-.285-.724-.193-.797-.429-.887c-.236-.091-.428-.472-.428-.848s-.129-.684-.286-.684-.286-.308-.286-.684-.193-.758-.428-.848c-.251-.096-.429-.524-.429-1.031 0-.476-.129-.866-.286-.866s-.285-.307-.285-.683-.193-.758-.429-.849c-.269-.103-.429-.54-.429-1.173 0-.555-.128-1.009-.285-1.009s-.286-.321-.286-.714c0-.445-.162-.715-.429-.715-.297 0-.428-.299-.428-.983 0-.54-.129-1.062-.286-1.159-.157-.098-.286-.606-.286-1.13 0-.583-.166-1.016-.428-1.117-.248-.095-.429-.522-.429-1.013 0-.467-.128-.929-.285-1.026-.158-.097-.286-.619-.286-1.16 0-.683-.131-.983-.429-.983-.317 0-.428-.333-.428-1.286 0-.707-.129-1.285-.286-1.285s-.286-.515-.286-1.143c0-.826-.119-1.143-.428-1.143-.324 0-.429-.349-.429-1.429 0-.785-.128-1.428-.286-1.428s-.285-.499-.285-1.108c0-.636-.183-1.259-.429-1.464-.274-.227-.428-.859-.428-1.749 0-.766-.129-1.394-.286-1.394s-.286-.642-.286-1.428c0-1.08-.105-1.429-.428-1.429-.333 0-.429-.379-.429-1.697 0-.934-.129-1.777-.286-1.874s-.285-.931-.285-1.854c0-1.109-.145-1.822-.429-2.105-.287-.287-.429-1.003-.429-2.164 0-.966-.126-1.734-.285-1.734-.171 0-.286-1.099-.286-2.724 0-2.157-.089-2.757-.429-2.887-.349-.134-.428-.822-.428-3.706 0-2.17-.111-3.54-.286-3.54-.183 0-.286-2.588-.286-7.192 0-6.291-.059-7.257-.472-7.715-.44-.486-.44-.558 0-1.044.413-.458.472-1.424.472-7.715 0-4.604.103-7.192.286-7.192.175 0 .286-1.37.286-3.54 0-2.884.079-3.572.428-3.706.34-.13.429-.73.429-2.887 0-1.625.115-2.724.286-2.724.16 0 .285-.798.285-1.822 0-1.271.13-1.93.429-2.178.291-.241.429-.889.429-2.018 0-.914.128-1.742.285-1.839s.286-.94.286-1.874c0-1.318.096-1.697.429-1.697.323 0 .428-.349.428-1.429 0-.786.129-1.428.286-1.428s.286-.628.286-1.394c0-.89.154-1.522.428-1.749.246-.205.429-.828.429-1.464 0-.609.128-1.108.285-1.108.158 0 .286-.643.286-1.428 0-1.08.105-1.429.429-1.429.309 0 .428-.317.428-1.143 0-.628.129-1.143.286-1.143s.286-.518.286-1.151c0-.761.145-1.208.428-1.317.263-.1.429-.534.429-1.117 0-.524.128-1.032.286-1.129s.285-.559.285-1.026c0-.491.181-.918.429-1.013.262-.101.428-.534.428-1.117 0-.524.129-1.032.286-1.13s.286-.435.286-.751.193-.768.428-1.004c.236-.235.429-.74.429-1.122s.129-.694.286-.694.285-.454.285-1.009c0-.633.16-1.07.429-1.173.236-.091.429-.473.429-.849s.128-.683.285-.683.286-.39.286-.866c0-.507.178-.935.429-1.031.235-.09.428-.472.428-.848s.129-.684.286-.684.286-.306.286-.679.192-.84.428-1.035c.236-.196.429-.597.429-.892s.128-.537.285-.537c.158 0 .286-.45.286-1 0-.698.129-1 .429-1 .266 0 .428-.27.428-.714 0-.393.129-.714.286-.714s.286-.308.286-.684.193-.758.428-.848c.236-.091.429-.426.429-.745s.128-.58.286-.58.285-.322.285-.715c0-.444.162-.714.429-.714s.428-.27.428-.714c0-.393.129-.715.286-.715s.286-.321.286-.714c0-.444.162-.714.428-.714.267 0 .429-.27.429-.714 0-.393.129-.715.286-.715s.285-.321.285-.714c0-.399.166-.714.376-.714.206 0 .549-.445.763-.988.213-.544.558-1.054.767-1.134s.38-.407.38-.726c0-.32.129-.581.286-.581s.286-.321.286-.714c0-.445.161-.714.428-.714s.429-.27.429-.715c0-.393.128-.714.285-.714.158 0 .286-.179.286-.398s.193-.472.429-.562a.72.72 0 0 0 .428-.615c0-.247.322-.797.715-1.22.392-.424.714-.933.714-1.131s.113-.36.252-.36.338-.225.441-.5c.355-.939.871-1.785 1.089-1.785.12 0 .218-.134.218-.298 0-.274.17-.525 1.016-1.498.166-.191.39-.54.498-.776a6.7 6.7 0 0 1 1.557-2.148c.354-.321.643-.805.643-1.075s.129-.491.286-.491.286-.193.286-.429a.43.43 0 0 1 .428-.428c.243 0 .429-.256.429-.591 0-.325.45-1.015 1-1.534.55-.518 1-1.217 1-1.552s.137-.609.306-.609c.395 0 1.122-.727 1.122-1.122 0-.169.169-.307.376-.307.206 0 .551-.45.767-1s.561-1 .768-1a.37.37 0 0 0 .375-.36c0-.199.297-.584.661-.857.363-.273.837-.947 1.053-1.497s.506-1 .645-1c.353 0 1.07-.752 1.07-1.122 0-.169.137-.306.306-.306.395 0 1.122-.727 1.122-1.123 0-.168.161-.308.357-.31.309-.003 1.556-1.588 1.903-2.419.191-.456.818-1.006 1.148-1.006a.306.306 0 0 0 .306-.306c0-.395.727-1.122 1.123-1.122a.307.307 0 0 0 .306-.306c0-.396.727-1.123 1.122-1.123a.307.307 0 0 0 .307-.306c0-.395.726-1.122 1.122-1.122.168 0 .306-.129.306-.286s.514-.8 1.143-1.429c.629-.628 1.271-1.142 1.429-1.142.157 0 .285-.138.285-.307 0-.395.727-1.122 1.123-1.122a.307.307 0 0 0 .306-.306c0-.396.727-1.123 1.122-1.123a.306.306 0 0 0 .306-.306c0-.395.727-1.122 1.123-1.122.168 0 .306-.193.306-.429 0-.235.21-.428.467-.428s.765-.322 1.129-.715c.365-.392.742-.714.839-.714.292 0 .994-.793.994-1.122 0-.169.137-.306.306-.306.395 0 1.122-.727 1.122-1.123 0-.168.246-.306.547-.306s1.01-.45 1.577-1c.566-.55 1.156-1 1.31-1s.28-.193.28-.429c0-.238.254-.428.572-.428.314 0 .571-.129.571-.286s.193-.286.429-.286a.43.43 0 0 0 .428-.428c0-.236.163-.429.361-.429.199 0 .602-.321.897-.714s.776-.714 1.068-.714.532-.129.532-.286.192-.286.428-.286.429-.146.429-.325c0-.439.882-1.083 1.5-1.094.275-.005.5-.202.5-.438s.134-.428.297-.428c.281 0 .604-.224 1.549-1.072.219-.196.536-.357.705-.357s.306-.129.306-.286.193-.285.428-.285A.43.43 0 0 0 94 45c0-.236.225-.433.5-.438.618-.011 1.5-.654 1.5-1.093 0-.18.321-.326.714-.326s.715-.129.715-.286.179-.286.398-.286c.218 0 .472-.192.562-.428s.426-.429.745-.429.58-.128.58-.285c0-.158.162-.286.36-.286s.707-.322 1.131-.714c.423-.393 1.033-.715 1.354-.715.329 0 .584-.187.584-.428 0-.236.167-.429.371-.429.656 0 1.91-.702 1.912-1.071.002-.197.324-.357.717-.357s.714-.129.714-.286.162-.286.36-.286.707-.321 1.131-.714c.423-.393 1.033-.714 1.354-.714.328 0 .584-.188.584-.429 0-.267.27-.429.714-.429.393 0 .714-.128.714-.285s.322-.286.715-.286c.444 0 .714-.162.714-.429 0-.266.27-.428.714-.428.393 0 .714-.129.714-.286s.322-.286.715-.286c.444 0 .714-.161.714-.428s.27-.429.714-.429c.393 0 .715-.128.715-.285 0-.158.321-.286.714-.286.444 0 .714-.162.714-.429 0-.266.27-.428.714-.428.393 0 .715-.129.715-.286s.321-.286.714-.286c.444 0 .714-.162.714-.428 0-.284.284-.429.841-.429.462 0 .919-.128 1.016-.286.098-.157.411-.285.697-.285.285 0 .679-.193.875-.429s.661-.428 1.035-.428.679-.129.679-.286.322-.286.714-.286c.445 0 .715-.162.715-.428 0-.3.301-.429 1-.429.55 0 1-.129 1-.286s.307-.285.683-.285.758-.193.849-.429c.103-.269.54-.429 1.173-.429.555 0 1.009-.128 1.009-.285s.306-.286.679-.286.84-.193 1.035-.429c.196-.235.662-.428 1.035-.428.374 0 .68-.129.68-.286s.454-.286 1.009-.286c.633 0 1.07-.159 1.173-.428.101-.265.536-.429 1.134-.429.533 0 .969-.128.969-.285 0-.158.454-.286 1.009-.286.634 0 1.07-.16 1.174-.429.1-.262.534-.428 1.117-.428.524 0 1.032-.129 1.129-.286s.747-.286 1.445-.286c.938 0 1.269-.112 1.269-.428 0-.317.332-.429 1.269-.429.698 0 1.348-.128 1.445-.286.098-.157.623-.285 1.169-.285.618 0 1.054-.162 1.157-.429.114-.299.581-.428 1.545-.428.76 0 1.461-.129 1.558-.286s.816-.286 1.597-.286c1 0 1.47-.127 1.585-.428.115-.3.582-.429 1.546-.429.76 0 1.461-.129 1.558-.286s1.069-.285 2.159-.285c1.573 0 1.984-.089 1.984-.429 0-.343.428-.429 2.142-.429 1.239 0 2.143-.12 2.143-.285 0-.168.989-.286 2.394-.286 1.779 0 2.485-.11 2.749-.429.274-.33 1.032-.428 3.304-.428 1.657 0 3.025-.125 3.125-.286.11-.179 3.006-.286 7.74-.286 6.459 0 7.587-.062 7.728-.428.106-.277.548-.429 1.246-.429s1.14.152 1.246.429" />
</svg>