<svg viewBox="0 0 578.7 578.66" xmlns="http://www.w3.org/2000/svg" xmlns:xlink="http://www.w3.org/1999/xlink"><clipPath id="a" transform="translate(-10.65 -10.67)"><path d="m0 0h600v600h-600z"/></clipPath><g clip-path="url(#a)"><path d="m300 584.35a14.57 14.57 0 0 1 -10.38-4.3l-269.62-269.65a14.68 14.68 0 0 1 0-20.77l269.62-269.63a14.68 14.68 0 0 1 20.76 0l269.62 269.63a14.68 14.68 0 0 1 0 20.77l-269.62 269.65a14.57 14.57 0 0 1 -10.38 4.3" fill="#4f504f" transform="translate(-10.65 -10.67)"/><g fill="#fff"><path d="m300 20.67a9.62 9.62 0 0 1 6.84 2.82l269.65 269.68a9.65 9.65 0 0 1 0 13.69l-269.65 269.65a9.63 9.63 0 0 1 -13.68 0l-269.65-269.65a9.65 9.65 0 0 1 0-13.69l269.65-269.68a9.62 9.62 0 0 1 6.84-2.82m0-10a19.65 19.65 0 0 0 -13.93 5.78l-269.64 269.64a19.64 19.64 0 0 0 0 27.82l269.64 269.68a19.77 19.77 0 0 0 27.86 0l269.64-269.68a19.64 19.64 0 0 0 0-27.82l-269.64-269.64a19.65 19.65 0 0 0 -13.93-5.78" transform="translate(-10.65 -10.67)"/><path d="m236 212.27 49.56-48.42a1.63 1.63 0 0 1 2.84 1.3v97.73a1.63 1.63 0 0 1 -2.84 1.29l-49.56-48.41a2.61 2.61 0 0 1 0-3.49z" transform="translate(-10.65 -10.67)"/><path d="m307.09 173.68v11.44q-3.54-.08-7.09-.07-3 0-6 0v-21.05l10.27 5.12a5.14 5.14 0 0 1 2.82 4.56z" transform="translate(-10.65 -10.67)"/><path d="m307.09 243.22v11.64a5.16 5.16 0 0 1 -2.86 4.61l-10.23 5.11v-21.37q3 0 6 0c2.37-.04 4.74-.03 7.09.01z" transform="translate(-10.65 -10.67)"/><path d="m300 189c14.08 0 30.92.91 44.26 2.21a3 3 0 0 1 2.74 3l-1.66 7.19a65.93 65.93 0 0 0 0 29.61l1.68 7.36a3 3 0 0 1 -3.32 3c-13.1-1.22-29.73-2.11-43.68-2.11q-5.85 0-11.6.16h-2v-50.26h2c3.83-.16 7.69-.16 11.58-.16z" transform="translate(-10.65 -10.67)"/><path d="m372.27 195.15a297.45 297.45 0 0 1 43.22 11.15 3 3 0 0 1 2 3.52l-1.71 8.08a66 66 0 0 0 -.16 26.56l1.44 7.24a3 3 0 0 1 -3.86 3.5 316.65 316.65 0 0 0 -41.74-10.06 3.06 3.06 0 0 1 -2.51-2.41l-2.06-10.39a66.32 66.32 0 0 1 .11-26.22l1.78-8.57a3 3 0 0 1 3.49-2.4z" transform="translate(-10.65 -10.67)"/><path d="m471.67 246.53c0 4.73-6.14 14-21.48 23.91a111.48 111.48 0 0 0 -15.54-7.5 3 3 0 0 1 -1.88-2.25l-2-10.17a66.12 66.12 0 0 1 .24-27c.52-2.39 1-4.7 1.4-6.51a3 3 0 0 1 4.23-2.15c28.36 12.8 35.03 25.42 35.03 31.67z" transform="translate(-10.65 -10.67)"/><path d="m490.44 246.54v73.68c0 22.29-21.2 42.48-55.5 57.11v-73.68q8.13-3.47 15.25-7.34a121 121 0 0 0 19.43-12.93c13.32-11.05 20.82-23.57 20.82-36.84z" transform="translate(-10.65 -10.67)"/><path d="m290.63 332.65v-37.1c0-2.42 2.74-4.21 4.72-3.09l88.13 68.44a4.42 4.42 0 0 1 0 7l-88.13 68.44c-2 1.12-4.72-.69-4.72-3.08z" transform="translate(-10.65 -10.67)"/><path d="m307.35 292.12 19.59 3.68a14.2 14.2 0 0 1 6.14 2.76l80.82 62.34a4.45 4.45 0 0 1 0 7l-80.82 62.34a14.2 14.2 0 0 1 -6.14 2.76l-19.59 3.68 87.42-68.8a4.44 4.44 0 0 0 0-7z" transform="translate(-10.65 -10.67)"/><path d="m293.65 327.43v73.68a475.07 475.07 0 0 1 -72.53-7.26 3.06 3.06 0 0 1 -2.49-3.44l1.7-12a152.06 152.06 0 0 0 .17-41.7l-1.73-12.9a3 3 0 0 1 3.55-3.41 474.69 474.69 0 0 0 71.33 7.03z" transform="translate(-10.65 -10.67)"/><path d="m213.39 198.12v50c-24.85 5.4-46.54 13.07-63.58 22.35-15.33-9.87-21.47-19.2-21.47-23.92 0-6.51 11.69-21.8 43.07-35.14a250.37 250.37 0 0 1 41.98-13.29z" transform="translate(-10.65 -10.67)"/><path d="m149.8 296.31c2.45 1.33 1.8 1.07 3.13 1.69a3.05 3.05 0 0 1 1.73 2.37l2.17 16.81a152.33 152.33 0 0 1 -.4 41.79l-1.38 9.32a3.06 3.06 0 0 1 -4.37 2.29c-28.38-14-41.12-30.16-41.12-50.36v-73.69c0 13.28 7.51 25.8 20.82 36.85a122.19 122.19 0 0 0 19.42 12.93z" transform="translate(-10.65 -10.67)"/><path d="m175.24 307.59c7.56 2.74 15.6 5.53 24.06 7.68a3.06 3.06 0 0 1 2.28 2.55l2 15.3a152.16 152.16 0 0 1 -.21 41.66l-1.62 11.32a3.06 3.06 0 0 1 -3.8 2.52c-8.86-2.34-17.27-5.34-25.13-8.22a3 3 0 0 1 -2-3.3l1.68-11.48a152.72 152.72 0 0 0 .32-41.79l-1.7-13a3 3 0 0 1 4.12-3.24z" transform="translate(-10.65 -10.67)"/></g></g></svg>