<svg height="600" viewBox="0 0 600 600" width="600" xmlns="http://www.w3.org/2000/svg"
    xmlns:xlink="http://www.w3.org/1999/xlink" fill="currentColor">
    <clipPath id="a">
        <path d="m0 531h69v67.1875h-69zm0 0" />
    </clipPath>
    <path
        d="m450.726562 1.8125-136.234374 96.375-112.316407-81.160156 5.796875 134.785156-184.785156 7.96875 155.074219 120.292969 25.363281-15.21875-46.378906-57.972657 94.929687-10.144531 4.347657-85.507812 55.796874 34.785156 88.40625-42.753906 11.59375 98.550781 65.941407 16.664062-55.074219 32.609376 39.855469 70.289062-76.8125-2.171875-6.519531 95.652344-60.144532-46.378907-13.769531 26.089844 104.347656 156.519532 15.941407-189.855469 155.074218 54.347656-95.652344-151.449219 114.492188-52.171875-140.578125-47.101562zm0 0" />
    <path
        d="m307.246094 201.8125-213.769532 237.679688-36.230468-32.609376-17.390625 12.320313 140.578125 126.8125 10.144531-18.117187-36.230469-33.332032 216.667969-234.785156 10.144531-75.359375zm0 0" />
    <path
        d="m116.667969 508.332031-60.871094 66.667969c-7.613281-.257812-14.851563-3.359375-20.289063-8.695312-7.042968-5.246094-11.730468-13.058594-13.042968-21.738282l60.867187-66.667968zm0 0" />
    <g clip-path="url(#a)">
        <path
            d="m56.523438 598.1875c-21.820313-14.445312-40.949219-32.59375-56.523438-53.621094l16.667969-13.042968c18.472656 13.65625 35.691406 28.933593 51.449219 45.652343zm0 0" />
    </g>
</svg>