<svg id="svg" xmlns="http://www.w3.org/2000/svg" xmlns:xlink="http://www.w3.org/1999/xlink" width="400" height="400" viewBox="0, 0, 400,400"><g id="svgg"><path id="path0" d="M111.624 12.557 C 71.581 17.135,36.485 34.013,7.235 62.758 C -1.445 71.288,-1.526 71.552,5.109 69.720 C 131.964 34.692,244.616 88.888,259.521 192.117 C 261.845 208.212,261.846 231.891,259.523 243.542 L 259.225 245.039 233.700 240.478 C 219.661 237.969,207.725 235.981,207.175 236.060 C 206.379 236.175,209.151 241.991,220.739 264.526 C 228.750 280.102,235.310 293.044,235.316 293.285 C 235.323 293.526,230.270 293.734,224.088 293.749 L 212.847 293.775 174.051 312.324 C 152.714 322.527,135.184 331.121,135.095 331.422 C 135.007 331.724,145.769 344.715,159.012 360.292 L 183.089 388.613 267.457 388.723 L 351.825 388.833 375.766 360.501 C 388.934 344.918,399.708 331.885,399.708 331.539 C 399.708 331.192,382.234 322.558,360.876 312.351 L 322.044 293.794 315.480 293.612 L 308.916 293.431 326.709 277.098 C 336.496 268.115,344.311 260.592,344.076 260.379 C 343.842 260.166,332.655 258.056,319.217 255.689 C 305.779 253.323,294.551 251.243,294.265 251.068 C 293.980 250.892,294.382 247.739,295.159 244.060 C 311.554 166.454,294.674 96.343,249.927 56.180 C 213.873 23.821,160.460 6.973,111.624 12.557 M251.715 324.672 C 255.682 332.380,259.118 338.686,259.351 338.686 C 259.583 338.686,266.609 332.380,274.964 324.672 L 290.155 310.657 299.242 310.657 L 308.328 310.657 327.044 320.018 L 345.760 329.380 343.537 331.890 C 342.314 333.271,335.927 340.489,329.343 347.930 L 317.372 361.460 267.445 361.447 L 217.518 361.434 205.547 347.924 C 198.964 340.494,192.576 333.282,191.354 331.897 L 189.130 329.380 207.704 320.050 L 226.277 310.720 235.390 310.689 L 244.502 310.657 251.715 324.672 " stroke="none" fill="currentColor" fill-rule="evenodd"></path></g></svg>