<svg viewBox="0 0 578.7 578.7" xmlns="http://www.w3.org/2000/svg" xmlns:xlink="http://www.w3.org/1999/xlink"><clipPath id="a" transform="translate(-10.65 -10.65)"><path d="m0 0h600v600h-600z"/></clipPath><g clip-path="url(#a)"><path d="m300 586.22a14.66 14.66 0 0 1 -10.45-4.33l-271.44-271.44a14.78 14.78 0 0 1 0-20.9l271.44-271.44a14.77 14.77 0 0 1 20.9 0l271.44 271.44a14.78 14.78 0 0 1 0 20.9l-271.44 271.44a14.66 14.66 0 0 1 -10.45 4.33" fill="#c88c4e" transform="translate(-10.65 -10.65)"/><g fill="#fff"><path d="m300 20.66a9.66 9.66 0 0 1 6.84 2.82l269.65 269.66a9.63 9.63 0 0 1 0 13.72l-269.65 269.66a9.71 9.71 0 0 1 -13.68 0l-269.65-269.66a9.68 9.68 0 0 1 0-13.72l269.65-269.66a9.66 9.66 0 0 1 6.84-2.82m0-10a19.67 19.67 0 0 0 -13.93 5.79l-269.66 269.64a19.68 19.68 0 0 0 0 27.82l269.66 269.66a19.68 19.68 0 0 0 27.86 0l269.66-269.66a19.68 19.68 0 0 0 0-27.82l-269.66-269.65a19.67 19.67 0 0 0 -13.93-5.79" transform="translate(-10.65 -10.65)"/><path d="m443.65 273-15.12 15.24h-347.32l-7.21 11.76 7.22 11.82h347.31l15.12 15.24a6.4 6.4 0 0 0 6.79 1.48l72.61-27.44a1.2 1.2 0 0 0 0-2.23l-72.61-27.4a6.4 6.4 0 0 0 -6.79 1.48" transform="translate(-10.65 -10.65)"/><path d="m265.27 252.12-19.5-37.61 27.52 5 5-55.09 22.59 35.12 51.37-89.15-7.09 91.18 41.66-22.12-22.5 48.84 30.23 2.49-43.1 30a3.37 3.37 0 0 1 -4.77-.92 45 45 0 0 0 -37.28-21.28c-16.54-.42-32.54 9.88-39.13 14.69a3.36 3.36 0 0 1 -5-1.18" transform="translate(-10.65 -10.65)"/><path d="m335.57 349 20 38.53-28.19-5.14-5.1 56.43-23.14-36-52.64 91.38 7.26-93.4-42.68 22.66 23-50-31-2.55 44.15-30.74a3.46 3.46 0 0 1 4.89.95 46.07 46.07 0 0 0 38.18 21.79c16.95.43 33.34-10.12 40.08-15.05a3.44 3.44 0 0 1 5.1 1.21" transform="translate(-10.65 -10.65)"/></g></g></svg>