<svg viewBox="0 0 26.99 26.99" xmlns="http://www.w3.org/2000/svg"><path d="m13.5 26.76a.68.68 0 0 1 -.49-.2l-12.58-12.56a.7.7 0 0 1 0-1l12.57-12.57a.69.69 0 0 1 1 0l12.56 12.57a.68.68 0 0 1 0 1l-12.56 12.56a.67.67 0 0 1 -.48.2" fill="#4f504f"/><g fill="#fff"><path d="m13.5 0a.91.91 0 0 0 -.65.27l-12.58 12.58a.92.92 0 0 0 0 1.3l12.58 12.58a.94.94 0 0 0 .65.26 1 1 0 0 0 .65-.26l12.58-12.58a.94.94 0 0 0 0-1.3l-12.58-12.58a.92.92 0 0 0 -.65-.27m0 .47a.44.44 0 0 1 .32.13l12.58 12.58a.46.46 0 0 1 .13.32.48.48 0 0 1 -.13.32l-12.58 12.58a.48.48 0 0 1 -.32.13.46.46 0 0 1 -.32-.13l-12.58-12.58a.44.44 0 0 1 -.13-.32.42.42 0 0 1 .13-.32l12.58-12.58a.42.42 0 0 1 .32-.13"/><path d="m10.4 12.81-.4 2.91c0 .23.27.37.53.23a6.36 6.36 0 0 1 3-.8 6.43 6.43 0 0 1 3 .8c.25.14.56 0 .53-.23l-.44-2.91a.76.76 0 0 0 -.38-.51 5.07 5.07 0 0 0 -2.72-.67 5 5 0 0 0 -2.72.67.73.73 0 0 0 -.38.51"/><path d="m9.4 19.43-.15 1a.39.39 0 0 0 .63.34 6.74 6.74 0 0 1 3.62-1.16 6.73 6.73 0 0 1 3.61 1.16.39.39 0 0 0 .63-.34l-.15-1a1.41 1.41 0 0 0 -.53-.89 5.59 5.59 0 0 0 -3.56-1.14 5.65 5.65 0 0 0 -3.57 1.14 1.41 1.41 0 0 0 -.53.89"/><path d="m13.33 4.06-4.74 2.68c-.12.07-.06.17.11.17h2.58l-.56 3.73c0 .15.23.23.42.15a5.8 5.8 0 0 1 4.71 0c.2.08.44 0 .42-.15l-.56-3.73h2.59c.16 0 .23-.1.11-.17l-4.75-2.68a.38.38 0 0 0 -.33 0"/><path d="m10.63 7.47-.25 1.67h-.92a.59.59 0 0 1 -.46-.14l-.29-1.5z"/><path d="m18.33 7.47-.33 1.53a.59.59 0 0 1 -.45.17h-1l-.25-1.67h2"/></g></svg>