<?xml version="1.0" encoding="UTF-8"?>
<svg xmlns="http://www.w3.org/2000/svg" xmlns:xlink="http://www.w3.org/1999/xlink" width="1000px" height="1000px"
    viewBox="0 0 1000 1166" version="1.1">
    <defs>
        <clipPath id="clip1">
            <path d="M 9.582031 0 L 990.417969 0 L 990.417969 1166 L 9.582031 1166 Z M 9.582031 0 " />
        </clipPath>
    </defs>
    <g id="surface1">
        <g clip-path="url(#clip1)" clip-rule="nonzero">
            <path style=" stroke:none;fill-rule:nonzero;fill:currentColor;"
                d="M 878.75 221.539062 C 844.058594 188.292969 821.722656 144.234375 815.417969 96.613281 C 753.21875 97.4375 691.300781 88.152344 632.082031 69.128906 C 585.066406 52.007812 540.515625 28.761719 499.582031 0 C 458.929688 28.949219 414.664062 52.46875 367.917969 69.960938 C 308.652344 88.703125 246.734375 97.703125 184.582031 96.613281 C 177.671875 144.222656 155.097656 188.175781 120.417969 221.539062 C 86.59375 255.667969 49.46875 286.355469 9.582031 313.152344 C 9.582031 313.152344 31.25 753.734375 176.25 922.804688 C 265.980469 1026.117188 376.792969 1109.042969 501.25 1166 C 625.707031 1109.042969 736.519531 1026.117188 826.25 922.804688 C 969.582031 756.234375 992.917969 313.152344 992.917969 313.152344 C 952.832031 286.277344 915.4375 255.597656 881.25 221.539062 " />
        </g>
    </g>
</svg>