<svg height="400" viewBox="0 0 400 400" width="400" xmlns="http://www.w3.org/2000/svg">
    <g fill-rule="evenodd">
        <path
            d="m190.229 2.84c-.515.036-2.433.163-4.262.282-5.572.365-12.529 1.119-13.306 1.443-.229.095-1.866.383-3.638.638-7.242 1.046-23.511 4.639-24.422 5.394-.118.098-1.102.428-2.187.733-4.646 1.306-13.153 4.277-15.568 5.437-.842.405-2.012.904-2.598 1.11-2.704.946-10.39 4.41-10.885 4.905-.162.162-.397.295-.521.295-.315 0-9.896 4.984-10.237 5.325-.153.152-.965.641-1.805 1.085-1.76.932-8.129 4.784-8.284 5.011-.118.172-3.73 2.605-4.061 2.736-.441.173-3.97 2.688-4.652 3.315-.389.358-1.091.891-1.559 1.185-2.047 1.286-11.647 9.144-14.549 11.909-.928.884-2.109 1.969-2.626 2.412-1.52 1.304-7.9 7.748-10.089 10.192-1.112 1.241-2.231 2.443-2.486 2.672-1.164 1.042-10.914 13.144-10.914 13.548 0 .095-.378.594-.84 1.109-.462.514-2.02 2.713-3.462 4.886-1.443 2.172-2.69 3.996-2.771 4.054-.21.148-4.156 6.68-5.086 8.42-.428.8-.84 1.502-.915 1.559-.312.236-1.038 1.566-3.285 6.016-1.303 2.58-2.463 4.809-2.579 4.953-.424.529-4.659 10.118-5.072 11.484-.086.286-.476 1.206-.866 2.045-1.292 2.781-4.393 11.777-5.602 16.25-.201.743-.428 1.398-.506 1.456-.684.505-4.358 17.115-5.402 24.428-.245 1.715-.531 3.305-.635 3.534-.215.471-1.077 8.093-1.483 13.098-.366 4.525-.366 24.373 0 28.898.398 4.906 1.266 12.62 1.475 13.098.1.228.432 2.099.739 4.158 1.039 6.988 4.68 23.392 5.281 23.793.095.063.282.559.417 1.102.797 3.219 4.922 15.315 5.568 16.328.167.262.617 1.297 1 2.302 1.331 3.487 4.747 11.221 5.06 11.456.082.062 1.306 2.422 2.72 5.245 1.415 2.823 2.738 5.311 2.941 5.529s.749 1.1 1.213 1.96c1.085 2.013 4.787 8.126 5.007 8.268.092.059.74.997 1.44 2.083 1.554 2.411 3.988 5.947 4.581 6.653.24.286 1.202 1.549 2.137 2.807 1.978 2.66 3.729 4.945 3.903 5.093.236.202 3.452 4.065 4.043 4.857.33.442 1.419 1.658 2.422 2.703 1.002 1.045 2.138 2.282 2.525 2.749s2.536 2.666 4.777 4.886c7.827 7.754 12.973 12.264 19.961 17.492 1.181.883 2.307 1.746 2.504 1.917.841.731 4.339 3.219 5.775 4.106.858.53 2.198 1.435 2.978 2.011 1.276.943 8.888 5.641 9.139 5.641.056 0 .66.373 1.342.828 3.338 2.229 19.514 10.08 22.924 11.127.286.087.571.238.633.334.192.298 5.878 2.381 11.321 4.149 2.859.929 5.478 1.813 5.821 1.965 2.197.974 16.147 4.264 22.454 5.295 1.486.243 2.89.526 3.118.627 1.1.49 13.688 1.884 20.79 2.302 4.773.281 21.469.15 25.78-.203 7.091-.58 16.297-1.695 17.256-2.09.228-.094 1.351-.332 2.494-.529 7.976-1.373 20.83-4.39 23.077-5.418.343-.156 2.412-.849 4.598-1.538 5.937-1.873 12.365-4.247 12.519-4.622.039-.093.181-.169.317-.169.53 0 10.042-4.209 13.058-5.779 1.754-.912 4.451-2.312 5.995-3.11 1.543-.798 4.537-2.504 6.653-3.791 2.115-1.287 4.394-2.656 5.064-3.043.67-.388 1.606-.982 2.079-1.321.959-.687 3.179-2.187 4.906-3.316 1.475-.964 11.131-8.182 12.035-8.997 1.622-1.462 3.707-3.227 4.19-3.547 2.289-1.519 17.48-16.655 20.582-20.507 1.483-1.842 3.135-3.811 3.765-4.489 1.444-1.552 9.096-11.92 10.205-13.825.299-.515 1.029-1.591 1.622-2.391 1.213-1.639 5.822-9.266 5.822-9.636 0-.132.078-.24.173-.24.198 0 2.234-3.564 3.622-6.34.514-1.03 1.723-3.415 2.687-5.302 1.666-3.262 5.372-11.681 5.369-12.197 0-.133.077-.273.173-.312.321-.127 2.091-4.871 3.996-10.707 1.039-3.182 1.97-5.939 2.069-6.126.924-1.746 4.621-17.501 5.603-23.88.132-.858.324-1.747.426-1.975.364-.815 1.399-9.117 2.009-16.113.471-5.408.542-24.939.109-30.249-.549-6.743-1.743-16.607-2.113-17.464-.099-.228-.471-2.092-.826-4.141-1.248-7.19-4.24-19.642-5.2-21.638-.11-.229-.777-2.229-1.482-4.445-1.718-5.402-4.189-12.209-4.536-12.499-.069-.057-.627-1.32-1.242-2.807-1.969-4.766-2.259-5.428-3.427-7.829-3.085-6.344-6.633-12.941-7.339-13.647-.153-.153-.279-.368-.279-.477 0-.273-4.519-7.776-5.305-8.808-.838-1.1-2.387-3.386-2.387-3.523 0-.316-3.672-5.323-4.101-5.591-.146-.092-.265-.264-.265-.382 0-.179-1.736-2.508-4.574-6.138-1.193-1.525-6.682-7.968-6.917-8.119-.141-.09-1.047-1.052-2.014-2.139-2.062-2.316-9.304-9.607-10.385-10.456-.411-.322-1.542-1.356-2.514-2.299s-2.278-2.13-2.904-2.639c-2.169-1.766-3.858-3.165-4.924-4.08-.59-.505-2.508-1.987-4.262-3.293-1.755-1.306-3.518-2.646-3.918-2.978-.959-.795-4.908-3.569-5.081-3.569-.17 0-3.246-2.066-3.605-2.421-.312-.31-6.16-3.824-8.236-4.95-.789-.428-1.604-.936-1.812-1.13-.208-.193-2.696-1.517-5.529-2.942-2.833-1.424-5.199-2.648-5.257-2.719-.3-.365-7.695-3.641-11.474-5.083-1.06-.404-1.975-.81-2.036-.901-.278-.423-14.788-5.345-16.95-5.751-.4-.075-.727-.207-.727-.292 0-.616-17.9-4.561-25.052-5.521-1.372-.184-2.682-.415-2.91-.513-.889-.38-9.828-1.301-16.113-1.659-3.247-.185-19.028-.241-21.413-.076m16.528 45.601c6.716.353 8.627.547 15.592 1.585 63.572 9.473 114.566 58.853 126.191 122.197 12.77 69.581-24.031 138.387-89.081 166.55-19.299 8.356-42.198 12.847-62.681 12.295-105.351-2.839-175.581-107.008-138.505-205.434 22.798-60.52 83.998-100.58 148.484-97.193m-13.826 46.583c-63.171 3.904-110.128 57.874-102.487 117.795 5.976 46.874 44.418 84.572 93.236 91.43 30.042 4.22 60.946-3.516 84.35-21.116 50.463-37.948 57.029-107.306 14.496-153.107-1.708-1.839-3.409-3.612-3.782-3.942s-1.676-1.504-2.896-2.61c-21.929-19.87-52.426-30.334-82.917-28.45m15.801 45.401c25.586 4.063 45.164 22.495 50.386 47.437 7.814 37.323-20.814 72.486-59.014 72.486-38.133 0-66.701-35.017-59.028-72.354 5.228-25.436 25.931-44.484 51.912-47.761 3.217-.406 12.707-.29 15.744.192"
            fill="currentColor" />
    </g>
</svg>