<svg viewBox="0 0 7.97 8.36" xmlns="http://www.w3.org/2000/svg"><g fill="currentColor"><path d="m4.79.51v.22c.54.05.91.15.91.25s-.37.21-.91.25v.19c.91-.07 1.55-.26 1.55-.48s-.64-.4-1.55-.47m-3.24.47c0 .22.64.41 1.55.48v-.19c-.54 0-.91-.14-.91-.25s.37-.2.91-.25v-.22c-.91.07-1.55.26-1.55.49"/><path d="m4.79 2.14v.28c.91.06 1.55.2 1.55.36s-.64.3-1.55.36v.28c1.4 0 2.43-.3 2.43-.62s-1-.58-2.43-.66m-4.12.66c0 .32 1 .54 2.43.62v-.28c-.91-.06-1.55-.14-1.55-.34s.64-.3 1.55-.36v-.3c-1.4.08-2.43.35-2.43.66"/><path d="m4.79 1.84v1.58h-1.69v-1.58h1.64"/><path d="m4.79 0v1.42h-1.69v-1.42z"/><path d="m5.58 4.23-1.58 2.83-1.69-2.83h.79v-.36h1.69v.36z"/><path d="m5.63 5.53h-3.29l-2.34 1.12 1.42 1.71h5.09l1.49-1.71zm.2 2.2h-3.69l-1.06-1.19 1.34-.69h3l1.39.69z"/></g></svg>