<svg height="1000" viewBox="0 0 1000 1000" width="1000" xmlns="http://www.w3.org/2000/svg" xmlns:xlink="http://www.w3.org/1999/xlink"><clipPath id="a"><path d="m236 3h528v994.12h-528z"/></clipPath><g clip-path="url(#a)"><path d="m420.6 481.1q-9.8-35.5-20.6-70.8-10.8-35.2-22.6-70.2-11.7-34.9-24.3-69.6-12.7-34.6-26.3-68.9c-9-22.8-5 0-6 0-12.5 23-23.8 46.6-33.8 70.8s-18.6 49-25.8 74.2c-7.2 25.1-13 50.7-17.4 76.5s-7.3 51.8-8.8 78c13.4-7.4 27.5-13.5 42.1-18.1 14.5-4.7 29.5-7.9 44.7-9.6 15.3-1.7 30.6-1.9 45.8-.6 15.3 1.3 30.4 4.1 45.1 8.3s0 0 0 0"/><path d="m360.8 349.3c-6.1 26.5-9.1 53.6-9 80.8.2 27.2 3.5 54.3 9.8 80.7 6.4 26.4 15.9 52 28.2 76.2 12.2 24.3 27.3 47 44.8 67.8 64.9 99.8 221.6 227.5 249.6 332.3-13.5 2.6-27.2 4.1-40.9 4.4-13.8.3-27.5-.6-41.1-2.7-13.5-2-26.9-5.2-39.9-9.5-13.1-4.3-25.7-9.7-37.8-16.1-19.3-22.2-37.5-45.2-54.8-69-17.3-23.7-33.7-48.1-49-73.2-15.3-25-29.5-50.7-42.7-77-13.2-26.2-25.2-53-36.2-80.3-11.3-25.3-20.1-51.8-26.1-78.9-6.1-27.1-9.5-54.8-10.1-82.5-.5-27.8 1.6-55.6 6.5-82.9 4.9-27.4 12.5-54.2 22.7-80z"/><path d="m708.1 501.1c-3.5 24.7-8.7 49.3-15.5 73.4s-15.2 47.7-25.2 70.7c-9.9 23-21.4 45.3-34.2 66.7-12.9 21.5-27.2 42.1-42.9 61.6l-31.9-35.9-33.9-36.9c15.9-15.3 31-31.5 45.1-48.5 14.2-17 27.4-34.7 39.5-53.2 12.2-18.4 23.3-37.6 33.4-57.3 10-19.7 18.9-39.9 26.7-60.6z"/><path d="m585.3 526c14.7-18.6 28.4-37.9 41.1-57.9s24.3-40.7 34.9-61.9c10.5-21.2 20-42.9 28.3-65 8.3-22.2 15.5-44.8 21.5-67.7s0 0 5 0c8.9 23.8 16.5 48 22.7 72.7 6.2 24.6 11.1 49.5 14.5 74.7 3.5 25.2 5.5 50.5 6.1 75.9s-.2 50.8-2.4 76.1 0 0 0 0c-12.4-7.4-25.3-14-38.7-19.6-13.3-5.6-27-10.3-41-14s-28.3-6.4-42.6-8.2c-14.4-1.7-28.9-2.4-43.4-2.1-14.4.3 0 0 0 0"/><path d="m462.6 959.2q-4.7 3.2-9.8 5.6-5.2 2.3-10.7 3.5-5.5 1.3-11.2 1.5-5.7.2-11.2-.6-10.6-1.6-20.8-4.4-10.3-2.8-20.1-6.8-9.9-4.1-19.1-9.3-9.3-5.2-17.9-11.5 5.1-10.5 10.6-20.7 5.5-10.3 11.5-20.3 6-10 12.5-19.7 6.4-9.7 13.3-19.1 8.3 13 17.1 25.8 8.7 12.7 17.8 25.2 9.1 12.5 18.6 24.7 9.5 12.2 19.4 24.1"/><path d="m553.4 600.9q-6.9 8.9-14 17.6-7.1 8.7-14.5 17.1-7.3 8.5-14.9 16.8-7.7 8.3-15.5 16.3l-26.9-34.9c-4.6-33.4-7.2-67.1-7.8-100.9-.6-33.7.8-67.5 4.2-101.1 3.3-33.6 8.7-66.9 15.9-99.9 7.3-32.9 16.5-65.5 27.6-97.3l43.9 8.9q-6.2 44.5-9.1 89.2-3 44.7-2.8 89.6.3 44.8 3.8 89.5 3.4 44.7 10.1 89.1z"/><path d="m425.6 301.4c16-3.5 32.3-5.3 48.7-5.4 16.3-.1 32.6 1.4 48.7 4.7 16 3.2 31.6 8.2 46.6 14.7 15.1 6.5 29.3 14.5 42.7 24 13.3 9.4 0 0 0 0q-8.1-41.7-14.2-83.7-6.1-42-10.1-84.2-3.9-42.3-5.9-84.7-1.9-42.4-1.8-84.8c-20.5 20-39.4 41.6-56.6 64.6-17.1 23-32.4 47.3-45.8 72.7s-24.7 51.7-34 78.9c-9.2 27.1-16.3 55-21.3 83.2"/></g></svg>