<svg viewBox="0 0 5.23 9.9" xmlns="http://www.w3.org/2000/svg" xmlns:xlink="http://www.w3.org/1999/xlink">
    <clipPath id="a" transform="translate(-.01 -.01)">
        <path d="m0 0h5.29v9.96h-5.29z" />
    </clipPath>
    <g clip-path="url(#a)">
        <path
            d="m1.86 4.8a27.88 27.88 0 0 0 -.94-2.8s-.05 0-.06 0a7.08 7.08 0 0 0 -.86 3 0 0 0 0 0 0 0 2.34 2.34 0 0 1 1.78-.2s0 0 0 0"
            transform="translate(-.01 -.01)" />
        <path
            d="m1.26 3.48a3.52 3.52 0 0 0 .74 3.06c.65 1 2.22 2.28 2.5 3.33a2.43 2.43 0 0 1 -1.6-.24 10.69 10.69 0 0 1 -1.83-3 4.2 4.2 0 0 1 -.07-3.25z"
            transform="translate(-.01 -.01)" />
        <path d="m4.74 5a5.66 5.66 0 0 1 -1.18 2.73l-.32-.36-.34-.37a5.94 5.94 0 0 0 1.45-2.2z"
            transform="translate(-.01 -.01)" />
        <path
            d="m3.51 5.25a6.91 6.91 0 0 0 1.26-2.53s0 0 .05 0a6.84 6.84 0 0 1 .41 3s0 0 0 0a3.11 3.11 0 0 0 -1.66-.44s0 0 0 0"
            transform="translate(-.01 -.01)" />
        <path d="m2.28 9.59a.59.59 0 0 1 -.43.1 1.75 1.75 0 0 1 -.78-.32 5.13 5.13 0 0 1 .48-.8 10 10 0 0 0 .73 1"
            transform="translate(-.01 -.01)" />
        <path d="m3.19 6a7.87 7.87 0 0 1 -.59.68l-.27-.35a8.64 8.64 0 0 1 .4-4l.44.09a12.49 12.49 0 0 0 .02 3.58"
            transform="translate(-.01 -.01)" />
        <path
            d="m1.91 3a2.36 2.36 0 0 1 1.87.38s0 0 0 0a17.36 17.36 0 0 1 -.32-3.38 0 0 0 0 0 0 0 5.51 5.51 0 0 0 -1.58 3 0 0 0 0 0 0 0"
            transform="translate(-.01 -.01)" />
    </g>
</svg>