<?xml version="1.0" encoding="UTF-8"?>
<svg xmlns="http://www.w3.org/2000/svg" xmlns:xlink="http://www.w3.org/1999/xlink" width="1000px" height="1000px" viewBox="0 0 1000 1285" version="1.1">
<defs>
<clipPath id="clip1">
  <path d="M 144 0 L 981.960938 0 L 981.960938 772 L 144 772 Z M 144 0 "/>
</clipPath>
</defs>
<g id="surface1">
<path style=" stroke:none;fill-rule:nonzero;fill:rgb(0%,0%,0%);fill-opacity:1;" d="M 276.652344 581.554688 C 436.945312 522.070312 617.253906 576.734375 717.46875 715.195312 C 691.191406 764.453125 686.40625 822.367188 704.246094 875.269531 C 728.261719 920.804688 781.933594 942.011719 830.613281 925.199219 C 829.039062 1026.941406 784.953125 1123.382812 709.027344 1191.175781 C 633.105469 1258.964844 532.269531 1291.921875 430.9375 1282.0625 C 445.632812 1213.121094 409.246094 1143.46875 344.246094 1116.113281 C 270.839844 1078.667969 181.039062 1101.261719 134.121094 1168.984375 C 11.621094 1047.828125 -15.386719 860.0625 68 709.320312 C 116.347656 736.535156 175.40625 736.535156 223.753906 709.320312 C 261.601562 678.210938 281.4375 630.292969 276.652344 581.554688 "/>
<g clip-path="url(#clip1)" clip-rule="nonzero">
<path style=" stroke:none;fill-rule:nonzero;fill:rgb(0%,0%,0%);fill-opacity:1;" d="M 970.203125 641.765625 C 939.484375 729.578125 850.679688 783.203125 758.613281 769.53125 C 764.492188 745.507812 774.429688 722.660156 788 701.976562 L 773.304688 677.011719 C 721.59375 593.53125 639.371094 533.476562 544.082031 509.59375 C 448.3125 480.328125 345.976562 480.328125 250.203125 509.59375 L 213.46875 522.8125 C 218.21875 546.070312 218.21875 570.046875 213.46875 593.304688 C 154.695312 577.148438 110.613281 446.445312 178.203125 330.429688 L 188.488281 330.429688 C 202.921875 346.863281 223.925781 356.015625 245.796875 355.394531 C 241.515625 289.453125 265.566406 224.816406 311.917969 177.695312 L 322.203125 177.695312 C 331.367188 195.648438 348.070312 208.574219 367.753906 212.941406 C 460.710938 73.214844 618.679688 -9.324219 786.53125 -5.875 C 798.636719 -5.207031 809.632812 1.386719 815.917969 11.75 C 892.886719 138.554688 925.453125 287.351562 908.488281 434.695312 C 929.65625 440.4375 951.976562 440.4375 973.144531 434.695312 C 975.753906 432.738281 979.347656 432.738281 981.960938 434.695312 C 986.351562 496.222656 965.078125 556.820312 923.183594 602.113281 C 932.925781 617.167969 948.253906 627.734375 965.796875 631.484375 C 965.796875 631.484375 965.796875 631.484375 965.796875 640.296875 "/>
</g>
</g>
</svg>
