<?xml version="1.0" encoding="UTF-8"?>
<svg xmlns="http://www.w3.org/2000/svg" xmlns:xlink="http://www.w3.org/1999/xlink" width="1000px" height="1000px"
    viewBox="0 0 1000 1500" version="1.1">
    <g id="surface1">
        <path style=" stroke:none;fill-rule:nonzero;fill:rgb(0%,0%,0%);fill-opacity:1;"
            d="M 993.367188 517 C 966.832031 725.953125 772.800781 800.582031 495.855469 790.628906 C 218.90625 780.679688 -1.660156 638.058594 -1.660156 458.957031 C -1.660156 316.335938 107.792969 293.117188 217.246094 196.933594 C 301.824219 125.621094 383.085938 31.09375 509.121094 17.828125 C 650.761719 14.808594 778.683594 102.085938 827.527344 235.074219 C 880.597656 342.867188 1011.609375 400.910156 993.367188 517 " />
        <path style=" stroke:none;fill-rule:nonzero;fill:rgb(0%,0%,0%);fill-opacity:1;"
            d="M 713.101562 1422.472656 C 671.640625 1492.121094 467.660156 1513.679688 369.816406 1462.273438 C 359.761719 1456.734375 354.410156 1445.359375 356.550781 1434.078125 C 378.519531 1373.929688 390.835938 1310.683594 393.035156 1246.683594 C 388.710938 1190.121094 377.003906 1134.367188 358.207031 1080.847656 C 340.800781 1007.792969 340.800781 931.675781 358.207031 858.625 C 403.230469 871.113281 449.308594 879.441406 495.855469 883.5 L 592.039062 883.5 C 584.53125 917.863281 580.089844 952.828125 578.773438 987.976562 C 593.734375 1068.425781 627.863281 1144.082031 678.273438 1208.539062 C 719.980469 1271.546875 733.222656 1349.203125 714.757812 1422.472656 " />
    </g>
</svg>