<?xml version="1.0" encoding="UTF-8"?>
<svg xmlns="http://www.w3.org/2000/svg" xmlns:xlink="http://www.w3.org/1999/xlink" width="1000px" height="1000px" viewBox="0 0 1000 1285" version="1.1">
<defs>
<clipPath id="clip1">
  <path d="M 0.0820312 0 L 1000 0 L 1000 1285 L 0.0820312 1285 Z M 0.0820312 0 "/>
</clipPath>
</defs>
<g id="surface1">
<g clip-path="url(#clip1)" clip-rule="nonzero">
<path style=" stroke:none;fill-rule:nonzero;fill:rgb(0%,0%,0%);fill-opacity:1;" d="M 805.464844 1228.4375 C 662.761719 1316.234375 479.601562 1301.566406 352.707031 1192.179688 C 145.195312 1031.191406 168.414062 854.25 0.0820312 812.191406 C 51.804688 762.867188 124.8125 742.71875 194.535156 758.527344 C 146.644531 613.492188 219.203125 468.460938 103.113281 365.484375 C 156.132812 346.5625 214.070312 346.5625 267.089844 365.484375 C 242.421875 274.113281 277.25 81.21875 171.316406 1.449219 C 377.378906 -15.953125 481.859375 169.691406 528.296875 252.359375 C 563.625 208.34375 611.027344 175.582031 664.703125 158.085938 C 664.703125 369.835938 763.382812 327.777344 809.820312 506.167969 C 842.4375 448.757812 904.96875 414.976562 970.898438 419.148438 C 934.796875 552.207031 941.394531 693.230469 989.761719 822.34375 C 1033.917969 984.378906 956.53125 1154.898438 805.464844 1228.4375 "/>
</g>
</g>
</svg>
