<?xml version="1.0" encoding="UTF-8"?>
<svg xmlns="http://www.w3.org/2000/svg" xmlns:xlink="http://www.w3.org/1999/xlink" width="1000px" height="1000px" viewBox="0 0 1000 1285" version="1.1">
<defs>
<clipPath id="clip1">
  <path d="M 0 61.175781 L 999 61.175781 L 999 1221 L 0 1221 Z M 0 61.175781 "/>
</clipPath>
</defs>
<g id="surface1">
<g clip-path="url(#clip1)" clip-rule="nonzero">
<path style=" stroke:none;fill-rule:nonzero;fill:rgb(0%,0%,0%);fill-opacity:1;" d="M 219.972656 527.855469 C 200.027344 659.015625 123.582031 774.855469 10.796875 844.816406 C 0.433594 848.621094 -4.96875 860.019531 -1.347656 870.445312 C 10.796875 905.511719 41.835938 993.183594 66.125 1049.832031 C 68.074219 1056.09375 74.648438 1059.675781 80.972656 1057.921875 C 218.625 1017.871094 365.121094 1082.816406 427.800781 1211.683594 C 429.367188 1215.578125 433.054688 1218.207031 437.246094 1218.429688 L 483.132812 1218.429688 C 486.796875 1220.921875 491.613281 1220.921875 495.277344 1218.429688 C 584.519531 1107.535156 740.863281 1077.308594 865.046875 1146.941406 C 867.339844 1149.332031 870.507812 1150.6875 873.820312 1150.6875 C 877.132812 1150.6875 880.300781 1149.332031 882.589844 1146.941406 C 919.027344 1097.039062 970.308594 1020.15625 990.554688 989.136719 C 995.953125 981.941406 995.953125 972.050781 990.554688 964.859375 C 894.324219 869.261719 845.824219 735.71875 858.300781 600.6875 C 854.910156 493.460938 906.25 391.855469 994.601562 330.933594 C 996.992188 328.640625 998.347656 325.476562 998.347656 322.164062 C 998.347656 318.855469 996.992188 315.6875 994.601562 313.398438 C 982.457031 281.027344 943.320312 218.984375 916.328125 179.871094 C 912.246094 177.140625 906.917969 177.140625 902.835938 179.871094 C 796.613281 202.695312 687.050781 159.640625 624.832031 70.617188 L 616.734375 61.175781 L 572.199219 61.175781 C 490.464844 131.316406 374.820312 146.164062 278.003906 98.941406 C 274.625 98.625 271.253906 99.585938 268.554688 101.640625 C 232.117188 132.660156 179.488281 183.914062 157.894531 205.496094 C 155.503906 207.785156 154.148438 210.953125 154.148438 214.261719 C 154.148438 217.574219 155.503906 220.742188 157.894531 223.03125 C 232.121094 305.878906 257.703125 421.441406 225.371094 527.855469 "/>
</g>
</g>
</svg>
