<?xml version="1.0" encoding="UTF-8"?>
<svg xmlns="http://www.w3.org/2000/svg" xmlns:xlink="http://www.w3.org/1999/xlink" width="1000px" height="1000px"
    viewBox="0 -250 1000 1000" version="1.1">
    <g id="surface1">
        <path style=" stroke:none;fill-rule:nonzero;fill:rgb(0%,0%,0%);fill-opacity:1;"
            d="M 938.570312 532.585938 C 911.53125 608.691406 841.867188 661.519531 761.21875 667.066406 L 93.484375 423.722656 C 71.046875 418.382812 -6.945312 342.605469 60.363281 172.902344 C 116.988281 27.75 198.183594 -8.539062 248.398438 2.132812 C 298.609375 12.808594 482.371094 122.742188 598.824219 151.558594 C 660.167969 137.039062 715.667969 104.292969 758.011719 57.632812 C 794.863281 50.664062 830.96875 72.859375 841.347656 108.867188 C 836.003906 137.683594 792.199219 207.058594 796.472656 223.066406 C 800.746094 239.078125 927.882812 271.097656 933.226562 276.433594 C 974.320312 356.882812 974.320312 452.136719 933.226562 532.585938 " />
    </g>
</svg>