<?xml version="1.0" encoding="UTF-8"?>
<svg xmlns="http://www.w3.org/2000/svg" xmlns:xlink="http://www.w3.org/1999/xlink" width="1000px" height="1000px"
  viewBox="0 -250 1000 1000" version="1.1">
  <defs>
    <clipPath id="clip1">
      <path d="M 6 7.636719 L 1000 7.636719 L 1000 492.363281 L 6 492.363281 Z M 6 7.636719 " />
    </clipPath>
  </defs>
  <g id="surface1">
    <g clip-path="url(#clip1)" clip-rule="nonzero">
      <path style=" stroke:none;fill-rule:nonzero;fill:rgb(0%,0%,0%);fill-opacity:1;"
        d="M 993.890625 7.636719 L 392.058594 7.636719 C 385.296875 28.632812 366.226562 43.238281 344.195312 44.296875 C 231.429688 49.621094 118.421875 46.558594 6.109375 35.132812 C 4.390625 141.394531 88.277344 229.363281 194.5 232.6875 C 343.175781 251.019531 448.066406 244.910156 451.121094 302.953125 C 454.175781 360.996094 349.289062 380.347656 323.828125 381.363281 C 322.191406 380.738281 320.375 380.738281 318.738281 381.363281 L 293.277344 483.199219 C 291.527344 484.511719 290.8125 486.800781 291.503906 488.882812 C 292.195312 490.960938 294.140625 492.363281 296.335938 492.363281 L 828.921875 492.363281 C 830.859375 490.382812 830.859375 487.214844 828.921875 485.234375 L 805.5 385.4375 C 783.097656 385.4375 662.933594 378.308594 672.097656 292.769531 C 681.261719 207.230469 732.179688 155.296875 925.660156 129.835938 C 951.519531 125.695312 973.023438 107.710938 981.671875 82.992188 C 989.816406 55.5 996.945312 28.003906 1000 14.765625 C 1000.300781 12.976562 999.792969 11.148438 998.613281 9.769531 C 997.433594 8.394531 995.703125 7.613281 993.890625 7.636719 " />
    </g>
  </g>
</svg>