<svg height="1000" viewBox="0 0 1000 1000" width="1000" xmlns="http://www.w3.org/2000/svg" xmlns:xlink="http://www.w3.org/1999/xlink"><clipPath id="a"><path d="m6.26 261.75h993.74v476.83h-993.74z"/></clipPath><g clip-path="url(#a)"><path d="m984 261.7h-592.1c-1.6 5.1-3.9 9.8-7 14.1-3 4.3-6.7 8.1-10.9 11.3s-8.8 5.8-13.7 7.6c-5 1.8-10.2 2.9-15.4 3.1q-41.6 2-83.3 2.4-41.6.4-83.2-.7-41.6-1.1-83.2-3.8-41.5-2.7-82.9-6.9c-27.6-2.8 0 0 0 0-.4 24.9 4 49.6 13.1 72.8 9 23.1 22.5 44.3 39.7 62.3s37.7 32.5 60.4 42.7c22.7 10.1 47.2 15.8 72.1 16.5 146.3 18.1 249.4 12.1 252.4 69.2s-100.1 76.1-125.2 77.1q-.6-.2-1.2-.4-.6-.1-1.3-.1-.6 0-1.3.1-.6.2-1.2.4l-25 100.2c-.9.6-1.5 1.5-1.8 2.5s-.3 2.1 0 3.1c.4 1 1 1.8 1.8 2.4.9.6 1.9 1 3 1h523.9q.7-.7 1-1.6.4-.9.4-1.9 0-1-.4-1.9-.3-.9-1-1.6l-23.1-98.2c-22 0-140.2-7-131.2-91.2 9-84.1 59.1-135.2 249.5-160.2 6.2-1 12.2-2.9 17.9-5.5 5.8-2.6 11.1-6 16-10 4.8-4 9-8.7 12.6-13.9s6.5-10.8 8.6-16.7c8-27.1 15-54.1 18-67.1q.2-1.4-.2-2.7-.3-1.2-1.2-2.3-.9-1-2.1-1.5-1.2-.6-2.5-.6z"/></g></svg>