<?xml version="1.0" encoding="UTF-8"?>
<svg xmlns="http://www.w3.org/2000/svg" xmlns:xlink="http://www.w3.org/1999/xlink" width="1000px" height="1000px" viewBox="0 0 1000 1285" version="1.1">
<defs>
<clipPath id="clip1">
  <path d="M 19.304688 0 L 973.457031 0 L 973.457031 1284 L 19.304688 1284 Z M 19.304688 0 "/>
</clipPath>
</defs>
<g id="surface1">
<g clip-path="url(#clip1)" clip-rule="nonzero">
<path style=" stroke:none;fill-rule:nonzero;fill:rgb(0%,0%,0%);fill-opacity:1;" d="M 767.855469 853.773438 C 767.761719 709.992188 721.585938 570.023438 636.101562 454.378906 C 695.464844 476.085938 741.796875 502.132812 770.753906 513.710938 C 834.503906 552.546875 915.875 546.738281 973.457031 499.238281 C 876.449219 457.273438 779.441406 286.519531 663.609375 232.980469 C 463.804688 149.046875 423.261719 15.917969 290.058594 -2.894531 C 259.402344 -5.476562 228.578125 -0.507812 200.289062 11.578125 L 164.09375 28.941406 L 164.09375 36.175781 C 83.433594 77.878906 29.0625 157.214844 19.304688 247.449219 C 19.304688 342.957031 143.824219 516.605469 327.703125 720.640625 C 322.054688 794.96875 324.480469 869.6875 334.941406 943.492188 C 348.21875 1029.214844 339.246094 1116.914062 308.878906 1198.175781 C 407.078125 1186.511719 484.0625 1108.367188 494.207031 1010.054688 C 566.816406 1158.367188 708.464844 1260.882812 872.105469 1283.554688 C 791.003906 1154.042969 754.402344 1001.621094 767.855469 849.429688 "/>
</g>
</g>
</svg>
