<?xml version="1.0" encoding="UTF-8"?>
<svg xmlns="http://www.w3.org/2000/svg" xmlns:xlink="http://www.w3.org/1999/xlink" width="1000px" height="1000px" viewBox="0 0 1000 1285" version="1.1">
<defs>
<clipPath id="clip1">
  <path d="M 6 0 L 994.449219 0 L 994.449219 1281 L 6 1281 Z M 6 0 "/>
</clipPath>
</defs>
<g id="surface1">
<g clip-path="url(#clip1)" clip-rule="nonzero">
<path style=" stroke:none;fill-rule:nonzero;fill:rgb(0%,0%,0%);fill-opacity:1;" d="M 33.058594 1280.660156 C -16.726562 1167.257812 4.824219 1035.207031 88.078125 943.492188 C 216.941406 781.417969 108.347656 590.40625 300.917969 529.628906 C 257.480469 645.394531 347.25 706.171875 422.539062 599.085938 C 497.828125 492.003906 377.65625 364.664062 555.742188 267.707031 C 544.160156 366.109375 625.242188 389.261719 677.363281 332.828125 C 775.820312 225.742188 757 -21.707031 994.449219 1.445312 C 940.246094 37.503906 912.878906 102.464844 924.953125 166.414062 C 947.175781 272.878906 924.664062 383.792969 862.691406 473.191406 C 765.683594 568.699219 852.558594 617.898438 916.265625 583.171875 C 893.097656 724.984375 812.015625 755.371094 654.199219 788.652344 C 496.378906 821.9375 522.441406 982.5625 642.617188 942.042969 C 522.441406 1221.328125 280.648438 898.632812 33.058594 1280.660156 "/>
</g>
</g>
</svg>
